<?xml version="1.0" encoding="UTF-8" standalone="no" ?><!DOCTYPE svg PUBLIC "-//W3C//DTD SVG 1.1//EN" "http://www.w3.org/Graphics/SVG/1.1/DTD/svg11.dtd"><svg xmlns="http://www.w3.org/2000/svg" xmlns:xlink="http://www.w3.org/1999/xlink" version="1.1" width="876" height="500" viewBox="0 0 876 500" xml:space="preserve"><desc>Created with Fabric.js 1.7.19</desc><defs></defs><rect x="0" y="0" width="876" height="500" fill="#3f3f4f"></rect><g style="stroke: none; stroke-width: 1; stroke-dasharray: none; stroke-linecap: butt; stroke-linejoin: miter; stroke-miterlimit: 10; fill: none; fill-rule: nonzero; opacity: 1" transform="translate(0 0)" ><g transform=" matrix(1 0 0 1 0 11) "><text xml:space="preserve" font-family="Verdana" font-size="11" font-weight="bold" style="stroke: none; stroke-width: 1; stroke-dasharray: none; stroke-linecap: butt; stroke-linejoin: miter; stroke-miterlimit: 10;fill:#E7E7E7;fill-opacity:1; fill-rule: nonzero; opacity: 1; white-space: pre" ><tspan x="0.5" y="7.48" fill="rgba(231,231,231,1)">Value</tspan></text></g><path d="M 0.5 0.5 L 805.5 0.5 L 805.5 23.5 L 0.5 23.5 Z" style="stroke:#000000;stroke-opacity:1; stroke-opacity: 0; stroke-width: 1; stroke-dasharray: none; stroke-linecap: butt; stroke-linejoin: miter; stroke-miterlimit: 10;fill:#FFFFFF;fill-opacity:1; fill-opacity: 0; fill-rule: nonzero; opacity: 1" transform=" matrix(1 0 0 1 54 0) " stroke-linecap="round" /><path d="M -7.5 8.5 L 8.5 8.5 L 8.5 -7.5 L -7.5 -7.5 Z" style="stroke:#639DBD;stroke-opacity:1; stroke-width: 1; stroke-dasharray: none; stroke-linecap: butt; stroke-linejoin: miter; stroke-miterlimit: 10;fill:#639DBD;fill-opacity:1; fill-opacity: 0.9; fill-rule: nonzero; opacity: 1" transform=" matrix(1 0 0 1 62 12) " stroke-linecap="round" /><path d="M -5.5 -5.5 L 6.5 6.5" style="stroke:#FFFFFF;stroke-opacity:1; stroke-opacity: 0; stroke-width: 3; stroke-dasharray: none; stroke-linecap: butt; stroke-linejoin: miter; stroke-miterlimit: 10; fill: none; fill-rule: nonzero; opacity: 0" transform=" matrix(1 0 0 1 62 12) " stroke-linecap="round" /><path d="M -5.5 6.5 L 6.5 -5.5" style="stroke:#FFFFFF;stroke-opacity:1; stroke-opacity: 0; stroke-width: 3; stroke-dasharray: none; stroke-linecap: butt; stroke-linejoin: miter; stroke-miterlimit: 10; fill: none; fill-rule: nonzero; opacity: 0" transform=" matrix(1 0 0 1 62 12) " stroke-linecap="round" /><g transform=" matrix(1 0 0 1 75 11) "><text xml:space="preserve" font-family="Verdana" font-size="11" font-weight="normal" style="stroke: none; stroke-width: 1; stroke-dasharray: none; stroke-linecap: butt; stroke-linejoin: miter; stroke-miterlimit: 10;fill:#E7E7E7;fill-opacity:1; fill-rule: nonzero; opacity: 1; white-space: pre" ><tspan x="0.5" y="7.48" fill="rgba(231,231,231,1)">first data set</tspan></text></g><g transform=" matrix(1 0 0 1 155 11) "><text xml:space="preserve" font-family="Verdana" font-size="11" font-weight="normal" style="stroke: none; stroke-width: 1; stroke-dasharray: none; stroke-linecap: butt; stroke-linejoin: miter; stroke-miterlimit: 10;fill:#E7E7E7;fill-opacity:1; fill-rule: nonzero; opacity: 1; white-space: pre" ><tspan x="0.5" y="7.48" fill="rgba(231,231,231,1)">1,605</tspan></text></g><rect x="16" y="0" rx="0" ry="0" width="135" height="18" style="stroke: none; stroke-width: 0; stroke-dasharray: none; stroke-linecap: butt; stroke-linejoin: miter; stroke-miterlimit: 10;fill:#FFFFFF;fill-opacity:1; fill-opacity: 0.005; fill-rule: nonzero; opacity: 1" transform=" matrix(1 0 0 1 54 4) "/></g><g style="stroke: none; stroke-width: 1; stroke-dasharray: none; stroke-linecap: butt; stroke-linejoin: miter; stroke-miterlimit: 10; fill: none; fill-rule: nonzero; opacity: 1" transform="translate(0 24)" ><path d="M 0.5 0.5 L 859.5 0.5 L 859.5 291.5 L 0.5 291.5 Z" style="stroke:#000000;stroke-opacity:1; stroke-opacity: 0; stroke-width: 1; stroke-dasharray: none; stroke-linecap: butt; stroke-linejoin: miter; stroke-miterlimit: 10;fill:#FFFFFF;fill-opacity:1; fill-opacity: 0; fill-rule: nonzero; opacity: 1" transform="" stroke-linecap="round" /><path d="M 0.5 0.5 L 859.5 0.5 L 859.5 291.5 L 0.5 291.5 L 0.5 0.5 Z" style="stroke:#000000;stroke-opacity:1; stroke-opacity: 0; stroke-width: 1; stroke-dasharray: none; stroke-linecap: butt; stroke-linejoin: miter; stroke-miterlimit: 10;fill:#FFFFFF;fill-opacity:1; fill-opacity: 0; fill-rule: nonzero; opacity: 1" transform=" matrix(1 0 0 1 0 0) " stroke-linecap="round" /><path d="M 55.5 291.5 L 55.5 291.5 L 55.5 0.5" style="stroke:#FFFFFF;stroke-opacity:1; stroke-opacity: 0.1; stroke-width: 1; stroke-dasharray: 3 3; stroke-linecap: butt; stroke-linejoin: miter; stroke-miterlimit: 10; fill: none; fill-rule: nonzero; opacity: 1" transform=" matrix(1 0 0 1 0 0) " stroke-linecap="round" /><path d="M 139.5 291.5 L 139.5 291.5 L 139.5 0.5" style="stroke:#FFFFFF;stroke-opacity:1; stroke-opacity: 0.1; stroke-width: 1; stroke-dasharray: 3 3; stroke-linecap: butt; stroke-linejoin: miter; stroke-miterlimit: 10; fill: none; fill-rule: nonzero; opacity: 1" transform=" matrix(1 0 0 1 0 0) " stroke-linecap="round" /><path d="M 222.5 291.5 L 222.5 291.5 L 222.5 0.5" style="stroke:#FFFFFF;stroke-opacity:1; stroke-opacity: 0.1; stroke-width: 1; stroke-dasharray: 3 3; stroke-linecap: butt; stroke-linejoin: miter; stroke-miterlimit: 10; fill: none; fill-rule: nonzero; opacity: 1" transform=" matrix(1 0 0 1 0 0) " stroke-linecap="round" /><path d="M 305.5 291.5 L 305.5 291.5 L 305.5 0.5" style="stroke:#FFFFFF;stroke-opacity:1; stroke-opacity: 0.1; stroke-width: 1; stroke-dasharray: 3 3; stroke-linecap: butt; stroke-linejoin: miter; stroke-miterlimit: 10; fill: none; fill-rule: nonzero; opacity: 1" transform=" matrix(1 0 0 1 0 0) " stroke-linecap="round" /><path d="M 388.5 291.5 L 388.5 291.5 L 388.5 0.5" style="stroke:#FFFFFF;stroke-opacity:1; stroke-opacity: 0.1; stroke-width: 1; stroke-dasharray: 3 3; stroke-linecap: butt; stroke-linejoin: miter; stroke-miterlimit: 10; fill: none; fill-rule: nonzero; opacity: 1" transform=" matrix(1 0 0 1 0 0) " stroke-linecap="round" /><path d="M 471.5 291.5 L 471.5 291.5 L 471.5 0.5" style="stroke:#FFFFFF;stroke-opacity:1; stroke-opacity: 0.1; stroke-width: 1; stroke-dasharray: 3 3; stroke-linecap: butt; stroke-linejoin: miter; stroke-miterlimit: 10; fill: none; fill-rule: nonzero; opacity: 1" transform=" matrix(1 0 0 1 0 0) " stroke-linecap="round" /><path d="M 554.5 291.5 L 554.5 291.5 L 554.5 0.5" style="stroke:#FFFFFF;stroke-opacity:1; stroke-opacity: 0.1; stroke-width: 1; stroke-dasharray: 3 3; stroke-linecap: butt; stroke-linejoin: miter; stroke-miterlimit: 10; fill: none; fill-rule: nonzero; opacity: 1" transform=" matrix(1 0 0 1 0 0) " stroke-linecap="round" /><path d="M 637.5 291.5 L 637.5 291.5 L 637.5 0.5" style="stroke:#FFFFFF;stroke-opacity:1; stroke-opacity: 0.1; stroke-width: 1; stroke-dasharray: 3 3; stroke-linecap: butt; stroke-linejoin: miter; stroke-miterlimit: 10; fill: none; fill-rule: nonzero; opacity: 1" transform=" matrix(1 0 0 1 0 0) " stroke-linecap="round" /><path d="M 720.5 291.5 L 720.5 291.5 L 720.5 0.5" style="stroke:#FFFFFF;stroke-opacity:1; stroke-opacity: 0.1; stroke-width: 1; stroke-dasharray: 3 3; stroke-linecap: butt; stroke-linejoin: miter; stroke-miterlimit: 10; fill: none; fill-rule: nonzero; opacity: 1" transform=" matrix(1 0 0 1 0 0) " stroke-linecap="round" /><path d="M 804.5 291.5 L 804.5 291.5 L 804.5 0.5" style="stroke:#FFFFFF;stroke-opacity:1; stroke-opacity: 0.1; stroke-width: 1; stroke-dasharray: 3 3; stroke-linecap: butt; stroke-linejoin: miter; stroke-miterlimit: 10; fill: none; fill-rule: nonzero; opacity: 1" transform=" matrix(1 0 0 1 0 0) " stroke-linecap="round" /><path d="M 0.5 291.5 L 0.5 291.5 L 859.5 291.5" style="stroke:#FFFFFF;stroke-opacity:1; stroke-opacity: 0.1; stroke-width: 1; stroke-dasharray: 3 3; stroke-linecap: butt; stroke-linejoin: miter; stroke-miterlimit: 10; fill: none; fill-rule: nonzero; opacity: 1" transform=" matrix(1 0 0 1 0 0) " stroke-linecap="round" /><path d="M 0.5 255.5 L 0.5 255.5 L 859.5 255.5" style="stroke:#FFFFFF;stroke-opacity:1; stroke-opacity: 0.1; stroke-width: 1; stroke-dasharray: 3 3; stroke-linecap: butt; stroke-linejoin: miter; stroke-miterlimit: 10; fill: none; fill-rule: nonzero; opacity: 1" transform=" matrix(1 0 0 1 0 0) " stroke-linecap="round" /><path d="M 0.5 218.5 L 0.5 218.5 L 859.5 218.5" style="stroke:#FFFFFF;stroke-opacity:1; stroke-opacity: 0.1; stroke-width: 1; stroke-dasharray: 3 3; stroke-linecap: butt; stroke-linejoin: miter; stroke-miterlimit: 10; fill: none; fill-rule: nonzero; opacity: 1" transform=" matrix(1 0 0 1 0 0) " stroke-linecap="round" /><path d="M 0.5 182.5 L 0.5 182.5 L 859.5 182.5" style="stroke:#FFFFFF;stroke-opacity:1; stroke-opacity: 0.1; stroke-width: 1; stroke-dasharray: 3 3; stroke-linecap: butt; stroke-linejoin: miter; stroke-miterlimit: 10; fill: none; fill-rule: nonzero; opacity: 1" transform=" matrix(1 0 0 1 0 0) " stroke-linecap="round" /><path d="M 0.5 146.5 L 0.5 146.5 L 859.5 146.5" style="stroke:#FFFFFF;stroke-opacity:1; stroke-opacity: 0.1; stroke-width: 1; stroke-dasharray: 3 3; stroke-linecap: butt; stroke-linejoin: miter; stroke-miterlimit: 10; fill: none; fill-rule: nonzero; opacity: 1" transform=" matrix(1 0 0 1 0 0) " stroke-linecap="round" /><path d="M 0.5 109.5 L 0.5 109.5 L 859.5 109.5" style="stroke:#FFFFFF;stroke-opacity:1; stroke-opacity: 0.1; stroke-width: 1; stroke-dasharray: 3 3; stroke-linecap: butt; stroke-linejoin: miter; stroke-miterlimit: 10; fill: none; fill-rule: nonzero; opacity: 1" transform=" matrix(1 0 0 1 0 0) " stroke-linecap="round" /><path d="M 0.5 73.5 L 0.5 73.5 L 859.5 73.5" style="stroke:#FFFFFF;stroke-opacity:1; stroke-opacity: 0.1; stroke-width: 1; stroke-dasharray: 3 3; stroke-linecap: butt; stroke-linejoin: miter; stroke-miterlimit: 10; fill: none; fill-rule: nonzero; opacity: 1" transform=" matrix(1 0 0 1 0 0) " stroke-linecap="round" /><path d="M 0.5 36.5 L 0.5 36.5 L 859.5 36.5" style="stroke:#FFFFFF;stroke-opacity:1; stroke-opacity: 0.1; stroke-width: 1; stroke-dasharray: 3 3; stroke-linecap: butt; stroke-linejoin: miter; stroke-miterlimit: 10; fill: none; fill-rule: nonzero; opacity: 1" transform=" matrix(1 0 0 1 0 0) " stroke-linecap="round" /><path d="M 0.5 0.5 L 0.5 0.5 L 859.5 0.5" style="stroke:#FFFFFF;stroke-opacity:1; stroke-opacity: 0.1; stroke-width: 1; stroke-dasharray: 3 3; stroke-linecap: butt; stroke-linejoin: miter; stroke-miterlimit: 10; fill: none; fill-rule: nonzero; opacity: 1" transform=" matrix(1 0 0 1 0 0) " stroke-linecap="round" /><g  clip-path="url(#DSCEl-7)" ><rect x="0.5" y="0.5" rx="0" ry="0" width="28" height="291" style="stroke:#FFFFFF;stroke-opacity:1; stroke-opacity: 0; stroke-width: 0.1; stroke-dasharray: none; stroke-linecap: butt; stroke-linejoin: miter; stroke-miterlimit: 10;fill:#FFFFFF;fill-opacity:1; fill-opacity: 0; fill-rule: nonzero; opacity: 0" transform=" matrix(1 0 0 1 776 0) "/></g><path d="M -13.5 211.475 L 14.5 196.925 L 42.5 138.725 L 69.5 167.825 L 97.5 175.1 L 125.5 196.925 L 152.5 124.175 L 180.5 87.8 L 208.5 65.975 L 236.5 58.7 L 263.5 29.6 L 291.5 80.525 L 319.5 51.425 L 346.5 95.075 L 374.5 131.45 L 402.5 182.375 L 430.5 182.375 L 457.5 226.025 L 485.5 276.95 L 513.5 218.75 L 540.5 233.3 L 568.5 175.1 L 596.5 138.725 L 623.5 116.9 L 651.5 58.7 L 679.5 36.875 L 707.5 102.35 L 734.5 73.25 L 762.5 58.7 L 790.5 36.875 L 817.5 109.625 L 845.5 146 M 0 0 L 0 0" style="stroke:#639DBD;stroke-opacity:1; stroke-opacity: 0.9; stroke-width: 1; stroke-dasharray: none; stroke-linecap: butt; stroke-linejoin: round; stroke-miterlimit: 10; fill: none; fill-rule: nonzero; opacity: 1" transform=" matrix(1 0 0 1 0 0) " stroke-linecap="round"  clip-path="url(#DSCEl-9)" /><path d="M 0.5 0.5 L 859.5 0.5" style="stroke:#FFFFFF;stroke-opacity:1; stroke-opacity: 0; stroke-width: 1; stroke-dasharray: none; stroke-linecap: butt; stroke-linejoin: miter; stroke-miterlimit: 10; fill: none; fill-rule: nonzero; opacity: 1" transform=" matrix(1 0 0 1 0 291) " stroke-linecap="round" /><path d="M 0.5 0.5 L 0.5 291.5" style="stroke:#FFFFFF;stroke-opacity:1; stroke-opacity: 0; stroke-width: 1; stroke-dasharray: none; stroke-linecap: butt; stroke-linejoin: miter; stroke-miterlimit: 10; fill: none; fill-rule: nonzero; opacity: 1" transform=" matrix(1 0 0 1 0 0) " stroke-linecap="round" /><g  clip-path="url(#DSCEl-8)" ><path d="M 0.5 0.5 L 859.5 0.5 L 859.5 0.5" style="stroke:#FFFFFF;stroke-opacity:1; stroke-opacity: 0; stroke-width: 1; stroke-dasharray: none; stroke-linecap: butt; stroke-linejoin: miter; stroke-miterlimit: 10; fill: none; fill-rule: nonzero; opacity: 0" transform=" matrix(1 0 0 1 0 17) " stroke-linecap="round" /></g><g transform=" matrix(1 0 0 1 4 282.5) "><text xml:space="preserve" font-family="Verdana" font-size="11" font-weight="normal" style="stroke: none; stroke-width: 1; stroke-dasharray: none; stroke-linecap: butt; stroke-linejoin: miter; stroke-miterlimit: 10;fill:#E7E7E7;fill-opacity:1; fill-rule: nonzero; opacity: 1; white-space: pre" ><tspan x="0" y="7.48" fill="rgba(231,231,231,1)">1,585</tspan></text></g><g transform=" matrix(1 0 0 1 4 246.5) "><text xml:space="preserve" font-family="Verdana" font-size="11" font-weight="normal" style="stroke: none; stroke-width: 1; stroke-dasharray: none; stroke-linecap: butt; stroke-linejoin: miter; stroke-miterlimit: 10;fill:#E7E7E7;fill-opacity:1; fill-rule: nonzero; opacity: 1; white-space: pre" ><tspan x="0" y="7.48" fill="rgba(231,231,231,1)">1,590</tspan></text></g><g transform=" matrix(1 0 0 1 4 209.5) "><text xml:space="preserve" font-family="Verdana" font-size="11" font-weight="normal" style="stroke: none; stroke-width: 1; stroke-dasharray: none; stroke-linecap: butt; stroke-linejoin: miter; stroke-miterlimit: 10;fill:#E7E7E7;fill-opacity:1; fill-rule: nonzero; opacity: 1; white-space: pre" ><tspan x="0" y="7.48" fill="rgba(231,231,231,1)">1,595</tspan></text></g><g transform=" matrix(1 0 0 1 4 173.5) "><text xml:space="preserve" font-family="Verdana" font-size="11" font-weight="normal" style="stroke: none; stroke-width: 1; stroke-dasharray: none; stroke-linecap: butt; stroke-linejoin: miter; stroke-miterlimit: 10;fill:#E7E7E7;fill-opacity:1; fill-rule: nonzero; opacity: 1; white-space: pre" ><tspan x="0" y="7.48" fill="rgba(231,231,231,1)">1,600</tspan></text></g><g transform=" matrix(1 0 0 1 4 137.5) "><text xml:space="preserve" font-family="Verdana" font-size="11" font-weight="normal" style="stroke: none; stroke-width: 1; stroke-dasharray: none; stroke-linecap: butt; stroke-linejoin: miter; stroke-miterlimit: 10;fill:#E7E7E7;fill-opacity:1; fill-rule: nonzero; opacity: 1; white-space: pre" ><tspan x="0" y="7.48" fill="rgba(231,231,231,1)">1,605</tspan></text></g><g transform=" matrix(1 0 0 1 4 100.5) "><text xml:space="preserve" font-family="Verdana" font-size="11" font-weight="normal" style="stroke: none; stroke-width: 1; stroke-dasharray: none; stroke-linecap: butt; stroke-linejoin: miter; stroke-miterlimit: 10;fill:#E7E7E7;fill-opacity:1; fill-rule: nonzero; opacity: 1; white-space: pre" ><tspan x="0" y="7.48" fill="rgba(231,231,231,1)">1,610</tspan></text></g><g transform=" matrix(1 0 0 1 4 64.5) "><text xml:space="preserve" font-family="Verdana" font-size="11" font-weight="normal" style="stroke: none; stroke-width: 1; stroke-dasharray: none; stroke-linecap: butt; stroke-linejoin: miter; stroke-miterlimit: 10;fill:#E7E7E7;fill-opacity:1; fill-rule: nonzero; opacity: 1; white-space: pre" ><tspan x="0" y="7.48" fill="rgba(231,231,231,1)">1,615</tspan></text></g><g transform=" matrix(1 0 0 1 4 27.5) "><text xml:space="preserve" font-family="Verdana" font-size="11" font-weight="normal" style="stroke: none; stroke-width: 1; stroke-dasharray: none; stroke-linecap: butt; stroke-linejoin: miter; stroke-miterlimit: 10;fill:#E7E7E7;fill-opacity:1; fill-rule: nonzero; opacity: 1; white-space: pre" ><tspan x="0" y="7.48" fill="rgba(231,231,231,1)">1,620</tspan></text></g><g transform=" matrix(1 0 0 1 4 -1) "><text xml:space="preserve" font-family="Verdana" font-size="11" font-weight="normal" style="stroke: none; stroke-width: 1; stroke-dasharray: none; stroke-linecap: butt; stroke-linejoin: miter; stroke-miterlimit: 10;fill:#E7E7E7;fill-opacity:1; fill-rule: nonzero; opacity: 1; white-space: pre" ><tspan x="0" y="7.48" fill="rgba(231,231,231,1)"> </tspan></text></g></g><g style="stroke: none; stroke-width: 1; stroke-dasharray: none; stroke-linecap: butt; stroke-linejoin: miter; stroke-miterlimit: 10; fill: none; fill-rule: nonzero; opacity: 1" transform="translate(0 324)" ><g transform=" matrix(1 0 0 1 0 11) "><text xml:space="preserve" font-family="Verdana" font-size="11" font-weight="bold" style="stroke: none; stroke-width: 1; stroke-dasharray: none; stroke-linecap: butt; stroke-linejoin: miter; stroke-miterlimit: 10;fill:#E7E7E7;fill-opacity:1; fill-rule: nonzero; opacity: 1; white-space: pre" ><tspan x="0.5" y="7.48" fill="rgba(231,231,231,1)">Volume</tspan></text></g><path d="M 0.5 0.5 L 793.5 0.5 L 793.5 23.5 L 0.5 23.5 Z" style="stroke:#000000;stroke-opacity:1; stroke-opacity: 0; stroke-width: 1; stroke-dasharray: none; stroke-linecap: butt; stroke-linejoin: miter; stroke-miterlimit: 10;fill:#FFFFFF;fill-opacity:1; fill-opacity: 0; fill-rule: nonzero; opacity: 1" transform=" matrix(1 0 0 1 66 0) " stroke-linecap="round" /><path d="M -7.5 8.5 L 8.5 8.5 L 8.5 -7.5 L -7.5 -7.5 Z" style="stroke:#639DBD;stroke-opacity:1; stroke-width: 1; stroke-dasharray: none; stroke-linecap: butt; stroke-linejoin: miter; stroke-miterlimit: 10;fill:#639DBD;fill-opacity:1; fill-rule: nonzero; opacity: 1" transform=" matrix(1 0 0 1 74 12) " stroke-linecap="round" /><path d="M -5.5 -5.5 L 6.5 6.5" style="stroke:#FFFFFF;stroke-opacity:1; stroke-opacity: 0; stroke-width: 3; stroke-dasharray: none; stroke-linecap: butt; stroke-linejoin: miter; stroke-miterlimit: 10; fill: none; fill-rule: nonzero; opacity: 0" transform=" matrix(1 0 0 1 74 12) " stroke-linecap="round" /><path d="M -5.5 6.5 L 6.5 -5.5" style="stroke:#FFFFFF;stroke-opacity:1; stroke-opacity: 0; stroke-width: 3; stroke-dasharray: none; stroke-linecap: butt; stroke-linejoin: miter; stroke-miterlimit: 10; fill: none; fill-rule: nonzero; opacity: 0" transform=" matrix(1 0 0 1 74 12) " stroke-linecap="round" /><g transform=" matrix(1 0 0 1 87 11) "><text xml:space="preserve" font-family="Verdana" font-size="11" font-weight="normal" style="stroke: none; stroke-width: 1; stroke-dasharray: none; stroke-linecap: butt; stroke-linejoin: miter; stroke-miterlimit: 10;fill:#E7E7E7;fill-opacity:1; fill-rule: nonzero; opacity: 1; white-space: pre" ><tspan x="0.5" y="7.48" fill="rgba(231,231,231,1)">first data set</tspan></text></g><g transform=" matrix(1 0 0 1 167 11) "><text xml:space="preserve" font-family="Verdana" font-size="11" font-weight="normal" style="stroke: none; stroke-width: 1; stroke-dasharray: none; stroke-linecap: butt; stroke-linejoin: miter; stroke-miterlimit: 10;fill:#E7E7E7;fill-opacity:1; fill-rule: nonzero; opacity: 1; white-space: pre" ><tspan x="0.5" y="7.48" fill="rgba(231,231,231,1)">3,101</tspan></text></g><rect x="16" y="0" rx="0" ry="0" width="135" height="18" style="stroke: none; stroke-width: 0; stroke-dasharray: none; stroke-linecap: butt; stroke-linejoin: miter; stroke-miterlimit: 10;fill:#FFFFFF;fill-opacity:1; fill-opacity: 0.005; fill-rule: nonzero; opacity: 1" transform=" matrix(1 0 0 1 66 4) "/></g><g style="stroke: none; stroke-width: 1; stroke-dasharray: none; stroke-linecap: butt; stroke-linejoin: miter; stroke-miterlimit: 10; fill: none; fill-rule: nonzero; opacity: 1" transform="translate(0 348)" ><path d="M 0.5 0.5 L 859.5 0.5 L 859.5 111.5 L 0.5 111.5 Z" style="stroke:#000000;stroke-opacity:1; stroke-opacity: 0; stroke-width: 1; stroke-dasharray: none; stroke-linecap: butt; stroke-linejoin: miter; stroke-miterlimit: 10;fill:#FFFFFF;fill-opacity:1; fill-opacity: 0; fill-rule: nonzero; opacity: 1" transform="" stroke-linecap="round" /><path d="M 0.5 0.5 L 859.5 0.5 L 859.5 83.5 L 0.5 83.5 L 0.5 0.5 Z" style="stroke:#000000;stroke-opacity:1; stroke-opacity: 0; stroke-width: 1; stroke-dasharray: none; stroke-linecap: butt; stroke-linejoin: miter; stroke-miterlimit: 10;fill:#FFFFFF;fill-opacity:1; fill-opacity: 0; fill-rule: nonzero; opacity: 1" transform=" matrix(1 0 0 1 0 0) " stroke-linecap="round" /><path d="M 55.5 83.5 L 55.5 83.5 L 55.5 0.5" style="stroke:#FFFFFF;stroke-opacity:1; stroke-opacity: 0.1; stroke-width: 1; stroke-dasharray: 3 3; stroke-linecap: butt; stroke-linejoin: miter; stroke-miterlimit: 10; fill: none; fill-rule: nonzero; opacity: 1" transform=" matrix(1 0 0 1 0 0) " stroke-linecap="round" /><path d="M 139.5 83.5 L 139.5 83.5 L 139.5 0.5" style="stroke:#FFFFFF;stroke-opacity:1; stroke-opacity: 0.1; stroke-width: 1; stroke-dasharray: 3 3; stroke-linecap: butt; stroke-linejoin: miter; stroke-miterlimit: 10; fill: none; fill-rule: nonzero; opacity: 1" transform=" matrix(1 0 0 1 0 0) " stroke-linecap="round" /><path d="M 222.5 83.5 L 222.5 83.5 L 222.5 0.5" style="stroke:#FFFFFF;stroke-opacity:1; stroke-opacity: 0.1; stroke-width: 1; stroke-dasharray: 3 3; stroke-linecap: butt; stroke-linejoin: miter; stroke-miterlimit: 10; fill: none; fill-rule: nonzero; opacity: 1" transform=" matrix(1 0 0 1 0 0) " stroke-linecap="round" /><path d="M 305.5 83.5 L 305.5 83.5 L 305.5 0.5" style="stroke:#FFFFFF;stroke-opacity:1; stroke-opacity: 0.1; stroke-width: 1; stroke-dasharray: 3 3; stroke-linecap: butt; stroke-linejoin: miter; stroke-miterlimit: 10; fill: none; fill-rule: nonzero; opacity: 1" transform=" matrix(1 0 0 1 0 0) " stroke-linecap="round" /><path d="M 388.5 83.5 L 388.5 83.5 L 388.5 0.5" style="stroke:#FFFFFF;stroke-opacity:1; stroke-opacity: 0.1; stroke-width: 1; stroke-dasharray: 3 3; stroke-linecap: butt; stroke-linejoin: miter; stroke-miterlimit: 10; fill: none; fill-rule: nonzero; opacity: 1" transform=" matrix(1 0 0 1 0 0) " stroke-linecap="round" /><path d="M 471.5 83.5 L 471.5 83.5 L 471.5 0.5" style="stroke:#FFFFFF;stroke-opacity:1; stroke-opacity: 0.1; stroke-width: 1; stroke-dasharray: 3 3; stroke-linecap: butt; stroke-linejoin: miter; stroke-miterlimit: 10; fill: none; fill-rule: nonzero; opacity: 1" transform=" matrix(1 0 0 1 0 0) " stroke-linecap="round" /><path d="M 554.5 83.5 L 554.5 83.5 L 554.5 0.5" style="stroke:#FFFFFF;stroke-opacity:1; stroke-opacity: 0.1; stroke-width: 1; stroke-dasharray: 3 3; stroke-linecap: butt; stroke-linejoin: miter; stroke-miterlimit: 10; fill: none; fill-rule: nonzero; opacity: 1" transform=" matrix(1 0 0 1 0 0) " stroke-linecap="round" /><path d="M 637.5 83.5 L 637.5 83.5 L 637.5 0.5" style="stroke:#FFFFFF;stroke-opacity:1; stroke-opacity: 0.1; stroke-width: 1; stroke-dasharray: 3 3; stroke-linecap: butt; stroke-linejoin: miter; stroke-miterlimit: 10; fill: none; fill-rule: nonzero; opacity: 1" transform=" matrix(1 0 0 1 0 0) " stroke-linecap="round" /><path d="M 720.5 83.5 L 720.5 83.5 L 720.5 0.5" style="stroke:#FFFFFF;stroke-opacity:1; stroke-opacity: 0.1; stroke-width: 1; stroke-dasharray: 3 3; stroke-linecap: butt; stroke-linejoin: miter; stroke-miterlimit: 10; fill: none; fill-rule: nonzero; opacity: 1" transform=" matrix(1 0 0 1 0 0) " stroke-linecap="round" /><path d="M 804.5 83.5 L 804.5 83.5 L 804.5 0.5" style="stroke:#FFFFFF;stroke-opacity:1; stroke-opacity: 0.1; stroke-width: 1; stroke-dasharray: 3 3; stroke-linecap: butt; stroke-linejoin: miter; stroke-miterlimit: 10; fill: none; fill-rule: nonzero; opacity: 1" transform=" matrix(1 0 0 1 0 0) " stroke-linecap="round" /><path d="M 0.5 83.5 L 0.5 83.5 L 859.5 83.5" style="stroke:#FFFFFF;stroke-opacity:1; stroke-opacity: 0.1; stroke-width: 1; stroke-dasharray: 3 3; stroke-linecap: butt; stroke-linejoin: miter; stroke-miterlimit: 10; fill: none; fill-rule: nonzero; opacity: 1" transform=" matrix(1 0 0 1 0 0) " stroke-linecap="round" /><path d="M 0.5 55.5 L 0.5 55.5 L 859.5 55.5" style="stroke:#FFFFFF;stroke-opacity:1; stroke-opacity: 0.1; stroke-width: 1; stroke-dasharray: 3 3; stroke-linecap: butt; stroke-linejoin: miter; stroke-miterlimit: 10; fill: none; fill-rule: nonzero; opacity: 1" transform=" matrix(1 0 0 1 0 0) " stroke-linecap="round" /><path d="M 0.5 28.5 L 0.5 28.5 L 859.5 28.5" style="stroke:#FFFFFF;stroke-opacity:1; stroke-opacity: 0.1; stroke-width: 1; stroke-dasharray: 3 3; stroke-linecap: butt; stroke-linejoin: miter; stroke-miterlimit: 10; fill: none; fill-rule: nonzero; opacity: 1" transform=" matrix(1 0 0 1 0 0) " stroke-linecap="round" /><path d="M 0.5 0.5 L 0.5 0.5 L 859.5 0.5" style="stroke:#FFFFFF;stroke-opacity:1; stroke-opacity: 0.1; stroke-width: 1; stroke-dasharray: 3 3; stroke-linecap: butt; stroke-linejoin: miter; stroke-miterlimit: 10; fill: none; fill-rule: nonzero; opacity: 1" transform=" matrix(1 0 0 1 0 0) " stroke-linecap="round" /><g  clip-path="url(#DSCEl-10)" ><rect x="0.5" y="0.5" rx="0" ry="0" width="28" height="83" style="stroke:#FFFFFF;stroke-opacity:1; stroke-opacity: 0; stroke-width: 0.1; stroke-dasharray: none; stroke-linecap: butt; stroke-linejoin: miter; stroke-miterlimit: 10;fill:#FFFFFF;fill-opacity:1; fill-opacity: 0; fill-rule: nonzero; opacity: 0" transform=" matrix(1 0 0 1 803 0) "/></g><path d="M 0.5 0.5 L 0.5 -25.5 L 22.5 -25.5 L 22.5 0.5 L 0.5 0.5 Z" style="stroke:#639DBD;stroke-opacity:1; stroke-opacity: 0.9; stroke-width: 1; stroke-dasharray: none; stroke-linecap: butt; stroke-linejoin: miter; stroke-miterlimit: 10;fill:#639DBD;fill-opacity:1; fill-rule: nonzero; opacity: 1" transform=" matrix(1 0 0 1 3 83) " stroke-linecap="round" /><path d="M 0.5 0.5 L 0.5 -25.5 L 22.5 -25.5 L 22.5 0.5 L 0.5 0.5 Z" style="stroke:#639DBD;stroke-opacity:1; stroke-opacity: 0.9; stroke-width: 1; stroke-dasharray: none; stroke-linecap: butt; stroke-linejoin: miter; stroke-miterlimit: 10;fill:#639DBD;fill-opacity:1; fill-rule: nonzero; opacity: 1" transform=" matrix(1 0 0 1 31 83) " stroke-linecap="round" /><path d="M 0.5 0.5 L 0.5 -24.5 L 22.5 -24.5 L 22.5 0.5 L 0.5 0.5 Z" style="stroke:#639DBD;stroke-opacity:1; stroke-opacity: 0.9; stroke-width: 1; stroke-dasharray: none; stroke-linecap: butt; stroke-linejoin: miter; stroke-miterlimit: 10;fill:#639DBD;fill-opacity:1; fill-rule: nonzero; opacity: 1" transform=" matrix(1 0 0 1 58 83) " stroke-linecap="round" /><path d="M 0.5 0.5 L 0.5 -29.5 L 22.5 -29.5 L 22.5 0.5 L 0.5 0.5 Z" style="stroke:#639DBD;stroke-opacity:1; stroke-opacity: 0.9; stroke-width: 1; stroke-dasharray: none; stroke-linecap: butt; stroke-linejoin: miter; stroke-miterlimit: 10;fill:#639DBD;fill-opacity:1; fill-rule: nonzero; opacity: 1" transform=" matrix(1 0 0 1 86 83) " stroke-linecap="round" /><path d="M 0.5 0.5 L 0.5 -28.5 L 22.5 -28.5 L 22.5 0.5 L 0.5 0.5 Z" style="stroke:#639DBD;stroke-opacity:1; stroke-opacity: 0.9; stroke-width: 1; stroke-dasharray: none; stroke-linecap: butt; stroke-linejoin: miter; stroke-miterlimit: 10;fill:#639DBD;fill-opacity:1; fill-rule: nonzero; opacity: 1" transform=" matrix(1 0 0 1 114 83) " stroke-linecap="round" /><path d="M 0.5 0.5 L 0.5 -25.5 L 22.5 -25.5 L 22.5 0.5 L 0.5 0.5 Z" style="stroke:#639DBD;stroke-opacity:1; stroke-opacity: 0.9; stroke-width: 1; stroke-dasharray: none; stroke-linecap: butt; stroke-linejoin: miter; stroke-miterlimit: 10;fill:#639DBD;fill-opacity:1; fill-rule: nonzero; opacity: 1" transform=" matrix(1 0 0 1 141 83) " stroke-linecap="round" /><path d="M 0.5 0.5 L 0.5 -31.5 L 22.5 -31.5 L 22.5 0.5 L 0.5 0.5 Z" style="stroke:#639DBD;stroke-opacity:1; stroke-opacity: 0.9; stroke-width: 1; stroke-dasharray: none; stroke-linecap: butt; stroke-linejoin: miter; stroke-miterlimit: 10;fill:#639DBD;fill-opacity:1; fill-rule: nonzero; opacity: 1" transform=" matrix(1 0 0 1 169 83) " stroke-linecap="round" /><path d="M 0.5 0.5 L 0.5 -35.5 L 22.5 -35.5 L 22.5 0.5 L 0.5 0.5 Z" style="stroke:#639DBD;stroke-opacity:1; stroke-opacity: 0.9; stroke-width: 1; stroke-dasharray: none; stroke-linecap: butt; stroke-linejoin: miter; stroke-miterlimit: 10;fill:#639DBD;fill-opacity:1; fill-rule: nonzero; opacity: 1" transform=" matrix(1 0 0 1 197 83) " stroke-linecap="round" /><path d="M 0.5 0.5 L 0.5 -37.5 L 22.5 -37.5 L 22.5 0.5 L 0.5 0.5 Z" style="stroke:#639DBD;stroke-opacity:1; stroke-opacity: 0.9; stroke-width: 1; stroke-dasharray: none; stroke-linecap: butt; stroke-linejoin: miter; stroke-miterlimit: 10;fill:#639DBD;fill-opacity:1; fill-rule: nonzero; opacity: 1" transform=" matrix(1 0 0 1 225 83) " stroke-linecap="round" /><path d="M 0.5 0.5 L 0.5 -40.5 L 22.5 -40.5 L 22.5 0.5 L 0.5 0.5 Z" style="stroke:#639DBD;stroke-opacity:1; stroke-opacity: 0.9; stroke-width: 1; stroke-dasharray: none; stroke-linecap: butt; stroke-linejoin: miter; stroke-miterlimit: 10;fill:#639DBD;fill-opacity:1; fill-rule: nonzero; opacity: 1" transform=" matrix(1 0 0 1 252 83) " stroke-linecap="round" /><path d="M 0.5 0.5 L 0.5 -40.5 L 22.5 -40.5 L 22.5 0.5 L 0.5 0.5 Z" style="stroke:#639DBD;stroke-opacity:1; stroke-opacity: 0.9; stroke-width: 1; stroke-dasharray: none; stroke-linecap: butt; stroke-linejoin: miter; stroke-miterlimit: 10;fill:#639DBD;fill-opacity:1; fill-rule: nonzero; opacity: 1" transform=" matrix(1 0 0 1 280 83) " stroke-linecap="round" /><path d="M 0.5 0.5 L 0.5 -42.5 L 22.5 -42.5 L 22.5 0.5 L 0.5 0.5 Z" style="stroke:#639DBD;stroke-opacity:1; stroke-opacity: 0.9; stroke-width: 1; stroke-dasharray: none; stroke-linecap: butt; stroke-linejoin: miter; stroke-miterlimit: 10;fill:#639DBD;fill-opacity:1; fill-rule: nonzero; opacity: 1" transform=" matrix(1 0 0 1 308 83) " stroke-linecap="round" /><path d="M 0.5 0.5 L 0.5 -44.5 L 22.5 -44.5 L 22.5 0.5 L 0.5 0.5 Z" style="stroke:#639DBD;stroke-opacity:1; stroke-opacity: 0.9; stroke-width: 1; stroke-dasharray: none; stroke-linecap: butt; stroke-linejoin: miter; stroke-miterlimit: 10;fill:#639DBD;fill-opacity:1; fill-rule: nonzero; opacity: 1" transform=" matrix(1 0 0 1 335 83) " stroke-linecap="round" /><path d="M 0.5 0.5 L 0.5 -43.5 L 22.5 -43.5 L 22.5 0.5 L 0.5 0.5 Z" style="stroke:#639DBD;stroke-opacity:1; stroke-opacity: 0.9; stroke-width: 1; stroke-dasharray: none; stroke-linecap: butt; stroke-linejoin: miter; stroke-miterlimit: 10;fill:#639DBD;fill-opacity:1; fill-rule: nonzero; opacity: 1" transform=" matrix(1 0 0 1 363 83) " stroke-linecap="round" /><path d="M 0.5 0.5 L 0.5 -45.5 L 22.5 -45.5 L 22.5 0.5 L 0.5 0.5 Z" style="stroke:#639DBD;stroke-opacity:1; stroke-opacity: 0.9; stroke-width: 1; stroke-dasharray: none; stroke-linecap: butt; stroke-linejoin: miter; stroke-miterlimit: 10;fill:#639DBD;fill-opacity:1; fill-rule: nonzero; opacity: 1" transform=" matrix(1 0 0 1 391 83) " stroke-linecap="round" /><path d="M 0.5 0.5 L 0.5 -49.5 L 22.5 -49.5 L 22.5 0.5 L 0.5 0.5 Z" style="stroke:#639DBD;stroke-opacity:1; stroke-opacity: 0.9; stroke-width: 1; stroke-dasharray: none; stroke-linecap: butt; stroke-linejoin: miter; stroke-miterlimit: 10;fill:#639DBD;fill-opacity:1; fill-rule: nonzero; opacity: 1" transform=" matrix(1 0 0 1 419 83) " stroke-linecap="round" /><path d="M 0.5 0.5 L 0.5 -51.5 L 22.5 -51.5 L 22.5 0.5 L 0.5 0.5 Z" style="stroke:#639DBD;stroke-opacity:1; stroke-opacity: 0.9; stroke-width: 1; stroke-dasharray: none; stroke-linecap: butt; stroke-linejoin: miter; stroke-miterlimit: 10;fill:#639DBD;fill-opacity:1; fill-rule: nonzero; opacity: 1" transform=" matrix(1 0 0 1 446 83) " stroke-linecap="round" /><path d="M 0.5 0.5 L 0.5 -48.5 L 22.5 -48.5 L 22.5 0.5 L 0.5 0.5 Z" style="stroke:#639DBD;stroke-opacity:1; stroke-opacity: 0.9; stroke-width: 1; stroke-dasharray: none; stroke-linecap: butt; stroke-linejoin: miter; stroke-miterlimit: 10;fill:#639DBD;fill-opacity:1; fill-rule: nonzero; opacity: 1" transform=" matrix(1 0 0 1 474 83) " stroke-linecap="round" /><path d="M 0.5 0.5 L 0.5 -45.5 L 22.5 -45.5 L 22.5 0.5 L 0.5 0.5 Z" style="stroke:#639DBD;stroke-opacity:1; stroke-opacity: 0.9; stroke-width: 1; stroke-dasharray: none; stroke-linecap: butt; stroke-linejoin: miter; stroke-miterlimit: 10;fill:#639DBD;fill-opacity:1; fill-rule: nonzero; opacity: 1" transform=" matrix(1 0 0 1 502 83) " stroke-linecap="round" /><path d="M 0.5 0.5 L 0.5 -42.5 L 22.5 -42.5 L 22.5 0.5 L 0.5 0.5 Z" style="stroke:#639DBD;stroke-opacity:1; stroke-opacity: 0.9; stroke-width: 1; stroke-dasharray: none; stroke-linecap: butt; stroke-linejoin: miter; stroke-miterlimit: 10;fill:#639DBD;fill-opacity:1; fill-rule: nonzero; opacity: 1" transform=" matrix(1 0 0 1 529 83) " stroke-linecap="round" /><path d="M 0.5 0.5 L 0.5 -41.5 L 22.5 -41.5 L 22.5 0.5 L 0.5 0.5 Z" style="stroke:#639DBD;stroke-opacity:1; stroke-opacity: 0.9; stroke-width: 1; stroke-dasharray: none; stroke-linecap: butt; stroke-linejoin: miter; stroke-miterlimit: 10;fill:#639DBD;fill-opacity:1; fill-rule: nonzero; opacity: 1" transform=" matrix(1 0 0 1 557 83) " stroke-linecap="round" /><path d="M 0.5 0.5 L 0.5 -45.5 L 22.5 -45.5 L 22.5 0.5 L 0.5 0.5 Z" style="stroke:#639DBD;stroke-opacity:1; stroke-opacity: 0.9; stroke-width: 1; stroke-dasharray: none; stroke-linecap: butt; stroke-linejoin: miter; stroke-miterlimit: 10;fill:#639DBD;fill-opacity:1; fill-rule: nonzero; opacity: 1" transform=" matrix(1 0 0 1 585 83) " stroke-linecap="round" /><path d="M 0.5 0.5 L 0.5 -48.5 L 22.5 -48.5 L 22.5 0.5 L 0.5 0.5 Z" style="stroke:#639DBD;stroke-opacity:1; stroke-opacity: 0.9; stroke-width: 1; stroke-dasharray: none; stroke-linecap: butt; stroke-linejoin: miter; stroke-miterlimit: 10;fill:#639DBD;fill-opacity:1; fill-rule: nonzero; opacity: 1" transform=" matrix(1 0 0 1 612 83) " stroke-linecap="round" /><path d="M 0.5 0.5 L 0.5 -52.5 L 22.5 -52.5 L 22.5 0.5 L 0.5 0.5 Z" style="stroke:#639DBD;stroke-opacity:1; stroke-opacity: 0.9; stroke-width: 1; stroke-dasharray: none; stroke-linecap: butt; stroke-linejoin: miter; stroke-miterlimit: 10;fill:#639DBD;fill-opacity:1; fill-rule: nonzero; opacity: 1" transform=" matrix(1 0 0 1 640 83) " stroke-linecap="round" /><path d="M 0.5 0.5 L 0.5 -58.5 L 22.5 -58.5 L 22.5 0.5 L 0.5 0.5 Z" style="stroke:#639DBD;stroke-opacity:1; stroke-opacity: 0.9; stroke-width: 1; stroke-dasharray: none; stroke-linecap: butt; stroke-linejoin: miter; stroke-miterlimit: 10;fill:#639DBD;fill-opacity:1; fill-rule: nonzero; opacity: 1" transform=" matrix(1 0 0 1 668 83) " stroke-linecap="round" /><path d="M 0.5 0.5 L 0.5 -55.5 L 22.5 -55.5 L 22.5 0.5 L 0.5 0.5 Z" style="stroke:#639DBD;stroke-opacity:1; stroke-opacity: 0.9; stroke-width: 1; stroke-dasharray: none; stroke-linecap: butt; stroke-linejoin: miter; stroke-miterlimit: 10;fill:#639DBD;fill-opacity:1; fill-rule: nonzero; opacity: 1" transform=" matrix(1 0 0 1 696 83) " stroke-linecap="round" /><path d="M 0.5 0.5 L 0.5 -54.5 L 22.5 -54.5 L 22.5 0.5 L 0.5 0.5 Z" style="stroke:#639DBD;stroke-opacity:1; stroke-opacity: 0.9; stroke-width: 1; stroke-dasharray: none; stroke-linecap: butt; stroke-linejoin: miter; stroke-miterlimit: 10;fill:#639DBD;fill-opacity:1; fill-rule: nonzero; opacity: 1" transform=" matrix(1 0 0 1 723 83) " stroke-linecap="round" /><path d="M 0.5 0.5 L 0.5 -55.5 L 22.5 -55.5 L 22.5 0.5 L 0.5 0.5 Z" style="stroke:#639DBD;stroke-opacity:1; stroke-opacity: 0.9; stroke-width: 1; stroke-dasharray: none; stroke-linecap: butt; stroke-linejoin: miter; stroke-miterlimit: 10;fill:#639DBD;fill-opacity:1; fill-rule: nonzero; opacity: 1" transform=" matrix(1 0 0 1 751 83) " stroke-linecap="round" /><path d="M 0.5 0.5 L 0.5 -59.5 L 22.5 -59.5 L 22.5 0.5 L 0.5 0.5 Z" style="stroke:#639DBD;stroke-opacity:1; stroke-opacity: 0.9; stroke-width: 1; stroke-dasharray: none; stroke-linecap: butt; stroke-linejoin: miter; stroke-miterlimit: 10;fill:#639DBD;fill-opacity:1; fill-rule: nonzero; opacity: 1" transform=" matrix(1 0 0 1 779 83) " stroke-linecap="round" /><path d="M 0.5 0.5 L 0.5 -56.5 L 22.5 -56.5 L 22.5 0.5 L 0.5 0.5 Z" style="stroke:#639DBD;stroke-opacity:1; stroke-opacity: 0.9; stroke-width: 1; stroke-dasharray: none; stroke-linecap: butt; stroke-linejoin: miter; stroke-miterlimit: 10;fill:#639DBD;fill-opacity:1; fill-rule: nonzero; opacity: 1" transform=" matrix(1 0 0 1 806 83) " stroke-linecap="round" /><path d="M 0.5 0.5 L 0.5 -55.5 L 22.5 -55.5 L 22.5 0.5 L 0.5 0.5 Z" style="stroke:#639DBD;stroke-opacity:1; stroke-opacity: 0.9; stroke-width: 1; stroke-dasharray: none; stroke-linecap: butt; stroke-linejoin: miter; stroke-miterlimit: 10;fill:#639DBD;fill-opacity:1; fill-rule: nonzero; opacity: 1" transform=" matrix(1 0 0 1 834 83) " stroke-linecap="round" /><path d="M 0.5 0.5 L 859.5 0.5" style="stroke:#FFFFFF;stroke-opacity:1; stroke-opacity: 0; stroke-width: 1; stroke-dasharray: none; stroke-linecap: butt; stroke-linejoin: miter; stroke-miterlimit: 10; fill: none; fill-rule: nonzero; opacity: 1" transform=" matrix(1 0 0 1 0 83) " stroke-linecap="round" /><path d="M 0.5 0.5 L 0.5 83.5" style="stroke:#FFFFFF;stroke-opacity:1; stroke-opacity: 0; stroke-width: 1; stroke-dasharray: none; stroke-linecap: butt; stroke-linejoin: miter; stroke-miterlimit: 10; fill: none; fill-rule: nonzero; opacity: 1" transform=" matrix(1 0 0 1 0 0) " stroke-linecap="round" /><g  clip-path="url(#DSCEl-11)" ><path d="M 0.5 0.5 L 859.5 0.5 L 859.5 0.5" style="stroke:#FFFFFF;stroke-opacity:1; stroke-opacity: 0; stroke-width: 1; stroke-dasharray: none; stroke-linecap: butt; stroke-linejoin: miter; stroke-miterlimit: 10; fill: none; fill-rule: nonzero; opacity: 0" transform=" matrix(1 0 0 1 0 0) " stroke-linecap="round" /></g><g transform=" matrix(1 0 0 1 58 95.5) "><text xml:space="preserve" font-family="Verdana" font-size="11" font-weight="normal" style="stroke: none; stroke-width: 1; stroke-dasharray: none; stroke-linecap: butt; stroke-linejoin: miter; stroke-miterlimit: 10;fill:#E7E7E7;fill-opacity:1; fill-rule: nonzero; opacity: 1; white-space: pre" ><tspan x="0" y="7.48" fill="rgba(231,231,231,1)">Oct 23</tspan></text></g><g transform=" matrix(1 0 0 1 142 95.5) "><text xml:space="preserve" font-family="Verdana" font-size="11" font-weight="normal" style="stroke: none; stroke-width: 1; stroke-dasharray: none; stroke-linecap: butt; stroke-linejoin: miter; stroke-miterlimit: 10;fill:#E7E7E7;fill-opacity:1; fill-rule: nonzero; opacity: 1; white-space: pre" ><tspan x="0" y="7.48" fill="rgba(231,231,231,1)">Oct 26</tspan></text></g><g transform=" matrix(1 0 0 1 225 95.5) "><text xml:space="preserve" font-family="Verdana" font-size="11" font-weight="normal" style="stroke: none; stroke-width: 1; stroke-dasharray: none; stroke-linecap: butt; stroke-linejoin: miter; stroke-miterlimit: 10;fill:#E7E7E7;fill-opacity:1; fill-rule: nonzero; opacity: 1; white-space: pre" ><tspan x="0" y="7.48" fill="rgba(231,231,231,1)">Oct 29</tspan></text></g><g transform=" matrix(1 0 0 1 308 95.5) "><text xml:space="preserve" font-family="Verdana" font-size="11" font-weight="bold" style="stroke: none; stroke-width: 1; stroke-dasharray: none; stroke-linecap: butt; stroke-linejoin: miter; stroke-miterlimit: 10;fill:#E7E7E7;fill-opacity:1; fill-rule: nonzero; opacity: 1; white-space: pre" ><tspan x="0" y="7.48" fill="rgba(231,231,231,1)">Nov</tspan></text></g><g transform=" matrix(1 0 0 1 391 95.5) "><text xml:space="preserve" font-family="Verdana" font-size="11" font-weight="normal" style="stroke: none; stroke-width: 1; stroke-dasharray: none; stroke-linecap: butt; stroke-linejoin: miter; stroke-miterlimit: 10;fill:#E7E7E7;fill-opacity:1; fill-rule: nonzero; opacity: 1; white-space: pre" ><tspan x="0" y="7.48" fill="rgba(231,231,231,1)">Nov 04</tspan></text></g><g transform=" matrix(1 0 0 1 474 95.5) "><text xml:space="preserve" font-family="Verdana" font-size="11" font-weight="normal" style="stroke: none; stroke-width: 1; stroke-dasharray: none; stroke-linecap: butt; stroke-linejoin: miter; stroke-miterlimit: 10;fill:#E7E7E7;fill-opacity:1; fill-rule: nonzero; opacity: 1; white-space: pre" ><tspan x="0" y="7.48" fill="rgba(231,231,231,1)">Nov 07</tspan></text></g><g transform=" matrix(1 0 0 1 557 95.5) "><text xml:space="preserve" font-family="Verdana" font-size="11" font-weight="normal" style="stroke: none; stroke-width: 1; stroke-dasharray: none; stroke-linecap: butt; stroke-linejoin: miter; stroke-miterlimit: 10;fill:#E7E7E7;fill-opacity:1; fill-rule: nonzero; opacity: 1; white-space: pre" ><tspan x="0" y="7.48" fill="rgba(231,231,231,1)">Nov 10</tspan></text></g><g transform=" matrix(1 0 0 1 640 95.5) "><text xml:space="preserve" font-family="Verdana" font-size="11" font-weight="normal" style="stroke: none; stroke-width: 1; stroke-dasharray: none; stroke-linecap: butt; stroke-linejoin: miter; stroke-miterlimit: 10;fill:#E7E7E7;fill-opacity:1; fill-rule: nonzero; opacity: 1; white-space: pre" ><tspan x="0" y="7.48" fill="rgba(231,231,231,1)">Nov 13</tspan></text></g><g transform=" matrix(1 0 0 1 723 95.5) "><text xml:space="preserve" font-family="Verdana" font-size="11" font-weight="normal" style="stroke: none; stroke-width: 1; stroke-dasharray: none; stroke-linecap: butt; stroke-linejoin: miter; stroke-miterlimit: 10;fill:#E7E7E7;fill-opacity:1; fill-rule: nonzero; opacity: 1; white-space: pre" ><tspan x="0" y="7.48" fill="rgba(231,231,231,1)">Nov 16</tspan></text></g><g transform=" matrix(1 0 0 1 807 95.5) "><text xml:space="preserve" font-family="Verdana" font-size="11" font-weight="normal" style="stroke: none; stroke-width: 1; stroke-dasharray: none; stroke-linecap: butt; stroke-linejoin: miter; stroke-miterlimit: 10;fill:#E7E7E7;fill-opacity:1; fill-rule: nonzero; opacity: 1; white-space: pre" ><tspan x="0" y="7.48" fill="rgba(231,231,231,1)">Nov 19</tspan></text></g><g transform=" matrix(1 0 0 1 4 74.5) "><text xml:space="preserve" font-family="Verdana" font-size="11" font-weight="normal" style="stroke: none; stroke-width: 1; stroke-dasharray: none; stroke-linecap: butt; stroke-linejoin: miter; stroke-miterlimit: 10;fill:#E7E7E7;fill-opacity:1; fill-rule: nonzero; opacity: 1; white-space: pre" ><tspan x="0" y="7.48" fill="rgba(231,231,231,1)">3,000</tspan></text></g><g transform=" matrix(1 0 0 1 4 46.5) "><text xml:space="preserve" font-family="Verdana" font-size="11" font-weight="normal" style="stroke: none; stroke-width: 1; stroke-dasharray: none; stroke-linecap: butt; stroke-linejoin: miter; stroke-miterlimit: 10;fill:#E7E7E7;fill-opacity:1; fill-rule: nonzero; opacity: 1; white-space: pre" ><tspan x="0" y="7.48" fill="rgba(231,231,231,1)">3,050</tspan></text></g><g transform=" matrix(1 0 0 1 4 19.5) "><text xml:space="preserve" font-family="Verdana" font-size="11" font-weight="normal" style="stroke: none; stroke-width: 1; stroke-dasharray: none; stroke-linecap: butt; stroke-linejoin: miter; stroke-miterlimit: 10;fill:#E7E7E7;fill-opacity:1; fill-rule: nonzero; opacity: 1; white-space: pre" ><tspan x="0" y="7.48" fill="rgba(231,231,231,1)">3,100</tspan></text></g><g transform=" matrix(1 0 0 1 4 -1) "><text xml:space="preserve" font-family="Verdana" font-size="11" font-weight="normal" style="stroke: none; stroke-width: 1; stroke-dasharray: none; stroke-linecap: butt; stroke-linejoin: miter; stroke-miterlimit: 10;fill:#E7E7E7;fill-opacity:1; fill-rule: nonzero; opacity: 1; white-space: pre" ><tspan x="0" y="7.48" fill="rgba(231,231,231,1)"> </tspan></text></g></g><g style="stroke: none; stroke-width: 1; stroke-dasharray: none; stroke-linecap: butt; stroke-linejoin: miter; stroke-miterlimit: 10; fill: none; fill-rule: nonzero; opacity: 1" transform="translate(0 460)" ><path d="M 0.5 0.5 L 859.5 0.5 L 859.5 39.5 L 0.5 39.5 Z" style="stroke:#000000;stroke-opacity:1; stroke-opacity: 0; stroke-width: 1; stroke-dasharray: none; stroke-linecap: butt; stroke-linejoin: miter; stroke-miterlimit: 10;fill:#282828;fill-opacity:1; fill-opacity: 0; fill-rule: nonzero; opacity: 1" transform="" stroke-linecap="round" /><path d="M 0.5 0.5 L 859.5 0.5 L 859.5 0.5 L 0.5 0.5 L 0.5 0.5 Z" style="stroke:#000000;stroke-opacity:1; stroke-opacity: 0; stroke-width: 1; stroke-dasharray: none; stroke-linecap: butt; stroke-linejoin: miter; stroke-miterlimit: 10;fill:#FFFFFF;fill-opacity:1; fill-opacity: 0; fill-rule: nonzero; opacity: 1" transform=" matrix(1 0 0 1 0 40) " stroke-linecap="round" /><path d="M 55.5 0.5 L 55.5 0.5 L 55.5 0.5" style="stroke:#FFFFFF;stroke-opacity:1; stroke-opacity: 0.1; stroke-width: 1; stroke-dasharray: 3; stroke-linecap: butt; stroke-linejoin: miter; stroke-miterlimit: 10; fill: none; fill-rule: nonzero; opacity: 1" transform=" matrix(1 0 0 1 0 40) " stroke-linecap="round" /><path d="M 139.5 0.5 L 139.5 0.5 L 139.5 0.5" style="stroke:#FFFFFF;stroke-opacity:1; stroke-opacity: 0.1; stroke-width: 1; stroke-dasharray: 3; stroke-linecap: butt; stroke-linejoin: miter; stroke-miterlimit: 10; fill: none; fill-rule: nonzero; opacity: 1" transform=" matrix(1 0 0 1 0 40) " stroke-linecap="round" /><path d="M 222.5 0.5 L 222.5 0.5 L 222.5 0.5" style="stroke:#FFFFFF;stroke-opacity:1; stroke-opacity: 0.1; stroke-width: 1; stroke-dasharray: 3; stroke-linecap: butt; stroke-linejoin: miter; stroke-miterlimit: 10; fill: none; fill-rule: nonzero; opacity: 1" transform=" matrix(1 0 0 1 0 40) " stroke-linecap="round" /><path d="M 305.5 0.5 L 305.5 0.5 L 305.5 0.5" style="stroke:#FFFFFF;stroke-opacity:1; stroke-opacity: 0.1; stroke-width: 1; stroke-dasharray: 3; stroke-linecap: butt; stroke-linejoin: miter; stroke-miterlimit: 10; fill: none; fill-rule: nonzero; opacity: 1" transform=" matrix(1 0 0 1 0 40) " stroke-linecap="round" /><path d="M 388.5 0.5 L 388.5 0.5 L 388.5 0.5" style="stroke:#FFFFFF;stroke-opacity:1; stroke-opacity: 0.1; stroke-width: 1; stroke-dasharray: 3; stroke-linecap: butt; stroke-linejoin: miter; stroke-miterlimit: 10; fill: none; fill-rule: nonzero; opacity: 1" transform=" matrix(1 0 0 1 0 40) " stroke-linecap="round" /><path d="M 471.5 0.5 L 471.5 0.5 L 471.5 0.5" style="stroke:#FFFFFF;stroke-opacity:1; stroke-opacity: 0.1; stroke-width: 1; stroke-dasharray: 3; stroke-linecap: butt; stroke-linejoin: miter; stroke-miterlimit: 10; fill: none; fill-rule: nonzero; opacity: 1" transform=" matrix(1 0 0 1 0 40) " stroke-linecap="round" /><path d="M 554.5 0.5 L 554.5 0.5 L 554.5 0.5" style="stroke:#FFFFFF;stroke-opacity:1; stroke-opacity: 0.1; stroke-width: 1; stroke-dasharray: 3; stroke-linecap: butt; stroke-linejoin: miter; stroke-miterlimit: 10; fill: none; fill-rule: nonzero; opacity: 1" transform=" matrix(1 0 0 1 0 40) " stroke-linecap="round" /><path d="M 637.5 0.5 L 637.5 0.5 L 637.5 0.5" style="stroke:#FFFFFF;stroke-opacity:1; stroke-opacity: 0.1; stroke-width: 1; stroke-dasharray: 3; stroke-linecap: butt; stroke-linejoin: miter; stroke-miterlimit: 10; fill: none; fill-rule: nonzero; opacity: 1" transform=" matrix(1 0 0 1 0 40) " stroke-linecap="round" /><path d="M 720.5 0.5 L 720.5 0.5 L 720.5 0.5" style="stroke:#FFFFFF;stroke-opacity:1; stroke-opacity: 0.1; stroke-width: 1; stroke-dasharray: 3; stroke-linecap: butt; stroke-linejoin: miter; stroke-miterlimit: 10; fill: none; fill-rule: nonzero; opacity: 1" transform=" matrix(1 0 0 1 0 40) " stroke-linecap="round" /><path d="M 804.5 0.5 L 804.5 0.5 L 804.5 0.5" style="stroke:#FFFFFF;stroke-opacity:1; stroke-opacity: 0.1; stroke-width: 1; stroke-dasharray: 3; stroke-linecap: butt; stroke-linejoin: miter; stroke-miterlimit: 10; fill: none; fill-rule: nonzero; opacity: 1" transform=" matrix(1 0 0 1 0 40) " stroke-linecap="round" /><path d="M 0.5 0.5 L 859.5 0.5" style="stroke:#000000;stroke-opacity:1; stroke-opacity: 0; stroke-width: 1; stroke-dasharray: none; stroke-linecap: butt; stroke-linejoin: miter; stroke-miterlimit: 10; fill: none; fill-rule: nonzero; opacity: 1" transform=" matrix(1 0 0 1 0 40) " stroke-linecap="round" /><path d="M 0.5 0.5 L 0.5 40.5" style="stroke:#000000;stroke-opacity:1; stroke-opacity: 0; stroke-width: 1; stroke-dasharray: none; stroke-linecap: butt; stroke-linejoin: miter; stroke-miterlimit: 10; fill: none; fill-rule: nonzero; opacity: 0" transform=" matrix(1 0 0 1 0 0) " stroke-linecap="round" /><path d="M 0.5 0.5 L 859.5 0.5" style="stroke:#FFFFFF;stroke-opacity:1; stroke-opacity: 0; stroke-width: 1; stroke-dasharray: none; stroke-linecap: butt; stroke-linejoin: miter; stroke-miterlimit: 10; fill: none; fill-rule: nonzero; opacity: 1" transform=" matrix(1 0 0 1 0 40) " stroke-linecap="round" /><rect x="0.5" y="0.5" rx="0" ry="0" width="860" height="40" style="stroke:#000000;stroke-opacity:1; stroke-opacity: 0.2; stroke-width: 1; stroke-dasharray: none; stroke-linecap: butt; stroke-linejoin: miter; stroke-miterlimit: 10;fill:#000000;fill-opacity:1; fill-opacity: 0.2; fill-rule: nonzero; opacity: 1" transform=" matrix(1 0 0 1 0 0) "/><rect x="0.5" y="0.5" rx="0" ry="0" width="53" height="41" style="stroke:#FFFFFF;stroke-opacity:1; stroke-opacity: 0.09; stroke-width: 0; stroke-dasharray: none; stroke-linecap: butt; stroke-linejoin: miter; stroke-miterlimit: 10;fill:#FFFFFF;fill-opacity:1; fill-opacity: 0.09; fill-rule: nonzero; opacity: 1" transform=" matrix(1 0 0 1 806 0) "/><path d="M 1.5 28.36667 L 3.5 28.36667 L 4.5 29.56667 L 6.5 29.56667 L 8.5 29.03333 L 9.5 29.83333 L 11.5 29.83333 L 13.5 28.9 L 15.5 27.7 L 16.5 27.3 L 18.5 26.36667 L 20.5 26.1 L 21.5 26.36667 L 23.5 26.76667 L 25.5 27.83333 L 27.5 27.56667 L 28.5 27.16667 L 30.5 25.83333 L 32.5 25.96667 L 34.5 26.36667 L 35.5 27.43333 L 37.5 26.76667 L 39.5 27.7 L 40.5 28.1 L 42.5 28.1 L 44.5 27.7 L 46.5 26.63333 L 47.5 26.1 L 49.5 25.43333 L 51.5 25.16667 L 52.5 23.83333 L 54.5 24.1 L 56.5 23.43333 L 58.5 23.03333 L 59.5 24.23333 L 61.5 24.63333 L 63.5 24.1 L 64.5 24.63333 L 66.5 23.7 L 68.5 24.9 L 70.5 24.1 L 71.5 23.7 L 73.5 23.03333 L 75.5 23.3 L 76.5 22.63333 L 78.5 22.5 L 80.5 21.83333 L 82.5 20.76667 L 83.5 21.3 L 85.5 20.36667 L 87.5 19.96667 L 88.5 19.7 L 90.5 19.3 L 92.5 18.36667 L 94.5 18.63333 L 95.5 19.83333 L 97.5 18.63333 L 99.5 18.76667 L 101.5 20.1 L 102.5 19.16667 L 104.5 18.76667 L 106.5 19.83333 L 107.5 18.9 L 109.5 19.96667 L 111.5 19.16667 L 113.5 19.03333 L 114.5 19.83333 L 116.5 20.63333 L 118.5 21.56667 L 119.5 21.83333 L 121.5 20.63333 L 123.5 21.7 L 125.5 22.23333 L 126.5 21.03333 L 128.5 20.1 L 130.5 19.16667 L 131.5 20.23333 L 133.5 19.56667 L 135.5 18.23333 L 137.5 18.1 L 138.5 17.16667 L 140.5 18.23333 L 142.5 19.56667 L 143.5 20.63333 L 145.5 21.03333 L 147.5 21.43333 L 149.5 22.1 L 150.5 21.96667 L 152.5 22.23333 L 154.5 23.03333 L 155.5 23.83333 L 157.5 22.9 L 159.5 22.1 L 161.5 22.9 L 162.5 22.23333 L 164.5 21.56667 L 166.5 20.9 L 168.5 21.03333 L 169.5 20.76667 L 171.5 21.3 L 173.5 20.36667 L 174.5 20.5 L 176.5 20.76667 L 178.5 21.3 L 180.5 21.16667 L 181.5 21.03333 L 183.5 21.7 L 185.5 20.9 L 186.5 21.16667 L 188.5 20.23333 L 190.5 21.03333 L 192.5 19.96667 L 193.5 19.3 L 195.5 19.16667 L 197.5 19.96667 L 198.5 20.9 L 200.5 21.3 L 202.5 20.1 L 204.5 19.43333 L 205.5 19.83333 L 207.5 20.76667 L 209.5 20.9 L 210.5 20.63333 L 212.5 21.83333 L 214.5 22.76667 L 216.5 23.03333 L 217.5 22.9 L 219.5 22.63333 L 221.5 21.96667 L 222.5 22.1 L 224.5 22.63333 L 226.5 21.43333 L 228.5 21.7 L 229.5 21.96667 L 231.5 22.9 L 233.5 24.1 L 235.5 23.16667 L 236.5 23.43333 L 238.5 22.23333 L 240.5 23.3 L 241.5 23.3 L 243.5 23.16667 L 245.5 23.43333 L 247.5 23.96667 L 248.5 23.3 L 250.5 24.36667 L 252.5 23.3 L 253.5 23.16667 L 255.5 24.5 L 257.5 23.83333 L 259.5 22.5 L 260.5 22.63333 L 262.5 23.3 L 264.5 23.03333 L 265.5 23.83333 L 267.5 22.63333 L 269.5 23.43333 L 271.5 23.56667 L 272.5 23.7 L 274.5 23.03333 L 276.5 23.3 L 277.5 22.9 L 279.5 24.1 L 281.5 24.9 L 283.5 25.7 L 284.5 25.7 L 286.5 26.1 L 288.5 25.83333 L 289.5 25.43333 L 291.5 25.96667 L 293.5 27.03333 L 295.5 25.83333 L 296.5 24.76667 L 298.5 25.83333 L 300.5 26.1 L 302.5 27.03333 L 303.5 26.63333 L 305.5 27.16667 L 307.5 28.1 L 308.5 27.16667 L 310.5 28.36667 L 312.5 28.23333 L 314.5 27.56667 L 315.5 26.76667 L 317.5 26.9 L 319.5 26.63333 L 320.5 26.5 L 322.5 25.83333 L 324.5 25.43333 L 326.5 25.3 L 327.5 25.43333 L 329.5 24.76667 L 331.5 23.83333 L 332.5 23.03333 L 334.5 21.96667 L 336.5 23.16667 L 338.5 23.43333 L 339.5 24.63333 L 341.5 25.56667 L 343.5 26.76667 L 344.5 26.36667 L 346.5 25.56667 L 348.5 26.76667 L 350.5 27.96667 L 351.5 28.9 L 353.5 27.96667 L 355.5 28.36667 L 356.5 27.56667 L 358.5 28.36667 L 360.5 27.96667 L 362.5 27.16667 L 363.5 28.23333 L 365.5 28.23333 L 367.5 27.43333 L 369.5 27.83333 L 370.5 27.56667 L 372.5 27.56667 L 374.5 26.63333 L 375.5 27.03333 L 377.5 27.03333 L 379.5 27.83333 L 381.5 28.1 L 382.5 27.7 L 384.5 28.36667 L 386.5 27.3 L 387.5 27.7 L 389.5 26.63333 L 391.5 25.43333 L 393.5 24.1 L 394.5 24.63333 L 396.5 25.3 L 398.5 24.5 L 399.5 23.96667 L 401.5 22.63333 L 403.5 22.1 L 405.5 21.3 L 406.5 21.43333 L 408.5 21.43333 L 410.5 22.23333 L 411.5 22.9 L 413.5 22.1 L 415.5 21.83333 L 417.5 22.63333 L 418.5 22.36667 L 420.5 22.36667 L 422.5 23.03333 L 423.5 22.76667 L 425.5 23.83333 L 427.5 23.56667 L 429.5 23.83333 L 430.5 23.83333 L 432.5 22.9 L 434.5 22.23333 L 436.5 23.56667 L 437.5 24.63333 L 439.5 24.5 L 441.5 24.5 L 442.5 23.83333 L 444.5 24.9 L 446.5 26.23333 L 448.5 25.96667 L 449.5 26.1 L 451.5 25.96667 L 453.5 26.23333 L 454.5 25.83333 L 456.5 25.7 L 458.5 26.63333 L 460.5 26.5 L 461.5 25.56667 L 463.5 26.63333 L 465.5 25.43333 L 466.5 24.63333 L 468.5 23.83333 L 470.5 24.36667 L 472.5 25.56667 L 473.5 26.1 L 475.5 25.43333 L 477.5 25.43333 L 478.5 25.16667 L 480.5 25.16667 L 482.5 25.3 L 484.5 25.56667 L 485.5 26.63333 L 487.5 25.43333 L 489.5 24.76667 L 490.5 23.7 L 492.5 22.9 L 494.5 23.7 L 496.5 23.3 L 497.5 23.16667 L 499.5 22.36667 L 501.5 22.5 L 503.5 21.96667 L 504.5 22.23333 L 506.5 23.3 L 508.5 23.43333 L 509.5 23.83333 L 511.5 23.03333 L 513.5 22.36667 L 515.5 22.76667 L 516.5 22.63333 L 518.5 22.36667 L 520.5 21.03333 L 521.5 21.96667 L 523.5 21.16667 L 525.5 21.7 L 527.5 22.63333 L 528.5 21.3 L 530.5 22.63333 L 532.5 21.83333 L 533.5 21.56667 L 535.5 21.96667 L 537.5 21.7 L 539.5 21.83333 L 540.5 23.03333 L 542.5 23.16667 L 544.5 21.96667 L 545.5 21.3 L 547.5 21.7 L 549.5 20.36667 L 551.5 21.03333 L 552.5 20.1 L 554.5 18.9 L 556.5 17.83333 L 557.5 17.43333 L 559.5 16.63333 L 561.5 16.233330000000002 L 563.5 16.76667 L 564.5 17.83333 L 566.5 19.03333 L 568.5 17.83333 L 570.5 16.63333 L 571.5 16.9 L 573.5 16.63333 L 575.5 15.43333 L 576.5 14.76667 L 578.5 15.7 L 580.5 17.03333 L 582.5 17.43333 L 583.5 16.233330000000002 L 585.5 15.83333 L 587.5 14.76667 L 588.5 13.56667 L 590.5 13.03333 L 592.5 12.76667 L 594.5 12.5 L 595.5 13.16667 L 597.5 11.96667 L 599.5 11.16667 L 600.5 11.3 L 602.5 10.76667 L 604.5 9.7 L 606.5 8.63333 L 607.5 9.3 L 609.5 9.56667 L 611.5 8.9 L 612.5 9.56667 L 614.5 10.76667 L 616.5 11.3 L 618.5 10.23333 L 619.5 11.43333 L 621.5 11.3 L 623.5 12.5 L 624.5 12.76667 L 626.5 11.56667 L 628.5 10.23333 L 630.5 8.9 L 631.5 7.83333 L 633.5 8.76667 L 635.5 10.1 L 637.5 10.36667 L 638.5 10.76667 L 640.5 10.63333 L 642.5 9.43333 L 643.5 9.43333 L 645.5 9.43333 L 647.5 8.63333 L 649.5 8.1 L 650.5 8.36667 L 652.5 9.56667 L 654.5 10.1 L 655.5 10.1 L 657.5 9.16667 L 659.5 10.1 L 661.5 9.43333 L 662.5 10.23333 L 664.5 11.3 L 666.5 12.36667 L 667.5 11.83333 L 669.5 13.03333 L 671.5 13.56667 L 673.5 13.43333 L 674.5 12.36667 L 676.5 11.96667 L 678.5 13.16667 L 679.5 14.36667 L 681.5 14.9 L 683.5 13.7 L 685.5 13.96667 L 686.5 12.9 L 688.5 13.83333 L 690.5 14.23333 L 691.5 14.9 L 693.5 15.3 L 695.5 15.56667 L 697.5 14.63333 L 698.5 13.43333 L 700.5 13.3 L 702.5 12.9 L 704.5 11.7 L 705.5 11.83333 L 707.5 10.9 L 709.5 10.76667 L 710.5 11.03333 L 712.5 10.23333 L 714.5 10.63333 L 716.5 11.96667 L 717.5 11.83333 L 719.5 12.5 L 721.5 11.3 L 722.5 10.63333 L 724.5 10.76667 L 726.5 11.96667 L 728.5 13.03333 L 729.5 13.56667 L 731.5 12.63333 L 733.5 11.43333 L 734.5 10.23333 L 736.5 10.36667 L 738.5 9.3 L 740.5 8.63333 L 741.5 8.5 L 743.5 9.56667 L 745.5 8.233329999999999 L 746.5 8.36667 L 748.5 8.233329999999999 L 750.5 8.1 L 752.5 8.36667 L 753.5 9.16667 L 755.5 10.36667 L 757.5 9.43333 L 758.5 9.7 L 760.5 9.96667 L 762.5 10.63333 L 764.5 9.83333 L 765.5 10.1 L 767.5 10.63333 L 769.5 9.96667 L 771.5 11.3 L 772.5 12.1 L 774.5 13.16667 L 776.5 12.23333 L 777.5 13.43333 L 779.5 13.03333 L 781.5 13.96667 L 783.5 13.83333 L 784.5 15.03333 L 786.5 13.96667 L 788.5 13.96667 L 789.5 14.63333 L 791.5 15.56667 L 793.5 15.96667 L 795.5 14.9 L 796.5 13.83333 L 798.5 14.5 L 800.5 14.5 L 801.5 14.36667 L 803.5 14.1 L 805.5 14.36667 L 807.5 14.1 L 808.5 13.03333 L 810.5 13.56667 L 812.5 13.7 L 813.5 14.1 L 815.5 12.76667 L 817.5 12.1 L 819.5 11.7 L 820.5 11.56667 L 822.5 11.03333 L 824.5 11.96667 L 825.5 11.43333 L 827.5 12.23333 L 829.5 12.9 L 831.5 13.83333 L 832.5 13.83333 L 834.5 14.63333 L 836.5 15.56667 L 838.5 14.5 L 839.5 14.76667 L 841.5 13.7 L 843.5 13.03333 L 844.5 12.63333 L 846.5 11.56667 L 848.5 11.16667 L 850.5 12.36667 L 851.5 11.83333 L 853.5 11.56667 L 855.5 11.16667 L 856.5 12.5 L 858.5 13.16667 M 0 0 L 0 0" style="stroke:#BBBBBB;stroke-opacity:1; stroke-opacity: 0; stroke-width: 1; stroke-dasharray: none; stroke-linecap: butt; stroke-linejoin: round; stroke-miterlimit: 10; fill: none; fill-rule: nonzero; opacity: 1" transform=" matrix(1 0 0 1 0 0) " stroke-linecap="round" /><path d="M 1.5 28.36667 L 3.5 28.36667 L 4.5 29.56667 L 6.5 29.56667 L 8.5 29.03333 L 9.5 29.83333 L 11.5 29.83333 L 13.5 28.9 L 15.5 27.7 L 16.5 27.3 L 18.5 26.36667 L 20.5 26.1 L 21.5 26.36667 L 23.5 26.76667 L 25.5 27.83333 L 27.5 27.56667 L 28.5 27.16667 L 30.5 25.83333 L 32.5 25.96667 L 34.5 26.36667 L 35.5 27.43333 L 37.5 26.76667 L 39.5 27.7 L 40.5 28.1 L 42.5 28.1 L 44.5 27.7 L 46.5 26.63333 L 47.5 26.1 L 49.5 25.43333 L 51.5 25.16667 L 52.5 23.83333 L 54.5 24.1 L 56.5 23.43333 L 58.5 23.03333 L 59.5 24.23333 L 61.5 24.63333 L 63.5 24.1 L 64.5 24.63333 L 66.5 23.7 L 68.5 24.9 L 70.5 24.1 L 71.5 23.7 L 73.5 23.03333 L 75.5 23.3 L 76.5 22.63333 L 78.5 22.5 L 80.5 21.83333 L 82.5 20.76667 L 83.5 21.3 L 85.5 20.36667 L 87.5 19.96667 L 88.5 19.7 L 90.5 19.3 L 92.5 18.36667 L 94.5 18.63333 L 95.5 19.83333 L 97.5 18.63333 L 99.5 18.76667 L 101.5 20.1 L 102.5 19.16667 L 104.5 18.76667 L 106.5 19.83333 L 107.5 18.9 L 109.5 19.96667 L 111.5 19.16667 L 113.5 19.03333 L 114.5 19.83333 L 116.5 20.63333 L 118.5 21.56667 L 119.5 21.83333 L 121.5 20.63333 L 123.5 21.7 L 125.5 22.23333 L 126.5 21.03333 L 128.5 20.1 L 130.5 19.16667 L 131.5 20.23333 L 133.5 19.56667 L 135.5 18.23333 L 137.5 18.1 L 138.5 17.16667 L 140.5 18.23333 L 142.5 19.56667 L 143.5 20.63333 L 145.5 21.03333 L 147.5 21.43333 L 149.5 22.1 L 150.5 21.96667 L 152.5 22.23333 L 154.5 23.03333 L 155.5 23.83333 L 157.5 22.9 L 159.5 22.1 L 161.5 22.9 L 162.5 22.23333 L 164.5 21.56667 L 166.5 20.9 L 168.5 21.03333 L 169.5 20.76667 L 171.5 21.3 L 173.5 20.36667 L 174.5 20.5 L 176.5 20.76667 L 178.5 21.3 L 180.5 21.16667 L 181.5 21.03333 L 183.5 21.7 L 185.5 20.9 L 186.5 21.16667 L 188.5 20.23333 L 190.5 21.03333 L 192.5 19.96667 L 193.5 19.3 L 195.5 19.16667 L 197.5 19.96667 L 198.5 20.9 L 200.5 21.3 L 202.5 20.1 L 204.5 19.43333 L 205.5 19.83333 L 207.5 20.76667 L 209.5 20.9 L 210.5 20.63333 L 212.5 21.83333 L 214.5 22.76667 L 216.5 23.03333 L 217.5 22.9 L 219.5 22.63333 L 221.5 21.96667 L 222.5 22.1 L 224.5 22.63333 L 226.5 21.43333 L 228.5 21.7 L 229.5 21.96667 L 231.5 22.9 L 233.5 24.1 L 235.5 23.16667 L 236.5 23.43333 L 238.5 22.23333 L 240.5 23.3 L 241.5 23.3 L 243.5 23.16667 L 245.5 23.43333 L 247.5 23.96667 L 248.5 23.3 L 250.5 24.36667 L 252.5 23.3 L 253.5 23.16667 L 255.5 24.5 L 257.5 23.83333 L 259.5 22.5 L 260.5 22.63333 L 262.5 23.3 L 264.5 23.03333 L 265.5 23.83333 L 267.5 22.63333 L 269.5 23.43333 L 271.5 23.56667 L 272.5 23.7 L 274.5 23.03333 L 276.5 23.3 L 277.5 22.9 L 279.5 24.1 L 281.5 24.9 L 283.5 25.7 L 284.5 25.7 L 286.5 26.1 L 288.5 25.83333 L 289.5 25.43333 L 291.5 25.96667 L 293.5 27.03333 L 295.5 25.83333 L 296.5 24.76667 L 298.5 25.83333 L 300.5 26.1 L 302.5 27.03333 L 303.5 26.63333 L 305.5 27.16667 L 307.5 28.1 L 308.5 27.16667 L 310.5 28.36667 L 312.5 28.23333 L 314.5 27.56667 L 315.5 26.76667 L 317.5 26.9 L 319.5 26.63333 L 320.5 26.5 L 322.5 25.83333 L 324.5 25.43333 L 326.5 25.3 L 327.5 25.43333 L 329.5 24.76667 L 331.5 23.83333 L 332.5 23.03333 L 334.5 21.96667 L 336.5 23.16667 L 338.5 23.43333 L 339.5 24.63333 L 341.5 25.56667 L 343.5 26.76667 L 344.5 26.36667 L 346.5 25.56667 L 348.5 26.76667 L 350.5 27.96667 L 351.5 28.9 L 353.5 27.96667 L 355.5 28.36667 L 356.5 27.56667 L 358.5 28.36667 L 360.5 27.96667 L 362.5 27.16667 L 363.5 28.23333 L 365.5 28.23333 L 367.5 27.43333 L 369.5 27.83333 L 370.5 27.56667 L 372.5 27.56667 L 374.5 26.63333 L 375.5 27.03333 L 377.5 27.03333 L 379.5 27.83333 L 381.5 28.1 L 382.5 27.7 L 384.5 28.36667 L 386.5 27.3 L 387.5 27.7 L 389.5 26.63333 L 391.5 25.43333 L 393.5 24.1 L 394.5 24.63333 L 396.5 25.3 L 398.5 24.5 L 399.5 23.96667 L 401.5 22.63333 L 403.5 22.1 L 405.5 21.3 L 406.5 21.43333 L 408.5 21.43333 L 410.5 22.23333 L 411.5 22.9 L 413.5 22.1 L 415.5 21.83333 L 417.5 22.63333 L 418.5 22.36667 L 420.5 22.36667 L 422.5 23.03333 L 423.5 22.76667 L 425.5 23.83333 L 427.5 23.56667 L 429.5 23.83333 L 430.5 23.83333 L 432.5 22.9 L 434.5 22.23333 L 436.5 23.56667 L 437.5 24.63333 L 439.5 24.5 L 441.5 24.5 L 442.5 23.83333 L 444.5 24.9 L 446.5 26.23333 L 448.5 25.96667 L 449.5 26.1 L 451.5 25.96667 L 453.5 26.23333 L 454.5 25.83333 L 456.5 25.7 L 458.5 26.63333 L 460.5 26.5 L 461.5 25.56667 L 463.5 26.63333 L 465.5 25.43333 L 466.5 24.63333 L 468.5 23.83333 L 470.5 24.36667 L 472.5 25.56667 L 473.5 26.1 L 475.5 25.43333 L 477.5 25.43333 L 478.5 25.16667 L 480.5 25.16667 L 482.5 25.3 L 484.5 25.56667 L 485.5 26.63333 L 487.5 25.43333 L 489.5 24.76667 L 490.5 23.7 L 492.5 22.9 L 494.5 23.7 L 496.5 23.3 L 497.5 23.16667 L 499.5 22.36667 L 501.5 22.5 L 503.5 21.96667 L 504.5 22.23333 L 506.5 23.3 L 508.5 23.43333 L 509.5 23.83333 L 511.5 23.03333 L 513.5 22.36667 L 515.5 22.76667 L 516.5 22.63333 L 518.5 22.36667 L 520.5 21.03333 L 521.5 21.96667 L 523.5 21.16667 L 525.5 21.7 L 527.5 22.63333 L 528.5 21.3 L 530.5 22.63333 L 532.5 21.83333 L 533.5 21.56667 L 535.5 21.96667 L 537.5 21.7 L 539.5 21.83333 L 540.5 23.03333 L 542.5 23.16667 L 544.5 21.96667 L 545.5 21.3 L 547.5 21.7 L 549.5 20.36667 L 551.5 21.03333 L 552.5 20.1 L 554.5 18.9 L 556.5 17.83333 L 557.5 17.43333 L 559.5 16.63333 L 561.5 16.233330000000002 L 563.5 16.76667 L 564.5 17.83333 L 566.5 19.03333 L 568.5 17.83333 L 570.5 16.63333 L 571.5 16.9 L 573.5 16.63333 L 575.5 15.43333 L 576.5 14.76667 L 578.5 15.7 L 580.5 17.03333 L 582.5 17.43333 L 583.5 16.233330000000002 L 585.5 15.83333 L 587.5 14.76667 L 588.5 13.56667 L 590.5 13.03333 L 592.5 12.76667 L 594.5 12.5 L 595.5 13.16667 L 597.5 11.96667 L 599.5 11.16667 L 600.5 11.3 L 602.5 10.76667 L 604.5 9.7 L 606.5 8.63333 L 607.5 9.3 L 609.5 9.56667 L 611.5 8.9 L 612.5 9.56667 L 614.5 10.76667 L 616.5 11.3 L 618.5 10.23333 L 619.5 11.43333 L 621.5 11.3 L 623.5 12.5 L 624.5 12.76667 L 626.5 11.56667 L 628.5 10.23333 L 630.5 8.9 L 631.5 7.83333 L 633.5 8.76667 L 635.5 10.1 L 637.5 10.36667 L 638.5 10.76667 L 640.5 10.63333 L 642.5 9.43333 L 643.5 9.43333 L 645.5 9.43333 L 647.5 8.63333 L 649.5 8.1 L 650.5 8.36667 L 652.5 9.56667 L 654.5 10.1 L 655.5 10.1 L 657.5 9.16667 L 659.5 10.1 L 661.5 9.43333 L 662.5 10.23333 L 664.5 11.3 L 666.5 12.36667 L 667.5 11.83333 L 669.5 13.03333 L 671.5 13.56667 L 673.5 13.43333 L 674.5 12.36667 L 676.5 11.96667 L 678.5 13.16667 L 679.5 14.36667 L 681.5 14.9 L 683.5 13.7 L 685.5 13.96667 L 686.5 12.9 L 688.5 13.83333 L 690.5 14.23333 L 691.5 14.9 L 693.5 15.3 L 695.5 15.56667 L 697.5 14.63333 L 698.5 13.43333 L 700.5 13.3 L 702.5 12.9 L 704.5 11.7 L 705.5 11.83333 L 707.5 10.9 L 709.5 10.76667 L 710.5 11.03333 L 712.5 10.23333 L 714.5 10.63333 L 716.5 11.96667 L 717.5 11.83333 L 719.5 12.5 L 721.5 11.3 L 722.5 10.63333 L 724.5 10.76667 L 726.5 11.96667 L 728.5 13.03333 L 729.5 13.56667 L 731.5 12.63333 L 733.5 11.43333 L 734.5 10.23333 L 736.5 10.36667 L 738.5 9.3 L 740.5 8.63333 L 741.5 8.5 L 743.5 9.56667 L 745.5 8.233329999999999 L 746.5 8.36667 L 748.5 8.233329999999999 L 750.5 8.1 L 752.5 8.36667 L 753.5 9.16667 L 755.5 10.36667 L 757.5 9.43333 L 758.5 9.7 L 760.5 9.96667 L 762.5 10.63333 L 764.5 9.83333 L 765.5 10.1 L 767.5 10.63333 L 769.5 9.96667 L 771.5 11.3 L 772.5 12.1 L 774.5 13.16667 L 776.5 12.23333 L 777.5 13.43333 L 779.5 13.03333 L 781.5 13.96667 L 783.5 13.83333 L 784.5 15.03333 L 786.5 13.96667 L 788.5 13.96667 L 789.5 14.63333 L 791.5 15.56667 L 793.5 15.96667 L 795.5 14.9 L 796.5 13.83333 L 798.5 14.5 L 800.5 14.5 L 801.5 14.36667 L 803.5 14.1 L 805.5 14.36667 L 807.5 14.1 L 808.5 13.03333 L 810.5 13.56667 L 812.5 13.7 L 813.5 14.1 L 815.5 12.76667 L 817.5 12.1 L 819.5 11.7 L 820.5 11.56667 L 822.5 11.03333 L 824.5 11.96667 L 825.5 11.43333 L 827.5 12.23333 L 829.5 12.9 L 831.5 13.83333 L 832.5 13.83333 L 834.5 14.63333 L 836.5 15.56667 L 838.5 14.5 L 839.5 14.76667 L 841.5 13.7 L 843.5 13.03333 L 844.5 12.63333 L 846.5 11.56667 L 848.5 11.16667 L 850.5 12.36667 L 851.5 11.83333 L 853.5 11.56667 L 855.5 11.16667 L 856.5 12.5 L 858.5 13.16667 L 858.5 40.5 L 1.5 40.5 L 1.5 28.36667 Z" style="stroke:#000000;stroke-opacity:1; stroke-opacity: 0; stroke-width: 1; stroke-dasharray: none; stroke-linecap: butt; stroke-linejoin: miter; stroke-miterlimit: 10;fill:#FFFFFF;fill-opacity:1; fill-opacity: 0.2; fill-rule: nonzero; opacity: 1" transform=" matrix(1 0 0 1 0 0) " stroke-linecap="round" /><g  clip-path="url(#DSCEl-12)" ><path d="M 1.5 28.36667 L 3.5 28.36667 L 4.5 29.56667 L 6.5 29.56667 L 8.5 29.03333 L 9.5 29.83333 L 11.5 29.83333 L 13.5 28.9 L 15.5 27.7 L 16.5 27.3 L 18.5 26.36667 L 20.5 26.1 L 21.5 26.36667 L 23.5 26.76667 L 25.5 27.83333 L 27.5 27.56667 L 28.5 27.16667 L 30.5 25.83333 L 32.5 25.96667 L 34.5 26.36667 L 35.5 27.43333 L 37.5 26.76667 L 39.5 27.7 L 40.5 28.1 L 42.5 28.1 L 44.5 27.7 L 46.5 26.63333 L 47.5 26.1 L 49.5 25.43333 L 51.5 25.16667 L 52.5 23.83333 L 54.5 24.1 L 56.5 23.43333 L 58.5 23.03333 L 59.5 24.23333 L 61.5 24.63333 L 63.5 24.1 L 64.5 24.63333 L 66.5 23.7 L 68.5 24.9 L 70.5 24.1 L 71.5 23.7 L 73.5 23.03333 L 75.5 23.3 L 76.5 22.63333 L 78.5 22.5 L 80.5 21.83333 L 82.5 20.76667 L 83.5 21.3 L 85.5 20.36667 L 87.5 19.96667 L 88.5 19.7 L 90.5 19.3 L 92.5 18.36667 L 94.5 18.63333 L 95.5 19.83333 L 97.5 18.63333 L 99.5 18.76667 L 101.5 20.1 L 102.5 19.16667 L 104.5 18.76667 L 106.5 19.83333 L 107.5 18.9 L 109.5 19.96667 L 111.5 19.16667 L 113.5 19.03333 L 114.5 19.83333 L 116.5 20.63333 L 118.5 21.56667 L 119.5 21.83333 L 121.5 20.63333 L 123.5 21.7 L 125.5 22.23333 L 126.5 21.03333 L 128.5 20.1 L 130.5 19.16667 L 131.5 20.23333 L 133.5 19.56667 L 135.5 18.23333 L 137.5 18.1 L 138.5 17.16667 L 140.5 18.23333 L 142.5 19.56667 L 143.5 20.63333 L 145.5 21.03333 L 147.5 21.43333 L 149.5 22.1 L 150.5 21.96667 L 152.5 22.23333 L 154.5 23.03333 L 155.5 23.83333 L 157.5 22.9 L 159.5 22.1 L 161.5 22.9 L 162.5 22.23333 L 164.5 21.56667 L 166.5 20.9 L 168.5 21.03333 L 169.5 20.76667 L 171.5 21.3 L 173.5 20.36667 L 174.5 20.5 L 176.5 20.76667 L 178.5 21.3 L 180.5 21.16667 L 181.5 21.03333 L 183.5 21.7 L 185.5 20.9 L 186.5 21.16667 L 188.5 20.23333 L 190.5 21.03333 L 192.5 19.96667 L 193.5 19.3 L 195.5 19.16667 L 197.5 19.96667 L 198.5 20.9 L 200.5 21.3 L 202.5 20.1 L 204.5 19.43333 L 205.5 19.83333 L 207.5 20.76667 L 209.5 20.9 L 210.5 20.63333 L 212.5 21.83333 L 214.5 22.76667 L 216.5 23.03333 L 217.5 22.9 L 219.5 22.63333 L 221.5 21.96667 L 222.5 22.1 L 224.5 22.63333 L 226.5 21.43333 L 228.5 21.7 L 229.5 21.96667 L 231.5 22.9 L 233.5 24.1 L 235.5 23.16667 L 236.5 23.43333 L 238.5 22.23333 L 240.5 23.3 L 241.5 23.3 L 243.5 23.16667 L 245.5 23.43333 L 247.5 23.96667 L 248.5 23.3 L 250.5 24.36667 L 252.5 23.3 L 253.5 23.16667 L 255.5 24.5 L 257.5 23.83333 L 259.5 22.5 L 260.5 22.63333 L 262.5 23.3 L 264.5 23.03333 L 265.5 23.83333 L 267.5 22.63333 L 269.5 23.43333 L 271.5 23.56667 L 272.5 23.7 L 274.5 23.03333 L 276.5 23.3 L 277.5 22.9 L 279.5 24.1 L 281.5 24.9 L 283.5 25.7 L 284.5 25.7 L 286.5 26.1 L 288.5 25.83333 L 289.5 25.43333 L 291.5 25.96667 L 293.5 27.03333 L 295.5 25.83333 L 296.5 24.76667 L 298.5 25.83333 L 300.5 26.1 L 302.5 27.03333 L 303.5 26.63333 L 305.5 27.16667 L 307.5 28.1 L 308.5 27.16667 L 310.5 28.36667 L 312.5 28.23333 L 314.5 27.56667 L 315.5 26.76667 L 317.5 26.9 L 319.5 26.63333 L 320.5 26.5 L 322.5 25.83333 L 324.5 25.43333 L 326.5 25.3 L 327.5 25.43333 L 329.5 24.76667 L 331.5 23.83333 L 332.5 23.03333 L 334.5 21.96667 L 336.5 23.16667 L 338.5 23.43333 L 339.5 24.63333 L 341.5 25.56667 L 343.5 26.76667 L 344.5 26.36667 L 346.5 25.56667 L 348.5 26.76667 L 350.5 27.96667 L 351.5 28.9 L 353.5 27.96667 L 355.5 28.36667 L 356.5 27.56667 L 358.5 28.36667 L 360.5 27.96667 L 362.5 27.16667 L 363.5 28.23333 L 365.5 28.23333 L 367.5 27.43333 L 369.5 27.83333 L 370.5 27.56667 L 372.5 27.56667 L 374.5 26.63333 L 375.5 27.03333 L 377.5 27.03333 L 379.5 27.83333 L 381.5 28.1 L 382.5 27.7 L 384.5 28.36667 L 386.5 27.3 L 387.5 27.7 L 389.5 26.63333 L 391.5 25.43333 L 393.5 24.1 L 394.5 24.63333 L 396.5 25.3 L 398.5 24.5 L 399.5 23.96667 L 401.5 22.63333 L 403.5 22.1 L 405.5 21.3 L 406.5 21.43333 L 408.5 21.43333 L 410.5 22.23333 L 411.5 22.9 L 413.5 22.1 L 415.5 21.83333 L 417.5 22.63333 L 418.5 22.36667 L 420.5 22.36667 L 422.5 23.03333 L 423.5 22.76667 L 425.5 23.83333 L 427.5 23.56667 L 429.5 23.83333 L 430.5 23.83333 L 432.5 22.9 L 434.5 22.23333 L 436.5 23.56667 L 437.5 24.63333 L 439.5 24.5 L 441.5 24.5 L 442.5 23.83333 L 444.5 24.9 L 446.5 26.23333 L 448.5 25.96667 L 449.5 26.1 L 451.5 25.96667 L 453.5 26.23333 L 454.5 25.83333 L 456.5 25.7 L 458.5 26.63333 L 460.5 26.5 L 461.5 25.56667 L 463.5 26.63333 L 465.5 25.43333 L 466.5 24.63333 L 468.5 23.83333 L 470.5 24.36667 L 472.5 25.56667 L 473.5 26.1 L 475.5 25.43333 L 477.5 25.43333 L 478.5 25.16667 L 480.5 25.16667 L 482.5 25.3 L 484.5 25.56667 L 485.5 26.63333 L 487.5 25.43333 L 489.5 24.76667 L 490.5 23.7 L 492.5 22.9 L 494.5 23.7 L 496.5 23.3 L 497.5 23.16667 L 499.5 22.36667 L 501.5 22.5 L 503.5 21.96667 L 504.5 22.23333 L 506.5 23.3 L 508.5 23.43333 L 509.5 23.83333 L 511.5 23.03333 L 513.5 22.36667 L 515.5 22.76667 L 516.5 22.63333 L 518.5 22.36667 L 520.5 21.03333 L 521.5 21.96667 L 523.5 21.16667 L 525.5 21.7 L 527.5 22.63333 L 528.5 21.3 L 530.5 22.63333 L 532.5 21.83333 L 533.5 21.56667 L 535.5 21.96667 L 537.5 21.7 L 539.5 21.83333 L 540.5 23.03333 L 542.5 23.16667 L 544.5 21.96667 L 545.5 21.3 L 547.5 21.7 L 549.5 20.36667 L 551.5 21.03333 L 552.5 20.1 L 554.5 18.9 L 556.5 17.83333 L 557.5 17.43333 L 559.5 16.63333 L 561.5 16.233330000000002 L 563.5 16.76667 L 564.5 17.83333 L 566.5 19.03333 L 568.5 17.83333 L 570.5 16.63333 L 571.5 16.9 L 573.5 16.63333 L 575.5 15.43333 L 576.5 14.76667 L 578.5 15.7 L 580.5 17.03333 L 582.5 17.43333 L 583.5 16.233330000000002 L 585.5 15.83333 L 587.5 14.76667 L 588.5 13.56667 L 590.5 13.03333 L 592.5 12.76667 L 594.5 12.5 L 595.5 13.16667 L 597.5 11.96667 L 599.5 11.16667 L 600.5 11.3 L 602.5 10.76667 L 604.5 9.7 L 606.5 8.63333 L 607.5 9.3 L 609.5 9.56667 L 611.5 8.9 L 612.5 9.56667 L 614.5 10.76667 L 616.5 11.3 L 618.5 10.23333 L 619.5 11.43333 L 621.5 11.3 L 623.5 12.5 L 624.5 12.76667 L 626.5 11.56667 L 628.5 10.23333 L 630.5 8.9 L 631.5 7.83333 L 633.5 8.76667 L 635.5 10.1 L 637.5 10.36667 L 638.5 10.76667 L 640.5 10.63333 L 642.5 9.43333 L 643.5 9.43333 L 645.5 9.43333 L 647.5 8.63333 L 649.5 8.1 L 650.5 8.36667 L 652.5 9.56667 L 654.5 10.1 L 655.5 10.1 L 657.5 9.16667 L 659.5 10.1 L 661.5 9.43333 L 662.5 10.23333 L 664.5 11.3 L 666.5 12.36667 L 667.5 11.83333 L 669.5 13.03333 L 671.5 13.56667 L 673.5 13.43333 L 674.5 12.36667 L 676.5 11.96667 L 678.5 13.16667 L 679.5 14.36667 L 681.5 14.9 L 683.5 13.7 L 685.5 13.96667 L 686.5 12.9 L 688.5 13.83333 L 690.5 14.23333 L 691.5 14.9 L 693.5 15.3 L 695.5 15.56667 L 697.5 14.63333 L 698.5 13.43333 L 700.5 13.3 L 702.5 12.9 L 704.5 11.7 L 705.5 11.83333 L 707.5 10.9 L 709.5 10.76667 L 710.5 11.03333 L 712.5 10.23333 L 714.5 10.63333 L 716.5 11.96667 L 717.5 11.83333 L 719.5 12.5 L 721.5 11.3 L 722.5 10.63333 L 724.5 10.76667 L 726.5 11.96667 L 728.5 13.03333 L 729.5 13.56667 L 731.5 12.63333 L 733.5 11.43333 L 734.5 10.23333 L 736.5 10.36667 L 738.5 9.3 L 740.5 8.63333 L 741.5 8.5 L 743.5 9.56667 L 745.5 8.233329999999999 L 746.5 8.36667 L 748.5 8.233329999999999 L 750.5 8.1 L 752.5 8.36667 L 753.5 9.16667 L 755.5 10.36667 L 757.5 9.43333 L 758.5 9.7 L 760.5 9.96667 L 762.5 10.63333 L 764.5 9.83333 L 765.5 10.1 L 767.5 10.63333 L 769.5 9.96667 L 771.5 11.3 L 772.5 12.1 L 774.5 13.16667 L 776.5 12.23333 L 777.5 13.43333 L 779.5 13.03333 L 781.5 13.96667 L 783.5 13.83333 L 784.5 15.03333 L 786.5 13.96667 L 788.5 13.96667 L 789.5 14.63333 L 791.5 15.56667 L 793.5 15.96667 L 795.5 14.9 L 796.5 13.83333 L 798.5 14.5 L 800.5 14.5 L 801.5 14.36667 L 803.5 14.1 L 805.5 14.36667 L 807.5 14.1 L 808.5 13.03333 L 810.5 13.56667 L 812.5 13.7 L 813.5 14.1 L 815.5 12.76667 L 817.5 12.1 L 819.5 11.7 L 820.5 11.56667 L 822.5 11.03333 L 824.5 11.96667 L 825.5 11.43333 L 827.5 12.23333 L 829.5 12.9 L 831.5 13.83333 L 832.5 13.83333 L 834.5 14.63333 L 836.5 15.56667 L 838.5 14.5 L 839.5 14.76667 L 841.5 13.7 L 843.5 13.03333 L 844.5 12.63333 L 846.5 11.56667 L 848.5 11.16667 L 850.5 12.36667 L 851.5 11.83333 L 853.5 11.56667 L 855.5 11.16667 L 856.5 12.5 L 858.5 13.16667 M 0 0 L 0 0" style="stroke:#FFFFFF;stroke-opacity:1; stroke-opacity: 0; stroke-width: 1; stroke-dasharray: none; stroke-linecap: butt; stroke-linejoin: round; stroke-miterlimit: 10; fill: none; fill-rule: nonzero; opacity: 1" transform=" matrix(1 0 0 1 0 0) " stroke-linecap="round" /></g><g  clip-path="url(#DSCEl-12)" ><path d="M 1.5 28.36667 L 3.5 28.36667 L 4.5 29.56667 L 6.5 29.56667 L 8.5 29.03333 L 9.5 29.83333 L 11.5 29.83333 L 13.5 28.9 L 15.5 27.7 L 16.5 27.3 L 18.5 26.36667 L 20.5 26.1 L 21.5 26.36667 L 23.5 26.76667 L 25.5 27.83333 L 27.5 27.56667 L 28.5 27.16667 L 30.5 25.83333 L 32.5 25.96667 L 34.5 26.36667 L 35.5 27.43333 L 37.5 26.76667 L 39.5 27.7 L 40.5 28.1 L 42.5 28.1 L 44.5 27.7 L 46.5 26.63333 L 47.5 26.1 L 49.5 25.43333 L 51.5 25.16667 L 52.5 23.83333 L 54.5 24.1 L 56.5 23.43333 L 58.5 23.03333 L 59.5 24.23333 L 61.5 24.63333 L 63.5 24.1 L 64.5 24.63333 L 66.5 23.7 L 68.5 24.9 L 70.5 24.1 L 71.5 23.7 L 73.5 23.03333 L 75.5 23.3 L 76.5 22.63333 L 78.5 22.5 L 80.5 21.83333 L 82.5 20.76667 L 83.5 21.3 L 85.5 20.36667 L 87.5 19.96667 L 88.5 19.7 L 90.5 19.3 L 92.5 18.36667 L 94.5 18.63333 L 95.5 19.83333 L 97.5 18.63333 L 99.5 18.76667 L 101.5 20.1 L 102.5 19.16667 L 104.5 18.76667 L 106.5 19.83333 L 107.5 18.9 L 109.5 19.96667 L 111.5 19.16667 L 113.5 19.03333 L 114.5 19.83333 L 116.5 20.63333 L 118.5 21.56667 L 119.5 21.83333 L 121.5 20.63333 L 123.5 21.7 L 125.5 22.23333 L 126.5 21.03333 L 128.5 20.1 L 130.5 19.16667 L 131.5 20.23333 L 133.5 19.56667 L 135.5 18.23333 L 137.5 18.1 L 138.5 17.16667 L 140.5 18.23333 L 142.5 19.56667 L 143.5 20.63333 L 145.5 21.03333 L 147.5 21.43333 L 149.5 22.1 L 150.5 21.96667 L 152.5 22.23333 L 154.5 23.03333 L 155.5 23.83333 L 157.5 22.9 L 159.5 22.1 L 161.5 22.9 L 162.5 22.23333 L 164.5 21.56667 L 166.5 20.9 L 168.5 21.03333 L 169.5 20.76667 L 171.5 21.3 L 173.5 20.36667 L 174.5 20.5 L 176.5 20.76667 L 178.5 21.3 L 180.5 21.16667 L 181.5 21.03333 L 183.5 21.7 L 185.5 20.9 L 186.5 21.16667 L 188.5 20.23333 L 190.5 21.03333 L 192.5 19.96667 L 193.5 19.3 L 195.5 19.16667 L 197.5 19.96667 L 198.5 20.9 L 200.5 21.3 L 202.5 20.1 L 204.5 19.43333 L 205.5 19.83333 L 207.5 20.76667 L 209.5 20.9 L 210.5 20.63333 L 212.5 21.83333 L 214.5 22.76667 L 216.5 23.03333 L 217.5 22.9 L 219.5 22.63333 L 221.5 21.96667 L 222.5 22.1 L 224.5 22.63333 L 226.5 21.43333 L 228.5 21.7 L 229.5 21.96667 L 231.5 22.9 L 233.5 24.1 L 235.5 23.16667 L 236.5 23.43333 L 238.5 22.23333 L 240.5 23.3 L 241.5 23.3 L 243.5 23.16667 L 245.5 23.43333 L 247.5 23.96667 L 248.5 23.3 L 250.5 24.36667 L 252.5 23.3 L 253.5 23.16667 L 255.5 24.5 L 257.5 23.83333 L 259.5 22.5 L 260.5 22.63333 L 262.5 23.3 L 264.5 23.03333 L 265.5 23.83333 L 267.5 22.63333 L 269.5 23.43333 L 271.5 23.56667 L 272.5 23.7 L 274.5 23.03333 L 276.5 23.3 L 277.5 22.9 L 279.5 24.1 L 281.5 24.9 L 283.5 25.7 L 284.5 25.7 L 286.5 26.1 L 288.5 25.83333 L 289.5 25.43333 L 291.5 25.96667 L 293.5 27.03333 L 295.5 25.83333 L 296.5 24.76667 L 298.5 25.83333 L 300.5 26.1 L 302.5 27.03333 L 303.5 26.63333 L 305.5 27.16667 L 307.5 28.1 L 308.5 27.16667 L 310.5 28.36667 L 312.5 28.23333 L 314.5 27.56667 L 315.5 26.76667 L 317.5 26.9 L 319.5 26.63333 L 320.5 26.5 L 322.5 25.83333 L 324.5 25.43333 L 326.5 25.3 L 327.5 25.43333 L 329.5 24.76667 L 331.5 23.83333 L 332.5 23.03333 L 334.5 21.96667 L 336.5 23.16667 L 338.5 23.43333 L 339.5 24.63333 L 341.5 25.56667 L 343.5 26.76667 L 344.5 26.36667 L 346.5 25.56667 L 348.5 26.76667 L 350.5 27.96667 L 351.5 28.9 L 353.5 27.96667 L 355.5 28.36667 L 356.5 27.56667 L 358.5 28.36667 L 360.5 27.96667 L 362.5 27.16667 L 363.5 28.23333 L 365.5 28.23333 L 367.5 27.43333 L 369.5 27.83333 L 370.5 27.56667 L 372.5 27.56667 L 374.5 26.63333 L 375.5 27.03333 L 377.5 27.03333 L 379.5 27.83333 L 381.5 28.1 L 382.5 27.7 L 384.5 28.36667 L 386.5 27.3 L 387.5 27.7 L 389.5 26.63333 L 391.5 25.43333 L 393.5 24.1 L 394.5 24.63333 L 396.5 25.3 L 398.5 24.5 L 399.5 23.96667 L 401.5 22.63333 L 403.5 22.1 L 405.5 21.3 L 406.5 21.43333 L 408.5 21.43333 L 410.5 22.23333 L 411.5 22.9 L 413.5 22.1 L 415.5 21.83333 L 417.5 22.63333 L 418.5 22.36667 L 420.5 22.36667 L 422.5 23.03333 L 423.5 22.76667 L 425.5 23.83333 L 427.5 23.56667 L 429.5 23.83333 L 430.5 23.83333 L 432.5 22.9 L 434.5 22.23333 L 436.5 23.56667 L 437.5 24.63333 L 439.5 24.5 L 441.5 24.5 L 442.5 23.83333 L 444.5 24.9 L 446.5 26.23333 L 448.5 25.96667 L 449.5 26.1 L 451.5 25.96667 L 453.5 26.23333 L 454.5 25.83333 L 456.5 25.7 L 458.5 26.63333 L 460.5 26.5 L 461.5 25.56667 L 463.5 26.63333 L 465.5 25.43333 L 466.5 24.63333 L 468.5 23.83333 L 470.5 24.36667 L 472.5 25.56667 L 473.5 26.1 L 475.5 25.43333 L 477.5 25.43333 L 478.5 25.16667 L 480.5 25.16667 L 482.5 25.3 L 484.5 25.56667 L 485.5 26.63333 L 487.5 25.43333 L 489.5 24.76667 L 490.5 23.7 L 492.5 22.9 L 494.5 23.7 L 496.5 23.3 L 497.5 23.16667 L 499.5 22.36667 L 501.5 22.5 L 503.5 21.96667 L 504.5 22.23333 L 506.5 23.3 L 508.5 23.43333 L 509.5 23.83333 L 511.5 23.03333 L 513.5 22.36667 L 515.5 22.76667 L 516.5 22.63333 L 518.5 22.36667 L 520.5 21.03333 L 521.5 21.96667 L 523.5 21.16667 L 525.5 21.7 L 527.5 22.63333 L 528.5 21.3 L 530.5 22.63333 L 532.5 21.83333 L 533.5 21.56667 L 535.5 21.96667 L 537.5 21.7 L 539.5 21.83333 L 540.5 23.03333 L 542.5 23.16667 L 544.5 21.96667 L 545.5 21.3 L 547.5 21.7 L 549.5 20.36667 L 551.5 21.03333 L 552.5 20.1 L 554.5 18.9 L 556.5 17.83333 L 557.5 17.43333 L 559.5 16.63333 L 561.5 16.233330000000002 L 563.5 16.76667 L 564.5 17.83333 L 566.5 19.03333 L 568.5 17.83333 L 570.5 16.63333 L 571.5 16.9 L 573.5 16.63333 L 575.5 15.43333 L 576.5 14.76667 L 578.5 15.7 L 580.5 17.03333 L 582.5 17.43333 L 583.5 16.233330000000002 L 585.5 15.83333 L 587.5 14.76667 L 588.5 13.56667 L 590.5 13.03333 L 592.5 12.76667 L 594.5 12.5 L 595.5 13.16667 L 597.5 11.96667 L 599.5 11.16667 L 600.5 11.3 L 602.5 10.76667 L 604.5 9.7 L 606.5 8.63333 L 607.5 9.3 L 609.5 9.56667 L 611.5 8.9 L 612.5 9.56667 L 614.5 10.76667 L 616.5 11.3 L 618.5 10.23333 L 619.5 11.43333 L 621.5 11.3 L 623.5 12.5 L 624.5 12.76667 L 626.5 11.56667 L 628.5 10.23333 L 630.5 8.9 L 631.5 7.83333 L 633.5 8.76667 L 635.5 10.1 L 637.5 10.36667 L 638.5 10.76667 L 640.5 10.63333 L 642.5 9.43333 L 643.5 9.43333 L 645.5 9.43333 L 647.5 8.63333 L 649.5 8.1 L 650.5 8.36667 L 652.5 9.56667 L 654.5 10.1 L 655.5 10.1 L 657.5 9.16667 L 659.5 10.1 L 661.5 9.43333 L 662.5 10.23333 L 664.5 11.3 L 666.5 12.36667 L 667.5 11.83333 L 669.5 13.03333 L 671.5 13.56667 L 673.5 13.43333 L 674.5 12.36667 L 676.5 11.96667 L 678.5 13.16667 L 679.5 14.36667 L 681.5 14.9 L 683.5 13.7 L 685.5 13.96667 L 686.5 12.9 L 688.5 13.83333 L 690.5 14.23333 L 691.5 14.9 L 693.5 15.3 L 695.5 15.56667 L 697.5 14.63333 L 698.5 13.43333 L 700.5 13.3 L 702.5 12.9 L 704.5 11.7 L 705.5 11.83333 L 707.5 10.9 L 709.5 10.76667 L 710.5 11.03333 L 712.5 10.23333 L 714.5 10.63333 L 716.5 11.96667 L 717.5 11.83333 L 719.5 12.5 L 721.5 11.3 L 722.5 10.63333 L 724.5 10.76667 L 726.5 11.96667 L 728.5 13.03333 L 729.5 13.56667 L 731.5 12.63333 L 733.5 11.43333 L 734.5 10.23333 L 736.5 10.36667 L 738.5 9.3 L 740.5 8.63333 L 741.5 8.5 L 743.5 9.56667 L 745.5 8.233329999999999 L 746.5 8.36667 L 748.5 8.233329999999999 L 750.5 8.1 L 752.5 8.36667 L 753.5 9.16667 L 755.5 10.36667 L 757.5 9.43333 L 758.5 9.7 L 760.5 9.96667 L 762.5 10.63333 L 764.5 9.83333 L 765.5 10.1 L 767.5 10.63333 L 769.5 9.96667 L 771.5 11.3 L 772.5 12.1 L 774.5 13.16667 L 776.5 12.23333 L 777.5 13.43333 L 779.5 13.03333 L 781.5 13.96667 L 783.5 13.83333 L 784.5 15.03333 L 786.5 13.96667 L 788.5 13.96667 L 789.5 14.63333 L 791.5 15.56667 L 793.5 15.96667 L 795.5 14.9 L 796.5 13.83333 L 798.5 14.5 L 800.5 14.5 L 801.5 14.36667 L 803.5 14.1 L 805.5 14.36667 L 807.5 14.1 L 808.5 13.03333 L 810.5 13.56667 L 812.5 13.7 L 813.5 14.1 L 815.5 12.76667 L 817.5 12.1 L 819.5 11.7 L 820.5 11.56667 L 822.5 11.03333 L 824.5 11.96667 L 825.5 11.43333 L 827.5 12.23333 L 829.5 12.9 L 831.5 13.83333 L 832.5 13.83333 L 834.5 14.63333 L 836.5 15.56667 L 838.5 14.5 L 839.5 14.76667 L 841.5 13.7 L 843.5 13.03333 L 844.5 12.63333 L 846.5 11.56667 L 848.5 11.16667 L 850.5 12.36667 L 851.5 11.83333 L 853.5 11.56667 L 855.5 11.16667 L 856.5 12.5 L 858.5 13.16667 L 858.5 40.5 L 1.5 40.5 L 1.5 28.36667 Z" style="stroke:#000000;stroke-opacity:1; stroke-opacity: 0; stroke-width: 1; stroke-dasharray: none; stroke-linecap: butt; stroke-linejoin: miter; stroke-miterlimit: 10;fill:#FFFFFF;fill-opacity:1; fill-opacity: 0.4; fill-rule: nonzero; opacity: 1" transform=" matrix(1 0 0 1 0 0) " stroke-linecap="round" /></g><path d="M 93.5 40.5 L 93.5 40.5 L 93.5 0.5" style="stroke:#FFFFFF;stroke-opacity:1; stroke-opacity: 0.15; stroke-width: 1; stroke-dasharray: none; stroke-linecap: butt; stroke-linejoin: miter; stroke-miterlimit: 10; fill: none; fill-rule: nonzero; opacity: 1" transform=" matrix(1 0 0 1 0 0) " stroke-linecap="round" /><path d="M 198.5 40.5 L 198.5 40.5 L 198.5 0.5" style="stroke:#FFFFFF;stroke-opacity:1; stroke-opacity: 0.15; stroke-width: 1; stroke-dasharray: none; stroke-linecap: butt; stroke-linejoin: miter; stroke-miterlimit: 10; fill: none; fill-rule: nonzero; opacity: 1" transform=" matrix(1 0 0 1 0 0) " stroke-linecap="round" /><path d="M 302.5 40.5 L 302.5 40.5 L 302.5 0.5" style="stroke:#FFFFFF;stroke-opacity:1; stroke-opacity: 0.15; stroke-width: 1; stroke-dasharray: none; stroke-linecap: butt; stroke-linejoin: miter; stroke-miterlimit: 10; fill: none; fill-rule: nonzero; opacity: 1" transform=" matrix(1 0 0 1 0 0) " stroke-linecap="round" /><path d="M 404.5 40.5 L 404.5 40.5 L 404.5 0.5" style="stroke:#FFFFFF;stroke-opacity:1; stroke-opacity: 0.15; stroke-width: 1; stroke-dasharray: none; stroke-linecap: butt; stroke-linejoin: miter; stroke-miterlimit: 10; fill: none; fill-rule: nonzero; opacity: 1" transform=" matrix(1 0 0 1 0 0) " stroke-linecap="round" /><path d="M 509.5 40.5 L 509.5 40.5 L 509.5 0.5" style="stroke:#FFFFFF;stroke-opacity:1; stroke-opacity: 0.15; stroke-width: 1; stroke-dasharray: none; stroke-linecap: butt; stroke-linejoin: miter; stroke-miterlimit: 10; fill: none; fill-rule: nonzero; opacity: 1" transform=" matrix(1 0 0 1 0 0) " stroke-linecap="round" /><path d="M 613.5 40.5 L 613.5 40.5 L 613.5 0.5" style="stroke:#FFFFFF;stroke-opacity:1; stroke-opacity: 0.15; stroke-width: 1; stroke-dasharray: none; stroke-linecap: butt; stroke-linejoin: miter; stroke-miterlimit: 10; fill: none; fill-rule: nonzero; opacity: 1" transform=" matrix(1 0 0 1 0 0) " stroke-linecap="round" /><path d="M 720.5 40.5 L 720.5 40.5 L 720.5 0.5" style="stroke:#FFFFFF;stroke-opacity:1; stroke-opacity: 0.15; stroke-width: 1; stroke-dasharray: none; stroke-linecap: butt; stroke-linejoin: miter; stroke-miterlimit: 10; fill: none; fill-rule: nonzero; opacity: 1" transform=" matrix(1 0 0 1 0 0) " stroke-linecap="round" /><path d="M 825.5 40.5 L 825.5 40.5 L 825.5 0.5" style="stroke:#FFFFFF;stroke-opacity:1; stroke-opacity: 0.15; stroke-width: 1; stroke-dasharray: none; stroke-linecap: butt; stroke-linejoin: miter; stroke-miterlimit: 10; fill: none; fill-rule: nonzero; opacity: 1" transform=" matrix(1 0 0 1 0 0) " stroke-linecap="round" /><g transform=" matrix(1 0 0 1 96 28.5) "><text xml:space="preserve" font-family="Verdana" font-size="11" font-weight="normal" style="stroke: none; stroke-width: 1; stroke-dasharray: none; stroke-linecap: butt; stroke-linejoin: miter; stroke-miterlimit: 10;fill:#FFFFFF;fill-opacity:1; fill-rule: nonzero; opacity: 1; white-space: pre" ><tspan x="0" y="7.48" fill="rgba(255,255,255,1)">Sep</tspan></text></g><g transform=" matrix(1 0 0 1 201 28.5) "><text xml:space="preserve" font-family="Verdana" font-size="11" font-weight="normal" style="stroke: none; stroke-width: 1; stroke-dasharray: none; stroke-linecap: butt; stroke-linejoin: miter; stroke-miterlimit: 10;fill:#FFFFFF;fill-opacity:1; fill-rule: nonzero; opacity: 1; white-space: pre" ><tspan x="0" y="7.48" fill="rgba(255,255,255,1)">Nov</tspan></text></g><g transform=" matrix(1 0 0 1 305 28.5) "><text xml:space="preserve" font-family="Verdana" font-size="11" font-weight="normal" style="stroke: none; stroke-width: 1; stroke-dasharray: none; stroke-linecap: butt; stroke-linejoin: miter; stroke-miterlimit: 10;fill:#FFFFFF;fill-opacity:1; fill-rule: nonzero; opacity: 1; white-space: pre" ><tspan x="0" y="7.48" fill="rgba(255,255,255,1)">2017</tspan></text></g><g transform=" matrix(1 0 0 1 407 28.5) "><text xml:space="preserve" font-family="Verdana" font-size="11" font-weight="normal" style="stroke: none; stroke-width: 1; stroke-dasharray: none; stroke-linecap: butt; stroke-linejoin: miter; stroke-miterlimit: 10;fill:#FFFFFF;fill-opacity:1; fill-rule: nonzero; opacity: 1; white-space: pre" ><tspan x="0" y="7.48" fill="rgba(255,255,255,1)">Mar</tspan></text></g><g transform=" matrix(1 0 0 1 512 28.5) "><text xml:space="preserve" font-family="Verdana" font-size="11" font-weight="normal" style="stroke: none; stroke-width: 1; stroke-dasharray: none; stroke-linecap: butt; stroke-linejoin: miter; stroke-miterlimit: 10;fill:#FFFFFF;fill-opacity:1; fill-rule: nonzero; opacity: 1; white-space: pre" ><tspan x="0" y="7.48" fill="rgba(255,255,255,1)">May</tspan></text></g><g transform=" matrix(1 0 0 1 616 28.5) "><text xml:space="preserve" font-family="Verdana" font-size="11" font-weight="normal" style="stroke: none; stroke-width: 1; stroke-dasharray: none; stroke-linecap: butt; stroke-linejoin: miter; stroke-miterlimit: 10;fill:#FFFFFF;fill-opacity:1; fill-rule: nonzero; opacity: 1; white-space: pre" ><tspan x="0" y="7.48" fill="rgba(255,255,255,1)">Jul</tspan></text></g><g transform=" matrix(1 0 0 1 723 28.5) "><text xml:space="preserve" font-family="Verdana" font-size="11" font-weight="normal" style="stroke: none; stroke-width: 1; stroke-dasharray: none; stroke-linecap: butt; stroke-linejoin: miter; stroke-miterlimit: 10;fill:#FFFFFF;fill-opacity:1; fill-rule: nonzero; opacity: 1; white-space: pre" ><tspan x="0" y="7.48" fill="rgba(255,255,255,1)">Sep</tspan></text></g><g transform=" matrix(1 0 0 1 828 28.5) "><text xml:space="preserve" font-family="Verdana" font-size="11" font-weight="normal" style="stroke: none; stroke-width: 1; stroke-dasharray: none; stroke-linecap: butt; stroke-linejoin: miter; stroke-miterlimit: 10;fill:#FFFFFF;fill-opacity:1; fill-rule: nonzero; opacity: 1; white-space: pre" ><tspan x="0" y="7.48" fill="rgba(255,255,255,1)">Nov</tspan></text></g><rect x="0.5" y="0.5" rx="0" ry="0" width="860" height="40" style="stroke:#000000;stroke-opacity:1; stroke-opacity: 0.005; stroke-width: 0; stroke-dasharray: none; stroke-linecap: butt; stroke-linejoin: miter; stroke-miterlimit: 10;fill:#000000;fill-opacity:1; fill-opacity: 0.005; fill-rule: nonzero; opacity: 1" transform=" matrix(1 0 0 1 0 0) "/><rect x="806" y="0.5" rx="0" ry="0" width="53" height="40" style="stroke:#000000;stroke-opacity:1; stroke-opacity: 0.005; stroke-width: 0; stroke-dasharray: none; stroke-linecap: butt; stroke-linejoin: miter; stroke-miterlimit: 10;fill:#000000;fill-opacity:1; fill-opacity: 0.005; fill-rule: nonzero; opacity: 1" transform=" matrix(1 0 0 1 0 0) "/><g transform=" matrix(1 0 0 1 789 3) "><image xlink:href="https://www.DSC.com/lib/3/images/dragIconRoundBig.svg" x="0" y="0" style="stroke: none; stroke-width: 0; stroke-dasharray: none; stroke-linecap: butt; stroke-linejoin: miter; stroke-miterlimit: 10;fill:#000000;fill-opacity:1; fill-rule: nonzero; opacity: 1" width="35" height="35" preserveAspectRatio="none"></image></g><rect x="0.5" y="0.5" rx="0" ry="0" width="25" height="40" style="stroke:#000000;stroke-opacity:1; stroke-opacity: 0.005; stroke-width: 0; stroke-dasharray: none; stroke-linecap: butt; stroke-linejoin: miter; stroke-miterlimit: 10;fill:#000000;fill-opacity:1; fill-opacity: 0.005; fill-rule: nonzero; opacity: 1" transform=" matrix(1 0 0 1 794 1) "/><g transform=" matrix(1 0 0 1 842 3) "><image xlink:href="https://www.DSC.com/lib/3/images/dragIconRoundBig.svg" x="0" y="0" style="stroke: none; stroke-width: 0; stroke-dasharray: none; stroke-linecap: butt; stroke-linejoin: miter; stroke-miterlimit: 10;fill:#000000;fill-opacity:1; fill-rule: nonzero; opacity: 1" width="35" height="35" preserveAspectRatio="none"></image></g><rect x="0.5" y="0.5" rx="0" ry="0" width="25" height="40" style="stroke:#000000;stroke-opacity:1; stroke-opacity: 0.005; stroke-width: 0; stroke-dasharray: none; stroke-linecap: butt; stroke-linejoin: miter; stroke-miterlimit: 10;fill:#000000;fill-opacity:1; fill-opacity: 0.005; fill-rule: nonzero; opacity: 1" transform=" matrix(1 0 0 1 847 1) "/></g><clipPath xmlns="http://www.w3.org/2000/svg" id="DSCEl-7"><rect x="-1" y="-1" width="861" height="293" rx="0" ry="0" stroke-width="0" fill="none" fill-opacity="0"/></clipPath><clipPath xmlns="http://www.w3.org/2000/svg" id="DSCEl-9"><rect x="0" y="0" width="859" height="291" rx="0" ry="0" stroke-width="0" fill="none" fill-opacity="0"/></clipPath><clipPath xmlns="http://www.w3.org/2000/svg" id="DSCEl-8"><rect x="0" y="0" width="859" height="291" rx="0" ry="0" stroke-width="0" fill="none" fill-opacity="0"/></clipPath><clipPath xmlns="http://www.w3.org/2000/svg" id="DSCEl-10"><rect x="-1" y="-1" width="861" height="85" rx="0" ry="0" stroke-width="0" fill="none" fill-opacity="0"/></clipPath><clipPath xmlns="http://www.w3.org/2000/svg" id="DSCEl-11"><rect x="0" y="0" width="859" height="83" rx="0" ry="0" stroke-width="0" fill="none" fill-opacity="0"/></clipPath><clipPath xmlns="http://www.w3.org/2000/svg" id="DSCEl-12"><rect x="806" y="0" width="53" height="41" rx="0" ry="0" stroke-width="0" fill="none" fill-opacity="0"/></clipPath></svg>
