<?xml version="1.0" encoding="UTF-8" standalone="no" ?><!DOCTYPE svg PUBLIC "-//W3C//DTD SVG 1.1//EN" "http://www.w3.org/Graphics/SVG/1.1/DTD/svg11.dtd"><svg xmlns="http://www.w3.org/2000/svg" xmlns:xlink="http://www.w3.org/1999/xlink" version="1.1" width="1056" height="500" viewBox="0 0 1056 500" xml:space="preserve"><desc>Created with Fabric.js 1.7.19</desc><defs></defs><rect x="0" y="0" width="1056" height="500" fill="#3f3f4f"></rect><g style="stroke: none; stroke-width: 1; stroke-dasharray: none; stroke-linecap: butt; stroke-linejoin: miter; stroke-miterlimit: 10; fill: none; fill-rule: nonzero; opacity: 1" transform="translate(0 0)" ><path d="M 0.5 0.5 L 910.5 0.5 L 910.5 499.5 L 0.5 499.5 Z" style="stroke:#000000;stroke-opacity:1; stroke-opacity: 0; stroke-width: 1; stroke-dasharray: none; stroke-linecap: butt; stroke-linejoin: miter; stroke-miterlimit: 10;fill:#282828;fill-opacity:1; fill-opacity: 0; fill-rule: nonzero; opacity: 1" transform="" stroke-linecap="round" /><path d="M 0.5 0.5 L 0.5 -174.5" style="stroke:#FFFFFF;stroke-opacity:1; stroke-opacity: 0.3; stroke-width: 1; stroke-dasharray: none; stroke-linecap: butt; stroke-linejoin: miter; stroke-miterlimit: 10; fill: none; fill-rule: nonzero; opacity: 1" transform=" matrix(1 0 0 1 455 250) " stroke-linecap="round" /><g transform=" matrix(1 0 0 1 455 60) "><text xml:space="preserve" font-family="Verdana" font-size="11" font-weight="normal" style="stroke: none; stroke-width: 1; stroke-dasharray: none; stroke-linecap: butt; stroke-linejoin: miter; stroke-miterlimit: 10;fill:#E7E7E7;fill-opacity:1; fill-rule: nonzero; opacity: 1; white-space: pre" ><tspan x="-4" y="7.48" fill="rgba(231,231,231,1)">0</tspan></text></g><path d="M 0.5 0.5 L 88.5 -151.5" style="stroke:#FFFFFF;stroke-opacity:1; stroke-opacity: 0.3; stroke-width: 1; stroke-dasharray: none; stroke-linecap: butt; stroke-linejoin: miter; stroke-miterlimit: 10; fill: none; fill-rule: nonzero; opacity: 1" transform=" matrix(1 0 0 1 455 250) " stroke-linecap="round" /><g transform=" matrix(1 0 0 1 552 90) "><text xml:space="preserve" font-family="Verdana" font-size="11" font-weight="normal" style="stroke: none; stroke-width: 1; stroke-dasharray: none; stroke-linecap: butt; stroke-linejoin: miter; stroke-miterlimit: 10;fill:#E7E7E7;fill-opacity:1; fill-rule: nonzero; opacity: 1; white-space: pre" ><tspan x="0" y="7.48" fill="rgba(231,231,231,1)">30</tspan></text></g><path d="M 0.5 0.5 L 152.5 -86.5" style="stroke:#FFFFFF;stroke-opacity:1; stroke-opacity: 0.3; stroke-width: 1; stroke-dasharray: none; stroke-linecap: butt; stroke-linejoin: miter; stroke-miterlimit: 10; fill: none; fill-rule: nonzero; opacity: 1" transform=" matrix(1 0 0 1 455 250) " stroke-linecap="round" /><g transform=" matrix(1 0 0 1 620 158) "><text xml:space="preserve" font-family="Verdana" font-size="11" font-weight="normal" style="stroke: none; stroke-width: 1; stroke-dasharray: none; stroke-linecap: butt; stroke-linejoin: miter; stroke-miterlimit: 10;fill:#E7E7E7;fill-opacity:1; fill-rule: nonzero; opacity: 1; white-space: pre" ><tspan x="0" y="7.48" fill="rgba(231,231,231,1)">60</tspan></text></g><path d="M 0.5 0.5 L 175.5 0.5" style="stroke:#FFFFFF;stroke-opacity:1; stroke-opacity: 0.3; stroke-width: 1; stroke-dasharray: none; stroke-linecap: butt; stroke-linejoin: miter; stroke-miterlimit: 10; fill: none; fill-rule: nonzero; opacity: 1" transform=" matrix(1 0 0 1 455 250) " stroke-linecap="round" /><g transform=" matrix(1 0 0 1 645 250) "><text xml:space="preserve" font-family="Verdana" font-size="11" font-weight="normal" style="stroke: none; stroke-width: 1; stroke-dasharray: none; stroke-linecap: butt; stroke-linejoin: miter; stroke-miterlimit: 10;fill:#E7E7E7;fill-opacity:1; fill-rule: nonzero; opacity: 1; white-space: pre" ><tspan x="0" y="7.48" fill="rgba(231,231,231,1)">90</tspan></text></g><path d="M 0.5 0.5 L 152.5 88.5" style="stroke:#FFFFFF;stroke-opacity:1; stroke-opacity: 0.3; stroke-width: 1; stroke-dasharray: none; stroke-linecap: butt; stroke-linejoin: miter; stroke-miterlimit: 10; fill: none; fill-rule: nonzero; opacity: 1" transform=" matrix(1 0 0 1 455 250) " stroke-linecap="round" /><g transform=" matrix(1 0 0 1 620 343) "><text xml:space="preserve" font-family="Verdana" font-size="11" font-weight="normal" style="stroke: none; stroke-width: 1; stroke-dasharray: none; stroke-linecap: butt; stroke-linejoin: miter; stroke-miterlimit: 10;fill:#E7E7E7;fill-opacity:1; fill-rule: nonzero; opacity: 1; white-space: pre" ><tspan x="0" y="7.48" fill="rgba(231,231,231,1)">120</tspan></text></g><path d="M 0.5 0.5 L 88.5 152.5" style="stroke:#FFFFFF;stroke-opacity:1; stroke-opacity: 0.3; stroke-width: 1; stroke-dasharray: none; stroke-linecap: butt; stroke-linejoin: miter; stroke-miterlimit: 10; fill: none; fill-rule: nonzero; opacity: 1" transform=" matrix(1 0 0 1 455 250) " stroke-linecap="round" /><g transform=" matrix(1 0 0 1 552 410) "><text xml:space="preserve" font-family="Verdana" font-size="11" font-weight="normal" style="stroke: none; stroke-width: 1; stroke-dasharray: none; stroke-linecap: butt; stroke-linejoin: miter; stroke-miterlimit: 10;fill:#E7E7E7;fill-opacity:1; fill-rule: nonzero; opacity: 1; white-space: pre" ><tspan x="0" y="7.48" fill="rgba(231,231,231,1)">150</tspan></text></g><path d="M 0.5 0.5 L 0.5 175.5" style="stroke:#FFFFFF;stroke-opacity:1; stroke-opacity: 0.3; stroke-width: 1; stroke-dasharray: none; stroke-linecap: butt; stroke-linejoin: miter; stroke-miterlimit: 10; fill: none; fill-rule: nonzero; opacity: 1" transform=" matrix(1 0 0 1 455 250) " stroke-linecap="round" /><g transform=" matrix(1 0 0 1 455 440) "><text xml:space="preserve" font-family="Verdana" font-size="11" font-weight="normal" style="stroke: none; stroke-width: 1; stroke-dasharray: none; stroke-linecap: butt; stroke-linejoin: miter; stroke-miterlimit: 10;fill:#E7E7E7;fill-opacity:1; fill-rule: nonzero; opacity: 1; white-space: pre" ><tspan x="-11" y="7.48" fill="rgba(231,231,231,1)">180</tspan></text></g><path d="M 0.5 0.5 L -86.5 152.5" style="stroke:#FFFFFF;stroke-opacity:1; stroke-opacity: 0.3; stroke-width: 1; stroke-dasharray: none; stroke-linecap: butt; stroke-linejoin: miter; stroke-miterlimit: 10; fill: none; fill-rule: nonzero; opacity: 1" transform=" matrix(1 0 0 1 455 250) " stroke-linecap="round" /><g transform=" matrix(1 0 0 1 358 410) "><text xml:space="preserve" font-family="Verdana" font-size="11" font-weight="normal" style="stroke: none; stroke-width: 1; stroke-dasharray: none; stroke-linecap: butt; stroke-linejoin: miter; stroke-miterlimit: 10;fill:#E7E7E7;fill-opacity:1; fill-rule: nonzero; opacity: 1; white-space: pre" ><tspan x="-22" y="7.48" fill="rgba(231,231,231,1)">210</tspan></text></g><path d="M 0.5 0.5 L -151.5 88.5" style="stroke:#FFFFFF;stroke-opacity:1; stroke-opacity: 0.3; stroke-width: 1; stroke-dasharray: none; stroke-linecap: butt; stroke-linejoin: miter; stroke-miterlimit: 10; fill: none; fill-rule: nonzero; opacity: 1" transform=" matrix(1 0 0 1 455 250) " stroke-linecap="round" /><g transform=" matrix(1 0 0 1 290 343) "><text xml:space="preserve" font-family="Verdana" font-size="11" font-weight="normal" style="stroke: none; stroke-width: 1; stroke-dasharray: none; stroke-linecap: butt; stroke-linejoin: miter; stroke-miterlimit: 10;fill:#E7E7E7;fill-opacity:1; fill-rule: nonzero; opacity: 1; white-space: pre" ><tspan x="-22" y="7.48" fill="rgba(231,231,231,1)">240</tspan></text></g><path d="M 0.5 0.5 L -174.5 0.5" style="stroke:#FFFFFF;stroke-opacity:1; stroke-opacity: 0.3; stroke-width: 1; stroke-dasharray: none; stroke-linecap: butt; stroke-linejoin: miter; stroke-miterlimit: 10; fill: none; fill-rule: nonzero; opacity: 1" transform=" matrix(1 0 0 1 455 250) " stroke-linecap="round" /><g transform=" matrix(1 0 0 1 265 250) "><text xml:space="preserve" font-family="Verdana" font-size="11" font-weight="normal" style="stroke: none; stroke-width: 1; stroke-dasharray: none; stroke-linecap: butt; stroke-linejoin: miter; stroke-miterlimit: 10;fill:#E7E7E7;fill-opacity:1; fill-rule: nonzero; opacity: 1; white-space: pre" ><tspan x="-22" y="7.48" fill="rgba(231,231,231,1)">270</tspan></text></g><path d="M 0.5 0.5 L -151.5 -86.5" style="stroke:#FFFFFF;stroke-opacity:1; stroke-opacity: 0.3; stroke-width: 1; stroke-dasharray: none; stroke-linecap: butt; stroke-linejoin: miter; stroke-miterlimit: 10; fill: none; fill-rule: nonzero; opacity: 1" transform=" matrix(1 0 0 1 455 250) " stroke-linecap="round" /><g transform=" matrix(1 0 0 1 290 158) "><text xml:space="preserve" font-family="Verdana" font-size="11" font-weight="normal" style="stroke: none; stroke-width: 1; stroke-dasharray: none; stroke-linecap: butt; stroke-linejoin: miter; stroke-miterlimit: 10;fill:#E7E7E7;fill-opacity:1; fill-rule: nonzero; opacity: 1; white-space: pre" ><tspan x="-22" y="7.48" fill="rgba(231,231,231,1)">300</tspan></text></g><path d="M 0.5 0.5 L -86.5 -151.5" style="stroke:#FFFFFF;stroke-opacity:1; stroke-opacity: 0.3; stroke-width: 1; stroke-dasharray: none; stroke-linecap: butt; stroke-linejoin: miter; stroke-miterlimit: 10; fill: none; fill-rule: nonzero; opacity: 1" transform=" matrix(1 0 0 1 455 250) " stroke-linecap="round" /><g transform=" matrix(1 0 0 1 358 90) "><text xml:space="preserve" font-family="Verdana" font-size="11" font-weight="normal" style="stroke: none; stroke-width: 1; stroke-dasharray: none; stroke-linecap: butt; stroke-linejoin: miter; stroke-miterlimit: 10;fill:#E7E7E7;fill-opacity:1; fill-rule: nonzero; opacity: 1; white-space: pre" ><tspan x="-22" y="7.48" fill="rgba(231,231,231,1)">330</tspan></text></g><path d="M 0.5 0.5 L -4.5 0.5" style="stroke:#FFFFFF;stroke-opacity:1; stroke-opacity: 0.3; stroke-width: 1; stroke-dasharray: none; stroke-linecap: butt; stroke-linejoin: miter; stroke-miterlimit: 10; fill: none; fill-rule: nonzero; opacity: 1" transform=" matrix(1 0 0 1 455 250) " stroke-linecap="round" /><circle cx="0" cy="0" r="0.001" style="stroke:#FFFFFF;stroke-opacity:1; stroke-opacity: 0.1; stroke-width: 1; stroke-dasharray: none; stroke-linecap: butt; stroke-linejoin: miter; stroke-miterlimit: 10;fill:#FFFFFF;fill-opacity:1; fill-opacity: 0; fill-rule: nonzero; opacity: 1" transform="  matrix(1 0 0 1 455 250) "/><path d="M 0.5 -34.5 L -4.5 -34.5" style="stroke:#FFFFFF;stroke-opacity:1; stroke-opacity: 0.3; stroke-width: 1; stroke-dasharray: none; stroke-linecap: butt; stroke-linejoin: miter; stroke-miterlimit: 10; fill: none; fill-rule: nonzero; opacity: 1" transform=" matrix(1 0 0 1 455 250) " stroke-linecap="round" /><circle cx="0" cy="0" r="35" style="stroke:#FFFFFF;stroke-opacity:1; stroke-opacity: 0.1; stroke-width: 1; stroke-dasharray: none; stroke-linecap: butt; stroke-linejoin: miter; stroke-miterlimit: 10;fill:#FFFFFF;fill-opacity:1; fill-opacity: 0; fill-rule: nonzero; opacity: 1" transform="  matrix(1 0 0 1 455 250) "/><path d="M 0.5 -69.5 L -4.5 -69.5" style="stroke:#FFFFFF;stroke-opacity:1; stroke-opacity: 0.3; stroke-width: 1; stroke-dasharray: none; stroke-linecap: butt; stroke-linejoin: miter; stroke-miterlimit: 10; fill: none; fill-rule: nonzero; opacity: 1" transform=" matrix(1 0 0 1 455 250) " stroke-linecap="round" /><circle cx="0" cy="0" r="70" style="stroke:#FFFFFF;stroke-opacity:1; stroke-opacity: 0.1; stroke-width: 1; stroke-dasharray: none; stroke-linecap: butt; stroke-linejoin: miter; stroke-miterlimit: 10;fill:#FFFFFF;fill-opacity:1; fill-opacity: 0; fill-rule: nonzero; opacity: 1" transform="  matrix(1 0 0 1 455 250) "/><path d="M 0.5 -104.5 L -4.5 -104.5" style="stroke:#FFFFFF;stroke-opacity:1; stroke-opacity: 0.3; stroke-width: 1; stroke-dasharray: none; stroke-linecap: butt; stroke-linejoin: miter; stroke-miterlimit: 10; fill: none; fill-rule: nonzero; opacity: 1" transform=" matrix(1 0 0 1 455 250) " stroke-linecap="round" /><circle cx="0" cy="0" r="105" style="stroke:#FFFFFF;stroke-opacity:1; stroke-opacity: 0.1; stroke-width: 1; stroke-dasharray: none; stroke-linecap: butt; stroke-linejoin: miter; stroke-miterlimit: 10;fill:#FFFFFF;fill-opacity:1; fill-opacity: 0; fill-rule: nonzero; opacity: 1" transform="  matrix(1 0 0 1 455 250) "/><path d="M 0.5 -139.5 L -4.5 -139.5" style="stroke:#FFFFFF;stroke-opacity:1; stroke-opacity: 0.3; stroke-width: 1; stroke-dasharray: none; stroke-linecap: butt; stroke-linejoin: miter; stroke-miterlimit: 10; fill: none; fill-rule: nonzero; opacity: 1" transform=" matrix(1 0 0 1 455 250) " stroke-linecap="round" /><circle cx="0" cy="0" r="140" style="stroke:#FFFFFF;stroke-opacity:1; stroke-opacity: 0.1; stroke-width: 1; stroke-dasharray: none; stroke-linecap: butt; stroke-linejoin: miter; stroke-miterlimit: 10;fill:#FFFFFF;fill-opacity:1; fill-opacity: 0; fill-rule: nonzero; opacity: 1" transform="  matrix(1 0 0 1 455 250) "/><path d="M 0.5 -174.5 L -4.5 -174.5" style="stroke:#FFFFFF;stroke-opacity:1; stroke-opacity: 0.3; stroke-width: 1; stroke-dasharray: none; stroke-linecap: butt; stroke-linejoin: miter; stroke-miterlimit: 10; fill: none; fill-rule: nonzero; opacity: 1" transform=" matrix(1 0 0 1 455 250) " stroke-linecap="round" /><circle cx="0" cy="0" r="175" style="stroke:#FFFFFF;stroke-opacity:1; stroke-opacity: 0.1; stroke-width: 1; stroke-dasharray: none; stroke-linecap: butt; stroke-linejoin: miter; stroke-miterlimit: 10;fill:#FFFFFF;fill-opacity:1; fill-opacity: 0; fill-rule: nonzero; opacity: 1" transform="  matrix(1 0 0 1 455 250) "/><path d="M 0.5 -52 L 0.56108 -2.99947 L 1.35504 -23.98508 L 19.1157 -117.03491 L 34.47 -126.27776 L 27.0301 -92.02144 L 80.8007 -114.18129 L 108.23003 -119.14632 L 51.82038 -54.53437 L 73.43913 -75.03068 L 56.80427 -46.74489 L 91.62036 -73.28782 L 46.6212 -34.25482 L 11.51023 -4.87005 L 63.7803 -25.0669 L 113.01671 -38.24261 L 153.32158 -37.6027 L 89.08474 -10.37684 L 145.19728 -12.15937 L 173.75 0.5 L 72.20629 3.00404 L 77.20699 7.21099 L 30.08703 3.60972 L 136.64967 24.50686 L 162.83273 50.1301 L 0.5 -52 M 0 0 L 0 0" style="stroke:#AE85C9;stroke-opacity:1; stroke-opacity: 0; stroke-width: 1; stroke-dasharray: none; stroke-linecap: butt; stroke-linejoin: round; stroke-miterlimit: 10; fill: none; fill-rule: nonzero; opacity: 1" transform=" matrix(1 0 0 1 455 250) " stroke-linecap="round" /><path d="M 171.11794 -29.58455 L 140.50482 -21.67459 L 161.10781 -10.73079 L 73.98881 1.78275 L 41.98291 7.07025 L 65.98972 12.0476 L 148.84784 34.7488 L 113.20793 32.81848 L 65.7678 20.45437 L 150.80645 58.19724 L 145.74488 77.72807 L 147.42433 92.30851 L 10.65571 7.35011 L 46.74018 37.94456 L 35.35502 29.74684 L 90.66535 100.63877 L 82.61612 98.36218 L 10.4118 12.74005 L 28.14043 43.06253 L 31.14477 51.50145 L 10.681 18.86701 L 10.3589 19.0419 L 13.60412 38.55712 L 6.32153 27.88813 L 25.54368 129.33857 L 10.48567 71.55173 L 1.29396 23.23614 L -4.87452 154.40619 L 171.11794 -29.58455 M 0 0 L 0 0" style="stroke:#AAB9F7;stroke-opacity:1; stroke-opacity: 0; stroke-width: 1; stroke-dasharray: none; stroke-linecap: butt; stroke-linejoin: round; stroke-miterlimit: 10; fill: none; fill-rule: nonzero; opacity: 1" transform=" matrix(1 0 0 1 455 250) " stroke-linecap="round" /><path d="M 4.76543 35.23912 L 10.87153 119.04717 L -3.0423 101.93817 L -14.8831 45.17575 L -60.33296 158.97528 L -56.44313 128.39636000000002 L -93.98978 113.10853 L -29.77974 9.18258 L -6.39365 1.71554 L -13.4659 -0.47658999999999996 L -73.82355 -11.27169 L -19.47219 -5.98936 L -48.25958 -23.28163 L -52.54406 -30.125 L -116.89942 -87.96681 L -25.70136 -19.97074 L -69.5 -120.74356 L -58.29177 -114.88534 L -11.55913 -41.5552 L -4.15393 -28.88373 L 4.76543 35.23912 M 0 0 L 0 0" style="stroke:#B6D2FF;stroke-opacity:1; stroke-opacity: 0; stroke-width: 1; stroke-dasharray: none; stroke-linecap: butt; stroke-linejoin: round; stroke-miterlimit: 10; fill: none; fill-rule: nonzero; opacity: 1" transform=" matrix(1 0 0 1 455 250) " stroke-linecap="round" /><circle cx="0" cy="0" r="4" style="stroke:#AE85C9;stroke-opacity:1; stroke-opacity: 0; stroke-width: 2; stroke-dasharray: none; stroke-linecap: butt; stroke-linejoin: miter; stroke-miterlimit: 10;fill:#AE85C9;fill-opacity:1; fill-rule: nonzero; opacity: 1" transform="  matrix(1 0 0 1 455 198) "/><circle cx="0" cy="0" r="4" style="stroke:#AE85C9;stroke-opacity:1; stroke-opacity: 0; stroke-width: 2; stroke-dasharray: none; stroke-linecap: butt; stroke-linejoin: miter; stroke-miterlimit: 10;fill:#AE85C9;fill-opacity:1; fill-rule: nonzero; opacity: 1" transform="  matrix(1 0 0 1 455 247) "/><circle cx="0" cy="0" r="4" style="stroke:#AE85C9;stroke-opacity:1; stroke-opacity: 0; stroke-width: 2; stroke-dasharray: none; stroke-linecap: butt; stroke-linejoin: miter; stroke-miterlimit: 10;fill:#AE85C9;fill-opacity:1; fill-rule: nonzero; opacity: 1" transform="  matrix(1 0 0 1 456 226) "/><circle cx="0" cy="0" r="4" style="stroke:#AE85C9;stroke-opacity:1; stroke-opacity: 0; stroke-width: 2; stroke-dasharray: none; stroke-linecap: butt; stroke-linejoin: miter; stroke-miterlimit: 10;fill:#AE85C9;fill-opacity:1; fill-rule: nonzero; opacity: 1" transform="  matrix(1 0 0 1 474 132) "/><circle cx="0" cy="0" r="4" style="stroke:#AE85C9;stroke-opacity:1; stroke-opacity: 0; stroke-width: 2; stroke-dasharray: none; stroke-linecap: butt; stroke-linejoin: miter; stroke-miterlimit: 10;fill:#AE85C9;fill-opacity:1; fill-rule: nonzero; opacity: 1" transform="  matrix(1 0 0 1 489 123) "/><circle cx="0" cy="0" r="4" style="stroke:#AE85C9;stroke-opacity:1; stroke-opacity: 0; stroke-width: 2; stroke-dasharray: none; stroke-linecap: butt; stroke-linejoin: miter; stroke-miterlimit: 10;fill:#AE85C9;fill-opacity:1; fill-rule: nonzero; opacity: 1" transform="  matrix(1 0 0 1 482 157) "/><circle cx="0" cy="0" r="4" style="stroke:#AE85C9;stroke-opacity:1; stroke-opacity: 0; stroke-width: 2; stroke-dasharray: none; stroke-linecap: butt; stroke-linejoin: miter; stroke-miterlimit: 10;fill:#AE85C9;fill-opacity:1; fill-rule: nonzero; opacity: 1" transform="  matrix(1 0 0 1 535 135) "/><circle cx="0" cy="0" r="4" style="stroke:#AE85C9;stroke-opacity:1; stroke-opacity: 0; stroke-width: 2; stroke-dasharray: none; stroke-linecap: butt; stroke-linejoin: miter; stroke-miterlimit: 10;fill:#AE85C9;fill-opacity:1; fill-rule: nonzero; opacity: 1" transform="  matrix(1 0 0 1 563 130) "/><circle cx="0" cy="0" r="4" style="stroke:#AE85C9;stroke-opacity:1; stroke-opacity: 0; stroke-width: 2; stroke-dasharray: none; stroke-linecap: butt; stroke-linejoin: miter; stroke-miterlimit: 10;fill:#AE85C9;fill-opacity:1; fill-rule: nonzero; opacity: 1" transform="  matrix(1 0 0 1 506 195) "/><circle cx="0" cy="0" r="4" style="stroke:#AE85C9;stroke-opacity:1; stroke-opacity: 0; stroke-width: 2; stroke-dasharray: none; stroke-linecap: butt; stroke-linejoin: miter; stroke-miterlimit: 10;fill:#AE85C9;fill-opacity:1; fill-rule: nonzero; opacity: 1" transform="  matrix(1 0 0 1 528 174) "/><circle cx="0" cy="0" r="4" style="stroke:#AE85C9;stroke-opacity:1; stroke-opacity: 0; stroke-width: 2; stroke-dasharray: none; stroke-linecap: butt; stroke-linejoin: miter; stroke-miterlimit: 10;fill:#AE85C9;fill-opacity:1; fill-rule: nonzero; opacity: 1" transform="  matrix(1 0 0 1 511 203) "/><circle cx="0" cy="0" r="4" style="stroke:#AE85C9;stroke-opacity:1; stroke-opacity: 0; stroke-width: 2; stroke-dasharray: none; stroke-linecap: butt; stroke-linejoin: miter; stroke-miterlimit: 10;fill:#AE85C9;fill-opacity:1; fill-rule: nonzero; opacity: 1" transform="  matrix(1 0 0 1 546 176) "/><circle cx="0" cy="0" r="4" style="stroke:#AE85C9;stroke-opacity:1; stroke-opacity: 0; stroke-width: 2; stroke-dasharray: none; stroke-linecap: butt; stroke-linejoin: miter; stroke-miterlimit: 10;fill:#AE85C9;fill-opacity:1; fill-rule: nonzero; opacity: 1" transform="  matrix(1 0 0 1 501 215) "/><circle cx="0" cy="0" r="4" style="stroke:#AE85C9;stroke-opacity:1; stroke-opacity: 0; stroke-width: 2; stroke-dasharray: none; stroke-linecap: butt; stroke-linejoin: miter; stroke-miterlimit: 10;fill:#AE85C9;fill-opacity:1; fill-rule: nonzero; opacity: 1" transform="  matrix(1 0 0 1 466 245) "/><circle cx="0" cy="0" r="4" style="stroke:#AE85C9;stroke-opacity:1; stroke-opacity: 0; stroke-width: 2; stroke-dasharray: none; stroke-linecap: butt; stroke-linejoin: miter; stroke-miterlimit: 10;fill:#AE85C9;fill-opacity:1; fill-rule: nonzero; opacity: 1" transform="  matrix(1 0 0 1 518 224) "/><circle cx="0" cy="0" r="4" style="stroke:#AE85C9;stroke-opacity:1; stroke-opacity: 0; stroke-width: 2; stroke-dasharray: none; stroke-linecap: butt; stroke-linejoin: miter; stroke-miterlimit: 10;fill:#AE85C9;fill-opacity:1; fill-rule: nonzero; opacity: 1" transform="  matrix(1 0 0 1 568 211) "/><circle cx="0" cy="0" r="4" style="stroke:#AE85C9;stroke-opacity:1; stroke-opacity: 0; stroke-width: 2; stroke-dasharray: none; stroke-linecap: butt; stroke-linejoin: miter; stroke-miterlimit: 10;fill:#AE85C9;fill-opacity:1; fill-rule: nonzero; opacity: 1" transform="  matrix(1 0 0 1 608 212) "/><circle cx="0" cy="0" r="4" style="stroke:#AE85C9;stroke-opacity:1; stroke-opacity: 0; stroke-width: 2; stroke-dasharray: none; stroke-linecap: butt; stroke-linejoin: miter; stroke-miterlimit: 10;fill:#AE85C9;fill-opacity:1; fill-rule: nonzero; opacity: 1" transform="  matrix(1 0 0 1 544 239) "/><circle cx="0" cy="0" r="4" style="stroke:#AE85C9;stroke-opacity:1; stroke-opacity: 0; stroke-width: 2; stroke-dasharray: none; stroke-linecap: butt; stroke-linejoin: miter; stroke-miterlimit: 10;fill:#AE85C9;fill-opacity:1; fill-rule: nonzero; opacity: 1" transform="  matrix(1 0 0 1 600 237) "/><circle cx="0" cy="0" r="4" style="stroke:#AE85C9;stroke-opacity:1; stroke-opacity: 0; stroke-width: 2; stroke-dasharray: none; stroke-linecap: butt; stroke-linejoin: miter; stroke-miterlimit: 10;fill:#AE85C9;fill-opacity:1; fill-rule: nonzero; opacity: 1" transform="  matrix(1 0 0 1 628 250) "/><circle cx="0" cy="0" r="4" style="stroke:#AE85C9;stroke-opacity:1; stroke-opacity: 0; stroke-width: 2; stroke-dasharray: none; stroke-linecap: butt; stroke-linejoin: miter; stroke-miterlimit: 10;fill:#AE85C9;fill-opacity:1; fill-rule: nonzero; opacity: 1" transform="  matrix(1 0 0 1 527 253) "/><circle cx="0" cy="0" r="4" style="stroke:#AE85C9;stroke-opacity:1; stroke-opacity: 0; stroke-width: 2; stroke-dasharray: none; stroke-linecap: butt; stroke-linejoin: miter; stroke-miterlimit: 10;fill:#AE85C9;fill-opacity:1; fill-rule: nonzero; opacity: 1" transform="  matrix(1 0 0 1 532 257) "/><circle cx="0" cy="0" r="4" style="stroke:#AE85C9;stroke-opacity:1; stroke-opacity: 0; stroke-width: 2; stroke-dasharray: none; stroke-linecap: butt; stroke-linejoin: miter; stroke-miterlimit: 10;fill:#AE85C9;fill-opacity:1; fill-rule: nonzero; opacity: 1" transform="  matrix(1 0 0 1 485 253) "/><circle cx="0" cy="0" r="4" style="stroke:#AE85C9;stroke-opacity:1; stroke-opacity: 0; stroke-width: 2; stroke-dasharray: none; stroke-linecap: butt; stroke-linejoin: miter; stroke-miterlimit: 10;fill:#AE85C9;fill-opacity:1; fill-rule: nonzero; opacity: 1" transform="  matrix(1 0 0 1 591 274) "/><circle cx="0" cy="0" r="4" style="stroke:#AE85C9;stroke-opacity:1; stroke-opacity: 0; stroke-width: 2; stroke-dasharray: none; stroke-linecap: butt; stroke-linejoin: miter; stroke-miterlimit: 10;fill:#AE85C9;fill-opacity:1; fill-rule: nonzero; opacity: 1" transform="  matrix(1 0 0 1 617 300) "/><circle cx="0" cy="0" r="4" style="stroke:#AAB9F7;stroke-opacity:1; stroke-opacity: 0; stroke-width: 2; stroke-dasharray: none; stroke-linecap: butt; stroke-linejoin: miter; stroke-miterlimit: 10;fill:#AAB9F7;fill-opacity:1; fill-rule: nonzero; opacity: 1" transform="  matrix(1 0 0 1 626 220) "/><circle cx="0" cy="0" r="4" style="stroke:#AAB9F7;stroke-opacity:1; stroke-opacity: 0; stroke-width: 2; stroke-dasharray: none; stroke-linecap: butt; stroke-linejoin: miter; stroke-miterlimit: 10;fill:#AAB9F7;fill-opacity:1; fill-rule: nonzero; opacity: 1" transform="  matrix(1 0 0 1 595 228) "/><circle cx="0" cy="0" r="4" style="stroke:#AAB9F7;stroke-opacity:1; stroke-opacity: 0; stroke-width: 2; stroke-dasharray: none; stroke-linecap: butt; stroke-linejoin: miter; stroke-miterlimit: 10;fill:#AAB9F7;fill-opacity:1; fill-rule: nonzero; opacity: 1" transform="  matrix(1 0 0 1 616 239) "/><circle cx="0" cy="0" r="4" style="stroke:#AAB9F7;stroke-opacity:1; stroke-opacity: 0; stroke-width: 2; stroke-dasharray: none; stroke-linecap: butt; stroke-linejoin: miter; stroke-miterlimit: 10;fill:#AAB9F7;fill-opacity:1; fill-rule: nonzero; opacity: 1" transform="  matrix(1 0 0 1 528 251) "/><circle cx="0" cy="0" r="4" style="stroke:#AAB9F7;stroke-opacity:1; stroke-opacity: 0; stroke-width: 2; stroke-dasharray: none; stroke-linecap: butt; stroke-linejoin: miter; stroke-miterlimit: 10;fill:#AAB9F7;fill-opacity:1; fill-rule: nonzero; opacity: 1" transform="  matrix(1 0 0 1 496 257) "/><circle cx="0" cy="0" r="4" style="stroke:#AAB9F7;stroke-opacity:1; stroke-opacity: 0; stroke-width: 2; stroke-dasharray: none; stroke-linecap: butt; stroke-linejoin: miter; stroke-miterlimit: 10;fill:#AAB9F7;fill-opacity:1; fill-rule: nonzero; opacity: 1" transform="  matrix(1 0 0 1 520 262) "/><circle cx="0" cy="0" r="4" style="stroke:#AAB9F7;stroke-opacity:1; stroke-opacity: 0; stroke-width: 2; stroke-dasharray: none; stroke-linecap: butt; stroke-linejoin: miter; stroke-miterlimit: 10;fill:#AAB9F7;fill-opacity:1; fill-rule: nonzero; opacity: 1" transform="  matrix(1 0 0 1 603 284) "/><circle cx="0" cy="0" r="4" style="stroke:#AAB9F7;stroke-opacity:1; stroke-opacity: 0; stroke-width: 2; stroke-dasharray: none; stroke-linecap: butt; stroke-linejoin: miter; stroke-miterlimit: 10;fill:#AAB9F7;fill-opacity:1; fill-rule: nonzero; opacity: 1" transform="  matrix(1 0 0 1 568 282) "/><circle cx="0" cy="0" r="4" style="stroke:#AAB9F7;stroke-opacity:1; stroke-opacity: 0; stroke-width: 2; stroke-dasharray: none; stroke-linecap: butt; stroke-linejoin: miter; stroke-miterlimit: 10;fill:#AAB9F7;fill-opacity:1; fill-rule: nonzero; opacity: 1" transform="  matrix(1 0 0 1 520 270) "/><circle cx="0" cy="0" r="4" style="stroke:#AAB9F7;stroke-opacity:1; stroke-opacity: 0; stroke-width: 2; stroke-dasharray: none; stroke-linecap: butt; stroke-linejoin: miter; stroke-miterlimit: 10;fill:#AAB9F7;fill-opacity:1; fill-rule: nonzero; opacity: 1" transform="  matrix(1 0 0 1 605 308) "/><circle cx="0" cy="0" r="4" style="stroke:#AAB9F7;stroke-opacity:1; stroke-opacity: 0; stroke-width: 2; stroke-dasharray: none; stroke-linecap: butt; stroke-linejoin: miter; stroke-miterlimit: 10;fill:#AAB9F7;fill-opacity:1; fill-rule: nonzero; opacity: 1" transform="  matrix(1 0 0 1 600 327) "/><circle cx="0" cy="0" r="4" style="stroke:#AAB9F7;stroke-opacity:1; stroke-opacity: 0; stroke-width: 2; stroke-dasharray: none; stroke-linecap: butt; stroke-linejoin: miter; stroke-miterlimit: 10;fill:#AAB9F7;fill-opacity:1; fill-rule: nonzero; opacity: 1" transform="  matrix(1 0 0 1 602 342) "/><circle cx="0" cy="0" r="4" style="stroke:#AAB9F7;stroke-opacity:1; stroke-opacity: 0; stroke-width: 2; stroke-dasharray: none; stroke-linecap: butt; stroke-linejoin: miter; stroke-miterlimit: 10;fill:#AAB9F7;fill-opacity:1; fill-rule: nonzero; opacity: 1" transform="  matrix(1 0 0 1 465 257) "/><circle cx="0" cy="0" r="4" style="stroke:#AAB9F7;stroke-opacity:1; stroke-opacity: 0; stroke-width: 2; stroke-dasharray: none; stroke-linecap: butt; stroke-linejoin: miter; stroke-miterlimit: 10;fill:#AAB9F7;fill-opacity:1; fill-rule: nonzero; opacity: 1" transform="  matrix(1 0 0 1 501 287) "/><circle cx="0" cy="0" r="4" style="stroke:#AAB9F7;stroke-opacity:1; stroke-opacity: 0; stroke-width: 2; stroke-dasharray: none; stroke-linecap: butt; stroke-linejoin: miter; stroke-miterlimit: 10;fill:#AAB9F7;fill-opacity:1; fill-rule: nonzero; opacity: 1" transform="  matrix(1 0 0 1 490 279) "/><circle cx="0" cy="0" r="4" style="stroke:#AAB9F7;stroke-opacity:1; stroke-opacity: 0; stroke-width: 2; stroke-dasharray: none; stroke-linecap: butt; stroke-linejoin: miter; stroke-miterlimit: 10;fill:#AAB9F7;fill-opacity:1; fill-rule: nonzero; opacity: 1" transform="  matrix(1 0 0 1 545 350) "/><circle cx="0" cy="0" r="4" style="stroke:#AAB9F7;stroke-opacity:1; stroke-opacity: 0; stroke-width: 2; stroke-dasharray: none; stroke-linecap: butt; stroke-linejoin: miter; stroke-miterlimit: 10;fill:#AAB9F7;fill-opacity:1; fill-rule: nonzero; opacity: 1" transform="  matrix(1 0 0 1 537 348) "/><circle cx="0" cy="0" r="4" style="stroke:#AAB9F7;stroke-opacity:1; stroke-opacity: 0; stroke-width: 2; stroke-dasharray: none; stroke-linecap: butt; stroke-linejoin: miter; stroke-miterlimit: 10;fill:#AAB9F7;fill-opacity:1; fill-rule: nonzero; opacity: 1" transform="  matrix(1 0 0 1 465 262) "/><circle cx="0" cy="0" r="4" style="stroke:#AAB9F7;stroke-opacity:1; stroke-opacity: 0; stroke-width: 2; stroke-dasharray: none; stroke-linecap: butt; stroke-linejoin: miter; stroke-miterlimit: 10;fill:#AAB9F7;fill-opacity:1; fill-rule: nonzero; opacity: 1" transform="  matrix(1 0 0 1 483 293) "/><circle cx="0" cy="0" r="4" style="stroke:#AAB9F7;stroke-opacity:1; stroke-opacity: 0; stroke-width: 2; stroke-dasharray: none; stroke-linecap: butt; stroke-linejoin: miter; stroke-miterlimit: 10;fill:#AAB9F7;fill-opacity:1; fill-rule: nonzero; opacity: 1" transform="  matrix(1 0 0 1 486 301) "/><circle cx="0" cy="0" r="4" style="stroke:#AAB9F7;stroke-opacity:1; stroke-opacity: 0; stroke-width: 2; stroke-dasharray: none; stroke-linecap: butt; stroke-linejoin: miter; stroke-miterlimit: 10;fill:#AAB9F7;fill-opacity:1; fill-rule: nonzero; opacity: 1" transform="  matrix(1 0 0 1 465 268) "/><circle cx="0" cy="0" r="4" style="stroke:#AAB9F7;stroke-opacity:1; stroke-opacity: 0; stroke-width: 2; stroke-dasharray: none; stroke-linecap: butt; stroke-linejoin: miter; stroke-miterlimit: 10;fill:#AAB9F7;fill-opacity:1; fill-rule: nonzero; opacity: 1" transform="  matrix(1 0 0 1 465 269) "/><circle cx="0" cy="0" r="4" style="stroke:#AAB9F7;stroke-opacity:1; stroke-opacity: 0; stroke-width: 2; stroke-dasharray: none; stroke-linecap: butt; stroke-linejoin: miter; stroke-miterlimit: 10;fill:#AAB9F7;fill-opacity:1; fill-rule: nonzero; opacity: 1" transform="  matrix(1 0 0 1 468 288) "/><circle cx="0" cy="0" r="4" style="stroke:#AAB9F7;stroke-opacity:1; stroke-opacity: 0; stroke-width: 2; stroke-dasharray: none; stroke-linecap: butt; stroke-linejoin: miter; stroke-miterlimit: 10;fill:#AAB9F7;fill-opacity:1; fill-rule: nonzero; opacity: 1" transform="  matrix(1 0 0 1 461 277) "/><circle cx="0" cy="0" r="4" style="stroke:#AAB9F7;stroke-opacity:1; stroke-opacity: 0; stroke-width: 2; stroke-dasharray: none; stroke-linecap: butt; stroke-linejoin: miter; stroke-miterlimit: 10;fill:#AAB9F7;fill-opacity:1; fill-rule: nonzero; opacity: 1" transform="  matrix(1 0 0 1 480 379) "/><circle cx="0" cy="0" r="4" style="stroke:#AAB9F7;stroke-opacity:1; stroke-opacity: 0; stroke-width: 2; stroke-dasharray: none; stroke-linecap: butt; stroke-linejoin: miter; stroke-miterlimit: 10;fill:#AAB9F7;fill-opacity:1; fill-rule: nonzero; opacity: 1" transform="  matrix(1 0 0 1 465 321) "/><circle cx="0" cy="0" r="4" style="stroke:#AAB9F7;stroke-opacity:1; stroke-opacity: 0; stroke-width: 2; stroke-dasharray: none; stroke-linecap: butt; stroke-linejoin: miter; stroke-miterlimit: 10;fill:#AAB9F7;fill-opacity:1; fill-rule: nonzero; opacity: 1" transform="  matrix(1 0 0 1 456 273) "/><circle cx="0" cy="0" r="4" style="stroke:#AAB9F7;stroke-opacity:1; stroke-opacity: 0; stroke-width: 2; stroke-dasharray: none; stroke-linecap: butt; stroke-linejoin: miter; stroke-miterlimit: 10;fill:#AAB9F7;fill-opacity:1; fill-rule: nonzero; opacity: 1" transform="  matrix(1 0 0 1 450 404) "/><circle cx="0" cy="0" r="4" style="stroke:#B6D2FF;stroke-opacity:1; stroke-opacity: 0; stroke-width: 2; stroke-dasharray: none; stroke-linecap: butt; stroke-linejoin: miter; stroke-miterlimit: 10;fill:#B6D2FF;fill-opacity:1; fill-rule: nonzero; opacity: 1" transform="  matrix(1 0 0 1 459 285) "/><circle cx="0" cy="0" r="4" style="stroke:#B6D2FF;stroke-opacity:1; stroke-opacity: 0; stroke-width: 2; stroke-dasharray: none; stroke-linecap: butt; stroke-linejoin: miter; stroke-miterlimit: 10;fill:#B6D2FF;fill-opacity:1; fill-rule: nonzero; opacity: 1" transform="  matrix(1 0 0 1 465 369) "/><circle cx="0" cy="0" r="4" style="stroke:#B6D2FF;stroke-opacity:1; stroke-opacity: 0; stroke-width: 2; stroke-dasharray: none; stroke-linecap: butt; stroke-linejoin: miter; stroke-miterlimit: 10;fill:#B6D2FF;fill-opacity:1; fill-rule: nonzero; opacity: 1" transform="  matrix(1 0 0 1 451 351) "/><circle cx="0" cy="0" r="4" style="stroke:#B6D2FF;stroke-opacity:1; stroke-opacity: 0; stroke-width: 2; stroke-dasharray: none; stroke-linecap: butt; stroke-linejoin: miter; stroke-miterlimit: 10;fill:#B6D2FF;fill-opacity:1; fill-rule: nonzero; opacity: 1" transform="  matrix(1 0 0 1 440 295) "/><circle cx="0" cy="0" r="4" style="stroke:#B6D2FF;stroke-opacity:1; stroke-opacity: 0; stroke-width: 2; stroke-dasharray: none; stroke-linecap: butt; stroke-linejoin: miter; stroke-miterlimit: 10;fill:#B6D2FF;fill-opacity:1; fill-rule: nonzero; opacity: 1" transform="  matrix(1 0 0 1 394 408) "/><circle cx="0" cy="0" r="4" style="stroke:#B6D2FF;stroke-opacity:1; stroke-opacity: 0; stroke-width: 2; stroke-dasharray: none; stroke-linecap: butt; stroke-linejoin: miter; stroke-miterlimit: 10;fill:#B6D2FF;fill-opacity:1; fill-rule: nonzero; opacity: 1" transform="  matrix(1 0 0 1 398 378) "/><circle cx="0" cy="0" r="4" style="stroke:#B6D2FF;stroke-opacity:1; stroke-opacity: 0; stroke-width: 2; stroke-dasharray: none; stroke-linecap: butt; stroke-linejoin: miter; stroke-miterlimit: 10;fill:#B6D2FF;fill-opacity:1; fill-rule: nonzero; opacity: 1" transform="  matrix(1 0 0 1 361 363) "/><circle cx="0" cy="0" r="4" style="stroke:#B6D2FF;stroke-opacity:1; stroke-opacity: 0; stroke-width: 2; stroke-dasharray: none; stroke-linecap: butt; stroke-linejoin: miter; stroke-miterlimit: 10;fill:#B6D2FF;fill-opacity:1; fill-rule: nonzero; opacity: 1" transform="  matrix(1 0 0 1 425 259) "/><circle cx="0" cy="0" r="4" style="stroke:#B6D2FF;stroke-opacity:1; stroke-opacity: 0; stroke-width: 2; stroke-dasharray: none; stroke-linecap: butt; stroke-linejoin: miter; stroke-miterlimit: 10;fill:#B6D2FF;fill-opacity:1; fill-rule: nonzero; opacity: 1" transform="  matrix(1 0 0 1 448 251) "/><circle cx="0" cy="0" r="4" style="stroke:#B6D2FF;stroke-opacity:1; stroke-opacity: 0; stroke-width: 2; stroke-dasharray: none; stroke-linecap: butt; stroke-linejoin: miter; stroke-miterlimit: 10;fill:#B6D2FF;fill-opacity:1; fill-rule: nonzero; opacity: 1" transform="  matrix(1 0 0 1 441 249) "/><circle cx="0" cy="0" r="4" style="stroke:#B6D2FF;stroke-opacity:1; stroke-opacity: 0; stroke-width: 2; stroke-dasharray: none; stroke-linecap: butt; stroke-linejoin: miter; stroke-miterlimit: 10;fill:#B6D2FF;fill-opacity:1; fill-rule: nonzero; opacity: 1" transform="  matrix(1 0 0 1 381 238) "/><circle cx="0" cy="0" r="4" style="stroke:#B6D2FF;stroke-opacity:1; stroke-opacity: 0; stroke-width: 2; stroke-dasharray: none; stroke-linecap: butt; stroke-linejoin: miter; stroke-miterlimit: 10;fill:#B6D2FF;fill-opacity:1; fill-rule: nonzero; opacity: 1" transform="  matrix(1 0 0 1 435 244) "/><circle cx="0" cy="0" r="4" style="stroke:#B6D2FF;stroke-opacity:1; stroke-opacity: 0; stroke-width: 2; stroke-dasharray: none; stroke-linecap: butt; stroke-linejoin: miter; stroke-miterlimit: 10;fill:#B6D2FF;fill-opacity:1; fill-rule: nonzero; opacity: 1" transform="  matrix(1 0 0 1 406 226) "/><circle cx="0" cy="0" r="4" style="stroke:#B6D2FF;stroke-opacity:1; stroke-opacity: 0; stroke-width: 2; stroke-dasharray: none; stroke-linecap: butt; stroke-linejoin: miter; stroke-miterlimit: 10;fill:#B6D2FF;fill-opacity:1; fill-rule: nonzero; opacity: 1" transform="  matrix(1 0 0 1 402 219) "/><circle cx="0" cy="0" r="4" style="stroke:#B6D2FF;stroke-opacity:1; stroke-opacity: 0; stroke-width: 2; stroke-dasharray: none; stroke-linecap: butt; stroke-linejoin: miter; stroke-miterlimit: 10;fill:#B6D2FF;fill-opacity:1; fill-rule: nonzero; opacity: 1" transform="  matrix(1 0 0 1 338 162) "/><circle cx="0" cy="0" r="4" style="stroke:#B6D2FF;stroke-opacity:1; stroke-opacity: 0; stroke-width: 2; stroke-dasharray: none; stroke-linecap: butt; stroke-linejoin: miter; stroke-miterlimit: 10;fill:#B6D2FF;fill-opacity:1; fill-rule: nonzero; opacity: 1" transform="  matrix(1 0 0 1 429 230) "/><circle cx="0" cy="0" r="4" style="stroke:#B6D2FF;stroke-opacity:1; stroke-opacity: 0; stroke-width: 2; stroke-dasharray: none; stroke-linecap: butt; stroke-linejoin: miter; stroke-miterlimit: 10;fill:#B6D2FF;fill-opacity:1; fill-rule: nonzero; opacity: 1" transform="  matrix(1 0 0 1 385 129) "/><circle cx="0" cy="0" r="4" style="stroke:#B6D2FF;stroke-opacity:1; stroke-opacity: 0; stroke-width: 2; stroke-dasharray: none; stroke-linecap: butt; stroke-linejoin: miter; stroke-miterlimit: 10;fill:#B6D2FF;fill-opacity:1; fill-rule: nonzero; opacity: 1" transform="  matrix(1 0 0 1 396 135) "/><circle cx="0" cy="0" r="4" style="stroke:#B6D2FF;stroke-opacity:1; stroke-opacity: 0; stroke-width: 2; stroke-dasharray: none; stroke-linecap: butt; stroke-linejoin: miter; stroke-miterlimit: 10;fill:#B6D2FF;fill-opacity:1; fill-rule: nonzero; opacity: 1" transform="  matrix(1 0 0 1 443 208) "/><circle cx="0" cy="0" r="4" style="stroke:#B6D2FF;stroke-opacity:1; stroke-opacity: 0; stroke-width: 2; stroke-dasharray: none; stroke-linecap: butt; stroke-linejoin: miter; stroke-miterlimit: 10;fill:#B6D2FF;fill-opacity:1; fill-rule: nonzero; opacity: 1" transform="  matrix(1 0 0 1 450 221) "/><g transform=" matrix(1 0 0 1 447 250) "><text xml:space="preserve" font-family="Verdana" font-size="11" font-weight="normal" style="stroke: none; stroke-width: 1; stroke-dasharray: none; stroke-linecap: butt; stroke-linejoin: miter; stroke-miterlimit: 10;fill:#E7E7E7;fill-opacity:1; fill-rule: nonzero; opacity: 1; white-space: pre" ><tspan x="-8" y="7.48" fill="rgba(231,231,231,1)">0</tspan></text></g><g transform=" matrix(1 0 0 1 447 215) "><text xml:space="preserve" font-family="Verdana" font-size="11" font-weight="normal" style="stroke: none; stroke-width: 1; stroke-dasharray: none; stroke-linecap: butt; stroke-linejoin: miter; stroke-miterlimit: 10;fill:#E7E7E7;fill-opacity:1; fill-rule: nonzero; opacity: 1; white-space: pre" ><tspan x="-8" y="7.48" fill="rgba(231,231,231,1)">2</tspan></text></g><g transform=" matrix(1 0 0 1 447 180) "><text xml:space="preserve" font-family="Verdana" font-size="11" font-weight="normal" style="stroke: none; stroke-width: 1; stroke-dasharray: none; stroke-linecap: butt; stroke-linejoin: miter; stroke-miterlimit: 10;fill:#E7E7E7;fill-opacity:1; fill-rule: nonzero; opacity: 1; white-space: pre" ><tspan x="-8" y="7.48" fill="rgba(231,231,231,1)">4</tspan></text></g><g transform=" matrix(1 0 0 1 447 145) "><text xml:space="preserve" font-family="Verdana" font-size="11" font-weight="normal" style="stroke: none; stroke-width: 1; stroke-dasharray: none; stroke-linecap: butt; stroke-linejoin: miter; stroke-miterlimit: 10;fill:#E7E7E7;fill-opacity:1; fill-rule: nonzero; opacity: 1; white-space: pre" ><tspan x="-8" y="7.48" fill="rgba(231,231,231,1)">6</tspan></text></g><g transform=" matrix(1 0 0 1 447 110) "><text xml:space="preserve" font-family="Verdana" font-size="11" font-weight="normal" style="stroke: none; stroke-width: 1; stroke-dasharray: none; stroke-linecap: butt; stroke-linejoin: miter; stroke-miterlimit: 10;fill:#E7E7E7;fill-opacity:1; fill-rule: nonzero; opacity: 1; white-space: pre" ><tspan x="-8" y="7.48" fill="rgba(231,231,231,1)">8</tspan></text></g><g transform=" matrix(1 0 0 1 447 75) "><text xml:space="preserve" font-family="Verdana" font-size="11" font-weight="normal" style="stroke: none; stroke-width: 1; stroke-dasharray: none; stroke-linecap: butt; stroke-linejoin: miter; stroke-miterlimit: 10;fill:#E7E7E7;fill-opacity:1; fill-rule: nonzero; opacity: 1; white-space: pre" ><tspan x="-15" y="7.48" fill="rgba(231,231,231,1)">10</tspan></text></g></g><g style="stroke: none; stroke-width: 1; stroke-dasharray: none; stroke-linecap: butt; stroke-linejoin: miter; stroke-miterlimit: 10; fill: none; fill-rule: nonzero; opacity: 1" transform="translate(910.5 203)" ><path d="M 0.5 0.5 L 126.5 0.5 L 126.5 93.5 L 0.5 93.5 Z" style="stroke:#000000;stroke-opacity:1; stroke-opacity: 0; stroke-width: 1; stroke-dasharray: none; stroke-linecap: butt; stroke-linejoin: miter; stroke-miterlimit: 10;fill:#FFFFFF;fill-opacity:1; fill-opacity: 0; fill-rule: nonzero; opacity: 1" transform=" matrix(1 0 0 1 10 0) " stroke-linecap="round" /><path d="M -7.5 8.5 L 8.5 8.5 L 8.5 -7.5 L -7.5 -7.5 Z" style="stroke:#AE85C9;stroke-opacity:1; stroke-width: 1; stroke-dasharray: none; stroke-linecap: butt; stroke-linejoin: miter; stroke-miterlimit: 10;fill:#AE85C9;fill-opacity:1; fill-rule: nonzero; opacity: 1" transform=" matrix(1 0 0 1 18 19) " stroke-linecap="round" /><path d="M -5.5 -5.5 L 6.5 6.5" style="stroke:#FFFFFF;stroke-opacity:1; stroke-opacity: 0; stroke-width: 3; stroke-dasharray: none; stroke-linecap: butt; stroke-linejoin: miter; stroke-miterlimit: 10; fill: none; fill-rule: nonzero; opacity: 0" transform=" matrix(1 0 0 1 18 19) " stroke-linecap="round" /><path d="M -5.5 6.5 L 6.5 -5.5" style="stroke:#FFFFFF;stroke-opacity:1; stroke-opacity: 0; stroke-width: 3; stroke-dasharray: none; stroke-linecap: butt; stroke-linejoin: miter; stroke-miterlimit: 10; fill: none; fill-rule: nonzero; opacity: 0" transform=" matrix(1 0 0 1 18 19) " stroke-linecap="round" /><g transform=" matrix(1 0 0 1 31 18) "><text xml:space="preserve" font-family="Verdana" font-size="11" font-weight="normal" style="stroke: none; stroke-width: 1; stroke-dasharray: none; stroke-linecap: butt; stroke-linejoin: miter; stroke-miterlimit: 10;fill:#E7E7E7;fill-opacity:1; fill-rule: nonzero; opacity: 1; white-space: pre" ><tspan x="0.5" y="7.48" fill="rgba(231,231,231,1)">Trial #1</tspan></text></g><g transform=" matrix(1 0 0 1 134 18) "><text xml:space="preserve" font-family="Verdana" font-size="11" font-weight="normal" style="stroke: none; stroke-width: 1; stroke-dasharray: none; stroke-linecap: butt; stroke-linejoin: miter; stroke-miterlimit: 10;fill:#E7E7E7;fill-opacity:1; fill-rule: nonzero; opacity: 1; white-space: pre" ><tspan x="-4.5" y="7.48" fill="rgba(231,231,231,1)"> </tspan></text></g><rect x="16" y="0" rx="0" ry="0" width="108" height="18" style="stroke: none; stroke-width: 0; stroke-dasharray: none; stroke-linecap: butt; stroke-linejoin: miter; stroke-miterlimit: 10;fill:#FFFFFF;fill-opacity:1; fill-opacity: 0.005; fill-rule: nonzero; opacity: 1" transform=" matrix(1 0 0 1 10 11) "/><path d="M -7.5 8.5 L 8.5 8.5 L 8.5 -7.5 L -7.5 -7.5 Z" style="stroke:#AAB9F7;stroke-opacity:1; stroke-width: 1; stroke-dasharray: none; stroke-linecap: butt; stroke-linejoin: miter; stroke-miterlimit: 10;fill:#AAB9F7;fill-opacity:1; fill-rule: nonzero; opacity: 1" transform=" matrix(1 0 0 1 18 47) " stroke-linecap="round" /><path d="M -5.5 -5.5 L 6.5 6.5" style="stroke:#FFFFFF;stroke-opacity:1; stroke-opacity: 0; stroke-width: 3; stroke-dasharray: none; stroke-linecap: butt; stroke-linejoin: miter; stroke-miterlimit: 10; fill: none; fill-rule: nonzero; opacity: 0" transform=" matrix(1 0 0 1 18 47) " stroke-linecap="round" /><path d="M -5.5 6.5 L 6.5 -5.5" style="stroke:#FFFFFF;stroke-opacity:1; stroke-opacity: 0; stroke-width: 3; stroke-dasharray: none; stroke-linecap: butt; stroke-linejoin: miter; stroke-miterlimit: 10; fill: none; fill-rule: nonzero; opacity: 0" transform=" matrix(1 0 0 1 18 47) " stroke-linecap="round" /><g transform=" matrix(1 0 0 1 31 46) "><text xml:space="preserve" font-family="Verdana" font-size="11" font-weight="normal" style="stroke: none; stroke-width: 1; stroke-dasharray: none; stroke-linecap: butt; stroke-linejoin: miter; stroke-miterlimit: 10;fill:#E7E7E7;fill-opacity:1; fill-rule: nonzero; opacity: 1; white-space: pre" ><tspan x="0.5" y="7.48" fill="rgba(231,231,231,1)">Trial #2</tspan></text></g><g transform=" matrix(1 0 0 1 134 46) "><text xml:space="preserve" font-family="Verdana" font-size="11" font-weight="normal" style="stroke: none; stroke-width: 1; stroke-dasharray: none; stroke-linecap: butt; stroke-linejoin: miter; stroke-miterlimit: 10;fill:#E7E7E7;fill-opacity:1; fill-rule: nonzero; opacity: 1; white-space: pre" ><tspan x="-4.5" y="7.48" fill="rgba(231,231,231,1)"> </tspan></text></g><rect x="16" y="0" rx="0" ry="0" width="108" height="18" style="stroke: none; stroke-width: 0; stroke-dasharray: none; stroke-linecap: butt; stroke-linejoin: miter; stroke-miterlimit: 10;fill:#FFFFFF;fill-opacity:1; fill-opacity: 0.005; fill-rule: nonzero; opacity: 1" transform=" matrix(1 0 0 1 10 39) "/><path d="M -7.5 8.5 L 8.5 8.5 L 8.5 -7.5 L -7.5 -7.5 Z" style="stroke:#B6D2FF;stroke-opacity:1; stroke-width: 1; stroke-dasharray: none; stroke-linecap: butt; stroke-linejoin: miter; stroke-miterlimit: 10;fill:#B6D2FF;fill-opacity:1; fill-rule: nonzero; opacity: 1" transform=" matrix(1 0 0 1 18 75) " stroke-linecap="round" /><path d="M -5.5 -5.5 L 6.5 6.5" style="stroke:#FFFFFF;stroke-opacity:1; stroke-opacity: 0; stroke-width: 3; stroke-dasharray: none; stroke-linecap: butt; stroke-linejoin: miter; stroke-miterlimit: 10; fill: none; fill-rule: nonzero; opacity: 0" transform=" matrix(1 0 0 1 18 75) " stroke-linecap="round" /><path d="M -5.5 6.5 L 6.5 -5.5" style="stroke:#FFFFFF;stroke-opacity:1; stroke-opacity: 0; stroke-width: 3; stroke-dasharray: none; stroke-linecap: butt; stroke-linejoin: miter; stroke-miterlimit: 10; fill: none; fill-rule: nonzero; opacity: 0" transform=" matrix(1 0 0 1 18 75) " stroke-linecap="round" /><g transform=" matrix(1 0 0 1 31 74) "><text xml:space="preserve" font-family="Verdana" font-size="11" font-weight="normal" style="stroke: none; stroke-width: 1; stroke-dasharray: none; stroke-linecap: butt; stroke-linejoin: miter; stroke-miterlimit: 10;fill:#E7E7E7;fill-opacity:1; fill-rule: nonzero; opacity: 1; white-space: pre" ><tspan x="0.5" y="7.48" fill="rgba(231,231,231,1)">Trial #3</tspan></text></g><g transform=" matrix(1 0 0 1 134 74) "><text xml:space="preserve" font-family="Verdana" font-size="11" font-weight="normal" style="stroke: none; stroke-width: 1; stroke-dasharray: none; stroke-linecap: butt; stroke-linejoin: miter; stroke-miterlimit: 10;fill:#E7E7E7;fill-opacity:1; fill-rule: nonzero; opacity: 1; white-space: pre" ><tspan x="-4.5" y="7.48" fill="rgba(231,231,231,1)"> </tspan></text></g><rect x="16" y="0" rx="0" ry="0" width="108" height="18" style="stroke: none; stroke-width: 0; stroke-dasharray: none; stroke-linecap: butt; stroke-linejoin: miter; stroke-miterlimit: 10;fill:#FFFFFF;fill-opacity:1; fill-opacity: 0.005; fill-rule: nonzero; opacity: 1" transform=" matrix(1 0 0 1 10 67) "/></g></svg>
