<?xml version="1.0" encoding="UTF-8" standalone="no" ?><!DOCTYPE svg PUBLIC "-//W3C//DTD SVG 1.1//EN" "http://www.w3.org/Graphics/SVG/1.1/DTD/svg11.dtd"><svg xmlns="http://www.w3.org/2000/svg" xmlns:xlink="http://www.w3.org/1999/xlink" version="1.1" width="1056" height="500" viewBox="0 0 1056 500" xml:space="preserve"><desc>Created with Fabric.js 1.7.19</desc><defs></defs><rect x="0" y="0" width="1056" height="500" fill="#3f3f4f"></rect><g style="stroke: none; stroke-width: 1; stroke-dasharray: none; stroke-linecap: butt; stroke-linejoin: miter; stroke-miterlimit: 10; fill: none; fill-rule: nonzero; opacity: 1" transform="translate(0 0)" ><path d="M 0.5 0.5 L 1055.5 0.5 L 1055.5 499.5 L 0.5 499.5 Z" style="stroke:#000000;stroke-opacity:1; stroke-opacity: 0; stroke-width: 1; stroke-dasharray: none; stroke-linecap: butt; stroke-linejoin: miter; stroke-miterlimit: 10;fill:#282828;fill-opacity:1; fill-opacity: 0; fill-rule: nonzero; opacity: 1" transform="" stroke-linecap="round" /><path d="M 0.5 0.5 L 916.5 0.5 L 916.5 433.5 L 0.5 433.5 L 0.5 0.5 Z" style="stroke:#000000;stroke-opacity:1; stroke-opacity: 0; stroke-width: 1; stroke-dasharray: none; stroke-linecap: butt; stroke-linejoin: miter; stroke-miterlimit: 10;fill:#FFFFFF;fill-opacity:1; fill-opacity: 0; fill-rule: nonzero; opacity: 1" transform=" matrix(1 0 0 1 59 25) " stroke-linecap="round" /><path d="M 0.5 433.5 L 0.5 433.5 L 0.5 0.5" style="stroke:#FFFFFF;stroke-opacity:1; stroke-opacity: 0.1; stroke-width: 1; stroke-dasharray: 3 3; stroke-linecap: butt; stroke-linejoin: miter; stroke-miterlimit: 10; fill: none; fill-rule: nonzero; opacity: 1" transform=" matrix(1 0 0 1 59 25) " stroke-linecap="round" /><path d="M 92.5 433.5 L 92.5 433.5 L 92.5 0.5" style="stroke:#FFFFFF;stroke-opacity:1; stroke-opacity: 0.1; stroke-width: 1; stroke-dasharray: 3 3; stroke-linecap: butt; stroke-linejoin: miter; stroke-miterlimit: 10; fill: none; fill-rule: nonzero; opacity: 1" transform=" matrix(1 0 0 1 59 25) " stroke-linecap="round" /><path d="M 183.5 433.5 L 183.5 433.5 L 183.5 0.5" style="stroke:#FFFFFF;stroke-opacity:1; stroke-opacity: 0.1; stroke-width: 1; stroke-dasharray: 3 3; stroke-linecap: butt; stroke-linejoin: miter; stroke-miterlimit: 10; fill: none; fill-rule: nonzero; opacity: 1" transform=" matrix(1 0 0 1 59 25) " stroke-linecap="round" /><path d="M 275.5 433.5 L 275.5 433.5 L 275.5 0.5" style="stroke:#FFFFFF;stroke-opacity:1; stroke-opacity: 0.1; stroke-width: 1; stroke-dasharray: 3 3; stroke-linecap: butt; stroke-linejoin: miter; stroke-miterlimit: 10; fill: none; fill-rule: nonzero; opacity: 1" transform=" matrix(1 0 0 1 59 25) " stroke-linecap="round" /><path d="M 366.5 433.5 L 366.5 433.5 L 366.5 0.5" style="stroke:#FFFFFF;stroke-opacity:1; stroke-opacity: 0.1; stroke-width: 1; stroke-dasharray: 3 3; stroke-linecap: butt; stroke-linejoin: miter; stroke-miterlimit: 10; fill: none; fill-rule: nonzero; opacity: 1" transform=" matrix(1 0 0 1 59 25) " stroke-linecap="round" /><path d="M 458.5 433.5 L 458.5 433.5 L 458.5 0.5" style="stroke:#FFFFFF;stroke-opacity:1; stroke-opacity: 0.1; stroke-width: 1; stroke-dasharray: 3 3; stroke-linecap: butt; stroke-linejoin: miter; stroke-miterlimit: 10; fill: none; fill-rule: nonzero; opacity: 1" transform=" matrix(1 0 0 1 59 25) " stroke-linecap="round" /><path d="M 550.5 433.5 L 550.5 433.5 L 550.5 0.5" style="stroke:#FFFFFF;stroke-opacity:1; stroke-opacity: 0.1; stroke-width: 1; stroke-dasharray: 3 3; stroke-linecap: butt; stroke-linejoin: miter; stroke-miterlimit: 10; fill: none; fill-rule: nonzero; opacity: 1" transform=" matrix(1 0 0 1 59 25) " stroke-linecap="round" /><path d="M 641.5 433.5 L 641.5 433.5 L 641.5 0.5" style="stroke:#FFFFFF;stroke-opacity:1; stroke-opacity: 0.1; stroke-width: 1; stroke-dasharray: 3 3; stroke-linecap: butt; stroke-linejoin: miter; stroke-miterlimit: 10; fill: none; fill-rule: nonzero; opacity: 1" transform=" matrix(1 0 0 1 59 25) " stroke-linecap="round" /><path d="M 733.5 433.5 L 733.5 433.5 L 733.5 0.5" style="stroke:#FFFFFF;stroke-opacity:1; stroke-opacity: 0.1; stroke-width: 1; stroke-dasharray: 3 3; stroke-linecap: butt; stroke-linejoin: miter; stroke-miterlimit: 10; fill: none; fill-rule: nonzero; opacity: 1" transform=" matrix(1 0 0 1 59 25) " stroke-linecap="round" /><path d="M 824.5 433.5 L 824.5 433.5 L 824.5 0.5" style="stroke:#FFFFFF;stroke-opacity:1; stroke-opacity: 0.1; stroke-width: 1; stroke-dasharray: 3 3; stroke-linecap: butt; stroke-linejoin: miter; stroke-miterlimit: 10; fill: none; fill-rule: nonzero; opacity: 1" transform=" matrix(1 0 0 1 59 25) " stroke-linecap="round" /><path d="M 916.5 433.5 L 916.5 433.5 L 916.5 0.5" style="stroke:#FFFFFF;stroke-opacity:1; stroke-opacity: 0.1; stroke-width: 1; stroke-dasharray: 3 3; stroke-linecap: butt; stroke-linejoin: miter; stroke-miterlimit: 10; fill: none; fill-rule: nonzero; opacity: 1" transform=" matrix(1 0 0 1 59 25) " stroke-linecap="round" /><path d="M 0.5 433.5 L 6.5 433.5" style="stroke:#FFFFFF;stroke-opacity:1; stroke-opacity: 0.1; stroke-width: 1; stroke-dasharray: none; stroke-linecap: butt; stroke-linejoin: miter; stroke-miterlimit: 10; fill: none; fill-rule: nonzero; opacity: 1" transform=" matrix(1 0 0 1 53 25) " stroke-linecap="round" /><path d="M 0.5 433.5 L 0.5 433.5 L 916.5 433.5" style="stroke:#FFFFFF;stroke-opacity:1; stroke-opacity: 0.1; stroke-width: 1; stroke-dasharray: 3 3; stroke-linecap: butt; stroke-linejoin: miter; stroke-miterlimit: 10; fill: none; fill-rule: nonzero; opacity: 1" transform=" matrix(1 0 0 1 59 25) " stroke-linecap="round" /><path d="M 0.5 397.5 L 6.5 397.5" style="stroke:#FFFFFF;stroke-opacity:1; stroke-opacity: 0.1; stroke-width: 1; stroke-dasharray: none; stroke-linecap: butt; stroke-linejoin: miter; stroke-miterlimit: 10; fill: none; fill-rule: nonzero; opacity: 1" transform=" matrix(1 0 0 1 53 25) " stroke-linecap="round" /><path d="M 0.5 397.5 L 0.5 397.5 L 916.5 397.5" style="stroke:#FFFFFF;stroke-opacity:1; stroke-opacity: 0.1; stroke-width: 1; stroke-dasharray: 3 3; stroke-linecap: butt; stroke-linejoin: miter; stroke-miterlimit: 10; fill: none; fill-rule: nonzero; opacity: 1" transform=" matrix(1 0 0 1 59 25) " stroke-linecap="round" /><path d="M 0.5 361.5 L 6.5 361.5" style="stroke:#FFFFFF;stroke-opacity:1; stroke-opacity: 0.1; stroke-width: 1; stroke-dasharray: none; stroke-linecap: butt; stroke-linejoin: miter; stroke-miterlimit: 10; fill: none; fill-rule: nonzero; opacity: 1" transform=" matrix(1 0 0 1 53 25) " stroke-linecap="round" /><path d="M 0.5 361.5 L 0.5 361.5 L 916.5 361.5" style="stroke:#FFFFFF;stroke-opacity:1; stroke-opacity: 0.1; stroke-width: 1; stroke-dasharray: 3 3; stroke-linecap: butt; stroke-linejoin: miter; stroke-miterlimit: 10; fill: none; fill-rule: nonzero; opacity: 1" transform=" matrix(1 0 0 1 59 25) " stroke-linecap="round" /><path d="M 0.5 325.5 L 6.5 325.5" style="stroke:#FFFFFF;stroke-opacity:1; stroke-opacity: 0.1; stroke-width: 1; stroke-dasharray: none; stroke-linecap: butt; stroke-linejoin: miter; stroke-miterlimit: 10; fill: none; fill-rule: nonzero; opacity: 1" transform=" matrix(1 0 0 1 53 25) " stroke-linecap="round" /><path d="M 0.5 325.5 L 0.5 325.5 L 916.5 325.5" style="stroke:#FFFFFF;stroke-opacity:1; stroke-opacity: 0.1; stroke-width: 1; stroke-dasharray: 3 3; stroke-linecap: butt; stroke-linejoin: miter; stroke-miterlimit: 10; fill: none; fill-rule: nonzero; opacity: 1" transform=" matrix(1 0 0 1 59 25) " stroke-linecap="round" /><path d="M 0.5 289.5 L 6.5 289.5" style="stroke:#FFFFFF;stroke-opacity:1; stroke-opacity: 0.1; stroke-width: 1; stroke-dasharray: none; stroke-linecap: butt; stroke-linejoin: miter; stroke-miterlimit: 10; fill: none; fill-rule: nonzero; opacity: 1" transform=" matrix(1 0 0 1 53 25) " stroke-linecap="round" /><path d="M 0.5 289.5 L 0.5 289.5 L 916.5 289.5" style="stroke:#FFFFFF;stroke-opacity:1; stroke-opacity: 0.1; stroke-width: 1; stroke-dasharray: 3 3; stroke-linecap: butt; stroke-linejoin: miter; stroke-miterlimit: 10; fill: none; fill-rule: nonzero; opacity: 1" transform=" matrix(1 0 0 1 59 25) " stroke-linecap="round" /><path d="M 0.5 253.5 L 6.5 253.5" style="stroke:#FFFFFF;stroke-opacity:1; stroke-opacity: 0.1; stroke-width: 1; stroke-dasharray: none; stroke-linecap: butt; stroke-linejoin: miter; stroke-miterlimit: 10; fill: none; fill-rule: nonzero; opacity: 1" transform=" matrix(1 0 0 1 53 25) " stroke-linecap="round" /><path d="M 0.5 253.5 L 0.5 253.5 L 916.5 253.5" style="stroke:#FFFFFF;stroke-opacity:1; stroke-opacity: 0.1; stroke-width: 1; stroke-dasharray: 3 3; stroke-linecap: butt; stroke-linejoin: miter; stroke-miterlimit: 10; fill: none; fill-rule: nonzero; opacity: 1" transform=" matrix(1 0 0 1 59 25) " stroke-linecap="round" /><path d="M 0.5 217.5 L 6.5 217.5" style="stroke:#FFFFFF;stroke-opacity:1; stroke-opacity: 0.1; stroke-width: 1; stroke-dasharray: none; stroke-linecap: butt; stroke-linejoin: miter; stroke-miterlimit: 10; fill: none; fill-rule: nonzero; opacity: 1" transform=" matrix(1 0 0 1 53 25) " stroke-linecap="round" /><path d="M 0.5 217.5 L 0.5 217.5 L 916.5 217.5" style="stroke:#FFFFFF;stroke-opacity:1; stroke-opacity: 0.1; stroke-width: 1; stroke-dasharray: 3 3; stroke-linecap: butt; stroke-linejoin: miter; stroke-miterlimit: 10; fill: none; fill-rule: nonzero; opacity: 1" transform=" matrix(1 0 0 1 59 25) " stroke-linecap="round" /><path d="M 0.5 180.5 L 6.5 180.5" style="stroke:#FFFFFF;stroke-opacity:1; stroke-opacity: 0.1; stroke-width: 1; stroke-dasharray: none; stroke-linecap: butt; stroke-linejoin: miter; stroke-miterlimit: 10; fill: none; fill-rule: nonzero; opacity: 1" transform=" matrix(1 0 0 1 53 25) " stroke-linecap="round" /><path d="M 0.5 180.5 L 0.5 180.5 L 916.5 180.5" style="stroke:#FFFFFF;stroke-opacity:1; stroke-opacity: 0.1; stroke-width: 1; stroke-dasharray: 3 3; stroke-linecap: butt; stroke-linejoin: miter; stroke-miterlimit: 10; fill: none; fill-rule: nonzero; opacity: 1" transform=" matrix(1 0 0 1 59 25) " stroke-linecap="round" /><path d="M 0.5 144.5 L 6.5 144.5" style="stroke:#FFFFFF;stroke-opacity:1; stroke-opacity: 0.1; stroke-width: 1; stroke-dasharray: none; stroke-linecap: butt; stroke-linejoin: miter; stroke-miterlimit: 10; fill: none; fill-rule: nonzero; opacity: 1" transform=" matrix(1 0 0 1 53 25) " stroke-linecap="round" /><path d="M 0.5 144.5 L 0.5 144.5 L 916.5 144.5" style="stroke:#FFFFFF;stroke-opacity:1; stroke-opacity: 0.1; stroke-width: 1; stroke-dasharray: 3 3; stroke-linecap: butt; stroke-linejoin: miter; stroke-miterlimit: 10; fill: none; fill-rule: nonzero; opacity: 1" transform=" matrix(1 0 0 1 59 25) " stroke-linecap="round" /><path d="M 0.5 108.5 L 6.5 108.5" style="stroke:#FFFFFF;stroke-opacity:1; stroke-opacity: 0.1; stroke-width: 1; stroke-dasharray: none; stroke-linecap: butt; stroke-linejoin: miter; stroke-miterlimit: 10; fill: none; fill-rule: nonzero; opacity: 1" transform=" matrix(1 0 0 1 53 25) " stroke-linecap="round" /><path d="M 0.5 108.5 L 0.5 108.5 L 916.5 108.5" style="stroke:#FFFFFF;stroke-opacity:1; stroke-opacity: 0.1; stroke-width: 1; stroke-dasharray: 3 3; stroke-linecap: butt; stroke-linejoin: miter; stroke-miterlimit: 10; fill: none; fill-rule: nonzero; opacity: 1" transform=" matrix(1 0 0 1 59 25) " stroke-linecap="round" /><path d="M 0.5 72.5 L 6.5 72.5" style="stroke:#FFFFFF;stroke-opacity:1; stroke-opacity: 0.1; stroke-width: 1; stroke-dasharray: none; stroke-linecap: butt; stroke-linejoin: miter; stroke-miterlimit: 10; fill: none; fill-rule: nonzero; opacity: 1" transform=" matrix(1 0 0 1 53 25) " stroke-linecap="round" /><path d="M 0.5 72.5 L 0.5 72.5 L 916.5 72.5" style="stroke:#FFFFFF;stroke-opacity:1; stroke-opacity: 0.1; stroke-width: 1; stroke-dasharray: 3 3; stroke-linecap: butt; stroke-linejoin: miter; stroke-miterlimit: 10; fill: none; fill-rule: nonzero; opacity: 1" transform=" matrix(1 0 0 1 59 25) " stroke-linecap="round" /><path d="M 0.5 36.5 L 6.5 36.5" style="stroke:#FFFFFF;stroke-opacity:1; stroke-opacity: 0.1; stroke-width: 1; stroke-dasharray: none; stroke-linecap: butt; stroke-linejoin: miter; stroke-miterlimit: 10; fill: none; fill-rule: nonzero; opacity: 1" transform=" matrix(1 0 0 1 53 25) " stroke-linecap="round" /><path d="M 0.5 36.5 L 0.5 36.5 L 916.5 36.5" style="stroke:#FFFFFF;stroke-opacity:1; stroke-opacity: 0.1; stroke-width: 1; stroke-dasharray: 3 3; stroke-linecap: butt; stroke-linejoin: miter; stroke-miterlimit: 10; fill: none; fill-rule: nonzero; opacity: 1" transform=" matrix(1 0 0 1 59 25) " stroke-linecap="round" /><path d="M 0.5 0.5 L 6.5 0.5" style="stroke:#FFFFFF;stroke-opacity:1; stroke-opacity: 0.1; stroke-width: 1; stroke-dasharray: none; stroke-linecap: butt; stroke-linejoin: miter; stroke-miterlimit: 10; fill: none; fill-rule: nonzero; opacity: 1" transform=" matrix(1 0 0 1 53 25) " stroke-linecap="round" /><path d="M 0.5 0.5 L 0.5 0.5 L 916.5 0.5" style="stroke:#FFFFFF;stroke-opacity:1; stroke-opacity: 0.1; stroke-width: 1; stroke-dasharray: 3 3; stroke-linecap: butt; stroke-linejoin: miter; stroke-miterlimit: 10; fill: none; fill-rule: nonzero; opacity: 1" transform=" matrix(1 0 0 1 59 25) " stroke-linecap="round" /><path d="M -22.5 361.33333 L 23.5 397.41667 M 0 0 L 0 0" style="stroke:#67B7DC;stroke-opacity:1; stroke-opacity: 0.9; stroke-width: 2; stroke-dasharray: none; stroke-linecap: butt; stroke-linejoin: round; stroke-miterlimit: 10; fill: none; fill-rule: nonzero; opacity: 1" transform=" matrix(1 0 0 1 59 25) " stroke-linecap="round"  clip-path="url(#DSCEl-78)" /><path d="M 23.5 397.41667 L 69.5 332.46667 L 115.5 318.03333 M 0 0 L 0 0" style="stroke:#FDD400;stroke-opacity:1; stroke-opacity: 0.9; stroke-width: 2; stroke-dasharray: none; stroke-linecap: butt; stroke-linejoin: round; stroke-miterlimit: 10; fill: none; fill-rule: nonzero; opacity: 1" transform=" matrix(1 0 0 1 59 25) " stroke-linecap="round"  clip-path="url(#DSCEl-79)" /><path d="M 115.5 318.03333 L 160.5 339.68333 M 0 0 L 0 0" style="stroke:#67B7DC;stroke-opacity:1; stroke-opacity: 0.9; stroke-width: 2; stroke-dasharray: none; stroke-linecap: butt; stroke-linejoin: round; stroke-miterlimit: 10; fill: none; fill-rule: nonzero; opacity: 1" transform=" matrix(1 0 0 1 59 25) " stroke-linecap="round"  clip-path="url(#DSCEl-80)" /><path d="M 160.5 339.68333 L 206.5 267.51667 L 252.5 231.43333 L 298.5 188.13333 L 344.5 188.13333 L 389.5 144.83333 M 0 0 L 0 0" style="stroke:#FDD400;stroke-opacity:1; stroke-opacity: 0.9; stroke-width: 2; stroke-dasharray: none; stroke-linecap: butt; stroke-linejoin: round; stroke-miterlimit: 10; fill: none; fill-rule: nonzero; opacity: 1" transform=" matrix(1 0 0 1 59 25) " stroke-linecap="round"  clip-path="url(#DSCEl-81)" /><path d="M 389.5 144.83333 L 435.5 173.7 M 0 0 L 0 0" style="stroke:#67B7DC;stroke-opacity:1; stroke-opacity: 0.9; stroke-width: 2; stroke-dasharray: none; stroke-linecap: butt; stroke-linejoin: round; stroke-miterlimit: 10; fill: none; fill-rule: nonzero; opacity: 1" transform=" matrix(1 0 0 1 59 25) " stroke-linecap="round"  clip-path="url(#DSCEl-82)" /><path d="M 435.5 173.7 L 481.5 173.7 L 527.5 123.18333 L 573.5 65.45 L 618.5 14.93333 M 0 0 L 0 0" style="stroke:#FDD400;stroke-opacity:1; stroke-opacity: 0.9; stroke-width: 2; stroke-dasharray: none; stroke-linecap: butt; stroke-linejoin: round; stroke-miterlimit: 10; fill: none; fill-rule: nonzero; opacity: 1" transform=" matrix(1 0 0 1 59 25) " stroke-linecap="round"  clip-path="url(#DSCEl-83)" /><path d="M 618.5 14.93333 L 664.5 79.88333 M 0 0 L 0 0" style="stroke:#67B7DC;stroke-opacity:1; stroke-opacity: 0.9; stroke-width: 2; stroke-dasharray: none; stroke-linecap: butt; stroke-linejoin: round; stroke-miterlimit: 10; fill: none; fill-rule: nonzero; opacity: 1" transform=" matrix(1 0 0 1 59 25) " stroke-linecap="round"  clip-path="url(#DSCEl-84)" /><path d="M 664.5 79.88333 L 710.5 29.36667 L 756.5 22.15 M 0 0 L 0 0" style="stroke:#FDD400;stroke-opacity:1; stroke-opacity: 0.9; stroke-width: 2; stroke-dasharray: none; stroke-linecap: butt; stroke-linejoin: round; stroke-miterlimit: 10; fill: none; fill-rule: nonzero; opacity: 1" transform=" matrix(1 0 0 1 59 25) " stroke-linecap="round"  clip-path="url(#DSCEl-85)" /><path d="M 756.5 22.15 L 802.5 58.23333 L 847.5 123.18333 L 893.5 144.83333 M 0 0 L 0 0" style="stroke:#67B7DC;stroke-opacity:1; stroke-opacity: 0.9; stroke-width: 2; stroke-dasharray: none; stroke-linecap: butt; stroke-linejoin: round; stroke-miterlimit: 10; fill: none; fill-rule: nonzero; opacity: 1" transform=" matrix(1 0 0 1 59 25) " stroke-linecap="round"  clip-path="url(#DSCEl-86)" /><path d="M 0.5 0.5 L 916.5 0.5" style="stroke:#000000;stroke-opacity:1; stroke-opacity: 0; stroke-width: 1; stroke-dasharray: none; stroke-linecap: butt; stroke-linejoin: miter; stroke-miterlimit: 10; fill: none; fill-rule: nonzero; opacity: 1" transform=" matrix(1 0 0 1 0 5) " stroke-linecap="round" /><path d="M 0.5 0.5 L 916.5 0.5" style="stroke:#FFFFFF;stroke-opacity:1; stroke-opacity: 0; stroke-width: 1; stroke-dasharray: none; stroke-linecap: butt; stroke-linejoin: miter; stroke-miterlimit: 10; fill: none; fill-rule: nonzero; opacity: 1" transform=" matrix(1 0 0 1 59 458) " stroke-linecap="round" /><path d="M 0.5 0.5 L 0.5 433.5" style="stroke:#FFFFFF;stroke-opacity:1; stroke-opacity: 0.1; stroke-width: 1; stroke-dasharray: none; stroke-linecap: butt; stroke-linejoin: miter; stroke-miterlimit: 10; fill: none; fill-rule: nonzero; opacity: 1" transform=" matrix(1 0 0 1 59 25) " stroke-linecap="round" /><g  clip-path="url(#DSCEl-4)" ><path d="M 0.5 0.5 L 0.5 0.5 L 0.5 433.5" style="stroke:#FFFFFF;stroke-opacity:1; stroke-opacity: 0; stroke-width: 1; stroke-dasharray: none; stroke-linecap: butt; stroke-linejoin: miter; stroke-miterlimit: 10; fill: none; fill-rule: nonzero; opacity: 0" transform=" matrix(1 0 0 1 59 25) " stroke-linecap="round" /></g><g  clip-path="url(#DSCEl-4)" ><path d="M 0.5 0.5 L 916.5 0.5 L 916.5 0.5" style="stroke:#FFFFFF;stroke-opacity:1; stroke-opacity: 0; stroke-width: 1; stroke-dasharray: none; stroke-linecap: butt; stroke-linejoin: miter; stroke-miterlimit: 10; fill: none; fill-rule: nonzero; opacity: 0" transform=" matrix(1 0 0 1 59 25) " stroke-linecap="round" /></g><rect x="0.5" y="0.5" rx="0" ry="0" width="917" height="5" style="stroke:#868686;stroke-opacity:1; stroke-opacity: 0.1; stroke-width: 1; stroke-dasharray: none; stroke-linecap: butt; stroke-linejoin: miter; stroke-miterlimit: 10;fill:#868686;fill-opacity:1; fill-opacity: 0.1; fill-rule: nonzero; opacity: 1" transform=" matrix(1 0 0 1 59 20) "/><rect x="0.5" y="0.5" rx="0" ry="0" width="122" height="6" style="stroke:#67B7DC;stroke-opacity:1; stroke-width: 0; stroke-dasharray: none; stroke-linecap: butt; stroke-linejoin: miter; stroke-miterlimit: 10;fill:#67B7DC;fill-opacity:1; fill-rule: nonzero; opacity: 1" transform=" matrix(1 0 0 1 853 20) "/><rect x="0.5" y="0.5" rx="0" ry="0" width="917" height="5" style="stroke:#000000;stroke-opacity:1; stroke-opacity: 0.005; stroke-width: 0; stroke-dasharray: none; stroke-linecap: butt; stroke-linejoin: miter; stroke-miterlimit: 10;fill:#000000;fill-opacity:1; fill-opacity: 0.005; fill-rule: nonzero; opacity: 1" transform=" matrix(1 0 0 1 59 20) "/><rect x="794" y="0.5" rx="0" ry="0" width="122" height="5" style="stroke:#000000;stroke-opacity:1; stroke-opacity: 0.005; stroke-width: 0; stroke-dasharray: none; stroke-linecap: butt; stroke-linejoin: miter; stroke-miterlimit: 10;fill:#000000;fill-opacity:1; fill-opacity: 0.005; fill-rule: nonzero; opacity: 1" transform=" matrix(1 0 0 1 59 20) "/><g transform=" matrix(1 0 0 1 836 5) "><image xlink:href="https://www.DSC.com/lib/3/images/dragIconRoundBig.svg" x="0" y="0" style="stroke: none; stroke-width: 0; stroke-dasharray: none; stroke-linecap: butt; stroke-linejoin: miter; stroke-miterlimit: 10;fill:#000000;fill-opacity:1; fill-rule: nonzero; opacity: 1" width="35" height="35" preserveAspectRatio="none"></image></g><rect x="0.5" y="0.5" rx="0" ry="0" width="25" height="5" style="stroke:#000000;stroke-opacity:1; stroke-opacity: 0.005; stroke-width: 0; stroke-dasharray: none; stroke-linecap: butt; stroke-linejoin: miter; stroke-miterlimit: 10;fill:#000000;fill-opacity:1; fill-opacity: 0.005; fill-rule: nonzero; opacity: 1" transform=" matrix(1 0 0 1 841 20) "/><g transform=" matrix(1 0 0 1 958 5) "><image xlink:href="https://www.DSC.com/lib/3/images/dragIconRoundBig.svg" x="0" y="0" style="stroke: none; stroke-width: 0; stroke-dasharray: none; stroke-linecap: butt; stroke-linejoin: miter; stroke-miterlimit: 10;fill:#000000;fill-opacity:1; fill-rule: nonzero; opacity: 1" width="35" height="35" preserveAspectRatio="none"></image></g><rect x="0.5" y="0.5" rx="0" ry="0" width="25" height="5" style="stroke:#000000;stroke-opacity:1; stroke-opacity: 0.005; stroke-width: 0; stroke-dasharray: none; stroke-linecap: butt; stroke-linejoin: miter; stroke-miterlimit: 10;fill:#000000;fill-opacity:1; fill-opacity: 0.005; fill-rule: nonzero; opacity: 1" transform=" matrix(1 0 0 1 963 20) "/><circle cx="0" cy="0" r="4" style="stroke:#FFFFFF;stroke-opacity:1; stroke-width: 2; stroke-dasharray: none; stroke-linecap: butt; stroke-linejoin: miter; stroke-miterlimit: 10;fill:#67B7DC;fill-opacity:1; fill-rule: nonzero; opacity: 1" transform="  matrix(1 0 0 1 82 422) "/><circle cx="0" cy="0" r="4" style="stroke:#FFFFFF;stroke-opacity:1; stroke-width: 2; stroke-dasharray: none; stroke-linecap: butt; stroke-linejoin: miter; stroke-miterlimit: 10;fill:#FDD400;fill-opacity:1; fill-rule: nonzero; opacity: 1" transform="  matrix(1 0 0 1 128 357) "/><circle cx="0" cy="0" r="4" style="stroke:#FFFFFF;stroke-opacity:1; stroke-width: 2; stroke-dasharray: none; stroke-linecap: butt; stroke-linejoin: miter; stroke-miterlimit: 10;fill:#FDD400;fill-opacity:1; fill-rule: nonzero; opacity: 1" transform="  matrix(1 0 0 1 174 343) "/><circle cx="0" cy="0" r="4" style="stroke:#FFFFFF;stroke-opacity:1; stroke-width: 2; stroke-dasharray: none; stroke-linecap: butt; stroke-linejoin: miter; stroke-miterlimit: 10;fill:#67B7DC;fill-opacity:1; fill-rule: nonzero; opacity: 1" transform="  matrix(1 0 0 1 219 364) "/><circle cx="0" cy="0" r="4" style="stroke:#FFFFFF;stroke-opacity:1; stroke-width: 2; stroke-dasharray: none; stroke-linecap: butt; stroke-linejoin: miter; stroke-miterlimit: 10;fill:#FDD400;fill-opacity:1; fill-rule: nonzero; opacity: 1" transform="  matrix(1 0 0 1 265 292) "/><circle cx="0" cy="0" r="4" style="stroke:#FFFFFF;stroke-opacity:1; stroke-width: 2; stroke-dasharray: none; stroke-linecap: butt; stroke-linejoin: miter; stroke-miterlimit: 10;fill:#FDD400;fill-opacity:1; fill-rule: nonzero; opacity: 1" transform="  matrix(1 0 0 1 311 256) "/><circle cx="0" cy="0" r="4" style="stroke:#FFFFFF;stroke-opacity:1; stroke-width: 2; stroke-dasharray: none; stroke-linecap: butt; stroke-linejoin: miter; stroke-miterlimit: 10;fill:#FDD400;fill-opacity:1; fill-rule: nonzero; opacity: 1" transform="  matrix(1 0 0 1 357 213) "/><circle cx="0" cy="0" r="4" style="stroke:#FFFFFF;stroke-opacity:1; stroke-width: 2; stroke-dasharray: none; stroke-linecap: butt; stroke-linejoin: miter; stroke-miterlimit: 10;fill:#FDD400;fill-opacity:1; fill-rule: nonzero; opacity: 1" transform="  matrix(1 0 0 1 403 213) "/><circle cx="0" cy="0" r="4" style="stroke:#FFFFFF;stroke-opacity:1; stroke-width: 2; stroke-dasharray: none; stroke-linecap: butt; stroke-linejoin: miter; stroke-miterlimit: 10;fill:#FDD400;fill-opacity:1; fill-rule: nonzero; opacity: 1" transform="  matrix(1 0 0 1 448 169) "/><circle cx="0" cy="0" r="4" style="stroke:#FFFFFF;stroke-opacity:1; stroke-width: 2; stroke-dasharray: none; stroke-linecap: butt; stroke-linejoin: miter; stroke-miterlimit: 10;fill:#67B7DC;fill-opacity:1; fill-rule: nonzero; opacity: 1" transform="  matrix(1 0 0 1 494 198) "/><circle cx="0" cy="0" r="4" style="stroke:#FFFFFF;stroke-opacity:1; stroke-width: 2; stroke-dasharray: none; stroke-linecap: butt; stroke-linejoin: miter; stroke-miterlimit: 10;fill:#FDD400;fill-opacity:1; fill-rule: nonzero; opacity: 1" transform="  matrix(1 0 0 1 540 198) "/><circle cx="0" cy="0" r="4" style="stroke:#FFFFFF;stroke-opacity:1; stroke-width: 2; stroke-dasharray: none; stroke-linecap: butt; stroke-linejoin: miter; stroke-miterlimit: 10;fill:#FDD400;fill-opacity:1; fill-rule: nonzero; opacity: 1" transform="  matrix(1 0 0 1 586 148) "/><circle cx="0" cy="0" r="4" style="stroke:#FFFFFF;stroke-opacity:1; stroke-width: 2; stroke-dasharray: none; stroke-linecap: butt; stroke-linejoin: miter; stroke-miterlimit: 10;fill:#FDD400;fill-opacity:1; fill-rule: nonzero; opacity: 1" transform="  matrix(1 0 0 1 632 90) "/><circle cx="0" cy="0" r="4" style="stroke:#FFFFFF;stroke-opacity:1; stroke-width: 2; stroke-dasharray: none; stroke-linecap: butt; stroke-linejoin: miter; stroke-miterlimit: 10;fill:#FDD400;fill-opacity:1; fill-rule: nonzero; opacity: 1" transform="  matrix(1 0 0 1 677 39) "/><circle cx="0" cy="0" r="4" style="stroke:#FFFFFF;stroke-opacity:1; stroke-width: 2; stroke-dasharray: none; stroke-linecap: butt; stroke-linejoin: miter; stroke-miterlimit: 10;fill:#67B7DC;fill-opacity:1; fill-rule: nonzero; opacity: 1" transform="  matrix(1 0 0 1 723 104) "/><circle cx="0" cy="0" r="4" style="stroke:#FFFFFF;stroke-opacity:1; stroke-width: 2; stroke-dasharray: none; stroke-linecap: butt; stroke-linejoin: miter; stroke-miterlimit: 10;fill:#FDD400;fill-opacity:1; fill-rule: nonzero; opacity: 1" transform="  matrix(1 0 0 1 769 54) "/><circle cx="0" cy="0" r="4" style="stroke:#FFFFFF;stroke-opacity:1; stroke-width: 2; stroke-dasharray: none; stroke-linecap: butt; stroke-linejoin: miter; stroke-miterlimit: 10;fill:#FDD400;fill-opacity:1; fill-rule: nonzero; opacity: 1" transform="  matrix(1 0 0 1 815 47) "/><circle cx="0" cy="0" r="4" style="stroke:#FFFFFF;stroke-opacity:1; stroke-width: 2; stroke-dasharray: none; stroke-linecap: butt; stroke-linejoin: miter; stroke-miterlimit: 10;fill:#67B7DC;fill-opacity:1; fill-rule: nonzero; opacity: 1" transform="  matrix(1 0 0 1 861 83) "/><circle cx="0" cy="0" r="4" style="stroke:#FFFFFF;stroke-opacity:1; stroke-width: 2; stroke-dasharray: none; stroke-linecap: butt; stroke-linejoin: miter; stroke-miterlimit: 10;fill:#67B7DC;fill-opacity:1; fill-rule: nonzero; opacity: 1" transform="  matrix(1 0 0 1 906 148) "/><circle cx="0" cy="0" r="4" style="stroke:#FFFFFF;stroke-opacity:1; stroke-width: 2; stroke-dasharray: none; stroke-linecap: butt; stroke-linejoin: miter; stroke-miterlimit: 10;fill:#67B7DC;fill-opacity:1; fill-rule: nonzero; opacity: 1" transform="  matrix(1 0 0 1 952 169) "/><g transform=" matrix(1 0 0 1 62 470.5) "><text xml:space="preserve" font-family="Verdana" font-size="11" font-weight="bold" style="stroke: none; stroke-width: 1; stroke-dasharray: none; stroke-linecap: butt; stroke-linejoin: miter; stroke-miterlimit: 10;fill:#E7E7E7;fill-opacity:1; fill-rule: nonzero; opacity: 1; white-space: pre" ><tspan x="0" y="7.48" fill="rgba(231,231,231,1)">Nov</tspan></text></g><g transform=" matrix(1 0 0 1 154 470.5) "><text xml:space="preserve" font-family="Verdana" font-size="11" font-weight="normal" style="stroke: none; stroke-width: 1; stroke-dasharray: none; stroke-linecap: butt; stroke-linejoin: miter; stroke-miterlimit: 10;fill:#E7E7E7;fill-opacity:1; fill-rule: nonzero; opacity: 1; white-space: pre" ><tspan x="0" y="7.48" fill="rgba(231,231,231,1)">Nov 03</tspan></text></g><g transform=" matrix(1 0 0 1 245 470.5) "><text xml:space="preserve" font-family="Verdana" font-size="11" font-weight="normal" style="stroke: none; stroke-width: 1; stroke-dasharray: none; stroke-linecap: butt; stroke-linejoin: miter; stroke-miterlimit: 10;fill:#E7E7E7;fill-opacity:1; fill-rule: nonzero; opacity: 1; white-space: pre" ><tspan x="0" y="7.48" fill="rgba(231,231,231,1)">Nov 05</tspan></text></g><g transform=" matrix(1 0 0 1 337 470.5) "><text xml:space="preserve" font-family="Verdana" font-size="11" font-weight="normal" style="stroke: none; stroke-width: 1; stroke-dasharray: none; stroke-linecap: butt; stroke-linejoin: miter; stroke-miterlimit: 10;fill:#E7E7E7;fill-opacity:1; fill-rule: nonzero; opacity: 1; white-space: pre" ><tspan x="0" y="7.48" fill="rgba(231,231,231,1)">Nov 07</tspan></text></g><g transform=" matrix(1 0 0 1 428 470.5) "><text xml:space="preserve" font-family="Verdana" font-size="11" font-weight="normal" style="stroke: none; stroke-width: 1; stroke-dasharray: none; stroke-linecap: butt; stroke-linejoin: miter; stroke-miterlimit: 10;fill:#E7E7E7;fill-opacity:1; fill-rule: nonzero; opacity: 1; white-space: pre" ><tspan x="0" y="7.48" fill="rgba(231,231,231,1)">Nov 09</tspan></text></g><g transform=" matrix(1 0 0 1 520 470.5) "><text xml:space="preserve" font-family="Verdana" font-size="11" font-weight="normal" style="stroke: none; stroke-width: 1; stroke-dasharray: none; stroke-linecap: butt; stroke-linejoin: miter; stroke-miterlimit: 10;fill:#E7E7E7;fill-opacity:1; fill-rule: nonzero; opacity: 1; white-space: pre" ><tspan x="0" y="7.48" fill="rgba(231,231,231,1)">Nov 11</tspan></text></g><g transform=" matrix(1 0 0 1 612 470.5) "><text xml:space="preserve" font-family="Verdana" font-size="11" font-weight="normal" style="stroke: none; stroke-width: 1; stroke-dasharray: none; stroke-linecap: butt; stroke-linejoin: miter; stroke-miterlimit: 10;fill:#E7E7E7;fill-opacity:1; fill-rule: nonzero; opacity: 1; white-space: pre" ><tspan x="0" y="7.48" fill="rgba(231,231,231,1)">Nov 13</tspan></text></g><g transform=" matrix(1 0 0 1 703 470.5) "><text xml:space="preserve" font-family="Verdana" font-size="11" font-weight="normal" style="stroke: none; stroke-width: 1; stroke-dasharray: none; stroke-linecap: butt; stroke-linejoin: miter; stroke-miterlimit: 10;fill:#E7E7E7;fill-opacity:1; fill-rule: nonzero; opacity: 1; white-space: pre" ><tspan x="0" y="7.48" fill="rgba(231,231,231,1)">Nov 15</tspan></text></g><g transform=" matrix(1 0 0 1 795 470.5) "><text xml:space="preserve" font-family="Verdana" font-size="11" font-weight="normal" style="stroke: none; stroke-width: 1; stroke-dasharray: none; stroke-linecap: butt; stroke-linejoin: miter; stroke-miterlimit: 10;fill:#E7E7E7;fill-opacity:1; fill-rule: nonzero; opacity: 1; white-space: pre" ><tspan x="0" y="7.48" fill="rgba(231,231,231,1)">Nov 17</tspan></text></g><g transform=" matrix(1 0 0 1 886 470.5) "><text xml:space="preserve" font-family="Verdana" font-size="11" font-weight="normal" style="stroke: none; stroke-width: 1; stroke-dasharray: none; stroke-linecap: butt; stroke-linejoin: miter; stroke-miterlimit: 10;fill:#E7E7E7;fill-opacity:1; fill-rule: nonzero; opacity: 1; white-space: pre" ><tspan x="0" y="7.48" fill="rgba(231,231,231,1)">Nov 19</tspan></text></g><g transform=" matrix(1 0 0 1 47 456) "><text xml:space="preserve" font-family="Verdana" font-size="11" font-weight="normal" style="stroke: none; stroke-width: 1; stroke-dasharray: none; stroke-linecap: butt; stroke-linejoin: miter; stroke-miterlimit: 10;fill:#E7E7E7;fill-opacity:1; fill-rule: nonzero; opacity: 1; white-space: pre" ><tspan x="-22" y="7.48" fill="rgba(231,231,231,1)">605</tspan></text></g><g transform=" matrix(1 0 0 1 47 420) "><text xml:space="preserve" font-family="Verdana" font-size="11" font-weight="normal" style="stroke: none; stroke-width: 1; stroke-dasharray: none; stroke-linecap: butt; stroke-linejoin: miter; stroke-miterlimit: 10;fill:#E7E7E7;fill-opacity:1; fill-rule: nonzero; opacity: 1; white-space: pre" ><tspan x="-22" y="7.48" fill="rgba(231,231,231,1)">610</tspan></text></g><g transform=" matrix(1 0 0 1 47 384) "><text xml:space="preserve" font-family="Verdana" font-size="11" font-weight="normal" style="stroke: none; stroke-width: 1; stroke-dasharray: none; stroke-linecap: butt; stroke-linejoin: miter; stroke-miterlimit: 10;fill:#E7E7E7;fill-opacity:1; fill-rule: nonzero; opacity: 1; white-space: pre" ><tspan x="-22" y="7.48" fill="rgba(231,231,231,1)">615</tspan></text></g><g transform=" matrix(1 0 0 1 47 348) "><text xml:space="preserve" font-family="Verdana" font-size="11" font-weight="normal" style="stroke: none; stroke-width: 1; stroke-dasharray: none; stroke-linecap: butt; stroke-linejoin: miter; stroke-miterlimit: 10;fill:#E7E7E7;fill-opacity:1; fill-rule: nonzero; opacity: 1; white-space: pre" ><tspan x="-22" y="7.48" fill="rgba(231,231,231,1)">620</tspan></text></g><g transform=" matrix(1 0 0 1 47 312) "><text xml:space="preserve" font-family="Verdana" font-size="11" font-weight="normal" style="stroke: none; stroke-width: 1; stroke-dasharray: none; stroke-linecap: butt; stroke-linejoin: miter; stroke-miterlimit: 10;fill:#E7E7E7;fill-opacity:1; fill-rule: nonzero; opacity: 1; white-space: pre" ><tspan x="-22" y="7.48" fill="rgba(231,231,231,1)">625</tspan></text></g><g transform=" matrix(1 0 0 1 47 276) "><text xml:space="preserve" font-family="Verdana" font-size="11" font-weight="normal" style="stroke: none; stroke-width: 1; stroke-dasharray: none; stroke-linecap: butt; stroke-linejoin: miter; stroke-miterlimit: 10;fill:#E7E7E7;fill-opacity:1; fill-rule: nonzero; opacity: 1; white-space: pre" ><tspan x="-22" y="7.48" fill="rgba(231,231,231,1)">630</tspan></text></g><g transform=" matrix(1 0 0 1 47 240) "><text xml:space="preserve" font-family="Verdana" font-size="11" font-weight="normal" style="stroke: none; stroke-width: 1; stroke-dasharray: none; stroke-linecap: butt; stroke-linejoin: miter; stroke-miterlimit: 10;fill:#E7E7E7;fill-opacity:1; fill-rule: nonzero; opacity: 1; white-space: pre" ><tspan x="-22" y="7.48" fill="rgba(231,231,231,1)">635</tspan></text></g><g transform=" matrix(1 0 0 1 47 203) "><text xml:space="preserve" font-family="Verdana" font-size="11" font-weight="normal" style="stroke: none; stroke-width: 1; stroke-dasharray: none; stroke-linecap: butt; stroke-linejoin: miter; stroke-miterlimit: 10;fill:#E7E7E7;fill-opacity:1; fill-rule: nonzero; opacity: 1; white-space: pre" ><tspan x="-22" y="7.48" fill="rgba(231,231,231,1)">640</tspan></text></g><g transform=" matrix(1 0 0 1 47 167) "><text xml:space="preserve" font-family="Verdana" font-size="11" font-weight="normal" style="stroke: none; stroke-width: 1; stroke-dasharray: none; stroke-linecap: butt; stroke-linejoin: miter; stroke-miterlimit: 10;fill:#E7E7E7;fill-opacity:1; fill-rule: nonzero; opacity: 1; white-space: pre" ><tspan x="-22" y="7.48" fill="rgba(231,231,231,1)">645</tspan></text></g><g transform=" matrix(1 0 0 1 47 131) "><text xml:space="preserve" font-family="Verdana" font-size="11" font-weight="normal" style="stroke: none; stroke-width: 1; stroke-dasharray: none; stroke-linecap: butt; stroke-linejoin: miter; stroke-miterlimit: 10;fill:#E7E7E7;fill-opacity:1; fill-rule: nonzero; opacity: 1; white-space: pre" ><tspan x="-22" y="7.48" fill="rgba(231,231,231,1)">650</tspan></text></g><g transform=" matrix(1 0 0 1 47 95) "><text xml:space="preserve" font-family="Verdana" font-size="11" font-weight="normal" style="stroke: none; stroke-width: 1; stroke-dasharray: none; stroke-linecap: butt; stroke-linejoin: miter; stroke-miterlimit: 10;fill:#E7E7E7;fill-opacity:1; fill-rule: nonzero; opacity: 1; white-space: pre" ><tspan x="-22" y="7.48" fill="rgba(231,231,231,1)">655</tspan></text></g><g transform=" matrix(1 0 0 1 47 59) "><text xml:space="preserve" font-family="Verdana" font-size="11" font-weight="normal" style="stroke: none; stroke-width: 1; stroke-dasharray: none; stroke-linecap: butt; stroke-linejoin: miter; stroke-miterlimit: 10;fill:#E7E7E7;fill-opacity:1; fill-rule: nonzero; opacity: 1; white-space: pre" ><tspan x="-22" y="7.48" fill="rgba(231,231,231,1)">660</tspan></text></g><g transform=" matrix(1 0 0 1 47 23) "><text xml:space="preserve" font-family="Verdana" font-size="11" font-weight="normal" style="stroke: none; stroke-width: 1; stroke-dasharray: none; stroke-linecap: butt; stroke-linejoin: miter; stroke-miterlimit: 10;fill:#E7E7E7;fill-opacity:1; fill-rule: nonzero; opacity: 1; white-space: pre" ><tspan x="-22" y="7.48" fill="rgba(231,231,231,1)">665</tspan></text></g><rect x="0.5" y="0.5" rx="0" ry="0" width="95" height="33" style="stroke:#FFFFFF;stroke-opacity:1; stroke-width: 1; stroke-dasharray: none; stroke-linecap: butt; stroke-linejoin: miter; stroke-miterlimit: 10;fill:#FFFFFF;fill-opacity:1; fill-rule: nonzero; opacity: 0" transform=" matrix(1 0 0 1 881 25) "/><g transform=" matrix(1 0 0 1 889 33) "><image xlink:href="https://www.DSC.com/lib/3/images/lensWhite.svg" x="0" y="0" style="stroke: none; stroke-width: 0; stroke-dasharray: none; stroke-linecap: butt; stroke-linejoin: miter; stroke-miterlimit: 10;fill:#000000;fill-opacity:1; fill-rule: nonzero; opacity: 1" width="19" height="19" preserveAspectRatio="none"></image></g><g transform=" matrix(1 0 0 1 913 40) "><text xml:space="preserve" font-family="Verdana" font-size="11" font-weight="normal" style="stroke: none; stroke-width: 1; stroke-dasharray: none; stroke-linecap: butt; stroke-linejoin: miter; stroke-miterlimit: 10;fill:#E7E7E7;fill-opacity:1; fill-rule: nonzero; opacity: 1; white-space: pre" ><tspan x="0" y="7.48" fill="rgba(231,231,231,1)">Show all</tspan></text></g></g><clipPath xmlns="http://www.w3.org/2000/svg" id="DSCEl-78"><rect x="0" y="0" width="916" height="433" rx="0" ry="0" stroke-width="0" fill="none" fill-opacity="0"/></clipPath><clipPath xmlns="http://www.w3.org/2000/svg" id="DSCEl-79"><rect x="0" y="0" width="916" height="433" rx="0" ry="0" stroke-width="0" fill="none" fill-opacity="0"/></clipPath><clipPath xmlns="http://www.w3.org/2000/svg" id="DSCEl-80"><rect x="0" y="0" width="916" height="433" rx="0" ry="0" stroke-width="0" fill="none" fill-opacity="0"/></clipPath><clipPath xmlns="http://www.w3.org/2000/svg" id="DSCEl-81"><rect x="0" y="0" width="916" height="433" rx="0" ry="0" stroke-width="0" fill="none" fill-opacity="0"/></clipPath><clipPath xmlns="http://www.w3.org/2000/svg" id="DSCEl-82"><rect x="0" y="0" width="916" height="433" rx="0" ry="0" stroke-width="0" fill="none" fill-opacity="0"/></clipPath><clipPath xmlns="http://www.w3.org/2000/svg" id="DSCEl-83"><rect x="0" y="0" width="916" height="433" rx="0" ry="0" stroke-width="0" fill="none" fill-opacity="0"/></clipPath><clipPath xmlns="http://www.w3.org/2000/svg" id="DSCEl-84"><rect x="0" y="0" width="916" height="433" rx="0" ry="0" stroke-width="0" fill="none" fill-opacity="0"/></clipPath><clipPath xmlns="http://www.w3.org/2000/svg" id="DSCEl-85"><rect x="0" y="0" width="916" height="433" rx="0" ry="0" stroke-width="0" fill="none" fill-opacity="0"/></clipPath><clipPath xmlns="http://www.w3.org/2000/svg" id="DSCEl-86"><rect x="0" y="0" width="916" height="433" rx="0" ry="0" stroke-width="0" fill="none" fill-opacity="0"/></clipPath><clipPath xmlns="http://www.w3.org/2000/svg" id="DSCEl-4"><rect x="0" y="0" width="916" height="433" rx="0" ry="0" stroke-width="0" fill="none" fill-opacity="0"/></clipPath></svg>
