<?xml version="1.0" encoding="UTF-8" standalone="no" ?><!DOCTYPE svg PUBLIC "-//W3C//DTD SVG 1.1//EN" "http://www.w3.org/Graphics/SVG/1.1/DTD/svg11.dtd"><svg xmlns="http://www.w3.org/2000/svg" xmlns:xlink="http://www.w3.org/1999/xlink" version="1.1" width="1056" height="500" viewBox="0 0 1056 500" xml:space="preserve"><desc>Created with Fabric.js 1.7.19</desc><defs></defs><rect x="0" y="0" width="1056" height="500" fill="#3f3f4f"></rect><g style="stroke: none; stroke-width: 1; stroke-dasharray: none; stroke-linecap: butt; stroke-linejoin: miter; stroke-miterlimit: 10; fill: none; fill-rule: nonzero; opacity: 1" transform="translate(0 0)" ><path d="M 0.5 0.5 L 1055.5 0.5 L 1055.5 451.5 L 0.5 451.5 Z" style="stroke:#000000;stroke-opacity:1; stroke-opacity: 0; stroke-width: 1; stroke-dasharray: none; stroke-linecap: butt; stroke-linejoin: miter; stroke-miterlimit: 10;fill:#282828;fill-opacity:1; fill-opacity: 0; fill-rule: nonzero; opacity: 1" transform="" stroke-linecap="round" /><path d="M 0.5 0.5 L 974.5 0.5 L 974.5 395.5 L 0.5 395.5 L 0.5 0.5 Z" style="stroke:#000000;stroke-opacity:1; stroke-opacity: 0; stroke-width: 1; stroke-dasharray: none; stroke-linecap: butt; stroke-linejoin: miter; stroke-miterlimit: 10;fill:#FFFFFF;fill-opacity:1; fill-opacity: 0; fill-rule: nonzero; opacity: 1" transform=" matrix(1 0 0 1 61 20) " stroke-linecap="round" /><path d="M 0.5 395.5 L 0.5 395.5 L 0.5 0.5" style="stroke:#FFFFFF;stroke-opacity:1; stroke-opacity: 0.1; stroke-width: 1; stroke-dasharray: 3 3; stroke-linecap: butt; stroke-linejoin: miter; stroke-miterlimit: 10; fill: none; fill-rule: nonzero; opacity: 1" transform=" matrix(1 0 0 1 61 20) " stroke-linecap="round" /><path d="M 408.5 395.5 L 408.5 395.5 L 408.5 0.5" style="stroke:#FFFFFF;stroke-opacity:1; stroke-opacity: 0.1; stroke-width: 1; stroke-dasharray: 3 3; stroke-linecap: butt; stroke-linejoin: miter; stroke-miterlimit: 10; fill: none; fill-rule: nonzero; opacity: 1" transform=" matrix(1 0 0 1 61 20) " stroke-linecap="round" /><path d="M 724.5 395.5 L 724.5 395.5 L 724.5 0.5" style="stroke:#FFFFFF;stroke-opacity:1; stroke-opacity: 0.1; stroke-width: 1; stroke-dasharray: 3 3; stroke-linecap: butt; stroke-linejoin: miter; stroke-miterlimit: 10; fill: none; fill-rule: nonzero; opacity: 1" transform=" matrix(1 0 0 1 61 20) " stroke-linecap="round" /><path d="M 974.5 395.5 L 974.5 395.5 L 974.5 0.5" style="stroke:#FFFFFF;stroke-opacity:1; stroke-opacity: 0.1; stroke-width: 1; stroke-dasharray: 3 3; stroke-linecap: butt; stroke-linejoin: miter; stroke-miterlimit: 10; fill: none; fill-rule: nonzero; opacity: 1" transform=" matrix(1 0 0 1 61 20) " stroke-linecap="round" /><path d="M 0.5 395.5 L 0.5 395.5 L 974.5 395.5" style="stroke:#FFFFFF;stroke-opacity:1; stroke-opacity: 0.1; stroke-width: 1; stroke-dasharray: 3 3; stroke-linecap: butt; stroke-linejoin: miter; stroke-miterlimit: 10; fill: none; fill-rule: nonzero; opacity: 1" transform=" matrix(1 0 0 1 61 20) " stroke-linecap="round" /><path d="M 0.5 356.5 L 0.5 356.5 L 974.5 356.5" style="stroke:#FFFFFF;stroke-opacity:1; stroke-opacity: 0.1; stroke-width: 1; stroke-dasharray: 3 3; stroke-linecap: butt; stroke-linejoin: miter; stroke-miterlimit: 10; fill: none; fill-rule: nonzero; opacity: 1" transform=" matrix(1 0 0 1 61 20) " stroke-linecap="round" /><path d="M 0.5 316.5 L 0.5 316.5 L 974.5 316.5" style="stroke:#FFFFFF;stroke-opacity:1; stroke-opacity: 0.1; stroke-width: 1; stroke-dasharray: 3 3; stroke-linecap: butt; stroke-linejoin: miter; stroke-miterlimit: 10; fill: none; fill-rule: nonzero; opacity: 1" transform=" matrix(1 0 0 1 61 20) " stroke-linecap="round" /><path d="M 0.5 277.5 L 0.5 277.5 L 974.5 277.5" style="stroke:#FFFFFF;stroke-opacity:1; stroke-opacity: 0.1; stroke-width: 1; stroke-dasharray: 3 3; stroke-linecap: butt; stroke-linejoin: miter; stroke-miterlimit: 10; fill: none; fill-rule: nonzero; opacity: 1" transform=" matrix(1 0 0 1 61 20) " stroke-linecap="round" /><path d="M 0.5 237.5 L 0.5 237.5 L 974.5 237.5" style="stroke:#FFFFFF;stroke-opacity:1; stroke-opacity: 0.1; stroke-width: 1; stroke-dasharray: 3 3; stroke-linecap: butt; stroke-linejoin: miter; stroke-miterlimit: 10; fill: none; fill-rule: nonzero; opacity: 1" transform=" matrix(1 0 0 1 61 20) " stroke-linecap="round" /><path d="M 0.5 198.5 L 0.5 198.5 L 974.5 198.5" style="stroke:#FFFFFF;stroke-opacity:1; stroke-opacity: 0.1; stroke-width: 1; stroke-dasharray: 3 3; stroke-linecap: butt; stroke-linejoin: miter; stroke-miterlimit: 10; fill: none; fill-rule: nonzero; opacity: 1" transform=" matrix(1 0 0 1 61 20) " stroke-linecap="round" /><path d="M 0.5 158.5 L 0.5 158.5 L 974.5 158.5" style="stroke:#FFFFFF;stroke-opacity:1; stroke-opacity: 0.1; stroke-width: 1; stroke-dasharray: 3 3; stroke-linecap: butt; stroke-linejoin: miter; stroke-miterlimit: 10; fill: none; fill-rule: nonzero; opacity: 1" transform=" matrix(1 0 0 1 61 20) " stroke-linecap="round" /><path d="M 0.5 119.5 L 0.5 119.5 L 974.5 119.5" style="stroke:#FFFFFF;stroke-opacity:1; stroke-opacity: 0.1; stroke-width: 1; stroke-dasharray: 3 3; stroke-linecap: butt; stroke-linejoin: miter; stroke-miterlimit: 10; fill: none; fill-rule: nonzero; opacity: 1" transform=" matrix(1 0 0 1 61 20) " stroke-linecap="round" /><path d="M 0.5 79.5 L 0.5 79.5 L 974.5 79.5" style="stroke:#FFFFFF;stroke-opacity:1; stroke-opacity: 0.1; stroke-width: 1; stroke-dasharray: 3 3; stroke-linecap: butt; stroke-linejoin: miter; stroke-miterlimit: 10; fill: none; fill-rule: nonzero; opacity: 1" transform=" matrix(1 0 0 1 61 20) " stroke-linecap="round" /><path d="M 0.5 40.5 L 0.5 40.5 L 974.5 40.5" style="stroke:#FFFFFF;stroke-opacity:1; stroke-opacity: 0.1; stroke-width: 1; stroke-dasharray: 3 3; stroke-linecap: butt; stroke-linejoin: miter; stroke-miterlimit: 10; fill: none; fill-rule: nonzero; opacity: 1" transform=" matrix(1 0 0 1 61 20) " stroke-linecap="round" /><path d="M 0.5 0.5 L 0.5 0.5 L 974.5 0.5" style="stroke:#FFFFFF;stroke-opacity:1; stroke-opacity: 0.1; stroke-width: 1; stroke-dasharray: 3 3; stroke-linecap: butt; stroke-linejoin: miter; stroke-miterlimit: 10; fill: none; fill-rule: nonzero; opacity: 1" transform=" matrix(1 0 0 1 61 20) " stroke-linecap="round" /><path d="M 0.5 0.5 L 0.5 -50.5 L 408.5 -50.5 L 408.5 0.5 L 0.5 0.5 Z" style="stroke:#AE85C9;stroke-opacity:1; stroke-opacity: 0.9; stroke-width: 1; stroke-dasharray: none; stroke-linecap: butt; stroke-linejoin: miter; stroke-miterlimit: 10;fill:#AE85C9;fill-opacity:1; fill-rule: nonzero; opacity: 1" transform=" matrix(1 0 0 1 61 415) " stroke-linecap="round" /><path d="M 0.5 0.5 L 0.5 -147.5 L 316.5 -147.5 L 316.5 0.5 L 0.5 0.5 Z" style="stroke:#AE85C9;stroke-opacity:1; stroke-opacity: 0.9; stroke-width: 1; stroke-dasharray: none; stroke-linecap: butt; stroke-linejoin: miter; stroke-miterlimit: 10;fill:#AE85C9;fill-opacity:1; fill-rule: nonzero; opacity: 1" transform=" matrix(1 0 0 1 469 415) " stroke-linecap="round" /><path d="M 0.5 0.5 L 0.5 -61.5 L 250.5 -61.5 L 250.5 0.5 L 0.5 0.5 Z" style="stroke:#AE85C9;stroke-opacity:1; stroke-opacity: 0.9; stroke-width: 1; stroke-dasharray: none; stroke-linecap: butt; stroke-linejoin: miter; stroke-miterlimit: 10;fill:#AE85C9;fill-opacity:1; fill-rule: nonzero; opacity: 1" transform=" matrix(1 0 0 1 785 415) " stroke-linecap="round" /><path d="M 0.5 0.5 L 0.5 -228.5 L 408.5 -228.5 L 408.5 0.5 L 0.5 0.5 Z" style="stroke:#AAB9F7;stroke-opacity:1; stroke-opacity: 0.9; stroke-width: 1; stroke-dasharray: none; stroke-linecap: butt; stroke-linejoin: miter; stroke-miterlimit: 10;fill:#AAB9F7;fill-opacity:1; fill-rule: nonzero; opacity: 1" transform=" matrix(1 0 0 1 61 364) " stroke-linecap="round" /><path d="M 0.5 0.5 L 0.5 -65.5 L 316.5 -65.5 L 316.5 0.5 L 0.5 0.5 Z" style="stroke:#AAB9F7;stroke-opacity:1; stroke-opacity: 0.9; stroke-width: 1; stroke-dasharray: none; stroke-linecap: butt; stroke-linejoin: miter; stroke-miterlimit: 10;fill:#AAB9F7;fill-opacity:1; fill-rule: nonzero; opacity: 1" transform=" matrix(1 0 0 1 469 267) " stroke-linecap="round" /><path d="M 0.5 0.5 L 0.5 -103.5 L 250.5 -103.5 L 250.5 0.5 L 0.5 0.5 Z" style="stroke:#AAB9F7;stroke-opacity:1; stroke-opacity: 0.9; stroke-width: 1; stroke-dasharray: none; stroke-linecap: butt; stroke-linejoin: miter; stroke-miterlimit: 10;fill:#AAB9F7;fill-opacity:1; fill-rule: nonzero; opacity: 1" transform=" matrix(1 0 0 1 785 353) " stroke-linecap="round" /><path d="M 0.5 0.5 L 0.5 -114.5 L 408.5 -114.5 L 408.5 0.5 L 0.5 0.5 Z" style="stroke:#B6D2FF;stroke-opacity:1; stroke-opacity: 0.9; stroke-width: 1; stroke-dasharray: none; stroke-linecap: butt; stroke-linejoin: miter; stroke-miterlimit: 10;fill:#B6D2FF;fill-opacity:1; fill-rule: nonzero; opacity: 1" transform=" matrix(1 0 0 1 61 135) " stroke-linecap="round" /><path d="M 0.5 0.5 L 0.5 -180.5 L 316.5 -180.5 L 316.5 0.5 L 0.5 0.5 Z" style="stroke:#B6D2FF;stroke-opacity:1; stroke-opacity: 0.9; stroke-width: 1; stroke-dasharray: none; stroke-linecap: butt; stroke-linejoin: miter; stroke-miterlimit: 10;fill:#B6D2FF;fill-opacity:1; fill-rule: nonzero; opacity: 1" transform=" matrix(1 0 0 1 469 201) " stroke-linecap="round" /><path d="M 0.5 0.5 L 0.5 -228.5 L 250.5 -228.5 L 250.5 0.5 L 0.5 0.5 Z" style="stroke:#B6D2FF;stroke-opacity:1; stroke-opacity: 0.9; stroke-width: 1; stroke-dasharray: none; stroke-linecap: butt; stroke-linejoin: miter; stroke-miterlimit: 10;fill:#B6D2FF;fill-opacity:1; fill-rule: nonzero; opacity: 1" transform=" matrix(1 0 0 1 785 249) " stroke-linecap="round" /><path d="M 0.5 395.5 L 974.5 395.5 L 974.5 395.5" style="stroke:#FFFFFF;stroke-opacity:1; stroke-opacity: 0.2; stroke-width: 1; stroke-dasharray: 3 3; stroke-linecap: butt; stroke-linejoin: miter; stroke-miterlimit: 10; fill: none; fill-rule: nonzero; opacity: 1" transform=" matrix(1 0 0 1 61 20) " stroke-linecap="round" /><path d="M 0.5 0.5 L 974.5 0.5" style="stroke:#FFFFFF;stroke-opacity:1; stroke-opacity: 0; stroke-width: 1; stroke-dasharray: none; stroke-linecap: butt; stroke-linejoin: miter; stroke-miterlimit: 10; fill: none; fill-rule: nonzero; opacity: 1" transform=" matrix(1 0 0 1 61 415) " stroke-linecap="round" /><path d="M 0.5 0.5 L 0.5 395.5" style="stroke:#FFFFFF;stroke-opacity:1; stroke-opacity: 0; stroke-width: 1; stroke-dasharray: none; stroke-linecap: butt; stroke-linejoin: miter; stroke-miterlimit: 10; fill: none; fill-rule: nonzero; opacity: 1" transform=" matrix(1 0 0 1 61 20) " stroke-linecap="round" /><g transform=" matrix(1 0 0 1 265 389) "><text xml:space="preserve" font-family="Verdana" font-size="11" font-weight="normal" style="stroke: none; stroke-width: 1; stroke-dasharray: none; stroke-linecap: butt; stroke-linejoin: miter; stroke-miterlimit: 10;fill:#E7E7E7;fill-opacity:1; fill-rule: nonzero; opacity: 1; white-space: pre" ><tspan x="-20" y="7.48" fill="rgba(231,231,231,1)">40,000</tspan></text></g><g transform=" matrix(1 0 0 1 627 340) "><text xml:space="preserve" font-family="Verdana" font-size="11" font-weight="normal" style="stroke: none; stroke-width: 1; stroke-dasharray: none; stroke-linecap: butt; stroke-linejoin: miter; stroke-miterlimit: 10;fill:#E7E7E7;fill-opacity:1; fill-rule: nonzero; opacity: 1; white-space: pre" ><tspan x="-20" y="7.48" fill="rgba(231,231,231,1)">90,000</tspan></text></g><g transform=" matrix(1 0 0 1 910 383) "><text xml:space="preserve" font-family="Verdana" font-size="11" font-weight="normal" style="stroke: none; stroke-width: 1; stroke-dasharray: none; stroke-linecap: butt; stroke-linejoin: miter; stroke-miterlimit: 10;fill:#E7E7E7;fill-opacity:1; fill-rule: nonzero; opacity: 1; white-space: pre" ><tspan x="-20" y="7.48" fill="rgba(231,231,231,1)">30,000</tspan></text></g><g transform=" matrix(1 0 0 1 265 249) "><text xml:space="preserve" font-family="Verdana" font-size="11" font-weight="normal" style="stroke: none; stroke-width: 1; stroke-dasharray: none; stroke-linecap: butt; stroke-linejoin: miter; stroke-miterlimit: 10;fill:#E7E7E7;fill-opacity:1; fill-rule: nonzero; opacity: 1; white-space: pre" ><tspan x="-23.5" y="7.48" fill="rgba(231,231,231,1)">180,000</tspan></text></g><g transform=" matrix(1 0 0 1 627 234) "><text xml:space="preserve" font-family="Verdana" font-size="11" font-weight="normal" style="stroke: none; stroke-width: 1; stroke-dasharray: none; stroke-linecap: butt; stroke-linejoin: miter; stroke-miterlimit: 10;fill:#E7E7E7;fill-opacity:1; fill-rule: nonzero; opacity: 1; white-space: pre" ><tspan x="-20" y="7.48" fill="rgba(231,231,231,1)">40,000</tspan></text></g><g transform=" matrix(1 0 0 1 910 300) "><text xml:space="preserve" font-family="Verdana" font-size="11" font-weight="normal" style="stroke: none; stroke-width: 1; stroke-dasharray: none; stroke-linecap: butt; stroke-linejoin: miter; stroke-miterlimit: 10;fill:#E7E7E7;fill-opacity:1; fill-rule: nonzero; opacity: 1; white-space: pre" ><tspan x="-20" y="7.48" fill="rgba(231,231,231,1)">50,000</tspan></text></g><g transform=" matrix(1 0 0 1 265 77) "><text xml:space="preserve" font-family="Verdana" font-size="11" font-weight="normal" style="stroke: none; stroke-width: 1; stroke-dasharray: none; stroke-linecap: butt; stroke-linejoin: miter; stroke-miterlimit: 10;fill:#E7E7E7;fill-opacity:1; fill-rule: nonzero; opacity: 1; white-space: pre" ><tspan x="-20" y="7.48" fill="rgba(231,231,231,1)">90,000</tspan></text></g><g transform=" matrix(1 0 0 1 627 110) "><text xml:space="preserve" font-family="Verdana" font-size="11" font-weight="normal" style="stroke: none; stroke-width: 1; stroke-dasharray: none; stroke-linecap: butt; stroke-linejoin: miter; stroke-miterlimit: 10;fill:#E7E7E7;fill-opacity:1; fill-rule: nonzero; opacity: 1; white-space: pre" ><tspan x="-23.5" y="7.48" fill="rgba(231,231,231,1)">110,000</tspan></text></g><g transform=" matrix(1 0 0 1 910 134) "><text xml:space="preserve" font-family="Verdana" font-size="11" font-weight="normal" style="stroke: none; stroke-width: 1; stroke-dasharray: none; stroke-linecap: butt; stroke-linejoin: miter; stroke-miterlimit: 10;fill:#E7E7E7;fill-opacity:1; fill-rule: nonzero; opacity: 1; white-space: pre" ><tspan x="-23.5" y="7.48" fill="rgba(231,231,231,1)">110,000</tspan></text></g><g transform=" matrix(1 0 0 1 265.01351351351354 432.5) "><text xml:space="preserve" font-family="Verdana" font-size="11" font-weight="normal" style="stroke: none; stroke-width: 1; stroke-dasharray: none; stroke-linecap: butt; stroke-linejoin: miter; stroke-miterlimit: 10;fill:#E7E7E7;fill-opacity:1; fill-rule: nonzero; opacity: 1; white-space: pre" ><tspan x="-41.5" y="7.48" fill="rgba(231,231,231,1)">North America</tspan></text></g><g transform=" matrix(1 0 0 1 626.9459459459459 432.5) "><text xml:space="preserve" font-family="Verdana" font-size="11" font-weight="normal" style="stroke: none; stroke-width: 1; stroke-dasharray: none; stroke-linecap: butt; stroke-linejoin: miter; stroke-miterlimit: 10;fill:#E7E7E7;fill-opacity:1; fill-rule: nonzero; opacity: 1; white-space: pre" ><tspan x="-12.5" y="7.48" fill="rgba(231,231,231,1)">Asia</tspan></text></g><g transform=" matrix(1 0 0 1 910.0405405405405 432.5) "><text xml:space="preserve" font-family="Verdana" font-size="11" font-weight="normal" style="stroke: none; stroke-width: 1; stroke-dasharray: none; stroke-linecap: butt; stroke-linejoin: miter; stroke-miterlimit: 10;fill:#E7E7E7;fill-opacity:1; fill-rule: nonzero; opacity: 1; white-space: pre" ><tspan x="-20.5" y="7.48" fill="rgba(231,231,231,1)">Europe</tspan></text></g><g transform=" matrix(1 0 0 1 49 413) "><text xml:space="preserve" font-family="Verdana" font-size="11" font-weight="normal" style="stroke: none; stroke-width: 1; stroke-dasharray: none; stroke-linecap: butt; stroke-linejoin: miter; stroke-miterlimit: 10;fill:#E7E7E7;fill-opacity:1; fill-rule: nonzero; opacity: 1; white-space: pre" ><tspan x="-20" y="7.48" fill="rgba(231,231,231,1)">0%</tspan></text></g><g transform=" matrix(1 0 0 1 49 374) "><text xml:space="preserve" font-family="Verdana" font-size="11" font-weight="normal" style="stroke: none; stroke-width: 1; stroke-dasharray: none; stroke-linecap: butt; stroke-linejoin: miter; stroke-miterlimit: 10;fill:#E7E7E7;fill-opacity:1; fill-rule: nonzero; opacity: 1; white-space: pre" ><tspan x="-27" y="7.48" fill="rgba(231,231,231,1)">10%</tspan></text></g><g transform=" matrix(1 0 0 1 49 334) "><text xml:space="preserve" font-family="Verdana" font-size="11" font-weight="normal" style="stroke: none; stroke-width: 1; stroke-dasharray: none; stroke-linecap: butt; stroke-linejoin: miter; stroke-miterlimit: 10;fill:#E7E7E7;fill-opacity:1; fill-rule: nonzero; opacity: 1; white-space: pre" ><tspan x="-27" y="7.48" fill="rgba(231,231,231,1)">20%</tspan></text></g><g transform=" matrix(1 0 0 1 49 295) "><text xml:space="preserve" font-family="Verdana" font-size="11" font-weight="normal" style="stroke: none; stroke-width: 1; stroke-dasharray: none; stroke-linecap: butt; stroke-linejoin: miter; stroke-miterlimit: 10;fill:#E7E7E7;fill-opacity:1; fill-rule: nonzero; opacity: 1; white-space: pre" ><tspan x="-27" y="7.48" fill="rgba(231,231,231,1)">30%</tspan></text></g><g transform=" matrix(1 0 0 1 49 255) "><text xml:space="preserve" font-family="Verdana" font-size="11" font-weight="normal" style="stroke: none; stroke-width: 1; stroke-dasharray: none; stroke-linecap: butt; stroke-linejoin: miter; stroke-miterlimit: 10;fill:#E7E7E7;fill-opacity:1; fill-rule: nonzero; opacity: 1; white-space: pre" ><tspan x="-27" y="7.48" fill="rgba(231,231,231,1)">40%</tspan></text></g><g transform=" matrix(1 0 0 1 49 216) "><text xml:space="preserve" font-family="Verdana" font-size="11" font-weight="normal" style="stroke: none; stroke-width: 1; stroke-dasharray: none; stroke-linecap: butt; stroke-linejoin: miter; stroke-miterlimit: 10;fill:#E7E7E7;fill-opacity:1; fill-rule: nonzero; opacity: 1; white-space: pre" ><tspan x="-27" y="7.48" fill="rgba(231,231,231,1)">50%</tspan></text></g><g transform=" matrix(1 0 0 1 49 176) "><text xml:space="preserve" font-family="Verdana" font-size="11" font-weight="normal" style="stroke: none; stroke-width: 1; stroke-dasharray: none; stroke-linecap: butt; stroke-linejoin: miter; stroke-miterlimit: 10;fill:#E7E7E7;fill-opacity:1; fill-rule: nonzero; opacity: 1; white-space: pre" ><tspan x="-27" y="7.48" fill="rgba(231,231,231,1)">60%</tspan></text></g><g transform=" matrix(1 0 0 1 49 137) "><text xml:space="preserve" font-family="Verdana" font-size="11" font-weight="normal" style="stroke: none; stroke-width: 1; stroke-dasharray: none; stroke-linecap: butt; stroke-linejoin: miter; stroke-miterlimit: 10;fill:#E7E7E7;fill-opacity:1; fill-rule: nonzero; opacity: 1; white-space: pre" ><tspan x="-27" y="7.48" fill="rgba(231,231,231,1)">70%</tspan></text></g><g transform=" matrix(1 0 0 1 49 97) "><text xml:space="preserve" font-family="Verdana" font-size="11" font-weight="normal" style="stroke: none; stroke-width: 1; stroke-dasharray: none; stroke-linecap: butt; stroke-linejoin: miter; stroke-miterlimit: 10;fill:#E7E7E7;fill-opacity:1; fill-rule: nonzero; opacity: 1; white-space: pre" ><tspan x="-27" y="7.48" fill="rgba(231,231,231,1)">80%</tspan></text></g><g transform=" matrix(1 0 0 1 49 58) "><text xml:space="preserve" font-family="Verdana" font-size="11" font-weight="normal" style="stroke: none; stroke-width: 1; stroke-dasharray: none; stroke-linecap: butt; stroke-linejoin: miter; stroke-miterlimit: 10;fill:#E7E7E7;fill-opacity:1; fill-rule: nonzero; opacity: 1; white-space: pre" ><tspan x="-27" y="7.48" fill="rgba(231,231,231,1)">90%</tspan></text></g><g transform=" matrix(1 0 0 1 49 18) "><text xml:space="preserve" font-family="Verdana" font-size="11" font-weight="normal" style="stroke: none; stroke-width: 1; stroke-dasharray: none; stroke-linecap: butt; stroke-linejoin: miter; stroke-miterlimit: 10;fill:#E7E7E7;fill-opacity:1; fill-rule: nonzero; opacity: 1; white-space: pre" ><tspan x="-34" y="7.48" fill="rgba(231,231,231,1)">100%</tspan></text></g></g><g style="stroke: none; stroke-width: 1; stroke-dasharray: none; stroke-linecap: butt; stroke-linejoin: miter; stroke-miterlimit: 10; fill: none; fill-rule: nonzero; opacity: 1" transform="translate(0 452)" ><path d="M 0.5 0.5 L 974.5 0.5 L 974.5 37.5 L 0.5 37.5 Z" style="stroke:#000000;stroke-opacity:1; stroke-opacity: 0; stroke-width: 1; stroke-dasharray: none; stroke-linecap: butt; stroke-linejoin: miter; stroke-miterlimit: 10;fill:#FFFFFF;fill-opacity:1; fill-opacity: 0; fill-rule: nonzero; opacity: 1" transform=" matrix(1 0 0 1 61 0) " stroke-linecap="round" /><path d="M -7.5 8.5 L 8.5 8.5 L 8.5 -7.5 L -7.5 -7.5 Z" style="stroke:#AE85C9;stroke-opacity:1; stroke-width: 1; stroke-dasharray: none; stroke-linecap: butt; stroke-linejoin: miter; stroke-miterlimit: 10;fill:#AE85C9;fill-opacity:1; fill-rule: nonzero; opacity: 1" transform=" matrix(1 0 0 1 69 19) " stroke-linecap="round" /><path d="M -5.5 -5.5 L 6.5 6.5" style="stroke:#FFFFFF;stroke-opacity:1; stroke-opacity: 0; stroke-width: 3; stroke-dasharray: none; stroke-linecap: butt; stroke-linejoin: miter; stroke-miterlimit: 10; fill: none; fill-rule: nonzero; opacity: 0" transform=" matrix(1 0 0 1 69 19) " stroke-linecap="round" /><path d="M -5.5 6.5 L 6.5 -5.5" style="stroke:#FFFFFF;stroke-opacity:1; stroke-opacity: 0; stroke-width: 3; stroke-dasharray: none; stroke-linecap: butt; stroke-linejoin: miter; stroke-miterlimit: 10; fill: none; fill-rule: nonzero; opacity: 0" transform=" matrix(1 0 0 1 69 19) " stroke-linecap="round" /><g transform=" matrix(1 0 0 1 82 18) "><text xml:space="preserve" font-family="Verdana" font-size="11" font-weight="normal" style="stroke: none; stroke-width: 1; stroke-dasharray: none; stroke-linecap: butt; stroke-linejoin: miter; stroke-miterlimit: 10;fill:#E7E7E7;fill-opacity:1; fill-rule: nonzero; opacity: 1; white-space: pre" ><tspan x="0.5" y="7.48" fill="rgba(231,231,231,1)">Trucks</tspan></text></g><g transform=" matrix(1 0 0 1 178 18) "><text xml:space="preserve" font-family="Verdana" font-size="11" font-weight="normal" style="stroke: none; stroke-width: 1; stroke-dasharray: none; stroke-linecap: butt; stroke-linejoin: miter; stroke-miterlimit: 10;fill:#E7E7E7;fill-opacity:1; fill-rule: nonzero; opacity: 1; white-space: pre" ><tspan x="-4.5" y="7.48" fill="rgba(231,231,231,1)"> </tspan></text></g><rect x="16" y="0" rx="0" ry="0" width="101" height="18" style="stroke: none; stroke-width: 0; stroke-dasharray: none; stroke-linecap: butt; stroke-linejoin: miter; stroke-miterlimit: 10;fill:#FFFFFF;fill-opacity:1; fill-opacity: 0.005; fill-rule: nonzero; opacity: 1" transform=" matrix(1 0 0 1 61 11) "/><path d="M -7.5 8.5 L 8.5 8.5 L 8.5 -7.5 L -7.5 -7.5 Z" style="stroke:#AAB9F7;stroke-opacity:1; stroke-width: 1; stroke-dasharray: none; stroke-linecap: butt; stroke-linejoin: miter; stroke-miterlimit: 10;fill:#AAB9F7;fill-opacity:1; fill-rule: nonzero; opacity: 1" transform=" matrix(1 0 0 1 203 19) " stroke-linecap="round" /><path d="M -5.5 -5.5 L 6.5 6.5" style="stroke:#FFFFFF;stroke-opacity:1; stroke-opacity: 0; stroke-width: 3; stroke-dasharray: none; stroke-linecap: butt; stroke-linejoin: miter; stroke-miterlimit: 10; fill: none; fill-rule: nonzero; opacity: 0" transform=" matrix(1 0 0 1 203 19) " stroke-linecap="round" /><path d="M -5.5 6.5 L 6.5 -5.5" style="stroke:#FFFFFF;stroke-opacity:1; stroke-opacity: 0; stroke-width: 3; stroke-dasharray: none; stroke-linecap: butt; stroke-linejoin: miter; stroke-miterlimit: 10; fill: none; fill-rule: nonzero; opacity: 0" transform=" matrix(1 0 0 1 203 19) " stroke-linecap="round" /><g transform=" matrix(1 0 0 1 216 18) "><text xml:space="preserve" font-family="Verdana" font-size="11" font-weight="normal" style="stroke: none; stroke-width: 1; stroke-dasharray: none; stroke-linecap: butt; stroke-linejoin: miter; stroke-miterlimit: 10;fill:#E7E7E7;fill-opacity:1; fill-rule: nonzero; opacity: 1; white-space: pre" ><tspan x="0.5" y="7.48" fill="rgba(231,231,231,1)">SUVs</tspan></text></g><g transform=" matrix(1 0 0 1 312 18) "><text xml:space="preserve" font-family="Verdana" font-size="11" font-weight="normal" style="stroke: none; stroke-width: 1; stroke-dasharray: none; stroke-linecap: butt; stroke-linejoin: miter; stroke-miterlimit: 10;fill:#E7E7E7;fill-opacity:1; fill-rule: nonzero; opacity: 1; white-space: pre" ><tspan x="-4.5" y="7.48" fill="rgba(231,231,231,1)"> </tspan></text></g><rect x="16" y="0" rx="0" ry="0" width="101" height="18" style="stroke: none; stroke-width: 0; stroke-dasharray: none; stroke-linecap: butt; stroke-linejoin: miter; stroke-miterlimit: 10;fill:#FFFFFF;fill-opacity:1; fill-opacity: 0.005; fill-rule: nonzero; opacity: 1" transform=" matrix(1 0 0 1 195 11) "/><path d="M -7.5 8.5 L 8.5 8.5 L 8.5 -7.5 L -7.5 -7.5 Z" style="stroke:#B6D2FF;stroke-opacity:1; stroke-width: 1; stroke-dasharray: none; stroke-linecap: butt; stroke-linejoin: miter; stroke-miterlimit: 10;fill:#B6D2FF;fill-opacity:1; fill-rule: nonzero; opacity: 1" transform=" matrix(1 0 0 1 336 19) " stroke-linecap="round" /><path d="M -5.5 -5.5 L 6.5 6.5" style="stroke:#FFFFFF;stroke-opacity:1; stroke-opacity: 0; stroke-width: 3; stroke-dasharray: none; stroke-linecap: butt; stroke-linejoin: miter; stroke-miterlimit: 10; fill: none; fill-rule: nonzero; opacity: 0" transform=" matrix(1 0 0 1 336 19) " stroke-linecap="round" /><path d="M -5.5 6.5 L 6.5 -5.5" style="stroke:#FFFFFF;stroke-opacity:1; stroke-opacity: 0; stroke-width: 3; stroke-dasharray: none; stroke-linecap: butt; stroke-linejoin: miter; stroke-miterlimit: 10; fill: none; fill-rule: nonzero; opacity: 0" transform=" matrix(1 0 0 1 336 19) " stroke-linecap="round" /><g transform=" matrix(1 0 0 1 349 18) "><text xml:space="preserve" font-family="Verdana" font-size="11" font-weight="normal" style="stroke: none; stroke-width: 1; stroke-dasharray: none; stroke-linecap: butt; stroke-linejoin: miter; stroke-miterlimit: 10;fill:#E7E7E7;fill-opacity:1; fill-rule: nonzero; opacity: 1; white-space: pre" ><tspan x="0.5" y="7.48" fill="rgba(231,231,231,1)">Cars</tspan></text></g><g transform=" matrix(1 0 0 1 445 18) "><text xml:space="preserve" font-family="Verdana" font-size="11" font-weight="normal" style="stroke: none; stroke-width: 1; stroke-dasharray: none; stroke-linecap: butt; stroke-linejoin: miter; stroke-miterlimit: 10;fill:#E7E7E7;fill-opacity:1; fill-rule: nonzero; opacity: 1; white-space: pre" ><tspan x="-4.5" y="7.48" fill="rgba(231,231,231,1)"> </tspan></text></g><rect x="16" y="0" rx="0" ry="0" width="101" height="18" style="stroke: none; stroke-width: 0; stroke-dasharray: none; stroke-linecap: butt; stroke-linejoin: miter; stroke-miterlimit: 10;fill:#FFFFFF;fill-opacity:1; fill-opacity: 0.005; fill-rule: nonzero; opacity: 1" transform=" matrix(1 0 0 1 328 11) "/></g></svg>
