<?xml version="1.0" encoding="UTF-8" standalone="no" ?><!DOCTYPE svg PUBLIC "-//W3C//DTD SVG 1.1//EN" "http://www.w3.org/Graphics/SVG/1.1/DTD/svg11.dtd"><svg xmlns="http://www.w3.org/2000/svg" xmlns:xlink="http://www.w3.org/1999/xlink" version="1.1" width="1056" height="500" viewBox="0 0 1056 500" xml:space="preserve"><desc>Created with Fabric.js 1.7.19</desc><defs></defs><rect x="0" y="0" width="1056" height="500" fill="#FFFFFF"></rect><g style="stroke: none; stroke-width: 1; stroke-dasharray: none; stroke-linecap: butt; stroke-linejoin: miter; stroke-miterlimit: 10; fill: none; fill-rule: nonzero; opacity: 1" transform="translate(0 0)" ><path d="M 0.5 0.5 L 1055.5 0.5 L 1055.5 499.5 L 0.5 499.5 Z" style="stroke:#000000;stroke-opacity:1; stroke-opacity: 0; stroke-width: 1; stroke-dasharray: none; stroke-linecap: butt; stroke-linejoin: miter; stroke-miterlimit: 10;fill:#FFFFFF;fill-opacity:1; fill-opacity: 0; fill-rule: nonzero; opacity: 1" transform="" stroke-linecap="round" /><path d="M 0.5 0.5 L 913.5 0.5 L 913.5 428.5 L 0.5 428.5 L 0.5 0.5 Z" style="stroke:#000000;stroke-opacity:1; stroke-opacity: 0; stroke-width: 1; stroke-dasharray: none; stroke-linecap: butt; stroke-linejoin: miter; stroke-miterlimit: 10;fill:#FFFFFF;fill-opacity:1; fill-opacity: 0; fill-rule: nonzero; opacity: 1" transform=" matrix(1 0 0 1 42 40) " stroke-linecap="round" /><path d="M 0.5 428.5 L 0.5 428.5 L 913.5 428.5" style="stroke:#000000;stroke-opacity:1; stroke-opacity: 0.1; stroke-width: 1; stroke-dasharray: none; stroke-linecap: butt; stroke-linejoin: miter; stroke-miterlimit: 10; fill: none; fill-rule: nonzero; opacity: 1" transform=" matrix(1 0 0 1 42 40) " stroke-linecap="round" /><path d="M 0.5 385.5 L 0.5 385.5 L 913.5 385.5" style="stroke:#000000;stroke-opacity:1; stroke-opacity: 0.1; stroke-width: 1; stroke-dasharray: none; stroke-linecap: butt; stroke-linejoin: miter; stroke-miterlimit: 10; fill: none; fill-rule: nonzero; opacity: 1" transform=" matrix(1 0 0 1 42 40) " stroke-linecap="round" /><path d="M 0.5 342.5 L 0.5 342.5 L 913.5 342.5" style="stroke:#000000;stroke-opacity:1; stroke-opacity: 0.1; stroke-width: 1; stroke-dasharray: none; stroke-linecap: butt; stroke-linejoin: miter; stroke-miterlimit: 10; fill: none; fill-rule: nonzero; opacity: 1" transform=" matrix(1 0 0 1 42 40) " stroke-linecap="round" /><path d="M 0.5 300.5 L 0.5 300.5 L 913.5 300.5" style="stroke:#000000;stroke-opacity:1; stroke-opacity: 0.1; stroke-width: 1; stroke-dasharray: none; stroke-linecap: butt; stroke-linejoin: miter; stroke-miterlimit: 10; fill: none; fill-rule: nonzero; opacity: 1" transform=" matrix(1 0 0 1 42 40) " stroke-linecap="round" /><path d="M 0.5 257.5 L 0.5 257.5 L 913.5 257.5" style="stroke:#000000;stroke-opacity:1; stroke-opacity: 0.1; stroke-width: 1; stroke-dasharray: none; stroke-linecap: butt; stroke-linejoin: miter; stroke-miterlimit: 10; fill: none; fill-rule: nonzero; opacity: 1" transform=" matrix(1 0 0 1 42 40) " stroke-linecap="round" /><path d="M 0.5 214.5 L 0.5 214.5 L 913.5 214.5" style="stroke:#000000;stroke-opacity:1; stroke-opacity: 0.1; stroke-width: 1; stroke-dasharray: none; stroke-linecap: butt; stroke-linejoin: miter; stroke-miterlimit: 10; fill: none; fill-rule: nonzero; opacity: 1" transform=" matrix(1 0 0 1 42 40) " stroke-linecap="round" /><path d="M 0.5 171.5 L 0.5 171.5 L 913.5 171.5" style="stroke:#000000;stroke-opacity:1; stroke-opacity: 0.1; stroke-width: 1; stroke-dasharray: none; stroke-linecap: butt; stroke-linejoin: miter; stroke-miterlimit: 10; fill: none; fill-rule: nonzero; opacity: 1" transform=" matrix(1 0 0 1 42 40) " stroke-linecap="round" /><path d="M 0.5 128.5 L 0.5 128.5 L 913.5 128.5" style="stroke:#000000;stroke-opacity:1; stroke-opacity: 0.1; stroke-width: 1; stroke-dasharray: none; stroke-linecap: butt; stroke-linejoin: miter; stroke-miterlimit: 10; fill: none; fill-rule: nonzero; opacity: 1" transform=" matrix(1 0 0 1 42 40) " stroke-linecap="round" /><path d="M 0.5 86.5 L 0.5 86.5 L 913.5 86.5" style="stroke:#000000;stroke-opacity:1; stroke-opacity: 0.1; stroke-width: 1; stroke-dasharray: none; stroke-linecap: butt; stroke-linejoin: miter; stroke-miterlimit: 10; fill: none; fill-rule: nonzero; opacity: 1" transform=" matrix(1 0 0 1 42 40) " stroke-linecap="round" /><path d="M 0.5 43.5 L 0.5 43.5 L 913.5 43.5" style="stroke:#000000;stroke-opacity:1; stroke-opacity: 0.1; stroke-width: 1; stroke-dasharray: none; stroke-linecap: butt; stroke-linejoin: miter; stroke-miterlimit: 10; fill: none; fill-rule: nonzero; opacity: 1" transform=" matrix(1 0 0 1 42 40) " stroke-linecap="round" /><path d="M 0.5 0.5 L 0.5 0.5 L 913.5 0.5" style="stroke:#000000;stroke-opacity:1; stroke-opacity: 0.1; stroke-width: 1; stroke-dasharray: none; stroke-linecap: butt; stroke-linejoin: miter; stroke-miterlimit: 10; fill: none; fill-rule: nonzero; opacity: 1" transform=" matrix(1 0 0 1 42 40) " stroke-linecap="round" /><path d="M 0.5 428.5 L 0.5 428.5 L 0.5 0.5" style="stroke:#000000;stroke-opacity:1; stroke-opacity: 0.1; stroke-width: 1; stroke-dasharray: none; stroke-linecap: butt; stroke-linejoin: miter; stroke-miterlimit: 10; fill: none; fill-rule: nonzero; opacity: 1" transform=" matrix(1 0 0 1 42 40) " stroke-linecap="round" /><path d="M 140.5 428.5 L 140.5 428.5 L 140.5 0.5" style="stroke:#000000;stroke-opacity:1; stroke-opacity: 0.1; stroke-width: 1; stroke-dasharray: none; stroke-linecap: butt; stroke-linejoin: miter; stroke-miterlimit: 10; fill: none; fill-rule: nonzero; opacity: 1" transform=" matrix(1 0 0 1 42 40) " stroke-linecap="round" /><path d="M 281.5 428.5 L 281.5 428.5 L 281.5 0.5" style="stroke:#000000;stroke-opacity:1; stroke-opacity: 0.1; stroke-width: 1; stroke-dasharray: none; stroke-linecap: butt; stroke-linejoin: miter; stroke-miterlimit: 10; fill: none; fill-rule: nonzero; opacity: 1" transform=" matrix(1 0 0 1 42 40) " stroke-linecap="round" /><path d="M 421.5 428.5 L 421.5 428.5 L 421.5 0.5" style="stroke:#000000;stroke-opacity:1; stroke-opacity: 0.1; stroke-width: 1; stroke-dasharray: none; stroke-linecap: butt; stroke-linejoin: miter; stroke-miterlimit: 10; fill: none; fill-rule: nonzero; opacity: 1" transform=" matrix(1 0 0 1 42 40) " stroke-linecap="round" /><path d="M 562.5 428.5 L 562.5 428.5 L 562.5 0.5" style="stroke:#000000;stroke-opacity:1; stroke-opacity: 0.1; stroke-width: 1; stroke-dasharray: none; stroke-linecap: butt; stroke-linejoin: miter; stroke-miterlimit: 10; fill: none; fill-rule: nonzero; opacity: 1" transform=" matrix(1 0 0 1 42 40) " stroke-linecap="round" /><path d="M 702.5 428.5 L 702.5 428.5 L 702.5 0.5" style="stroke:#000000;stroke-opacity:1; stroke-opacity: 0.1; stroke-width: 1; stroke-dasharray: none; stroke-linecap: butt; stroke-linejoin: miter; stroke-miterlimit: 10; fill: none; fill-rule: nonzero; opacity: 1" transform=" matrix(1 0 0 1 42 40) " stroke-linecap="round" /><path d="M 843.5 428.5 L 843.5 428.5 L 843.5 0.5" style="stroke:#000000;stroke-opacity:1; stroke-opacity: 0.1; stroke-width: 1; stroke-dasharray: none; stroke-linecap: butt; stroke-linejoin: miter; stroke-miterlimit: 10; fill: none; fill-rule: nonzero; opacity: 1" transform=" matrix(1 0 0 1 42 40) " stroke-linecap="round" /><g  clip-path="url(#DSCEl-8)" ><path d="M 70.73077 289.4 L 140.96154 165.28 L 211.19231 165.28 L 281.42308 368.58 L 351.65385 353.6 L 421.88462 319.36 L 492.11538 285.12 L 562.34615 257.3 L 632.57692 238.04 L 702.80769 220.92 L 773.03846 205.94 L 843.26923 392.12 M 0 0 L 0 0" style="stroke:#B0DE09;stroke-opacity:1; stroke-opacity: 0; stroke-width: 1; stroke-dasharray: none; stroke-linecap: butt; stroke-linejoin: round; stroke-miterlimit: 10; fill: none; fill-rule: nonzero; opacity: 1" transform=" matrix(1 0 0 1 42 40) " stroke-linecap="round" /></g><g  clip-path="url(#DSCEl-8)" ><path d="M 70.73077 381.42 L 140.96154 323.64 L 211.19231 319.36 L 281.42308 143.88 L 351.65385 297.96 L 421.88462 250.88 L 492.11538 203.8 L 562.34615 165.28 L 632.57692 332.2 L 702.80769 107.5 L 773.03846 197.38 L 843.26923 21.9 M 0 0 L 0 0" style="stroke:#FCD202;stroke-opacity:1; stroke-opacity: 0; stroke-width: 1; stroke-dasharray: none; stroke-linecap: butt; stroke-linejoin: round; stroke-miterlimit: 10; fill: none; fill-rule: nonzero; opacity: 1" transform=" matrix(1 0 0 1 42 40) " stroke-linecap="round" /></g><path d="M 0.5 428.5 L 913.5 428.5 L 913.5 428.5" style="stroke:#000000;stroke-opacity:1; stroke-opacity: 0.2; stroke-width: 1; stroke-dasharray: none; stroke-linecap: butt; stroke-linejoin: miter; stroke-miterlimit: 10; fill: none; fill-rule: nonzero; opacity: 1" transform=" matrix(1 0 0 1 42 40) " stroke-linecap="round" /><path d="M 0.5 0.5 L 0.5 428.5" style="stroke:#000000;stroke-opacity:1; stroke-opacity: 0; stroke-width: 1; stroke-dasharray: none; stroke-linecap: butt; stroke-linejoin: miter; stroke-miterlimit: 10; fill: none; fill-rule: nonzero; opacity: 1" transform=" matrix(1 0 0 1 42 40) " stroke-linecap="round" /><path d="M 0.5 0.5 L 913.5 0.5" style="stroke:#000000;stroke-opacity:1; stroke-opacity: 0; stroke-width: 1; stroke-dasharray: none; stroke-linecap: butt; stroke-linejoin: miter; stroke-miterlimit: 10; fill: none; fill-rule: nonzero; opacity: 1" transform=" matrix(1 0 0 1 42 468) " stroke-linecap="round" /><path d="M 0.5 0.5 L 913.5 0.5" style="stroke:#000000;stroke-opacity:1; stroke-opacity: 0; stroke-width: 1; stroke-dasharray: none; stroke-linecap: butt; stroke-linejoin: miter; stroke-miterlimit: 10; fill: none; fill-rule: nonzero; opacity: 1" transform=" matrix(1 0 0 1 0 5) " stroke-linecap="round" /><path d="M 0.5 0.5 L 0.5 429.5" style="stroke:#000000;stroke-opacity:1; stroke-opacity: 0; stroke-width: 1; stroke-dasharray: none; stroke-linecap: butt; stroke-linejoin: miter; stroke-miterlimit: 10; fill: none; fill-rule: nonzero; opacity: 1" transform=" matrix(1 0 0 1 0 0) " stroke-linecap="round" /><g  clip-path="url(#DSCEl-4)" ><path d="M 0.5 0.5 L 0.5 0.5 L 0.5 428.5" style="stroke:#000000;stroke-opacity:1; stroke-opacity: 0; stroke-width: 1; stroke-dasharray: none; stroke-linecap: butt; stroke-linejoin: miter; stroke-miterlimit: 10; fill: none; fill-rule: nonzero; opacity: 0" transform=" matrix(1 0 0 1 953 40) " stroke-linecap="round" /></g><g  clip-path="url(#DSCEl-4)" ><path d="M 0.5 0.5 L 913.5 0.5 L 913.5 0.5" style="stroke:#000000;stroke-opacity:1; stroke-opacity: 0; stroke-width: 1; stroke-dasharray: none; stroke-linecap: butt; stroke-linejoin: miter; stroke-miterlimit: 10; fill: none; fill-rule: nonzero; opacity: 0" transform=" matrix(1 0 0 1 42 98) " stroke-linecap="round" /></g><rect x="0.5" y="0.5" rx="0" ry="0" width="914" height="5" style="stroke:#000000;stroke-opacity:1; stroke-opacity: 0.12; stroke-width: 1; stroke-dasharray: none; stroke-linecap: butt; stroke-linejoin: miter; stroke-miterlimit: 10;fill:#000000;fill-opacity:1; fill-opacity: 0.12; fill-rule: nonzero; opacity: 1" transform=" matrix(1 0 0 1 42 20) "/><rect x="0.5" y="0.5" rx="0" ry="0" width="734" height="6" style="stroke:#FFFFFF;stroke-opacity:1; stroke-opacity: 0.4; stroke-width: 0; stroke-dasharray: none; stroke-linecap: butt; stroke-linejoin: miter; stroke-miterlimit: 10;fill:#FFFFFF;fill-opacity:1; fill-opacity: 0.4; fill-rule: nonzero; opacity: 1" transform=" matrix(1 0 0 1 150 20) "/><rect x="0.5" y="0.5" rx="0" ry="0" width="914" height="5" style="stroke:#000000;stroke-opacity:1; stroke-opacity: 0.005; stroke-width: 0; stroke-dasharray: none; stroke-linecap: butt; stroke-linejoin: miter; stroke-miterlimit: 10;fill:#000000;fill-opacity:1; fill-opacity: 0.005; fill-rule: nonzero; opacity: 1" transform=" matrix(1 0 0 1 42 20) "/><rect x="108" y="0.5" rx="0" ry="0" width="734" height="5" style="stroke:#000000;stroke-opacity:1; stroke-opacity: 0.005; stroke-width: 0; stroke-dasharray: none; stroke-linecap: butt; stroke-linejoin: miter; stroke-miterlimit: 10;fill:#000000;fill-opacity:1; fill-opacity: 0.005; fill-rule: nonzero; opacity: 1" transform=" matrix(1 0 0 1 42 20) "/><g transform=" matrix(1 0 0 1 133 5) "><image xlink:href="https://www.DSC.com/lib/3/images/dragIconRoundBig.svg" x="0" y="0" style="stroke: none; stroke-width: 0; stroke-dasharray: none; stroke-linecap: butt; stroke-linejoin: miter; stroke-miterlimit: 10;fill:#000000;fill-opacity:1; fill-rule: nonzero; opacity: 1" width="35" height="35" preserveAspectRatio="none"></image></g><rect x="0.5" y="0.5" rx="0" ry="0" width="25" height="5" style="stroke:#000000;stroke-opacity:1; stroke-opacity: 0.005; stroke-width: 0; stroke-dasharray: none; stroke-linecap: butt; stroke-linejoin: miter; stroke-miterlimit: 10;fill:#000000;fill-opacity:1; fill-opacity: 0.005; fill-rule: nonzero; opacity: 1" transform=" matrix(1 0 0 1 138 20) "/><g transform=" matrix(1 0 0 1 867 5) "><image xlink:href="https://www.DSC.com/lib/3/images/dragIconRoundBig.svg" x="0" y="0" style="stroke: none; stroke-width: 0; stroke-dasharray: none; stroke-linecap: butt; stroke-linejoin: miter; stroke-miterlimit: 10;fill:#000000;fill-opacity:1; fill-rule: nonzero; opacity: 1" width="35" height="35" preserveAspectRatio="none"></image></g><rect x="0.5" y="0.5" rx="0" ry="0" width="25" height="5" style="stroke:#000000;stroke-opacity:1; stroke-opacity: 0.005; stroke-width: 0; stroke-dasharray: none; stroke-linecap: butt; stroke-linejoin: miter; stroke-miterlimit: 10;fill:#000000;fill-opacity:1; fill-opacity: 0.005; fill-rule: nonzero; opacity: 1" transform=" matrix(1 0 0 1 872 20) "/><rect x="0.5" y="0.5" rx="0" ry="0" width="5" height="429" style="stroke:#000000;stroke-opacity:1; stroke-opacity: 0.12; stroke-width: 1; stroke-dasharray: none; stroke-linecap: butt; stroke-linejoin: miter; stroke-miterlimit: 10;fill:#000000;fill-opacity:1; fill-opacity: 0.12; fill-rule: nonzero; opacity: 1" transform=" matrix(1 0 0 1 971 40) "/><rect x="0.5" y="0.5" rx="0" ry="0" width="6" height="429" style="stroke:#FFFFFF;stroke-opacity:1; stroke-opacity: 0.4; stroke-width: 0; stroke-dasharray: none; stroke-linecap: butt; stroke-linejoin: miter; stroke-miterlimit: 10;fill:#FFFFFF;fill-opacity:1; fill-opacity: 0.4; fill-rule: nonzero; opacity: 1" transform=" matrix(1 0 0 1 971 40) "/><rect x="0.5" y="0.5" rx="0" ry="0" width="5" height="429" style="stroke:#000000;stroke-opacity:1; stroke-opacity: 0.005; stroke-width: 0; stroke-dasharray: none; stroke-linecap: butt; stroke-linejoin: miter; stroke-miterlimit: 10;fill:#000000;fill-opacity:1; fill-opacity: 0.005; fill-rule: nonzero; opacity: 1" transform=" matrix(1 0 0 1 971 40) "/><rect x="0.5" y="0" rx="0" ry="0" width="5" height="429" style="stroke:#000000;stroke-opacity:1; stroke-opacity: 0.005; stroke-width: 0; stroke-dasharray: none; stroke-linecap: butt; stroke-linejoin: miter; stroke-miterlimit: 10;fill:#000000;fill-opacity:1; fill-opacity: 0.005; fill-rule: nonzero; opacity: 1" transform=" matrix(1 0 0 1 971 40) "/><g transform=" matrix(1 0 0 1 956 23) "><image xlink:href="https://www.DSC.com/lib/3/images/dragIconRoundBigH.svg" x="0" y="0" style="stroke: none; stroke-width: 0; stroke-dasharray: none; stroke-linecap: butt; stroke-linejoin: miter; stroke-miterlimit: 10;fill:#000000;fill-opacity:1; fill-rule: nonzero; opacity: 1" width="35" height="35" preserveAspectRatio="none"></image></g><rect x="0.5" y="0.5" rx="0" ry="0" width="25" height="5" style="stroke:#000000;stroke-opacity:1; stroke-opacity: 0.005; stroke-width: 0; stroke-dasharray: none; stroke-linecap: butt; stroke-linejoin: miter; stroke-miterlimit: 10;fill:#000000;fill-opacity:1; fill-opacity: 0.005; fill-rule: nonzero; opacity: 1" transform=" matrix(1 0 0 1 961 38) "/><g transform=" matrix(1 0 0 1 956 452) "><image xlink:href="https://www.DSC.com/lib/3/images/dragIconRoundBigH.svg" x="0" y="0" style="stroke: none; stroke-width: 0; stroke-dasharray: none; stroke-linecap: butt; stroke-linejoin: miter; stroke-miterlimit: 10;fill:#000000;fill-opacity:1; fill-rule: nonzero; opacity: 1" width="35" height="35" preserveAspectRatio="none"></image></g><rect x="0.5" y="0.5" rx="0" ry="0" width="25" height="5" style="stroke:#000000;stroke-opacity:1; stroke-opacity: 0.005; stroke-width: 0; stroke-dasharray: none; stroke-linecap: butt; stroke-linejoin: miter; stroke-miterlimit: 10;fill:#000000;fill-opacity:1; fill-opacity: 0.005; fill-rule: nonzero; opacity: 1" transform=" matrix(1 0 0 1 961 467) "/><g  clip-path="url(#DSCEl-9)" ><path d="M -21.5 0.5 L 0.5 -21.5 L 22.5 0.5 L 0.5 22.5 Z" style="stroke:#B0DE09;stroke-opacity:1; stroke-opacity: 0; stroke-width: 2; stroke-dasharray: none; stroke-linecap: butt; stroke-linejoin: miter; stroke-miterlimit: 10;fill:#B0DE09;fill-opacity:1; fill-rule: nonzero; opacity: 1" transform=" matrix(1 0 0 1 112 329) " stroke-linecap="round" /></g><g  clip-path="url(#DSCEl-9)" ><path d="M -11.5 0.5 L 0.5 -11.5 L 12.5 0.5 L 0.5 12.5 Z" style="stroke:#B0DE09;stroke-opacity:1; stroke-opacity: 0; stroke-width: 2; stroke-dasharray: none; stroke-linecap: butt; stroke-linejoin: miter; stroke-miterlimit: 10;fill:#B0DE09;fill-opacity:1; fill-rule: nonzero; opacity: 1" transform=" matrix(1 0 0 1 182 205) " stroke-linecap="round" /></g><g  clip-path="url(#DSCEl-9)" ><path d="M -23.5 0.5 L 0.5 -23.5 L 24.5 0.5 L 0.5 24.5 Z" style="stroke:#B0DE09;stroke-opacity:1; stroke-opacity: 0; stroke-width: 2; stroke-dasharray: none; stroke-linecap: butt; stroke-linejoin: miter; stroke-miterlimit: 10;fill:#B0DE09;fill-opacity:1; fill-rule: nonzero; opacity: 1" transform=" matrix(1 0 0 1 253 205) " stroke-linecap="round" /></g><g  clip-path="url(#DSCEl-9)" ><path d="M -12.5 0.5 L 0.5 -12.5 L 14.5 0.5 L 0.5 14.5 Z" style="stroke:#B0DE09;stroke-opacity:1; stroke-opacity: 0; stroke-width: 2; stroke-dasharray: none; stroke-linecap: butt; stroke-linejoin: miter; stroke-miterlimit: 10;fill:#B0DE09;fill-opacity:1; fill-rule: nonzero; opacity: 1" transform=" matrix(1 0 0 1 323 408) " stroke-linecap="round" /></g><g  clip-path="url(#DSCEl-9)" ><path d="M -7.5 0.5 L 0.5 -7.5 L 8.5 0.5 L 0.5 8.5 Z" style="stroke:#B0DE09;stroke-opacity:1; stroke-opacity: 0; stroke-width: 2; stroke-dasharray: none; stroke-linecap: butt; stroke-linejoin: miter; stroke-miterlimit: 10;fill:#B0DE09;fill-opacity:1; fill-rule: nonzero; opacity: 1" transform=" matrix(1 0 0 1 393 393) " stroke-linecap="round" /></g><g  clip-path="url(#DSCEl-9)" ><path d="M -14.5 0.5 L 0.5 -14.5 L 15.5 0.5 L 0.5 15.5 Z" style="stroke:#B0DE09;stroke-opacity:1; stroke-opacity: 0; stroke-width: 2; stroke-dasharray: none; stroke-linecap: butt; stroke-linejoin: miter; stroke-miterlimit: 10;fill:#B0DE09;fill-opacity:1; fill-rule: nonzero; opacity: 1" transform=" matrix(1 0 0 1 463 359) " stroke-linecap="round" /></g><g  clip-path="url(#DSCEl-9)" ><path d="M -4.5 0.5 L 0.5 -4.5 L 5.5 0.5 L 0.5 5.5 Z" style="stroke:#B0DE09;stroke-opacity:1; stroke-opacity: 0; stroke-width: 2; stroke-dasharray: none; stroke-linecap: butt; stroke-linejoin: miter; stroke-miterlimit: 10;fill:#B0DE09;fill-opacity:1; fill-rule: nonzero; opacity: 1" transform=" matrix(1 0 0 1 534 325) " stroke-linecap="round" /></g><g  clip-path="url(#DSCEl-9)" ><path d="M -7.5 0.5 L 0.5 -7.5 L 8.5 0.5 L 0.5 8.5 Z" style="stroke:#B0DE09;stroke-opacity:1; stroke-opacity: 0; stroke-width: 2; stroke-dasharray: none; stroke-linecap: butt; stroke-linejoin: miter; stroke-miterlimit: 10;fill:#B0DE09;fill-opacity:1; fill-rule: nonzero; opacity: 1" transform=" matrix(1 0 0 1 604 297) " stroke-linecap="round" /></g><g  clip-path="url(#DSCEl-9)" ><path d="M -11.5 0.5 L 0.5 -11.5 L 12.5 0.5 L 0.5 12.5 Z" style="stroke:#B0DE09;stroke-opacity:1; stroke-opacity: 0; stroke-width: 2; stroke-dasharray: none; stroke-linecap: butt; stroke-linejoin: miter; stroke-miterlimit: 10;fill:#B0DE09;fill-opacity:1; fill-rule: nonzero; opacity: 1" transform=" matrix(1 0 0 1 674 278) " stroke-linecap="round" /></g><g  clip-path="url(#DSCEl-9)" ><path d="M -21.5 0.5 L 0.5 -21.5 L 22.5 0.5 L 0.5 22.5 Z" style="stroke:#B0DE09;stroke-opacity:1; stroke-opacity: 0; stroke-width: 2; stroke-dasharray: none; stroke-linecap: butt; stroke-linejoin: miter; stroke-miterlimit: 10;fill:#B0DE09;fill-opacity:1; fill-rule: nonzero; opacity: 1" transform=" matrix(1 0 0 1 744 260) " stroke-linecap="round" /></g><g  clip-path="url(#DSCEl-9)" ><path d="M -1.5 0.5 L 0.5 -1.5 L 2.5 0.5 L 0.5 2.5 Z" style="stroke:#B0DE09;stroke-opacity:1; stroke-opacity: 0; stroke-width: 2; stroke-dasharray: none; stroke-linecap: butt; stroke-linejoin: miter; stroke-miterlimit: 10;fill:#B0DE09;fill-opacity:1; fill-rule: nonzero; opacity: 1" transform=" matrix(1 0 0 1 815 245) " stroke-linecap="round" /></g><g  clip-path="url(#DSCEl-9)" ><path d="M -17.5 0.5 L 0.5 -17.5 L 18.5 0.5 L 0.5 18.5 Z" style="stroke:#B0DE09;stroke-opacity:1; stroke-opacity: 0; stroke-width: 2; stroke-dasharray: none; stroke-linecap: butt; stroke-linejoin: miter; stroke-miterlimit: 10;fill:#B0DE09;fill-opacity:1; fill-rule: nonzero; opacity: 1" transform=" matrix(1 0 0 1 885 432) " stroke-linecap="round" /></g><g  clip-path="url(#DSCEl-9)" ><circle cx="0" cy="0" r="14.9375" style="stroke:#FCD202;stroke-opacity:1; stroke-opacity: 0; stroke-width: 2; stroke-dasharray: none; stroke-linecap: butt; stroke-linejoin: miter; stroke-miterlimit: 10;fill:#FCD202;fill-opacity:1; fill-rule: nonzero; opacity: 1" transform="  matrix(1 0 0 1 112 421) "/></g><g  clip-path="url(#DSCEl-9)" ><circle cx="0" cy="0" r="4.875" style="stroke:#FCD202;stroke-opacity:1; stroke-opacity: 0; stroke-width: 2; stroke-dasharray: none; stroke-linecap: butt; stroke-linejoin: miter; stroke-miterlimit: 10;fill:#FCD202;fill-opacity:1; fill-rule: nonzero; opacity: 1" transform="  matrix(1 0 0 1 182 363) "/></g><g  clip-path="url(#DSCEl-9)" ><circle cx="0" cy="0" r="6.3125" style="stroke:#FCD202;stroke-opacity:1; stroke-opacity: 0; stroke-width: 2; stroke-dasharray: none; stroke-linecap: butt; stroke-linejoin: miter; stroke-miterlimit: 10;fill:#FCD202;fill-opacity:1; fill-rule: nonzero; opacity: 1" transform="  matrix(1 0 0 1 253 359) "/></g><g  clip-path="url(#DSCEl-9)" ><circle cx="0" cy="0" r="19.25" style="stroke:#FCD202;stroke-opacity:1; stroke-opacity: 0; stroke-width: 2; stroke-dasharray: none; stroke-linecap: butt; stroke-linejoin: miter; stroke-miterlimit: 10;fill:#FCD202;fill-opacity:1; fill-rule: nonzero; opacity: 1" transform="  matrix(1 0 0 1 323 183) "/></g><g  clip-path="url(#DSCEl-9)" ><circle cx="0" cy="0" r="3.4375" style="stroke:#FCD202;stroke-opacity:1; stroke-opacity: 0; stroke-width: 2; stroke-dasharray: none; stroke-linecap: butt; stroke-linejoin: miter; stroke-miterlimit: 10;fill:#FCD202;fill-opacity:1; fill-rule: nonzero; opacity: 1" transform="  matrix(1 0 0 1 393 337) "/></g><g  clip-path="url(#DSCEl-9)" ><circle cx="0" cy="0" r="25" style="stroke:#FCD202;stroke-opacity:1; stroke-opacity: 0; stroke-width: 2; stroke-dasharray: none; stroke-linecap: butt; stroke-linejoin: miter; stroke-miterlimit: 10;fill:#FCD202;fill-opacity:1; fill-rule: nonzero; opacity: 1" transform="  matrix(1 0 0 1 463 290) "/></g><g  clip-path="url(#DSCEl-9)" ><circle cx="0" cy="0" r="14.9375" style="stroke:#FCD202;stroke-opacity:1; stroke-opacity: 0; stroke-width: 2; stroke-dasharray: none; stroke-linecap: butt; stroke-linejoin: miter; stroke-miterlimit: 10;fill:#FCD202;fill-opacity:1; fill-rule: nonzero; opacity: 1" transform="  matrix(1 0 0 1 534 243) "/></g><g  clip-path="url(#DSCEl-9)" ><circle cx="0" cy="0" r="19.25" style="stroke:#FCD202;stroke-opacity:1; stroke-opacity: 0; stroke-width: 2; stroke-dasharray: none; stroke-linecap: butt; stroke-linejoin: miter; stroke-miterlimit: 10;fill:#FCD202;fill-opacity:1; fill-rule: nonzero; opacity: 1" transform="  matrix(1 0 0 1 604 205) "/></g><g  clip-path="url(#DSCEl-9)" ><circle cx="0" cy="0" r="16.375" style="stroke:#FCD202;stroke-opacity:1; stroke-opacity: 0; stroke-width: 2; stroke-dasharray: none; stroke-linecap: butt; stroke-linejoin: miter; stroke-miterlimit: 10;fill:#FCD202;fill-opacity:1; fill-rule: nonzero; opacity: 1" transform="  matrix(1 0 0 1 674 372) "/></g><g  clip-path="url(#DSCEl-9)" ><circle cx="0" cy="0" r="14.9375" style="stroke:#FCD202;stroke-opacity:1; stroke-opacity: 0; stroke-width: 2; stroke-dasharray: none; stroke-linecap: butt; stroke-linejoin: miter; stroke-miterlimit: 10;fill:#FCD202;fill-opacity:1; fill-rule: nonzero; opacity: 1" transform="  matrix(1 0 0 1 744 147) "/></g><g  clip-path="url(#DSCEl-9)" ><circle cx="0" cy="0" r="16.375" style="stroke:#FCD202;stroke-opacity:1; stroke-opacity: 0; stroke-width: 2; stroke-dasharray: none; stroke-linecap: butt; stroke-linejoin: miter; stroke-miterlimit: 10;fill:#FCD202;fill-opacity:1; fill-rule: nonzero; opacity: 1" transform="  matrix(1 0 0 1 815 237) "/></g><g  clip-path="url(#DSCEl-9)" ><circle cx="0" cy="0" r="4.875" style="stroke:#FCD202;stroke-opacity:1; stroke-opacity: 0; stroke-width: 2; stroke-dasharray: none; stroke-linecap: butt; stroke-linejoin: miter; stroke-miterlimit: 10;fill:#FCD202;fill-opacity:1; fill-rule: nonzero; opacity: 1" transform="  matrix(1 0 0 1 885 61) "/></g><g transform=" matrix(1 0 0 1 30 466) "><text xml:space="preserve" font-family="Verdana" font-size="11" font-weight="normal" style="stroke: none; stroke-width: 1; stroke-dasharray: none; stroke-linecap: butt; stroke-linejoin: miter; stroke-miterlimit: 10;fill:#000000;fill-opacity:1; fill-rule: nonzero; opacity: 1; white-space: pre" ><tspan x="-8" y="7.48" fill="rgba(0,0,0,1)">0</tspan></text></g><g transform=" matrix(1 0 0 1 30 423) "><text xml:space="preserve" font-family="Verdana" font-size="11" font-weight="normal" style="stroke: none; stroke-width: 1; stroke-dasharray: none; stroke-linecap: butt; stroke-linejoin: miter; stroke-miterlimit: 10;fill:#000000;fill-opacity:1; fill-rule: nonzero; opacity: 1; white-space: pre" ><tspan x="-8" y="7.48" fill="rgba(0,0,0,1)">2</tspan></text></g><g transform=" matrix(1 0 0 1 30 380) "><text xml:space="preserve" font-family="Verdana" font-size="11" font-weight="normal" style="stroke: none; stroke-width: 1; stroke-dasharray: none; stroke-linecap: butt; stroke-linejoin: miter; stroke-miterlimit: 10;fill:#000000;fill-opacity:1; fill-rule: nonzero; opacity: 1; white-space: pre" ><tspan x="-8" y="7.48" fill="rgba(0,0,0,1)">4</tspan></text></g><g transform=" matrix(1 0 0 1 30 338) "><text xml:space="preserve" font-family="Verdana" font-size="11" font-weight="normal" style="stroke: none; stroke-width: 1; stroke-dasharray: none; stroke-linecap: butt; stroke-linejoin: miter; stroke-miterlimit: 10;fill:#000000;fill-opacity:1; fill-rule: nonzero; opacity: 1; white-space: pre" ><tspan x="-8" y="7.48" fill="rgba(0,0,0,1)">6</tspan></text></g><g transform=" matrix(1 0 0 1 30 295) "><text xml:space="preserve" font-family="Verdana" font-size="11" font-weight="normal" style="stroke: none; stroke-width: 1; stroke-dasharray: none; stroke-linecap: butt; stroke-linejoin: miter; stroke-miterlimit: 10;fill:#000000;fill-opacity:1; fill-rule: nonzero; opacity: 1; white-space: pre" ><tspan x="-8" y="7.48" fill="rgba(0,0,0,1)">8</tspan></text></g><g transform=" matrix(1 0 0 1 30 252) "><text xml:space="preserve" font-family="Verdana" font-size="11" font-weight="normal" style="stroke: none; stroke-width: 1; stroke-dasharray: none; stroke-linecap: butt; stroke-linejoin: miter; stroke-miterlimit: 10;fill:#000000;fill-opacity:1; fill-rule: nonzero; opacity: 1; white-space: pre" ><tspan x="-15" y="7.48" fill="rgba(0,0,0,1)">10</tspan></text></g><g transform=" matrix(1 0 0 1 30 209) "><text xml:space="preserve" font-family="Verdana" font-size="11" font-weight="normal" style="stroke: none; stroke-width: 1; stroke-dasharray: none; stroke-linecap: butt; stroke-linejoin: miter; stroke-miterlimit: 10;fill:#000000;fill-opacity:1; fill-rule: nonzero; opacity: 1; white-space: pre" ><tspan x="-15" y="7.48" fill="rgba(0,0,0,1)">12</tspan></text></g><g transform=" matrix(1 0 0 1 30 166) "><text xml:space="preserve" font-family="Verdana" font-size="11" font-weight="normal" style="stroke: none; stroke-width: 1; stroke-dasharray: none; stroke-linecap: butt; stroke-linejoin: miter; stroke-miterlimit: 10;fill:#000000;fill-opacity:1; fill-rule: nonzero; opacity: 1; white-space: pre" ><tspan x="-15" y="7.48" fill="rgba(0,0,0,1)">14</tspan></text></g><g transform=" matrix(1 0 0 1 30 124) "><text xml:space="preserve" font-family="Verdana" font-size="11" font-weight="normal" style="stroke: none; stroke-width: 1; stroke-dasharray: none; stroke-linecap: butt; stroke-linejoin: miter; stroke-miterlimit: 10;fill:#000000;fill-opacity:1; fill-rule: nonzero; opacity: 1; white-space: pre" ><tspan x="-15" y="7.48" fill="rgba(0,0,0,1)">16</tspan></text></g><g transform=" matrix(1 0 0 1 30 81) "><text xml:space="preserve" font-family="Verdana" font-size="11" font-weight="normal" style="stroke: none; stroke-width: 1; stroke-dasharray: none; stroke-linecap: butt; stroke-linejoin: miter; stroke-miterlimit: 10;fill:#000000;fill-opacity:1; fill-rule: nonzero; opacity: 1; white-space: pre" ><tspan x="-15" y="7.48" fill="rgba(0,0,0,1)">18</tspan></text></g><g transform=" matrix(1 0 0 1 30 38) "><text xml:space="preserve" font-family="Verdana" font-size="11" font-weight="normal" style="stroke: none; stroke-width: 1; stroke-dasharray: none; stroke-linecap: butt; stroke-linejoin: miter; stroke-miterlimit: 10;fill:#000000;fill-opacity:1; fill-rule: nonzero; opacity: 1; white-space: pre" ><tspan x="-15" y="7.48" fill="rgba(0,0,0,1)">20</tspan></text></g><g transform=" matrix(1 0 0 1 45 480.5) "><text xml:space="preserve" font-family="Verdana" font-size="11" font-weight="normal" style="stroke: none; stroke-width: 1; stroke-dasharray: none; stroke-linecap: butt; stroke-linejoin: miter; stroke-miterlimit: 10;fill:#000000;fill-opacity:1; fill-rule: nonzero; opacity: 1; white-space: pre" ><tspan x="0" y="7.48" fill="rgba(0,0,0,1)">Dec 31</tspan></text></g><g transform=" matrix(1 0 0 1 185 480.5) "><text xml:space="preserve" font-family="Verdana" font-size="11" font-weight="bold" style="stroke: none; stroke-width: 1; stroke-dasharray: none; stroke-linecap: butt; stroke-linejoin: miter; stroke-miterlimit: 10;fill:#000000;fill-opacity:1; fill-rule: nonzero; opacity: 1; white-space: pre" ><tspan x="0" y="7.48" fill="rgba(0,0,0,1)">Jan</tspan></text></g><g transform=" matrix(1 0 0 1 326 480.5) "><text xml:space="preserve" font-family="Verdana" font-size="11" font-weight="normal" style="stroke: none; stroke-width: 1; stroke-dasharray: none; stroke-linecap: butt; stroke-linejoin: miter; stroke-miterlimit: 10;fill:#000000;fill-opacity:1; fill-rule: nonzero; opacity: 1; white-space: pre" ><tspan x="0" y="7.48" fill="rgba(0,0,0,1)">Jan 04</tspan></text></g><g transform=" matrix(1 0 0 1 466 480.5) "><text xml:space="preserve" font-family="Verdana" font-size="11" font-weight="normal" style="stroke: none; stroke-width: 1; stroke-dasharray: none; stroke-linecap: butt; stroke-linejoin: miter; stroke-miterlimit: 10;fill:#000000;fill-opacity:1; fill-rule: nonzero; opacity: 1; white-space: pre" ><tspan x="0" y="7.48" fill="rgba(0,0,0,1)">Jan 06</tspan></text></g><g transform=" matrix(1 0 0 1 607 480.5) "><text xml:space="preserve" font-family="Verdana" font-size="11" font-weight="normal" style="stroke: none; stroke-width: 1; stroke-dasharray: none; stroke-linecap: butt; stroke-linejoin: miter; stroke-miterlimit: 10;fill:#000000;fill-opacity:1; fill-rule: nonzero; opacity: 1; white-space: pre" ><tspan x="0" y="7.48" fill="rgba(0,0,0,1)">Jan 08</tspan></text></g><g transform=" matrix(1 0 0 1 747 480.5) "><text xml:space="preserve" font-family="Verdana" font-size="11" font-weight="normal" style="stroke: none; stroke-width: 1; stroke-dasharray: none; stroke-linecap: butt; stroke-linejoin: miter; stroke-miterlimit: 10;fill:#000000;fill-opacity:1; fill-rule: nonzero; opacity: 1; white-space: pre" ><tspan x="0" y="7.48" fill="rgba(0,0,0,1)">Jan 10</tspan></text></g><g transform=" matrix(1 0 0 1 888 480.5) "><text xml:space="preserve" font-family="Verdana" font-size="11" font-weight="normal" style="stroke: none; stroke-width: 1; stroke-dasharray: none; stroke-linecap: butt; stroke-linejoin: miter; stroke-miterlimit: 10;fill:#000000;fill-opacity:1; fill-rule: nonzero; opacity: 1; white-space: pre" ><tspan x="0" y="7.48" fill="rgba(0,0,0,1)">Jan 12</tspan></text></g><rect x="0.5" y="0.5" rx="0" ry="0" width="95" height="33" style="stroke:#000000;stroke-opacity:1; stroke-width: 1; stroke-dasharray: none; stroke-linecap: butt; stroke-linejoin: miter; stroke-miterlimit: 10;fill:#000000;fill-opacity:1; fill-rule: nonzero; opacity: 0" transform=" matrix(1 0 0 1 861 40) "/><g transform=" matrix(1 0 0 1 869 48) "><image xlink:href="https://www.DSC.com/lib/3/images/lens.svg" x="0" y="0" style="stroke: none; stroke-width: 0; stroke-dasharray: none; stroke-linecap: butt; stroke-linejoin: miter; stroke-miterlimit: 10;fill:#000000;fill-opacity:1; fill-rule: nonzero; opacity: 1" width="19" height="19" preserveAspectRatio="none"></image></g><g transform=" matrix(1 0 0 1 893 55) "><text xml:space="preserve" font-family="Verdana" font-size="11" font-weight="normal" style="stroke: none; stroke-width: 1; stroke-dasharray: none; stroke-linecap: butt; stroke-linejoin: miter; stroke-miterlimit: 10;fill:#000000;fill-opacity:1; fill-rule: nonzero; opacity: 1; white-space: pre" ><tspan x="0" y="7.48" fill="rgba(0,0,0,1)">Show all</tspan></text></g></g><clipPath xmlns="http://www.w3.org/2000/svg" id="DSCEl-8"><rect x="42" y="40" width="914" height="429" rx="0" ry="0" stroke-width="0" fill="none" fill-opacity="0"/></clipPath><clipPath xmlns="http://www.w3.org/2000/svg" id="DSCEl-4"><rect x="0" y="0" width="913" height="428" rx="0" ry="0" stroke-width="0" fill="none" fill-opacity="0"/></clipPath><clipPath xmlns="http://www.w3.org/2000/svg" id="DSCEl-9"><rect x="42" y="40" width="914" height="429" rx="0" ry="0" stroke-width="0" fill="none" fill-opacity="0"/></clipPath></svg>
