<?xml version="1.0" encoding="UTF-8" standalone="no" ?><!DOCTYPE svg PUBLIC "-//W3C//DTD SVG 1.1//EN" "http://www.w3.org/Graphics/SVG/1.1/DTD/svg11.dtd"><svg xmlns="http://www.w3.org/2000/svg" xmlns:xlink="http://www.w3.org/1999/xlink" version="1.1" width="1056" height="500" viewBox="0 0 1056 500" xml:space="preserve"><desc>Created with Fabric.js 1.7.19</desc><defs></defs><rect x="0" y="0" width="1056" height="500" fill="#3f3f4f"></rect><g style="stroke: none; stroke-width: 1; stroke-dasharray: none; stroke-linecap: butt; stroke-linejoin: miter; stroke-miterlimit: 10; fill: none; fill-rule: nonzero; opacity: 1" transform="translate(0 0)" ><path d="M 0.5 0.5 L 1055.5 0.5 L 1055.5 499.5 L 0.5 499.5 Z" style="stroke:#000000;stroke-opacity:1; stroke-opacity: 0; stroke-width: 1; stroke-dasharray: none; stroke-linecap: butt; stroke-linejoin: miter; stroke-miterlimit: 10;fill:#FFFFFF;fill-opacity:1; fill-opacity: 0; fill-rule: nonzero; opacity: 1" transform="" stroke-linecap="round" /><path d="M 0.5 0.5 L 933.5 0.5 L 933.5 437.5 L 0.5 437.5 L 0.5 0.5 Z" style="stroke:#000000;stroke-opacity:1; stroke-opacity: 0; stroke-width: 1; stroke-dasharray: none; stroke-linecap: butt; stroke-linejoin: miter; stroke-miterlimit: 10;fill:#FFFFFF;fill-opacity:1; fill-opacity: 0; fill-rule: nonzero; opacity: 1" transform=" matrix(1 0 0 1 42 21) " stroke-linecap="round" /><path d="M 0.5 437.5 L 0.5 437.5 L 0.5 0.5" style="stroke:#000000;stroke-opacity:1; stroke-opacity: 0.1; stroke-width: 1; stroke-dasharray: none; stroke-linecap: butt; stroke-linejoin: miter; stroke-miterlimit: 10; fill: none; fill-rule: nonzero; opacity: 1" transform=" matrix(1 0 0 1 42 21) " stroke-linecap="round" /><path d="M 41.5 437.5 L 41.5 437.5 L 41.5 0.5" style="stroke:#000000;stroke-opacity:1; stroke-opacity: 0.1; stroke-width: 1; stroke-dasharray: none; stroke-linecap: butt; stroke-linejoin: miter; stroke-miterlimit: 10; fill: none; fill-rule: nonzero; opacity: 1" transform=" matrix(1 0 0 1 42 21) " stroke-linecap="round" /><path d="M 81.5 437.5 L 81.5 437.5 L 81.5 0.5" style="stroke:#000000;stroke-opacity:1; stroke-opacity: 0.1; stroke-width: 1; stroke-dasharray: none; stroke-linecap: butt; stroke-linejoin: miter; stroke-miterlimit: 10; fill: none; fill-rule: nonzero; opacity: 1" transform=" matrix(1 0 0 1 42 21) " stroke-linecap="round" /><path d="M 122.5 437.5 L 122.5 437.5 L 122.5 0.5" style="stroke:#000000;stroke-opacity:1; stroke-opacity: 0.1; stroke-width: 1; stroke-dasharray: none; stroke-linecap: butt; stroke-linejoin: miter; stroke-miterlimit: 10; fill: none; fill-rule: nonzero; opacity: 1" transform=" matrix(1 0 0 1 42 21) " stroke-linecap="round" /><path d="M 162.5 437.5 L 162.5 437.5 L 162.5 0.5" style="stroke:#000000;stroke-opacity:1; stroke-opacity: 0.1; stroke-width: 1; stroke-dasharray: none; stroke-linecap: butt; stroke-linejoin: miter; stroke-miterlimit: 10; fill: none; fill-rule: nonzero; opacity: 1" transform=" matrix(1 0 0 1 42 21) " stroke-linecap="round" /><path d="M 203.5 437.5 L 203.5 437.5 L 203.5 0.5" style="stroke:#000000;stroke-opacity:1; stroke-opacity: 0.1; stroke-width: 1; stroke-dasharray: none; stroke-linecap: butt; stroke-linejoin: miter; stroke-miterlimit: 10; fill: none; fill-rule: nonzero; opacity: 1" transform=" matrix(1 0 0 1 42 21) " stroke-linecap="round" /><path d="M 243.5 437.5 L 243.5 437.5 L 243.5 0.5" style="stroke:#000000;stroke-opacity:1; stroke-opacity: 0.1; stroke-width: 1; stroke-dasharray: none; stroke-linecap: butt; stroke-linejoin: miter; stroke-miterlimit: 10; fill: none; fill-rule: nonzero; opacity: 1" transform=" matrix(1 0 0 1 42 21) " stroke-linecap="round" /><path d="M 284.5 437.5 L 284.5 437.5 L 284.5 0.5" style="stroke:#000000;stroke-opacity:1; stroke-opacity: 0.1; stroke-width: 1; stroke-dasharray: none; stroke-linecap: butt; stroke-linejoin: miter; stroke-miterlimit: 10; fill: none; fill-rule: nonzero; opacity: 1" transform=" matrix(1 0 0 1 42 21) " stroke-linecap="round" /><path d="M 325.5 437.5 L 325.5 437.5 L 325.5 0.5" style="stroke:#000000;stroke-opacity:1; stroke-opacity: 0.1; stroke-width: 1; stroke-dasharray: none; stroke-linecap: butt; stroke-linejoin: miter; stroke-miterlimit: 10; fill: none; fill-rule: nonzero; opacity: 1" transform=" matrix(1 0 0 1 42 21) " stroke-linecap="round" /><path d="M 365.5 437.5 L 365.5 437.5 L 365.5 0.5" style="stroke:#000000;stroke-opacity:1; stroke-opacity: 0.1; stroke-width: 1; stroke-dasharray: none; stroke-linecap: butt; stroke-linejoin: miter; stroke-miterlimit: 10; fill: none; fill-rule: nonzero; opacity: 1" transform=" matrix(1 0 0 1 42 21) " stroke-linecap="round" /><path d="M 406.5 437.5 L 406.5 437.5 L 406.5 0.5" style="stroke:#000000;stroke-opacity:1; stroke-opacity: 0.1; stroke-width: 1; stroke-dasharray: none; stroke-linecap: butt; stroke-linejoin: miter; stroke-miterlimit: 10; fill: none; fill-rule: nonzero; opacity: 1" transform=" matrix(1 0 0 1 42 21) " stroke-linecap="round" /><path d="M 446.5 437.5 L 446.5 437.5 L 446.5 0.5" style="stroke:#000000;stroke-opacity:1; stroke-opacity: 0.1; stroke-width: 1; stroke-dasharray: none; stroke-linecap: butt; stroke-linejoin: miter; stroke-miterlimit: 10; fill: none; fill-rule: nonzero; opacity: 1" transform=" matrix(1 0 0 1 42 21) " stroke-linecap="round" /><path d="M 487.5 437.5 L 487.5 437.5 L 487.5 0.5" style="stroke:#000000;stroke-opacity:1; stroke-opacity: 0.1; stroke-width: 1; stroke-dasharray: none; stroke-linecap: butt; stroke-linejoin: miter; stroke-miterlimit: 10; fill: none; fill-rule: nonzero; opacity: 1" transform=" matrix(1 0 0 1 42 21) " stroke-linecap="round" /><path d="M 527.5 437.5 L 527.5 437.5 L 527.5 0.5" style="stroke:#000000;stroke-opacity:1; stroke-opacity: 0.1; stroke-width: 1; stroke-dasharray: none; stroke-linecap: butt; stroke-linejoin: miter; stroke-miterlimit: 10; fill: none; fill-rule: nonzero; opacity: 1" transform=" matrix(1 0 0 1 42 21) " stroke-linecap="round" /><path d="M 568.5 437.5 L 568.5 437.5 L 568.5 0.5" style="stroke:#000000;stroke-opacity:1; stroke-opacity: 0.1; stroke-width: 1; stroke-dasharray: none; stroke-linecap: butt; stroke-linejoin: miter; stroke-miterlimit: 10; fill: none; fill-rule: nonzero; opacity: 1" transform=" matrix(1 0 0 1 42 21) " stroke-linecap="round" /><path d="M 608.5 437.5 L 608.5 437.5 L 608.5 0.5" style="stroke:#000000;stroke-opacity:1; stroke-opacity: 0.1; stroke-width: 1; stroke-dasharray: none; stroke-linecap: butt; stroke-linejoin: miter; stroke-miterlimit: 10; fill: none; fill-rule: nonzero; opacity: 1" transform=" matrix(1 0 0 1 42 21) " stroke-linecap="round" /><path d="M 649.5 437.5 L 649.5 437.5 L 649.5 0.5" style="stroke:#000000;stroke-opacity:1; stroke-opacity: 0.1; stroke-width: 1; stroke-dasharray: none; stroke-linecap: butt; stroke-linejoin: miter; stroke-miterlimit: 10; fill: none; fill-rule: nonzero; opacity: 1" transform=" matrix(1 0 0 1 42 21) " stroke-linecap="round" /><path d="M 690.5 437.5 L 690.5 437.5 L 690.5 0.5" style="stroke:#000000;stroke-opacity:1; stroke-opacity: 0.1; stroke-width: 1; stroke-dasharray: none; stroke-linecap: butt; stroke-linejoin: miter; stroke-miterlimit: 10; fill: none; fill-rule: nonzero; opacity: 1" transform=" matrix(1 0 0 1 42 21) " stroke-linecap="round" /><path d="M 730.5 437.5 L 730.5 437.5 L 730.5 0.5" style="stroke:#000000;stroke-opacity:1; stroke-opacity: 0.1; stroke-width: 1; stroke-dasharray: none; stroke-linecap: butt; stroke-linejoin: miter; stroke-miterlimit: 10; fill: none; fill-rule: nonzero; opacity: 1" transform=" matrix(1 0 0 1 42 21) " stroke-linecap="round" /><path d="M 771.5 437.5 L 771.5 437.5 L 771.5 0.5" style="stroke:#000000;stroke-opacity:1; stroke-opacity: 0.1; stroke-width: 1; stroke-dasharray: none; stroke-linecap: butt; stroke-linejoin: miter; stroke-miterlimit: 10; fill: none; fill-rule: nonzero; opacity: 1" transform=" matrix(1 0 0 1 42 21) " stroke-linecap="round" /><path d="M 811.5 437.5 L 811.5 437.5 L 811.5 0.5" style="stroke:#000000;stroke-opacity:1; stroke-opacity: 0.1; stroke-width: 1; stroke-dasharray: none; stroke-linecap: butt; stroke-linejoin: miter; stroke-miterlimit: 10; fill: none; fill-rule: nonzero; opacity: 1" transform=" matrix(1 0 0 1 42 21) " stroke-linecap="round" /><path d="M 852.5 437.5 L 852.5 437.5 L 852.5 0.5" style="stroke:#000000;stroke-opacity:1; stroke-opacity: 0.1; stroke-width: 1; stroke-dasharray: none; stroke-linecap: butt; stroke-linejoin: miter; stroke-miterlimit: 10; fill: none; fill-rule: nonzero; opacity: 1" transform=" matrix(1 0 0 1 42 21) " stroke-linecap="round" /><path d="M 892.5 437.5 L 892.5 437.5 L 892.5 0.5" style="stroke:#000000;stroke-opacity:1; stroke-opacity: 0.1; stroke-width: 1; stroke-dasharray: none; stroke-linecap: butt; stroke-linejoin: miter; stroke-miterlimit: 10; fill: none; fill-rule: nonzero; opacity: 1" transform=" matrix(1 0 0 1 42 21) " stroke-linecap="round" /><path d="M 933.5 437.5 L 933.5 437.5 L 933.5 0.5" style="stroke:#000000;stroke-opacity:1; stroke-opacity: 0.1; stroke-width: 1; stroke-dasharray: none; stroke-linecap: butt; stroke-linejoin: miter; stroke-miterlimit: 10; fill: none; fill-rule: nonzero; opacity: 1" transform=" matrix(1 0 0 1 42 21) " stroke-linecap="round" /><path d="M 0.5 437.5 L 0.5 437.5 L 933.5 437.5" style="stroke:#000000;stroke-opacity:1; stroke-opacity: 0.1; stroke-width: 1; stroke-dasharray: none; stroke-linecap: butt; stroke-linejoin: miter; stroke-miterlimit: 10; fill: none; fill-rule: nonzero; opacity: 1" transform=" matrix(1 0 0 1 42 21) " stroke-linecap="round" /><path d="M 0.5 393.5 L 0.5 393.5 L 933.5 393.5" style="stroke:#000000;stroke-opacity:1; stroke-opacity: 0.1; stroke-width: 1; stroke-dasharray: none; stroke-linecap: butt; stroke-linejoin: miter; stroke-miterlimit: 10; fill: none; fill-rule: nonzero; opacity: 1" transform=" matrix(1 0 0 1 42 21) " stroke-linecap="round" /><path d="M 0.5 350.5 L 0.5 350.5 L 933.5 350.5" style="stroke:#000000;stroke-opacity:1; stroke-opacity: 0.1; stroke-width: 1; stroke-dasharray: none; stroke-linecap: butt; stroke-linejoin: miter; stroke-miterlimit: 10; fill: none; fill-rule: nonzero; opacity: 1" transform=" matrix(1 0 0 1 42 21) " stroke-linecap="round" /><path d="M 0.5 306.5 L 0.5 306.5 L 933.5 306.5" style="stroke:#000000;stroke-opacity:1; stroke-opacity: 0.1; stroke-width: 1; stroke-dasharray: none; stroke-linecap: butt; stroke-linejoin: miter; stroke-miterlimit: 10; fill: none; fill-rule: nonzero; opacity: 1" transform=" matrix(1 0 0 1 42 21) " stroke-linecap="round" /><path d="M 0.5 262.5 L 0.5 262.5 L 933.5 262.5" style="stroke:#000000;stroke-opacity:1; stroke-opacity: 0.1; stroke-width: 1; stroke-dasharray: none; stroke-linecap: butt; stroke-linejoin: miter; stroke-miterlimit: 10; fill: none; fill-rule: nonzero; opacity: 1" transform=" matrix(1 0 0 1 42 21) " stroke-linecap="round" /><path d="M 0.5 219.5 L 0.5 219.5 L 933.5 219.5" style="stroke:#000000;stroke-opacity:1; stroke-opacity: 0.1; stroke-width: 1; stroke-dasharray: none; stroke-linecap: butt; stroke-linejoin: miter; stroke-miterlimit: 10; fill: none; fill-rule: nonzero; opacity: 1" transform=" matrix(1 0 0 1 42 21) " stroke-linecap="round" /><path d="M 0.5 175.5 L 0.5 175.5 L 933.5 175.5" style="stroke:#000000;stroke-opacity:1; stroke-opacity: 0.1; stroke-width: 1; stroke-dasharray: none; stroke-linecap: butt; stroke-linejoin: miter; stroke-miterlimit: 10; fill: none; fill-rule: nonzero; opacity: 1" transform=" matrix(1 0 0 1 42 21) " stroke-linecap="round" /><path d="M 0.5 131.5 L 0.5 131.5 L 933.5 131.5" style="stroke:#000000;stroke-opacity:1; stroke-opacity: 0.1; stroke-width: 1; stroke-dasharray: none; stroke-linecap: butt; stroke-linejoin: miter; stroke-miterlimit: 10; fill: none; fill-rule: nonzero; opacity: 1" transform=" matrix(1 0 0 1 42 21) " stroke-linecap="round" /><path d="M 0.5 87.5 L 0.5 87.5 L 933.5 87.5" style="stroke:#000000;stroke-opacity:1; stroke-opacity: 0.1; stroke-width: 1; stroke-dasharray: none; stroke-linecap: butt; stroke-linejoin: miter; stroke-miterlimit: 10; fill: none; fill-rule: nonzero; opacity: 1" transform=" matrix(1 0 0 1 42 21) " stroke-linecap="round" /><path d="M 0.5 44.5 L 0.5 44.5 L 933.5 44.5" style="stroke:#000000;stroke-opacity:1; stroke-opacity: 0.1; stroke-width: 1; stroke-dasharray: none; stroke-linecap: butt; stroke-linejoin: miter; stroke-miterlimit: 10; fill: none; fill-rule: nonzero; opacity: 1" transform=" matrix(1 0 0 1 42 21) " stroke-linecap="round" /><path d="M 0.5 0.5 L 0.5 0.5 L 933.5 0.5" style="stroke:#000000;stroke-opacity:1; stroke-opacity: 0.1; stroke-width: 1; stroke-dasharray: none; stroke-linecap: butt; stroke-linejoin: miter; stroke-miterlimit: 10; fill: none; fill-rule: nonzero; opacity: 1" transform=" matrix(1 0 0 1 42 21) " stroke-linecap="round" /><rect x="0.5" y="0.5" rx="0" ry="0" width="933" height="131" style="stroke:#888888;stroke-opacity:1; stroke-opacity: 0.1; stroke-width: 0; stroke-dasharray: none; stroke-linecap: butt; stroke-linejoin: miter; stroke-miterlimit: 10;fill:#888888;fill-opacity:1; fill-opacity: 0.1; fill-rule: nonzero; opacity: 1" transform=" matrix(1 0 0 1 42 196) "/><g  clip-path="url(#DSCEl-17)" ><rect x="0.5" y="0.5" rx="0" ry="0" width="41" height="437" style="stroke:#000000;stroke-opacity:1; stroke-opacity: 0; stroke-width: 0; stroke-dasharray: none; stroke-linecap: butt; stroke-linejoin: miter; stroke-miterlimit: 10;fill:#000000;fill-opacity:1; fill-opacity: 0; fill-rule: nonzero; opacity: 0" transform=" matrix(1 0 0 1 935 21) "/></g><path d="M 20.5 350.1 L 61.5 306.4 L 101.5 262.7 L 142.5 219 L 183.5 284.55 L 223.5 393.8 L 264.5 371.95 L 304.5 328.25 L 345.5 240.85 L 385.5 197.15 L 426.5 109.75 L 467.5 66.05 L 507.5 44.2 L 548.5 87.9 L 588.5 131.6 L 629.5 219 L 669.5 175.3 L 710.5 131.6 L 750.5 153.45 L 791.5 197.15 L 832.5 262.7 L 872.5 306.4 L 913.5 350.1 M 0 0 L 0 0" style="stroke:#67B7DC;stroke-opacity:1; stroke-opacity: 0.9; stroke-width: 1; stroke-dasharray: 3 3; stroke-linecap: butt; stroke-linejoin: round; stroke-miterlimit: 10; fill: none; fill-rule: nonzero; opacity: 1" transform=" matrix(1 0 0 1 42 21) " stroke-linecap="round"  clip-path="url(#DSCEl-19)" /><g  clip-path="url(#DSCEl-20)" ><path d="M 61.5 306.5 L 426.5 109.5 L 424.5 105.5 L 58.5 302.5 Z" style="stroke:#FFFFFF;stroke-opacity:1; stroke-opacity: 0.005; stroke-width: 0; stroke-dasharray: none; stroke-linecap: butt; stroke-linejoin: miter; stroke-miterlimit: 10;fill:#FFFFFF;fill-opacity:1; fill-opacity: 0.005; fill-rule: nonzero; opacity: 1" transform=" matrix(1 0 0 1 42 21) " stroke-linecap="round" /></g><g  clip-path="url(#DSCEl-20)" ><path d="M 61.5 306.5 L 426.5 109.5" style="stroke:#CC0000;stroke-opacity:1; stroke-opacity: 0.8; stroke-width: 1; stroke-dasharray: none; stroke-linecap: butt; stroke-linejoin: miter; stroke-miterlimit: 10; fill: none; fill-rule: nonzero; opacity: 1" transform=" matrix(1 0 0 1 42 21) " stroke-linecap="round" /></g><g  clip-path="url(#DSCEl-21)" ><path d="M 669.5 175.5 L 872.5 306.5 L 869.5 310.5 L 667.5 179.5 Z" style="stroke:#FFFFFF;stroke-opacity:1; stroke-opacity: 0.005; stroke-width: 0; stroke-dasharray: none; stroke-linecap: butt; stroke-linejoin: miter; stroke-miterlimit: 10;fill:#FFFFFF;fill-opacity:1; fill-opacity: 0.005; fill-rule: nonzero; opacity: 1" transform=" matrix(1 0 0 1 42 21) " stroke-linecap="round" /></g><g  clip-path="url(#DSCEl-21)" ><path d="M 669.5 175.5 L 872.5 306.5" style="stroke:#CC0000;stroke-opacity:1; stroke-opacity: 0.8; stroke-width: 1; stroke-dasharray: none; stroke-linecap: butt; stroke-linejoin: miter; stroke-miterlimit: 10; fill: none; fill-rule: nonzero; opacity: 1" transform=" matrix(1 0 0 1 42 21) " stroke-linecap="round" /></g><path d="M 0.5 0.5 L 933.5 0.5" style="stroke:#000000;stroke-opacity:1; stroke-opacity: 0; stroke-width: 1; stroke-dasharray: none; stroke-linecap: butt; stroke-linejoin: miter; stroke-miterlimit: 10; fill: none; fill-rule: nonzero; opacity: 1" transform=" matrix(1 0 0 1 0 2) " stroke-linecap="round" /><path d="M 0.5 0.5 L 933.5 0.5" style="stroke:#000000;stroke-opacity:1; stroke-opacity: 0; stroke-width: 1; stroke-dasharray: none; stroke-linecap: butt; stroke-linejoin: miter; stroke-miterlimit: 10; fill: none; fill-rule: nonzero; opacity: 1" transform=" matrix(1 0 0 1 42 458) " stroke-linecap="round" /><path d="M 0.5 0.5 L 0.5 437.5" style="stroke:#000000;stroke-opacity:1; stroke-opacity: 0; stroke-width: 1; stroke-dasharray: none; stroke-linecap: butt; stroke-linejoin: miter; stroke-miterlimit: 10; fill: none; fill-rule: nonzero; opacity: 1" transform=" matrix(1 0 0 1 42 21) " stroke-linecap="round" /><g  clip-path="url(#DSCEl-18)" ><path d="M 0.5 0.5 L 933.5 0.5 L 933.5 0.5" style="stroke:#000000;stroke-opacity:1; stroke-opacity: 0; stroke-width: 1; stroke-dasharray: none; stroke-linecap: butt; stroke-linejoin: miter; stroke-miterlimit: 10; fill: none; fill-rule: nonzero; opacity: 0" transform=" matrix(1 0 0 1 42 136) " stroke-linecap="round" /></g><rect x="0.5" y="0.5" rx="0" ry="0" width="934" height="2" style="stroke:#888888;stroke-opacity:1; stroke-opacity: 0.1; stroke-width: 1; stroke-dasharray: none; stroke-linecap: butt; stroke-linejoin: miter; stroke-miterlimit: 10;fill:#888888;fill-opacity:1; fill-opacity: 0.1; fill-rule: nonzero; opacity: 1" transform=" matrix(1 0 0 1 42 20) "/><rect x="0.5" y="0.5" rx="0" ry="0" width="933" height="3" style="stroke:#67B7DC;stroke-opacity:1; stroke-width: 0; stroke-dasharray: none; stroke-linecap: butt; stroke-linejoin: miter; stroke-miterlimit: 10;fill:#67B7DC;fill-opacity:1; fill-rule: nonzero; opacity: 1" transform=" matrix(1 0 0 1 42 20) "/><rect x="0.5" y="0.5" rx="0" ry="0" width="934" height="2" style="stroke:#000000;stroke-opacity:1; stroke-opacity: 0.005; stroke-width: 0; stroke-dasharray: none; stroke-linecap: butt; stroke-linejoin: miter; stroke-miterlimit: 10;fill:#000000;fill-opacity:1; fill-opacity: 0.005; fill-rule: nonzero; opacity: 1" transform=" matrix(1 0 0 1 42 20) "/><rect x="0" y="0.5" rx="0" ry="0" width="933" height="2" style="stroke:#000000;stroke-opacity:1; stroke-opacity: 0.005; stroke-width: 0; stroke-dasharray: none; stroke-linecap: butt; stroke-linejoin: miter; stroke-miterlimit: 10;fill:#000000;fill-opacity:1; fill-opacity: 0.005; fill-rule: nonzero; opacity: 1" transform=" matrix(1 0 0 1 42 20) "/><g transform=" matrix(1 0 0 1 25 4) "><image xlink:href="https://www.DSC.com/lib/3/images/dragIconRoundBig.svg" x="0" y="0" style="stroke: none; stroke-width: 0; stroke-dasharray: none; stroke-linecap: butt; stroke-linejoin: miter; stroke-miterlimit: 10;fill:#000000;fill-opacity:1; fill-rule: nonzero; opacity: 1" width="35" height="35" preserveAspectRatio="none"></image></g><rect x="0.5" y="0.5" rx="0" ry="0" width="25" height="2" style="stroke:#000000;stroke-opacity:1; stroke-opacity: 0.005; stroke-width: 0; stroke-dasharray: none; stroke-linecap: butt; stroke-linejoin: miter; stroke-miterlimit: 10;fill:#000000;fill-opacity:1; fill-opacity: 0.005; fill-rule: nonzero; opacity: 1" transform=" matrix(1 0 0 1 30 21) "/><g transform=" matrix(1 0 0 1 958 4) "><image xlink:href="https://www.DSC.com/lib/3/images/dragIconRoundBig.svg" x="0" y="0" style="stroke: none; stroke-width: 0; stroke-dasharray: none; stroke-linecap: butt; stroke-linejoin: miter; stroke-miterlimit: 10;fill:#000000;fill-opacity:1; fill-rule: nonzero; opacity: 1" width="35" height="35" preserveAspectRatio="none"></image></g><rect x="0.5" y="0.5" rx="0" ry="0" width="25" height="2" style="stroke:#000000;stroke-opacity:1; stroke-opacity: 0.005; stroke-width: 0; stroke-dasharray: none; stroke-linecap: butt; stroke-linejoin: miter; stroke-miterlimit: 10;fill:#000000;fill-opacity:1; fill-opacity: 0.005; fill-rule: nonzero; opacity: 1" transform=" matrix(1 0 0 1 963 21) "/><circle cx="0" cy="0" r="4" style="stroke:#67B7DC;stroke-opacity:1; stroke-opacity: 0; stroke-width: 2; stroke-dasharray: none; stroke-linecap: butt; stroke-linejoin: miter; stroke-miterlimit: 10;fill:#67B7DC;fill-opacity:1; fill-rule: nonzero; opacity: 1" transform="  matrix(1 0 0 1 62 371) "/><circle cx="0" cy="0" r="4" style="stroke:#CC0000;stroke-opacity:1; stroke-opacity: 0; stroke-width: 2; stroke-dasharray: none; stroke-linecap: butt; stroke-linejoin: miter; stroke-miterlimit: 10;fill:#CC0000;fill-opacity:1; fill-rule: nonzero; opacity: 1" transform="  matrix(1 0 0 1 103 327) "/><circle cx="0" cy="0" r="4" style="stroke:#67B7DC;stroke-opacity:1; stroke-opacity: 0; stroke-width: 2; stroke-dasharray: none; stroke-linecap: butt; stroke-linejoin: miter; stroke-miterlimit: 10;fill:#67B7DC;fill-opacity:1; fill-rule: nonzero; opacity: 1" transform="  matrix(1 0 0 1 143 283) "/><circle cx="0" cy="0" r="4" style="stroke:#67B7DC;stroke-opacity:1; stroke-opacity: 0; stroke-width: 2; stroke-dasharray: none; stroke-linecap: butt; stroke-linejoin: miter; stroke-miterlimit: 10;fill:#67B7DC;fill-opacity:1; fill-rule: nonzero; opacity: 1" transform="  matrix(1 0 0 1 184 240) "/><circle cx="0" cy="0" r="4" style="stroke:#67B7DC;stroke-opacity:1; stroke-opacity: 0; stroke-width: 2; stroke-dasharray: none; stroke-linecap: butt; stroke-linejoin: miter; stroke-miterlimit: 10;fill:#67B7DC;fill-opacity:1; fill-rule: nonzero; opacity: 1" transform="  matrix(1 0 0 1 225 305) "/><circle cx="0" cy="0" r="4" style="stroke:#67B7DC;stroke-opacity:1; stroke-opacity: 0; stroke-width: 2; stroke-dasharray: none; stroke-linecap: butt; stroke-linejoin: miter; stroke-miterlimit: 10;fill:#67B7DC;fill-opacity:1; fill-rule: nonzero; opacity: 1" transform="  matrix(1 0 0 1 265 414) "/><circle cx="0" cy="0" r="4" style="stroke:#67B7DC;stroke-opacity:1; stroke-opacity: 0; stroke-width: 2; stroke-dasharray: none; stroke-linecap: butt; stroke-linejoin: miter; stroke-miterlimit: 10;fill:#67B7DC;fill-opacity:1; fill-rule: nonzero; opacity: 1" transform="  matrix(1 0 0 1 306 392) "/><circle cx="0" cy="0" r="4" style="stroke:#67B7DC;stroke-opacity:1; stroke-opacity: 0; stroke-width: 2; stroke-dasharray: none; stroke-linecap: butt; stroke-linejoin: miter; stroke-miterlimit: 10;fill:#67B7DC;fill-opacity:1; fill-rule: nonzero; opacity: 1" transform="  matrix(1 0 0 1 346 349) "/><circle cx="0" cy="0" r="4" style="stroke:#67B7DC;stroke-opacity:1; stroke-opacity: 0; stroke-width: 2; stroke-dasharray: none; stroke-linecap: butt; stroke-linejoin: miter; stroke-miterlimit: 10;fill:#67B7DC;fill-opacity:1; fill-rule: nonzero; opacity: 1" transform="  matrix(1 0 0 1 387 261) "/><circle cx="0" cy="0" r="4" style="stroke:#67B7DC;stroke-opacity:1; stroke-opacity: 0; stroke-width: 2; stroke-dasharray: none; stroke-linecap: butt; stroke-linejoin: miter; stroke-miterlimit: 10;fill:#67B7DC;fill-opacity:1; fill-rule: nonzero; opacity: 1" transform="  matrix(1 0 0 1 427 218) "/><circle cx="0" cy="0" r="4" style="stroke:#CC0000;stroke-opacity:1; stroke-opacity: 0; stroke-width: 2; stroke-dasharray: none; stroke-linecap: butt; stroke-linejoin: miter; stroke-miterlimit: 10;fill:#CC0000;fill-opacity:1; fill-rule: nonzero; opacity: 1" transform="  matrix(1 0 0 1 468 130) "/><circle cx="0" cy="0" r="4" style="stroke:#67B7DC;stroke-opacity:1; stroke-opacity: 0; stroke-width: 2; stroke-dasharray: none; stroke-linecap: butt; stroke-linejoin: miter; stroke-miterlimit: 10;fill:#67B7DC;fill-opacity:1; fill-rule: nonzero; opacity: 1" transform="  matrix(1 0 0 1 509 87) "/><circle cx="0" cy="0" r="4" style="stroke:#67B7DC;stroke-opacity:1; stroke-opacity: 0; stroke-width: 2; stroke-dasharray: none; stroke-linecap: butt; stroke-linejoin: miter; stroke-miterlimit: 10;fill:#67B7DC;fill-opacity:1; fill-rule: nonzero; opacity: 1" transform="  matrix(1 0 0 1 549 65) "/><circle cx="0" cy="0" r="4" style="stroke:#67B7DC;stroke-opacity:1; stroke-opacity: 0; stroke-width: 2; stroke-dasharray: none; stroke-linecap: butt; stroke-linejoin: miter; stroke-miterlimit: 10;fill:#67B7DC;fill-opacity:1; fill-rule: nonzero; opacity: 1" transform="  matrix(1 0 0 1 590 108) "/><circle cx="0" cy="0" r="4" style="stroke:#67B7DC;stroke-opacity:1; stroke-opacity: 0; stroke-width: 2; stroke-dasharray: none; stroke-linecap: butt; stroke-linejoin: miter; stroke-miterlimit: 10;fill:#67B7DC;fill-opacity:1; fill-rule: nonzero; opacity: 1" transform="  matrix(1 0 0 1 630 152) "/><circle cx="0" cy="0" r="4" style="stroke:#67B7DC;stroke-opacity:1; stroke-opacity: 0; stroke-width: 2; stroke-dasharray: none; stroke-linecap: butt; stroke-linejoin: miter; stroke-miterlimit: 10;fill:#67B7DC;fill-opacity:1; fill-rule: nonzero; opacity: 1" transform="  matrix(1 0 0 1 671 240) "/><circle cx="0" cy="0" r="4" style="stroke:#CC0000;stroke-opacity:1; stroke-opacity: 0; stroke-width: 2; stroke-dasharray: none; stroke-linecap: butt; stroke-linejoin: miter; stroke-miterlimit: 10;fill:#CC0000;fill-opacity:1; fill-rule: nonzero; opacity: 1" transform="  matrix(1 0 0 1 711 196) "/><circle cx="0" cy="0" r="4" style="stroke:#67B7DC;stroke-opacity:1; stroke-opacity: 0; stroke-width: 2; stroke-dasharray: none; stroke-linecap: butt; stroke-linejoin: miter; stroke-miterlimit: 10;fill:#67B7DC;fill-opacity:1; fill-rule: nonzero; opacity: 1" transform="  matrix(1 0 0 1 752 152) "/><circle cx="0" cy="0" r="4" style="stroke:#67B7DC;stroke-opacity:1; stroke-opacity: 0; stroke-width: 2; stroke-dasharray: none; stroke-linecap: butt; stroke-linejoin: miter; stroke-miterlimit: 10;fill:#67B7DC;fill-opacity:1; fill-rule: nonzero; opacity: 1" transform="  matrix(1 0 0 1 792 174) "/><circle cx="0" cy="0" r="4" style="stroke:#67B7DC;stroke-opacity:1; stroke-opacity: 0; stroke-width: 2; stroke-dasharray: none; stroke-linecap: butt; stroke-linejoin: miter; stroke-miterlimit: 10;fill:#67B7DC;fill-opacity:1; fill-rule: nonzero; opacity: 1" transform="  matrix(1 0 0 1 833 218) "/><circle cx="0" cy="0" r="4" style="stroke:#67B7DC;stroke-opacity:1; stroke-opacity: 0; stroke-width: 2; stroke-dasharray: none; stroke-linecap: butt; stroke-linejoin: miter; stroke-miterlimit: 10;fill:#67B7DC;fill-opacity:1; fill-rule: nonzero; opacity: 1" transform="  matrix(1 0 0 1 874 283) "/><circle cx="0" cy="0" r="4" style="stroke:#CC0000;stroke-opacity:1; stroke-opacity: 0; stroke-width: 2; stroke-dasharray: none; stroke-linecap: butt; stroke-linejoin: miter; stroke-miterlimit: 10;fill:#CC0000;fill-opacity:1; fill-rule: nonzero; opacity: 1" transform="  matrix(1 0 0 1 914 327) "/><circle cx="0" cy="0" r="4" style="stroke:#67B7DC;stroke-opacity:1; stroke-opacity: 0; stroke-width: 2; stroke-dasharray: none; stroke-linecap: butt; stroke-linejoin: miter; stroke-miterlimit: 10;fill:#67B7DC;fill-opacity:1; fill-rule: nonzero; opacity: 1" transform="  matrix(1 0 0 1 955 371) "/><g transform=" matrix(1 0 0 1 45 470.5) "><text xml:space="preserve" font-family="Verdana" font-size="11" font-weight="bold" style="stroke: none; stroke-width: 1; stroke-dasharray: none; stroke-linecap: butt; stroke-linejoin: miter; stroke-miterlimit: 10;fill:#000000;fill-opacity:1; fill-rule: nonzero; opacity: 1; white-space: pre" ><tspan x="0" y="7.48" fill="rgba(0,0,0,1)">Jan</tspan></text></g><g transform=" matrix(1 0 0 1 126 470.5) "><text xml:space="preserve" font-family="Verdana" font-size="11" font-weight="normal" style="stroke: none; stroke-width: 1; stroke-dasharray: none; stroke-linecap: butt; stroke-linejoin: miter; stroke-miterlimit: 10;fill:#000000;fill-opacity:1; fill-rule: nonzero; opacity: 1; white-space: pre" ><tspan x="0" y="7.48" fill="rgba(0,0,0,1)">Jan 03</tspan></text></g><g transform=" matrix(1 0 0 1 207 470.5) "><text xml:space="preserve" font-family="Verdana" font-size="11" font-weight="normal" style="stroke: none; stroke-width: 1; stroke-dasharray: none; stroke-linecap: butt; stroke-linejoin: miter; stroke-miterlimit: 10;fill:#000000;fill-opacity:1; fill-rule: nonzero; opacity: 1; white-space: pre" ><tspan x="0" y="7.48" fill="rgba(0,0,0,1)">Jan 05</tspan></text></g><g transform=" matrix(1 0 0 1 288 470.5) "><text xml:space="preserve" font-family="Verdana" font-size="11" font-weight="normal" style="stroke: none; stroke-width: 1; stroke-dasharray: none; stroke-linecap: butt; stroke-linejoin: miter; stroke-miterlimit: 10;fill:#000000;fill-opacity:1; fill-rule: nonzero; opacity: 1; white-space: pre" ><tspan x="0" y="7.48" fill="rgba(0,0,0,1)">Jan 07</tspan></text></g><g transform=" matrix(1 0 0 1 370 470.5) "><text xml:space="preserve" font-family="Verdana" font-size="11" font-weight="normal" style="stroke: none; stroke-width: 1; stroke-dasharray: none; stroke-linecap: butt; stroke-linejoin: miter; stroke-miterlimit: 10;fill:#000000;fill-opacity:1; fill-rule: nonzero; opacity: 1; white-space: pre" ><tspan x="0" y="7.48" fill="rgba(0,0,0,1)">Jan 09</tspan></text></g><g transform=" matrix(1 0 0 1 451 470.5) "><text xml:space="preserve" font-family="Verdana" font-size="11" font-weight="normal" style="stroke: none; stroke-width: 1; stroke-dasharray: none; stroke-linecap: butt; stroke-linejoin: miter; stroke-miterlimit: 10;fill:#000000;fill-opacity:1; fill-rule: nonzero; opacity: 1; white-space: pre" ><tspan x="0" y="7.48" fill="rgba(0,0,0,1)">Jan 11</tspan></text></g><g transform=" matrix(1 0 0 1 532 470.5) "><text xml:space="preserve" font-family="Verdana" font-size="11" font-weight="normal" style="stroke: none; stroke-width: 1; stroke-dasharray: none; stroke-linecap: butt; stroke-linejoin: miter; stroke-miterlimit: 10;fill:#000000;fill-opacity:1; fill-rule: nonzero; opacity: 1; white-space: pre" ><tspan x="0" y="7.48" fill="rgba(0,0,0,1)">Jan 13</tspan></text></g><g transform=" matrix(1 0 0 1 613 470.5) "><text xml:space="preserve" font-family="Verdana" font-size="11" font-weight="normal" style="stroke: none; stroke-width: 1; stroke-dasharray: none; stroke-linecap: butt; stroke-linejoin: miter; stroke-miterlimit: 10;fill:#000000;fill-opacity:1; fill-rule: nonzero; opacity: 1; white-space: pre" ><tspan x="0" y="7.48" fill="rgba(0,0,0,1)">Jan 15</tspan></text></g><g transform=" matrix(1 0 0 1 694 470.5) "><text xml:space="preserve" font-family="Verdana" font-size="11" font-weight="normal" style="stroke: none; stroke-width: 1; stroke-dasharray: none; stroke-linecap: butt; stroke-linejoin: miter; stroke-miterlimit: 10;fill:#000000;fill-opacity:1; fill-rule: nonzero; opacity: 1; white-space: pre" ><tspan x="0" y="7.48" fill="rgba(0,0,0,1)">Jan 17</tspan></text></g><g transform=" matrix(1 0 0 1 775 470.5) "><text xml:space="preserve" font-family="Verdana" font-size="11" font-weight="normal" style="stroke: none; stroke-width: 1; stroke-dasharray: none; stroke-linecap: butt; stroke-linejoin: miter; stroke-miterlimit: 10;fill:#000000;fill-opacity:1; fill-rule: nonzero; opacity: 1; white-space: pre" ><tspan x="0" y="7.48" fill="rgba(0,0,0,1)">Jan 19</tspan></text></g><g transform=" matrix(1 0 0 1 856 470.5) "><text xml:space="preserve" font-family="Verdana" font-size="11" font-weight="normal" style="stroke: none; stroke-width: 1; stroke-dasharray: none; stroke-linecap: butt; stroke-linejoin: miter; stroke-miterlimit: 10;fill:#000000;fill-opacity:1; fill-rule: nonzero; opacity: 1; white-space: pre" ><tspan x="0" y="7.48" fill="rgba(0,0,0,1)">Jan 21</tspan></text></g><g transform=" matrix(1 0 0 1 937 470.5) "><text xml:space="preserve" font-family="Verdana" font-size="11" font-weight="normal" style="stroke: none; stroke-width: 1; stroke-dasharray: none; stroke-linecap: butt; stroke-linejoin: miter; stroke-miterlimit: 10;fill:#000000;fill-opacity:1; fill-rule: nonzero; opacity: 1; white-space: pre" ><tspan x="0" y="7.48" fill="rgba(0,0,0,1)">Jan 23</tspan></text></g><g transform=" matrix(1 0 0 1 35 456) "><text xml:space="preserve" font-family="Verdana" font-size="11" font-weight="normal" style="stroke: none; stroke-width: 1; stroke-dasharray: none; stroke-linecap: butt; stroke-linejoin: miter; stroke-miterlimit: 10;fill:#000000;fill-opacity:1; fill-rule: nonzero; opacity: 1; white-space: pre" ><tspan x="-8" y="7.48" fill="rgba(0,0,0,1)">4</tspan></text></g><g transform=" matrix(1 0 0 1 35 412) "><text xml:space="preserve" font-family="Verdana" font-size="11" font-weight="normal" style="stroke: none; stroke-width: 1; stroke-dasharray: none; stroke-linecap: butt; stroke-linejoin: miter; stroke-miterlimit: 10;fill:#000000;fill-opacity:1; fill-rule: nonzero; opacity: 1; white-space: pre" ><tspan x="-8" y="7.48" fill="rgba(0,0,0,1)">6</tspan></text></g><g transform=" matrix(1 0 0 1 35 369) "><text xml:space="preserve" font-family="Verdana" font-size="11" font-weight="normal" style="stroke: none; stroke-width: 1; stroke-dasharray: none; stroke-linecap: butt; stroke-linejoin: miter; stroke-miterlimit: 10;fill:#000000;fill-opacity:1; fill-rule: nonzero; opacity: 1; white-space: pre" ><tspan x="-8" y="7.48" fill="rgba(0,0,0,1)">8</tspan></text></g><g transform=" matrix(1 0 0 1 35 325) "><text xml:space="preserve" font-family="Verdana" font-size="11" font-weight="normal" style="stroke: none; stroke-width: 1; stroke-dasharray: none; stroke-linecap: butt; stroke-linejoin: miter; stroke-miterlimit: 10;fill:#000000;fill-opacity:1; fill-rule: nonzero; opacity: 1; white-space: pre" ><tspan x="-15" y="7.48" fill="rgba(0,0,0,1)">10</tspan></text></g><g transform=" matrix(1 0 0 1 35 281) "><text xml:space="preserve" font-family="Verdana" font-size="11" font-weight="normal" style="stroke: none; stroke-width: 1; stroke-dasharray: none; stroke-linecap: butt; stroke-linejoin: miter; stroke-miterlimit: 10;fill:#000000;fill-opacity:1; fill-rule: nonzero; opacity: 1; white-space: pre" ><tspan x="-15" y="7.48" fill="rgba(0,0,0,1)">12</tspan></text></g><g transform=" matrix(1 0 0 1 35 238) "><text xml:space="preserve" font-family="Verdana" font-size="11" font-weight="normal" style="stroke: none; stroke-width: 1; stroke-dasharray: none; stroke-linecap: butt; stroke-linejoin: miter; stroke-miterlimit: 10;fill:#000000;fill-opacity:1; fill-rule: nonzero; opacity: 1; white-space: pre" ><tspan x="-15" y="7.48" fill="rgba(0,0,0,1)">14</tspan></text></g><g transform=" matrix(1 0 0 1 35 194) "><text xml:space="preserve" font-family="Verdana" font-size="11" font-weight="normal" style="stroke: none; stroke-width: 1; stroke-dasharray: none; stroke-linecap: butt; stroke-linejoin: miter; stroke-miterlimit: 10;fill:#000000;fill-opacity:1; fill-rule: nonzero; opacity: 1; white-space: pre" ><tspan x="-15" y="7.48" fill="rgba(0,0,0,1)">16</tspan></text></g><g transform=" matrix(1 0 0 1 35 150) "><text xml:space="preserve" font-family="Verdana" font-size="11" font-weight="normal" style="stroke: none; stroke-width: 1; stroke-dasharray: none; stroke-linecap: butt; stroke-linejoin: miter; stroke-miterlimit: 10;fill:#000000;fill-opacity:1; fill-rule: nonzero; opacity: 1; white-space: pre" ><tspan x="-15" y="7.48" fill="rgba(0,0,0,1)">18</tspan></text></g><g transform=" matrix(1 0 0 1 35 106) "><text xml:space="preserve" font-family="Verdana" font-size="11" font-weight="normal" style="stroke: none; stroke-width: 1; stroke-dasharray: none; stroke-linecap: butt; stroke-linejoin: miter; stroke-miterlimit: 10;fill:#000000;fill-opacity:1; fill-rule: nonzero; opacity: 1; white-space: pre" ><tspan x="-15" y="7.48" fill="rgba(0,0,0,1)">20</tspan></text></g><g transform=" matrix(1 0 0 1 35 63) "><text xml:space="preserve" font-family="Verdana" font-size="11" font-weight="normal" style="stroke: none; stroke-width: 1; stroke-dasharray: none; stroke-linecap: butt; stroke-linejoin: miter; stroke-miterlimit: 10;fill:#000000;fill-opacity:1; fill-rule: nonzero; opacity: 1; white-space: pre" ><tspan x="-15" y="7.48" fill="rgba(0,0,0,1)">22</tspan></text></g><g transform=" matrix(1 0 0 1 35 19) "><text xml:space="preserve" font-family="Verdana" font-size="11" font-weight="normal" style="stroke: none; stroke-width: 1; stroke-dasharray: none; stroke-linecap: butt; stroke-linejoin: miter; stroke-miterlimit: 10;fill:#000000;fill-opacity:1; fill-rule: nonzero; opacity: 1; white-space: pre" ><tspan x="-15" y="7.48" fill="rgba(0,0,0,1)">24</tspan></text></g></g><clipPath xmlns="http://www.w3.org/2000/svg" id="DSCEl-17"><rect x="-1" y="-1" width="935" height="439" rx="0" ry="0" stroke-width="0" fill="none" fill-opacity="0"/></clipPath><clipPath xmlns="http://www.w3.org/2000/svg" id="DSCEl-19"><rect x="0" y="0" width="933" height="437" rx="0" ry="0" stroke-width="0" fill="none" fill-opacity="0"/></clipPath><clipPath xmlns="http://www.w3.org/2000/svg" id="DSCEl-20"><rect x="0" y="0" width="934" height="438" rx="0" ry="0" stroke-width="0" fill="none" fill-opacity="0"/></clipPath><clipPath xmlns="http://www.w3.org/2000/svg" id="DSCEl-21"><rect x="0" y="0" width="934" height="438" rx="0" ry="0" stroke-width="0" fill="none" fill-opacity="0"/></clipPath><clipPath xmlns="http://www.w3.org/2000/svg" id="DSCEl-18"><rect x="0" y="0" width="933" height="437" rx="0" ry="0" stroke-width="0" fill="none" fill-opacity="0"/></clipPath></svg>
