<?xml version="1.0" encoding="UTF-8" standalone="no" ?><!DOCTYPE svg PUBLIC "-//W3C//DTD SVG 1.1//EN" "http://www.w3.org/Graphics/SVG/1.1/DTD/svg11.dtd"><svg xmlns="http://www.w3.org/2000/svg" xmlns:xlink="http://www.w3.org/1999/xlink" version="1.1" width="1056" height="500" viewBox="0 0 1056 500" xml:space="preserve"><desc>Created with Fabric.js 1.7.19</desc><defs></defs><rect x="0" y="0" width="1056" height="500" fill="#ffffff"></rect><g style="stroke: none; stroke-width: 1; stroke-dasharray: none; stroke-linecap: butt; stroke-linejoin: miter; stroke-miterlimit: 10; fill: none; fill-rule: nonzero; opacity: 1" transform="translate(0 0)" ><path d="M 0.5 0.5 L 1055.5 0.5 L 1055.5 499.5 L 0.5 499.5 Z" style="stroke:#000000;stroke-opacity:1; stroke-opacity: 0; stroke-width: 1; stroke-dasharray: none; stroke-linecap: butt; stroke-linejoin: miter; stroke-miterlimit: 10;fill:#FFFFFF;fill-opacity:1; fill-opacity: 0; fill-rule: nonzero; opacity: 1" transform="" stroke-linecap="round" /><path d="M 191.8 495.91 l 2.87 8.43 l 3.02 -2.96 l 9.45 2.36 l -0.85 3.93 l 8.45 3.99 l 6.07 -1.1 l 11.73 6.53 l 11.14 2.37 l 4.41 2.47 l 7.93 -2.48 l 8.81 5.39 l 6.42 2.46 l 0 0 l -0.29 61.92 l -0.41 89.84 l 7.5 0.44 l 7.5 4.15 l 5.52 6.58 l 7.22 9.78 l 7.24 -8.8 l 7.5 -5.33 l 4.57 7.63 l 5.67 5.86 l 7.72 6.27 l 5.88 10.36 l 9.87 16.24 l 15.03 7.91 l 1.32 9.26 l -3.88 7.62 l -5.24 -5.02 l -7.87 -3.96 l -3.56 -12.68 l -11.56 -11.14 l -5.39 -13.83 l -7.71 -0.46 l -12.67 0.3 l -9.46 -4 l -16.5 -15.44 l -7.41 -2.87 l -13.37 -5.62 l -10.64 1 l -14.65 -7.75 l -8.54 -7.13 l -8.59 2.6 l 0.69 10.76 l -4.31 0.62 l -9.17 2.34 l -7.32 4.4 l -8.95 2.21 v -9.05 l 5.22 -14.52 l 8.47 -3.82 l -1.62 -4.08 l -10.5 7.43 l -6.45 9.48 L 169.57 686 l 4.61 8.12 l -8.97 9.68 l -9.49 4.89 l -8.73 3.17 l -3.13 6.19 l -14.01 5.24 l -3.92 6.35 l -10.87 4.25 l -5.39 -2.33 l -8.57 2.31 l -9.52 2.92 l -8.06 3.09 l -15.29 0.34 l -0.64 -2.74 l 10.79 -4.25 l 9.15 -2.37 l 10.61 -5.76 l 10.46 0.68 l 5.31 -5.08 l 12.97 -6.42 l 2.37 -2.58 l 6.88 -4.06 l 3.48 -10.97 l 5.58 -8.06 l -9.78 2.83 l -1.99 -3.05 l -5.29 4.55 l -3.47 -8.58 l -3.22 4.87 l -1.26 -8.01 l -9 4.19 l -4.71 -1.12 l 1.45 -8.95 l 2.67 -5.11 l -3.54 -6.46 l -10.41 0.39 l -4.4 -8.61 l -4.04 -4.93 l 2.31 -8.42 l -3.72 -7.91 l 5.2 -7.81 l 8.05 -6.82 l 4.58 -7.12 l 5.87 0.36 l 4.11 3.66 l 7.39 -6.02 l 4.68 2.52 l 6.33 -3.59 l 0.34 -7.37 l -3.13 -3.67 l 6.35 -4.88 l -4.14 -0.76 l -7.89 1.7 l -2.89 2.92 l -4.41 -4.75 l -9.88 -0.77 l -8.65 -6.44 l -0.92 -7.01 l -5.42 -11.46 l 10.92 -3.79 l 16.26 -3.71 l 5.19 1.37 l -2.92 7.67 l 13.69 2.75 l -2.8 -11.1 l -6.17 -8.03 l -2.27 -9.16 l -3.95 -8.45 l -6.76 -7.45 l 5.78 -7.51 l 10.57 2.37 l 9.34 -5.56 l 3.41 -7.73 l 7.78 -6.53 l 5.97 -0.64 l 12.31 -5.24 l 4.93 2.18 l 10.31 -7.58 L 191.8 495.91 z M 59.27 587.82 l 3.09 4.29 l 4.68 -0.11 l 4.08 5.78 l 6.04 4.18 l -1.08 1.46 l -6.17 1.5 l -4.07 -4.97 l -1.64 -3.58 l -6.21 -1.19 l -1.13 -1.88 L 59.27 587.82 z M 84.05 658.96 l -5.19 0.99 l -4.04 -4.16 l -3.25 -5.32 l 7.96 -0.37 l 5.42 3 L 84.05 658.96 z M 172.79 720.54 l -8.89 4.49 l -3.56 -4.44 l -0.17 -7.13 l 8.04 -4.19 l 4.56 -1.67 l 5.13 1.72 l 2.78 5.07 L 172.79 720.54 z" style="stroke:#FFFFFF;stroke-opacity:1; stroke-opacity: 0.5; stroke-width: 0.72205078125; stroke-dasharray: none; stroke-linecap: butt; stroke-linejoin: miter; stroke-miterlimit: 10;fill:#67B7DC;fill-opacity:1; fill-opacity: 0.8; fill-rule: nonzero; opacity: 1" transform=" matrix(0.6924720711947848 0 0 0.6924720711947848 130.29251535069918 -24.31588628310203) " stroke-linecap="round" /><path d="M 823.25 403.55 L 831.37 431.02 L 838.53 452.95 L 842.13 459.7 L 844.3 463.54 L 841.61 467.9 L 841.4 475.24 L 842.96 479.38 L 842.96 483.45 L 842.88 487.23 L 844.46 489.98 L 845.75 492.54 L 805.82 497.08 L 794.73 499.45 L 794.58 501.21 L 799.58 506.33 L 798.97 510.92 L 797.83 514.18 L 780.04 513.21 L 776.52 478.48 L 776.84 441.91 L 777.66 412.26 L 775.95 407.99 L 799.35 405.82 z" style="stroke:#FFFFFF;stroke-opacity:1; stroke-opacity: 0.5; stroke-width: 0.72205078125; stroke-dasharray: none; stroke-linecap: butt; stroke-linejoin: miter; stroke-miterlimit: 10;fill:#5CA9CF;fill-opacity:1; fill-opacity: 0.8; fill-rule: nonzero; opacity: 1" transform=" matrix(0.6924720711947848 0 0 0.6924720711947848 130.29251535069918 -24.31588628310203) " stroke-linecap="round" /><path d="M 746.45 386.99 L 746.39 388.88 L 744.74 392.2 L 741.65 394.62 L 741.19 398.42 L 738.45 401.59 L 739.1 408.17 L 737.11 410.42 L 736.87 412.24 L 733.64 414.14 L 733.77 417.43 L 731.63 423.65 L 729.53 425.07 L 726.38 428.35 L 724.64 433.14 L 720.94 441.29 L 720.79 446.7 L 723.3 452.55 L 722.62 457.07 L 706.39 457.09 L 685.47 458.65 L 666.94 459.1 L 667.77 446.16 L 663.36 446.16 L 659.67 446.53 L 658.64 445.06 L 658.85 425.16 L 658.87 403.06 L 654.82 379.13 L 677.08 378.97 L 697.32 378.33 L 716.63 377.44 L 737.54 377.61 L 739.25 380.31 L 737.34 382.88 L 735.44 385.46 L 734.45 387.78 z" style="stroke:#FFFFFF;stroke-opacity:1; stroke-opacity: 0.5; stroke-width: 0.72205078125; stroke-dasharray: none; stroke-linecap: butt; stroke-linejoin: miter; stroke-miterlimit: 10;fill:#67B7DC;fill-opacity:1; fill-opacity: 0.8; fill-rule: nonzero; opacity: 1" transform=" matrix(0.6924720711947848 0 0 0.6924720711947848 130.29251535069918 -24.31588628310203) " stroke-linecap="round" /><path d="M 393.21 351.89 L 374.82 479.32 L 336.43 473.46 L 295.45 449.76 L 268.97 433.11 L 271.6 429.19 L 274.1 429.74 L 277.1 425.71 L 274.42 421.95 L 274.45 418.47 L 274.3 414.34 L 279 409.98 L 282.58 400.09 L 289.13 396.66 L 286.51 391.67 L 284.99 386.99 L 284.28 382.78 L 283.9 379.56 L 283.94 377.49 L 285.97 373.36 L 285.98 368.82 L 286.5 364.43 L 287.5 359.65 L 286.52 356.27 L 288.33 353.79 L 292.12 354.57 L 295.26 356.86 L 297.54 358.24 L 299.42 355.09 L 300.35 354.51 L 303.82 336.59 L 332.7 341.78 L 367.14 347.74 z" style="stroke:#FFFFFF;stroke-opacity:1; stroke-opacity: 0.5; stroke-width: 0.72205078125; stroke-dasharray: none; stroke-linecap: butt; stroke-linejoin: miter; stroke-miterlimit: 10;fill:#5CA9CF;fill-opacity:1; fill-opacity: 0.8; fill-rule: nonzero; opacity: 1" transform=" matrix(0.6924720711947848 0 0 0.6924720711947848 130.29251535069918 -24.31588628310203) " stroke-linecap="round" /><path d="M 227.74 202.25 L 209.97 267.9 L 234.88 306 L 259.69 342.73 L 283.94 377.49 L 283.9 379.56 L 284.28 382.78 L 284.99 386.99 L 286.51 391.67 L 289.13 396.66 L 282.58 400.09 L 279 409.98 L 274.3 414.34 L 274.45 418.47 L 274.42 421.95 L 277.1 425.71 L 274.1 429.74 L 271.6 429.19 L 247.2 426.36 L 225.43 423.15 L 225.09 414.45 L 219.96 401.1 L 203.57 383 L 196.4 380.28 L 190.28 371.27 L 176.35 365.7 L 172.7 360.88 L 173.84 348.28 L 162.81 321.41 L 157.2 286.87 L 159.32 282.02 L 153.91 272.55 L 146.38 250.33 L 149.63 231.97 L 144.55 217.34 L 153.92 200.58 L 159.29 181.87 z" style="stroke:#FFFFFF;stroke-opacity:1; stroke-opacity: 0.5; stroke-width: 0.72205078125; stroke-dasharray: none; stroke-linecap: butt; stroke-linejoin: miter; stroke-miterlimit: 10;fill:#003767;fill-opacity:1; fill-opacity: 0.8; fill-rule: nonzero; opacity: 1" transform=" matrix(0.6924720711947848 0 0 0.6924720711947848 130.29251535069918 -24.31588628310203) " stroke-linecap="round" /><path d="M 524.26 297.34 L 522.11 332.21 L 519.88 365.43 L 502.43 364.1 L 480.73 362.25 L 449.96 359.16 L 421.42 355.72 L 393.21 351.89 L 406.05 262.04 L 423.12 264.4 L 440.2 266.58 L 474.43 270.36 L 491.58 271.97 L 525.81 274.63 L 524.3 296.61 z" style="stroke:#FFFFFF;stroke-opacity:1; stroke-opacity: 0.5; stroke-width: 0.72205078125; stroke-dasharray: none; stroke-linecap: butt; stroke-linejoin: miter; stroke-miterlimit: 10;fill:#5CA9CF;fill-opacity:1; fill-opacity: 0.8; fill-rule: nonzero; opacity: 1" transform=" matrix(0.6924720711947848 0 0 0.6924720711947848 130.29251535069918 -24.31588628310203) " stroke-linecap="round" /><path d="M 1034.84 200.91 L 1038.24 212.85 L 1038.11 216.33 L 1031.11 219.4 L 1021.77 223.02 L 1010.11 231.52 L 1008.84 228.98 L 1011.92 225.92 L 1010.14 224.38 L 1006.81 207.31 L 1019.47 204.48 z" style="stroke:#FFFFFF;stroke-opacity:1; stroke-opacity: 0.5; stroke-width: 0.72205078125; stroke-dasharray: none; stroke-linecap: butt; stroke-linejoin: miter; stroke-miterlimit: 10;fill:#67B7DC;fill-opacity:1; fill-opacity: 0.8; fill-rule: nonzero; opacity: 1" transform=" matrix(0.6924720711947848 0 0 0.6924720711947848 130.29251535069918 -24.31588628310203) " stroke-linecap="round" /><path d="M 963.72 293.35 L 963.53 292.03 L 961.68 290.43 L 962.86 289.07 L 965.55 290.9 z" style="stroke:#FFFFFF;stroke-opacity:1; stroke-opacity: 0.5; stroke-width: 0.72205078125; stroke-dasharray: none; stroke-linecap: butt; stroke-linejoin: miter; stroke-miterlimit: 10;fill:#000000;fill-opacity:1; fill-opacity: 0.4; fill-rule: nonzero; opacity: 1" transform=" matrix(0.6924720711947848 0 0 0.6924720711947848 130.29251535069918 -24.31588628310203) " stroke-linecap="round" /><path d="M 986.93 264.85 L 984.93 267.74 L 986.35 271.89 L 992.67 282.97 L 1000 293.17 L 988.42 295.83 L 980.78 267.93 L 981.69 265.89 L 983 264.55 z" style="stroke:#FFFFFF;stroke-opacity:1; stroke-opacity: 0.5; stroke-width: 0.72205078125; stroke-dasharray: none; stroke-linecap: butt; stroke-linejoin: miter; stroke-miterlimit: 10;fill:#67B7DC;fill-opacity:1; fill-opacity: 0.8; fill-rule: nonzero; opacity: 1" transform=" matrix(0.6924720711947848 0 0 0.6924720711947848 130.29251535069918 -24.31588628310203) " stroke-linecap="round" /><path d="M 915.25 488.75 L 920.47 504.83 L 931.05 522.16 L 942.9 537.63 L 944.43 546.48 L 957.31 568.23 L 961.78 588.44 L 960.97 609.01 L 952.91 614.56 L 942.16 613.5 L 937.22 603.98 L 928.48 599.97 L 914.49 581.98 L 901.97 566.79 L 898.51 556.09 L 899.92 541.71 L 893.44 529.65 L 878.58 517.85 L 866.13 510.74 L 845.03 523.09 L 839.71 517.25 L 819.88 509.08 L 797.83 514.18 L 798.97 510.92 L 799.58 506.33 L 794.58 501.21 L 794.73 499.45 L 805.82 497.08 L 845.75 492.54 L 849.47 498.29 L 869.32 496.79 L 901.59 495.62 L 903.65 499.35 L 905.87 496.93 L 904.7 489.07 L 906.93 487.93 L 911.06 488.99 z" style="stroke:#FFFFFF;stroke-opacity:1; stroke-opacity: 0.5; stroke-width: 0.72205078125; stroke-dasharray: none; stroke-linecap: butt; stroke-linejoin: miter; stroke-miterlimit: 10;fill:#397EA8;fill-opacity:1; fill-opacity: 0.8; fill-rule: nonzero; opacity: 1" transform=" matrix(0.6924720711947848 0 0 0.6924720711947848 130.29251535069918 -24.31588628310203) " stroke-linecap="round" /><path d="M 870.54 397.61 L 868.77 399.77 L 866.4 404.45 L 871.95 407.48 L 875.38 408.38 L 879.89 414.99 L 882.71 418.65 L 890.05 423 L 891.77 425.6 L 896.8 428.57 L 899.84 433.58 L 906.61 437.16 L 908.79 442.08 L 910.32 444.39 L 909.93 446.15 L 913.88 448.03 L 916.46 451.94 L 917.13 456.23 L 919.03 456.77 L 922.51 457.38 L 916.86 475.27 L 915.25 488.75 L 911.06 488.99 L 906.93 487.93 L 904.7 489.07 L 905.87 496.93 L 903.65 499.35 L 901.59 495.62 L 869.32 496.79 L 849.47 498.29 L 845.75 492.54 L 844.46 489.98 L 842.88 487.23 L 842.96 483.45 L 842.96 479.38 L 841.4 475.24 L 841.61 467.9 L 844.3 463.54 L 842.13 459.7 L 838.53 452.95 L 831.37 431.02 L 823.25 403.55 L 837.59 402.05 L 847.46 400.57 z" style="stroke:#FFFFFF;stroke-opacity:1; stroke-opacity: 0.5; stroke-width: 0.72205078125; stroke-dasharray: none; stroke-linecap: butt; stroke-linejoin: miter; stroke-miterlimit: 10;fill:#509BC2;fill-opacity:1; fill-opacity: 0.8; fill-rule: nonzero; opacity: 1" transform=" matrix(0.6924720711947848 0 0 0.6924720711947848 130.29251535069918 -24.31588628310203) " stroke-linecap="round" /><path d="M 443.39 612.09 l -3.04 0.1 l -1.75 -2.38 l -0.9 -4.35 l 2.24 -0.78 l 3.28 0.52 l 3.31 2.87 l -0.17 1.63 L 443.39 612.09 z M 460.92 640.38 l -0.66 3.48 l -2.99 -1.37 l -0.62 -2.43 l -1.04 -0.48 l -0.48 -0.1 l -1.92 -1.63 l 1.05 -6.3 l 2.46 1.6 l 3.75 0.34 l -1 5.34 L 460.92 640.38 z M 472.36 657.57 l -3.54 -0.18 l -5.86 -6.16 l 2.14 -1.41 L 472.36 657.57 z M 472.75 661.08 l 0.38 3.47 l 3.3 1.61 l 1.96 5.74 l -0.91 1.33 l -2.35 0.03 l -5.18 -3 l 1.42 -4.08 l -1.82 -1.98 l 0.38 -3.08 l 1.6 -0.74 L 472.75 661.08 z M 464.41 705.67 l -3.3 1.32 l -2.68 -4.91 l 3.87 -5.3 l 2.25 -8.02 l 6.97 -1.6 l 0.83 -3.42 l 1.47 -1.3 l 0.87 0.25 l 6.34 12.29 l 0.27 3.33 l -1.3 2.37 l 1.01 1.2 l -0.53 1.9 l 0.83 3.79 l -6.57 0.44 l -4.82 -2.11 L 464.41 705.67 z" style="stroke:#FFFFFF;stroke-opacity:1; stroke-opacity: 0.5; stroke-width: 0.72205078125; stroke-dasharray: none; stroke-linecap: butt; stroke-linejoin: miter; stroke-miterlimit: 10;fill:#67B7DC;fill-opacity:1; fill-opacity: 0.8; fill-rule: nonzero; opacity: 1" transform=" matrix(0.6924720711947848 0 0 0.6924720711947848 130.29251535069918 -24.31588628310203) " stroke-linecap="round" /><path d="M 708.74 219.26 L 709.04 220.49 L 711.39 223.98 L 710 225.78 L 710.31 230.55 L 711.1 232.54 L 712.37 236.09 L 717.96 237.96 L 719.79 241.33 L 720.87 243 L 722.93 244.04 L 723.88 246.44 L 726.64 248.09 L 728.51 249.94 L 727.99 256.09 L 725.17 261.42 L 724.13 263.12 L 720.32 264.66 L 714.53 266.11 L 713.21 270.09 L 715.43 271.74 L 716.35 275.21 L 714.32 279.26 L 713.36 282.76 L 709.11 286.36 L 708.97 290.51 L 706.51 288.74 L 703.03 285.22 L 684.16 286.48 L 664.27 287.22 L 648.77 287.52 L 633.24 287.62 L 632.09 283.51 L 632.57 279.45 L 632.19 275.54 L 630.42 268.99 L 629.29 266.28 L 628.06 265.54 L 627.94 260.29 L 626.88 256.53 L 623.81 252.24 L 623.86 250.36 L 622.8 246.61 L 622.06 244.34 L 622.09 242.26 L 619.39 239.72 L 620.76 236 L 621.65 232.36 L 622.06 229.89 L 619.95 226.86 L 620.01 221.31 L 622.21 221.31 L 640.32 221.33 L 662.83 220.7 L 687.01 219.83 z" style="stroke:#FFFFFF;stroke-opacity:1; stroke-opacity: 0.5; stroke-width: 0.72205078125; stroke-dasharray: none; stroke-linecap: butt; stroke-linejoin: miter; stroke-miterlimit: 10;fill:#67B7DC;fill-opacity:1; fill-opacity: 0.8; fill-rule: nonzero; opacity: 1" transform=" matrix(0.6924720711947848 0 0 0.6924720711947848 130.29251535069918 -24.31588628310203) " stroke-linecap="round" /><path d="M 384.7 178.06 L 385.21 178.56 L 375.87 234.37 L 326.11 225.41 L 276.58 214.43 L 286.18 174.71 L 289.06 168.74 L 288.45 165.54 L 285.82 163.34 L 286.7 159.8 L 290.12 155.29 L 294.56 151.7 L 298.48 145.04 L 301.92 139.8 L 304.17 137.26 L 304.11 133.69 L 301.91 131.28 L 299.24 126.14 L 300.3 122.21 L 299.68 118.48 L 306.56 87.28 L 313.23 58.66 L 327.79 61.98 L 323.71 85.85 L 326.37 92.69 L 325.47 96.73 L 327.51 100.93 L 330.57 103.82 L 332.38 107.84 L 335.18 115.68 L 338.48 119.77 L 343.09 120.94 L 340.37 125.56 L 337.65 131.15 L 337.77 137.18 L 335.65 138.25 L 334.63 144.02 L 336.98 146.81 L 340.63 144.78 L 342.87 141.95 L 344.65 142.95 L 345.92 146.4 L 346.33 153.84 L 348.59 157.19 L 348.46 163.24 L 349.11 165.06 L 352.25 166.24 L 353.6 169.87 L 355.34 176.23 L 358.88 173.67 L 363.99 175.46 L 364.82 173.33 L 373.63 176.35 L 377.44 176.27 L 380.5 172.2 L 382.13 173.11 L 383.16 176.53 z" style="stroke:#FFFFFF;stroke-opacity:1; stroke-opacity: 0.5; stroke-width: 0.72205078125; stroke-dasharray: none; stroke-linecap: butt; stroke-linejoin: miter; stroke-miterlimit: 10;fill:#67B7DC;fill-opacity:1; fill-opacity: 0.8; fill-rule: nonzero; opacity: 1" transform=" matrix(0.6924720711947848 0 0 0.6924720711947848 130.29251535069918 -24.31588628310203) " stroke-linecap="round" /><path d="M 980.78 267.93 L 988.42 295.83 L 1000 293.17 L 1001.44 294.94 L 996.49 304.07 L 992.51 305.34 L 991.48 307.17 L 980.22 298.59 L 975.8 282.14 L 974.67 290.56 L 979.11 309.68 L 967.2 305.35 L 965.52 302.45 L 962.88 304.01 L 960.31 303.28 L 961.26 297.92 L 963.79 295.21 L 963.72 293.35 L 965.55 290.9 L 962.86 289.07 L 961.68 290.43 L 957.94 288.63 L 954.01 288.05 L 954.78 285.4 L 952.15 284.2 L 949.46 283.97 L 947.53 281.41 L 944.79 278.66 L 939.12 277.96 L 936.14 280.29 L 934.58 282.31 L 929.32 282.4 L 927.46 285.17 L 924.2 286.7 L 921.71 289.82 L 919.42 292.31 L 917.49 280.96 L 933.46 277.97 L 938.9 276.86 L 951.06 274.31 L 965.73 271.32 z" style="stroke:#FFFFFF;stroke-opacity:1; stroke-opacity: 0.5; stroke-width: 0.72205078125; stroke-dasharray: none; stroke-linecap: butt; stroke-linejoin: miter; stroke-miterlimit: 10;fill:#5CA9CF;fill-opacity:1; fill-opacity: 0.8; fill-rule: nonzero; opacity: 1" transform=" matrix(0.6924720711947848 0 0 0.6924720711947848 130.29251535069918 -24.31588628310203) " stroke-linecap="round" /><path d="M 728.42 114.75 L 728.41 114.76 L 713.15 123.35 L 702.62 133.13 L 692.46 143.3 L 692.56 146.66 L 688.46 148.11 L 689.15 160.93 L 688.65 160.93 L 684.81 163.61 L 681.49 165.93 L 679.36 170.21 L 682.88 174.37 L 681.86 180.15 L 682.07 186.34 L 681.75 191.37 L 686.66 195.58 L 688.61 195.71 L 694.02 198.73 L 695.92 200.19 L 697.18 202.59 L 701.49 206.31 L 707.21 209.4 L 707.84 211.25 L 708.17 216.72 L 708.74 219.26 L 687.01 219.83 L 662.83 220.7 L 640.32 221.33 L 622.21 221.31 L 622.54 200.03 L 620.69 178.18 L 617.89 176.38 L 616.33 172.84 L 617.22 169.75 L 620.82 167.22 L 621.12 163.9 L 621.15 159.74 L 620.18 156.26 L 618.88 152.54 L 618.15 147.88 L 618 142.66 L 617.48 141.4 L 616.9 134.67 L 616.87 131.58 L 616.59 128.83 L 615.86 124.17 L 614.03 119.43 L 612.29 115.2 L 612.08 111.02 L 611.94 106.51 L 612.5 103.57 L 612.63 100.89 L 611.25 97.55 L 611.06 95.28 L 642.49 95.37 L 642.44 86.5 L 647.55 86.32 L 650.41 98.96 L 655.22 102.79 L 665.92 103.97 L 681.65 107.14 L 696.84 113.64 L 709.12 109.99 L 728.41 114.75 z" style="stroke:#FFFFFF;stroke-opacity:1; stroke-opacity: 0.5; stroke-width: 0.72205078125; stroke-dasharray: none; stroke-linecap: butt; stroke-linejoin: miter; stroke-miterlimit: 10;fill:#5CA9CF;fill-opacity:1; fill-opacity: 0.8; fill-rule: nonzero; opacity: 1" transform=" matrix(0.6924720711947848 0 0 0.6924720711947848 130.29251535069918 -24.31588628310203) " stroke-linecap="round" /><path d="M 501.84 159.67 L 499.16 180.45 L 472.33 177.57 L 443.38 174.28 L 418.47 170.63 L 386.97 165.87 L 385.13 177.31 L 384.7 178.06 L 383.16 176.53 L 382.13 173.11 L 380.5 172.2 L 377.44 176.27 L 373.63 176.35 L 364.82 173.33 L 363.99 175.46 L 358.88 173.67 L 355.34 176.23 L 353.6 169.87 L 352.25 166.24 L 349.11 165.06 L 348.46 163.24 L 348.59 157.19 L 346.33 153.84 L 345.92 146.4 L 344.65 142.95 L 342.87 141.95 L 340.63 144.78 L 336.98 146.81 L 334.63 144.02 L 335.65 138.25 L 337.77 137.18 L 337.65 131.15 L 340.37 125.56 L 343.09 120.94 L 338.48 119.77 L 335.18 115.68 L 332.38 107.84 L 330.57 103.82 L 327.51 100.93 L 325.47 96.73 L 326.37 92.69 L 323.71 85.85 L 327.79 61.98 L 372.22 71.15 L 416.94 78.85 L 461.89 85.08 L 507.02 89.83 L 503.5 131.88 z" style="stroke:#FFFFFF;stroke-opacity:1; stroke-opacity: 0.5; stroke-width: 0.72205078125; stroke-dasharray: none; stroke-linecap: butt; stroke-linejoin: miter; stroke-miterlimit: 10;fill:#67B7DC;fill-opacity:1; fill-opacity: 0.8; fill-rule: nonzero; opacity: 1" transform=" matrix(0.6924720711947848 0 0 0.6924720711947848 130.29251535069918 -24.31588628310203) " stroke-linecap="round" /><path d="M 326.11 225.41 L 303.82 336.59 L 300.35 354.51 L 299.42 355.09 L 297.54 358.24 L 295.26 356.86 L 292.12 354.57 L 288.33 353.79 L 286.52 356.27 L 287.5 359.65 L 286.5 364.43 L 285.98 368.82 L 285.97 373.36 L 283.94 377.49 L 259.69 342.73 L 234.88 306 L 209.97 267.9 L 227.74 202.25 L 276.56 214.49 L 276.58 214.43 z" style="stroke:#FFFFFF;stroke-opacity:1; stroke-opacity: 0.5; stroke-width: 0.72205078125; stroke-dasharray: none; stroke-linecap: butt; stroke-linejoin: miter; stroke-miterlimit: 10;fill:#67B7DC;fill-opacity:1; fill-opacity: 0.8; fill-rule: nonzero; opacity: 1" transform=" matrix(0.6924720711947848 0 0 0.6924720711947848 130.29251535069918 -24.31588628310203) " stroke-linecap="round" /><path d="M 654.82 379.13 L 658.87 403.06 L 658.85 425.16 L 658.64 445.06 L 650.4 440.72 L 645.06 438.36 L 640.76 439.93 L 634.09 439.72 L 630.14 439.76 L 626.89 441.61 L 623.71 442.55 L 620.93 441.42 L 614.58 442.61 L 611.74 438.79 L 608.74 442.04 L 603.58 440.5 L 598.33 436.88 L 592.59 439.04 L 590.23 433.51 L 581.41 433.82 L 575.82 432.43 L 569.54 430.6 L 566.91 425.79 L 561.9 427.12 L 558.91 425.14 L 554.53 422.51 L 555.49 400.85 L 556.46 378.64 L 538.16 377.73 L 519.86 376.63 L 501.59 375.32 L 502.43 364.1 L 519.88 365.43 L 536.98 366.45 L 555.14 367.35 L 573.32 368.04 L 606.07 368.79 L 638.81 368.9 L 654.77 368.71 L 654.86 368.71 z" style="stroke:#FFFFFF;stroke-opacity:1; stroke-opacity: 0.5; stroke-width: 0.72205078125; stroke-dasharray: none; stroke-linecap: butt; stroke-linejoin: miter; stroke-miterlimit: 10;fill:#67B7DC;fill-opacity:1; fill-opacity: 0.8; fill-rule: nonzero; opacity: 1" transform=" matrix(0.6924720711947848 0 0 0.6924720711947848 130.29251535069918 -24.31588628310203) " stroke-linecap="round" /><path d="M 299.24 126.14 L 301.91 131.28 L 304.11 133.69 L 304.17 137.26 L 301.92 139.8 L 298.48 145.04 L 294.56 151.7 L 290.12 155.29 L 286.7 159.8 L 285.82 163.34 L 288.45 165.54 L 289.06 168.74 L 286.18 174.71 L 276.58 214.43 L 276.56 214.49 L 227.74 202.25 L 159.29 181.87 L 158.03 168.07 L 170.35 146.42 L 179.28 122.31 L 192.49 90.34 L 195.72 91.03 L 200.31 92.59 L 203.38 95.72 L 207.41 98.33 L 208.97 103.37 L 208.26 107.16 L 208.47 110.57 L 211.77 112.47 L 215.57 113.53 L 222.2 112.96 L 225.89 113.27 L 231.12 115.79 L 233.22 117.63 L 236.67 117.76 L 240.68 116.96 L 247.56 119.17 L 253.95 118.28 L 257.44 117.29 L 261.12 119.3 L 267.26 118.43 z" style="stroke:#FFFFFF;stroke-opacity:1; stroke-opacity: 0.5; stroke-width: 0.72205078125; stroke-dasharray: none; stroke-linecap: butt; stroke-linejoin: miter; stroke-miterlimit: 10;fill:#67B7DC;fill-opacity:1; fill-opacity: 0.8; fill-rule: nonzero; opacity: 1" transform=" matrix(0.6924720711947848 0 0 0.6924720711947848 130.29251535069918 -24.31588628310203) " stroke-linecap="round" /><path d="M 991.08 227.52 L 989.28 228.98 L 987.53 234.61 L 985.31 237.18 L 986.88 239.85 L 985.55 243.01 L 986.3 246.58 L 988.29 246.84 L 989.13 249.11 L 995.8 253.57 L 994.19 256.49 L 990.85 260.36 L 989.95 262.02 L 986.93 264.85 L 983 264.55 L 981.69 265.89 L 980.78 267.93 L 965.73 271.32 L 951.06 274.31 L 938.9 276.86 L 933.46 277.97 L 917.49 280.96 L 899.53 284.16 L 895.99 263.59 L 890.88 233.62 L 890.88 233.62 L 902.3 224.93 L 902.33 224.89 L 903.43 230.95 L 929.39 226.03 L 953.56 221.02 L 976.03 216.05 L 980.43 218.69 L 982.87 220.23 L 983 222.77 L 984.83 225.73 L 988.02 226.6 z" style="stroke:#FFFFFF;stroke-opacity:1; stroke-opacity: 0.5; stroke-width: 0.72205078125; stroke-dasharray: none; stroke-linecap: butt; stroke-linejoin: miter; stroke-miterlimit: 10;fill:#458CB5;fill-opacity:1; fill-opacity: 0.8; fill-rule: nonzero; opacity: 1" transform=" matrix(0.6924720711947848 0 0 0.6924720711947848 130.29251535069918 -24.31588628310203) " stroke-linecap="round" /><path d="M 1049.14 209.17 L 1038.11 216.33 L 1038.24 212.85 L 1034.84 200.91 L 1041.66 198.77 L 1044.47 204.17 L 1047.75 205.96 z" style="stroke:#FFFFFF;stroke-opacity:1; stroke-opacity: 0.5; stroke-width: 0.72205078125; stroke-dasharray: none; stroke-linecap: butt; stroke-linejoin: miter; stroke-miterlimit: 10;fill:#67B7DC;fill-opacity:1; fill-opacity: 0.8; fill-rule: nonzero; opacity: 1" transform=" matrix(0.6924720711947848 0 0 0.6924720711947848 130.29251535069918 -24.31588628310203) " stroke-linecap="round" /><path d="M 958.75 408.49 L 954.4 425.6 L 940.47 442.52 L 922.51 457.38 L 919.03 456.77 L 917.13 456.23 L 916.46 451.94 L 913.88 448.03 L 909.93 446.15 L 910.32 444.39 L 908.79 442.08 L 906.61 437.16 L 899.84 433.58 L 896.8 428.57 L 891.77 425.6 L 890.05 423 L 882.71 418.65 L 879.89 414.99 L 875.38 408.38 L 871.95 407.48 L 866.4 404.45 L 868.77 399.77 L 870.54 397.61 L 872.29 396.68 L 881.69 391.36 L 898.72 388.9 L 907.51 388.53 L 907.98 390.48 L 909.59 388.69 L 913.11 392 L 913.5 394.62 L 934.04 391.25 z" style="stroke:#FFFFFF;stroke-opacity:1; stroke-opacity: 0.5; stroke-width: 0.72205078125; stroke-dasharray: none; stroke-linecap: butt; stroke-linejoin: miter; stroke-miterlimit: 10;fill:#5CA9CF;fill-opacity:1; fill-opacity: 0.8; fill-rule: nonzero; opacity: 1" transform=" matrix(0.6924720711947848 0 0 0.6924720711947848 130.29251535069918 -24.31588628310203) " stroke-linecap="round" /><path d="M 622.21 221.31 L 620.01 221.31 L 619.95 226.86 L 622.06 229.89 L 621.65 232.36 L 620.76 236 L 619.39 239.72 L 622.09 242.26 L 622.06 244.34 L 619.24 244.01 L 617.8 242.91 L 617.05 241.01 L 612.47 239.07 L 608.18 236.09 L 602.2 236.22 L 598.22 236.06 L 596.76 237.07 L 590.65 235.11 L 586.41 232.12 L 552.96 230.8 L 527.96 229.32 L 495.46 226.79 L 499.16 180.45 L 501.84 159.67 L 532.22 161.94 L 564.87 163.67 L 590.77 164.65 L 621.12 163.9 L 620.82 167.22 L 617.22 169.75 L 616.33 172.84 L 617.89 176.38 L 620.69 178.18 L 622.54 200.03 z" style="stroke:#FFFFFF;stroke-opacity:1; stroke-opacity: 0.5; stroke-width: 0.72205078125; stroke-dasharray: none; stroke-linecap: butt; stroke-linejoin: miter; stroke-miterlimit: 10;fill:#67B7DC;fill-opacity:1; fill-opacity: 0.8; fill-rule: nonzero; opacity: 1" transform=" matrix(0.6924720711947848 0 0 0.6924720711947848 130.29251535069918 -24.31588628310203) " stroke-linecap="round" /><path d="M 406.05 262.04 L 393.21 351.89 L 367.14 347.74 L 332.7 341.78 L 303.82 336.59 L 326.11 225.41 L 375.87 234.37 L 372.15 256.16 z" style="stroke:#FFFFFF;stroke-opacity:1; stroke-opacity: 0.5; stroke-width: 0.72205078125; stroke-dasharray: none; stroke-linecap: butt; stroke-linejoin: miter; stroke-miterlimit: 10;fill:#67B7DC;fill-opacity:1; fill-opacity: 0.8; fill-rule: nonzero; opacity: 1" transform=" matrix(0.6924720711947848 0 0 0.6924720711947848 130.29251535069918 -24.31588628310203) " stroke-linecap="round" /><path d="M 949.46 283.97 l 2.68 0.24 l 2.64 1.19 l -0.78 2.65 l 3.93 0.58 l 3.75 1.8 l 1.84 1.6 l 0.19 1.32 l 0.07 1.86 l -2.52 2.71 l -0.95 5.36 l 2.57 0.72 l 2.64 -1.56 l 1.68 2.91 l 13.73 10.02 l 5.74 9.84 l 0.35 0.6 l 8.2 12.61 l -19.16 4.32 l -18.93 4.11 l -35.87 6.68 l -30.61 4.16 l -9.1 1.87 l -27.04 3.14 l 5.06 -2 l 3.53 -1.92 l 1.3 -2.42 l 4.55 -3.38 l 1.57 -2.65 l 0.17 -1.88 l 5.21 -3.46 l 6.13 -7.78 l 1.39 3.68 l 2.33 1.71 l 3.01 1.37 l 5.21 -3.61 l 2.41 1.22 l 6.36 -2.98 l 0.05 -2.07 l 2.15 0.45 l 1.93 -2.01 l 2.54 -0.11 l 2.53 -2.22 l 0.03 -2.11 L 911.2 328 l 1.72 -4.29 l 2.9 -3.52 l 0.28 -3.45 l 2.3 -4.51 l 0.8 -5.16 l 2.64 1.3 l 2.9 1.11 l 2.36 -1.33 l 0.46 -2.19 l 1.2 -3.09 l 1.34 -3.53 l 1.44 0.69 l 2.03 -3.37 l 2.84 -3.57 l 1.72 -2.63 l 0.2 -6.19 l 10.03 4.26 L 949.46 283.97 z M 988.81 323.46 l 1.81 0.52 l 5.88 -19.91 l -3.99 1.27 l -1.03 1.82 L 988.81 323.46 z" style="stroke:#FFFFFF;stroke-opacity:1; stroke-opacity: 0.5; stroke-width: 0.72205078125; stroke-dasharray: none; stroke-linecap: butt; stroke-linejoin: miter; stroke-miterlimit: 10;fill:#5CA9CF;fill-opacity:1; fill-opacity: 0.8; fill-rule: nonzero; opacity: 1" transform=" matrix(0.6924720711947848 0 0 0.6924720711947848 130.29251535069918 -24.31588628310203) " stroke-linecap="round" /><path d="M 1019.95 188.12 L 1006.47 191.24 L 1002.51 172.89 L 1000.17 173.31 L 999.66 172.55 L 999.87 169.09 L 996.94 163.69 L 997.38 158.72 L 995.65 155.57 L 993.6 149.11 L 993.51 146.1 L 992.69 141.54 L 1021.52 133.86 L 1021.55 133.87 L 1021.37 140.36 L 1023.4 143.19 L 1023.53 146.09 L 1020.7 149.61 L 1017.94 151.5 L 1017.99 153.78 L 1018.58 157.42 L 1018.09 163.14 L 1017.3 165.41 L 1016.72 170.27 L 1017.56 175.61 L 1017.43 177.12 L 1018.57 182.99 L 1018.05 186.18 z" style="stroke:#FFFFFF;stroke-opacity:1; stroke-opacity: 0.5; stroke-width: 0.72205078125; stroke-dasharray: none; stroke-linecap: butt; stroke-linejoin: miter; stroke-miterlimit: 10;fill:#67B7DC;fill-opacity:1; fill-opacity: 0.8; fill-rule: nonzero; opacity: 1" transform=" matrix(0.6924720711947848 0 0 0.6924720711947848 130.29251535069918 -24.31588628310203) " stroke-linecap="round" /><path d="M 313.23 58.66 L 306.56 87.28 L 299.68 118.48 L 300.3 122.21 L 299.24 126.14 L 267.26 118.43 L 261.12 119.3 L 257.44 117.29 L 253.95 118.28 L 247.56 119.17 L 240.68 116.96 L 236.67 117.76 L 233.22 117.63 L 231.12 115.79 L 225.89 113.27 L 222.2 112.96 L 215.57 113.53 L 211.77 112.47 L 208.47 110.57 L 208.26 107.16 L 208.97 103.37 L 207.41 98.33 L 203.38 95.72 L 200.31 92.59 L 195.72 91.03 L 192.49 90.34 L 194.19 70.89 L 198.52 49.07 L 217.79 59.52 L 219.14 78.74 L 224.58 74.04 L 227.61 55.27 L 226.19 34.98 L 269.51 47.56 z" style="stroke:#FFFFFF;stroke-opacity:1; stroke-opacity: 0.5; stroke-width: 0.72205078125; stroke-dasharray: none; stroke-linecap: butt; stroke-linejoin: miter; stroke-miterlimit: 10;fill:#5CA9CF;fill-opacity:1; fill-opacity: 0.8; fill-rule: nonzero; opacity: 1" transform=" matrix(0.6924720711947848 0 0 0.6924720711947848 130.29251535069918 -24.31588628310203) " stroke-linecap="round" /><path d="M 718.02 148.31 L 718.17 148.42 L 719.11 147.88 L 719.13 147.95 L 721.66 148.55 L 723.2 152.58 L 737.33 155.69 L 746.81 159.08 L 751.29 158.75 L 754.41 158.78 L 755.61 162.45 L 759.51 163.56 L 761.21 166.63 L 760.4 168.55 L 760 172.31 L 763.55 172.19 L 762.7 175.96 L 765.09 178.45 L 765.1 178.41 L 765.53 178.53 L 765.4 178.76 L 759.81 187.53 L 762.25 190.02 L 772.73 174.27 L 775.14 173.95 L 768.45 192.24 L 766.23 208.39 L 764.26 221.5 L 767.34 232.41 L 767.4 237.97 L 767.34 237.97 L 767.35 238.03 L 754.43 238.94 L 736.92 240.23 L 719.79 241.33 L 717.96 237.96 L 712.37 236.09 L 711.1 232.54 L 710.31 230.55 L 710 225.78 L 711.39 223.98 L 709.04 220.49 L 708.74 219.26 L 708.17 216.72 L 707.84 211.25 L 707.21 209.4 L 701.49 206.31 L 697.18 202.59 L 695.92 200.19 L 694.02 198.73 L 688.61 195.71 L 686.66 195.58 L 681.75 191.37 L 682.07 186.34 L 681.86 180.15 L 682.88 174.37 L 679.36 170.21 L 681.49 165.93 L 684.81 163.61 L 688.65 160.93 L 689.15 160.93 L 688.46 148.11 L 692.56 146.66 L 692.56 146.66 L 708.07 141.11 z" style="stroke:#FFFFFF;stroke-opacity:1; stroke-opacity: 0.5; stroke-width: 0.72205078125; stroke-dasharray: none; stroke-linecap: butt; stroke-linejoin: miter; stroke-miterlimit: 10;fill:#5CA9CF;fill-opacity:1; fill-opacity: 0.8; fill-rule: nonzero; opacity: 1" transform=" matrix(0.6924720711947848 0 0 0.6924720711947848 130.29251535069918 -24.31588628310203) " stroke-linecap="round" /><path d="M 1046.95 172.11 L 1045.32 172.81 L 1043.71 169.97 L 1039.84 167.56 L 1039.83 165.23 L 1026.54 125.88 L 1031.85 120.24 L 1034.43 108.68 L 1034.08 90.22 L 1040.58 70.21 L 1047.3 74.47 L 1056.14 67.64 L 1064.77 71.84 L 1074.29 101.57 L 1088.28 110.6 L 1091.52 119.75 L 1078.66 131.52 L 1065.07 141.37 L 1051.08 159.84 z" style="stroke:#FFFFFF;stroke-opacity:1; stroke-opacity: 0.5; stroke-width: 0.72205078125; stroke-dasharray: none; stroke-linecap: butt; stroke-linejoin: miter; stroke-miterlimit: 10;fill:#67B7DC;fill-opacity:1; fill-opacity: 0.8; fill-rule: nonzero; opacity: 1" transform=" matrix(0.6924720711947848 0 0 0.6924720711947848 130.29251535069918 -24.31588628310203) " stroke-linecap="round" /><path d="M 810.31 140.6 L 810.31 140.6 l 5.32 0.03 l 0 0 l -1.7 2.51 l 9.03 8.01 L 809.3 155 l -0.54 -0.04 l -12.74 -0.9 l -11.87 5.92 l -10.61 3.16 l -8.01 15.38 l -0.43 -0.12 l -0.01 0.04 l -2.39 -2.49 l 0.85 -3.77 l -3.55 0.12 l 0.4 -3.76 l 0.81 -1.92 l -1.7 -3.07 l -3.89 -1.11 l -1.2 -3.67 l -3.12 -0.03 l -4.49 0.34 l -9.47 -3.39 l -14.14 -3.12 l -1.54 -4.03 l -2.52 -0.59 l -0.02 -0.07 l -0.95 0.53 l -0.15 -0.11 l 0.14 0.1 l 11.76 -6.62 l 12 -8.35 l 13.09 -8.73 l -3.95 12.49 l 9.13 2.13 l 11.89 7.63 l 13.42 -6.53 l 15.16 -3.76 l 4.06 5.97 l 4.91 0.32 L 810.31 140.6 z M 855.86 215.95 L 855.86 215.95 l -0.37 0.36 l -5.98 13.52 l -2.54 8.4 h 0 l -4.54 9.49 l 0 0 l -6.33 1.07 l -7.68 1.01 l -8.62 1.26 l -0.23 -1.76 l -15.88 1.99 l -18.21 1.84 v 0 l 0 0 l 3.1 -3.48 l 5.66 -11.73 l -1.15 -14.96 l -6.97 -13.41 l -0.19 -9.69 l 3.06 -11.57 l 3.2 -8.06 l 5.82 -6.16 l 2.38 7.43 l 1.52 -11.52 l 3.25 -2.73 l 1.18 -8.89 l 14.08 2.82 l 13 7.22 l 2.75 10.08 l -0.03 10.5 l -7.71 10.26 l 1.6 5.57 l 3.28 -0.25 l 8.73 -11.34 l 6.35 1.38 l 4.89 12.62 l 2.21 9.1 L 855.86 215.95 z" style="stroke:#FFFFFF;stroke-opacity:1; stroke-opacity: 0.5; stroke-width: 0.72205078125; stroke-dasharray: none; stroke-linecap: butt; stroke-linejoin: miter; stroke-miterlimit: 10;fill:#509BC2;fill-opacity:1; fill-opacity: 0.8; fill-rule: nonzero; opacity: 1" transform=" matrix(0.6924720711947848 0 0 0.6924720711947848 130.29251535069918 -24.31588628310203) " stroke-linecap="round" /><path d="M 1006.47 191.24 L 1006.81 207.31 L 1010.14 224.38 L 1011.92 225.92 L 1008.84 228.98 L 1010.11 231.52 L 1032.89 222.46 L 1038.92 225.29 L 1017.3 238.01 L 1006.63 240.74 L 1005.97 233.13 L 991.08 227.52 L 988.02 226.6 L 984.83 225.73 L 983 222.77 L 982.87 220.23 L 980.43 218.69 L 976.03 216.05 L 953.56 221.02 L 929.39 226.03 L 903.43 230.95 L 902.33 224.89 L 914.06 208.94 L 913.34 206.86 L 913.33 206.8 L 909.87 200.77 L 917.84 196.33 L 930.8 194.61 L 944.51 193.68 L 955.07 183.7 L 952.2 175.26 L 949.61 172.2 L 949.54 172.18 L 949.55 172.17 L 949.62 172.2 L 962.67 153.32 L 968.84 147.56 L 992.69 141.54 L 993.51 146.1 L 993.6 149.11 L 995.65 155.57 L 997.38 158.72 L 996.94 163.69 L 999.87 169.09 L 999.66 172.55 L 1000.17 173.31 L 1002.51 172.89 z" style="stroke:#FFFFFF;stroke-opacity:1; stroke-opacity: 0.5; stroke-width: 0.72205078125; stroke-dasharray: none; stroke-linecap: butt; stroke-linejoin: miter; stroke-miterlimit: 10;fill:#2E709B;fill-opacity:1; fill-opacity: 0.8; fill-rule: nonzero; opacity: 1" transform=" matrix(0.6924720711947848 0 0 0.6924720711947848 130.29251535069918 -24.31588628310203) " stroke-linecap="round" /><path d="M 895.99 263.59 L 893.82 265.11 L 895.03 267.83 L 895.11 273.12 L 894.33 279.24 L 893.47 284.35 L 893.57 286.7 L 889.71 292.59 L 887.88 294.01 L 885.64 295.02 L 883.46 294.86 L 880.19 299.33 L 880.12 303.48 L 879.92 305.75 L 878.5 306.88 L 877.89 304.42 L 875.44 304.24 L 873.72 309.48 L 874.2 314.49 L 872.38 317.95 L 868.09 319.18 L 864.48 317.51 L 862.62 314.57 L 859.34 315.44 L 855.74 317.21 L 852.46 316.35 L 848.35 317.55 L 845.39 316.1 L 841.45 315.01 L 836.11 310.54 L 832.73 308.77 L 826.66 309 L 824.84 293.39 L 822.26 271.46 L 819.8 251.07 L 828.42 249.81 L 836.1 248.8 L 842.43 247.72 L 842.43 247.72 L 842.43 247.73 L 853.5 250.9 L 862.09 250.8 L 873.84 245.91 L 882.78 238.09 L 890.88 233.62 z" style="stroke:#FFFFFF;stroke-opacity:1; stroke-opacity: 0.5; stroke-width: 0.72205078125; stroke-dasharray: none; stroke-linecap: butt; stroke-linejoin: miter; stroke-miterlimit: 10;fill:#458CB5;fill-opacity:1; fill-opacity: 0.8; fill-rule: nonzero; opacity: 1" transform=" matrix(0.6924720711947848 0 0 0.6924720711947848 130.29251535069918 -24.31588628310203) " stroke-linecap="round" /><path d="M 1005.97 233.13 L 1002.85 245.27 L 1007.3 245.2 L 1008.29 261.79 L 999.91 281.76 L 997.29 276.39 L 993.25 276.13 L 987.8 271.3 L 986.35 271.89 L 984.93 267.74 L 986.93 264.85 L 989.95 262.02 L 990.85 260.36 L 994.19 256.49 L 995.8 253.57 L 989.13 249.11 L 988.29 246.84 L 986.3 246.58 L 985.55 243.01 L 986.88 239.85 L 985.31 237.18 L 987.53 234.61 L 989.28 228.98 L 991.08 227.52 z" style="stroke:#FFFFFF;stroke-opacity:1; stroke-opacity: 0.5; stroke-width: 0.72205078125; stroke-dasharray: none; stroke-linecap: butt; stroke-linejoin: miter; stroke-miterlimit: 10;fill:#509BC2;fill-opacity:1; fill-opacity: 0.8; fill-rule: nonzero; opacity: 1" transform=" matrix(0.6924720711947848 0 0 0.6924720711947848 130.29251535069918 -24.31588628310203) " stroke-linecap="round" /><path d="M 502.43 364.1 L 501.59 375.32 L 497.01 434.63 L 493.71 477.35 L 475.73 475.87 L 440.89 472.47 L 423.5 470.51 L 423.48 472.47 L 425.23 476.34 L 391.9 472.15 L 390.39 481.45 L 374.82 479.32 L 393.21 351.89 L 421.42 355.72 L 449.96 359.16 L 480.73 362.25 z" style="stroke:#FFFFFF;stroke-opacity:1; stroke-opacity: 0.5; stroke-width: 0.72205078125; stroke-dasharray: none; stroke-linecap: butt; stroke-linejoin: miter; stroke-miterlimit: 10;fill:#67B7DC;fill-opacity:1; fill-opacity: 0.8; fill-rule: nonzero; opacity: 1" transform=" matrix(0.6924720711947848 0 0 0.6924720711947848 130.29251535069918 -24.31588628310203) " stroke-linecap="round" /><path d="M 917.49 280.96 L 919.42 292.31 L 921.71 289.82 L 924.2 286.7 L 927.46 285.17 L 929.32 282.4 L 934.58 282.31 L 936.14 280.29 L 939.12 277.96 L 944.79 278.66 L 947.53 281.41 L 949.46 283.97 L 948.37 288.54 L 938.34 284.28 L 938.14 290.47 L 936.42 293.1 L 933.58 296.67 L 931.55 300.04 L 930.11 299.35 L 928.76 302.87 L 927.56 305.97 L 927.1 308.15 L 924.75 309.48 L 921.84 308.37 L 919.2 307.07 L 918.4 312.23 L 916.1 316.74 L 915.82 320.19 L 912.93 323.71 L 911.2 328 L 911.95 330.57 L 911.92 332.68 L 909.4 334.9 L 906.86 335.01 L 904.93 337.02 L 902.78 336.56 L 902.73 338.63 L 896.37 341.61 L 893.96 340.38 L 888.75 343.99 L 885.75 342.62 L 883.41 340.91 L 882.03 337.23 L 878.49 337.35 L 876.29 334.91 L 873.25 332.39 L 871.88 329.12 L 869.24 325.93 L 868.74 321.26 L 868.09 319.18 L 872.38 317.95 L 874.2 314.49 L 873.72 309.48 L 875.44 304.24 L 877.89 304.42 L 878.5 306.88 L 879.92 305.75 L 880.12 303.48 L 880.19 299.33 L 883.46 294.86 L 885.64 295.02 L 887.88 294.01 L 889.71 292.59 L 893.57 286.7 L 893.47 284.35 L 894.33 279.24 L 895.11 273.12 L 895.03 267.83 L 893.82 265.11 L 895.99 263.59 L 899.53 284.16 z" style="stroke:#FFFFFF;stroke-opacity:1; stroke-opacity: 0.5; stroke-width: 0.72205078125; stroke-dasharray: none; stroke-linecap: butt; stroke-linejoin: miter; stroke-miterlimit: 10;fill:#67B7DC;fill-opacity:1; fill-opacity: 0.8; fill-rule: nonzero; opacity: 1" transform=" matrix(0.6924720711947848 0 0 0.6924720711947848 130.29251535069918 -24.31588628310203) " stroke-linecap="round" /><path d="M 499.16 180.45 L 495.46 226.79 L 491.58 271.97 L 474.43 270.36 L 440.2 266.58 L 423.12 264.4 L 406.05 262.04 L 372.15 256.16 L 375.87 234.37 L 385.21 178.56 L 384.7 178.06 L 385.13 177.31 L 386.97 165.87 L 418.47 170.63 L 443.38 174.28 L 472.33 177.57 z" style="stroke:#FFFFFF;stroke-opacity:1; stroke-opacity: 0.5; stroke-width: 0.72205078125; stroke-dasharray: none; stroke-linecap: butt; stroke-linejoin: miter; stroke-miterlimit: 10;fill:#67B7DC;fill-opacity:1; fill-opacity: 0.8; fill-rule: nonzero; opacity: 1" transform=" matrix(0.6924720711947848 0 0 0.6924720711947848 130.29251535069918 -24.31588628310203) " stroke-linecap="round" /><path d="M 767.4 237.97 L 767.4 238.03 L 768.06 243.91 L 773.71 255.38 L 773.71 255.38 L 773.71 255.38 L 776.14 281.56 L 778.56 307.71 L 777.15 314.18 L 778.75 315.7 L 780.04 319.47 L 780.19 322.52 L 778.83 324.03 L 777.89 327.89 L 774.65 333.15 L 772.69 339.44 L 772.52 344.06 L 772.79 345.73 L 771.03 349.05 L 772.75 351.05 L 769.73 352.97 L 765.81 355.21 L 766.92 360.09 L 764.7 362.15 L 760.16 360.41 L 755.25 359.56 L 754.19 361.85 L 755.15 365.22 L 751.67 361.95 L 749.76 362.68 L 747.04 357.29 L 747.46 353.85 L 745.73 348.47 L 743.87 347.93 L 738.83 343.28 L 736.79 343.33 L 733.04 340.37 L 730.3 337.13 L 731.2 333.08 L 732.64 329.68 L 733.38 325.44 L 729.78 322.01 L 726.52 323.68 L 724.45 322.85 L 723.94 319.08 L 722.22 314.86 L 720.54 313.92 L 716.32 311.1 L 712.77 307.43 L 709.63 302.92 L 707.74 296.22 L 708.97 290.51 L 709.11 286.36 L 713.36 282.76 L 714.32 279.26 L 716.35 275.21 L 715.43 271.74 L 713.21 270.09 L 714.53 266.11 L 720.32 264.66 L 724.13 263.12 L 725.17 261.42 L 727.99 256.09 L 728.51 249.94 L 726.64 248.09 L 723.88 246.44 L 722.93 244.04 L 720.87 243 L 719.79 241.33 L 736.92 240.23 L 754.43 238.94 L 767.35 238.03 L 767.34 237.97 z" style="stroke:#FFFFFF;stroke-opacity:1; stroke-opacity: 0.5; stroke-width: 0.72205078125; stroke-dasharray: none; stroke-linecap: butt; stroke-linejoin: miter; stroke-miterlimit: 10;fill:#458CB5;fill-opacity:1; fill-opacity: 0.8; fill-rule: nonzero; opacity: 1" transform=" matrix(0.6924720711947848 0 0 0.6924720711947848 130.29251535069918 -24.31588628310203) " stroke-linecap="round" /><path d="M 819.8 251.07 L 822.26 271.46 L 824.84 293.39 L 826.66 309 L 825.79 310.19 L 827.78 314.61 L 827.23 316.37 L 824.27 316.77 L 821.75 319.09 L 817.48 318.77 L 817.61 323.14 L 815.31 325.08 L 813.42 329.22 L 810.98 330.21 L 807.81 337.35 L 803.98 335.81 L 802.57 333.17 L 799.94 337.99 L 798.22 340.71 L 794.11 338.45 L 790.21 341.01 L 789.07 343.34 L 783.23 340.43 L 779.62 343.26 L 774.85 341.93 L 774.89 344.44 L 772.52 344.06 L 772.69 339.44 L 774.65 333.15 L 777.89 327.89 L 778.83 324.03 L 780.19 322.52 L 780.04 319.47 L 778.75 315.7 L 777.15 314.18 L 778.56 307.71 L 776.14 281.56 L 773.71 255.38 L 773.71 255.38 L 775.41 256.76 L 781.16 256.08 L 785.48 253.14 L 785.48 253.14 L 803.69 251.3 L 819.57 249.31 z" style="stroke:#FFFFFF;stroke-opacity:1; stroke-opacity: 0.5; stroke-width: 0.72205078125; stroke-dasharray: none; stroke-linecap: butt; stroke-linejoin: miter; stroke-miterlimit: 10;fill:#5CA9CF;fill-opacity:1; fill-opacity: 0.8; fill-rule: nonzero; opacity: 1" transform=" matrix(0.6924720711947848 0 0 0.6924720711947848 130.29251535069918 -24.31588628310203) " stroke-linecap="round" /><path d="M 622.06 244.34 L 622.8 246.61 L 623.86 250.36 L 623.81 252.24 L 626.88 256.53 L 627.94 260.29 L 628.06 265.54 L 629.29 266.28 L 630.42 268.99 L 632.19 275.54 L 632.57 279.45 L 632.09 283.51 L 633.24 287.62 L 633.59 289.49 L 636.52 293.07 L 639.23 295.96 L 641.53 300.79 L 617.51 300.79 L 577.39 299.98 L 554.73 299.07 L 524.29 297.34 L 524.26 297.34 L 524.3 296.61 L 525.81 274.63 L 491.58 271.97 L 495.46 226.79 L 527.96 229.32 L 552.96 230.8 L 586.41 232.12 L 590.65 235.11 L 596.76 237.07 L 598.22 236.06 L 602.2 236.22 L 608.18 236.09 L 612.47 239.07 L 617.05 241.01 L 617.8 242.91 L 619.24 244.01 z" style="stroke:#FFFFFF;stroke-opacity:1; stroke-opacity: 0.5; stroke-width: 0.72205078125; stroke-dasharray: none; stroke-linecap: butt; stroke-linejoin: miter; stroke-miterlimit: 10;fill:#67B7DC;fill-opacity:1; fill-opacity: 0.8; fill-rule: nonzero; opacity: 1" transform=" matrix(0.6924720711947848 0 0 0.6924720711947848 130.29251535069918 -24.31588628310203) " stroke-linecap="round" /><path d="M 1046.95 172.11 L 1045.63 177.8 L 1043.61 177.93 L 1040.61 180.37 L 1039.54 183 L 1019.95 188.12 L 1018.05 186.18 L 1018.57 182.99 L 1017.43 177.12 L 1017.56 175.61 L 1016.72 170.27 L 1017.3 165.41 L 1018.09 163.14 L 1018.58 157.42 L 1017.99 153.78 L 1017.94 151.5 L 1020.7 149.61 L 1023.53 146.09 L 1023.4 143.19 L 1021.37 140.36 L 1021.55 133.87 L 1021.52 133.86 L 1021.57 128.01 L 1026.54 125.88 L 1039.83 165.23 L 1039.84 167.56 L 1043.71 169.97 L 1045.32 172.81 z" style="stroke:#FFFFFF;stroke-opacity:1; stroke-opacity: 0.5; stroke-width: 0.72205078125; stroke-dasharray: none; stroke-linecap: butt; stroke-linejoin: miter; stroke-miterlimit: 10;fill:#67B7DC;fill-opacity:1; fill-opacity: 0.8; fill-rule: nonzero; opacity: 1" transform=" matrix(0.6924720711947848 0 0 0.6924720711947848 130.29251535069918 -24.31588628310203) " stroke-linecap="round" /><path d="M 654.77 368.71 L 638.81 368.9 L 606.07 368.79 L 573.32 368.04 L 555.14 367.35 L 536.98 366.45 L 519.88 365.43 L 522.11 332.21 L 524.26 297.34 L 524.29 297.34 L 554.73 299.07 L 577.39 299.98 L 617.51 300.79 L 641.53 300.79 L 645.7 303.78 L 647.97 303.71 L 648.51 306.99 L 646.09 311.22 L 647.45 313.36 L 649.68 318.1 L 654.35 320.18 L 654.53 344.47 z" style="stroke:#FFFFFF;stroke-opacity:1; stroke-opacity: 0.5; stroke-width: 0.72205078125; stroke-dasharray: none; stroke-linecap: butt; stroke-linejoin: miter; stroke-miterlimit: 10;fill:#67B7DC;fill-opacity:1; fill-opacity: 0.8; fill-rule: nonzero; opacity: 1" transform=" matrix(0.6924720711947848 0 0 0.6924720711947848 130.29251535069918 -24.31588628310203) " stroke-linecap="round" /><path d="M 1045.63 177.8 L 1048.77 189.44 L 1057.46 199.48 L 1064.38 198.06 L 1060.35 190.6 L 1066.65 194.01 L 1067.17 200.62 L 1057.15 207.36 L 1049.14 209.17 L 1047.75 205.96 L 1044.47 204.17 L 1041.66 198.77 L 1034.84 200.91 L 1019.47 204.48 L 1006.81 207.31 L 1006.47 191.24 L 1019.95 188.12 L 1039.54 183 L 1040.61 180.37 L 1043.61 177.93 z" style="stroke:#FFFFFF;stroke-opacity:1; stroke-opacity: 0.5; stroke-width: 0.72205078125; stroke-dasharray: none; stroke-linecap: butt; stroke-linejoin: miter; stroke-miterlimit: 10;fill:#5CA9CF;fill-opacity:1; fill-opacity: 0.8; fill-rule: nonzero; opacity: 1" transform=" matrix(0.6924720711947848 0 0 0.6924720711947848 130.29251535069918 -24.31588628310203) " stroke-linecap="round" /><path d="M 708.97 290.51 L 707.74 296.22 L 709.63 302.92 L 712.77 307.43 L 716.32 311.1 L 720.54 313.92 L 722.22 314.86 L 723.94 319.08 L 724.45 322.85 L 726.52 323.68 L 729.78 322.01 L 733.38 325.44 L 732.64 329.68 L 731.2 333.08 L 730.3 337.13 L 733.04 340.37 L 736.79 343.33 L 738.83 343.28 L 743.87 347.93 L 745.73 348.47 L 747.46 353.85 L 747.04 357.29 L 749.76 362.68 L 751.67 361.95 L 755.15 365.22 L 754.75 367.53 L 755.37 371.06 L 752.62 373.16 L 748.7 375.84 L 748.38 378.06 L 747.49 381.37 L 746.45 386.99 L 734.45 387.78 L 735.44 385.46 L 737.34 382.88 L 739.25 380.31 L 737.54 377.61 L 716.63 377.44 L 697.32 378.33 L 677.08 378.97 L 654.82 379.13 L 654.86 368.71 L 654.77 368.71 L 654.53 344.47 L 654.35 320.18 L 649.68 318.1 L 647.45 313.36 L 646.09 311.22 L 648.51 306.99 L 647.97 303.71 L 645.7 303.78 L 641.53 300.79 L 639.23 295.96 L 636.52 293.07 L 633.59 289.49 L 633.24 287.62 L 648.77 287.52 L 664.27 287.22 L 684.16 286.48 L 703.03 285.22 L 706.51 288.74 z" style="stroke:#FFFFFF;stroke-opacity:1; stroke-opacity: 0.5; stroke-width: 0.72205078125; stroke-dasharray: none; stroke-linecap: butt; stroke-linejoin: miter; stroke-miterlimit: 10;fill:#5CA9CF;fill-opacity:1; fill-opacity: 0.8; fill-rule: nonzero; opacity: 1" transform=" matrix(0.6924720711947848 0 0 0.6924720711947848 130.29251535069918 -24.31588628310203) " stroke-linecap="round" /><path d="M 775.95 407.99 L 777.66 412.26 L 776.84 441.91 L 776.52 478.48 L 780.04 513.21 L 768.32 519.32 L 756.89 519.79 L 756.36 517.55 L 755.39 513.82 L 752.61 511.35 L 751.16 508.55 L 752.21 504.72 L 752.51 500.89 L 733.98 502.02 L 716.6 502.22 L 715.53 496.56 L 717.8 493.89 L 719.3 488.3 L 720.81 483.43 L 724.38 479.68 L 725.04 475.33 L 727.6 472.85 L 724.89 469.07 L 725.53 466.21 L 722.49 461.68 L 724.06 458.3 L 722.62 457.07 L 723.3 452.55 L 720.79 446.7 L 720.94 441.29 L 724.64 433.14 L 726.38 428.35 L 729.53 425.07 L 731.63 423.65 L 733.77 417.43 L 733.64 414.14 L 736.87 412.24 L 737.11 410.42 L 755.47 409.14 z" style="stroke:#FFFFFF;stroke-opacity:1; stroke-opacity: 0.5; stroke-width: 0.72205078125; stroke-dasharray: none; stroke-linecap: butt; stroke-linejoin: miter; stroke-miterlimit: 10;fill:#67B7DC;fill-opacity:1; fill-opacity: 0.8; fill-rule: nonzero; opacity: 1" transform=" matrix(0.6924720711947848 0 0 0.6924720711947848 130.29251535069918 -24.31588628310203) " stroke-linecap="round" /><path d="M 868.09 319.18 L 868.74 321.26 L 869.24 325.93 L 871.88 329.12 L 873.25 332.39 L 876.29 334.91 L 878.49 337.35 L 882.03 337.23 L 875.89 345 L 870.68 348.46 L 870.51 350.34 L 868.95 352.99 L 864.4 356.38 L 863.09 358.79 L 859.56 360.71 L 854.51 362.7 L 842.33 365.07 L 826.21 366.09 L 821.02 366.98 L 810.52 367.52 L 799.86 368.47 L 790.05 369.33 L 778.72 371.03 L 778.04 370.05 L 774.43 370.42 L 774.8 373.97 L 748.7 375.84 L 752.62 373.16 L 755.37 371.06 L 754.75 367.53 L 755.15 365.22 L 754.19 361.85 L 755.25 359.56 L 760.16 360.41 L 764.7 362.15 L 766.92 360.09 L 765.81 355.21 L 769.73 352.97 L 772.75 351.05 L 771.03 349.05 L 772.79 345.73 L 772.52 344.06 L 774.89 344.44 L 774.85 341.93 L 779.62 343.26 L 783.23 340.43 L 789.07 343.34 L 790.21 341.01 L 794.11 338.45 L 798.22 340.71 L 799.94 337.99 L 802.57 333.17 L 803.98 335.81 L 807.81 337.35 L 810.98 330.21 L 813.42 329.22 L 815.31 325.08 L 817.61 323.14 L 817.48 318.77 L 821.75 319.09 L 824.27 316.77 L 827.23 316.37 L 827.78 314.61 L 825.79 310.19 L 826.66 309 L 832.73 308.77 L 836.11 310.54 L 841.45 315.01 L 845.39 316.1 L 848.35 317.55 L 852.46 316.35 L 855.74 317.21 L 859.34 315.44 L 862.62 314.57 L 864.48 317.51 z" style="stroke:#FFFFFF;stroke-opacity:1; stroke-opacity: 0.5; stroke-width: 0.72205078125; stroke-dasharray: none; stroke-linecap: butt; stroke-linejoin: miter; stroke-miterlimit: 10;fill:#5CA9CF;fill-opacity:1; fill-opacity: 0.8; fill-rule: nonzero; opacity: 1" transform=" matrix(0.6924720711947848 0 0 0.6924720711947848 130.29251535069918 -24.31588628310203) " stroke-linecap="round" /><path d="M 722.62 457.07 L 724.06 458.3 L 722.49 461.68 L 725.53 466.21 L 724.89 469.07 L 727.6 472.85 L 725.04 475.33 L 724.38 479.68 L 720.81 483.43 L 719.3 488.3 L 717.8 493.89 L 715.53 496.56 L 716.6 502.22 L 733.98 502.02 L 752.51 500.89 L 752.21 504.72 L 751.16 508.55 L 752.61 511.35 L 755.39 513.82 L 756.36 517.55 L 756.89 519.79 L 755.26 529.47 L 762.48 542.76 L 734.86 545.47 L 717.53 541.69 L 705.74 537.49 L 690.4 535.09 L 673.04 534.9 L 671.32 531.91 L 673.27 528.5 L 676.18 525.4 L 676.12 520.83 L 674.63 519.34 L 676.22 513.83 L 677.42 511.32 L 679.1 502.91 L 677.27 499.84 L 674.87 494.7 L 673.07 489.45 L 671.9 485.95 L 668.65 483.45 L 666.94 459.1 L 685.47 458.65 L 706.39 457.09 z" style="stroke:#FFFFFF;stroke-opacity:1; stroke-opacity: 0.5; stroke-width: 0.72205078125; stroke-dasharray: none; stroke-linecap: butt; stroke-linejoin: miter; stroke-miterlimit: 10;fill:#5CA9CF;fill-opacity:1; fill-opacity: 0.8; fill-rule: nonzero; opacity: 1" transform=" matrix(0.6924720711947848 0 0 0.6924720711947848 130.29251535069918 -24.31588628310203) " stroke-linecap="round" /><path d="M 854.51 362.7 L 881.54 359.56 L 890.64 357.69 L 890.63 360.58 L 891.33 363.75 L 887.79 365.3 L 885.58 369.5 L 882.37 369.54 L 876.28 374.79 L 874.51 373.03 L 870.36 376.75 L 870.69 378.36 L 867.46 380.66 L 865.93 382.9 L 862.01 385.43 L 857.83 387.06 L 854.18 388.16 L 851.93 391.24 L 850.98 393.82 L 847.25 395.75 L 847.46 400.57 L 837.59 402.05 L 823.25 403.55 L 799.35 405.82 L 775.95 407.99 L 755.47 409.14 L 737.11 410.42 L 739.1 408.17 L 738.45 401.59 L 741.19 398.42 L 741.65 394.62 L 744.74 392.2 L 746.39 388.88 L 746.45 386.99 L 747.49 381.37 L 748.38 378.06 L 748.7 375.84 L 774.8 373.97 L 774.43 370.42 L 778.04 370.05 L 778.72 371.03 L 790.05 369.33 L 799.86 368.47 L 810.52 367.52 L 821.02 366.98 L 826.21 366.09 L 842.33 365.07 z" style="stroke:#FFFFFF;stroke-opacity:1; stroke-opacity: 0.5; stroke-width: 0.72205078125; stroke-dasharray: none; stroke-linecap: butt; stroke-linejoin: miter; stroke-miterlimit: 10;fill:#5CA9CF;fill-opacity:1; fill-opacity: 0.8; fill-rule: nonzero; opacity: 1" transform=" matrix(0.6924720711947848 0 0 0.6924720711947848 130.29251535069918 -24.31588628310203) " stroke-linecap="round" /><path d="M 658.64 445.06 L 659.67 446.53 L 663.36 446.16 L 667.77 446.16 L 666.94 459.1 L 668.65 483.45 L 671.9 485.95 L 673.07 489.45 L 674.87 494.7 L 677.27 499.84 L 679.1 502.91 L 677.42 511.32 L 676.22 513.83 L 674.63 519.34 L 676.12 520.83 L 676.18 525.4 L 673.27 528.5 L 671.32 531.91 L 673.04 534.9 L 656.02 540.04 L 637.82 557.24 L 617.61 567.14 L 606.35 578.03 L 601.48 588.34 L 601.04 604.28 L 601.91 615.41 L 605.78 623.36 L 597.58 623.93 L 582.8 618.52 L 566.71 610.86 L 561.26 599.79 L 557.33 583.46 L 545.79 569.82 L 539.4 556.02 L 530.11 539.78 L 516.53 529.83 L 500.18 529.18 L 486.19 546.32 L 470.08 538.07 L 460.36 530.23 L 456.6 517.21 L 451.21 504.67 L 440.58 493.46 L 431.39 485.2 L 425.23 476.34 L 423.48 472.47 L 423.5 470.51 L 440.89 472.47 L 475.73 475.87 L 493.71 477.35 L 497.01 434.63 L 501.59 375.32 L 519.86 376.63 L 538.16 377.73 L 556.46 378.64 L 555.49 400.85 L 554.53 422.51 L 558.91 425.14 L 561.9 427.12 L 566.91 425.79 L 569.54 430.6 L 575.82 432.43 L 581.41 433.82 L 590.23 433.51 L 592.59 439.04 L 598.33 436.88 L 603.58 440.5 L 608.74 442.04 L 611.74 438.79 L 614.58 442.61 L 620.93 441.42 L 623.71 442.55 L 626.89 441.61 L 630.14 439.76 L 634.09 439.72 L 640.76 439.93 L 645.06 438.36 L 650.4 440.72 z" style="stroke:#FFFFFF;stroke-opacity:1; stroke-opacity: 0.5; stroke-width: 0.72205078125; stroke-dasharray: none; stroke-linecap: butt; stroke-linejoin: miter; stroke-miterlimit: 10;fill:#22628E;fill-opacity:1; fill-opacity: 0.8; fill-rule: nonzero; opacity: 1" transform=" matrix(0.6924720711947848 0 0 0.6924720711947848 130.29251535069918 -24.31588628310203) " stroke-linecap="round" /><path d="M 995.21 338.43 L 1002.75 360 L 994.84 379.03 L 978.65 391.44 L 965.08 405.88 L 958.75 408.49 L 934.04 391.25 L 913.5 394.62 L 913.11 392 L 909.59 388.69 L 907.98 390.48 L 907.51 388.53 L 898.72 388.9 L 881.69 391.36 L 872.29 396.68 L 870.54 397.61 L 847.46 400.57 L 847.25 395.75 L 850.98 393.82 L 851.93 391.24 L 854.18 388.16 L 857.83 387.06 L 862.01 385.43 L 865.93 382.9 L 867.46 380.66 L 870.69 378.36 L 870.36 376.75 L 874.51 373.03 L 876.28 374.79 L 882.37 369.54 L 885.58 369.5 L 887.79 365.3 L 891.33 363.75 L 890.63 360.58 L 890.64 357.69 L 921.25 353.54 L 957.11 346.86 L 976.05 342.75 z" style="stroke:#FFFFFF;stroke-opacity:1; stroke-opacity: 0.5; stroke-width: 0.72205078125; stroke-dasharray: none; stroke-linecap: butt; stroke-linejoin: miter; stroke-miterlimit: 10;fill:#509BC2;fill-opacity:1; fill-opacity: 0.8; fill-rule: nonzero; opacity: 1" transform=" matrix(0.6924720711947848 0 0 0.6924720711947848 130.29251535069918 -24.31588628310203) " stroke-linecap="round" /><path d="M 611.06 95.28 L 611.25 97.55 L 612.63 100.89 L 612.5 103.57 L 611.94 106.51 L 612.08 111.02 L 612.29 115.2 L 614.03 119.43 L 615.86 124.17 L 616.59 128.83 L 616.87 131.58 L 616.9 134.67 L 617.48 141.4 L 618 142.66 L 618.15 147.88 L 618.88 152.54 L 620.18 156.26 L 621.15 159.74 L 621.12 163.9 L 590.77 164.65 L 564.87 163.67 L 532.22 161.94 L 501.84 159.67 L 503.5 131.88 L 507.02 89.83 L 559.45 93.57 z" style="stroke:#FFFFFF;stroke-opacity:1; stroke-opacity: 0.5; stroke-width: 0.72205078125; stroke-dasharray: none; stroke-linecap: butt; stroke-linejoin: miter; stroke-miterlimit: 10;fill:#67B7DC;fill-opacity:1; fill-opacity: 0.8; fill-rule: nonzero; opacity: 1" transform=" matrix(0.6924720711947848 0 0 0.6924720711947848 130.29251535069918 -24.31588628310203) " stroke-linecap="round" /><path d="M 1.5 32.5 L 19.5 32.5" style="stroke:#000000;stroke-opacity:1; stroke-opacity: 0; stroke-width: 1; stroke-dasharray: none; stroke-linecap: butt; stroke-linejoin: miter; stroke-miterlimit: 10; fill: none; fill-rule: nonzero; opacity: 1" transform=" matrix(1 0 0 1 16.166666666666664 58) " stroke-linecap="round" /><path d="M 1.5 32.5 L 19.5 32.5" style="stroke:#000000;stroke-opacity:1; stroke-opacity: 0; stroke-width: 1; stroke-dasharray: none; stroke-linecap: butt; stroke-linejoin: miter; stroke-miterlimit: 10; fill: none; fill-rule: nonzero; opacity: 1" transform=" matrix(1 0 0 1 16.166666666666664 58) " stroke-linecap="round" /><path d="M 1.5 33.5 L 19.5 33.5" style="stroke:#000000;stroke-opacity:1; stroke-opacity: 0; stroke-width: 1; stroke-dasharray: none; stroke-linecap: butt; stroke-linejoin: miter; stroke-miterlimit: 10; fill: none; fill-rule: nonzero; opacity: 1" transform=" matrix(1 0 0 1 16.166666666666664 58) " stroke-linecap="round" /><path d="M 1.5 34.5 L 19.5 34.5" style="stroke:#000000;stroke-opacity:1; stroke-opacity: 0; stroke-width: 1; stroke-dasharray: none; stroke-linecap: butt; stroke-linejoin: miter; stroke-miterlimit: 10; fill: none; fill-rule: nonzero; opacity: 1" transform=" matrix(1 0 0 1 16.166666666666664 58) " stroke-linecap="round" /><path d="M 1.5 35.5 L 19.5 35.5" style="stroke:#000000;stroke-opacity:1; stroke-opacity: 0; stroke-width: 1; stroke-dasharray: none; stroke-linecap: butt; stroke-linejoin: miter; stroke-miterlimit: 10; fill: none; fill-rule: nonzero; opacity: 1" transform=" matrix(1 0 0 1 16.166666666666664 58) " stroke-linecap="round" /><path d="M 1.5 35.5 L 19.5 35.5" style="stroke:#000000;stroke-opacity:1; stroke-opacity: 0; stroke-width: 1; stroke-dasharray: none; stroke-linecap: butt; stroke-linejoin: miter; stroke-miterlimit: 10; fill: none; fill-rule: nonzero; opacity: 1" transform=" matrix(1 0 0 1 16.166666666666664 58) " stroke-linecap="round" /><rect x="0.5" y="0.5" rx="2" ry="2" width="21" height="1" style="stroke:#000000;stroke-opacity:1; stroke-opacity: 0.1; stroke-width: 1; stroke-dasharray: none; stroke-linecap: butt; stroke-linejoin: miter; stroke-miterlimit: 10;fill:#FFFFFF;fill-opacity:1; fill-opacity: 0.7; fill-rule: nonzero; opacity: 0" transform=" matrix(1 0 0 1 15 92) "/><circle cx="0" cy="0" r="15.5" style="stroke:#000000;stroke-opacity:1; stroke-opacity: 0.1; stroke-width: 1; stroke-dasharray: none; stroke-linecap: butt; stroke-linejoin: miter; stroke-miterlimit: 10;fill:#FFFFFF;fill-opacity:1; fill-opacity: 0.7; fill-rule: nonzero; opacity: 1" transform="  matrix(1 0 0 1 26 73) "/><path d="M -6.5 0.5 L 7.5 0.5" style="stroke:#A7A7A7;stroke-opacity:1; stroke-width: 1; stroke-dasharray: none; stroke-linecap: butt; stroke-linejoin: miter; stroke-miterlimit: 10; fill: none; fill-rule: nonzero; opacity: 1" transform=" matrix(1 0 0 1 26 73) " stroke-linecap="round" /><path d="M 0.5 -6.5 L 0.5 7.5" style="stroke:#A7A7A7;stroke-opacity:1; stroke-width: 1; stroke-dasharray: none; stroke-linecap: butt; stroke-linejoin: miter; stroke-miterlimit: 10; fill: none; fill-rule: nonzero; opacity: 1" transform=" matrix(1 0 0 1 26 73) " stroke-linecap="round" /><circle cx="0" cy="0" r="15.5" style="stroke:#000000;stroke-opacity:1; stroke-opacity: 0.1; stroke-width: 1; stroke-dasharray: none; stroke-linecap: butt; stroke-linejoin: miter; stroke-miterlimit: 10;fill:#FFFFFF;fill-opacity:1; fill-opacity: 0.7; fill-rule: nonzero; opacity: 1" transform="  matrix(1 0 0 1 26 109) "/><path d="M -6.5 0.5 L 7.5 0.5" style="stroke:#A7A7A7;stroke-opacity:1; stroke-width: 1; stroke-dasharray: none; stroke-linecap: butt; stroke-linejoin: miter; stroke-miterlimit: 10; fill: none; fill-rule: nonzero; opacity: 1" transform=" matrix(1 0 0 1 26 109) " stroke-linecap="round" /><circle cx="0" cy="0" r="15.5" style="stroke:#000000;stroke-opacity:1; stroke-opacity: 0.1; stroke-width: 1; stroke-dasharray: none; stroke-linecap: butt; stroke-linejoin: miter; stroke-miterlimit: 10;fill:#FFFFFF;fill-opacity:1; fill-opacity: 0.7; fill-rule: nonzero; opacity: 1" transform="  matrix(1 0 0 1 26 26) "/><path d="M -6.5 0.5 L 0.5 -6.5 L 7.5 0.5 L 6.5 0.5 L 6.5 6.5 L 2.5 6.5 L 2.5 2.5 L -1.5 2.5 L -1.5 6.5 L -5.5 6.5 L -5.5 0.5 Z" style="stroke:#A7A7A7;stroke-opacity:1; stroke-width: 1; stroke-dasharray: none; stroke-linecap: butt; stroke-linejoin: miter; stroke-miterlimit: 10;fill:#A7A7A7;fill-opacity:1; fill-rule: nonzero; opacity: 1" transform=" matrix(1 0 0 1 26 26) " stroke-linecap="round" /><g transform=" matrix(1 0 0 1 843 467) "><text xml:space="preserve" font-family="Verdana" font-size="11" font-weight="normal" style="stroke: none; stroke-width: 1; stroke-dasharray: none; stroke-linecap: butt; stroke-linejoin: miter; stroke-miterlimit: 10;fill:#000000;fill-opacity:1; fill-rule: nonzero; opacity: 1; white-space: pre" ><tspan x="0" y="7.48" fill="rgba(0,0,0,1)">little</tspan></text></g><g transform=" matrix(1 0 0 1 1043 467) "><text xml:space="preserve" font-family="Verdana" font-size="11" font-weight="normal" style="stroke: none; stroke-width: 1; stroke-dasharray: none; stroke-linecap: butt; stroke-linejoin: miter; stroke-miterlimit: 10;fill:#000000;fill-opacity:1; fill-rule: nonzero; opacity: 1; white-space: pre" ><tspan x="-30" y="7.48" fill="rgba(0,0,0,1)">a lot!</tspan></text></g><rect x="0.5" y="0.5" rx="0" ry="0" width="20" height="12" style="stroke:#FFFFFF;stroke-opacity:1; stroke-width: 1; stroke-dasharray: none; stroke-linecap: butt; stroke-linejoin: miter; stroke-miterlimit: 10;fill:#67B7DC;fill-opacity:1; fill-rule: nonzero; opacity: 1" transform=" matrix(1 0 0 1 843 477) "/><rect x="0.5" y="0.5" rx="0" ry="0" width="20" height="12" style="stroke:#FFFFFF;stroke-opacity:1; stroke-width: 1; stroke-dasharray: none; stroke-linecap: butt; stroke-linejoin: miter; stroke-miterlimit: 10;fill:#5CA9CF;fill-opacity:1; fill-rule: nonzero; opacity: 1" transform=" matrix(1 0 0 1 863 477) "/><rect x="0.5" y="0.5" rx="0" ry="0" width="20" height="12" style="stroke:#FFFFFF;stroke-opacity:1; stroke-width: 1; stroke-dasharray: none; stroke-linecap: butt; stroke-linejoin: miter; stroke-miterlimit: 10;fill:#509BC2;fill-opacity:1; fill-rule: nonzero; opacity: 1" transform=" matrix(1 0 0 1 883 477) "/><rect x="0.5" y="0.5" rx="0" ry="0" width="20" height="12" style="stroke:#FFFFFF;stroke-opacity:1; stroke-width: 1; stroke-dasharray: none; stroke-linecap: butt; stroke-linejoin: miter; stroke-miterlimit: 10;fill:#458CB5;fill-opacity:1; fill-rule: nonzero; opacity: 1" transform=" matrix(1 0 0 1 903 477) "/><rect x="0.5" y="0.5" rx="0" ry="0" width="20" height="12" style="stroke:#FFFFFF;stroke-opacity:1; stroke-width: 1; stroke-dasharray: none; stroke-linecap: butt; stroke-linejoin: miter; stroke-miterlimit: 10;fill:#397EA8;fill-opacity:1; fill-rule: nonzero; opacity: 1" transform=" matrix(1 0 0 1 923 477) "/><rect x="0.5" y="0.5" rx="0" ry="0" width="20" height="12" style="stroke:#FFFFFF;stroke-opacity:1; stroke-width: 1; stroke-dasharray: none; stroke-linecap: butt; stroke-linejoin: miter; stroke-miterlimit: 10;fill:#2E709B;fill-opacity:1; fill-rule: nonzero; opacity: 1" transform=" matrix(1 0 0 1 943 477) "/><rect x="0.5" y="0.5" rx="0" ry="0" width="20" height="12" style="stroke:#FFFFFF;stroke-opacity:1; stroke-width: 1; stroke-dasharray: none; stroke-linecap: butt; stroke-linejoin: miter; stroke-miterlimit: 10;fill:#22628E;fill-opacity:1; fill-rule: nonzero; opacity: 1" transform=" matrix(1 0 0 1 963 477) "/><rect x="0.5" y="0.5" rx="0" ry="0" width="20" height="12" style="stroke:#FFFFFF;stroke-opacity:1; stroke-width: 1; stroke-dasharray: none; stroke-linecap: butt; stroke-linejoin: miter; stroke-miterlimit: 10;fill:#175381;fill-opacity:1; fill-rule: nonzero; opacity: 1" transform=" matrix(1 0 0 1 983 477) "/><rect x="0.5" y="0.5" rx="0" ry="0" width="20" height="12" style="stroke:#FFFFFF;stroke-opacity:1; stroke-width: 1; stroke-dasharray: none; stroke-linecap: butt; stroke-linejoin: miter; stroke-miterlimit: 10;fill:#0B4574;fill-opacity:1; fill-rule: nonzero; opacity: 1" transform=" matrix(1 0 0 1 1003 477) "/><rect x="0.5" y="0.5" rx="0" ry="0" width="20" height="12" style="stroke:#FFFFFF;stroke-opacity:1; stroke-width: 1; stroke-dasharray: none; stroke-linecap: butt; stroke-linejoin: miter; stroke-miterlimit: 10;fill:#003767;fill-opacity:1; fill-rule: nonzero; opacity: 1" transform=" matrix(1 0 0 1 1023 477) "/></g></svg>
