<?xml version="1.0" encoding="UTF-8" standalone="no" ?><!DOCTYPE svg PUBLIC "-//W3C//DTD SVG 1.1//EN" "http://www.w3.org/Graphics/SVG/1.1/DTD/svg11.dtd"><svg xmlns="http://www.w3.org/2000/svg" xmlns:xlink="http://www.w3.org/1999/xlink" version="1.1" width="1056" height="500" viewBox="0 0 1056 500" xml:space="preserve"><desc>Created with Fabric.js 1.7.19</desc><defs></defs><rect x="0" y="0" width="1056" height="500" fill="#3f3f4f"></rect><g style="stroke: none; stroke-width: 1; stroke-dasharray: none; stroke-linecap: butt; stroke-linejoin: miter; stroke-miterlimit: 10; fill: none; fill-rule: nonzero; opacity: 1" transform="translate(0 0)" ><path d="M 0.5 0.5 L 1055.5 0.5 L 1055.5 499.5 L 0.5 499.5 Z" style="stroke:#000000;stroke-opacity:1; stroke-opacity: 0; stroke-width: 1; stroke-dasharray: none; stroke-linecap: butt; stroke-linejoin: miter; stroke-miterlimit: 10;fill:#282828;fill-opacity:1; fill-opacity: 0; fill-rule: nonzero; opacity: 1" transform="" stroke-linecap="round" /><path d="M 528 266 L 409.1179354631058 304.62712429686843 A 125 125 0 0 1 528 141 L 528 266 Z" style="stroke:#FFFFFF;stroke-opacity:1; stroke-opacity: 0.8; stroke-width: 2; stroke-dasharray: none; stroke-linecap: butt; stroke-linejoin: miter; stroke-miterlimit: 10;fill:#B0DE09;fill-opacity:1; fill-rule: nonzero; opacity: 1" transform="" stroke-linecap="round" /><path d="M 427.5 192.5 L 410.5 181.5 L 402.5 181.5" style="stroke:#FFFFFF;stroke-opacity:1; stroke-opacity: 0.3; stroke-width: 1; stroke-dasharray: none; stroke-linecap: butt; stroke-linejoin: miter; stroke-miterlimit: 10; fill: none; fill-rule: nonzero; opacity: 1" transform="" stroke-linecap="round" /><path d="M 528 266 L 528 391 A 125 125 0 0 1 409.1179354631058 304.62712429686843 L 528 266 Z" style="stroke:#FFFFFF;stroke-opacity:1; stroke-opacity: 0.8; stroke-width: 2; stroke-dasharray: none; stroke-linecap: butt; stroke-linejoin: miter; stroke-miterlimit: 10;fill:#FF9E01;fill-opacity:1; fill-rule: nonzero; opacity: 1" transform=" matrix(1 0 0 1 -15 20) " stroke-linecap="round" /><path d="M 454.5 367.5 L 443.5 384.5 L 435.5 384.5" style="stroke:#FFFFFF;stroke-opacity:1; stroke-opacity: 0.3; stroke-width: 1; stroke-dasharray: none; stroke-linecap: butt; stroke-linejoin: miter; stroke-miterlimit: 10; fill: none; fill-rule: nonzero; opacity: 1" transform=" matrix(1 0 0 1 -15 20) " stroke-linecap="round" /><path d="M 528 266 L 528 141 A 125 125 0 0 1 629.1271242968685 192.52684346344085 L 528 266 Z" style="stroke:#FFFFFF;stroke-opacity:1; stroke-opacity: 0.8; stroke-width: 2; stroke-dasharray: none; stroke-linecap: butt; stroke-linejoin: miter; stroke-miterlimit: 10;fill:#FF9E01;fill-opacity:1; fill-rule: nonzero; opacity: 1" transform=" matrix(1 0 0 1 11 -22) " stroke-linecap="round" /><path d="M 585.5 154.5 L 594.5 136.5 L 602.5 136.5" style="stroke:#FFFFFF;stroke-opacity:1; stroke-opacity: 0.3; stroke-width: 1; stroke-dasharray: none; stroke-linecap: butt; stroke-linejoin: miter; stroke-miterlimit: 10; fill: none; fill-rule: nonzero; opacity: 1" transform=" matrix(1 0 0 1 11 -22) " stroke-linecap="round" /><path d="M 528 266 L 629.1271242968685 192.52684346344085 A 125 125 0 0 1 528 391 L 528 266 Z" style="stroke:#FFFFFF;stroke-opacity:1; stroke-opacity: 0.8; stroke-width: 2; stroke-dasharray: none; stroke-linecap: butt; stroke-linejoin: miter; stroke-miterlimit: 10;fill:#FF9E01;fill-opacity:1; fill-rule: nonzero; opacity: 1" transform=" matrix(1 0 0 1 22 11) " stroke-linecap="round" /><path d="M 640.5 323.5 L 658.5 332.5 L 666.5 332.5" style="stroke:#FFFFFF;stroke-opacity:1; stroke-opacity: 0.3; stroke-width: 1; stroke-dasharray: none; stroke-linecap: butt; stroke-linejoin: miter; stroke-miterlimit: 10; fill: none; fill-rule: nonzero; opacity: 1" transform=" matrix(1 0 0 1 22 11) " stroke-linecap="round" /><g transform=" matrix(1 0 0 1 617 114) "><text xml:space="preserve" font-family="Verdana" font-size="11" font-weight="normal" style="stroke: none; stroke-width: 1; stroke-dasharray: none; stroke-linecap: butt; stroke-linejoin: miter; stroke-miterlimit: 10;fill:#E7E7E7;fill-opacity:1; fill-rule: nonzero; opacity: 1; white-space: pre" ><tspan x="0" y="7.48" fill="rgba(231,231,231,1)">Oil: 15</tspan></text></g><g transform=" matrix(1 0 0 1 692 343) "><text xml:space="preserve" font-family="Verdana" font-size="11" font-weight="normal" style="stroke: none; stroke-width: 1; stroke-dasharray: none; stroke-linecap: butt; stroke-linejoin: miter; stroke-miterlimit: 10;fill:#E7E7E7;fill-opacity:1; fill-rule: nonzero; opacity: 1; white-space: pre" ><tspan x="0" y="7.48" fill="rgba(231,231,231,1)">Coal: 35</tspan></text></g><g transform=" matrix(1 0 0 1 416 404) "><text xml:space="preserve" font-family="Verdana" font-size="11" font-weight="normal" style="stroke: none; stroke-width: 1; stroke-dasharray: none; stroke-linecap: butt; stroke-linejoin: miter; stroke-miterlimit: 10;fill:#E7E7E7;fill-opacity:1; fill-rule: nonzero; opacity: 1; white-space: pre" ><tspan x="-67" y="7.48" fill="rgba(231,231,231,1)">Nuclear: 20</tspan></text></g><g transform=" matrix(1 0 0 1 398 181) "><text xml:space="preserve" font-family="Verdana" font-size="11" font-weight="normal" style="stroke: none; stroke-width: 1; stroke-dasharray: none; stroke-linecap: butt; stroke-linejoin: miter; stroke-miterlimit: 10;fill:#E7E7E7;fill-opacity:1; fill-rule: nonzero; opacity: 1; white-space: pre" ><tspan x="-103" y="7.48" fill="rgba(231,231,231,1)">Green Energy: 30</tspan></text></g><g transform=" matrix(1 0 0 1 528 20) "><text xml:space="preserve" font-family="Verdana" font-size="13" font-weight="bold" style="stroke: none; stroke-width: 1; stroke-dasharray: none; stroke-linecap: butt; stroke-linejoin: miter; stroke-miterlimit: 10;fill:#E7E7E7;fill-opacity:1; fill-rule: nonzero; opacity: 1; white-space: pre" ><tspan x="-107.5" y="8.84" fill="rgba(231,231,231,1)">Click a slice to see the details</tspan></text></g></g></svg>
