<?xml version="1.0" encoding="UTF-8" standalone="no" ?><!DOCTYPE svg PUBLIC "-//W3C//DTD SVG 1.1//EN" "http://www.w3.org/Graphics/SVG/1.1/DTD/svg11.dtd"><svg xmlns="http://www.w3.org/2000/svg" xmlns:xlink="http://www.w3.org/1999/xlink" version="1.1" width="1056" height="500" viewBox="0 0 1056 500" xml:space="preserve"><desc>Created with Fabric.js 1.7.19</desc><defs></defs><rect x="0" y="0" width="1056" height="500" fill="#FFFFFF"></rect><g style="stroke: none; stroke-width: 1; stroke-dasharray: none; stroke-linecap: butt; stroke-linejoin: miter; stroke-miterlimit: 10; fill: none; fill-rule: nonzero; opacity: 1" transform="translate(0 0)" ><path d="M 0.5 0.5 L 1055.5 0.5 L 1055.5 499.5 L 0.5 499.5 Z" style="stroke:#000000;stroke-opacity:1; stroke-opacity: 0; stroke-width: 1; stroke-dasharray: none; stroke-linecap: butt; stroke-linejoin: miter; stroke-miterlimit: 10;fill:#FFFFFF;fill-opacity:1; fill-opacity: 0; fill-rule: nonzero; opacity: 1" transform="" stroke-linecap="round" /><path d="M 0.5 0.5 L 925.5 0.5 L 925.5 438.5 L 0.5 438.5 L 0.5 0.5 Z" style="stroke:#000000;stroke-opacity:1; stroke-opacity: 0; stroke-width: 1; stroke-dasharray: none; stroke-linecap: butt; stroke-linejoin: miter; stroke-miterlimit: 10;fill:#FFFFFF;fill-opacity:1; fill-opacity: 0; fill-rule: nonzero; opacity: 1" transform=" matrix(1 0 0 1 40 20) " stroke-linecap="round" /><path d="M 25.5 0.5 L 25.5 5.5" style="stroke:#000000;stroke-opacity:1; stroke-opacity: 0.3; stroke-width: 1; stroke-dasharray: none; stroke-linecap: butt; stroke-linejoin: miter; stroke-miterlimit: 10; fill: none; fill-rule: nonzero; opacity: 1" transform=" matrix(1 0 0 1 40 458) " stroke-linecap="round" /><path d="M 25.5 438.5 L 25.5 438.5 L 25.5 0.5" style="stroke:#000000;stroke-opacity:1; stroke-opacity: 0.1; stroke-width: 1; stroke-dasharray: 1 1; stroke-linecap: butt; stroke-linejoin: miter; stroke-miterlimit: 10; fill: none; fill-rule: nonzero; opacity: 1" transform=" matrix(1 0 0 1 40 20) " stroke-linecap="round" /><path d="M 177.5 0.5 L 177.5 5.5" style="stroke:#000000;stroke-opacity:1; stroke-opacity: 0.3; stroke-width: 1; stroke-dasharray: none; stroke-linecap: butt; stroke-linejoin: miter; stroke-miterlimit: 10; fill: none; fill-rule: nonzero; opacity: 1" transform=" matrix(1 0 0 1 40 458) " stroke-linecap="round" /><path d="M 177.5 438.5 L 177.5 438.5 L 177.5 0.5" style="stroke:#000000;stroke-opacity:1; stroke-opacity: 0.1; stroke-width: 1; stroke-dasharray: 1 1; stroke-linecap: butt; stroke-linejoin: miter; stroke-miterlimit: 10; fill: none; fill-rule: nonzero; opacity: 1" transform=" matrix(1 0 0 1 40 20) " stroke-linecap="round" /><path d="M 325.5 0.5 L 325.5 5.5" style="stroke:#000000;stroke-opacity:1; stroke-opacity: 0.3; stroke-width: 1; stroke-dasharray: none; stroke-linecap: butt; stroke-linejoin: miter; stroke-miterlimit: 10; fill: none; fill-rule: nonzero; opacity: 1" transform=" matrix(1 0 0 1 40 458) " stroke-linecap="round" /><path d="M 325.5 438.5 L 325.5 438.5 L 325.5 0.5" style="stroke:#000000;stroke-opacity:1; stroke-opacity: 0.1; stroke-width: 1; stroke-dasharray: 1 1; stroke-linecap: butt; stroke-linejoin: miter; stroke-miterlimit: 10; fill: none; fill-rule: nonzero; opacity: 1" transform=" matrix(1 0 0 1 40 20) " stroke-linecap="round" /><path d="M 477.5 0.5 L 477.5 5.5" style="stroke:#000000;stroke-opacity:1; stroke-opacity: 0.3; stroke-width: 1; stroke-dasharray: none; stroke-linecap: butt; stroke-linejoin: miter; stroke-miterlimit: 10; fill: none; fill-rule: nonzero; opacity: 1" transform=" matrix(1 0 0 1 40 458) " stroke-linecap="round" /><path d="M 477.5 438.5 L 477.5 438.5 L 477.5 0.5" style="stroke:#000000;stroke-opacity:1; stroke-opacity: 0.1; stroke-width: 1; stroke-dasharray: 1 1; stroke-linecap: butt; stroke-linejoin: miter; stroke-miterlimit: 10; fill: none; fill-rule: nonzero; opacity: 1" transform=" matrix(1 0 0 1 40 20) " stroke-linecap="round" /><path d="M 625.5 0.5 L 625.5 5.5" style="stroke:#000000;stroke-opacity:1; stroke-opacity: 0.3; stroke-width: 1; stroke-dasharray: none; stroke-linecap: butt; stroke-linejoin: miter; stroke-miterlimit: 10; fill: none; fill-rule: nonzero; opacity: 1" transform=" matrix(1 0 0 1 40 458) " stroke-linecap="round" /><path d="M 625.5 438.5 L 625.5 438.5 L 625.5 0.5" style="stroke:#000000;stroke-opacity:1; stroke-opacity: 0.1; stroke-width: 1; stroke-dasharray: 1 1; stroke-linecap: butt; stroke-linejoin: miter; stroke-miterlimit: 10; fill: none; fill-rule: nonzero; opacity: 1" transform=" matrix(1 0 0 1 40 20) " stroke-linecap="round" /><path d="M 777.5 0.5 L 777.5 5.5" style="stroke:#000000;stroke-opacity:1; stroke-opacity: 0.3; stroke-width: 1; stroke-dasharray: none; stroke-linecap: butt; stroke-linejoin: miter; stroke-miterlimit: 10; fill: none; fill-rule: nonzero; opacity: 1" transform=" matrix(1 0 0 1 40 458) " stroke-linecap="round" /><path d="M 777.5 438.5 L 777.5 438.5 L 777.5 0.5" style="stroke:#000000;stroke-opacity:1; stroke-opacity: 0.1; stroke-width: 1; stroke-dasharray: 1 1; stroke-linecap: butt; stroke-linejoin: miter; stroke-miterlimit: 10; fill: none; fill-rule: nonzero; opacity: 1" transform=" matrix(1 0 0 1 40 20) " stroke-linecap="round" /><path d="M 0.5 438.5 L 0.5 438.5 L 925.5 438.5" style="stroke:#000000;stroke-opacity:1; stroke-opacity: 0.1; stroke-width: 1; stroke-dasharray: none; stroke-linecap: butt; stroke-linejoin: miter; stroke-miterlimit: 10; fill: none; fill-rule: nonzero; opacity: 1" transform=" matrix(1 0 0 1 40 20) " stroke-linecap="round" /><path d="M 0.5 389.5 L 0.5 389.5 L 925.5 389.5" style="stroke:#000000;stroke-opacity:1; stroke-opacity: 0.1; stroke-width: 1; stroke-dasharray: none; stroke-linecap: butt; stroke-linejoin: miter; stroke-miterlimit: 10; fill: none; fill-rule: nonzero; opacity: 1" transform=" matrix(1 0 0 1 40 20) " stroke-linecap="round" /><path d="M 0.5 341.5 L 0.5 341.5 L 925.5 341.5" style="stroke:#000000;stroke-opacity:1; stroke-opacity: 0.1; stroke-width: 1; stroke-dasharray: none; stroke-linecap: butt; stroke-linejoin: miter; stroke-miterlimit: 10; fill: none; fill-rule: nonzero; opacity: 1" transform=" matrix(1 0 0 1 40 20) " stroke-linecap="round" /><path d="M 0.5 292.5 L 0.5 292.5 L 925.5 292.5" style="stroke:#000000;stroke-opacity:1; stroke-opacity: 0.1; stroke-width: 1; stroke-dasharray: none; stroke-linecap: butt; stroke-linejoin: miter; stroke-miterlimit: 10; fill: none; fill-rule: nonzero; opacity: 1" transform=" matrix(1 0 0 1 40 20) " stroke-linecap="round" /><path d="M 0.5 243.5 L 0.5 243.5 L 925.5 243.5" style="stroke:#000000;stroke-opacity:1; stroke-opacity: 0.1; stroke-width: 1; stroke-dasharray: none; stroke-linecap: butt; stroke-linejoin: miter; stroke-miterlimit: 10; fill: none; fill-rule: nonzero; opacity: 1" transform=" matrix(1 0 0 1 40 20) " stroke-linecap="round" /><path d="M 0.5 195.5 L 0.5 195.5 L 925.5 195.5" style="stroke:#000000;stroke-opacity:1; stroke-opacity: 0.1; stroke-width: 1; stroke-dasharray: none; stroke-linecap: butt; stroke-linejoin: miter; stroke-miterlimit: 10; fill: none; fill-rule: nonzero; opacity: 1" transform=" matrix(1 0 0 1 40 20) " stroke-linecap="round" /><path d="M 0.5 146.5 L 0.5 146.5 L 925.5 146.5" style="stroke:#000000;stroke-opacity:1; stroke-opacity: 0.1; stroke-width: 1; stroke-dasharray: none; stroke-linecap: butt; stroke-linejoin: miter; stroke-miterlimit: 10; fill: none; fill-rule: nonzero; opacity: 1" transform=" matrix(1 0 0 1 40 20) " stroke-linecap="round" /><path d="M 0.5 97.5 L 0.5 97.5 L 925.5 97.5" style="stroke:#000000;stroke-opacity:1; stroke-opacity: 0.1; stroke-width: 1; stroke-dasharray: none; stroke-linecap: butt; stroke-linejoin: miter; stroke-miterlimit: 10; fill: none; fill-rule: nonzero; opacity: 1" transform=" matrix(1 0 0 1 40 20) " stroke-linecap="round" /><path d="M 0.5 49.5 L 0.5 49.5 L 925.5 49.5" style="stroke:#000000;stroke-opacity:1; stroke-opacity: 0.1; stroke-width: 1; stroke-dasharray: none; stroke-linecap: butt; stroke-linejoin: miter; stroke-miterlimit: 10; fill: none; fill-rule: nonzero; opacity: 1" transform=" matrix(1 0 0 1 40 20) " stroke-linecap="round" /><path d="M 0.5 0.5 L 0.5 0.5 L 925.5 0.5" style="stroke:#000000;stroke-opacity:1; stroke-opacity: 0.1; stroke-width: 1; stroke-dasharray: none; stroke-linecap: butt; stroke-linejoin: miter; stroke-miterlimit: 10; fill: none; fill-rule: nonzero; opacity: 1" transform=" matrix(1 0 0 1 40 20) " stroke-linecap="round" /><path d="M 2.5 375.23333 L 7.5 384.96667 L 12.5 365.5 L 17.5 360.63333 L 22.5 350.9 L 27.5 375.23333 L 32.5 331.43333 L 37.5 326.56667 L 42.5 341.16667 L 47.5 355.76667 L 52.5 360.63333 L 57.5 350.9 L 62.5 336.3 L 66.5 311.96667 L 71.5 321.7 L 76.5 297.36667 L 81.5 282.76667 L 86.5 350.9 L 91.5 321.7 L 96.5 331.43333 L 101.5 350.9 L 106.5 346.03333 L 111.5 370.36667 L 116.5 365.5 L 121.5 380.1 L 125.5 399.56667 L 130.5 394.7 L 135.5 399.56667 L 140.5 404.43333 L 145.5 414.16667 L 150.5 384.96667 L 155.5 375.23333 L 160.5 350.9 L 165.5 341.16667 L 170.5 297.36667 L 175.5 277.9 L 180.5 234.1 L 185.5 268.16667 L 189.5 287.63333 L 194.5 209.76667 L 199.5 185.43333 L 204.5 214.63333 L 209.5 238.96667 L 214.5 229.23333 L 219.5 243.83333 L 224.5 248.7 L 229.5 273.03333 L 234.5 297.36667 L 239.5 273.03333 L 244.5 258.43333 L 248.5 234.1 L 253.5 200.03333 L 258.5 214.63333 L 263.5 209.76667 L 268.5 170.83333 L 273.5 151.36667 L 278.5 156.23333 L 283.5 161.1 L 288.5 141.63333 L 293.5 151.36667 L 298.5 112.43333 L 303.5 122.16667 L 308.5 141.63333 L 312.5 117.3 L 317.5 102.7 L 322.5 92.96667 L 327.5 112.43333 L 332.5 131.9 L 337.5 214.63333 L 342.5 282.76667 L 347.5 336.3 L 352.5 350.9 L 357.5 336.3 L 362.5 302.23333 L 367.5 307.1 L 371.5 263.3 L 376.5 277.9 L 381.5 287.63333 L 386.5 292.5 L 391.5 273.03333 L 396.5 253.56667 L 401.5 258.43333 L 406.5 224.36667 L 411.5 200.03333 L 416.5 180.56667 L 421.5 161.1 L 426.5 146.5 L 431.5 141.63333 L 435.5 102.7 L 440.5 112.43333 L 445.5 88.1 L 450.5 63.76667 L 455.5 73.5 L 460.5 97.83333 L 465.5 88.1 L 470.5 97.83333 L 475.5 88.1 L 480.5 83.23333 L 485.5 112.43333 L 490.5 107.56667 L 494.5 122.16667 L 499.5 92.96667 L 504.5 73.5 L 509.5 78.36667 L 514.5 92.96667 L 519.5 68.63333 L 524.5 63.76667 L 529.5 44.3 L 534.5 34.56667 L 539.5 49.16667 L 544.5 44.3 L 549.5 15.1 L 554.5 39.43333 L 558.5 19.96667 L 563.5 49.16667 L 568.5 15.1 L 573.5 34.56667 L 578.5 24.83333 L 583.5 29.7 L 588.5 39.43333 L 593.5 83.23333 L 598.5 92.96667 L 603.5 73.5 L 608.5 54.03333 L 613.5 97.83333 L 617.5 83.23333 L 622.5 141.63333 L 627.5 136.76667 L 632.5 117.3 L 637.5 122.16667 L 642.5 83.23333 L 647.5 54.03333 L 652.5 58.9 L 657.5 58.9 L 662.5 58.9 L 667.5 78.36667 L 672.5 83.23333 L 677.5 73.5 L 681.5 97.83333 L 686.5 63.76667 L 691.5 112.43333 L 696.5 136.76667 L 701.5 127.03333 L 706.5 141.63333 L 711.5 151.36667 L 716.5 180.56667 L 721.5 175.7 L 726.5 165.96667 L 731.5 151.36667 L 736.5 156.23333 L 740.5 170.83333 L 745.5 185.43333 L 750.5 175.7 L 755.5 195.16667 L 760.5 195.16667 L 765.5 190.3 L 770.5 185.43333 L 775.5 156.23333 L 780.5 146.5 L 785.5 112.43333 L 790.5 127.03333 L 795.5 117.3 L 800.5 146.5 L 804.5 131.9 L 809.5 141.63333 L 814.5 146.5 L 819.5 122.16667 L 824.5 73.5 L 829.5 63.76667 L 834.5 58.9 L 839.5 97.83333 L 844.5 97.83333 L 849.5 83.23333 L 854.5 92.96667 L 859.5 78.36667 L 863.5 58.9 L 868.5 24.83333 L 873.5 39.43333 L 878.5 34.56667 L 883.5 10.23333 L 888.5 24.83333 L 893.5 24.83333 L 898.5 49.16667 L 903.5 15.1 L 908.5 29.7 L 913.5 34.56667 L 918.5 29.7 L 923.5 44.3 M 0 0 L 0 0" style="stroke:#67B7DC;stroke-opacity:1; stroke-opacity: 0.9; stroke-width: 2; stroke-dasharray: none; stroke-linecap: butt; stroke-linejoin: round; stroke-miterlimit: 10; fill: none; fill-rule: nonzero; opacity: 1" transform=" matrix(1 0 0 1 40 20) " stroke-linecap="round"  clip-path="url(#DSCEl-20)" /><path d="M 2.5 375.23333 L 7.5 384.96667 L 12.5 365.5 L 17.5 360.63333 L 22.5 350.9 L 27.5 375.23333 L 32.5 331.43333 L 37.5 326.56667 L 42.5 341.16667 L 47.5 355.76667 L 52.5 360.63333 L 57.5 350.9 L 62.5 336.3 L 66.5 311.96667 L 71.5 321.7 L 76.5 297.36667 L 81.5 282.76667 L 86.5 350.9 L 91.5 321.7 L 96.5 331.43333 L 101.5 350.9 L 106.5 346.03333 L 111.5 370.36667 L 116.5 365.5 L 121.5 380.1 L 125.5 399.56667 L 130.5 394.7 L 135.5 399.56667 L 140.5 404.43333 L 145.5 414.16667 L 150.5 384.96667 L 155.5 375.23333 L 160.5 350.9 L 165.5 341.16667 L 170.5 297.36667 L 175.5 277.9 L 180.5 234.1 L 185.5 268.16667 L 189.5 287.63333 L 194.5 209.76667 L 199.5 185.43333 L 204.5 214.63333 L 209.5 238.96667 L 214.5 229.23333 L 219.5 243.83333 L 224.5 248.7 L 229.5 273.03333 L 234.5 297.36667 L 239.5 273.03333 L 244.5 258.43333 L 248.5 234.1 L 253.5 200.03333 L 258.5 214.63333 L 263.5 209.76667 L 268.5 170.83333 L 273.5 151.36667 L 278.5 156.23333 L 283.5 161.1 L 288.5 141.63333 L 293.5 151.36667 L 298.5 112.43333 L 303.5 122.16667 L 308.5 141.63333 L 312.5 117.3 L 317.5 102.7 L 322.5 92.96667 L 327.5 112.43333 L 332.5 131.9 L 337.5 214.63333 L 342.5 282.76667 L 347.5 336.3 L 352.5 350.9 L 357.5 336.3 L 362.5 302.23333 L 367.5 307.1 L 371.5 263.3 L 376.5 277.9 L 381.5 287.63333 L 386.5 292.5 L 391.5 273.03333 L 396.5 253.56667 L 401.5 258.43333 L 406.5 224.36667 L 411.5 200.03333 L 416.5 180.56667 L 421.5 161.1 L 426.5 146.5 L 431.5 141.63333 L 435.5 102.7 L 440.5 112.43333 L 445.5 88.1 L 450.5 63.76667 L 455.5 73.5 L 460.5 97.83333 L 465.5 88.1 L 470.5 97.83333 L 475.5 88.1 L 480.5 83.23333 L 485.5 112.43333 L 490.5 107.56667 L 494.5 122.16667 L 499.5 92.96667 L 504.5 73.5 L 509.5 78.36667 L 514.5 92.96667 L 519.5 68.63333 L 524.5 63.76667 L 529.5 44.3 L 534.5 34.56667 L 539.5 49.16667 L 544.5 44.3 L 549.5 15.1 L 554.5 39.43333 L 558.5 19.96667 L 563.5 49.16667 L 568.5 15.1 L 573.5 34.56667 L 578.5 24.83333 L 583.5 29.7 L 588.5 39.43333 L 593.5 83.23333 L 598.5 92.96667 L 603.5 73.5 L 608.5 54.03333 L 613.5 97.83333 L 617.5 83.23333 L 622.5 141.63333 L 627.5 136.76667 L 632.5 117.3 L 637.5 122.16667 L 642.5 83.23333 L 647.5 54.03333 L 652.5 58.9 L 657.5 58.9 L 662.5 58.9 L 667.5 78.36667 L 672.5 83.23333 L 677.5 73.5 L 681.5 97.83333 L 686.5 63.76667 L 691.5 112.43333 L 696.5 136.76667 L 701.5 127.03333 L 706.5 141.63333 L 711.5 151.36667 L 716.5 180.56667 L 721.5 175.7 L 726.5 165.96667 L 731.5 151.36667 L 736.5 156.23333 L 740.5 170.83333 L 745.5 185.43333 L 750.5 175.7 L 755.5 195.16667 L 760.5 195.16667 L 765.5 190.3 L 770.5 185.43333 L 775.5 156.23333 L 780.5 146.5 L 785.5 112.43333 L 790.5 127.03333 L 795.5 117.3 L 800.5 146.5 L 804.5 131.9 L 809.5 141.63333 L 814.5 146.5 L 819.5 122.16667 L 824.5 73.5 L 829.5 63.76667 L 834.5 58.9 L 839.5 97.83333 L 844.5 97.83333 L 849.5 83.23333 L 854.5 92.96667 L 859.5 78.36667 L 863.5 58.9 L 868.5 24.83333 L 873.5 39.43333 L 878.5 34.56667 L 883.5 10.23333 L 888.5 24.83333 L 893.5 24.83333 L 898.5 49.16667 L 903.5 15.1 L 908.5 29.7 L 913.5 34.56667 L 918.5 29.7 L 923.5 44.3 L 923.5 438.5 L 2.5 438.5 L 2.5 375.23333 Z" style="stroke:#000000;stroke-opacity:1; stroke-opacity: 0; stroke-width: 1; stroke-dasharray: none; stroke-linecap: butt; stroke-linejoin: miter; stroke-miterlimit: 10;fill:#67B7DC;fill-opacity:1; fill-opacity: 0.2; fill-rule: nonzero; opacity: 1" transform=" matrix(1 0 0 1 40 20) " stroke-linecap="round"  clip-path="url(#DSCEl-20)" /><path d="M 0.5 438.5 L 925.5 438.5 L 925.5 438.5" style="stroke:#000000;stroke-opacity:1; stroke-opacity: 0.2; stroke-width: 1; stroke-dasharray: none; stroke-linecap: butt; stroke-linejoin: miter; stroke-miterlimit: 10; fill: none; fill-rule: nonzero; opacity: 1" transform=" matrix(1 0 0 1 40 20) " stroke-linecap="round" /><path d="M 0.5 439.5 L 49.5 439.5 L 49.5 439.5" style="stroke:#FFFFFF;stroke-opacity:1; stroke-opacity: 0.3; stroke-width: 1; stroke-dasharray: none; stroke-linecap: butt; stroke-linejoin: miter; stroke-miterlimit: 10; fill: none; fill-rule: nonzero; opacity: 1" transform=" matrix(1 0 0 1 0 0) " stroke-linecap="round" /><path d="M 0.5 0.5 L 0.5 439.5" style="stroke:#000000;stroke-opacity:1; stroke-opacity: 0; stroke-width: 1; stroke-dasharray: none; stroke-linecap: butt; stroke-linejoin: miter; stroke-miterlimit: 10; fill: none; fill-rule: nonzero; opacity: 1" transform=" matrix(1 0 0 1 0 0) " stroke-linecap="round" /><path d="M 0.5 0.5 L 925.5 0.5" style="stroke:#000000;stroke-opacity:1; stroke-opacity: 0.3; stroke-width: 1; stroke-dasharray: none; stroke-linecap: butt; stroke-linejoin: miter; stroke-miterlimit: 10; fill: none; fill-rule: nonzero; opacity: 1" transform=" matrix(1 0 0 1 40 458) " stroke-linecap="round" /><path d="M 0.5 0.5 L 0.5 438.5" style="stroke:#000000;stroke-opacity:1; stroke-opacity: 0; stroke-width: 1; stroke-dasharray: none; stroke-linecap: butt; stroke-linejoin: miter; stroke-miterlimit: 10; fill: none; fill-rule: nonzero; opacity: 1" transform=" matrix(1 0 0 1 40 20) " stroke-linecap="round" /><g  clip-path="url(#DSCEl-19)" ><path d="M 0.5 0.5 L 0.5 0.5 L 0.5 438.5" style="stroke:#000000;stroke-opacity:1; stroke-opacity: 0; stroke-width: 1; stroke-dasharray: none; stroke-linecap: butt; stroke-linejoin: miter; stroke-miterlimit: 10; fill: none; fill-rule: nonzero; opacity: 0" transform=" matrix(1 0 0 1 40 20) " stroke-linecap="round" /></g><g  clip-path="url(#DSCEl-19)" ><path d="M 0.5 0.5 L 925.5 0.5 L 925.5 0.5" style="stroke:#000000;stroke-opacity:1; stroke-opacity: 0; stroke-width: 1; stroke-dasharray: none; stroke-linecap: butt; stroke-linejoin: miter; stroke-miterlimit: 10; fill: none; fill-rule: nonzero; opacity: 0" transform=" matrix(1 0 0 1 40 20) " stroke-linecap="round" /></g><rect x="0.5" y="0.5" rx="0" ry="0" width="50" height="439" style="stroke:#000000;stroke-opacity:1; stroke-opacity: 0.12; stroke-width: 1; stroke-dasharray: none; stroke-linecap: butt; stroke-linejoin: miter; stroke-miterlimit: 10;fill:#000000;fill-opacity:1; fill-opacity: 0.12; fill-rule: nonzero; opacity: 1" transform=" matrix(1 0 0 1 966 20) "/><rect x="0.5" y="0.5" rx="0" ry="0" width="51" height="439" style="stroke:#FFFFFF;stroke-opacity:1; stroke-opacity: 0.4; stroke-width: 0; stroke-dasharray: none; stroke-linecap: butt; stroke-linejoin: miter; stroke-miterlimit: 10;fill:#FFFFFF;fill-opacity:1; fill-opacity: 0.4; fill-rule: nonzero; opacity: 1" transform=" matrix(1 0 0 1 966 20) "/><path d="M 0.5 439.5 L 0.5 439.5 L 49.5 439.5" style="stroke:#FFFFFF;stroke-opacity:1; stroke-opacity: 0.15; stroke-width: 1; stroke-dasharray: none; stroke-linecap: butt; stroke-linejoin: miter; stroke-miterlimit: 10; fill: none; fill-rule: nonzero; opacity: 1" transform=" matrix(1 0 0 1 966 20) " stroke-linecap="round" /><path d="M 0.5 390.5 L 0.5 390.5 L 49.5 390.5" style="stroke:#FFFFFF;stroke-opacity:1; stroke-opacity: 0.15; stroke-width: 1; stroke-dasharray: none; stroke-linecap: butt; stroke-linejoin: miter; stroke-miterlimit: 10; fill: none; fill-rule: nonzero; opacity: 1" transform=" matrix(1 0 0 1 966 20) " stroke-linecap="round" /><path d="M 0.5 341.5 L 0.5 341.5 L 49.5 341.5" style="stroke:#FFFFFF;stroke-opacity:1; stroke-opacity: 0.15; stroke-width: 1; stroke-dasharray: none; stroke-linecap: butt; stroke-linejoin: miter; stroke-miterlimit: 10; fill: none; fill-rule: nonzero; opacity: 1" transform=" matrix(1 0 0 1 966 20) " stroke-linecap="round" /><path d="M 0.5 293.5 L 0.5 293.5 L 49.5 293.5" style="stroke:#FFFFFF;stroke-opacity:1; stroke-opacity: 0.15; stroke-width: 1; stroke-dasharray: none; stroke-linecap: butt; stroke-linejoin: miter; stroke-miterlimit: 10; fill: none; fill-rule: nonzero; opacity: 1" transform=" matrix(1 0 0 1 966 20) " stroke-linecap="round" /><path d="M 0.5 244.5 L 0.5 244.5 L 49.5 244.5" style="stroke:#FFFFFF;stroke-opacity:1; stroke-opacity: 0.15; stroke-width: 1; stroke-dasharray: none; stroke-linecap: butt; stroke-linejoin: miter; stroke-miterlimit: 10; fill: none; fill-rule: nonzero; opacity: 1" transform=" matrix(1 0 0 1 966 20) " stroke-linecap="round" /><path d="M 0.5 195.5 L 0.5 195.5 L 49.5 195.5" style="stroke:#FFFFFF;stroke-opacity:1; stroke-opacity: 0.15; stroke-width: 1; stroke-dasharray: none; stroke-linecap: butt; stroke-linejoin: miter; stroke-miterlimit: 10; fill: none; fill-rule: nonzero; opacity: 1" transform=" matrix(1 0 0 1 966 20) " stroke-linecap="round" /><path d="M 0.5 146.5 L 0.5 146.5 L 49.5 146.5" style="stroke:#FFFFFF;stroke-opacity:1; stroke-opacity: 0.15; stroke-width: 1; stroke-dasharray: none; stroke-linecap: butt; stroke-linejoin: miter; stroke-miterlimit: 10; fill: none; fill-rule: nonzero; opacity: 1" transform=" matrix(1 0 0 1 966 20) " stroke-linecap="round" /><path d="M 0.5 98.5 L 0.5 98.5 L 49.5 98.5" style="stroke:#FFFFFF;stroke-opacity:1; stroke-opacity: 0.15; stroke-width: 1; stroke-dasharray: none; stroke-linecap: butt; stroke-linejoin: miter; stroke-miterlimit: 10; fill: none; fill-rule: nonzero; opacity: 1" transform=" matrix(1 0 0 1 966 20) " stroke-linecap="round" /><path d="M 0.5 49.5 L 0.5 49.5 L 49.5 49.5" style="stroke:#FFFFFF;stroke-opacity:1; stroke-opacity: 0.15; stroke-width: 1; stroke-dasharray: none; stroke-linecap: butt; stroke-linejoin: miter; stroke-miterlimit: 10; fill: none; fill-rule: nonzero; opacity: 1" transform=" matrix(1 0 0 1 966 20) " stroke-linecap="round" /><path d="M 0.5 0.5 L 0.5 0.5 L 49.5 0.5" style="stroke:#FFFFFF;stroke-opacity:1; stroke-opacity: 0.15; stroke-width: 1; stroke-dasharray: none; stroke-linecap: butt; stroke-linejoin: miter; stroke-miterlimit: 10; fill: none; fill-rule: nonzero; opacity: 1" transform=" matrix(1 0 0 1 966 20) " stroke-linecap="round" /><g transform=" matrix(1 0 0 1 970 450.5) "><text xml:space="preserve" font-family="Verdana" font-size="11" font-weight="normal" style="stroke: none; stroke-width: 1; stroke-dasharray: none; stroke-linecap: butt; stroke-linejoin: miter; stroke-miterlimit: 10;fill:#000000;fill-opacity:1; fill-rule: nonzero; opacity: 1; white-space: pre" ><tspan x="0" y="7.48" fill="rgba(0,0,0,1)">0</tspan></text></g><g transform=" matrix(1 0 0 1 970 401.5) "><text xml:space="preserve" font-family="Verdana" font-size="11" font-weight="normal" style="stroke: none; stroke-width: 1; stroke-dasharray: none; stroke-linecap: butt; stroke-linejoin: miter; stroke-miterlimit: 10;fill:#000000;fill-opacity:1; fill-rule: nonzero; opacity: 1; white-space: pre" ><tspan x="0" y="7.48" fill="rgba(0,0,0,1)">10</tspan></text></g><g transform=" matrix(1 0 0 1 970 352.5) "><text xml:space="preserve" font-family="Verdana" font-size="11" font-weight="normal" style="stroke: none; stroke-width: 1; stroke-dasharray: none; stroke-linecap: butt; stroke-linejoin: miter; stroke-miterlimit: 10;fill:#000000;fill-opacity:1; fill-rule: nonzero; opacity: 1; white-space: pre" ><tspan x="0" y="7.48" fill="rgba(0,0,0,1)">20</tspan></text></g><g transform=" matrix(1 0 0 1 970 304.5) "><text xml:space="preserve" font-family="Verdana" font-size="11" font-weight="normal" style="stroke: none; stroke-width: 1; stroke-dasharray: none; stroke-linecap: butt; stroke-linejoin: miter; stroke-miterlimit: 10;fill:#000000;fill-opacity:1; fill-rule: nonzero; opacity: 1; white-space: pre" ><tspan x="0" y="7.48" fill="rgba(0,0,0,1)">30</tspan></text></g><g transform=" matrix(1 0 0 1 970 255.5) "><text xml:space="preserve" font-family="Verdana" font-size="11" font-weight="normal" style="stroke: none; stroke-width: 1; stroke-dasharray: none; stroke-linecap: butt; stroke-linejoin: miter; stroke-miterlimit: 10;fill:#000000;fill-opacity:1; fill-rule: nonzero; opacity: 1; white-space: pre" ><tspan x="0" y="7.48" fill="rgba(0,0,0,1)">40</tspan></text></g><g transform=" matrix(1 0 0 1 970 206.5) "><text xml:space="preserve" font-family="Verdana" font-size="11" font-weight="normal" style="stroke: none; stroke-width: 1; stroke-dasharray: none; stroke-linecap: butt; stroke-linejoin: miter; stroke-miterlimit: 10;fill:#000000;fill-opacity:1; fill-rule: nonzero; opacity: 1; white-space: pre" ><tspan x="0" y="7.48" fill="rgba(0,0,0,1)">50</tspan></text></g><g transform=" matrix(1 0 0 1 970 157.5) "><text xml:space="preserve" font-family="Verdana" font-size="11" font-weight="normal" style="stroke: none; stroke-width: 1; stroke-dasharray: none; stroke-linecap: butt; stroke-linejoin: miter; stroke-miterlimit: 10;fill:#000000;fill-opacity:1; fill-rule: nonzero; opacity: 1; white-space: pre" ><tspan x="0" y="7.48" fill="rgba(0,0,0,1)">60</tspan></text></g><g transform=" matrix(1 0 0 1 970 109.5) "><text xml:space="preserve" font-family="Verdana" font-size="11" font-weight="normal" style="stroke: none; stroke-width: 1; stroke-dasharray: none; stroke-linecap: butt; stroke-linejoin: miter; stroke-miterlimit: 10;fill:#000000;fill-opacity:1; fill-rule: nonzero; opacity: 1; white-space: pre" ><tspan x="0" y="7.48" fill="rgba(0,0,0,1)">70</tspan></text></g><g transform=" matrix(1 0 0 1 970 60.5) "><text xml:space="preserve" font-family="Verdana" font-size="11" font-weight="normal" style="stroke: none; stroke-width: 1; stroke-dasharray: none; stroke-linecap: butt; stroke-linejoin: miter; stroke-miterlimit: 10;fill:#000000;fill-opacity:1; fill-rule: nonzero; opacity: 1; white-space: pre" ><tspan x="0" y="7.48" fill="rgba(0,0,0,1)">80</tspan></text></g><rect x="0.5" y="0.5" rx="0" ry="0" width="50" height="439" style="stroke:#000000;stroke-opacity:1; stroke-opacity: 0.005; stroke-width: 0; stroke-dasharray: none; stroke-linecap: butt; stroke-linejoin: miter; stroke-miterlimit: 10;fill:#000000;fill-opacity:1; fill-opacity: 0.005; fill-rule: nonzero; opacity: 1" transform=" matrix(1 0 0 1 966 20) "/><rect x="0.5" y="0" rx="0" ry="0" width="50" height="439" style="stroke:#000000;stroke-opacity:1; stroke-opacity: 0.005; stroke-width: 0; stroke-dasharray: none; stroke-linecap: butt; stroke-linejoin: miter; stroke-miterlimit: 10;fill:#000000;fill-opacity:1; fill-opacity: 0.005; fill-rule: nonzero; opacity: 1" transform=" matrix(1 0 0 1 966 20) "/><g transform=" matrix(1 0 0 1 974 3) "><image xlink:href="https://www.DSC.com/lib/3/images/dragIconRoundBigH.svg" x="0" y="0" style="stroke: none; stroke-width: 0; stroke-dasharray: none; stroke-linecap: butt; stroke-linejoin: miter; stroke-miterlimit: 10;fill:#000000;fill-opacity:1; fill-rule: nonzero; opacity: 1" width="35" height="35" preserveAspectRatio="none"></image></g><rect x="0.5" y="0.5" rx="0" ry="0" width="25" height="50" style="stroke:#000000;stroke-opacity:1; stroke-opacity: 0.005; stroke-width: 0; stroke-dasharray: none; stroke-linecap: butt; stroke-linejoin: miter; stroke-miterlimit: 10;fill:#000000;fill-opacity:1; fill-opacity: 0.005; fill-rule: nonzero; opacity: 1" transform=" matrix(1 0 0 1 979 -4) "/><g transform=" matrix(1 0 0 1 974 442) "><image xlink:href="https://www.DSC.com/lib/3/images/dragIconRoundBigH.svg" x="0" y="0" style="stroke: none; stroke-width: 0; stroke-dasharray: none; stroke-linecap: butt; stroke-linejoin: miter; stroke-miterlimit: 10;fill:#000000;fill-opacity:1; fill-rule: nonzero; opacity: 1" width="35" height="35" preserveAspectRatio="none"></image></g><rect x="0.5" y="0.5" rx="0" ry="0" width="25" height="50" style="stroke:#000000;stroke-opacity:1; stroke-opacity: 0.005; stroke-width: 0; stroke-dasharray: none; stroke-linecap: butt; stroke-linejoin: miter; stroke-miterlimit: 10;fill:#000000;fill-opacity:1; fill-opacity: 0.005; fill-rule: nonzero; opacity: 1" transform=" matrix(1 0 0 1 979 435) "/><g transform=" matrix(1 0 0 1 141.2632978770355 470.5) "><text xml:space="preserve" font-family="Verdana" font-size="11" font-weight="normal" style="stroke: none; stroke-width: 1; stroke-dasharray: none; stroke-linecap: butt; stroke-linejoin: miter; stroke-miterlimit: 10;fill:#000000;fill-opacity:1; fill-rule: nonzero; opacity: 1; white-space: pre" ><tspan x="-11.5" y="7.48" fill="rgba(0,0,0,1)">Aug</tspan></text></g><g transform=" matrix(1 0 0 1 293.2632978770355 470.5) "><text xml:space="preserve" font-family="Verdana" font-size="11" font-weight="normal" style="stroke: none; stroke-width: 1; stroke-dasharray: none; stroke-linecap: butt; stroke-linejoin: miter; stroke-miterlimit: 10;fill:#000000;fill-opacity:1; fill-rule: nonzero; opacity: 1; white-space: pre" ><tspan x="-11.5" y="7.48" fill="rgba(0,0,0,1)">Sep</tspan></text></g><g transform=" matrix(1 0 0 1 441.2632978770355 470.5) "><text xml:space="preserve" font-family="Verdana" font-size="11" font-weight="normal" style="stroke: none; stroke-width: 1; stroke-dasharray: none; stroke-linecap: butt; stroke-linejoin: miter; stroke-miterlimit: 10;fill:#000000;fill-opacity:1; fill-rule: nonzero; opacity: 1; white-space: pre" ><tspan x="-10" y="7.48" fill="rgba(0,0,0,1)">Oct</tspan></text></g><g transform=" matrix(1 0 0 1 593.2632978770355 470.5) "><text xml:space="preserve" font-family="Verdana" font-size="11" font-weight="normal" style="stroke: none; stroke-width: 1; stroke-dasharray: none; stroke-linecap: butt; stroke-linejoin: miter; stroke-miterlimit: 10;fill:#000000;fill-opacity:1; fill-rule: nonzero; opacity: 1; white-space: pre" ><tspan x="-11.5" y="7.48" fill="rgba(0,0,0,1)">Nov</tspan></text></g><g transform=" matrix(1 0 0 1 741.2632978770355 470.5) "><text xml:space="preserve" font-family="Verdana" font-size="11" font-weight="normal" style="stroke: none; stroke-width: 1; stroke-dasharray: none; stroke-linecap: butt; stroke-linejoin: miter; stroke-miterlimit: 10;fill:#000000;fill-opacity:1; fill-rule: nonzero; opacity: 1; white-space: pre" ><tspan x="-11.5" y="7.48" fill="rgba(0,0,0,1)">Dec</tspan></text></g><g transform=" matrix(1 0 0 1 893.2632978770355 470.5) "><text xml:space="preserve" font-family="Verdana" font-size="11" font-weight="bold" style="stroke: none; stroke-width: 1; stroke-dasharray: none; stroke-linecap: butt; stroke-linejoin: miter; stroke-miterlimit: 10;fill:#000000;fill-opacity:1; fill-rule: nonzero; opacity: 1; white-space: pre" ><tspan x="-16.5" y="7.48" fill="rgba(0,0,0,1)">2013</tspan></text></g><g transform=" matrix(1 0 0 1 28 456) "><text xml:space="preserve" font-family="Verdana" font-size="11" font-weight="normal" style="stroke: none; stroke-width: 1; stroke-dasharray: none; stroke-linecap: butt; stroke-linejoin: miter; stroke-miterlimit: 10;fill:#000000;fill-opacity:1; fill-rule: nonzero; opacity: 1; white-space: pre" ><tspan x="-8" y="7.48" fill="rgba(0,0,0,1)">0</tspan></text></g><g transform=" matrix(1 0 0 1 28 407) "><text xml:space="preserve" font-family="Verdana" font-size="11" font-weight="normal" style="stroke: none; stroke-width: 1; stroke-dasharray: none; stroke-linecap: butt; stroke-linejoin: miter; stroke-miterlimit: 10;fill:#000000;fill-opacity:1; fill-rule: nonzero; opacity: 1; white-space: pre" ><tspan x="-15" y="7.48" fill="rgba(0,0,0,1)">10</tspan></text></g><g transform=" matrix(1 0 0 1 28 359) "><text xml:space="preserve" font-family="Verdana" font-size="11" font-weight="normal" style="stroke: none; stroke-width: 1; stroke-dasharray: none; stroke-linecap: butt; stroke-linejoin: miter; stroke-miterlimit: 10;fill:#000000;fill-opacity:1; fill-rule: nonzero; opacity: 1; white-space: pre" ><tspan x="-15" y="7.48" fill="rgba(0,0,0,1)">20</tspan></text></g><g transform=" matrix(1 0 0 1 28 310) "><text xml:space="preserve" font-family="Verdana" font-size="11" font-weight="normal" style="stroke: none; stroke-width: 1; stroke-dasharray: none; stroke-linecap: butt; stroke-linejoin: miter; stroke-miterlimit: 10;fill:#000000;fill-opacity:1; fill-rule: nonzero; opacity: 1; white-space: pre" ><tspan x="-15" y="7.48" fill="rgba(0,0,0,1)">30</tspan></text></g><g transform=" matrix(1 0 0 1 28 261) "><text xml:space="preserve" font-family="Verdana" font-size="11" font-weight="normal" style="stroke: none; stroke-width: 1; stroke-dasharray: none; stroke-linecap: butt; stroke-linejoin: miter; stroke-miterlimit: 10;fill:#000000;fill-opacity:1; fill-rule: nonzero; opacity: 1; white-space: pre" ><tspan x="-15" y="7.48" fill="rgba(0,0,0,1)">40</tspan></text></g><g transform=" matrix(1 0 0 1 28 213) "><text xml:space="preserve" font-family="Verdana" font-size="11" font-weight="normal" style="stroke: none; stroke-width: 1; stroke-dasharray: none; stroke-linecap: butt; stroke-linejoin: miter; stroke-miterlimit: 10;fill:#000000;fill-opacity:1; fill-rule: nonzero; opacity: 1; white-space: pre" ><tspan x="-15" y="7.48" fill="rgba(0,0,0,1)">50</tspan></text></g><g transform=" matrix(1 0 0 1 28 164) "><text xml:space="preserve" font-family="Verdana" font-size="11" font-weight="normal" style="stroke: none; stroke-width: 1; stroke-dasharray: none; stroke-linecap: butt; stroke-linejoin: miter; stroke-miterlimit: 10;fill:#000000;fill-opacity:1; fill-rule: nonzero; opacity: 1; white-space: pre" ><tspan x="-15" y="7.48" fill="rgba(0,0,0,1)">60</tspan></text></g><g transform=" matrix(1 0 0 1 28 115) "><text xml:space="preserve" font-family="Verdana" font-size="11" font-weight="normal" style="stroke: none; stroke-width: 1; stroke-dasharray: none; stroke-linecap: butt; stroke-linejoin: miter; stroke-miterlimit: 10;fill:#000000;fill-opacity:1; fill-rule: nonzero; opacity: 1; white-space: pre" ><tspan x="-15" y="7.48" fill="rgba(0,0,0,1)">70</tspan></text></g><g transform=" matrix(1 0 0 1 28 67) "><text xml:space="preserve" font-family="Verdana" font-size="11" font-weight="normal" style="stroke: none; stroke-width: 1; stroke-dasharray: none; stroke-linecap: butt; stroke-linejoin: miter; stroke-miterlimit: 10;fill:#000000;fill-opacity:1; fill-rule: nonzero; opacity: 1; white-space: pre" ><tspan x="-15" y="7.48" fill="rgba(0,0,0,1)">80</tspan></text></g><g transform=" matrix(1 0 0 1 28 18) "><text xml:space="preserve" font-family="Verdana" font-size="11" font-weight="normal" style="stroke: none; stroke-width: 1; stroke-dasharray: none; stroke-linecap: butt; stroke-linejoin: miter; stroke-miterlimit: 10;fill:#000000;fill-opacity:1; fill-rule: nonzero; opacity: 1; white-space: pre" ><tspan x="-15" y="7.48" fill="rgba(0,0,0,1)">90</tspan></text></g></g><clipPath xmlns="http://www.w3.org/2000/svg" id="DSCEl-20"><rect x="0" y="0" width="925" height="438" rx="0" ry="0" stroke-width="0" fill="none" fill-opacity="0"/></clipPath><clipPath xmlns="http://www.w3.org/2000/svg" id="DSCEl-19"><rect x="0" y="0" width="925" height="438" rx="0" ry="0" stroke-width="0" fill="none" fill-opacity="0"/></clipPath></svg>
