<?xml version="1.0" encoding="UTF-8" standalone="no" ?><!DOCTYPE svg PUBLIC "-//W3C//DTD SVG 1.1//EN" "http://www.w3.org/Graphics/SVG/1.1/DTD/svg11.dtd"><svg xmlns="http://www.w3.org/2000/svg" xmlns:xlink="http://www.w3.org/1999/xlink" version="1.1" width="1056" height="500" viewBox="0 0 1056 500" xml:space="preserve"><desc>Created with Fabric.js 1.7.19</desc><defs></defs><rect x="0" y="0" width="1056" height="500" fill="#3f3f4f"></rect><g style="stroke: none; stroke-width: 1; stroke-dasharray: none; stroke-linecap: butt; stroke-linejoin: miter; stroke-miterlimit: 10; fill: none; fill-rule: nonzero; opacity: 1" transform="translate(0 0)" ><path d="M 0.5 0.5 L 1055.5 0.5 L 1055.5 499.5 L 0.5 499.5 Z" style="stroke:#000000;stroke-opacity:1; stroke-opacity: 0; stroke-width: 1; stroke-dasharray: none; stroke-linecap: butt; stroke-linejoin: miter; stroke-miterlimit: 10;fill:#282828;fill-opacity:1; fill-opacity: 0; fill-rule: nonzero; opacity: 1" transform="" stroke-linecap="round" /><path d="M 0.5 0.5 L 924.5 0.5 L 924.5 413.5 L 0.5 413.5 L 0.5 0.5 Z" style="stroke:#000000;stroke-opacity:1; stroke-opacity: 0; stroke-width: 1; stroke-dasharray: none; stroke-linecap: butt; stroke-linejoin: miter; stroke-miterlimit: 10;fill:#FFFFFF;fill-opacity:1; fill-opacity: 0; fill-rule: nonzero; opacity: 1" transform=" matrix(1 0 0 1 51 55) " stroke-linecap="round" /><path d="M 0.5 0.5 L 0.5 5.5" style="stroke:#FFFFFF;stroke-opacity:1; stroke-opacity: 0.3; stroke-width: 1; stroke-dasharray: none; stroke-linecap: butt; stroke-linejoin: miter; stroke-miterlimit: 10; fill: none; fill-rule: nonzero; opacity: 1" transform=" matrix(1 0 0 1 51 468) " stroke-linecap="round" /><path d="M 0.5 413.5 L 0.5 413.5 L 0.5 0.5" style="stroke:#FFFFFF;stroke-opacity:1; stroke-opacity: 0.1; stroke-width: 1; stroke-dasharray: 3 3; stroke-linecap: butt; stroke-linejoin: miter; stroke-miterlimit: 10; fill: none; fill-rule: nonzero; opacity: 1" transform=" matrix(1 0 0 1 51 55) " stroke-linecap="round" /><path d="M 93.5 0.5 L 93.5 5.5" style="stroke:#FFFFFF;stroke-opacity:1; stroke-opacity: 0.3; stroke-width: 1; stroke-dasharray: none; stroke-linecap: butt; stroke-linejoin: miter; stroke-miterlimit: 10; fill: none; fill-rule: nonzero; opacity: 1" transform=" matrix(1 0 0 1 51 468) " stroke-linecap="round" /><path d="M 93.5 413.5 L 93.5 413.5 L 93.5 0.5" style="stroke:#FFFFFF;stroke-opacity:1; stroke-opacity: 0.1; stroke-width: 1; stroke-dasharray: 3 3; stroke-linecap: butt; stroke-linejoin: miter; stroke-miterlimit: 10; fill: none; fill-rule: nonzero; opacity: 1" transform=" matrix(1 0 0 1 51 55) " stroke-linecap="round" /><path d="M 185.5 0.5 L 185.5 5.5" style="stroke:#FFFFFF;stroke-opacity:1; stroke-opacity: 0.3; stroke-width: 1; stroke-dasharray: none; stroke-linecap: butt; stroke-linejoin: miter; stroke-miterlimit: 10; fill: none; fill-rule: nonzero; opacity: 1" transform=" matrix(1 0 0 1 51 468) " stroke-linecap="round" /><path d="M 185.5 413.5 L 185.5 413.5 L 185.5 0.5" style="stroke:#FFFFFF;stroke-opacity:1; stroke-opacity: 0.1; stroke-width: 1; stroke-dasharray: 3 3; stroke-linecap: butt; stroke-linejoin: miter; stroke-miterlimit: 10; fill: none; fill-rule: nonzero; opacity: 1" transform=" matrix(1 0 0 1 51 55) " stroke-linecap="round" /><path d="M 277.5 0.5 L 277.5 5.5" style="stroke:#FFFFFF;stroke-opacity:1; stroke-opacity: 0.3; stroke-width: 1; stroke-dasharray: none; stroke-linecap: butt; stroke-linejoin: miter; stroke-miterlimit: 10; fill: none; fill-rule: nonzero; opacity: 1" transform=" matrix(1 0 0 1 51 468) " stroke-linecap="round" /><path d="M 277.5 413.5 L 277.5 413.5 L 277.5 0.5" style="stroke:#FFFFFF;stroke-opacity:1; stroke-opacity: 0.1; stroke-width: 1; stroke-dasharray: 3 3; stroke-linecap: butt; stroke-linejoin: miter; stroke-miterlimit: 10; fill: none; fill-rule: nonzero; opacity: 1" transform=" matrix(1 0 0 1 51 55) " stroke-linecap="round" /><path d="M 370.5 0.5 L 370.5 5.5" style="stroke:#FFFFFF;stroke-opacity:1; stroke-opacity: 0.3; stroke-width: 1; stroke-dasharray: none; stroke-linecap: butt; stroke-linejoin: miter; stroke-miterlimit: 10; fill: none; fill-rule: nonzero; opacity: 1" transform=" matrix(1 0 0 1 51 468) " stroke-linecap="round" /><path d="M 370.5 413.5 L 370.5 413.5 L 370.5 0.5" style="stroke:#FFFFFF;stroke-opacity:1; stroke-opacity: 0.1; stroke-width: 1; stroke-dasharray: 3 3; stroke-linecap: butt; stroke-linejoin: miter; stroke-miterlimit: 10; fill: none; fill-rule: nonzero; opacity: 1" transform=" matrix(1 0 0 1 51 55) " stroke-linecap="round" /><path d="M 462.5 0.5 L 462.5 5.5" style="stroke:#FFFFFF;stroke-opacity:1; stroke-opacity: 0.3; stroke-width: 1; stroke-dasharray: none; stroke-linecap: butt; stroke-linejoin: miter; stroke-miterlimit: 10; fill: none; fill-rule: nonzero; opacity: 1" transform=" matrix(1 0 0 1 51 468) " stroke-linecap="round" /><path d="M 462.5 413.5 L 462.5 413.5 L 462.5 0.5" style="stroke:#FFFFFF;stroke-opacity:1; stroke-opacity: 0.1; stroke-width: 1; stroke-dasharray: 3 3; stroke-linecap: butt; stroke-linejoin: miter; stroke-miterlimit: 10; fill: none; fill-rule: nonzero; opacity: 1" transform=" matrix(1 0 0 1 51 55) " stroke-linecap="round" /><path d="M 554.5 0.5 L 554.5 5.5" style="stroke:#FFFFFF;stroke-opacity:1; stroke-opacity: 0.3; stroke-width: 1; stroke-dasharray: none; stroke-linecap: butt; stroke-linejoin: miter; stroke-miterlimit: 10; fill: none; fill-rule: nonzero; opacity: 1" transform=" matrix(1 0 0 1 51 468) " stroke-linecap="round" /><path d="M 554.5 413.5 L 554.5 413.5 L 554.5 0.5" style="stroke:#FFFFFF;stroke-opacity:1; stroke-opacity: 0.1; stroke-width: 1; stroke-dasharray: 3 3; stroke-linecap: butt; stroke-linejoin: miter; stroke-miterlimit: 10; fill: none; fill-rule: nonzero; opacity: 1" transform=" matrix(1 0 0 1 51 55) " stroke-linecap="round" /><path d="M 647.5 0.5 L 647.5 5.5" style="stroke:#FFFFFF;stroke-opacity:1; stroke-opacity: 0.3; stroke-width: 1; stroke-dasharray: none; stroke-linecap: butt; stroke-linejoin: miter; stroke-miterlimit: 10; fill: none; fill-rule: nonzero; opacity: 1" transform=" matrix(1 0 0 1 51 468) " stroke-linecap="round" /><path d="M 647.5 413.5 L 647.5 413.5 L 647.5 0.5" style="stroke:#FFFFFF;stroke-opacity:1; stroke-opacity: 0.1; stroke-width: 1; stroke-dasharray: 3 3; stroke-linecap: butt; stroke-linejoin: miter; stroke-miterlimit: 10; fill: none; fill-rule: nonzero; opacity: 1" transform=" matrix(1 0 0 1 51 55) " stroke-linecap="round" /><path d="M 739.5 0.5 L 739.5 5.5" style="stroke:#FFFFFF;stroke-opacity:1; stroke-opacity: 0.3; stroke-width: 1; stroke-dasharray: none; stroke-linecap: butt; stroke-linejoin: miter; stroke-miterlimit: 10; fill: none; fill-rule: nonzero; opacity: 1" transform=" matrix(1 0 0 1 51 468) " stroke-linecap="round" /><path d="M 739.5 413.5 L 739.5 413.5 L 739.5 0.5" style="stroke:#FFFFFF;stroke-opacity:1; stroke-opacity: 0.1; stroke-width: 1; stroke-dasharray: 3 3; stroke-linecap: butt; stroke-linejoin: miter; stroke-miterlimit: 10; fill: none; fill-rule: nonzero; opacity: 1" transform=" matrix(1 0 0 1 51 55) " stroke-linecap="round" /><path d="M 832.5 0.5 L 832.5 5.5" style="stroke:#FFFFFF;stroke-opacity:1; stroke-opacity: 0.3; stroke-width: 1; stroke-dasharray: none; stroke-linecap: butt; stroke-linejoin: miter; stroke-miterlimit: 10; fill: none; fill-rule: nonzero; opacity: 1" transform=" matrix(1 0 0 1 51 468) " stroke-linecap="round" /><path d="M 832.5 413.5 L 832.5 413.5 L 832.5 0.5" style="stroke:#FFFFFF;stroke-opacity:1; stroke-opacity: 0.1; stroke-width: 1; stroke-dasharray: 3 3; stroke-linecap: butt; stroke-linejoin: miter; stroke-miterlimit: 10; fill: none; fill-rule: nonzero; opacity: 1" transform=" matrix(1 0 0 1 51 55) " stroke-linecap="round" /><path d="M 924.5 0.5 L 924.5 5.5" style="stroke:#FFFFFF;stroke-opacity:1; stroke-opacity: 0.3; stroke-width: 1; stroke-dasharray: none; stroke-linecap: butt; stroke-linejoin: miter; stroke-miterlimit: 10; fill: none; fill-rule: nonzero; opacity: 1" transform=" matrix(1 0 0 1 51 468) " stroke-linecap="round" /><path d="M 924.5 413.5 L 924.5 413.5 L 924.5 0.5" style="stroke:#FFFFFF;stroke-opacity:1; stroke-opacity: 0.1; stroke-width: 1; stroke-dasharray: 3 3; stroke-linecap: butt; stroke-linejoin: miter; stroke-miterlimit: 10; fill: none; fill-rule: nonzero; opacity: 1" transform=" matrix(1 0 0 1 51 55) " stroke-linecap="round" /><path d="M 0.5 413.5 L 0.5 413.5 L 924.5 413.5" style="stroke:#FFFFFF;stroke-opacity:1; stroke-opacity: 0.1; stroke-width: 1; stroke-dasharray: 3 3; stroke-linecap: butt; stroke-linejoin: miter; stroke-miterlimit: 10; fill: none; fill-rule: nonzero; opacity: 1" transform=" matrix(1 0 0 1 51 55) " stroke-linecap="round" /><path d="M 0.5 372.5 L 0.5 372.5 L 924.5 372.5" style="stroke:#FFFFFF;stroke-opacity:1; stroke-opacity: 0.1; stroke-width: 1; stroke-dasharray: 3 3; stroke-linecap: butt; stroke-linejoin: miter; stroke-miterlimit: 10; fill: none; fill-rule: nonzero; opacity: 1" transform=" matrix(1 0 0 1 51 55) " stroke-linecap="round" /><path d="M 0.5 330.5 L 0.5 330.5 L 924.5 330.5" style="stroke:#FFFFFF;stroke-opacity:1; stroke-opacity: 0.1; stroke-width: 1; stroke-dasharray: 3 3; stroke-linecap: butt; stroke-linejoin: miter; stroke-miterlimit: 10; fill: none; fill-rule: nonzero; opacity: 1" transform=" matrix(1 0 0 1 51 55) " stroke-linecap="round" /><path d="M 0.5 289.5 L 0.5 289.5 L 924.5 289.5" style="stroke:#FFFFFF;stroke-opacity:1; stroke-opacity: 0.1; stroke-width: 1; stroke-dasharray: 3 3; stroke-linecap: butt; stroke-linejoin: miter; stroke-miterlimit: 10; fill: none; fill-rule: nonzero; opacity: 1" transform=" matrix(1 0 0 1 51 55) " stroke-linecap="round" /><path d="M 0.5 248.5 L 0.5 248.5 L 924.5 248.5" style="stroke:#FFFFFF;stroke-opacity:1; stroke-opacity: 0.1; stroke-width: 1; stroke-dasharray: 3 3; stroke-linecap: butt; stroke-linejoin: miter; stroke-miterlimit: 10; fill: none; fill-rule: nonzero; opacity: 1" transform=" matrix(1 0 0 1 51 55) " stroke-linecap="round" /><path d="M 0.5 207.5 L 0.5 207.5 L 924.5 207.5" style="stroke:#FFFFFF;stroke-opacity:1; stroke-opacity: 0.1; stroke-width: 1; stroke-dasharray: 3 3; stroke-linecap: butt; stroke-linejoin: miter; stroke-miterlimit: 10; fill: none; fill-rule: nonzero; opacity: 1" transform=" matrix(1 0 0 1 51 55) " stroke-linecap="round" /><path d="M 0.5 165.5 L 0.5 165.5 L 924.5 165.5" style="stroke:#FFFFFF;stroke-opacity:1; stroke-opacity: 0.1; stroke-width: 1; stroke-dasharray: 3 3; stroke-linecap: butt; stroke-linejoin: miter; stroke-miterlimit: 10; fill: none; fill-rule: nonzero; opacity: 1" transform=" matrix(1 0 0 1 51 55) " stroke-linecap="round" /><path d="M 0.5 124.5 L 0.5 124.5 L 924.5 124.5" style="stroke:#FFFFFF;stroke-opacity:1; stroke-opacity: 0.1; stroke-width: 1; stroke-dasharray: 3 3; stroke-linecap: butt; stroke-linejoin: miter; stroke-miterlimit: 10; fill: none; fill-rule: nonzero; opacity: 1" transform=" matrix(1 0 0 1 51 55) " stroke-linecap="round" /><path d="M 0.5 83.5 L 0.5 83.5 L 924.5 83.5" style="stroke:#FFFFFF;stroke-opacity:1; stroke-opacity: 0.1; stroke-width: 1; stroke-dasharray: 3 3; stroke-linecap: butt; stroke-linejoin: miter; stroke-miterlimit: 10; fill: none; fill-rule: nonzero; opacity: 1" transform=" matrix(1 0 0 1 51 55) " stroke-linecap="round" /><path d="M 0.5 41.5 L 0.5 41.5 L 924.5 41.5" style="stroke:#FFFFFF;stroke-opacity:1; stroke-opacity: 0.1; stroke-width: 1; stroke-dasharray: 3 3; stroke-linecap: butt; stroke-linejoin: miter; stroke-miterlimit: 10; fill: none; fill-rule: nonzero; opacity: 1" transform=" matrix(1 0 0 1 51 55) " stroke-linecap="round" /><path d="M 0.5 0.5 L 0.5 0.5 L 924.5 0.5" style="stroke:#FFFFFF;stroke-opacity:1; stroke-opacity: 0.1; stroke-width: 1; stroke-dasharray: 3 3; stroke-linecap: butt; stroke-linejoin: miter; stroke-miterlimit: 10; fill: none; fill-rule: nonzero; opacity: 1" transform=" matrix(1 0 0 1 51 55) " stroke-linecap="round" /><g  clip-path="url(#DSCEl-3)" ><rect x="0.5" y="0.5" rx="0" ry="0" width="93" height="413" style="stroke:#FFFFFF;stroke-opacity:1; stroke-opacity: 0; stroke-width: 0; stroke-dasharray: none; stroke-linecap: butt; stroke-linejoin: miter; stroke-miterlimit: 10;fill:#FFFFFF;fill-opacity:1; fill-opacity: 0; fill-rule: nonzero; opacity: 0" transform=" matrix(1 0 0 1 4 55) "/></g><g  clip-path="url(#DSCEl-9)" ><path d="M -46 322 C -23 317 0 222 46 211 C 92 200 93 95 139 102 C 185 108 185 331 231 341 C 277 351 278 304 324 306 C 370 307 370 383 416 375 C 462 367 462 157 508 150 C 554 142 555 219 601 217 C 647 216 647 130 693 124 C 739 118 739 104 785 102 C 831 99 832 63 878 66 C 924 69 924 158 970 156 C 1016 154 1017 18 1063 19 C 1109 20 1132 174 1155 183 M 0 0 L 0 0" style="stroke:#637BB6;stroke-opacity:1; stroke-opacity: 0.9; stroke-width: 2; stroke-dasharray: none; stroke-linecap: butt; stroke-linejoin: miter; stroke-miterlimit: 10; fill: none; fill-rule: nonzero; opacity: 1" transform=" matrix(1 0 0 1 51 55) " stroke-linecap="round" /></g><g  clip-path="url(#DSCEl-8)" ><path d="M -46 322 C -23 317 0 222 46 211 C 92 200 93 95 139 102 C 185 108 185 331 231 341 C 277 351 278 304 324 306 C 370 307 370 383 416 375 C 462 367 462 157 508 150 C 554 142 555 219 601 217 C 647 216 647 130 693 124 C 739 118 739 104 785 102 C 831 99 832 63 878 66 C 924 69 924 158 970 156 C 1016 154 1017 18 1063 19 C 1109 20 1132 174 1155 183 M 0 0 L 0 0" style="stroke:#D1655D;stroke-opacity:1; stroke-opacity: 0.9; stroke-width: 2; stroke-dasharray: none; stroke-linecap: butt; stroke-linejoin: miter; stroke-miterlimit: 10; fill: none; fill-rule: nonzero; opacity: 1" transform=" matrix(1 0 0 1 51 55) " stroke-linecap="round" /></g><path d="M 0.5 165.5 L 924.5 165.5 L 924.5 165.5" style="stroke:#FFFFFF;stroke-opacity:1; stroke-opacity: 0.2; stroke-width: 1; stroke-dasharray: 3 3; stroke-linecap: butt; stroke-linejoin: miter; stroke-miterlimit: 10; fill: none; fill-rule: nonzero; opacity: 1" transform=" matrix(1 0 0 1 51 55) " stroke-linecap="round" /><path d="M 0.5 37.5 L 925.5 37.5 L 925.5 37.5" style="stroke:#000000;stroke-opacity:1; stroke-opacity: 0; stroke-width: 1; stroke-dasharray: none; stroke-linecap: butt; stroke-linejoin: miter; stroke-miterlimit: 10; fill: none; fill-rule: nonzero; opacity: 1" transform=" matrix(1 0 0 1 51 0) " stroke-linecap="round" /><path d="M 0.5 0.5 L 924.5 0.5" style="stroke:#000000;stroke-opacity:1; stroke-opacity: 0; stroke-width: 1; stroke-dasharray: none; stroke-linecap: butt; stroke-linejoin: miter; stroke-miterlimit: 10; fill: none; fill-rule: nonzero; opacity: 1" transform=" matrix(1 0 0 1 0 55) " stroke-linecap="round" /><path d="M 0.5 0.5 L 0.5 55.5" style="stroke:#000000;stroke-opacity:1; stroke-opacity: 0; stroke-width: 1; stroke-dasharray: none; stroke-linecap: butt; stroke-linejoin: miter; stroke-miterlimit: 10; fill: none; fill-rule: nonzero; opacity: 0" transform=" matrix(1 0 0 1 51 0) " stroke-linecap="round" /><path d="M 0.5 0.5 L 924.5 0.5" style="stroke:#FFFFFF;stroke-opacity:1; stroke-opacity: 0.3; stroke-width: 1; stroke-dasharray: none; stroke-linecap: butt; stroke-linejoin: miter; stroke-miterlimit: 10; fill: none; fill-rule: nonzero; opacity: 1" transform=" matrix(1 0 0 1 51 468) " stroke-linecap="round" /><path d="M 0.5 0.5 L 0.5 413.5" style="stroke:#FFFFFF;stroke-opacity:1; stroke-opacity: 0; stroke-width: 1; stroke-dasharray: none; stroke-linecap: butt; stroke-linejoin: miter; stroke-miterlimit: 10; fill: none; fill-rule: nonzero; opacity: 1" transform=" matrix(1 0 0 1 51 55) " stroke-linecap="round" /><g  clip-path="url(#DSCEl-4)" ><path d="M 0.5 0.5 L 924.5 0.5 L 924.5 0.5" style="stroke:#FFFFFF;stroke-opacity:1; stroke-opacity: 0; stroke-width: 1; stroke-dasharray: none; stroke-linecap: butt; stroke-linejoin: miter; stroke-miterlimit: 10; fill: none; fill-rule: nonzero; opacity: 0" transform=" matrix(1 0 0 1 51 55) " stroke-linecap="round" /></g><rect x="0.5" y="0.5" rx="0" ry="0" width="925" height="55" style="stroke:#000000;stroke-opacity:1; stroke-opacity: 0; stroke-width: 1; stroke-dasharray: none; stroke-linecap: butt; stroke-linejoin: miter; stroke-miterlimit: 10;fill:#000000;fill-opacity:1; fill-opacity: 0; fill-rule: nonzero; opacity: 1" transform=" matrix(1 0 0 1 51 0) "/><rect x="0.5" y="0.5" rx="0" ry="0" width="165" height="56" style="stroke:#888888;stroke-opacity:1; stroke-opacity: 0.1; stroke-width: 0; stroke-dasharray: none; stroke-linecap: butt; stroke-linejoin: miter; stroke-miterlimit: 10;fill:#888888;fill-opacity:1; fill-opacity: 0.1; fill-rule: nonzero; opacity: 1" transform=" matrix(1 0 0 1 414 0) "/><path d="M 8 48 C 12 48 17 43 25 43 C 33 42 33 40 41 39 C 49 39 50 37 58 38 C 66 38 66 45 74 46 C 82 46 83 47 91 47 C 99 47 99 50 107 49 C 115 49 116 40 124 39 C 132 39 132 37 140 37 C 148 37 149 39 157 39 C 165 40 165 41 173 41 C 181 41 182 38 190 38 C 198 37 198 38 206 37 C 214 37 215 36 223 37 C 231 37 231 47 239 48 C 247 48 248 45 256 45 C 264 44 264 42 272 42 C 280 42 281 42 289 42 C 297 42 297 43 305 43 C 313 42 314 37 322 37 C 330 37 330 39 338 39 C 346 39 347 44 355 44 C 363 44 363 39 371 39 C 379 38 380 34 388 34 C 396 34 396 44 404 44 C 412 45 413 43 421 43 C 429 43 429 46 437 46 C 445 46 446 36 454 36 C 462 36 462 39 470 39 C 478 39 479 35 487 35 C 495 35 495 34 503 34 C 511 34 512 32 520 32 C 528 32 528 36 536 36 C 544 36 545 30 553 30 C 561 30 561 37 569 37 C 577 38 578 38 586 38 C 594 38 594 36 602 36 C 610 35 611 30 619 30 C 627 30 627 30 635 30 C 643 30 644 33 652 33 C 660 33 660 28 668 27 C 676 27 677 29 685 29 C 693 29 693 34 701 34 C 709 34 710 33 718 33 C 726 32 726 31 734 30 C 742 30 743 27 751 27 C 759 27 759 32 767 31 C 775 31 776 24 784 24 C 792 23 792 16 800 17 C 808 17 809 25 817 26 C 825 26 825 27 833 27 C 841 27 842 22 850 22 C 858 21 858 20 866 20 C 874 20 875 19 883 19 C 891 19 891 20 899 20 C 907 20 912 19 916 19 M 0 0 L 0 0" style="stroke:#C2C2C2;stroke-opacity:1; stroke-opacity: 0.2; stroke-width: 1; stroke-dasharray: none; stroke-linecap: butt; stroke-linejoin: miter; stroke-miterlimit: 10; fill: none; fill-rule: nonzero; opacity: 1" transform=" matrix(1 0 0 1 51 0) " stroke-linecap="round" /><g  clip-path="url(#DSCEl-10)" ><path d="M 8 48 C 12 48 17 43 25 43 C 33 42 33 40 41 39 C 49 39 50 37 58 38 C 66 38 66 45 74 46 C 82 46 83 47 91 47 C 99 47 99 50 107 49 C 115 49 116 40 124 39 C 132 39 132 37 140 37 C 148 37 149 39 157 39 C 165 40 165 41 173 41 C 181 41 182 38 190 38 C 198 37 198 38 206 37 C 214 37 215 36 223 37 C 231 37 231 47 239 48 C 247 48 248 45 256 45 C 264 44 264 42 272 42 C 280 42 281 42 289 42 C 297 42 297 43 305 43 C 313 42 314 37 322 37 C 330 37 330 39 338 39 C 346 39 347 44 355 44 C 363 44 363 39 371 39 C 379 38 380 34 388 34 C 396 34 396 44 404 44 C 412 45 413 43 421 43 C 429 43 429 46 437 46 C 445 46 446 36 454 36 C 462 36 462 39 470 39 C 478 39 479 35 487 35 C 495 35 495 34 503 34 C 511 34 512 32 520 32 C 528 32 528 36 536 36 C 544 36 545 30 553 30 C 561 30 561 37 569 37 C 577 38 578 38 586 38 C 594 38 594 36 602 36 C 610 35 611 30 619 30 C 627 30 627 30 635 30 C 643 30 644 33 652 33 C 660 33 660 28 668 27 C 676 27 677 29 685 29 C 693 29 693 34 701 34 C 709 34 710 33 718 33 C 726 32 726 31 734 30 C 742 30 743 27 751 27 C 759 27 759 32 767 31 C 775 31 776 24 784 24 C 792 23 792 16 800 17 C 808 17 809 25 817 26 C 825 26 825 27 833 27 C 841 27 842 22 850 22 C 858 21 858 20 866 20 C 874 20 875 19 883 19 C 891 19 891 20 899 20 C 907 20 912 19 916 19 M 0 0 L 0 0" style="stroke:#888888;stroke-opacity:1; stroke-width: 1; stroke-dasharray: none; stroke-linecap: butt; stroke-linejoin: miter; stroke-miterlimit: 10; fill: none; fill-rule: nonzero; opacity: 1" transform=" matrix(1 0 0 1 51 0) " stroke-linecap="round" /></g><g transform=" matrix(1 0 0 1 54 43.5) "><text xml:space="preserve" font-family="Verdana" font-size="11" font-weight="normal" style="stroke: none; stroke-width: 1; stroke-dasharray: none; stroke-linecap: butt; stroke-linejoin: miter; stroke-miterlimit: 10;fill:#888888;fill-opacity:1; fill-rule: nonzero; opacity: 1; white-space: pre" ><tspan x="0" y="7.48" fill="rgba(136,136,136,1)">1950</tspan></text></g><g transform=" matrix(1 0 0 1 136 43.5) "><text xml:space="preserve" font-family="Verdana" font-size="11" font-weight="normal" style="stroke: none; stroke-width: 1; stroke-dasharray: none; stroke-linecap: butt; stroke-linejoin: miter; stroke-miterlimit: 10;fill:#888888;fill-opacity:1; fill-rule: nonzero; opacity: 1; white-space: pre" ><tspan x="0" y="7.48" fill="rgba(136,136,136,1)">1955</tspan></text></g><g transform=" matrix(1 0 0 1 219 43.5) "><text xml:space="preserve" font-family="Verdana" font-size="11" font-weight="normal" style="stroke: none; stroke-width: 1; stroke-dasharray: none; stroke-linecap: butt; stroke-linejoin: miter; stroke-miterlimit: 10;fill:#888888;fill-opacity:1; fill-rule: nonzero; opacity: 1; white-space: pre" ><tspan x="0" y="7.48" fill="rgba(136,136,136,1)">1960</tspan></text></g><g transform=" matrix(1 0 0 1 302 43.5) "><text xml:space="preserve" font-family="Verdana" font-size="11" font-weight="normal" style="stroke: none; stroke-width: 1; stroke-dasharray: none; stroke-linecap: butt; stroke-linejoin: miter; stroke-miterlimit: 10;fill:#888888;fill-opacity:1; fill-rule: nonzero; opacity: 1; white-space: pre" ><tspan x="0" y="7.48" fill="rgba(136,136,136,1)">1965</tspan></text></g><g transform=" matrix(1 0 0 1 384 43.5) "><text xml:space="preserve" font-family="Verdana" font-size="11" font-weight="normal" style="stroke: none; stroke-width: 1; stroke-dasharray: none; stroke-linecap: butt; stroke-linejoin: miter; stroke-miterlimit: 10;fill:#888888;fill-opacity:1; fill-rule: nonzero; opacity: 1; white-space: pre" ><tspan x="0" y="7.48" fill="rgba(136,136,136,1)">1970</tspan></text></g><g transform=" matrix(1 0 0 1 466 43.5) "><text xml:space="preserve" font-family="Verdana" font-size="11" font-weight="normal" style="stroke: none; stroke-width: 1; stroke-dasharray: none; stroke-linecap: butt; stroke-linejoin: miter; stroke-miterlimit: 10;fill:#888888;fill-opacity:1; fill-rule: nonzero; opacity: 1; white-space: pre" ><tspan x="0" y="7.48" fill="rgba(136,136,136,1)">1975</tspan></text></g><g transform=" matrix(1 0 0 1 549 43.5) "><text xml:space="preserve" font-family="Verdana" font-size="11" font-weight="normal" style="stroke: none; stroke-width: 1; stroke-dasharray: none; stroke-linecap: butt; stroke-linejoin: miter; stroke-miterlimit: 10;fill:#888888;fill-opacity:1; fill-rule: nonzero; opacity: 1; white-space: pre" ><tspan x="0" y="7.48" fill="rgba(136,136,136,1)">1980</tspan></text></g><g transform=" matrix(1 0 0 1 632 43.5) "><text xml:space="preserve" font-family="Verdana" font-size="11" font-weight="normal" style="stroke: none; stroke-width: 1; stroke-dasharray: none; stroke-linecap: butt; stroke-linejoin: miter; stroke-miterlimit: 10;fill:#888888;fill-opacity:1; fill-rule: nonzero; opacity: 1; white-space: pre" ><tspan x="0" y="7.48" fill="rgba(136,136,136,1)">1985</tspan></text></g><g transform=" matrix(1 0 0 1 714 43.5) "><text xml:space="preserve" font-family="Verdana" font-size="11" font-weight="normal" style="stroke: none; stroke-width: 1; stroke-dasharray: none; stroke-linecap: butt; stroke-linejoin: miter; stroke-miterlimit: 10;fill:#888888;fill-opacity:1; fill-rule: nonzero; opacity: 1; white-space: pre" ><tspan x="0" y="7.48" fill="rgba(136,136,136,1)">1990</tspan></text></g><g transform=" matrix(1 0 0 1 796 43.5) "><text xml:space="preserve" font-family="Verdana" font-size="11" font-weight="normal" style="stroke: none; stroke-width: 1; stroke-dasharray: none; stroke-linecap: butt; stroke-linejoin: miter; stroke-miterlimit: 10;fill:#888888;fill-opacity:1; fill-rule: nonzero; opacity: 1; white-space: pre" ><tspan x="0" y="7.48" fill="rgba(136,136,136,1)">1995</tspan></text></g><g transform=" matrix(1 0 0 1 879 43.5) "><text xml:space="preserve" font-family="Verdana" font-size="11" font-weight="normal" style="stroke: none; stroke-width: 1; stroke-dasharray: none; stroke-linecap: butt; stroke-linejoin: miter; stroke-miterlimit: 10;fill:#888888;fill-opacity:1; fill-rule: nonzero; opacity: 1; white-space: pre" ><tspan x="0" y="7.48" fill="rgba(136,136,136,1)">2000</tspan></text></g><rect x="0.5" y="0.5" rx="0" ry="0" width="925" height="55" style="stroke:#000000;stroke-opacity:1; stroke-opacity: 0.005; stroke-width: 0; stroke-dasharray: none; stroke-linecap: butt; stroke-linejoin: miter; stroke-miterlimit: 10;fill:#000000;fill-opacity:1; fill-opacity: 0.005; fill-rule: nonzero; opacity: 1" transform=" matrix(1 0 0 1 51 0) "/><rect x="363" y="0.5" rx="0" ry="0" width="165" height="55" style="stroke:#000000;stroke-opacity:1; stroke-opacity: 0.005; stroke-width: 0; stroke-dasharray: none; stroke-linecap: butt; stroke-linejoin: miter; stroke-miterlimit: 10;fill:#000000;fill-opacity:1; fill-opacity: 0.005; fill-rule: nonzero; opacity: 1" transform=" matrix(1 0 0 1 51 0) "/><g transform=" matrix(1 0 0 1 397 10) "><image xlink:href="https://www.DSC.com/lib/3/images/dragIconRoundBig.svg" x="0" y="0" style="stroke: none; stroke-width: 0; stroke-dasharray: none; stroke-linecap: butt; stroke-linejoin: miter; stroke-miterlimit: 10;fill:#000000;fill-opacity:1; fill-rule: nonzero; opacity: 1" width="35" height="35" preserveAspectRatio="none"></image></g><rect x="0.5" y="0.5" rx="0" ry="0" width="25" height="55" style="stroke:#000000;stroke-opacity:1; stroke-opacity: 0.005; stroke-width: 0; stroke-dasharray: none; stroke-linecap: butt; stroke-linejoin: miter; stroke-miterlimit: 10;fill:#000000;fill-opacity:1; fill-opacity: 0.005; fill-rule: nonzero; opacity: 1" transform=" matrix(1 0 0 1 402 0) "/><g transform=" matrix(1 0 0 1 562 10) "><image xlink:href="https://www.DSC.com/lib/3/images/dragIconRoundBig.svg" x="0" y="0" style="stroke: none; stroke-width: 0; stroke-dasharray: none; stroke-linecap: butt; stroke-linejoin: miter; stroke-miterlimit: 10;fill:#000000;fill-opacity:1; fill-rule: nonzero; opacity: 1" width="35" height="35" preserveAspectRatio="none"></image></g><rect x="0.5" y="0.5" rx="0" ry="0" width="25" height="55" style="stroke:#000000;stroke-opacity:1; stroke-opacity: 0.005; stroke-width: 0; stroke-dasharray: none; stroke-linecap: butt; stroke-linejoin: miter; stroke-miterlimit: 10;fill:#000000;fill-opacity:1; fill-opacity: 0.005; fill-rule: nonzero; opacity: 1" transform=" matrix(1 0 0 1 567 0) "/><circle cx="0" cy="0" r="4" style="stroke:#637BB6;stroke-opacity:1; stroke-opacity: 0; stroke-width: 2; stroke-dasharray: none; stroke-linecap: butt; stroke-linejoin: miter; stroke-miterlimit: 10;fill:#637BB6;fill-opacity:1; fill-rule: nonzero; opacity: 1" transform="  matrix(1 0 0 1 97 266) "/><circle cx="0" cy="0" r="4" style="stroke:#D1655D;stroke-opacity:1; stroke-opacity: 0; stroke-width: 2; stroke-dasharray: none; stroke-linecap: butt; stroke-linejoin: miter; stroke-miterlimit: 10;fill:#D1655D;fill-opacity:1; fill-rule: nonzero; opacity: 1" transform="  matrix(1 0 0 1 190 157) "/><circle cx="0" cy="0" r="4" style="stroke:#637BB6;stroke-opacity:1; stroke-opacity: 0; stroke-width: 2; stroke-dasharray: none; stroke-linecap: butt; stroke-linejoin: miter; stroke-miterlimit: 10;fill:#637BB6;fill-opacity:1; fill-rule: nonzero; opacity: 1" transform="  matrix(1 0 0 1 282 396) "/><circle cx="0" cy="0" r="4" style="stroke:#637BB6;stroke-opacity:1; stroke-opacity: 0; stroke-width: 2; stroke-dasharray: none; stroke-linecap: butt; stroke-linejoin: miter; stroke-miterlimit: 10;fill:#637BB6;fill-opacity:1; fill-rule: nonzero; opacity: 1" transform="  matrix(1 0 0 1 375 361) "/><circle cx="0" cy="0" r="4" style="stroke:#637BB6;stroke-opacity:1; stroke-opacity: 0; stroke-width: 2; stroke-dasharray: none; stroke-linecap: butt; stroke-linejoin: miter; stroke-miterlimit: 10;fill:#637BB6;fill-opacity:1; fill-rule: nonzero; opacity: 1" transform="  matrix(1 0 0 1 467 430) "/><circle cx="0" cy="0" r="4" style="stroke:#D1655D;stroke-opacity:1; stroke-opacity: 0; stroke-width: 2; stroke-dasharray: none; stroke-linecap: butt; stroke-linejoin: miter; stroke-miterlimit: 10;fill:#D1655D;fill-opacity:1; fill-rule: nonzero; opacity: 1" transform="  matrix(1 0 0 1 559 205) "/><circle cx="0" cy="0" r="4" style="stroke:#637BB6;stroke-opacity:1; stroke-opacity: 0; stroke-width: 2; stroke-dasharray: none; stroke-linecap: butt; stroke-linejoin: miter; stroke-miterlimit: 10;fill:#637BB6;fill-opacity:1; fill-rule: nonzero; opacity: 1" transform="  matrix(1 0 0 1 652 272) "/><circle cx="0" cy="0" r="4" style="stroke:#D1655D;stroke-opacity:1; stroke-opacity: 0; stroke-width: 2; stroke-dasharray: none; stroke-linecap: butt; stroke-linejoin: miter; stroke-miterlimit: 10;fill:#D1655D;fill-opacity:1; fill-rule: nonzero; opacity: 1" transform="  matrix(1 0 0 1 744 179) "/><circle cx="0" cy="0" r="4" style="stroke:#D1655D;stroke-opacity:1; stroke-opacity: 0; stroke-width: 2; stroke-dasharray: none; stroke-linecap: butt; stroke-linejoin: miter; stroke-miterlimit: 10;fill:#D1655D;fill-opacity:1; fill-rule: nonzero; opacity: 1" transform="  matrix(1 0 0 1 836 157) "/><circle cx="0" cy="0" r="4" style="stroke:#D1655D;stroke-opacity:1; stroke-opacity: 0; stroke-width: 2; stroke-dasharray: none; stroke-linecap: butt; stroke-linejoin: miter; stroke-miterlimit: 10;fill:#D1655D;fill-opacity:1; fill-rule: nonzero; opacity: 1" transform="  matrix(1 0 0 1 929 121) "/><g transform=" matrix(1 0 0 1 97.28852997550938 480.5) "><text xml:space="preserve" font-family="Verdana" font-size="11" font-weight="normal" style="stroke: none; stroke-width: 1; stroke-dasharray: none; stroke-linecap: butt; stroke-linejoin: miter; stroke-miterlimit: 10;fill:#E7E7E7;fill-opacity:1; fill-rule: nonzero; opacity: 1; white-space: pre" ><tspan x="-14.5" y="7.48" fill="rgba(231,231,231,1)">1972</tspan></text></g><g transform=" matrix(1 0 0 1 190.2885299755094 480.5) "><text xml:space="preserve" font-family="Verdana" font-size="11" font-weight="normal" style="stroke: none; stroke-width: 1; stroke-dasharray: none; stroke-linecap: butt; stroke-linejoin: miter; stroke-miterlimit: 10;fill:#E7E7E7;fill-opacity:1; fill-rule: nonzero; opacity: 1; white-space: pre" ><tspan x="-14.5" y="7.48" fill="rgba(231,231,231,1)">1973</tspan></text></g><g transform=" matrix(1 0 0 1 282.2885299755094 480.5) "><text xml:space="preserve" font-family="Verdana" font-size="11" font-weight="normal" style="stroke: none; stroke-width: 1; stroke-dasharray: none; stroke-linecap: butt; stroke-linejoin: miter; stroke-miterlimit: 10;fill:#E7E7E7;fill-opacity:1; fill-rule: nonzero; opacity: 1; white-space: pre" ><tspan x="-14.5" y="7.48" fill="rgba(231,231,231,1)">1974</tspan></text></g><g transform=" matrix(1 0 0 1 374.2885299755094 480.5) "><text xml:space="preserve" font-family="Verdana" font-size="11" font-weight="normal" style="stroke: none; stroke-width: 1; stroke-dasharray: none; stroke-linecap: butt; stroke-linejoin: miter; stroke-miterlimit: 10;fill:#E7E7E7;fill-opacity:1; fill-rule: nonzero; opacity: 1; white-space: pre" ><tspan x="-14.5" y="7.48" fill="rgba(231,231,231,1)">1975</tspan></text></g><g transform=" matrix(1 0 0 1 467.2885299755094 480.5) "><text xml:space="preserve" font-family="Verdana" font-size="11" font-weight="normal" style="stroke: none; stroke-width: 1; stroke-dasharray: none; stroke-linecap: butt; stroke-linejoin: miter; stroke-miterlimit: 10;fill:#E7E7E7;fill-opacity:1; fill-rule: nonzero; opacity: 1; white-space: pre" ><tspan x="-14.5" y="7.48" fill="rgba(231,231,231,1)">1976</tspan></text></g><g transform=" matrix(1 0 0 1 559.2885299755094 480.5) "><text xml:space="preserve" font-family="Verdana" font-size="11" font-weight="normal" style="stroke: none; stroke-width: 1; stroke-dasharray: none; stroke-linecap: butt; stroke-linejoin: miter; stroke-miterlimit: 10;fill:#E7E7E7;fill-opacity:1; fill-rule: nonzero; opacity: 1; white-space: pre" ><tspan x="-14.5" y="7.48" fill="rgba(231,231,231,1)">1977</tspan></text></g><g transform=" matrix(1 0 0 1 651.2885299755094 480.5) "><text xml:space="preserve" font-family="Verdana" font-size="11" font-weight="normal" style="stroke: none; stroke-width: 1; stroke-dasharray: none; stroke-linecap: butt; stroke-linejoin: miter; stroke-miterlimit: 10;fill:#E7E7E7;fill-opacity:1; fill-rule: nonzero; opacity: 1; white-space: pre" ><tspan x="-14.5" y="7.48" fill="rgba(231,231,231,1)">1978</tspan></text></g><g transform=" matrix(1 0 0 1 744.2885299755094 480.5) "><text xml:space="preserve" font-family="Verdana" font-size="11" font-weight="normal" style="stroke: none; stroke-width: 1; stroke-dasharray: none; stroke-linecap: butt; stroke-linejoin: miter; stroke-miterlimit: 10;fill:#E7E7E7;fill-opacity:1; fill-rule: nonzero; opacity: 1; white-space: pre" ><tspan x="-14.5" y="7.48" fill="rgba(231,231,231,1)">1979</tspan></text></g><g transform=" matrix(1 0 0 1 836.2885299755094 480.5) "><text xml:space="preserve" font-family="Verdana" font-size="11" font-weight="normal" style="stroke: none; stroke-width: 1; stroke-dasharray: none; stroke-linecap: butt; stroke-linejoin: miter; stroke-miterlimit: 10;fill:#E7E7E7;fill-opacity:1; fill-rule: nonzero; opacity: 1; white-space: pre" ><tspan x="-14.5" y="7.48" fill="rgba(231,231,231,1)">1980</tspan></text></g><g transform=" matrix(1 0 0 1 929.2885299755094 480.5) "><text xml:space="preserve" font-family="Verdana" font-size="11" font-weight="normal" style="stroke: none; stroke-width: 1; stroke-dasharray: none; stroke-linecap: butt; stroke-linejoin: miter; stroke-miterlimit: 10;fill:#E7E7E7;fill-opacity:1; fill-rule: nonzero; opacity: 1; white-space: pre" ><tspan x="-14.5" y="7.48" fill="rgba(231,231,231,1)">1981</tspan></text></g><g transform=" matrix(1 0 0 1 39 466) "><text xml:space="preserve" font-family="Verdana" font-size="11" font-weight="normal" style="stroke: none; stroke-width: 1; stroke-dasharray: none; stroke-linecap: butt; stroke-linejoin: miter; stroke-miterlimit: 10;fill:#E7E7E7;fill-opacity:1; fill-rule: nonzero; opacity: 1; white-space: pre" ><tspan x="-31" y="7.48" fill="rgba(231,231,231,1)">-0.30</tspan></text></g><g transform=" matrix(1 0 0 1 39 425) "><text xml:space="preserve" font-family="Verdana" font-size="11" font-weight="normal" style="stroke: none; stroke-width: 1; stroke-dasharray: none; stroke-linecap: butt; stroke-linejoin: miter; stroke-miterlimit: 10;fill:#E7E7E7;fill-opacity:1; fill-rule: nonzero; opacity: 1; white-space: pre" ><tspan x="-31" y="7.48" fill="rgba(231,231,231,1)">-0.25</tspan></text></g><g transform=" matrix(1 0 0 1 39 383) "><text xml:space="preserve" font-family="Verdana" font-size="11" font-weight="normal" style="stroke: none; stroke-width: 1; stroke-dasharray: none; stroke-linecap: butt; stroke-linejoin: miter; stroke-miterlimit: 10;fill:#E7E7E7;fill-opacity:1; fill-rule: nonzero; opacity: 1; white-space: pre" ><tspan x="-31" y="7.48" fill="rgba(231,231,231,1)">-0.20</tspan></text></g><g transform=" matrix(1 0 0 1 39 342) "><text xml:space="preserve" font-family="Verdana" font-size="11" font-weight="normal" style="stroke: none; stroke-width: 1; stroke-dasharray: none; stroke-linecap: butt; stroke-linejoin: miter; stroke-miterlimit: 10;fill:#E7E7E7;fill-opacity:1; fill-rule: nonzero; opacity: 1; white-space: pre" ><tspan x="-31" y="7.48" fill="rgba(231,231,231,1)">-0.15</tspan></text></g><g transform=" matrix(1 0 0 1 39 301) "><text xml:space="preserve" font-family="Verdana" font-size="11" font-weight="normal" style="stroke: none; stroke-width: 1; stroke-dasharray: none; stroke-linecap: butt; stroke-linejoin: miter; stroke-miterlimit: 10;fill:#E7E7E7;fill-opacity:1; fill-rule: nonzero; opacity: 1; white-space: pre" ><tspan x="-31" y="7.48" fill="rgba(231,231,231,1)">-0.10</tspan></text></g><g transform=" matrix(1 0 0 1 39 260) "><text xml:space="preserve" font-family="Verdana" font-size="11" font-weight="normal" style="stroke: none; stroke-width: 1; stroke-dasharray: none; stroke-linecap: butt; stroke-linejoin: miter; stroke-miterlimit: 10;fill:#E7E7E7;fill-opacity:1; fill-rule: nonzero; opacity: 1; white-space: pre" ><tspan x="-31" y="7.48" fill="rgba(231,231,231,1)">-0.05</tspan></text></g><g transform=" matrix(1 0 0 1 39 218) "><text xml:space="preserve" font-family="Verdana" font-size="11" font-weight="normal" style="stroke: none; stroke-width: 1; stroke-dasharray: none; stroke-linecap: butt; stroke-linejoin: miter; stroke-miterlimit: 10;fill:#E7E7E7;fill-opacity:1; fill-rule: nonzero; opacity: 1; white-space: pre" ><tspan x="-26" y="7.48" fill="rgba(231,231,231,1)">0.00</tspan></text></g><g transform=" matrix(1 0 0 1 39 177) "><text xml:space="preserve" font-family="Verdana" font-size="11" font-weight="normal" style="stroke: none; stroke-width: 1; stroke-dasharray: none; stroke-linecap: butt; stroke-linejoin: miter; stroke-miterlimit: 10;fill:#E7E7E7;fill-opacity:1; fill-rule: nonzero; opacity: 1; white-space: pre" ><tspan x="-26" y="7.48" fill="rgba(231,231,231,1)">0.05</tspan></text></g><g transform=" matrix(1 0 0 1 39 136) "><text xml:space="preserve" font-family="Verdana" font-size="11" font-weight="normal" style="stroke: none; stroke-width: 1; stroke-dasharray: none; stroke-linecap: butt; stroke-linejoin: miter; stroke-miterlimit: 10;fill:#E7E7E7;fill-opacity:1; fill-rule: nonzero; opacity: 1; white-space: pre" ><tspan x="-26" y="7.48" fill="rgba(231,231,231,1)">0.10</tspan></text></g><g transform=" matrix(1 0 0 1 39 94) "><text xml:space="preserve" font-family="Verdana" font-size="11" font-weight="normal" style="stroke: none; stroke-width: 1; stroke-dasharray: none; stroke-linecap: butt; stroke-linejoin: miter; stroke-miterlimit: 10;fill:#E7E7E7;fill-opacity:1; fill-rule: nonzero; opacity: 1; white-space: pre" ><tspan x="-26" y="7.48" fill="rgba(231,231,231,1)">0.15</tspan></text></g><g transform=" matrix(1 0 0 1 39 53) "><text xml:space="preserve" font-family="Verdana" font-size="11" font-weight="normal" style="stroke: none; stroke-width: 1; stroke-dasharray: none; stroke-linecap: butt; stroke-linejoin: miter; stroke-miterlimit: 10;fill:#E7E7E7;fill-opacity:1; fill-rule: nonzero; opacity: 1; white-space: pre" ><tspan x="-26" y="7.48" fill="rgba(231,231,231,1)">0.20</tspan></text></g><rect x="0.5" y="0.5" rx="0" ry="0" width="95" height="33" style="stroke:#FFFFFF;stroke-opacity:1; stroke-width: 1; stroke-dasharray: none; stroke-linecap: butt; stroke-linejoin: miter; stroke-miterlimit: 10;fill:#FFFFFF;fill-opacity:1; fill-rule: nonzero; opacity: 0" transform=" matrix(1 0 0 1 881 55) "/><g transform=" matrix(1 0 0 1 889 63) "><image xlink:href="https://www.DSC.com/lib/3/images/lensWhite.svg" x="0" y="0" style="stroke: none; stroke-width: 0; stroke-dasharray: none; stroke-linecap: butt; stroke-linejoin: miter; stroke-miterlimit: 10;fill:#000000;fill-opacity:1; fill-rule: nonzero; opacity: 1" width="19" height="19" preserveAspectRatio="none"></image></g><g transform=" matrix(1 0 0 1 913 70) "><text xml:space="preserve" font-family="Verdana" font-size="11" font-weight="normal" style="stroke: none; stroke-width: 1; stroke-dasharray: none; stroke-linecap: butt; stroke-linejoin: miter; stroke-miterlimit: 10;fill:#E7E7E7;fill-opacity:1; fill-rule: nonzero; opacity: 1; white-space: pre" ><tspan x="0" y="7.48" fill="rgba(231,231,231,1)">Show all</tspan></text></g></g><clipPath xmlns="http://www.w3.org/2000/svg" id="DSCEl-3"><rect x="-1" y="-1" width="926" height="415" rx="0" ry="0" stroke-width="0" fill="none" fill-opacity="0"/></clipPath><clipPath xmlns="http://www.w3.org/2000/svg" id="DSCEl-9"><rect x="0" y="166" width="924" height="248" rx="0" ry="0" stroke-width="0" fill="none" fill-opacity="0"/></clipPath><clipPath xmlns="http://www.w3.org/2000/svg" id="DSCEl-8"><rect x="0" y="0" width="924" height="166" rx="0" ry="0" stroke-width="0" fill="none" fill-opacity="0"/></clipPath><clipPath xmlns="http://www.w3.org/2000/svg" id="DSCEl-4"><rect x="0" y="0" width="924" height="413" rx="0" ry="0" stroke-width="0" fill="none" fill-opacity="0"/></clipPath><clipPath xmlns="http://www.w3.org/2000/svg" id="DSCEl-10"><rect x="363" y="0" width="165" height="56" rx="0" ry="0" stroke-width="0" fill="none" fill-opacity="0"/></clipPath></svg>
