<?xml version="1.0" encoding="UTF-8" standalone="no" ?><!DOCTYPE svg PUBLIC "-//W3C//DTD SVG 1.1//EN" "http://www.w3.org/Graphics/SVG/1.1/DTD/svg11.dtd"><svg xmlns="http://www.w3.org/2000/svg" xmlns:xlink="http://www.w3.org/1999/xlink" version="1.1" width="1056" height="500" viewBox="0 0 1056 500" xml:space="preserve"><desc>Created with Fabric.js 1.7.19</desc><defs></defs><rect x="0" y="0" width="1056" height="500" fill="#FFFFFF"></rect><g style="stroke: none; stroke-width: 1; stroke-dasharray: none; stroke-linecap: butt; stroke-linejoin: miter; stroke-miterlimit: 10; fill: none; fill-rule: nonzero; opacity: 1" transform="translate(0 0)" ><path d="M 0.5 0.5 L 1055.5 0.5 L 1055.5 499.5 L 0.5 499.5 Z" style="stroke:#000000;stroke-opacity:1; stroke-opacity: 0; stroke-width: 1; stroke-dasharray: none; stroke-linecap: butt; stroke-linejoin: miter; stroke-miterlimit: 10;fill:#FFFFFF;fill-opacity:1; fill-opacity: 0; fill-rule: nonzero; opacity: 1" transform="" stroke-linecap="round" /><path d="M 0.5 0.5 L 986.5 0.5 L 986.5 418.5 L 0.5 418.5 L 0.5 0.5 Z" style="stroke:#000000;stroke-opacity:1; stroke-opacity: 0; stroke-width: 1; stroke-dasharray: none; stroke-linecap: butt; stroke-linejoin: miter; stroke-miterlimit: 10;fill:#FFFFFF;fill-opacity:1; fill-opacity: 0; fill-rule: nonzero; opacity: 1" transform=" matrix(1 0 0 1 49 50) " stroke-linecap="round" /><path d="M 0.5 0.5 L 0.5 5.5" style="stroke:#000000;stroke-opacity:1; stroke-opacity: 0.3; stroke-width: 1; stroke-dasharray: none; stroke-linecap: butt; stroke-linejoin: miter; stroke-miterlimit: 10; fill: none; fill-rule: nonzero; opacity: 1" transform=" matrix(1 0 0 1 49 468) " stroke-linecap="round" /><path d="M 0.5 418.5 L 0.5 418.5 L 0.5 0.5" style="stroke:#000000;stroke-opacity:1; stroke-opacity: 0.1; stroke-width: 1; stroke-dasharray: none; stroke-linecap: butt; stroke-linejoin: miter; stroke-miterlimit: 10; fill: none; fill-rule: nonzero; opacity: 1" transform=" matrix(1 0 0 1 49 50) " stroke-linecap="round" /><path d="M 131.5 0.5 L 131.5 5.5" style="stroke:#000000;stroke-opacity:1; stroke-opacity: 0.3; stroke-width: 1; stroke-dasharray: none; stroke-linecap: butt; stroke-linejoin: miter; stroke-miterlimit: 10; fill: none; fill-rule: nonzero; opacity: 1" transform=" matrix(1 0 0 1 49 468) " stroke-linecap="round" /><path d="M 131.5 418.5 L 131.5 418.5 L 131.5 0.5" style="stroke:#000000;stroke-opacity:1; stroke-opacity: 0.1; stroke-width: 1; stroke-dasharray: none; stroke-linecap: butt; stroke-linejoin: miter; stroke-miterlimit: 10; fill: none; fill-rule: nonzero; opacity: 1" transform=" matrix(1 0 0 1 49 50) " stroke-linecap="round" /><path d="M 263.5 0.5 L 263.5 5.5" style="stroke:#000000;stroke-opacity:1; stroke-opacity: 0.3; stroke-width: 1; stroke-dasharray: none; stroke-linecap: butt; stroke-linejoin: miter; stroke-miterlimit: 10; fill: none; fill-rule: nonzero; opacity: 1" transform=" matrix(1 0 0 1 49 468) " stroke-linecap="round" /><path d="M 263.5 418.5 L 263.5 418.5 L 263.5 0.5" style="stroke:#000000;stroke-opacity:1; stroke-opacity: 0.1; stroke-width: 1; stroke-dasharray: none; stroke-linecap: butt; stroke-linejoin: miter; stroke-miterlimit: 10; fill: none; fill-rule: nonzero; opacity: 1" transform=" matrix(1 0 0 1 49 50) " stroke-linecap="round" /><path d="M 394.5 0.5 L 394.5 5.5" style="stroke:#000000;stroke-opacity:1; stroke-opacity: 0.3; stroke-width: 1; stroke-dasharray: none; stroke-linecap: butt; stroke-linejoin: miter; stroke-miterlimit: 10; fill: none; fill-rule: nonzero; opacity: 1" transform=" matrix(1 0 0 1 49 468) " stroke-linecap="round" /><path d="M 394.5 418.5 L 394.5 418.5 L 394.5 0.5" style="stroke:#000000;stroke-opacity:1; stroke-opacity: 0.1; stroke-width: 1; stroke-dasharray: none; stroke-linecap: butt; stroke-linejoin: miter; stroke-miterlimit: 10; fill: none; fill-rule: nonzero; opacity: 1" transform=" matrix(1 0 0 1 49 50) " stroke-linecap="round" /><path d="M 526.5 0.5 L 526.5 5.5" style="stroke:#000000;stroke-opacity:1; stroke-opacity: 0.3; stroke-width: 1; stroke-dasharray: none; stroke-linecap: butt; stroke-linejoin: miter; stroke-miterlimit: 10; fill: none; fill-rule: nonzero; opacity: 1" transform=" matrix(1 0 0 1 49 468) " stroke-linecap="round" /><path d="M 526.5 418.5 L 526.5 418.5 L 526.5 0.5" style="stroke:#000000;stroke-opacity:1; stroke-opacity: 0.1; stroke-width: 1; stroke-dasharray: none; stroke-linecap: butt; stroke-linejoin: miter; stroke-miterlimit: 10; fill: none; fill-rule: nonzero; opacity: 1" transform=" matrix(1 0 0 1 49 50) " stroke-linecap="round" /><path d="M 657.5 0.5 L 657.5 5.5" style="stroke:#000000;stroke-opacity:1; stroke-opacity: 0.3; stroke-width: 1; stroke-dasharray: none; stroke-linecap: butt; stroke-linejoin: miter; stroke-miterlimit: 10; fill: none; fill-rule: nonzero; opacity: 1" transform=" matrix(1 0 0 1 49 468) " stroke-linecap="round" /><path d="M 657.5 418.5 L 657.5 418.5 L 657.5 0.5" style="stroke:#000000;stroke-opacity:1; stroke-opacity: 0.1; stroke-width: 1; stroke-dasharray: none; stroke-linecap: butt; stroke-linejoin: miter; stroke-miterlimit: 10; fill: none; fill-rule: nonzero; opacity: 1" transform=" matrix(1 0 0 1 49 50) " stroke-linecap="round" /><path d="M 789.5 0.5 L 789.5 5.5" style="stroke:#000000;stroke-opacity:1; stroke-opacity: 0.3; stroke-width: 1; stroke-dasharray: none; stroke-linecap: butt; stroke-linejoin: miter; stroke-miterlimit: 10; fill: none; fill-rule: nonzero; opacity: 1" transform=" matrix(1 0 0 1 49 468) " stroke-linecap="round" /><path d="M 789.5 418.5 L 789.5 418.5 L 789.5 0.5" style="stroke:#000000;stroke-opacity:1; stroke-opacity: 0.1; stroke-width: 1; stroke-dasharray: none; stroke-linecap: butt; stroke-linejoin: miter; stroke-miterlimit: 10; fill: none; fill-rule: nonzero; opacity: 1" transform=" matrix(1 0 0 1 49 50) " stroke-linecap="round" /><path d="M 920.5 0.5 L 920.5 5.5" style="stroke:#000000;stroke-opacity:1; stroke-opacity: 0.3; stroke-width: 1; stroke-dasharray: none; stroke-linecap: butt; stroke-linejoin: miter; stroke-miterlimit: 10; fill: none; fill-rule: nonzero; opacity: 1" transform=" matrix(1 0 0 1 49 468) " stroke-linecap="round" /><path d="M 920.5 418.5 L 920.5 418.5 L 920.5 0.5" style="stroke:#000000;stroke-opacity:1; stroke-opacity: 0.1; stroke-width: 1; stroke-dasharray: none; stroke-linecap: butt; stroke-linejoin: miter; stroke-miterlimit: 10; fill: none; fill-rule: nonzero; opacity: 1" transform=" matrix(1 0 0 1 49 50) " stroke-linecap="round" /><path d="M 0.5 418.5 L 6.5 418.5" style="stroke:#000000;stroke-opacity:1; stroke-opacity: 0.3; stroke-width: 1; stroke-dasharray: none; stroke-linecap: butt; stroke-linejoin: miter; stroke-miterlimit: 10; fill: none; fill-rule: nonzero; opacity: 1" transform=" matrix(1 0 0 1 43 50) " stroke-linecap="round" /><path d="M 0.5 418.5 L 0.5 418.5 L 986.5 418.5" style="stroke:#000000;stroke-opacity:1; stroke-opacity: 0.1; stroke-width: 1; stroke-dasharray: none; stroke-linecap: butt; stroke-linejoin: miter; stroke-miterlimit: 10; fill: none; fill-rule: nonzero; opacity: 1" transform=" matrix(1 0 0 1 49 50) " stroke-linecap="round" /><path d="M 0.5 366.5 L 6.5 366.5" style="stroke:#000000;stroke-opacity:1; stroke-opacity: 0.3; stroke-width: 1; stroke-dasharray: none; stroke-linecap: butt; stroke-linejoin: miter; stroke-miterlimit: 10; fill: none; fill-rule: nonzero; opacity: 1" transform=" matrix(1 0 0 1 43 50) " stroke-linecap="round" /><path d="M 0.5 366.5 L 0.5 366.5 L 986.5 366.5" style="stroke:#000000;stroke-opacity:1; stroke-opacity: 0.1; stroke-width: 1; stroke-dasharray: none; stroke-linecap: butt; stroke-linejoin: miter; stroke-miterlimit: 10; fill: none; fill-rule: nonzero; opacity: 1" transform=" matrix(1 0 0 1 49 50) " stroke-linecap="round" /><path d="M 0.5 314.5 L 6.5 314.5" style="stroke:#000000;stroke-opacity:1; stroke-opacity: 0.3; stroke-width: 1; stroke-dasharray: none; stroke-linecap: butt; stroke-linejoin: miter; stroke-miterlimit: 10; fill: none; fill-rule: nonzero; opacity: 1" transform=" matrix(1 0 0 1 43 50) " stroke-linecap="round" /><path d="M 0.5 314.5 L 0.5 314.5 L 986.5 314.5" style="stroke:#000000;stroke-opacity:1; stroke-opacity: 0.1; stroke-width: 1; stroke-dasharray: none; stroke-linecap: butt; stroke-linejoin: miter; stroke-miterlimit: 10; fill: none; fill-rule: nonzero; opacity: 1" transform=" matrix(1 0 0 1 49 50) " stroke-linecap="round" /><path d="M 0.5 261.5 L 6.5 261.5" style="stroke:#000000;stroke-opacity:1; stroke-opacity: 0.3; stroke-width: 1; stroke-dasharray: none; stroke-linecap: butt; stroke-linejoin: miter; stroke-miterlimit: 10; fill: none; fill-rule: nonzero; opacity: 1" transform=" matrix(1 0 0 1 43 50) " stroke-linecap="round" /><path d="M 0.5 261.5 L 0.5 261.5 L 986.5 261.5" style="stroke:#000000;stroke-opacity:1; stroke-opacity: 0.1; stroke-width: 1; stroke-dasharray: none; stroke-linecap: butt; stroke-linejoin: miter; stroke-miterlimit: 10; fill: none; fill-rule: nonzero; opacity: 1" transform=" matrix(1 0 0 1 49 50) " stroke-linecap="round" /><path d="M 0.5 209.5 L 6.5 209.5" style="stroke:#000000;stroke-opacity:1; stroke-opacity: 0.3; stroke-width: 1; stroke-dasharray: none; stroke-linecap: butt; stroke-linejoin: miter; stroke-miterlimit: 10; fill: none; fill-rule: nonzero; opacity: 1" transform=" matrix(1 0 0 1 43 50) " stroke-linecap="round" /><path d="M 0.5 209.5 L 0.5 209.5 L 986.5 209.5" style="stroke:#000000;stroke-opacity:1; stroke-opacity: 0.1; stroke-width: 1; stroke-dasharray: none; stroke-linecap: butt; stroke-linejoin: miter; stroke-miterlimit: 10; fill: none; fill-rule: nonzero; opacity: 1" transform=" matrix(1 0 0 1 49 50) " stroke-linecap="round" /><path d="M 0.5 157.5 L 6.5 157.5" style="stroke:#000000;stroke-opacity:1; stroke-opacity: 0.3; stroke-width: 1; stroke-dasharray: none; stroke-linecap: butt; stroke-linejoin: miter; stroke-miterlimit: 10; fill: none; fill-rule: nonzero; opacity: 1" transform=" matrix(1 0 0 1 43 50) " stroke-linecap="round" /><path d="M 0.5 157.5 L 0.5 157.5 L 986.5 157.5" style="stroke:#000000;stroke-opacity:1; stroke-opacity: 0.1; stroke-width: 1; stroke-dasharray: none; stroke-linecap: butt; stroke-linejoin: miter; stroke-miterlimit: 10; fill: none; fill-rule: nonzero; opacity: 1" transform=" matrix(1 0 0 1 49 50) " stroke-linecap="round" /><path d="M 0.5 105.5 L 6.5 105.5" style="stroke:#000000;stroke-opacity:1; stroke-opacity: 0.3; stroke-width: 1; stroke-dasharray: none; stroke-linecap: butt; stroke-linejoin: miter; stroke-miterlimit: 10; fill: none; fill-rule: nonzero; opacity: 1" transform=" matrix(1 0 0 1 43 50) " stroke-linecap="round" /><path d="M 0.5 105.5 L 0.5 105.5 L 986.5 105.5" style="stroke:#000000;stroke-opacity:1; stroke-opacity: 0.1; stroke-width: 1; stroke-dasharray: none; stroke-linecap: butt; stroke-linejoin: miter; stroke-miterlimit: 10; fill: none; fill-rule: nonzero; opacity: 1" transform=" matrix(1 0 0 1 49 50) " stroke-linecap="round" /><path d="M 0.5 52.5 L 6.5 52.5" style="stroke:#000000;stroke-opacity:1; stroke-opacity: 0.3; stroke-width: 1; stroke-dasharray: none; stroke-linecap: butt; stroke-linejoin: miter; stroke-miterlimit: 10; fill: none; fill-rule: nonzero; opacity: 1" transform=" matrix(1 0 0 1 43 50) " stroke-linecap="round" /><path d="M 0.5 52.5 L 0.5 52.5 L 986.5 52.5" style="stroke:#000000;stroke-opacity:1; stroke-opacity: 0.1; stroke-width: 1; stroke-dasharray: none; stroke-linecap: butt; stroke-linejoin: miter; stroke-miterlimit: 10; fill: none; fill-rule: nonzero; opacity: 1" transform=" matrix(1 0 0 1 49 50) " stroke-linecap="round" /><path d="M 0.5 0.5 L 6.5 0.5" style="stroke:#000000;stroke-opacity:1; stroke-opacity: 0.3; stroke-width: 1; stroke-dasharray: none; stroke-linecap: butt; stroke-linejoin: miter; stroke-miterlimit: 10; fill: none; fill-rule: nonzero; opacity: 1" transform=" matrix(1 0 0 1 43 50) " stroke-linecap="round" /><path d="M 0.5 0.5 L 0.5 0.5 L 986.5 0.5" style="stroke:#000000;stroke-opacity:1; stroke-opacity: 0.1; stroke-width: 1; stroke-dasharray: none; stroke-linecap: butt; stroke-linejoin: miter; stroke-miterlimit: 10; fill: none; fill-rule: nonzero; opacity: 1" transform=" matrix(1 0 0 1 49 50) " stroke-linecap="round" /><path d="M 7.5 345.5 L 33.5 345.5" style="stroke:#7F8DA9;stroke-opacity:1; stroke-width: 2; stroke-dasharray: none; stroke-linecap: butt; stroke-linejoin: miter; stroke-miterlimit: 10; fill: none; fill-rule: nonzero; opacity: 1" transform=" matrix(1 0 0 1 49 50) " stroke-linecap="round" /><path d="M 33.5 401.5 L 33.5 329.5" style="stroke:#7F8DA9;stroke-opacity:1; stroke-width: 2; stroke-dasharray: none; stroke-linecap: butt; stroke-linejoin: miter; stroke-miterlimit: 10; fill: none; fill-rule: nonzero; opacity: 1" transform=" matrix(1 0 0 1 49 50) " stroke-linecap="round" /><path d="M 33.5 344.5 L 59.5 344.5" style="stroke:#7F8DA9;stroke-opacity:1; stroke-width: 2; stroke-dasharray: none; stroke-linecap: butt; stroke-linejoin: miter; stroke-miterlimit: 10; fill: none; fill-rule: nonzero; opacity: 1" transform=" matrix(1 0 0 1 49 50) " stroke-linecap="round" /><path d="M 73.5 292.5 L 99.5 292.5" style="stroke:#7F8DA9;stroke-opacity:1; stroke-width: 2; stroke-dasharray: none; stroke-linecap: butt; stroke-linejoin: miter; stroke-miterlimit: 10; fill: none; fill-rule: nonzero; opacity: 1" transform=" matrix(1 0 0 1 49 50) " stroke-linecap="round" /><path d="M 99.5 315.5 L 99.5 277.5" style="stroke:#7F8DA9;stroke-opacity:1; stroke-width: 2; stroke-dasharray: none; stroke-linecap: butt; stroke-linejoin: miter; stroke-miterlimit: 10; fill: none; fill-rule: nonzero; opacity: 1" transform=" matrix(1 0 0 1 49 50) " stroke-linecap="round" /><path d="M 99.5 292.5 L 125.5 292.5" style="stroke:#7F8DA9;stroke-opacity:1; stroke-width: 2; stroke-dasharray: none; stroke-linecap: butt; stroke-linejoin: miter; stroke-miterlimit: 10; fill: none; fill-rule: nonzero; opacity: 1" transform=" matrix(1 0 0 1 49 50) " stroke-linecap="round" /><path d="M 270.5 272.5 L 296.5 272.5" style="stroke:#DB4C3C;stroke-opacity:1; stroke-width: 2; stroke-dasharray: none; stroke-linecap: butt; stroke-linejoin: miter; stroke-miterlimit: 10; fill: none; fill-rule: nonzero; opacity: 1" transform=" matrix(1 0 0 1 49 50) " stroke-linecap="round" /><path d="M 296.5 308.5 L 296.5 266.5" style="stroke:#DB4C3C;stroke-opacity:1; stroke-width: 2; stroke-dasharray: none; stroke-linecap: butt; stroke-linejoin: miter; stroke-miterlimit: 10; fill: none; fill-rule: nonzero; opacity: 1" transform=" matrix(1 0 0 1 49 50) " stroke-linecap="round" /><path d="M 296.5 290.5 L 322.5 290.5" style="stroke:#DB4C3C;stroke-opacity:1; stroke-width: 2; stroke-dasharray: none; stroke-linecap: butt; stroke-linejoin: miter; stroke-miterlimit: 10; fill: none; fill-rule: nonzero; opacity: 1" transform=" matrix(1 0 0 1 49 50) " stroke-linecap="round" /><path d="M 336.5 290.5 L 362.5 290.5" style="stroke:#7F8DA9;stroke-opacity:1; stroke-width: 2; stroke-dasharray: none; stroke-linecap: butt; stroke-linejoin: miter; stroke-miterlimit: 10; fill: none; fill-rule: nonzero; opacity: 1" transform=" matrix(1 0 0 1 49 50) " stroke-linecap="round" /><path d="M 362.5 303.5 L 362.5 220.5" style="stroke:#7F8DA9;stroke-opacity:1; stroke-width: 2; stroke-dasharray: none; stroke-linecap: butt; stroke-linejoin: miter; stroke-miterlimit: 10; fill: none; fill-rule: nonzero; opacity: 1" transform=" matrix(1 0 0 1 49 50) " stroke-linecap="round" /><path d="M 362.5 234.5 L 388.5 234.5" style="stroke:#7F8DA9;stroke-opacity:1; stroke-width: 2; stroke-dasharray: none; stroke-linecap: butt; stroke-linejoin: miter; stroke-miterlimit: 10; fill: none; fill-rule: nonzero; opacity: 1" transform=" matrix(1 0 0 1 49 50) " stroke-linecap="round" /><path d="M 401.5 196.5 L 427.5 196.5" style="stroke:#7F8DA9;stroke-opacity:1; stroke-width: 2; stroke-dasharray: none; stroke-linecap: butt; stroke-linejoin: miter; stroke-miterlimit: 10; fill: none; fill-rule: nonzero; opacity: 1" transform=" matrix(1 0 0 1 49 50) " stroke-linecap="round" /><path d="M 427.5 206.5 L 427.5 180.5" style="stroke:#7F8DA9;stroke-opacity:1; stroke-width: 2; stroke-dasharray: none; stroke-linecap: butt; stroke-linejoin: miter; stroke-miterlimit: 10; fill: none; fill-rule: nonzero; opacity: 1" transform=" matrix(1 0 0 1 49 50) " stroke-linecap="round" /><path d="M 427.5 183.5 L 453.5 183.5" style="stroke:#7F8DA9;stroke-opacity:1; stroke-width: 2; stroke-dasharray: none; stroke-linecap: butt; stroke-linejoin: miter; stroke-miterlimit: 10; fill: none; fill-rule: nonzero; opacity: 1" transform=" matrix(1 0 0 1 49 50) " stroke-linecap="round" /><path d="M 467.5 177.5 L 493.5 177.5" style="stroke:#DB4C3C;stroke-opacity:1; stroke-width: 2; stroke-dasharray: none; stroke-linecap: butt; stroke-linejoin: miter; stroke-miterlimit: 10; fill: none; fill-rule: nonzero; opacity: 1" transform=" matrix(1 0 0 1 49 50) " stroke-linecap="round" /><path d="M 493.5 212.5 L 493.5 174.5" style="stroke:#DB4C3C;stroke-opacity:1; stroke-width: 2; stroke-dasharray: none; stroke-linecap: butt; stroke-linejoin: miter; stroke-miterlimit: 10; fill: none; fill-rule: nonzero; opacity: 1" transform=" matrix(1 0 0 1 49 50) " stroke-linecap="round" /><path d="M 493.5 198.5 L 519.5 198.5" style="stroke:#DB4C3C;stroke-opacity:1; stroke-width: 2; stroke-dasharray: none; stroke-linecap: butt; stroke-linejoin: miter; stroke-miterlimit: 10; fill: none; fill-rule: nonzero; opacity: 1" transform=" matrix(1 0 0 1 49 50) " stroke-linecap="round" /><path d="M 533.5 203.5 L 559.5 203.5" style="stroke:#7F8DA9;stroke-opacity:1; stroke-width: 2; stroke-dasharray: none; stroke-linecap: butt; stroke-linejoin: miter; stroke-miterlimit: 10; fill: none; fill-rule: nonzero; opacity: 1" transform=" matrix(1 0 0 1 49 50) " stroke-linecap="round" /><path d="M 559.5 211.5 L 559.5 153.5" style="stroke:#7F8DA9;stroke-opacity:1; stroke-width: 2; stroke-dasharray: none; stroke-linecap: butt; stroke-linejoin: miter; stroke-miterlimit: 10; fill: none; fill-rule: nonzero; opacity: 1" transform=" matrix(1 0 0 1 49 50) " stroke-linecap="round" /><path d="M 559.5 154.5 L 585.5 154.5" style="stroke:#7F8DA9;stroke-opacity:1; stroke-width: 2; stroke-dasharray: none; stroke-linecap: butt; stroke-linejoin: miter; stroke-miterlimit: 10; fill: none; fill-rule: nonzero; opacity: 1" transform=" matrix(1 0 0 1 49 50) " stroke-linecap="round" /><path d="M 730.5 174.5 L 756.5 174.5" style="stroke:#DB4C3C;stroke-opacity:1; stroke-width: 2; stroke-dasharray: none; stroke-linecap: butt; stroke-linejoin: miter; stroke-miterlimit: 10; fill: none; fill-rule: nonzero; opacity: 1" transform=" matrix(1 0 0 1 49 50) " stroke-linecap="round" /><path d="M 756.5 187.5 L 756.5 160.5" style="stroke:#DB4C3C;stroke-opacity:1; stroke-width: 2; stroke-dasharray: none; stroke-linecap: butt; stroke-linejoin: miter; stroke-miterlimit: 10; fill: none; fill-rule: nonzero; opacity: 1" transform=" matrix(1 0 0 1 49 50) " stroke-linecap="round" /><path d="M 756.5 185.5 L 782.5 185.5" style="stroke:#DB4C3C;stroke-opacity:1; stroke-width: 2; stroke-dasharray: none; stroke-linecap: butt; stroke-linejoin: miter; stroke-miterlimit: 10; fill: none; fill-rule: nonzero; opacity: 1" transform=" matrix(1 0 0 1 49 50) " stroke-linecap="round" /><path d="M 796.5 199.5 L 822.5 199.5" style="stroke:#DB4C3C;stroke-opacity:1; stroke-width: 2; stroke-dasharray: none; stroke-linecap: butt; stroke-linejoin: miter; stroke-miterlimit: 10; fill: none; fill-rule: nonzero; opacity: 1" transform=" matrix(1 0 0 1 49 50) " stroke-linecap="round" /><path d="M 822.5 244.5 L 822.5 184.5" style="stroke:#DB4C3C;stroke-opacity:1; stroke-width: 2; stroke-dasharray: none; stroke-linecap: butt; stroke-linejoin: miter; stroke-miterlimit: 10; fill: none; fill-rule: nonzero; opacity: 1" transform=" matrix(1 0 0 1 49 50) " stroke-linecap="round" /><path d="M 822.5 242.5 L 848.5 242.5" style="stroke:#DB4C3C;stroke-opacity:1; stroke-width: 2; stroke-dasharray: none; stroke-linecap: butt; stroke-linejoin: miter; stroke-miterlimit: 10; fill: none; fill-rule: nonzero; opacity: 1" transform=" matrix(1 0 0 1 49 50) " stroke-linecap="round" /><path d="M 861.5 210.5 L 887.5 210.5" style="stroke:#7F8DA9;stroke-opacity:1; stroke-width: 2; stroke-dasharray: none; stroke-linecap: butt; stroke-linejoin: miter; stroke-miterlimit: 10; fill: none; fill-rule: nonzero; opacity: 1" transform=" matrix(1 0 0 1 49 50) " stroke-linecap="round" /><path d="M 887.5 214.5 L 887.5 165.5" style="stroke:#7F8DA9;stroke-opacity:1; stroke-width: 2; stroke-dasharray: none; stroke-linecap: butt; stroke-linejoin: miter; stroke-miterlimit: 10; fill: none; fill-rule: nonzero; opacity: 1" transform=" matrix(1 0 0 1 49 50) " stroke-linecap="round" /><path d="M 887.5 166.5 L 913.5 166.5" style="stroke:#7F8DA9;stroke-opacity:1; stroke-width: 2; stroke-dasharray: none; stroke-linecap: butt; stroke-linejoin: miter; stroke-miterlimit: 10; fill: none; fill-rule: nonzero; opacity: 1" transform=" matrix(1 0 0 1 49 50) " stroke-linecap="round" /><path d="M 927.5 181.5 L 953.5 181.5" style="stroke:#7F8DA9;stroke-opacity:1; stroke-width: 2; stroke-dasharray: none; stroke-linecap: butt; stroke-linejoin: miter; stroke-miterlimit: 10; fill: none; fill-rule: nonzero; opacity: 1" transform=" matrix(1 0 0 1 49 50) " stroke-linecap="round" /><path d="M 953.5 144.5 L 979.5 144.5" style="stroke:#7F8DA9;stroke-opacity:1; stroke-width: 2; stroke-dasharray: none; stroke-linecap: butt; stroke-linejoin: miter; stroke-miterlimit: 10; fill: none; fill-rule: nonzero; opacity: 1" transform=" matrix(1 0 0 1 49 50) " stroke-linecap="round" /><path d="M 986.5 110.5 L 986.5 110.5" style="stroke:#DB4C3C;stroke-opacity:1; stroke-width: 2; stroke-dasharray: none; stroke-linecap: butt; stroke-linejoin: miter; stroke-miterlimit: 10; fill: none; fill-rule: nonzero; opacity: 1" transform=" matrix(1 0 0 1 49 50) " stroke-linecap="round" /><path d="M 986.5 120.5 L 986.5 120.5" style="stroke:#DB4C3C;stroke-opacity:1; stroke-width: 2; stroke-dasharray: none; stroke-linecap: butt; stroke-linejoin: miter; stroke-miterlimit: 10; fill: none; fill-rule: nonzero; opacity: 1" transform=" matrix(1 0 0 1 49 50) " stroke-linecap="round" /><path d="M 986.5 105.5 L 986.5 105.5" style="stroke:#7F8DA9;stroke-opacity:1; stroke-width: 2; stroke-dasharray: none; stroke-linecap: butt; stroke-linejoin: miter; stroke-miterlimit: 10; fill: none; fill-rule: nonzero; opacity: 1" transform=" matrix(1 0 0 1 49 50) " stroke-linecap="round" /><path d="M 953.5 185.5 L 953.5 123.5" style="stroke:#7F8DA9;stroke-opacity:1; stroke-width: 2; stroke-dasharray: none; stroke-linecap: butt; stroke-linejoin: miter; stroke-miterlimit: 10; fill: none; fill-rule: nonzero; opacity: 1" transform=" matrix(1 0 0 1 49 50) " stroke-linecap="round" /><path d="M 986.5 61.5 L 986.5 61.5" style="stroke:#7F8DA9;stroke-opacity:1; stroke-width: 2; stroke-dasharray: none; stroke-linecap: butt; stroke-linejoin: miter; stroke-miterlimit: 10; fill: none; fill-rule: nonzero; opacity: 1" transform=" matrix(1 0 0 1 49 50) " stroke-linecap="round" /><path d="M 0.5 0.5 L 986.5 0.5" style="stroke:#000000;stroke-opacity:1; stroke-opacity: 0; stroke-width: 1; stroke-dasharray: none; stroke-linecap: butt; stroke-linejoin: miter; stroke-miterlimit: 10; fill: none; fill-rule: nonzero; opacity: 1" transform=" matrix(1 0 0 1 0 30) " stroke-linecap="round" /><path d="M 0.5 0.5 L 0.5 30.5" style="stroke:#000000;stroke-opacity:1; stroke-opacity: 0; stroke-width: 1; stroke-dasharray: none; stroke-linecap: butt; stroke-linejoin: miter; stroke-miterlimit: 10; fill: none; fill-rule: nonzero; opacity: 0" transform=" matrix(1 0 0 1 49 0) " stroke-linecap="round" /><path d="M 0.5 0.5 L 986.5 0.5" style="stroke:#000000;stroke-opacity:1; stroke-opacity: 0.3; stroke-width: 1; stroke-dasharray: none; stroke-linecap: butt; stroke-linejoin: miter; stroke-miterlimit: 10; fill: none; fill-rule: nonzero; opacity: 1" transform=" matrix(1 0 0 1 49 468) " stroke-linecap="round" /><path d="M 0.5 0.5 L 0.5 418.5" style="stroke:#000000;stroke-opacity:1; stroke-opacity: 0.3; stroke-width: 1; stroke-dasharray: none; stroke-linecap: butt; stroke-linejoin: miter; stroke-miterlimit: 10; fill: none; fill-rule: nonzero; opacity: 1" transform=" matrix(1 0 0 1 49 50) " stroke-linecap="round" /><g  clip-path="url(#DSCEl-4)" ><path d="M 0.5 0.5 L 0.5 0.5 L 0.5 418.5" style="stroke:#000000;stroke-opacity:1; stroke-opacity: 0; stroke-width: 1; stroke-dasharray: none; stroke-linecap: butt; stroke-linejoin: miter; stroke-miterlimit: 10; fill: none; fill-rule: nonzero; opacity: 0" transform=" matrix(1 0 0 1 936 50) " stroke-linecap="round" /></g><g  clip-path="url(#DSCEl-4)" ><path d="M 0.5 0.5 L 986.5 0.5 L 986.5 0.5" style="stroke:#000000;stroke-opacity:1; stroke-opacity: 0; stroke-width: 1; stroke-dasharray: none; stroke-linecap: butt; stroke-linejoin: miter; stroke-miterlimit: 10; fill: none; fill-rule: nonzero; opacity: 0" transform=" matrix(1 0 0 1 49 461) " stroke-linecap="round" /></g><rect x="0.5" y="0.5" rx="0" ry="0" width="987" height="30" style="stroke:#000000;stroke-opacity:1; stroke-opacity: 0.12; stroke-width: 1; stroke-dasharray: none; stroke-linecap: butt; stroke-linejoin: miter; stroke-miterlimit: 10;fill:#000000;fill-opacity:1; fill-opacity: 0.12; fill-rule: nonzero; opacity: 1" transform=" matrix(1 0 0 1 49 20) "/><rect x="0.5" y="0.5" rx="0" ry="0" width="76" height="31" style="stroke:#FFFFFF;stroke-opacity:1; stroke-opacity: 0.4; stroke-width: 0; stroke-dasharray: none; stroke-linecap: butt; stroke-linejoin: miter; stroke-miterlimit: 10;fill:#FFFFFF;fill-opacity:1; fill-opacity: 0.4; fill-rule: nonzero; opacity: 1" transform=" matrix(1 0 0 1 119 20) "/><path d="M 3.5 23.202 L 8.5 24.13 L 23.5 23.45 L 28.5 23.494 L 33.5 23.698 L 38.5 25.222 L 43.5 25.5 L 58.5 24.942 L 63.5 25.694 L 68.5 26.52 L 73.5 27.09 L 78.5 26.088 L 93.5 26.056 L 98.5 24.986 L 103.5 23.998 L 108.5 24.286 L 113.5 23.44 L 128.5 24.05 L 133.5 25.136 L 138.5 23.684 L 143.5 23.25 L 148.5 22.804 L 169.5 21.668 L 174.5 23.148 L 179.5 23.498 L 184.5 24.146 L 199.5 23.158 L 204.5 23.402 L 209.5 23.13 L 214.5 23.06 L 219.5 22.738 L 234.5 22.818 L 239.5 22.316 L 244.5 22.346 L 249.5 22.438 L 254.5 21.67 L 269.5 20.844 L 274.5 19.864 L 279.5 19.946 L 284.5 19.6 L 289.5 19.806 L 304.5 19.232 L 309.5 18.81 L 314.5 18.916 L 319.5 19.252 L 324.5 18.21 L 340.5 16.918 L 345.5 16.928 L 350.5 17.142 L 355.5 18.054 L 360.5 17.05 L 375.5 17.104 L 380.5 16.584 L 385.5 15.95 L 390.5 15.8 L 395.5 16.416 L 410.5 15.628 L 415.5 13.268 L 420.5 13.314 L 425.5 13.944 L 430.5 13.56 L 445.5 13.482 L 450.5 13.1 L 455.5 12.51 L 460.5 13.012 L 465.5 12.926 L 480.5 13.264 L 485.5 12.142 L 490.5 13.24 L 496.5 15.406 L 501.5 17.426 L 516.5 19.748 L 521.5 16.508 L 526.5 17.278 L 531.5 17.64 L 536.5 17.222 L 551.5 17.71 L 556.5 16.73 L 561.5 16.808 L 571.5 16.192 L 586.5 15.992 L 591.5 15.538 L 596.5 14.456 L 601.5 13.642 L 606.5 14.056 L 621.5 14.728 L 626.5 14.538 L 631.5 13.4 L 636.5 12.51 L 641.5 11.64 L 656.5 11.658 L 662.5 12.792 L 667.5 12.328 L 672.5 12.134 L 677.5 12.422 L 692.5 13.62 L 697.5 13.904 L 702.5 13.876 L 707.5 13.058 L 712.5 11.718 L 727.5 10.74 L 737.5 10.71 L 742.5 10.786 L 747.5 10.534 L 762.5 10.884 L 772.5 11.532 L 777.5 11.514 L 782.5 14.49 L 797.5 14.972 L 802.5 16.25 L 807.5 14.62 L 812.5 14.896 L 817.5 15.962 L 833.5 14.744 L 838.5 16.692 L 843.5 18.572 L 848.5 18.322 L 853.5 18.228 L 873.5 19.372 L 878.5 22.686 L 883.5 23.38 L 888.5 24.498 L 903.5 24.498 L 908.5 24.192 L 913.5 24.064 L 918.5 23.428 L 923.5 23.75 L 938.5 24.17 L 943.5 24.628 L 948.5 26.1 L 953.5 26.252 L 958.5 25.404 L 973.5 24.61 L 978.5 25.528 L 983.5 24.62 M 0 0 L 0 0" style="stroke:#BBBBBB;stroke-opacity:1; stroke-opacity: 0; stroke-width: 1; stroke-dasharray: none; stroke-linecap: butt; stroke-linejoin: round; stroke-miterlimit: 10; fill: none; fill-rule: nonzero; opacity: 1" transform=" matrix(1 0 0 1 49 20) " stroke-linecap="round" /><path d="M 3.5 23.202 L 8.5 24.13 L 23.5 23.45 L 28.5 23.494 L 33.5 23.698 L 38.5 25.222 L 43.5 25.5 L 58.5 24.942 L 63.5 25.694 L 68.5 26.52 L 73.5 27.09 L 78.5 26.088 L 93.5 26.056 L 98.5 24.986 L 103.5 23.998 L 108.5 24.286 L 113.5 23.44 L 128.5 24.05 L 133.5 25.136 L 138.5 23.684 L 143.5 23.25 L 148.5 22.804 L 169.5 21.668 L 174.5 23.148 L 179.5 23.498 L 184.5 24.146 L 199.5 23.158 L 204.5 23.402 L 209.5 23.13 L 214.5 23.06 L 219.5 22.738 L 234.5 22.818 L 239.5 22.316 L 244.5 22.346 L 249.5 22.438 L 254.5 21.67 L 269.5 20.844 L 274.5 19.864 L 279.5 19.946 L 284.5 19.6 L 289.5 19.806 L 304.5 19.232 L 309.5 18.81 L 314.5 18.916 L 319.5 19.252 L 324.5 18.21 L 340.5 16.918 L 345.5 16.928 L 350.5 17.142 L 355.5 18.054 L 360.5 17.05 L 375.5 17.104 L 380.5 16.584 L 385.5 15.95 L 390.5 15.8 L 395.5 16.416 L 410.5 15.628 L 415.5 13.268 L 420.5 13.314 L 425.5 13.944 L 430.5 13.56 L 445.5 13.482 L 450.5 13.1 L 455.5 12.51 L 460.5 13.012 L 465.5 12.926 L 480.5 13.264 L 485.5 12.142 L 490.5 13.24 L 496.5 15.406 L 501.5 17.426 L 516.5 19.748 L 521.5 16.508 L 526.5 17.278 L 531.5 17.64 L 536.5 17.222 L 551.5 17.71 L 556.5 16.73 L 561.5 16.808 L 571.5 16.192 L 586.5 15.992 L 591.5 15.538 L 596.5 14.456 L 601.5 13.642 L 606.5 14.056 L 621.5 14.728 L 626.5 14.538 L 631.5 13.4 L 636.5 12.51 L 641.5 11.64 L 656.5 11.658 L 662.5 12.792 L 667.5 12.328 L 672.5 12.134 L 677.5 12.422 L 692.5 13.62 L 697.5 13.904 L 702.5 13.876 L 707.5 13.058 L 712.5 11.718 L 727.5 10.74 L 737.5 10.71 L 742.5 10.786 L 747.5 10.534 L 762.5 10.884 L 772.5 11.532 L 777.5 11.514 L 782.5 14.49 L 797.5 14.972 L 802.5 16.25 L 807.5 14.62 L 812.5 14.896 L 817.5 15.962 L 833.5 14.744 L 838.5 16.692 L 843.5 18.572 L 848.5 18.322 L 853.5 18.228 L 873.5 19.372 L 878.5 22.686 L 883.5 23.38 L 888.5 24.498 L 903.5 24.498 L 908.5 24.192 L 913.5 24.064 L 918.5 23.428 L 923.5 23.75 L 938.5 24.17 L 943.5 24.628 L 948.5 26.1 L 953.5 26.252 L 958.5 25.404 L 973.5 24.61 L 978.5 25.528 L 983.5 24.62 L 983.5 30.5 L 3.5 30.5 L 3.5 23.202 Z" style="stroke:#000000;stroke-opacity:1; stroke-opacity: 0; stroke-width: 1; stroke-dasharray: none; stroke-linecap: butt; stroke-linejoin: miter; stroke-miterlimit: 10;fill:#BBBBBB;fill-opacity:1; fill-opacity: 0.5; fill-rule: nonzero; opacity: 1" transform=" matrix(1 0 0 1 49 20) " stroke-linecap="round" /><g  clip-path="url(#DSCEl-6)" ><path d="M 3.5 23.202 L 8.5 24.13 L 23.5 23.45 L 28.5 23.494 L 33.5 23.698 L 38.5 25.222 L 43.5 25.5 L 58.5 24.942 L 63.5 25.694 L 68.5 26.52 L 73.5 27.09 L 78.5 26.088 L 93.5 26.056 L 98.5 24.986 L 103.5 23.998 L 108.5 24.286 L 113.5 23.44 L 128.5 24.05 L 133.5 25.136 L 138.5 23.684 L 143.5 23.25 L 148.5 22.804 L 169.5 21.668 L 174.5 23.148 L 179.5 23.498 L 184.5 24.146 L 199.5 23.158 L 204.5 23.402 L 209.5 23.13 L 214.5 23.06 L 219.5 22.738 L 234.5 22.818 L 239.5 22.316 L 244.5 22.346 L 249.5 22.438 L 254.5 21.67 L 269.5 20.844 L 274.5 19.864 L 279.5 19.946 L 284.5 19.6 L 289.5 19.806 L 304.5 19.232 L 309.5 18.81 L 314.5 18.916 L 319.5 19.252 L 324.5 18.21 L 340.5 16.918 L 345.5 16.928 L 350.5 17.142 L 355.5 18.054 L 360.5 17.05 L 375.5 17.104 L 380.5 16.584 L 385.5 15.95 L 390.5 15.8 L 395.5 16.416 L 410.5 15.628 L 415.5 13.268 L 420.5 13.314 L 425.5 13.944 L 430.5 13.56 L 445.5 13.482 L 450.5 13.1 L 455.5 12.51 L 460.5 13.012 L 465.5 12.926 L 480.5 13.264 L 485.5 12.142 L 490.5 13.24 L 496.5 15.406 L 501.5 17.426 L 516.5 19.748 L 521.5 16.508 L 526.5 17.278 L 531.5 17.64 L 536.5 17.222 L 551.5 17.71 L 556.5 16.73 L 561.5 16.808 L 571.5 16.192 L 586.5 15.992 L 591.5 15.538 L 596.5 14.456 L 601.5 13.642 L 606.5 14.056 L 621.5 14.728 L 626.5 14.538 L 631.5 13.4 L 636.5 12.51 L 641.5 11.64 L 656.5 11.658 L 662.5 12.792 L 667.5 12.328 L 672.5 12.134 L 677.5 12.422 L 692.5 13.62 L 697.5 13.904 L 702.5 13.876 L 707.5 13.058 L 712.5 11.718 L 727.5 10.74 L 737.5 10.71 L 742.5 10.786 L 747.5 10.534 L 762.5 10.884 L 772.5 11.532 L 777.5 11.514 L 782.5 14.49 L 797.5 14.972 L 802.5 16.25 L 807.5 14.62 L 812.5 14.896 L 817.5 15.962 L 833.5 14.744 L 838.5 16.692 L 843.5 18.572 L 848.5 18.322 L 853.5 18.228 L 873.5 19.372 L 878.5 22.686 L 883.5 23.38 L 888.5 24.498 L 903.5 24.498 L 908.5 24.192 L 913.5 24.064 L 918.5 23.428 L 923.5 23.75 L 938.5 24.17 L 943.5 24.628 L 948.5 26.1 L 953.5 26.252 L 958.5 25.404 L 973.5 24.61 L 978.5 25.528 L 983.5 24.62 M 0 0 L 0 0" style="stroke:#888888;stroke-opacity:1; stroke-opacity: 0; stroke-width: 1; stroke-dasharray: none; stroke-linecap: butt; stroke-linejoin: round; stroke-miterlimit: 10; fill: none; fill-rule: nonzero; opacity: 1" transform=" matrix(1 0 0 1 49 20) " stroke-linecap="round" /></g><g  clip-path="url(#DSCEl-6)" ><path d="M 3.5 23.202 L 8.5 24.13 L 23.5 23.45 L 28.5 23.494 L 33.5 23.698 L 38.5 25.222 L 43.5 25.5 L 58.5 24.942 L 63.5 25.694 L 68.5 26.52 L 73.5 27.09 L 78.5 26.088 L 93.5 26.056 L 98.5 24.986 L 103.5 23.998 L 108.5 24.286 L 113.5 23.44 L 128.5 24.05 L 133.5 25.136 L 138.5 23.684 L 143.5 23.25 L 148.5 22.804 L 169.5 21.668 L 174.5 23.148 L 179.5 23.498 L 184.5 24.146 L 199.5 23.158 L 204.5 23.402 L 209.5 23.13 L 214.5 23.06 L 219.5 22.738 L 234.5 22.818 L 239.5 22.316 L 244.5 22.346 L 249.5 22.438 L 254.5 21.67 L 269.5 20.844 L 274.5 19.864 L 279.5 19.946 L 284.5 19.6 L 289.5 19.806 L 304.5 19.232 L 309.5 18.81 L 314.5 18.916 L 319.5 19.252 L 324.5 18.21 L 340.5 16.918 L 345.5 16.928 L 350.5 17.142 L 355.5 18.054 L 360.5 17.05 L 375.5 17.104 L 380.5 16.584 L 385.5 15.95 L 390.5 15.8 L 395.5 16.416 L 410.5 15.628 L 415.5 13.268 L 420.5 13.314 L 425.5 13.944 L 430.5 13.56 L 445.5 13.482 L 450.5 13.1 L 455.5 12.51 L 460.5 13.012 L 465.5 12.926 L 480.5 13.264 L 485.5 12.142 L 490.5 13.24 L 496.5 15.406 L 501.5 17.426 L 516.5 19.748 L 521.5 16.508 L 526.5 17.278 L 531.5 17.64 L 536.5 17.222 L 551.5 17.71 L 556.5 16.73 L 561.5 16.808 L 571.5 16.192 L 586.5 15.992 L 591.5 15.538 L 596.5 14.456 L 601.5 13.642 L 606.5 14.056 L 621.5 14.728 L 626.5 14.538 L 631.5 13.4 L 636.5 12.51 L 641.5 11.64 L 656.5 11.658 L 662.5 12.792 L 667.5 12.328 L 672.5 12.134 L 677.5 12.422 L 692.5 13.62 L 697.5 13.904 L 702.5 13.876 L 707.5 13.058 L 712.5 11.718 L 727.5 10.74 L 737.5 10.71 L 742.5 10.786 L 747.5 10.534 L 762.5 10.884 L 772.5 11.532 L 777.5 11.514 L 782.5 14.49 L 797.5 14.972 L 802.5 16.25 L 807.5 14.62 L 812.5 14.896 L 817.5 15.962 L 833.5 14.744 L 838.5 16.692 L 843.5 18.572 L 848.5 18.322 L 853.5 18.228 L 873.5 19.372 L 878.5 22.686 L 883.5 23.38 L 888.5 24.498 L 903.5 24.498 L 908.5 24.192 L 913.5 24.064 L 918.5 23.428 L 923.5 23.75 L 938.5 24.17 L 943.5 24.628 L 948.5 26.1 L 953.5 26.252 L 958.5 25.404 L 973.5 24.61 L 978.5 25.528 L 983.5 24.62 L 983.5 30.5 L 3.5 30.5 L 3.5 23.202 Z" style="stroke:#000000;stroke-opacity:1; stroke-opacity: 0; stroke-width: 1; stroke-dasharray: none; stroke-linecap: butt; stroke-linejoin: miter; stroke-miterlimit: 10;fill:#888888;fill-opacity:1; fill-rule: nonzero; opacity: 1" transform=" matrix(1 0 0 1 49 20) " stroke-linecap="round" /></g><rect x="0.5" y="0.5" rx="0" ry="0" width="987" height="30" style="stroke:#000000;stroke-opacity:1; stroke-opacity: 0.005; stroke-width: 0; stroke-dasharray: none; stroke-linecap: butt; stroke-linejoin: miter; stroke-miterlimit: 10;fill:#000000;fill-opacity:1; fill-opacity: 0.005; fill-rule: nonzero; opacity: 1" transform=" matrix(1 0 0 1 49 20) "/><rect x="70" y="0.5" rx="0" ry="0" width="76" height="30" style="stroke:#000000;stroke-opacity:1; stroke-opacity: 0.005; stroke-width: 0; stroke-dasharray: none; stroke-linecap: butt; stroke-linejoin: miter; stroke-miterlimit: 10;fill:#000000;fill-opacity:1; fill-opacity: 0.005; fill-rule: nonzero; opacity: 1" transform=" matrix(1 0 0 1 49 20) "/><g transform=" matrix(1 0 0 1 102 18) "><image xlink:href="https://www.DSC.com/lib/3/images/dragIconRoundBig.svg" x="0" y="0" style="stroke: none; stroke-width: 0; stroke-dasharray: none; stroke-linecap: butt; stroke-linejoin: miter; stroke-miterlimit: 10;fill:#000000;fill-opacity:1; fill-rule: nonzero; opacity: 1" width="35" height="35" preserveAspectRatio="none"></image></g><rect x="0.5" y="0.5" rx="0" ry="0" width="25" height="30" style="stroke:#000000;stroke-opacity:1; stroke-opacity: 0.005; stroke-width: 0; stroke-dasharray: none; stroke-linecap: butt; stroke-linejoin: miter; stroke-miterlimit: 10;fill:#000000;fill-opacity:1; fill-opacity: 0.005; fill-rule: nonzero; opacity: 1" transform=" matrix(1 0 0 1 107 21) "/><g transform=" matrix(1 0 0 1 178 18) "><image xlink:href="https://www.DSC.com/lib/3/images/dragIconRoundBig.svg" x="0" y="0" style="stroke: none; stroke-width: 0; stroke-dasharray: none; stroke-linecap: butt; stroke-linejoin: miter; stroke-miterlimit: 10;fill:#000000;fill-opacity:1; fill-rule: nonzero; opacity: 1" width="35" height="35" preserveAspectRatio="none"></image></g><rect x="0.5" y="0.5" rx="0" ry="0" width="25" height="30" style="stroke:#000000;stroke-opacity:1; stroke-opacity: 0.005; stroke-width: 0; stroke-dasharray: none; stroke-linecap: butt; stroke-linejoin: miter; stroke-miterlimit: 10;fill:#000000;fill-opacity:1; fill-opacity: 0.005; fill-rule: nonzero; opacity: 1" transform=" matrix(1 0 0 1 183 21) "/><g transform=" matrix(1 0 0 1 52 480.5) "><text xml:space="preserve" font-family="Verdana" font-size="11" font-weight="normal" style="stroke: none; stroke-width: 1; stroke-dasharray: none; stroke-linecap: butt; stroke-linejoin: miter; stroke-miterlimit: 10;fill:#000000;fill-opacity:1; fill-rule: nonzero; opacity: 1; white-space: pre" ><tspan x="0" y="7.48" fill="rgba(0,0,0,1)">Aug 15</tspan></text></g><g transform=" matrix(1 0 0 1 183 480.5) "><text xml:space="preserve" font-family="Verdana" font-size="11" font-weight="normal" style="stroke: none; stroke-width: 1; stroke-dasharray: none; stroke-linecap: butt; stroke-linejoin: miter; stroke-miterlimit: 10;fill:#000000;fill-opacity:1; fill-rule: nonzero; opacity: 1; white-space: pre" ><tspan x="0" y="7.48" fill="rgba(0,0,0,1)">Aug 17</tspan></text></g><g transform=" matrix(1 0 0 1 315 480.5) "><text xml:space="preserve" font-family="Verdana" font-size="11" font-weight="normal" style="stroke: none; stroke-width: 1; stroke-dasharray: none; stroke-linecap: butt; stroke-linejoin: miter; stroke-miterlimit: 10;fill:#000000;fill-opacity:1; fill-rule: nonzero; opacity: 1; white-space: pre" ><tspan x="0" y="7.48" fill="rgba(0,0,0,1)">Aug 19</tspan></text></g><g transform=" matrix(1 0 0 1 446 480.5) "><text xml:space="preserve" font-family="Verdana" font-size="11" font-weight="normal" style="stroke: none; stroke-width: 1; stroke-dasharray: none; stroke-linecap: butt; stroke-linejoin: miter; stroke-miterlimit: 10;fill:#000000;fill-opacity:1; fill-rule: nonzero; opacity: 1; white-space: pre" ><tspan x="0" y="7.48" fill="rgba(0,0,0,1)">Aug 21</tspan></text></g><g transform=" matrix(1 0 0 1 578 480.5) "><text xml:space="preserve" font-family="Verdana" font-size="11" font-weight="normal" style="stroke: none; stroke-width: 1; stroke-dasharray: none; stroke-linecap: butt; stroke-linejoin: miter; stroke-miterlimit: 10;fill:#000000;fill-opacity:1; fill-rule: nonzero; opacity: 1; white-space: pre" ><tspan x="0" y="7.48" fill="rgba(0,0,0,1)">Aug 23</tspan></text></g><g transform=" matrix(1 0 0 1 709 480.5) "><text xml:space="preserve" font-family="Verdana" font-size="11" font-weight="normal" style="stroke: none; stroke-width: 1; stroke-dasharray: none; stroke-linecap: butt; stroke-linejoin: miter; stroke-miterlimit: 10;fill:#000000;fill-opacity:1; fill-rule: nonzero; opacity: 1; white-space: pre" ><tspan x="0" y="7.48" fill="rgba(0,0,0,1)">Aug 25</tspan></text></g><g transform=" matrix(1 0 0 1 841 480.5) "><text xml:space="preserve" font-family="Verdana" font-size="11" font-weight="normal" style="stroke: none; stroke-width: 1; stroke-dasharray: none; stroke-linecap: butt; stroke-linejoin: miter; stroke-miterlimit: 10;fill:#000000;fill-opacity:1; fill-rule: nonzero; opacity: 1; white-space: pre" ><tspan x="0" y="7.48" fill="rgba(0,0,0,1)">Aug 27</tspan></text></g><g transform=" matrix(1 0 0 1 972 480.5) "><text xml:space="preserve" font-family="Verdana" font-size="11" font-weight="normal" style="stroke: none; stroke-width: 1; stroke-dasharray: none; stroke-linecap: butt; stroke-linejoin: miter; stroke-miterlimit: 10;fill:#000000;fill-opacity:1; fill-rule: nonzero; opacity: 1; white-space: pre" ><tspan x="0" y="7.48" fill="rgba(0,0,0,1)">Aug 29</tspan></text></g><g transform=" matrix(1 0 0 1 37 466) "><text xml:space="preserve" font-family="Verdana" font-size="11" font-weight="normal" style="stroke: none; stroke-width: 1; stroke-dasharray: none; stroke-linecap: butt; stroke-linejoin: miter; stroke-miterlimit: 10;fill:#000000;fill-opacity:1; fill-rule: nonzero; opacity: 1; white-space: pre" ><tspan x="-22" y="7.48" fill="rgba(0,0,0,1)">110</tspan></text></g><g transform=" matrix(1 0 0 1 37 414) "><text xml:space="preserve" font-family="Verdana" font-size="11" font-weight="normal" style="stroke: none; stroke-width: 1; stroke-dasharray: none; stroke-linecap: butt; stroke-linejoin: miter; stroke-miterlimit: 10;fill:#000000;fill-opacity:1; fill-rule: nonzero; opacity: 1; white-space: pre" ><tspan x="-22" y="7.48" fill="rgba(0,0,0,1)">115</tspan></text></g><g transform=" matrix(1 0 0 1 37 362) "><text xml:space="preserve" font-family="Verdana" font-size="11" font-weight="normal" style="stroke: none; stroke-width: 1; stroke-dasharray: none; stroke-linecap: butt; stroke-linejoin: miter; stroke-miterlimit: 10;fill:#000000;fill-opacity:1; fill-rule: nonzero; opacity: 1; white-space: pre" ><tspan x="-22" y="7.48" fill="rgba(0,0,0,1)">120</tspan></text></g><g transform=" matrix(1 0 0 1 37 309) "><text xml:space="preserve" font-family="Verdana" font-size="11" font-weight="normal" style="stroke: none; stroke-width: 1; stroke-dasharray: none; stroke-linecap: butt; stroke-linejoin: miter; stroke-miterlimit: 10;fill:#000000;fill-opacity:1; fill-rule: nonzero; opacity: 1; white-space: pre" ><tspan x="-22" y="7.48" fill="rgba(0,0,0,1)">125</tspan></text></g><g transform=" matrix(1 0 0 1 37 257) "><text xml:space="preserve" font-family="Verdana" font-size="11" font-weight="normal" style="stroke: none; stroke-width: 1; stroke-dasharray: none; stroke-linecap: butt; stroke-linejoin: miter; stroke-miterlimit: 10;fill:#000000;fill-opacity:1; fill-rule: nonzero; opacity: 1; white-space: pre" ><tspan x="-22" y="7.48" fill="rgba(0,0,0,1)">130</tspan></text></g><g transform=" matrix(1 0 0 1 37 205) "><text xml:space="preserve" font-family="Verdana" font-size="11" font-weight="normal" style="stroke: none; stroke-width: 1; stroke-dasharray: none; stroke-linecap: butt; stroke-linejoin: miter; stroke-miterlimit: 10;fill:#000000;fill-opacity:1; fill-rule: nonzero; opacity: 1; white-space: pre" ><tspan x="-22" y="7.48" fill="rgba(0,0,0,1)">135</tspan></text></g><g transform=" matrix(1 0 0 1 37 153) "><text xml:space="preserve" font-family="Verdana" font-size="11" font-weight="normal" style="stroke: none; stroke-width: 1; stroke-dasharray: none; stroke-linecap: butt; stroke-linejoin: miter; stroke-miterlimit: 10;fill:#000000;fill-opacity:1; fill-rule: nonzero; opacity: 1; white-space: pre" ><tspan x="-22" y="7.48" fill="rgba(0,0,0,1)">140</tspan></text></g><g transform=" matrix(1 0 0 1 37 100) "><text xml:space="preserve" font-family="Verdana" font-size="11" font-weight="normal" style="stroke: none; stroke-width: 1; stroke-dasharray: none; stroke-linecap: butt; stroke-linejoin: miter; stroke-miterlimit: 10;fill:#000000;fill-opacity:1; fill-rule: nonzero; opacity: 1; white-space: pre" ><tspan x="-22" y="7.48" fill="rgba(0,0,0,1)">145</tspan></text></g><g transform=" matrix(1 0 0 1 37 48) "><text xml:space="preserve" font-family="Verdana" font-size="11" font-weight="normal" style="stroke: none; stroke-width: 1; stroke-dasharray: none; stroke-linecap: butt; stroke-linejoin: miter; stroke-miterlimit: 10;fill:#000000;fill-opacity:1; fill-rule: nonzero; opacity: 1; white-space: pre" ><tspan x="-22" y="7.48" fill="rgba(0,0,0,1)">150</tspan></text></g><rect x="0.5" y="0.5" rx="0" ry="0" width="95" height="33" style="stroke:#000000;stroke-opacity:1; stroke-width: 1; stroke-dasharray: none; stroke-linecap: butt; stroke-linejoin: miter; stroke-miterlimit: 10;fill:#000000;fill-opacity:1; fill-rule: nonzero; opacity: 0" transform=" matrix(1 0 0 1 941 50) "/><g transform=" matrix(1 0 0 1 949 58) "><image xlink:href="https://www.DSC.com/lib/3/images/lens.svg" x="0" y="0" style="stroke: none; stroke-width: 0; stroke-dasharray: none; stroke-linecap: butt; stroke-linejoin: miter; stroke-miterlimit: 10;fill:#000000;fill-opacity:1; fill-rule: nonzero; opacity: 1" width="19" height="19" preserveAspectRatio="none"></image></g><g transform=" matrix(1 0 0 1 973 65) "><text xml:space="preserve" font-family="Verdana" font-size="11" font-weight="normal" style="stroke: none; stroke-width: 1; stroke-dasharray: none; stroke-linecap: butt; stroke-linejoin: miter; stroke-miterlimit: 10;fill:#000000;fill-opacity:1; fill-rule: nonzero; opacity: 1; white-space: pre" ><tspan x="0" y="7.48" fill="rgba(0,0,0,1)">Show all</tspan></text></g></g><clipPath xmlns="http://www.w3.org/2000/svg" id="DSCEl-4"><rect x="0" y="0" width="986" height="418" rx="0" ry="0" stroke-width="0" fill="none" fill-opacity="0"/></clipPath><clipPath xmlns="http://www.w3.org/2000/svg" id="DSCEl-6"><rect x="70" y="0" width="76" height="31" rx="0" ry="0" stroke-width="0" fill="none" fill-opacity="0"/></clipPath></svg>
