<?xml version="1.0" encoding="utf-8"?>
<!-- Generator: Adobe Illustrator 21.1.0, SVG Export Plug-In . SVG Version: 6.00 Build 0)  -->
<svg version="1.1" id="Layer_1" xmlns="http://www.w3.org/2000/svg" xmlns:xlink="http://www.w3.org/1999/xlink" x="0px" y="0px"
	 viewBox="0 0 1056 500" style="enable-background:new 0 0 1056 500;" xml:space="preserve">
<style type="text/css">
	.st0{fill:#282828;fill-opacity:0;stroke:#000000;stroke-miterlimit:10;stroke-opacity:0;}
	.st1{fill:#FFFFFF;fill-opacity:0.1;stroke:#000000;stroke-miterlimit:10;stroke-opacity:0;}
	.st2{fill:#D9D9D9;fill-opacity:0.1;stroke:#000000;stroke-miterlimit:10;stroke-opacity:0;}
	.st3{fill:none;stroke:#FFFFFF;stroke-miterlimit:10;stroke-opacity:0.3;}
	.st4{fill:none;stroke:#FFFFFF;stroke-miterlimit:10;stroke-opacity:0.1;stroke-dasharray:3,3;}
	.st5{fill:#8894C6;fill-opacity:0.9;stroke:#AAB9F7;stroke-miterlimit:10;stroke-opacity:0;}
	.st6{fill:none;stroke:#AAB9F7;stroke-miterlimit:10;stroke-opacity:0.2;}
	.st7{fill:#CCDEFF;fill-opacity:0.9;stroke:#AAB9F7;stroke-miterlimit:10;stroke-opacity:0;}
	.st8{fill:#AAB9F7;fill-opacity:0.9;stroke:#AAB9F7;stroke-miterlimit:10;stroke-opacity:0.2;}
	.st9{fill:#8B6AA1;fill-opacity:0.9;stroke:#AE85C9;stroke-miterlimit:10;stroke-opacity:0;}
	.st10{fill:none;stroke:#AE85C9;stroke-miterlimit:10;stroke-opacity:0.2;}
	.st11{fill:#D1A0F1;fill-opacity:0.9;stroke:#AE85C9;stroke-miterlimit:10;stroke-opacity:0;}
	.st12{fill:#AE85C9;fill-opacity:0.9;stroke:#AE85C9;stroke-miterlimit:10;stroke-opacity:0.2;}
	.st13{fill:#E7E7E7;}
	.st14{font-family:'Verdana';}
	.st15{font-size:11px;}
	.st16{fill:#FFFFFF;}
	.st17{font-size:12px;}
</style>
<desc>Created with Fabric.js 1.7.19</desc>
<rect width="1056" height="500"/>
<path class="st0" d="M0.5,0.5h1055v499H0.5V0.5z"/>
<path class="st1" d="M131.5,20.5h904v413h-904V20.5z"/>
<path class="st2" d="M79.5,463.5l52-30h904l-52,30H79.5z"/>
<path class="st2" d="M79.5,50.5v413l52-30v-413L79.5,50.5z"/>
<path class="st3" d="M129.5,463.5v5"/>
<path class="st4" d="M79.5,463.5l52-30v-413"/>
<path class="st3" d="M230.5,463.5v5"/>
<path class="st4" d="M180.5,463.5l52-30v-413"/>
<path class="st3" d="M330.5,463.5v5"/>
<path class="st4" d="M280.5,463.5l52-30v-413"/>
<path class="st3" d="M431.5,463.5v5"/>
<path class="st4" d="M381.5,463.5l52-30v-413"/>
<path class="st3" d="M531.5,463.5v5"/>
<path class="st4" d="M481.5,463.5l52-30v-413"/>
<path class="st3" d="M631.5,463.5v5"/>
<path class="st4" d="M581.5,463.5l52-30v-413"/>
<path class="st3" d="M732.5,463.5v5"/>
<path class="st4" d="M682.5,463.5l52-30v-413"/>
<path class="st3" d="M832.5,463.5v5"/>
<path class="st4" d="M782.5,463.5l52-30v-413"/>
<path class="st3" d="M933.5,463.5v5"/>
<path class="st4" d="M883.5,463.5l52-30v-413"/>
<path class="st4" d="M983.5,463.5l52-30v-413"/>
<path class="st3" d="M73.5,463.5h6"/>
<path class="st4" d="M79.5,463.5l52-30h904"/>
<path class="st3" d="M73.5,422.5h6"/>
<path class="st4" d="M79.5,422.5l52-30h904"/>
<path class="st3" d="M73.5,380.5h6"/>
<path class="st4" d="M79.5,380.5l52-30h904"/>
<path class="st3" d="M73.5,339.5h6"/>
<path class="st4" d="M79.5,339.5l52-30h904"/>
<path class="st3" d="M73.5,298.5h6"/>
<path class="st4" d="M79.5,298.5l52-30h904"/>
<path class="st3" d="M73.5,257.5h6"/>
<path class="st4" d="M79.5,257.5l52-30h904"/>
<path class="st3" d="M73.5,215.5h6"/>
<path class="st4" d="M79.5,215.5l52-30h904"/>
<path class="st3" d="M73.5,174.5h6"/>
<path class="st4" d="M79.5,174.5l52-30h904"/>
<path class="st3" d="M73.5,133.5h6"/>
<path class="st4" d="M79.5,133.5l52-30h904"/>
<path class="st3" d="M73.5,91.5h6"/>
<path class="st4" d="M79.5,91.5l52-30h904"/>
<path class="st3" d="M73.5,50.5h6"/>
<path class="st4" d="M79.5,50.5l52-30h904"/>
<path class="st5" d="M115.5,448.5l26-15h80l-26,15H115.5z"/>
<path class="st6" d="M115.5,448.5l26-15h80"/>
<path class="st5" d="M141.5,433.5v-132h80v132H141.5z"/>
<path class="st6" d="M141.5,433.5v-132"/>
<path class="st5" d="M115.5,448.5v-132l26-15v132L115.5,448.5z"/>
<path class="st5" d="M195.5,448.5v-132l26-15v132L195.5,448.5z"/>
<path class="st6" d="M195.5,448.5l26-15v-132l-26,15"/>
<path class="st7" d="M115.5,316.5l26-15h80l-26,15H115.5z"/>
<path class="st6" d="M115.5,316.5l26-15h80"/>
<path class="st8" d="M115.5,448.5v-132h80v132H115.5z"/>
<path class="st9" d="M89.5,463.5l26-15h80l-26,15H89.5z"/>
<path class="st10" d="M89.5,463.5l26-15h80"/>
<path class="st9" d="M115.5,448.5v-103h80v103H115.5z"/>
<path class="st10" d="M115.5,448.5v-103"/>
<path class="st9" d="M89.5,463.5v-103l26-15v103L89.5,463.5z"/>
<path class="st9" d="M169.5,463.5v-103l26-15v103L169.5,463.5z"/>
<path class="st10" d="M169.5,463.5l26-15v-103l-26,15"/>
<path class="st11" d="M89.5,360.5l26-15h80l-26,15H89.5z"/>
<path class="st10" d="M89.5,360.5l26-15h80"/>
<path class="st12" d="M89.5,463.5v-103h80v103H89.5z"/>
<path class="st5" d="M216.5,448.5l26-15h80l-26,15H216.5z"/>
<path class="st6" d="M216.5,448.5l26-15h80"/>
<path class="st5" d="M242.5,433.5v-87h80v87H242.5z"/>
<path class="st6" d="M242.5,433.5v-87"/>
<path class="st5" d="M216.5,448.5v-87l26-15v87L216.5,448.5z"/>
<path class="st5" d="M296.5,448.5v-87l26-15v87L296.5,448.5z"/>
<path class="st6" d="M296.5,448.5l26-15v-87l-26,15"/>
<path class="st7" d="M216.5,361.5l26-15h80l-26,15H216.5z"/>
<path class="st6" d="M216.5,361.5l26-15h80"/>
<path class="st8" d="M216.5,448.5v-87h80v87H216.5z"/>
<path class="st5" d="M316.5,448.5l26-15h80l-26,15H316.5z"/>
<path class="st6" d="M316.5,448.5l26-15h80"/>
<path class="st5" d="M342.5,433.5v-78h80v78H342.5z"/>
<path class="st6" d="M342.5,433.5v-78"/>
<path class="st5" d="M316.5,448.5v-78l26-15v78L316.5,448.5z"/>
<path class="st5" d="M396.5,448.5v-78l26-15v78L396.5,448.5z"/>
<path class="st6" d="M396.5,448.5l26-15v-78l-26,15"/>
<path class="st7" d="M316.5,370.5l26-15h80l-26,15H316.5z"/>
<path class="st6" d="M316.5,370.5l26-15h80"/>
<path class="st8" d="M316.5,448.5v-78h80v78H316.5z"/>
<path class="st9" d="M190.5,463.5l26-15h80l-26,15H190.5z"/>
<path class="st10" d="M190.5,463.5l26-15h80"/>
<path class="st9" d="M216.5,448.5v-29h80v29H216.5z"/>
<path class="st10" d="M216.5,448.5v-29"/>
<path class="st9" d="M190.5,463.5v-29l26-15v29L190.5,463.5z"/>
<path class="st9" d="M270.5,463.5v-29l26-15v29L270.5,463.5z"/>
<path class="st10" d="M270.5,463.5l26-15v-29l-26,15"/>
<path class="st11" d="M190.5,434.5l26-15h80l-26,15H190.5z"/>
<path class="st10" d="M190.5,434.5l26-15h80"/>
<path class="st12" d="M190.5,463.5v-29h80v29H190.5z"/>
<path class="st5" d="M417.5,448.5l26-15h80l-26,15H417.5z"/>
<path class="st6" d="M417.5,448.5l26-15h80"/>
<path class="st5" d="M443.5,433.5v-54h80v54H443.5z"/>
<path class="st6" d="M443.5,433.5v-54"/>
<path class="st5" d="M417.5,448.5v-54l26-15v54L417.5,448.5z"/>
<path class="st5" d="M497.5,448.5v-54l26-15v54L497.5,448.5z"/>
<path class="st6" d="M497.5,448.5l26-15v-54l-26,15"/>
<path class="st7" d="M417.5,394.5l26-15h80l-26,15H417.5z"/>
<path class="st6" d="M417.5,394.5l26-15h80"/>
<path class="st8" d="M417.5,448.5v-54h80v54H417.5z"/>
<path class="st5" d="M517.5,448.5l26-15h80l-26,15H517.5z"/>
<path class="st6" d="M517.5,448.5l26-15h80"/>
<path class="st5" d="M543.5,433.5v-45h80v45H543.5z"/>
<path class="st6" d="M543.5,433.5v-45"/>
<path class="st5" d="M517.5,448.5v-45l26-15v45L517.5,448.5z"/>
<path class="st5" d="M597.5,448.5v-45l26-15v45L597.5,448.5z"/>
<path class="st6" d="M597.5,448.5l26-15v-45l-26,15"/>
<path class="st7" d="M517.5,403.5l26-15h80l-26,15H517.5z"/>
<path class="st6" d="M517.5,403.5l26-15h80"/>
<path class="st8" d="M517.5,448.5v-45h80v45H517.5z"/>
<path class="st9" d="M290.5,463.5l26-15h80l-26,15H290.5z"/>
<path class="st10" d="M290.5,463.5l26-15h80"/>
<path class="st9" d="M316.5,448.5v-74h80v74H316.5z"/>
<path class="st10" d="M316.5,448.5v-74"/>
<path class="st9" d="M290.5,463.5v-74l26-15v74L290.5,463.5z"/>
<path class="st9" d="M370.5,463.5v-74l26-15v74L370.5,463.5z"/>
<path class="st10" d="M370.5,463.5l26-15v-74l-26,15"/>
<path class="st11" d="M290.5,389.5l26-15h80l-26,15H290.5z"/>
<path class="st10" d="M290.5,389.5l26-15h80"/>
<path class="st12" d="M290.5,463.5v-74h80v74H290.5z"/>
<path class="st5" d="M617.5,448.5l26-15h80l-26,15H617.5z"/>
<path class="st6" d="M617.5,448.5l26-15h80"/>
<path class="st5" d="M643.5,433.5v-161h80v161H643.5z"/>
<path class="st6" d="M643.5,433.5v-161"/>
<path class="st5" d="M617.5,448.5v-161l26-15v161L617.5,448.5z"/>
<path class="st5" d="M697.5,448.5v-161l26-15v161L697.5,448.5z"/>
<path class="st6" d="M697.5,448.5l26-15v-161l-26,15"/>
<path class="st7" d="M617.5,287.5l26-15h80l-26,15H617.5z"/>
<path class="st6" d="M617.5,287.5l26-15h80"/>
<path class="st8" d="M617.5,448.5v-161h80v161H617.5z"/>
<path class="st5" d="M718.5,448.5l26-15h80l-26,15H718.5z"/>
<path class="st6" d="M718.5,448.5l26-15h80"/>
<path class="st5" d="M744.5,433.5v-256h80v256H744.5z"/>
<path class="st6" d="M744.5,433.5v-256"/>
<path class="st5" d="M718.5,448.5v-256l26-15v256L718.5,448.5z"/>
<path class="st5" d="M798.5,448.5v-256l26-15v256L798.5,448.5z"/>
<path class="st6" d="M798.5,448.5l26-15v-256l-26,15"/>
<path class="st7" d="M718.5,192.5l26-15h80l-26,15H718.5z"/>
<path class="st6" d="M718.5,192.5l26-15h80"/>
<path class="st8" d="M718.5,448.5v-256h80v256H718.5z"/>
<path class="st9" d="M391.5,463.5l26-15h80l-26,15H391.5z"/>
<path class="st10" d="M391.5,463.5l26-15h80"/>
<path class="st9" d="M417.5,448.5v-66h80v66H417.5z"/>
<path class="st10" d="M417.5,448.5v-66"/>
<path class="st9" d="M391.5,463.5v-66l26-15v66L391.5,463.5z"/>
<path class="st9" d="M471.5,463.5v-66l26-15v66L471.5,463.5z"/>
<path class="st10" d="M471.5,463.5l26-15v-66l-26,15"/>
<path class="st11" d="M391.5,397.5l26-15h80l-26,15H391.5z"/>
<path class="st10" d="M391.5,397.5l26-15h80"/>
<path class="st12" d="M391.5,463.5v-66h80v66H391.5z"/>
<path class="st5" d="M818.5,448.5l26-15h80l-26,15H818.5z"/>
<path class="st6" d="M818.5,448.5l26-15h80"/>
<path class="st5" d="M844.5,433.5v-252h80v252H844.5z"/>
<path class="st6" d="M844.5,433.5v-252"/>
<path class="st5" d="M818.5,448.5v-252l26-15v252L818.5,448.5z"/>
<path class="st5" d="M898.5,448.5v-252l26-15v252L898.5,448.5z"/>
<path class="st6" d="M898.5,448.5l26-15v-252l-26,15"/>
<path class="st7" d="M818.5,196.5l26-15h80l-26,15H818.5z"/>
<path class="st6" d="M818.5,196.5l26-15h80"/>
<path class="st8" d="M818.5,448.5v-252h80v252H818.5z"/>
<path class="st5" d="M919.5,448.5l26-15h80l-26,15H919.5z"/>
<path class="st6" d="M919.5,448.5l26-15h80"/>
<path class="st5" d="M945.5,433.5v-376h80v376H945.5z"/>
<path class="st6" d="M945.5,433.5v-376"/>
<path class="st5" d="M919.5,448.5v-376l26-15v376L919.5,448.5z"/>
<path class="st5" d="M999.5,448.5v-376l26-15v376L999.5,448.5z"/>
<path class="st6" d="M999.5,448.5l26-15v-376l-26,15"/>
<path class="st7" d="M919.5,72.5l26-15h80l-26,15H919.5z"/>
<path class="st6" d="M919.5,72.5l26-15h80"/>
<path class="st8" d="M919.5,448.5v-376h80v376H919.5z"/>
<path class="st9" d="M491.5,463.5l26-15h80l-26,15H491.5z"/>
<path class="st10" d="M491.5,463.5l26-15h80"/>
<path class="st9" d="M517.5,448.5v-17h80v17H517.5z"/>
<path class="st10" d="M517.5,448.5v-17"/>
<path class="st9" d="M491.5,463.5v-17l26-15v17L491.5,463.5z"/>
<path class="st9" d="M571.5,463.5v-17l26-15v17L571.5,463.5z"/>
<path class="st10" d="M571.5,463.5l26-15v-17l-26,15"/>
<path class="st11" d="M491.5,446.5l26-15h80l-26,15H491.5z"/>
<path class="st10" d="M491.5,446.5l26-15h80"/>
<path class="st12" d="M491.5,463.5v-17h80v17H491.5z"/>
<path class="st9" d="M591.5,463.5l26-15h80l-26,15H591.5z"/>
<path class="st10" d="M591.5,463.5l26-15h80"/>
<path class="st9" d="M617.5,448.5v-66h80v66H617.5z"/>
<path class="st10" d="M617.5,448.5v-66"/>
<path class="st9" d="M591.5,463.5v-66l26-15v66L591.5,463.5z"/>
<path class="st9" d="M671.5,463.5v-66l26-15v66L671.5,463.5z"/>
<path class="st10" d="M671.5,463.5l26-15v-66l-26,15"/>
<path class="st11" d="M591.5,397.5l26-15h80l-26,15H591.5z"/>
<path class="st10" d="M591.5,397.5l26-15h80"/>
<path class="st12" d="M591.5,463.5v-66h80v66H591.5z"/>
<path class="st9" d="M692.5,463.5l26-15h80l-26,15H692.5z"/>
<path class="st10" d="M692.5,463.5l26-15h80"/>
<path class="st9" d="M718.5,448.5v-223h80v223H718.5z"/>
<path class="st10" d="M718.5,448.5v-223"/>
<path class="st9" d="M692.5,463.5v-223l26-15v223L692.5,463.5z"/>
<path class="st9" d="M772.5,463.5v-223l26-15v223L772.5,463.5z"/>
<path class="st10" d="M772.5,463.5l26-15v-223l-26,15"/>
<path class="st11" d="M692.5,240.5l26-15h80l-26,15H692.5z"/>
<path class="st10" d="M692.5,240.5l26-15h80"/>
<path class="st12" d="M692.5,463.5v-223h80v223H692.5z"/>
<path class="st9" d="M792.5,463.5l26-15h80l-26,15H792.5z"/>
<path class="st10" d="M792.5,463.5l26-15h80"/>
<path class="st9" d="M818.5,448.5v-289h80v289H818.5z"/>
<path class="st10" d="M818.5,448.5v-289"/>
<path class="st9" d="M792.5,463.5v-289l26-15v289L792.5,463.5z"/>
<path class="st9" d="M872.5,463.5v-289l26-15v289L872.5,463.5z"/>
<path class="st10" d="M872.5,463.5l26-15v-289l-26,15"/>
<path class="st11" d="M792.5,174.5l26-15h80l-26,15H792.5z"/>
<path class="st10" d="M792.5,174.5l26-15h80"/>
<path class="st12" d="M792.5,463.5v-289h80v289H792.5z"/>
<path class="st9" d="M893.5,463.5l26-15h80l-26,15H893.5z"/>
<path class="st10" d="M893.5,463.5l26-15h80"/>
<path class="st9" d="M919.5,448.5v-368h80v368H919.5z"/>
<path class="st10" d="M919.5,448.5v-368"/>
<path class="st9" d="M893.5,463.5v-368l26-15v368L893.5,463.5z"/>
<path class="st9" d="M973.5,463.5v-368l26-15v368L973.5,463.5z"/>
<path class="st10" d="M973.5,463.5l26-15v-368l-26,15"/>
<path class="st11" d="M893.5,95.5l26-15h80l-26,15H893.5z"/>
<path class="st10" d="M893.5,95.5l26-15h80"/>
<path class="st12" d="M893.5,463.5v-368h80v368H893.5z"/>
<path class="st3" d="M79.5,463.5h904"/>
<path class="st3" d="M79.5,50.5v413"/>
<g transform=" matrix(1 0 0 1 67 461) ">
	<text transform="matrix(1 0 0 1 -20 7.48)" class="st13 st14 st15">1%</text>
</g>
<g transform=" matrix(1 0 0 1 67 420) ">
	<text transform="matrix(1 0 0 1 -20 7.48)" class="st13 st14 st15">2%</text>
</g>
<g transform=" matrix(1 0 0 1 67 378) ">
	<text transform="matrix(1 0 0 1 -20 7.48)" class="st13 st14 st15">3%</text>
</g>
<g transform=" matrix(1 0 0 1 67 337) ">
	<text transform="matrix(1 0 0 1 -20 7.48)" class="st13 st14 st15">4%</text>
</g>
<g transform=" matrix(1 0 0 1 67 296) ">
	<text transform="matrix(1 0 0 1 -20 7.48)" class="st13 st14 st15">5%</text>
</g>
<g transform=" matrix(1 0 0 1 67 255) ">
	<text transform="matrix(1 0 0 1 -20 7.48)" class="st13 st14 st15">6%</text>
</g>
<g transform=" matrix(1 0 0 1 67 213) ">
	<text transform="matrix(1 0 0 1 -20 7.48)" class="st13 st14 st15">7%</text>
</g>
<g transform=" matrix(1 0 0 1 67 172) ">
	<text transform="matrix(1 0 0 1 -20 7.48)" class="st13 st14 st15">8%</text>
</g>
<g transform=" matrix(1 0 0 1 67 131) ">
	<text transform="matrix(1 0 0 1 -20 7.48)" class="st13 st14 st15">9%</text>
</g>
<g transform=" matrix(1 0 0 1 67 89) ">
	<text transform="matrix(1 0 0 1 -27 7.48)" class="st13 st14 st15">10%</text>
</g>
<g transform=" matrix(1 0 0 1 67 48) ">
	<text transform="matrix(1 0 0 1 -27 7.48)" class="st13 st14 st15">11%</text>
</g>
<text transform="matrix(1 0 0 1 916.5 485)" class="st16 st14 st17">Oct’17</text>
<text transform="matrix(1 0 0 1 814.5 485)" class="st16 st14 st17">Sep’17</text>
<text transform="matrix(1 0 0 1 712.5 485)" class="st16 st14 st17">Aug’17</text>
<text transform="matrix(1 0 0 1 615.5256 485)" class="st16 st14 st17">Jul’17</text>
<text transform="matrix(1 0 0 1 515.5002 484.9999)" class="st16 st14 st17">Jun’17</text>
<text transform="matrix(1 0 0 1 413.5002 484.9999)" class="st16 st14 st17">May’17</text>
<text transform="matrix(1 0 0 1 311.1545 484.9998)" class="st16 st14 st17">Apr’17</text>
<text transform="matrix(1 0 0 1 209.7784 484.9999)" class="st16 st14 st17">Mar’17</text>
<text transform="matrix(1 0 0 1 112.5001 484.9998)" class="st16 st14 st17">Feb’17</text>
</svg>
