<?xml version="1.0" encoding="UTF-8" standalone="no" ?><!DOCTYPE svg PUBLIC "-//W3C//DTD SVG 1.1//EN" "http://www.w3.org/Graphics/SVG/1.1/DTD/svg11.dtd"><svg xmlns="http://www.w3.org/2000/svg" xmlns:xlink="http://www.w3.org/1999/xlink" version="1.1" width="1056" height="500" viewBox="0 0 1056 500" xml:space="preserve"><desc>Created with Fabric.js 1.7.19</desc><defs></defs><rect x="0" y="0" width="1056" height="500" fill="#000000"></rect><g style="stroke: none; stroke-width: 1; stroke-dasharray: none; stroke-linecap: butt; stroke-linejoin: miter; stroke-miterlimit: 10; fill: none; fill-rule: nonzero; opacity: 1" transform="translate(0 0)" ><path d="M 0.5 0.5 L 1055.5 0.5 L 1055.5 499.5 L 0.5 499.5 Z" style="stroke:#000000;stroke-opacity:1; stroke-opacity: 0; stroke-width: 1; stroke-dasharray: none; stroke-linecap: butt; stroke-linejoin: miter; stroke-miterlimit: 10;fill:#282828;fill-opacity:1; fill-opacity: 0; fill-rule: nonzero; opacity: 1" transform="" stroke-linecap="round" /><path d="M 0.5 0.5 L 952.5 0.5 L 952.5 443.5 L 0.5 443.5 L 0.5 0.5 Z" style="stroke:#000000;stroke-opacity:1; stroke-opacity: 0; stroke-width: 1; stroke-dasharray: none; stroke-linecap: butt; stroke-linejoin: miter; stroke-miterlimit: 10;fill:#FFFFFF;fill-opacity:1; fill-opacity: 0.1; fill-rule: nonzero; opacity: 1" transform=" matrix(1 0 0 1 83 20) " stroke-linecap="round" /><path d="M 79.5 0.5 L 79.5 5.5" style="stroke:#FFFFFF;stroke-opacity:1; stroke-opacity: 0.3; stroke-width: 1; stroke-dasharray: none; stroke-linecap: butt; stroke-linejoin: miter; stroke-miterlimit: 10; fill: none; fill-rule: nonzero; opacity: 1" transform=" matrix(1 0 0 1 83 463) " stroke-linecap="round" /><path d="M 0.5 443.5 L 0.5 443.5 L 0.5 0.5" style="stroke:#FFFFFF;stroke-opacity:1; stroke-opacity: 0.1; stroke-width: 1; stroke-dasharray: 3 3; stroke-linecap: butt; stroke-linejoin: miter; stroke-miterlimit: 10; fill: none; fill-rule: nonzero; opacity: 1" transform=" matrix(1 0 0 1 83 20) " stroke-linecap="round" /><path d="M 238.5 0.5 L 238.5 5.5" style="stroke:#FFFFFF;stroke-opacity:1; stroke-opacity: 0.3; stroke-width: 1; stroke-dasharray: none; stroke-linecap: butt; stroke-linejoin: miter; stroke-miterlimit: 10; fill: none; fill-rule: nonzero; opacity: 1" transform=" matrix(1 0 0 1 83 463) " stroke-linecap="round" /><path d="M 159.5 443.5 L 159.5 443.5 L 159.5 0.5" style="stroke:#FFFFFF;stroke-opacity:1; stroke-opacity: 0.1; stroke-width: 1; stroke-dasharray: 3 3; stroke-linecap: butt; stroke-linejoin: miter; stroke-miterlimit: 10; fill: none; fill-rule: nonzero; opacity: 1" transform=" matrix(1 0 0 1 83 20) " stroke-linecap="round" /><path d="M 397.5 0.5 L 397.5 5.5" style="stroke:#FFFFFF;stroke-opacity:1; stroke-opacity: 0.3; stroke-width: 1; stroke-dasharray: none; stroke-linecap: butt; stroke-linejoin: miter; stroke-miterlimit: 10; fill: none; fill-rule: nonzero; opacity: 1" transform=" matrix(1 0 0 1 83 463) " stroke-linecap="round" /><path d="M 318.5 443.5 L 318.5 443.5 L 318.5 0.5" style="stroke:#FFFFFF;stroke-opacity:1; stroke-opacity: 0.1; stroke-width: 1; stroke-dasharray: 3 3; stroke-linecap: butt; stroke-linejoin: miter; stroke-miterlimit: 10; fill: none; fill-rule: nonzero; opacity: 1" transform=" matrix(1 0 0 1 83 20) " stroke-linecap="round" /><path d="M 555.5 0.5 L 555.5 5.5" style="stroke:#FFFFFF;stroke-opacity:1; stroke-opacity: 0.3; stroke-width: 1; stroke-dasharray: none; stroke-linecap: butt; stroke-linejoin: miter; stroke-miterlimit: 10; fill: none; fill-rule: nonzero; opacity: 1" transform=" matrix(1 0 0 1 83 463) " stroke-linecap="round" /><path d="M 476.5 443.5 L 476.5 443.5 L 476.5 0.5" style="stroke:#FFFFFF;stroke-opacity:1; stroke-opacity: 0.1; stroke-width: 1; stroke-dasharray: 3 3; stroke-linecap: butt; stroke-linejoin: miter; stroke-miterlimit: 10; fill: none; fill-rule: nonzero; opacity: 1" transform=" matrix(1 0 0 1 83 20) " stroke-linecap="round" /><path d="M 714.5 0.5 L 714.5 5.5" style="stroke:#FFFFFF;stroke-opacity:1; stroke-opacity: 0.3; stroke-width: 1; stroke-dasharray: none; stroke-linecap: butt; stroke-linejoin: miter; stroke-miterlimit: 10; fill: none; fill-rule: nonzero; opacity: 1" transform=" matrix(1 0 0 1 83 463) " stroke-linecap="round" /><path d="M 635.5 443.5 L 635.5 443.5 L 635.5 0.5" style="stroke:#FFFFFF;stroke-opacity:1; stroke-opacity: 0.1; stroke-width: 1; stroke-dasharray: 3 3; stroke-linecap: butt; stroke-linejoin: miter; stroke-miterlimit: 10; fill: none; fill-rule: nonzero; opacity: 1" transform=" matrix(1 0 0 1 83 20) " stroke-linecap="round" /><path d="M 873.5 0.5 L 873.5 5.5" style="stroke:#FFFFFF;stroke-opacity:1; stroke-opacity: 0.3; stroke-width: 1; stroke-dasharray: none; stroke-linecap: butt; stroke-linejoin: miter; stroke-miterlimit: 10; fill: none; fill-rule: nonzero; opacity: 1" transform=" matrix(1 0 0 1 83 463) " stroke-linecap="round" /><path d="M 794.5 443.5 L 794.5 443.5 L 794.5 0.5" style="stroke:#FFFFFF;stroke-opacity:1; stroke-opacity: 0.1; stroke-width: 1; stroke-dasharray: 3 3; stroke-linecap: butt; stroke-linejoin: miter; stroke-miterlimit: 10; fill: none; fill-rule: nonzero; opacity: 1" transform=" matrix(1 0 0 1 83 20) " stroke-linecap="round" /><path d="M 952.5 443.5 L 952.5 443.5 L 952.5 0.5" style="stroke:#FFFFFF;stroke-opacity:1; stroke-opacity: 0.1; stroke-width: 1; stroke-dasharray: 3 3; stroke-linecap: butt; stroke-linejoin: miter; stroke-miterlimit: 10; fill: none; fill-rule: nonzero; opacity: 1" transform=" matrix(1 0 0 1 83 20) " stroke-linecap="round" /><path d="M 0.5 443.5 L 6.5 443.5" style="stroke:#FFFFFF;stroke-opacity:1; stroke-opacity: 0.3; stroke-width: 1; stroke-dasharray: none; stroke-linecap: butt; stroke-linejoin: miter; stroke-miterlimit: 10; fill: none; fill-rule: nonzero; opacity: 1" transform=" matrix(1 0 0 1 77 20) " stroke-linecap="round" /><path d="M 0.5 443.5 L 0.5 443.5 L 952.5 443.5" style="stroke:#FFFFFF;stroke-opacity:1; stroke-opacity: 0.1; stroke-width: 1; stroke-dasharray: 3 3; stroke-linecap: butt; stroke-linejoin: miter; stroke-miterlimit: 10; fill: none; fill-rule: nonzero; opacity: 1" transform=" matrix(1 0 0 1 83 20) " stroke-linecap="round" /><path d="M 0.5 388.5 L 6.5 388.5" style="stroke:#FFFFFF;stroke-opacity:1; stroke-opacity: 0.3; stroke-width: 1; stroke-dasharray: none; stroke-linecap: butt; stroke-linejoin: miter; stroke-miterlimit: 10; fill: none; fill-rule: nonzero; opacity: 1" transform=" matrix(1 0 0 1 77 20) " stroke-linecap="round" /><path d="M 0.5 388.5 L 0.5 388.5 L 952.5 388.5" style="stroke:#FFFFFF;stroke-opacity:1; stroke-opacity: 0.1; stroke-width: 1; stroke-dasharray: 3 3; stroke-linecap: butt; stroke-linejoin: miter; stroke-miterlimit: 10; fill: none; fill-rule: nonzero; opacity: 1" transform=" matrix(1 0 0 1 83 20) " stroke-linecap="round" /><path d="M 0.5 332.5 L 6.5 332.5" style="stroke:#FFFFFF;stroke-opacity:1; stroke-opacity: 0.3; stroke-width: 1; stroke-dasharray: none; stroke-linecap: butt; stroke-linejoin: miter; stroke-miterlimit: 10; fill: none; fill-rule: nonzero; opacity: 1" transform=" matrix(1 0 0 1 77 20) " stroke-linecap="round" /><path d="M 0.5 332.5 L 0.5 332.5 L 952.5 332.5" style="stroke:#FFFFFF;stroke-opacity:1; stroke-opacity: 0.1; stroke-width: 1; stroke-dasharray: 3 3; stroke-linecap: butt; stroke-linejoin: miter; stroke-miterlimit: 10; fill: none; fill-rule: nonzero; opacity: 1" transform=" matrix(1 0 0 1 83 20) " stroke-linecap="round" /><path d="M 0.5 277.5 L 6.5 277.5" style="stroke:#FFFFFF;stroke-opacity:1; stroke-opacity: 0.3; stroke-width: 1; stroke-dasharray: none; stroke-linecap: butt; stroke-linejoin: miter; stroke-miterlimit: 10; fill: none; fill-rule: nonzero; opacity: 1" transform=" matrix(1 0 0 1 77 20) " stroke-linecap="round" /><path d="M 0.5 277.5 L 0.5 277.5 L 952.5 277.5" style="stroke:#FFFFFF;stroke-opacity:1; stroke-opacity: 0.1; stroke-width: 1; stroke-dasharray: 3 3; stroke-linecap: butt; stroke-linejoin: miter; stroke-miterlimit: 10; fill: none; fill-rule: nonzero; opacity: 1" transform=" matrix(1 0 0 1 83 20) " stroke-linecap="round" /><path d="M 0.5 222.5 L 6.5 222.5" style="stroke:#FFFFFF;stroke-opacity:1; stroke-opacity: 0.3; stroke-width: 1; stroke-dasharray: none; stroke-linecap: butt; stroke-linejoin: miter; stroke-miterlimit: 10; fill: none; fill-rule: nonzero; opacity: 1" transform=" matrix(1 0 0 1 77 20) " stroke-linecap="round" /><path d="M 0.5 222.5 L 0.5 222.5 L 952.5 222.5" style="stroke:#FFFFFF;stroke-opacity:1; stroke-opacity: 0.1; stroke-width: 1; stroke-dasharray: 3 3; stroke-linecap: butt; stroke-linejoin: miter; stroke-miterlimit: 10; fill: none; fill-rule: nonzero; opacity: 1" transform=" matrix(1 0 0 1 83 20) " stroke-linecap="round" /><path d="M 0.5 166.5 L 6.5 166.5" style="stroke:#FFFFFF;stroke-opacity:1; stroke-opacity: 0.3; stroke-width: 1; stroke-dasharray: none; stroke-linecap: butt; stroke-linejoin: miter; stroke-miterlimit: 10; fill: none; fill-rule: nonzero; opacity: 1" transform=" matrix(1 0 0 1 77 20) " stroke-linecap="round" /><path d="M 0.5 166.5 L 0.5 166.5 L 952.5 166.5" style="stroke:#FFFFFF;stroke-opacity:1; stroke-opacity: 0.1; stroke-width: 1; stroke-dasharray: 3 3; stroke-linecap: butt; stroke-linejoin: miter; stroke-miterlimit: 10; fill: none; fill-rule: nonzero; opacity: 1" transform=" matrix(1 0 0 1 83 20) " stroke-linecap="round" /><path d="M 0.5 111.5 L 6.5 111.5" style="stroke:#FFFFFF;stroke-opacity:1; stroke-opacity: 0.3; stroke-width: 1; stroke-dasharray: none; stroke-linecap: butt; stroke-linejoin: miter; stroke-miterlimit: 10; fill: none; fill-rule: nonzero; opacity: 1" transform=" matrix(1 0 0 1 77 20) " stroke-linecap="round" /><path d="M 0.5 111.5 L 0.5 111.5 L 952.5 111.5" style="stroke:#FFFFFF;stroke-opacity:1; stroke-opacity: 0.1; stroke-width: 1; stroke-dasharray: 3 3; stroke-linecap: butt; stroke-linejoin: miter; stroke-miterlimit: 10; fill: none; fill-rule: nonzero; opacity: 1" transform=" matrix(1 0 0 1 83 20) " stroke-linecap="round" /><path d="M 0.5 55.5 L 6.5 55.5" style="stroke:#FFFFFF;stroke-opacity:1; stroke-opacity: 0.3; stroke-width: 1; stroke-dasharray: none; stroke-linecap: butt; stroke-linejoin: miter; stroke-miterlimit: 10; fill: none; fill-rule: nonzero; opacity: 1" transform=" matrix(1 0 0 1 77 20) " stroke-linecap="round" /><path d="M 0.5 55.5 L 0.5 55.5 L 952.5 55.5" style="stroke:#FFFFFF;stroke-opacity:1; stroke-opacity: 0.1; stroke-width: 1; stroke-dasharray: 3 3; stroke-linecap: butt; stroke-linejoin: miter; stroke-miterlimit: 10; fill: none; fill-rule: nonzero; opacity: 1" transform=" matrix(1 0 0 1 83 20) " stroke-linecap="round" /><path d="M 0.5 0.5 L 6.5 0.5" style="stroke:#FFFFFF;stroke-opacity:1; stroke-opacity: 0.3; stroke-width: 1; stroke-dasharray: none; stroke-linecap: butt; stroke-linejoin: miter; stroke-miterlimit: 10; fill: none; fill-rule: nonzero; opacity: 1" transform=" matrix(1 0 0 1 77 20) " stroke-linecap="round" /><path d="M 0.5 0.5 L 0.5 0.5 L 952.5 0.5" style="stroke:#FFFFFF;stroke-opacity:1; stroke-opacity: 0.1; stroke-width: 1; stroke-dasharray: 3 3; stroke-linecap: butt; stroke-linejoin: miter; stroke-miterlimit: 10; fill: none; fill-rule: nonzero; opacity: 1" transform=" matrix(1 0 0 1 83 20) " stroke-linecap="round" /><path d="M 0.5 0.5 L 0.5 -276.5 L 127.5 -276.5 L 127.5 0.5 L 0.5 0.5 Z" style="stroke:#AE85C9;stroke-opacity:1; stroke-opacity: 0.2; stroke-width: 1; stroke-dasharray: none; stroke-linecap: butt; stroke-linejoin: miter; stroke-miterlimit: 10;fill:#AE85C9;fill-opacity:1; fill-opacity: 0.9; fill-rule: nonzero; opacity: 1" transform=" matrix(1 0 0 1 99 463) " stroke-linecap="round" /><path d="M 0.5 0.5 L 0.5 -77.5 L 127.5 -77.5 L 127.5 0.5 L 0.5 0.5 Z" style="stroke:#AE85C9;stroke-opacity:1; stroke-opacity: 0.2; stroke-width: 1; stroke-dasharray: none; stroke-linecap: butt; stroke-linejoin: miter; stroke-miterlimit: 10;fill:#AE85C9;fill-opacity:1; fill-opacity: 0.9; fill-rule: nonzero; opacity: 1" transform=" matrix(1 0 0 1 258 463) " stroke-linecap="round" /><path d="M 0.5 0.5 L 0.5 -198.5 L 127.5 -198.5 L 127.5 0.5 L 0.5 0.5 Z" style="stroke:#AE85C9;stroke-opacity:1; stroke-opacity: 0.2; stroke-width: 1; stroke-dasharray: none; stroke-linecap: butt; stroke-linejoin: miter; stroke-miterlimit: 10;fill:#AE85C9;fill-opacity:1; fill-opacity: 0.9; fill-rule: nonzero; opacity: 1" transform=" matrix(1 0 0 1 417 463) " stroke-linecap="round" /><path d="M 0.5 0.5 L 0.5 -176.5 L 127.5 -176.5 L 127.5 0.5 L 0.5 0.5 Z" style="stroke:#AE85C9;stroke-opacity:1; stroke-opacity: 0.2; stroke-width: 1; stroke-dasharray: none; stroke-linecap: butt; stroke-linejoin: miter; stroke-miterlimit: 10;fill:#AE85C9;fill-opacity:1; fill-opacity: 0.9; fill-rule: nonzero; opacity: 1" transform=" matrix(1 0 0 1 575 463) " stroke-linecap="round" /><path d="M 0.5 0.5 L 0.5 -43.5 L 127.5 -43.5 L 127.5 0.5 L 0.5 0.5 Z" style="stroke:#AE85C9;stroke-opacity:1; stroke-opacity: 0.2; stroke-width: 1; stroke-dasharray: none; stroke-linecap: butt; stroke-linejoin: miter; stroke-miterlimit: 10;fill:#AE85C9;fill-opacity:1; fill-opacity: 0.9; fill-rule: nonzero; opacity: 1" transform=" matrix(1 0 0 1 734 463) " stroke-linecap="round" /><path d="M 0.5 0.5 L 0.5 -176.5 L 127.5 -176.5 L 127.5 0.5 L 0.5 0.5 Z" style="stroke:#AE85C9;stroke-opacity:1; stroke-opacity: 0.2; stroke-width: 1; stroke-dasharray: none; stroke-linecap: butt; stroke-linejoin: miter; stroke-miterlimit: 10;fill:#AE85C9;fill-opacity:1; fill-opacity: 0.9; fill-rule: nonzero; opacity: 1" transform=" matrix(1 0 0 1 893 463) " stroke-linecap="round" /><path d="M 0.5 0.5 L 0.5 -353.5 L 79.5 -353.5 L 79.5 0.5 L 0.5 0.5 Z" style="stroke:#AAB9F7;stroke-opacity:1; stroke-opacity: 0.2; stroke-width: 1; stroke-dasharray: none; stroke-linecap: butt; stroke-linejoin: miter; stroke-miterlimit: 10;fill:#AAB9F7;fill-opacity:1; fill-opacity: 0.9; fill-rule: nonzero; opacity: 1" transform=" matrix(1 0 0 1 122 463) " stroke-linecap="round" /><path d="M 0.5 0.5 L 0.5 -232.5 L 79.5 -232.5 L 79.5 0.5 L 0.5 0.5 Z" style="stroke:#AAB9F7;stroke-opacity:1; stroke-opacity: 0.2; stroke-width: 1; stroke-dasharray: none; stroke-linecap: butt; stroke-linejoin: miter; stroke-miterlimit: 10;fill:#AAB9F7;fill-opacity:1; fill-opacity: 0.9; fill-rule: nonzero; opacity: 1" transform=" matrix(1 0 0 1 281 463) " stroke-linecap="round" /><path d="M 0.5 0.5 L 0.5 -209.5 L 79.5 -209.5 L 79.5 0.5 L 0.5 0.5 Z" style="stroke:#AAB9F7;stroke-opacity:1; stroke-opacity: 0.2; stroke-width: 1; stroke-dasharray: none; stroke-linecap: butt; stroke-linejoin: miter; stroke-miterlimit: 10;fill:#AAB9F7;fill-opacity:1; fill-opacity: 0.9; fill-rule: nonzero; opacity: 1" transform=" matrix(1 0 0 1 440 463) " stroke-linecap="round" /><path d="M 0.5 0.5 L 0.5 -143.5 L 79.5 -143.5 L 79.5 0.5 L 0.5 0.5 Z" style="stroke:#AAB9F7;stroke-opacity:1; stroke-opacity: 0.2; stroke-width: 1; stroke-dasharray: none; stroke-linecap: butt; stroke-linejoin: miter; stroke-miterlimit: 10;fill:#AAB9F7;fill-opacity:1; fill-opacity: 0.9; fill-rule: nonzero; opacity: 1" transform=" matrix(1 0 0 1 598 463) " stroke-linecap="round" /><path d="M 0.5 0.5 L 0.5 -121.5 L 79.5 -121.5 L 79.5 0.5 L 0.5 0.5 Z" style="stroke:#AAB9F7;stroke-opacity:1; stroke-opacity: 0.2; stroke-width: 1; stroke-dasharray: none; stroke-linecap: butt; stroke-linejoin: miter; stroke-miterlimit: 10;fill:#AAB9F7;fill-opacity:1; fill-opacity: 0.9; fill-rule: nonzero; opacity: 1" transform=" matrix(1 0 0 1 757 463) " stroke-linecap="round" /><path d="M 0.5 0.5 L 0.5 -431.5 L 79.5 -431.5 L 79.5 0.5 L 0.5 0.5 Z" style="stroke:#AAB9F7;stroke-opacity:1; stroke-opacity: 0.2; stroke-width: 1; stroke-dasharray: none; stroke-linecap: butt; stroke-linejoin: miter; stroke-miterlimit: 10;fill:#AAB9F7;fill-opacity:1; fill-opacity: 0.9; fill-rule: nonzero; opacity: 1" transform=" matrix(1 0 0 1 916 463) " stroke-linecap="round" /><path d="M 0.5 0.5 L 952.5 0.5" style="stroke:#FFFFFF;stroke-opacity:1; stroke-opacity: 0.3; stroke-width: 1; stroke-dasharray: none; stroke-linecap: butt; stroke-linejoin: miter; stroke-miterlimit: 10; fill: none; fill-rule: nonzero; opacity: 1" transform=" matrix(1 0 0 1 83 463) " stroke-linecap="round" /><path d="M 0.5 0.5 L 0.5 443.5" style="stroke:#FFFFFF;stroke-opacity:1; stroke-opacity: 0.3; stroke-width: 1; stroke-dasharray: none; stroke-linecap: butt; stroke-linejoin: miter; stroke-miterlimit: 10; fill: none; fill-rule: nonzero; opacity: 1" transform=" matrix(1 0 0 1 83 20) " stroke-linecap="round" /><g transform=" matrix(1 0 0 1 162.33333333333331 480.5) "><text xml:space="preserve" font-family="Verdana" font-size="11" font-weight="normal" style="stroke: none; stroke-width: 1; stroke-dasharray: none; stroke-linecap: butt; stroke-linejoin: miter; stroke-miterlimit: 10;fill:#E7E7E7;fill-opacity:1; fill-rule: nonzero; opacity: 1; white-space: pre" ><tspan x="-12.5" y="7.48" fill="rgba(231,231,231,1)">USA</tspan></text></g><g transform=" matrix(1 0 0 1 321.3333333333333 480.5) "><text xml:space="preserve" font-family="Verdana" font-size="11" font-weight="normal" style="stroke: none; stroke-width: 1; stroke-dasharray: none; stroke-linecap: butt; stroke-linejoin: miter; stroke-miterlimit: 10;fill:#E7E7E7;fill-opacity:1; fill-rule: nonzero; opacity: 1; white-space: pre" ><tspan x="-8.5" y="7.48" fill="rgba(231,231,231,1)">UK</tspan></text></g><g transform=" matrix(1 0 0 1 480.3333333333333 480.5) "><text xml:space="preserve" font-family="Verdana" font-size="11" font-weight="normal" style="stroke: none; stroke-width: 1; stroke-dasharray: none; stroke-linecap: butt; stroke-linejoin: miter; stroke-miterlimit: 10;fill:#E7E7E7;fill-opacity:1; fill-rule: nonzero; opacity: 1; white-space: pre" ><tspan x="-22.5" y="7.48" fill="rgba(231,231,231,1)">Canada</tspan></text></g><g transform=" matrix(1 0 0 1 638.3333333333334 480.5) "><text xml:space="preserve" font-family="Verdana" font-size="11" font-weight="normal" style="stroke: none; stroke-width: 1; stroke-dasharray: none; stroke-linecap: butt; stroke-linejoin: miter; stroke-miterlimit: 10;fill:#E7E7E7;fill-opacity:1; fill-rule: nonzero; opacity: 1; white-space: pre" ><tspan x="-17" y="7.48" fill="rgba(231,231,231,1)">Japan</tspan></text></g><g transform=" matrix(1 0 0 1 797.3333333333334 480.5) "><text xml:space="preserve" font-family="Verdana" font-size="11" font-weight="normal" style="stroke: none; stroke-width: 1; stroke-dasharray: none; stroke-linecap: butt; stroke-linejoin: miter; stroke-miterlimit: 10;fill:#E7E7E7;fill-opacity:1; fill-rule: nonzero; opacity: 1; white-space: pre" ><tspan x="-19.5" y="7.48" fill="rgba(231,231,231,1)">France</tspan></text></g><g transform=" matrix(1 0 0 1 956.3333333333334 480.5) "><text xml:space="preserve" font-family="Verdana" font-size="11" font-weight="normal" style="stroke: none; stroke-width: 1; stroke-dasharray: none; stroke-linecap: butt; stroke-linejoin: miter; stroke-miterlimit: 10;fill:#E7E7E7;fill-opacity:1; fill-rule: nonzero; opacity: 1; white-space: pre" ><tspan x="-16.5" y="7.48" fill="rgba(231,231,231,1)">Brazil</tspan></text></g><g transform=" matrix(1 0 0 1 71 461) "><text xml:space="preserve" font-family="Verdana" font-size="11" font-weight="normal" style="stroke: none; stroke-width: 1; stroke-dasharray: none; stroke-linecap: butt; stroke-linejoin: miter; stroke-miterlimit: 10;fill:#E7E7E7;fill-opacity:1; fill-rule: nonzero; opacity: 1; white-space: pre" ><tspan x="-31" y="7.48" fill="rgba(231,231,231,1)">1.0%</tspan></text></g><g transform=" matrix(1 0 0 1 71 406) "><text xml:space="preserve" font-family="Verdana" font-size="11" font-weight="normal" style="stroke: none; stroke-width: 1; stroke-dasharray: none; stroke-linecap: butt; stroke-linejoin: miter; stroke-miterlimit: 10;fill:#E7E7E7;fill-opacity:1; fill-rule: nonzero; opacity: 1; white-space: pre" ><tspan x="-31" y="7.48" fill="rgba(231,231,231,1)">1.5%</tspan></text></g><g transform=" matrix(1 0 0 1 71 350) "><text xml:space="preserve" font-family="Verdana" font-size="11" font-weight="normal" style="stroke: none; stroke-width: 1; stroke-dasharray: none; stroke-linecap: butt; stroke-linejoin: miter; stroke-miterlimit: 10;fill:#E7E7E7;fill-opacity:1; fill-rule: nonzero; opacity: 1; white-space: pre" ><tspan x="-31" y="7.48" fill="rgba(231,231,231,1)">2.0%</tspan></text></g><g transform=" matrix(1 0 0 1 71 295) "><text xml:space="preserve" font-family="Verdana" font-size="11" font-weight="normal" style="stroke: none; stroke-width: 1; stroke-dasharray: none; stroke-linecap: butt; stroke-linejoin: miter; stroke-miterlimit: 10;fill:#E7E7E7;fill-opacity:1; fill-rule: nonzero; opacity: 1; white-space: pre" ><tspan x="-31" y="7.48" fill="rgba(231,231,231,1)">2.5%</tspan></text></g><g transform=" matrix(1 0 0 1 71 240) "><text xml:space="preserve" font-family="Verdana" font-size="11" font-weight="normal" style="stroke: none; stroke-width: 1; stroke-dasharray: none; stroke-linecap: butt; stroke-linejoin: miter; stroke-miterlimit: 10;fill:#E7E7E7;fill-opacity:1; fill-rule: nonzero; opacity: 1; white-space: pre" ><tspan x="-31" y="7.48" fill="rgba(231,231,231,1)">3.0%</tspan></text></g><g transform=" matrix(1 0 0 1 71 184) "><text xml:space="preserve" font-family="Verdana" font-size="11" font-weight="normal" style="stroke: none; stroke-width: 1; stroke-dasharray: none; stroke-linecap: butt; stroke-linejoin: miter; stroke-miterlimit: 10;fill:#E7E7E7;fill-opacity:1; fill-rule: nonzero; opacity: 1; white-space: pre" ><tspan x="-31" y="7.48" fill="rgba(231,231,231,1)">3.5%</tspan></text></g><g transform=" matrix(1 0 0 1 71 129) "><text xml:space="preserve" font-family="Verdana" font-size="11" font-weight="normal" style="stroke: none; stroke-width: 1; stroke-dasharray: none; stroke-linecap: butt; stroke-linejoin: miter; stroke-miterlimit: 10;fill:#E7E7E7;fill-opacity:1; fill-rule: nonzero; opacity: 1; white-space: pre" ><tspan x="-31" y="7.48" fill="rgba(231,231,231,1)">4.0%</tspan></text></g><g transform=" matrix(1 0 0 1 71 73) "><text xml:space="preserve" font-family="Verdana" font-size="11" font-weight="normal" style="stroke: none; stroke-width: 1; stroke-dasharray: none; stroke-linecap: butt; stroke-linejoin: miter; stroke-miterlimit: 10;fill:#E7E7E7;fill-opacity:1; fill-rule: nonzero; opacity: 1; white-space: pre" ><tspan x="-31" y="7.48" fill="rgba(231,231,231,1)">4.5%</tspan></text></g><g transform=" matrix(1 0 0 1 71 18) "><text xml:space="preserve" font-family="Verdana" font-size="11" font-weight="normal" style="stroke: none; stroke-width: 1; stroke-dasharray: none; stroke-linecap: butt; stroke-linejoin: miter; stroke-miterlimit: 10;fill:#E7E7E7;fill-opacity:1; fill-rule: nonzero; opacity: 1; white-space: pre" ><tspan x="-31" y="7.48" fill="rgba(231,231,231,1)">5.0%</tspan></text></g><g transform=" matrix(6.123233995736766e-17 -1 1 6.123233995736766e-17 22 242) "><text xml:space="preserve" font-family="Verdana" font-size="12" font-weight="bold" style="stroke: none; stroke-width: 1; stroke-dasharray: none; stroke-linecap: butt; stroke-linejoin: miter; stroke-miterlimit: 10;fill:#E7E7E7;fill-opacity:1; fill-rule: nonzero; opacity: 1; white-space: pre" ><tspan x="-56" y="7.66" fill="rgba(231,231,231,1)">GDP growth rate</tspan></text></g></g></svg>
