<?xml version="1.0" encoding="UTF-8" standalone="no" ?><!DOCTYPE svg PUBLIC "-//W3C//DTD SVG 1.1//EN" "http://www.w3.org/Graphics/SVG/1.1/DTD/svg11.dtd"><svg xmlns="http://www.w3.org/2000/svg" xmlns:xlink="http://www.w3.org/1999/xlink" version="1.1" width="1056" height="500" viewBox="0 0 1056 500" xml:space="preserve"><desc>Created with Fabric.js 1.7.19</desc><defs></defs><rect x="0" y="0" width="1056" height="500" fill="#FFFFFF"></rect><g style="stroke: none; stroke-width: 1; stroke-dasharray: none; stroke-linecap: butt; stroke-linejoin: miter; stroke-miterlimit: 10; fill: none; fill-rule: nonzero; opacity: 1" transform="translate(0 0)" ><path d="M 0.5 0.5 L 1055.5 0.5 L 1055.5 499.5 L 0.5 499.5 Z" style="stroke:#000000;stroke-opacity:1; stroke-opacity: 0; stroke-width: 1; stroke-dasharray: none; stroke-linecap: butt; stroke-linejoin: miter; stroke-miterlimit: 10;fill:#FFFFFF;fill-opacity:1; fill-opacity: 0; fill-rule: nonzero; opacity: 1" transform="" stroke-linecap="round" /><path d="M 0.5 0.5 L 0.5 -174.5" style="stroke:#000000;stroke-opacity:1; stroke-opacity: 0.15; stroke-width: 1; stroke-dasharray: none; stroke-linecap: butt; stroke-linejoin: miter; stroke-miterlimit: 10; fill: none; fill-rule: nonzero; opacity: 1" transform=" matrix(1 0 0 1 528 250) " stroke-linecap="round" /><g transform=" matrix(1 0 0 1 528 50) "><text xml:space="preserve" font-family="Verdana" font-size="11" font-weight="normal" style="stroke: none; stroke-width: 1; stroke-dasharray: none; stroke-linecap: butt; stroke-linejoin: miter; stroke-miterlimit: 10;fill:#000000;fill-opacity:1; fill-rule: nonzero; opacity: 1; white-space: pre" ><tspan x="-44" y="7.48" fill="rgba(0,0,0,1)">Czech Republic</tspan></text></g><path d="M 0.5 0.5 L 152.5 -86.5" style="stroke:#000000;stroke-opacity:1; stroke-opacity: 0.15; stroke-width: 1; stroke-dasharray: none; stroke-linecap: butt; stroke-linejoin: miter; stroke-miterlimit: 10; fill: none; fill-rule: nonzero; opacity: 1" transform=" matrix(1 0 0 1 528 250) " stroke-linecap="round" /><g transform=" matrix(1 0 0 1 702 153) "><text xml:space="preserve" font-family="Verdana" font-size="11" font-weight="normal" style="stroke: none; stroke-width: 1; stroke-dasharray: none; stroke-linecap: butt; stroke-linejoin: miter; stroke-miterlimit: 10;fill:#000000;fill-opacity:1; fill-rule: nonzero; opacity: 1; white-space: pre" ><tspan x="0" y="7.48" fill="rgba(0,0,0,1)">Ireland</tspan></text></g><path d="M 0.5 0.5 L 152.5 88.5" style="stroke:#000000;stroke-opacity:1; stroke-opacity: 0.15; stroke-width: 1; stroke-dasharray: none; stroke-linecap: butt; stroke-linejoin: miter; stroke-miterlimit: 10; fill: none; fill-rule: nonzero; opacity: 1" transform=" matrix(1 0 0 1 528 250) " stroke-linecap="round" /><g transform=" matrix(1 0 0 1 702 348) "><text xml:space="preserve" font-family="Verdana" font-size="11" font-weight="normal" style="stroke: none; stroke-width: 1; stroke-dasharray: none; stroke-linecap: butt; stroke-linejoin: miter; stroke-miterlimit: 10;fill:#000000;fill-opacity:1; fill-rule: nonzero; opacity: 1; white-space: pre" ><tspan x="0" y="7.48" fill="rgba(0,0,0,1)">Germany</tspan></text></g><path d="M 0.5 0.5 L 0.5 175.5" style="stroke:#000000;stroke-opacity:1; stroke-opacity: 0.15; stroke-width: 1; stroke-dasharray: none; stroke-linecap: butt; stroke-linejoin: miter; stroke-miterlimit: 10; fill: none; fill-rule: nonzero; opacity: 1" transform=" matrix(1 0 0 1 528 250) " stroke-linecap="round" /><g transform=" matrix(1 0 0 1 528 450) "><text xml:space="preserve" font-family="Verdana" font-size="11" font-weight="normal" style="stroke: none; stroke-width: 1; stroke-dasharray: none; stroke-linecap: butt; stroke-linejoin: miter; stroke-miterlimit: 10;fill:#000000;fill-opacity:1; fill-rule: nonzero; opacity: 1; white-space: pre" ><tspan x="-25.5" y="7.48" fill="rgba(0,0,0,1)">Australia</tspan></text></g><path d="M 0.5 0.5 L -151.5 88.5" style="stroke:#000000;stroke-opacity:1; stroke-opacity: 0.15; stroke-width: 1; stroke-dasharray: none; stroke-linecap: butt; stroke-linejoin: miter; stroke-miterlimit: 10; fill: none; fill-rule: nonzero; opacity: 1" transform=" matrix(1 0 0 1 528 250) " stroke-linecap="round" /><g transform=" matrix(1 0 0 1 354 348) "><text xml:space="preserve" font-family="Verdana" font-size="11" font-weight="normal" style="stroke: none; stroke-width: 1; stroke-dasharray: none; stroke-linecap: butt; stroke-linejoin: miter; stroke-miterlimit: 10;fill:#000000;fill-opacity:1; fill-rule: nonzero; opacity: 1; white-space: pre" ><tspan x="-41" y="7.48" fill="rgba(0,0,0,1)">Austria</tspan></text></g><path d="M 0.5 0.5 L -151.5 -86.5" style="stroke:#000000;stroke-opacity:1; stroke-opacity: 0.15; stroke-width: 1; stroke-dasharray: none; stroke-linecap: butt; stroke-linejoin: miter; stroke-miterlimit: 10; fill: none; fill-rule: nonzero; opacity: 1" transform=" matrix(1 0 0 1 528 250) " stroke-linecap="round" /><g transform=" matrix(1 0 0 1 354 153) "><text xml:space="preserve" font-family="Verdana" font-size="11" font-weight="normal" style="stroke: none; stroke-width: 1; stroke-dasharray: none; stroke-linecap: butt; stroke-linejoin: miter; stroke-miterlimit: 10;fill:#000000;fill-opacity:1; fill-rule: nonzero; opacity: 1; white-space: pre" ><tspan x="-17" y="7.48" fill="rgba(0,0,0,1)">UK</tspan></text></g><path d="M 0.5 0.5 L -4.5 0.5" style="stroke:#000000;stroke-opacity:1; stroke-opacity: 0.15; stroke-width: 1; stroke-dasharray: none; stroke-linecap: butt; stroke-linejoin: miter; stroke-miterlimit: 10; fill: none; fill-rule: nonzero; opacity: 1" transform=" matrix(1 0 0 1 528 250) " stroke-linecap="round" /><path d="M 0.5 0.5 L 0.5 0.5 L 0.5 0.5 L 0.5 0.5 L 0.5 0.5 L 0.5 0.5 L 0.5 0.5" style="stroke:#000000;stroke-opacity:1; stroke-opacity: 0.1; stroke-width: 1; stroke-dasharray: none; stroke-linecap: butt; stroke-linejoin: miter; stroke-miterlimit: 10; fill: none; fill-rule: nonzero; opacity: 1" transform=" matrix(1 0 0 1 528 250) " stroke-linecap="round" /><path d="M 0.5 -43.5 L -4.5 -43.5" style="stroke:#000000;stroke-opacity:1; stroke-opacity: 0.15; stroke-width: 1; stroke-dasharray: none; stroke-linecap: butt; stroke-linejoin: miter; stroke-miterlimit: 10; fill: none; fill-rule: nonzero; opacity: 1" transform=" matrix(1 0 0 1 528 250) " stroke-linecap="round" /><path d="M 0.5 -43.5 L 38.5 -21.5 L 38.5 22.5 L 0.5 44.5 L -37.5 22.5 L -37.5 -21.5 L 0.5 -43.5" style="stroke:#000000;stroke-opacity:1; stroke-opacity: 0.1; stroke-width: 1; stroke-dasharray: none; stroke-linecap: butt; stroke-linejoin: miter; stroke-miterlimit: 10; fill: none; fill-rule: nonzero; opacity: 1" transform=" matrix(1 0 0 1 528 250) " stroke-linecap="round" /><path d="M 0.5 -86.5 L -4.5 -86.5" style="stroke:#000000;stroke-opacity:1; stroke-opacity: 0.15; stroke-width: 1; stroke-dasharray: none; stroke-linecap: butt; stroke-linejoin: miter; stroke-miterlimit: 10; fill: none; fill-rule: nonzero; opacity: 1" transform=" matrix(1 0 0 1 528 250) " stroke-linecap="round" /><path d="M 0.5 -86.5 L 75.5 -42.5 L 75.5 44.5 L 0.5 87.5 L -74.5 44.5 L -74.5 -42.5 L 0.5 -86.5" style="stroke:#000000;stroke-opacity:1; stroke-opacity: 0.1; stroke-width: 1; stroke-dasharray: none; stroke-linecap: butt; stroke-linejoin: miter; stroke-miterlimit: 10; fill: none; fill-rule: nonzero; opacity: 1" transform=" matrix(1 0 0 1 528 250) " stroke-linecap="round" /><path d="M 0.5 -130.5 L -4.5 -130.5" style="stroke:#000000;stroke-opacity:1; stroke-opacity: 0.15; stroke-width: 1; stroke-dasharray: none; stroke-linecap: butt; stroke-linejoin: miter; stroke-miterlimit: 10; fill: none; fill-rule: nonzero; opacity: 1" transform=" matrix(1 0 0 1 528 250) " stroke-linecap="round" /><path d="M 0.5 -130.5 L 113.5 -64.5 L 113.5 66.5 L 0.5 131.5 L -112.5 66.5 L -112.5 -64.5 L 0.5 -130.5" style="stroke:#000000;stroke-opacity:1; stroke-opacity: 0.1; stroke-width: 1; stroke-dasharray: none; stroke-linecap: butt; stroke-linejoin: miter; stroke-miterlimit: 10; fill: none; fill-rule: nonzero; opacity: 1" transform=" matrix(1 0 0 1 528 250) " stroke-linecap="round" /><path d="M 0.5 -174.5 L -4.5 -174.5" style="stroke:#000000;stroke-opacity:1; stroke-opacity: 0.15; stroke-width: 1; stroke-dasharray: none; stroke-linecap: butt; stroke-linejoin: miter; stroke-miterlimit: 10; fill: none; fill-rule: nonzero; opacity: 1" transform=" matrix(1 0 0 1 528 250) " stroke-linecap="round" /><path d="M 0.5 -174.5 L 152.5 -86.5 L 152.5 88.5 L 0.5 175.5 L -151.5 88.5 L -151.5 -86.5 L 0.5 -174.5" style="stroke:#000000;stroke-opacity:1; stroke-opacity: 0.1; stroke-width: 1; stroke-dasharray: none; stroke-linecap: butt; stroke-linejoin: miter; stroke-miterlimit: 10; fill: none; fill-rule: nonzero; opacity: 1" transform=" matrix(1 0 0 1 528 250) " stroke-linecap="round" /><path d="M 0.5 -136.7875 L 99.84394 -56.85625 L 88.25002 51.1625 L 0.5 96.6625 L -81.56673 47.88125 L -74.51945 -42.8125 L 0.5 -136.7875 M 0 0 L 0 0" style="stroke:#67B7DC;stroke-opacity:1; stroke-opacity: 0.9; stroke-width: 2; stroke-dasharray: none; stroke-linecap: butt; stroke-linejoin: round; stroke-miterlimit: 10; fill: none; fill-rule: nonzero; opacity: 1" transform=" matrix(1 0 0 1 528 250) " stroke-linecap="round" /><circle cx="0" cy="0" r="4" style="stroke:#67B7DC;stroke-opacity:1; stroke-opacity: 0; stroke-width: 2; stroke-dasharray: none; stroke-linecap: butt; stroke-linejoin: miter; stroke-miterlimit: 10;fill:#67B7DC;fill-opacity:1; fill-rule: nonzero; opacity: 1" transform="  matrix(1 0 0 1 528 113) "/><circle cx="0" cy="0" r="4" style="stroke:#67B7DC;stroke-opacity:1; stroke-opacity: 0; stroke-width: 2; stroke-dasharray: none; stroke-linecap: butt; stroke-linejoin: miter; stroke-miterlimit: 10;fill:#67B7DC;fill-opacity:1; fill-rule: nonzero; opacity: 1" transform="  matrix(1 0 0 1 627 193) "/><circle cx="0" cy="0" r="4" style="stroke:#67B7DC;stroke-opacity:1; stroke-opacity: 0; stroke-width: 2; stroke-dasharray: none; stroke-linecap: butt; stroke-linejoin: miter; stroke-miterlimit: 10;fill:#67B7DC;fill-opacity:1; fill-rule: nonzero; opacity: 1" transform="  matrix(1 0 0 1 616 301) "/><circle cx="0" cy="0" r="4" style="stroke:#67B7DC;stroke-opacity:1; stroke-opacity: 0; stroke-width: 2; stroke-dasharray: none; stroke-linecap: butt; stroke-linejoin: miter; stroke-miterlimit: 10;fill:#67B7DC;fill-opacity:1; fill-rule: nonzero; opacity: 1" transform="  matrix(1 0 0 1 528 346) "/><circle cx="0" cy="0" r="4" style="stroke:#67B7DC;stroke-opacity:1; stroke-opacity: 0; stroke-width: 2; stroke-dasharray: none; stroke-linecap: butt; stroke-linejoin: miter; stroke-miterlimit: 10;fill:#67B7DC;fill-opacity:1; fill-rule: nonzero; opacity: 1" transform="  matrix(1 0 0 1 446 297) "/><circle cx="0" cy="0" r="4" style="stroke:#67B7DC;stroke-opacity:1; stroke-opacity: 0; stroke-width: 2; stroke-dasharray: none; stroke-linecap: butt; stroke-linejoin: miter; stroke-miterlimit: 10;fill:#67B7DC;fill-opacity:1; fill-rule: nonzero; opacity: 1" transform="  matrix(1 0 0 1 453 207) "/><g transform=" matrix(1 0 0 1 520 250) "><text xml:space="preserve" font-family="Verdana" font-size="11" font-weight="normal" style="stroke: none; stroke-width: 1; stroke-dasharray: none; stroke-linecap: butt; stroke-linejoin: miter; stroke-miterlimit: 10;fill:#000000;fill-opacity:1; fill-rule: nonzero; opacity: 1; white-space: pre" ><tspan x="-8" y="7.48" fill="rgba(0,0,0,1)">0</tspan></text></g><g transform=" matrix(1 0 0 1 520 206) "><text xml:space="preserve" font-family="Verdana" font-size="11" font-weight="normal" style="stroke: none; stroke-width: 1; stroke-dasharray: none; stroke-linecap: butt; stroke-linejoin: miter; stroke-miterlimit: 10;fill:#000000;fill-opacity:1; fill-rule: nonzero; opacity: 1; white-space: pre" ><tspan x="-15" y="7.48" fill="rgba(0,0,0,1)">50</tspan></text></g><g transform=" matrix(1 0 0 1 520 163) "><text xml:space="preserve" font-family="Verdana" font-size="11" font-weight="normal" style="stroke: none; stroke-width: 1; stroke-dasharray: none; stroke-linecap: butt; stroke-linejoin: miter; stroke-miterlimit: 10;fill:#000000;fill-opacity:1; fill-rule: nonzero; opacity: 1; white-space: pre" ><tspan x="-22" y="7.48" fill="rgba(0,0,0,1)">100</tspan></text></g><g transform=" matrix(1 0 0 1 520 119) "><text xml:space="preserve" font-family="Verdana" font-size="11" font-weight="normal" style="stroke: none; stroke-width: 1; stroke-dasharray: none; stroke-linecap: butt; stroke-linejoin: miter; stroke-miterlimit: 10;fill:#000000;fill-opacity:1; fill-rule: nonzero; opacity: 1; white-space: pre" ><tspan x="-22" y="7.48" fill="rgba(0,0,0,1)">150</tspan></text></g><g transform=" matrix(1 0 0 1 520 75) "><text xml:space="preserve" font-family="Verdana" font-size="11" font-weight="normal" style="stroke: none; stroke-width: 1; stroke-dasharray: none; stroke-linecap: butt; stroke-linejoin: miter; stroke-miterlimit: 10;fill:#000000;fill-opacity:1; fill-rule: nonzero; opacity: 1; white-space: pre" ><tspan x="-22" y="7.48" fill="rgba(0,0,0,1)">200</tspan></text></g></g></svg>