<?xml version="1.0" encoding="UTF-8" standalone="no" ?><!DOCTYPE svg PUBLIC "-//W3C//DTD SVG 1.1//EN" "http://www.w3.org/Graphics/SVG/1.1/DTD/svg11.dtd"><svg xmlns="http://www.w3.org/2000/svg" xmlns:xlink="http://www.w3.org/1999/xlink" version="1.1" width="1056" height="500" viewBox="0 0 1056 500" xml:space="preserve"><desc>Created with Fabric.js 1.7.19</desc><defs></defs><rect x="0" y="0" width="1056" height="500" fill="#FFFFFF"></rect><g style="stroke: none; stroke-width: 1; stroke-dasharray: none; stroke-linecap: butt; stroke-linejoin: miter; stroke-miterlimit: 10; fill: none; fill-rule: nonzero; opacity: 1" transform="translate(0 0)" ><path d="M 0.5 0.5 L 1055.5 0.5 L 1055.5 499.5 L 0.5 499.5 Z" style="stroke:#000000;stroke-opacity:1; stroke-opacity: 0; stroke-width: 1; stroke-dasharray: none; stroke-linecap: butt; stroke-linejoin: miter; stroke-miterlimit: 10;fill:#FFFFFF;fill-opacity:1; fill-opacity: 0; fill-rule: nonzero; opacity: 1" transform="" stroke-linecap="round" /><path d="M 528 257.46 L 506.3560210147141 121.225724320624 A 205 137 0 0 1 527.9999999999998 120.46 L 528 257.46 Z" style="stroke: none; stroke-width: 1; stroke-dasharray: none; stroke-linecap: butt; stroke-linejoin: miter; stroke-miterlimit: 10;fill:#26335D;fill-opacity:1; fill-rule: nonzero; opacity: 1" transform=" matrix(1 0 0 1 0 0) " stroke-linecap="round" /><path d="M 528 257.46 L 506.3560210147141 121.225724320624 A 205 137 0 0 1 527.9999999999998 120.46 L 528 257.46 Z" style="stroke: none; stroke-width: 1; stroke-dasharray: none; stroke-linecap: butt; stroke-linejoin: miter; stroke-miterlimit: 10;fill:#26335D;fill-opacity:1; fill-rule: nonzero; opacity: 1" transform=" matrix(1 0 0 1 0 -10) " stroke-linecap="round" /><path d="M 528 242.54 L 528 257.46 L 506.3560210147141 121.225724320624 L 506.3560210147141 106.305724320624 L 528 242.54 Z" style="stroke: none; stroke-width: 1; stroke-dasharray: none; stroke-linecap: butt; stroke-linejoin: miter; stroke-miterlimit: 10;fill:#26335D;fill-opacity:1; fill-rule: nonzero; opacity: 1" transform="" stroke-linecap="round" /><path d="M 527.9999999999998 105.53999999999999 L 527.9999999999998 120.46 L 528 257.46 L 528 242.54 L 527.9999999999998 105.53999999999999 Z" style="stroke: none; stroke-width: 1; stroke-dasharray: none; stroke-linecap: butt; stroke-linejoin: miter; stroke-miterlimit: 10;fill:#26335D;fill-opacity:1; fill-rule: nonzero; opacity: 1" transform="" stroke-linecap="round" /><path d="M 528 242.54 L 506.3560210147141 106.305724320624 A 205 137 0 0 1 527.9999999999998 105.53999999999999 L 528 242.54 Z" style="stroke:#FFFFFF;stroke-opacity:1; stroke-opacity: 0.4; stroke-width: 2; stroke-dasharray: none; stroke-linecap: butt; stroke-linejoin: miter; stroke-miterlimit: 10;fill:#2F4074;fill-opacity:1; fill-rule: nonzero; opacity: 1" transform="" stroke-linecap="round" /><path d="M 517.5 106.5 L 516.5 71.5 L 508.5 71.5" style="stroke:#000000;stroke-opacity:1; stroke-opacity: 0.3; stroke-width: 1; stroke-dasharray: none; stroke-linecap: butt; stroke-linejoin: miter; stroke-miterlimit: 10; fill: none; fill-rule: nonzero; opacity: 1" transform="" stroke-linecap="round" /><path d="M 528 257.46 L 466.09685538909764 126.85536300259001 A 205 137 0 0 1 506.3560210147141 121.225724320624 L 528 257.46 Z" style="stroke: none; stroke-width: 1; stroke-dasharray: none; stroke-linecap: butt; stroke-linejoin: miter; stroke-miterlimit: 10;fill:#A4688A;fill-opacity:1; fill-rule: nonzero; opacity: 1" transform=" matrix(1 0 0 1 0 0) " stroke-linecap="round" /><path d="M 528 257.46 L 466.09685538909764 126.85536300259001 A 205 137 0 0 1 506.3560210147141 121.225724320624 L 528 257.46 Z" style="stroke: none; stroke-width: 1; stroke-dasharray: none; stroke-linecap: butt; stroke-linejoin: miter; stroke-miterlimit: 10;fill:#A4688A;fill-opacity:1; fill-rule: nonzero; opacity: 1" transform=" matrix(1 0 0 1 0 -10) " stroke-linecap="round" /><path d="M 528 242.54 L 528 257.46 L 466.09685538909764 126.85536300259001 L 466.09685538909764 111.93536300259001 L 528 242.54 Z" style="stroke: none; stroke-width: 1; stroke-dasharray: none; stroke-linecap: butt; stroke-linejoin: miter; stroke-miterlimit: 10;fill:#A4688A;fill-opacity:1; fill-rule: nonzero; opacity: 1" transform="" stroke-linecap="round" /><path d="M 506.3560210147141 106.305724320624 L 506.3560210147141 121.225724320624 L 528 257.46 L 528 242.54 L 506.3560210147141 106.305724320624 Z" style="stroke: none; stroke-width: 1; stroke-dasharray: none; stroke-linecap: butt; stroke-linejoin: miter; stroke-miterlimit: 10;fill:#A4688A;fill-opacity:1; fill-rule: nonzero; opacity: 1" transform="" stroke-linecap="round" /><path d="M 528 242.54 L 466.09685538909764 111.93536300259001 A 205 137 0 0 1 506.3560210147141 106.305724320624 L 528 242.54 Z" style="stroke:#FFFFFF;stroke-opacity:1; stroke-opacity: 0.4; stroke-width: 2; stroke-dasharray: none; stroke-linecap: butt; stroke-linejoin: miter; stroke-miterlimit: 10;fill:#CD82AD;fill-opacity:1; fill-rule: nonzero; opacity: 1" transform="" stroke-linecap="round" /><path d="M 486.5 109.5 L 482.5 92.5 L 474.5 92.5" style="stroke:#000000;stroke-opacity:1; stroke-opacity: 0.3; stroke-width: 1; stroke-dasharray: none; stroke-linecap: butt; stroke-linejoin: miter; stroke-miterlimit: 10; fill: none; fill-rule: nonzero; opacity: 1" transform="" stroke-linecap="round" /><path d="M 528 257.46 L 392.9360323753382 154.39825061303068 A 205 137 0 0 1 466.09685538909764 126.85536300259001 L 528 257.46 Z" style="stroke: none; stroke-width: 1; stroke-dasharray: none; stroke-linecap: butt; stroke-linejoin: miter; stroke-miterlimit: 10;fill:#A3393A;fill-opacity:1; fill-rule: nonzero; opacity: 1" transform=" matrix(1 0 0 1 0 0) " stroke-linecap="round" /><path d="M 528 257.46 L 392.9360323753382 154.39825061303068 A 205 137 0 0 1 466.09685538909764 126.85536300259001 L 528 257.46 Z" style="stroke: none; stroke-width: 1; stroke-dasharray: none; stroke-linecap: butt; stroke-linejoin: miter; stroke-miterlimit: 10;fill:#A3393A;fill-opacity:1; fill-rule: nonzero; opacity: 1" transform=" matrix(1 0 0 1 0 -10) " stroke-linecap="round" /><path d="M 528 242.54 L 528 257.46 L 392.9360323753382 154.39825061303068 L 392.9360323753382 139.4782506130307 L 528 242.54 Z" style="stroke: none; stroke-width: 1; stroke-dasharray: none; stroke-linecap: butt; stroke-linejoin: miter; stroke-miterlimit: 10;fill:#A3393A;fill-opacity:1; fill-rule: nonzero; opacity: 1" transform="" stroke-linecap="round" /><path d="M 466.09685538909764 111.93536300259001 L 466.09685538909764 126.85536300259001 L 528 257.46 L 528 242.54 L 466.09685538909764 111.93536300259001 Z" style="stroke: none; stroke-width: 1; stroke-dasharray: none; stroke-linecap: butt; stroke-linejoin: miter; stroke-miterlimit: 10;fill:#A3393A;fill-opacity:1; fill-rule: nonzero; opacity: 1" transform="" stroke-linecap="round" /><path d="M 528 242.54 L 392.9360323753382 139.4782506130307 A 205 137 0 0 1 466.09685538909764 111.93536300259001 L 528 242.54 Z" style="stroke:#FFFFFF;stroke-opacity:1; stroke-opacity: 0.4; stroke-width: 2; stroke-dasharray: none; stroke-linecap: butt; stroke-linejoin: miter; stroke-miterlimit: 10;fill:#CC4748;fill-opacity:1; fill-rule: nonzero; opacity: 1" transform="" stroke-linecap="round" /><path d="M 427.5 123.5 L 417.5 112.5 L 409.5 112.5" style="stroke:#000000;stroke-opacity:1; stroke-opacity: 0.3; stroke-width: 1; stroke-dasharray: none; stroke-linecap: butt; stroke-linejoin: miter; stroke-miterlimit: 10; fill: none; fill-rule: nonzero; opacity: 1" transform="" stroke-linecap="round" /><path d="M 528 257.46 L 325.7491663775661 235.0986402299075 A 205 137 0 0 1 392.9360323753382 154.39825061303068 L 528 257.46 Z" style="stroke: none; stroke-width: 1; stroke-dasharray: none; stroke-linecap: butt; stroke-linejoin: miter; stroke-miterlimit: 10;fill:#6A924E;fill-opacity:1; fill-rule: nonzero; opacity: 1" transform=" matrix(1 0 0 1 0 0) " stroke-linecap="round" /><path d="M 528 257.46 L 325.7491663775661 235.0986402299075 A 205 137 0 0 1 392.9360323753382 154.39825061303068 L 528 257.46 Z" style="stroke: none; stroke-width: 1; stroke-dasharray: none; stroke-linecap: butt; stroke-linejoin: miter; stroke-miterlimit: 10;fill:#6A924E;fill-opacity:1; fill-rule: nonzero; opacity: 1" transform=" matrix(1 0 0 1 0 -10) " stroke-linecap="round" /><path d="M 528 242.54 L 528 257.46 L 325.7491663775661 235.0986402299075 L 325.7491663775661 220.1786402299075 L 528 242.54 Z" style="stroke: none; stroke-width: 1; stroke-dasharray: none; stroke-linecap: butt; stroke-linejoin: miter; stroke-miterlimit: 10;fill:#6A924E;fill-opacity:1; fill-rule: nonzero; opacity: 1" transform="" stroke-linecap="round" /><path d="M 392.9360323753382 139.4782506130307 L 392.9360323753382 154.39825061303068 L 528 257.46 L 528 242.54 L 392.9360323753382 139.4782506130307 Z" style="stroke: none; stroke-width: 1; stroke-dasharray: none; stroke-linecap: butt; stroke-linejoin: miter; stroke-miterlimit: 10;fill:#6A924E;fill-opacity:1; fill-rule: nonzero; opacity: 1" transform="" stroke-linecap="round" /><path d="M 528 242.54 L 325.7491663775661 220.1786402299075 A 205 137 0 0 1 392.9360323753382 139.4782506130307 L 528 242.54 Z" style="stroke:#FFFFFF;stroke-opacity:1; stroke-opacity: 0.4; stroke-width: 2; stroke-dasharray: none; stroke-linecap: butt; stroke-linejoin: miter; stroke-miterlimit: 10;fill:#84B761;fill-opacity:1; fill-rule: nonzero; opacity: 1" transform="" stroke-linecap="round" /><path d="M 349.5 176.5 L 331.5 170.5 L 323.5 170.5" style="stroke:#000000;stroke-opacity:1; stroke-opacity: 0.3; stroke-width: 1; stroke-dasharray: none; stroke-linecap: butt; stroke-linejoin: miter; stroke-miterlimit: 10; fill: none; fill-rule: nonzero; opacity: 1" transform="" stroke-linecap="round" /><path d="M 528 257.46 L 528 120.46 A 205 137 0 0 1 606.1996130377415 384.10070610935685 L 528 257.46 Z" style="stroke: none; stroke-width: 1; stroke-dasharray: none; stroke-linecap: butt; stroke-linejoin: miter; stroke-miterlimit: 10;fill:#5292B0;fill-opacity:1; fill-rule: nonzero; opacity: 1" transform=" matrix(1 0 0 1 0 0) " stroke-linecap="round" /><path d="M 528 257.46 L 528 120.46 A 205 137 0 0 1 606.1996130377415 384.10070610935685 L 528 257.46 Z" style="stroke: none; stroke-width: 1; stroke-dasharray: none; stroke-linecap: butt; stroke-linejoin: miter; stroke-miterlimit: 10;fill:#5292B0;fill-opacity:1; fill-rule: nonzero; opacity: 1" transform=" matrix(1 0 0 1 0 -10) " stroke-linecap="round" /><path d="M 528 242.54 L 528 257.46 L 528 120.46 L 528 105.53999999999999 L 528 242.54 Z" style="stroke: none; stroke-width: 1; stroke-dasharray: none; stroke-linecap: butt; stroke-linejoin: miter; stroke-miterlimit: 10;fill:#5292B0;fill-opacity:1; fill-rule: nonzero; opacity: 1" transform="" stroke-linecap="round" /><path d="M 606.1996130377415 369.18070610935683 L 606.1996130377415 384.10070610935685 L 528 257.46 L 528 242.54 L 606.1996130377415 369.18070610935683 Z" style="stroke: none; stroke-width: 1; stroke-dasharray: none; stroke-linecap: butt; stroke-linejoin: miter; stroke-miterlimit: 10;fill:#5292B0;fill-opacity:1; fill-rule: nonzero; opacity: 1" transform="" stroke-linecap="round" /><path d="M 528 242.54 L 528 105.53999999999999 A 205 137 0 0 1 606.1996130377415 369.18070610935683 L 528 242.54 Z" style="stroke:#FFFFFF;stroke-opacity:1; stroke-opacity: 0.4; stroke-width: 2; stroke-dasharray: none; stroke-linecap: butt; stroke-linejoin: miter; stroke-miterlimit: 10;fill:#67B7DC;fill-opacity:1; fill-rule: nonzero; opacity: 1" transform="" stroke-linecap="round" /><path d="M 729.5 216.5 L 749.5 213.5 L 757.5 213.5" style="stroke:#000000;stroke-opacity:1; stroke-opacity: 0.3; stroke-width: 1; stroke-dasharray: none; stroke-linecap: butt; stroke-linejoin: miter; stroke-miterlimit: 10; fill: none; fill-rule: nonzero; opacity: 1" transform="" stroke-linecap="round" /><path d="M 528 257.46 L 606.1996130377415 384.10070610935685 A 205 137 0 0 1 325.7491663775661 235.0986402299075 L 528 257.46 Z" style="stroke: none; stroke-width: 1; stroke-dasharray: none; stroke-linecap: butt; stroke-linejoin: miter; stroke-miterlimit: 10;fill:#CAAA00;fill-opacity:1; fill-rule: nonzero; opacity: 1" transform=" matrix(1 0 0 1 0 0) " stroke-linecap="round" /><path d="M 528 257.46 L 606.1996130377415 384.10070610935685 A 205 137 0 0 1 325.7491663775661 235.0986402299075 L 528 257.46 Z" style="stroke: none; stroke-width: 1; stroke-dasharray: none; stroke-linecap: butt; stroke-linejoin: miter; stroke-miterlimit: 10;fill:#CAAA00;fill-opacity:1; fill-rule: nonzero; opacity: 1" transform=" matrix(1 0 0 1 0 -10) " stroke-linecap="round" /><path d="M 528 242.54 L 528 257.46 L 606.1996130377415 384.10070610935685 L 606.1996130377415 369.18070610935683 L 528 242.54 Z" style="stroke: none; stroke-width: 1; stroke-dasharray: none; stroke-linecap: butt; stroke-linejoin: miter; stroke-miterlimit: 10;fill:#CAAA00;fill-opacity:1; fill-rule: nonzero; opacity: 1" transform="" stroke-linecap="round" /><path d="M 325.7491663775661 220.1786402299075 L 325.7491663775661 235.0986402299075 L 528 257.46 L 528 242.54 L 325.7491663775661 220.1786402299075 Z" style="stroke: none; stroke-width: 1; stroke-dasharray: none; stroke-linecap: butt; stroke-linejoin: miter; stroke-miterlimit: 10;fill:#CAAA00;fill-opacity:1; fill-rule: nonzero; opacity: 1" transform="" stroke-linecap="round" /><path d="M 528 242.54 L 606.1996130377415 369.18070610935683 A 205 137 0 0 1 325.7491663775661 220.1786402299075 L 528 242.54 Z" style="stroke:#FFFFFF;stroke-opacity:1; stroke-opacity: 0.4; stroke-width: 2; stroke-dasharray: none; stroke-linecap: butt; stroke-linejoin: miter; stroke-miterlimit: 10;fill:#FDD400;fill-opacity:1; fill-rule: nonzero; opacity: 1" transform="" stroke-linecap="round" /><path d="M 400.5 350.5 L 388.5 360.5 L 380.5 360.5" style="stroke:#000000;stroke-opacity:1; stroke-opacity: 0.3; stroke-width: 1; stroke-dasharray: none; stroke-linecap: butt; stroke-linejoin: miter; stroke-miterlimit: 10; fill: none; fill-rule: nonzero; opacity: 1" transform="" stroke-linecap="round" /><g transform=" matrix(1 0 0 1 761 213) "><text xml:space="preserve" font-family="Verdana" font-size="11" font-weight="normal" style="stroke: none; stroke-width: 1; stroke-dasharray: none; stroke-linecap: butt; stroke-linejoin: miter; stroke-miterlimit: 10;fill:#000000;fill-opacity:1; fill-rule: nonzero; opacity: 1; white-space: pre" ><tspan x="0" y="7.48" fill="rgba(0,0,0,1)">Lithuania: 43.77%</tspan></text></g><g transform=" matrix(1 0 0 1 376 360) "><text xml:space="preserve" font-family="Verdana" font-size="11" font-weight="normal" style="stroke: none; stroke-width: 1; stroke-dasharray: none; stroke-linecap: butt; stroke-linejoin: miter; stroke-miterlimit: 10;fill:#000000;fill-opacity:1; fill-rule: nonzero; opacity: 1; white-space: pre" ><tspan x="-95" y="7.48" fill="rgba(0,0,0,1)">Ireland: 33.84%</tspan></text></g><g transform=" matrix(1 0 0 1 319 170) "><text xml:space="preserve" font-family="Verdana" font-size="11" font-weight="normal" style="stroke: none; stroke-width: 1; stroke-dasharray: none; stroke-linecap: butt; stroke-linejoin: miter; stroke-miterlimit: 10;fill:#000000;fill-opacity:1; fill-rule: nonzero; opacity: 1; white-space: pre" ><tspan x="-107" y="7.48" fill="rgba(0,0,0,1)">Germany: 10.94%</tspan></text></g><g transform=" matrix(1 0 0 1 405 112) "><text xml:space="preserve" font-family="Verdana" font-size="11" font-weight="normal" style="stroke: none; stroke-width: 1; stroke-dasharray: none; stroke-linecap: butt; stroke-linejoin: miter; stroke-miterlimit: 10;fill:#000000;fill-opacity:1; fill-rule: nonzero; opacity: 1; white-space: pre" ><tspan x="-97" y="7.48" fill="rgba(0,0,0,1)">Australia: 6.57%</tspan></text></g><g transform=" matrix(1 0 0 1 470 92) "><text xml:space="preserve" font-family="Verdana" font-size="11" font-weight="normal" style="stroke: none; stroke-width: 1; stroke-dasharray: none; stroke-linecap: butt; stroke-linejoin: miter; stroke-miterlimit: 10;fill:#000000;fill-opacity:1; fill-rule: nonzero; opacity: 1; white-space: pre" ><tspan x="-63" y="7.48" fill="rgba(0,0,0,1)">UK: 3.20%</tspan></text></g><g transform=" matrix(1 0 0 1 504 71) "><text xml:space="preserve" font-family="Verdana" font-size="11" font-weight="normal" style="stroke: none; stroke-width: 1; stroke-dasharray: none; stroke-linecap: butt; stroke-linejoin: miter; stroke-miterlimit: 10;fill:#000000;fill-opacity:1; fill-rule: nonzero; opacity: 1; white-space: pre" ><tspan x="-81" y="7.48" fill="rgba(0,0,0,1)">Latvia: 1.68%</tspan></text></g></g></svg>