<?xml version="1.0" encoding="UTF-8" standalone="no" ?><!DOCTYPE svg PUBLIC "-//W3C//DTD SVG 1.1//EN" "http://www.w3.org/Graphics/SVG/1.1/DTD/svg11.dtd"><svg xmlns="http://www.w3.org/2000/svg" xmlns:xlink="http://www.w3.org/1999/xlink" version="1.1" width="1056" height="500" viewBox="0 0 1056 500" xml:space="preserve"><desc>Created with Fabric.js 1.7.19</desc><defs></defs><rect x="0" y="0" width="1056" height="500" fill="#000000"></rect><g style="stroke: none; stroke-width: 1; stroke-dasharray: none; stroke-linecap: butt; stroke-linejoin: miter; stroke-miterlimit: 10; fill: none; fill-rule: nonzero; opacity: 1" transform="translate(0 0)" ><path d="M 0.5 0.5 L 849.5 0.5 L 849.5 499.5 L 0.5 499.5 Z" style="stroke:#000000;stroke-opacity:1; stroke-opacity: 0; stroke-width: 1; stroke-dasharray: none; stroke-linecap: butt; stroke-linejoin: miter; stroke-miterlimit: 10;fill:#282828;fill-opacity:1; fill-opacity: 0; fill-rule: nonzero; opacity: 1" transform="" stroke-linecap="round" /><path d="M 0.5 0.5 L 773.5 0.5 L 773.5 443.5 L 0.5 443.5 L 0.5 0.5 Z" style="stroke:#000000;stroke-opacity:1; stroke-opacity: 0; stroke-width: 1; stroke-dasharray: none; stroke-linecap: butt; stroke-linejoin: miter; stroke-miterlimit: 10;fill:#FFFFFF;fill-opacity:1; fill-opacity: 0; fill-rule: nonzero; opacity: 1" transform=" matrix(1 0 0 1 56 20) " stroke-linecap="round" /><path d="M 0.5 0.5 L 0.5 5.5" style="stroke:#FFFFFF;stroke-opacity:1; stroke-opacity: 0.5; stroke-width: 1; stroke-dasharray: none; stroke-linecap: butt; stroke-linejoin: miter; stroke-miterlimit: 10; fill: none; fill-rule: nonzero; opacity: 1" transform=" matrix(1 0 0 1 56 463) " stroke-linecap="round" /><path d="M 86.5 0.5 L 86.5 5.5" style="stroke:#FFFFFF;stroke-opacity:1; stroke-opacity: 0.5; stroke-width: 1; stroke-dasharray: none; stroke-linecap: butt; stroke-linejoin: miter; stroke-miterlimit: 10; fill: none; fill-rule: nonzero; opacity: 1" transform=" matrix(1 0 0 1 56 463) " stroke-linecap="round" /><path d="M 172.5 0.5 L 172.5 5.5" style="stroke:#FFFFFF;stroke-opacity:1; stroke-opacity: 0.5; stroke-width: 1; stroke-dasharray: none; stroke-linecap: butt; stroke-linejoin: miter; stroke-miterlimit: 10; fill: none; fill-rule: nonzero; opacity: 1" transform=" matrix(1 0 0 1 56 463) " stroke-linecap="round" /><path d="M 258.5 0.5 L 258.5 5.5" style="stroke:#FFFFFF;stroke-opacity:1; stroke-opacity: 0.5; stroke-width: 1; stroke-dasharray: none; stroke-linecap: butt; stroke-linejoin: miter; stroke-miterlimit: 10; fill: none; fill-rule: nonzero; opacity: 1" transform=" matrix(1 0 0 1 56 463) " stroke-linecap="round" /><path d="M 344.5 0.5 L 344.5 5.5" style="stroke:#FFFFFF;stroke-opacity:1; stroke-opacity: 0.5; stroke-width: 1; stroke-dasharray: none; stroke-linecap: butt; stroke-linejoin: miter; stroke-miterlimit: 10; fill: none; fill-rule: nonzero; opacity: 1" transform=" matrix(1 0 0 1 56 463) " stroke-linecap="round" /><path d="M 429.5 0.5 L 429.5 5.5" style="stroke:#FFFFFF;stroke-opacity:1; stroke-opacity: 0.5; stroke-width: 1; stroke-dasharray: none; stroke-linecap: butt; stroke-linejoin: miter; stroke-miterlimit: 10; fill: none; fill-rule: nonzero; opacity: 1" transform=" matrix(1 0 0 1 56 463) " stroke-linecap="round" /><path d="M 515.5 0.5 L 515.5 5.5" style="stroke:#FFFFFF;stroke-opacity:1; stroke-opacity: 0.5; stroke-width: 1; stroke-dasharray: none; stroke-linecap: butt; stroke-linejoin: miter; stroke-miterlimit: 10; fill: none; fill-rule: nonzero; opacity: 1" transform=" matrix(1 0 0 1 56 463) " stroke-linecap="round" /><path d="M 601.5 0.5 L 601.5 5.5" style="stroke:#FFFFFF;stroke-opacity:1; stroke-opacity: 0.5; stroke-width: 1; stroke-dasharray: none; stroke-linecap: butt; stroke-linejoin: miter; stroke-miterlimit: 10; fill: none; fill-rule: nonzero; opacity: 1" transform=" matrix(1 0 0 1 56 463) " stroke-linecap="round" /><path d="M 687.5 0.5 L 687.5 5.5" style="stroke:#FFFFFF;stroke-opacity:1; stroke-opacity: 0.5; stroke-width: 1; stroke-dasharray: none; stroke-linecap: butt; stroke-linejoin: miter; stroke-miterlimit: 10; fill: none; fill-rule: nonzero; opacity: 1" transform=" matrix(1 0 0 1 56 463) " stroke-linecap="round" /><path d="M 773.5 0.5 L 773.5 5.5" style="stroke:#FFFFFF;stroke-opacity:1; stroke-opacity: 0.5; stroke-width: 1; stroke-dasharray: none; stroke-linecap: butt; stroke-linejoin: miter; stroke-miterlimit: 10; fill: none; fill-rule: nonzero; opacity: 1" transform=" matrix(1 0 0 1 56 463) " stroke-linecap="round" /><path d="M 0.5 0.5 L 0.5 118.5 L 215.5 118.5 L 215.5 0.5 L 0.5 0.5 Z" style="stroke:#AE85C9;stroke-opacity:1; stroke-opacity: 0.3; stroke-width: 1; stroke-dasharray: none; stroke-linecap: butt; stroke-linejoin: miter; stroke-miterlimit: 10;fill:#AE85C9;fill-opacity:1; fill-opacity: 0.8; fill-rule: nonzero; opacity: 1" transform=" matrix(1 0 0 1 56 34) " stroke-linecap="round" /><path d="M 0.5 0.5 L 0.5 118.5 L 223.5 118.5 L 223.5 0.5 L 0.5 0.5 Z" style="stroke:#AE85C9;stroke-opacity:1; stroke-opacity: 0.3; stroke-width: 1; stroke-dasharray: none; stroke-linecap: butt; stroke-linejoin: miter; stroke-miterlimit: 10;fill:#AE85C9;fill-opacity:1; fill-opacity: 0.8; fill-rule: nonzero; opacity: 1" transform=" matrix(1 0 0 1 56 182) " stroke-linecap="round" /><path d="M 0.5 0.5 L 0.5 118.5 L 240.5 118.5 L 240.5 0.5 L 0.5 0.5 Z" style="stroke:#AE85C9;stroke-opacity:1; stroke-opacity: 0.3; stroke-width: 1; stroke-dasharray: none; stroke-linecap: butt; stroke-linejoin: miter; stroke-miterlimit: 10;fill:#AE85C9;fill-opacity:1; fill-opacity: 0.8; fill-rule: nonzero; opacity: 1" transform=" matrix(1 0 0 1 56 329) " stroke-linecap="round" /><path d="M 0.5 0.5 L 0.5 118.5 L 215.5 118.5 L 215.5 0.5 L 0.5 0.5 Z" style="stroke:#AAB9F7;stroke-opacity:1; stroke-opacity: 0.3; stroke-width: 1; stroke-dasharray: none; stroke-linecap: butt; stroke-linejoin: miter; stroke-miterlimit: 10;fill:#AAB9F7;fill-opacity:1; fill-opacity: 0.8; fill-rule: nonzero; opacity: 1" transform=" matrix(1 0 0 1 271 34) " stroke-linecap="round" /><path d="M 0.5 0.5 L 0.5 118.5 L 232.5 118.5 L 232.5 0.5 L 0.5 0.5 Z" style="stroke:#AAB9F7;stroke-opacity:1; stroke-opacity: 0.3; stroke-width: 1; stroke-dasharray: none; stroke-linecap: butt; stroke-linejoin: miter; stroke-miterlimit: 10;fill:#AAB9F7;fill-opacity:1; fill-opacity: 0.8; fill-rule: nonzero; opacity: 1" transform=" matrix(1 0 0 1 279 182) " stroke-linecap="round" /><path d="M 0.5 0.5 L 0.5 118.5 L 249.5 118.5 L 249.5 0.5 L 0.5 0.5 Z" style="stroke:#AAB9F7;stroke-opacity:1; stroke-opacity: 0.3; stroke-width: 1; stroke-dasharray: none; stroke-linecap: butt; stroke-linejoin: miter; stroke-miterlimit: 10;fill:#AAB9F7;fill-opacity:1; fill-opacity: 0.8; fill-rule: nonzero; opacity: 1" transform=" matrix(1 0 0 1 296 329) " stroke-linecap="round" /><path d="M 0.5 0.5 L 0.5 118.5 L 180.5 118.5 L 180.5 0.5 L 0.5 0.5 Z" style="stroke:#B6D2FF;stroke-opacity:1; stroke-opacity: 0.3; stroke-width: 1; stroke-dasharray: none; stroke-linecap: butt; stroke-linejoin: miter; stroke-miterlimit: 10;fill:#B6D2FF;fill-opacity:1; fill-opacity: 0.8; fill-rule: nonzero; opacity: 1" transform=" matrix(1 0 0 1 485 34) " stroke-linecap="round" /><path d="M 0.5 0.5 L 0.5 118.5 L 189.5 118.5 L 189.5 0.5 L 0.5 0.5 Z" style="stroke:#B6D2FF;stroke-opacity:1; stroke-opacity: 0.3; stroke-width: 1; stroke-dasharray: none; stroke-linecap: butt; stroke-linejoin: miter; stroke-miterlimit: 10;fill:#B6D2FF;fill-opacity:1; fill-opacity: 0.8; fill-rule: nonzero; opacity: 1" transform=" matrix(1 0 0 1 511 182) " stroke-linecap="round" /><path d="M 0.5 0.5 L 0.5 118.5 L 206.5 118.5 L 206.5 0.5 L 0.5 0.5 Z" style="stroke:#B6D2FF;stroke-opacity:1; stroke-opacity: 0.3; stroke-width: 1; stroke-dasharray: none; stroke-linecap: butt; stroke-linejoin: miter; stroke-miterlimit: 10;fill:#B6D2FF;fill-opacity:1; fill-opacity: 0.8; fill-rule: nonzero; opacity: 1" transform=" matrix(1 0 0 1 546 329) " stroke-linecap="round" /><path d="M 0.5 0.5 L 0.5 118.5 L 26.5 118.5 L 26.5 0.5 L 0.5 0.5 Z" style="stroke:#C9E6F2;stroke-opacity:1; stroke-opacity: 0.3; stroke-width: 1; stroke-dasharray: none; stroke-linecap: butt; stroke-linejoin: miter; stroke-miterlimit: 10;fill:#C9E6F2;fill-opacity:1; fill-opacity: 0.8; fill-rule: nonzero; opacity: 1" transform=" matrix(1 0 0 1 666 34) " stroke-linecap="round" /><path d="M 0.5 0.5 L 0.5 118.5 L 26.5 118.5 L 26.5 0.5 L 0.5 0.5 Z" style="stroke:#C9E6F2;stroke-opacity:1; stroke-opacity: 0.3; stroke-width: 1; stroke-dasharray: none; stroke-linecap: butt; stroke-linejoin: miter; stroke-miterlimit: 10;fill:#C9E6F2;fill-opacity:1; fill-opacity: 0.8; fill-rule: nonzero; opacity: 1" transform=" matrix(1 0 0 1 700 182) " stroke-linecap="round" /><path d="M 0.5 0.5 L 0.5 118.5 L 26.5 118.5 L 26.5 0.5 L 0.5 0.5 Z" style="stroke:#C9E6F2;stroke-opacity:1; stroke-opacity: 0.3; stroke-width: 1; stroke-dasharray: none; stroke-linecap: butt; stroke-linejoin: miter; stroke-miterlimit: 10;fill:#C9E6F2;fill-opacity:1; fill-opacity: 0.8; fill-rule: nonzero; opacity: 1" transform=" matrix(1 0 0 1 752 329) " stroke-linecap="round" /><path d="M 0.5 0.5 L 0.5 118.5 L 17.5 118.5 L 17.5 0.5 L 0.5 0.5 Z" style="stroke:#C9F0E1;stroke-opacity:1; stroke-opacity: 0.3; stroke-width: 1; stroke-dasharray: none; stroke-linecap: butt; stroke-linejoin: miter; stroke-miterlimit: 10;fill:#C9F0E1;fill-opacity:1; fill-opacity: 0.8; fill-rule: nonzero; opacity: 1" transform=" matrix(1 0 0 1 692 34) " stroke-linecap="round" /><path d="M 0.5 0.5 L 0.5 118.5 L 26.5 118.5 L 26.5 0.5 L 0.5 0.5 Z" style="stroke:#C9F0E1;stroke-opacity:1; stroke-opacity: 0.3; stroke-width: 1; stroke-dasharray: none; stroke-linecap: butt; stroke-linejoin: miter; stroke-miterlimit: 10;fill:#C9F0E1;fill-opacity:1; fill-opacity: 0.8; fill-rule: nonzero; opacity: 1" transform=" matrix(1 0 0 1 726 182) " stroke-linecap="round" /><path d="M 0.5 0.5 L 0.5 118.5 L 26.5 118.5 L 26.5 0.5 L 0.5 0.5 Z" style="stroke:#C9F0E1;stroke-opacity:1; stroke-opacity: 0.3; stroke-width: 1; stroke-dasharray: none; stroke-linecap: butt; stroke-linejoin: miter; stroke-miterlimit: 10;fill:#C9F0E1;fill-opacity:1; fill-opacity: 0.8; fill-rule: nonzero; opacity: 1" transform=" matrix(1 0 0 1 777 329) " stroke-linecap="round" /><path d="M 0.5 0.5 L 0.5 118.5 L 9.5 118.5 L 9.5 0.5 L 0.5 0.5 Z" style="stroke:#E8D685;stroke-opacity:1; stroke-opacity: 0.3; stroke-width: 1; stroke-dasharray: none; stroke-linecap: butt; stroke-linejoin: miter; stroke-miterlimit: 10;fill:#E8D685;fill-opacity:1; fill-opacity: 0.8; fill-rule: nonzero; opacity: 1" transform=" matrix(1 0 0 1 709 34) " stroke-linecap="round" /><path d="M 0.5 0.5 L 0.5 118.5 L 9.5 118.5 L 9.5 0.5 L 0.5 0.5 Z" style="stroke:#E8D685;stroke-opacity:1; stroke-opacity: 0.3; stroke-width: 1; stroke-dasharray: none; stroke-linecap: butt; stroke-linejoin: miter; stroke-miterlimit: 10;fill:#E8D685;fill-opacity:1; fill-opacity: 0.8; fill-rule: nonzero; opacity: 1" transform=" matrix(1 0 0 1 752 182) " stroke-linecap="round" /><path d="M 0.5 0.5 L 0.5 118.5 L 9.5 118.5 L 9.5 0.5 L 0.5 0.5 Z" style="stroke:#E8D685;stroke-opacity:1; stroke-opacity: 0.3; stroke-width: 1; stroke-dasharray: none; stroke-linecap: butt; stroke-linejoin: miter; stroke-miterlimit: 10;fill:#E8D685;fill-opacity:1; fill-opacity: 0.8; fill-rule: nonzero; opacity: 1" transform=" matrix(1 0 0 1 803 329) " stroke-linecap="round" /><path d="M 0.5 443.5 L 0.5 0.5 L 0.5 0.5" style="stroke:#FFFFFF;stroke-opacity:1; stroke-opacity: 0; stroke-width: 1; stroke-dasharray: 3 3; stroke-linecap: butt; stroke-linejoin: miter; stroke-miterlimit: 10; fill: none; fill-rule: nonzero; opacity: 1" transform=" matrix(1 0 0 1 56 20) " stroke-linecap="round" /><path d="M 0.5 0.5 L 0.5 443.5" style="stroke:#FFFFFF;stroke-opacity:1; stroke-opacity: 0; stroke-width: 1; stroke-dasharray: none; stroke-linecap: butt; stroke-linejoin: miter; stroke-miterlimit: 10; fill: none; fill-rule: nonzero; opacity: 1" transform=" matrix(1 0 0 1 56 20) " stroke-linecap="round" /><path d="M 0.5 0.5 L 773.5 0.5" style="stroke:#FFFFFF;stroke-opacity:1; stroke-opacity: 0.5; stroke-width: 1; stroke-dasharray: none; stroke-linecap: butt; stroke-linejoin: miter; stroke-miterlimit: 10; fill: none; fill-rule: nonzero; opacity: 1" transform=" matrix(1 0 0 1 56 463) " stroke-linecap="round" /><g transform=" matrix(1 0 0 1 163 92) "><text xml:space="preserve" font-family="Verdana" font-size="11" font-weight="normal" style="stroke: none; stroke-width: 1; stroke-dasharray: none; stroke-linecap: butt; stroke-linejoin: miter; stroke-miterlimit: 10;fill:#000000;fill-opacity:1; fill-rule: nonzero; opacity: 1; white-space: pre" ><tspan x="-9.5" y="7.48" fill="rgba(0,0,0,1)">2.5</tspan></text></g><g transform=" matrix(1 0 0 1 168 240) "><text xml:space="preserve" font-family="Verdana" font-size="11" font-weight="normal" style="stroke: none; stroke-width: 1; stroke-dasharray: none; stroke-linecap: butt; stroke-linejoin: miter; stroke-miterlimit: 10;fill:#000000;fill-opacity:1; fill-rule: nonzero; opacity: 1; white-space: pre" ><tspan x="-9.5" y="7.48" fill="rgba(0,0,0,1)">2.6</tspan></text></g><g transform=" matrix(1 0 0 1 176 387) "><text xml:space="preserve" font-family="Verdana" font-size="11" font-weight="normal" style="stroke: none; stroke-width: 1; stroke-dasharray: none; stroke-linecap: butt; stroke-linejoin: miter; stroke-miterlimit: 10;fill:#000000;fill-opacity:1; fill-rule: nonzero; opacity: 1; white-space: pre" ><tspan x="-9.5" y="7.48" fill="rgba(0,0,0,1)">2.8</tspan></text></g><g transform=" matrix(1 0 0 1 378 92) "><text xml:space="preserve" font-family="Verdana" font-size="11" font-weight="normal" style="stroke: none; stroke-width: 1; stroke-dasharray: none; stroke-linecap: butt; stroke-linejoin: miter; stroke-miterlimit: 10;fill:#000000;fill-opacity:1; fill-rule: nonzero; opacity: 1; white-space: pre" ><tspan x="-9.5" y="7.48" fill="rgba(0,0,0,1)">2.5</tspan></text></g><g transform=" matrix(1 0 0 1 395 240) "><text xml:space="preserve" font-family="Verdana" font-size="11" font-weight="normal" style="stroke: none; stroke-width: 1; stroke-dasharray: none; stroke-linecap: butt; stroke-linejoin: miter; stroke-miterlimit: 10;fill:#000000;fill-opacity:1; fill-rule: nonzero; opacity: 1; white-space: pre" ><tspan x="-9.5" y="7.48" fill="rgba(0,0,0,1)">2.7</tspan></text></g><g transform=" matrix(1 0 0 1 421 387) "><text xml:space="preserve" font-family="Verdana" font-size="11" font-weight="normal" style="stroke: none; stroke-width: 1; stroke-dasharray: none; stroke-linecap: butt; stroke-linejoin: miter; stroke-miterlimit: 10;fill:#000000;fill-opacity:1; fill-rule: nonzero; opacity: 1; white-space: pre" ><tspan x="-9.5" y="7.48" fill="rgba(0,0,0,1)">2.9</tspan></text></g><g transform=" matrix(1 0 0 1 575 92) "><text xml:space="preserve" font-family="Verdana" font-size="11" font-weight="normal" style="stroke: none; stroke-width: 1; stroke-dasharray: none; stroke-linecap: butt; stroke-linejoin: miter; stroke-miterlimit: 10;fill:#000000;fill-opacity:1; fill-rule: nonzero; opacity: 1; white-space: pre" ><tspan x="-9.5" y="7.48" fill="rgba(0,0,0,1)">2.1</tspan></text></g><g transform=" matrix(1 0 0 1 606 240) "><text xml:space="preserve" font-family="Verdana" font-size="11" font-weight="normal" style="stroke: none; stroke-width: 1; stroke-dasharray: none; stroke-linecap: butt; stroke-linejoin: miter; stroke-miterlimit: 10;fill:#000000;fill-opacity:1; fill-rule: nonzero; opacity: 1; white-space: pre" ><tspan x="-9.5" y="7.48" fill="rgba(0,0,0,1)">2.2</tspan></text></g><g transform=" matrix(1 0 0 1 649 387) "><text xml:space="preserve" font-family="Verdana" font-size="11" font-weight="normal" style="stroke: none; stroke-width: 1; stroke-dasharray: none; stroke-linecap: butt; stroke-linejoin: miter; stroke-miterlimit: 10;fill:#000000;fill-opacity:1; fill-rule: nonzero; opacity: 1; white-space: pre" ><tspan x="-9.5" y="7.48" fill="rgba(0,0,0,1)">2.4</tspan></text></g><g transform=" matrix(1 0 0 1 679 92) "><text xml:space="preserve" font-family="Verdana" font-size="11" font-weight="normal" style="stroke: none; stroke-width: 1; stroke-dasharray: none; stroke-linecap: butt; stroke-linejoin: miter; stroke-miterlimit: 10;fill:#000000;fill-opacity:1; fill-rule: nonzero; opacity: 1; white-space: pre" ><tspan x="-9.5" y="7.48" fill="rgba(0,0,0,1)">0.3</tspan></text></g><g transform=" matrix(1 0 0 1 713 240) "><text xml:space="preserve" font-family="Verdana" font-size="11" font-weight="normal" style="stroke: none; stroke-width: 1; stroke-dasharray: none; stroke-linecap: butt; stroke-linejoin: miter; stroke-miterlimit: 10;fill:#000000;fill-opacity:1; fill-rule: nonzero; opacity: 1; white-space: pre" ><tspan x="-9.5" y="7.48" fill="rgba(0,0,0,1)">0.3</tspan></text></g><g transform=" matrix(1 0 0 1 765 387) "><text xml:space="preserve" font-family="Verdana" font-size="11" font-weight="normal" style="stroke: none; stroke-width: 1; stroke-dasharray: none; stroke-linecap: butt; stroke-linejoin: miter; stroke-miterlimit: 10;fill:#000000;fill-opacity:1; fill-rule: nonzero; opacity: 1; white-space: pre" ><tspan x="-9.5" y="7.48" fill="rgba(0,0,0,1)">0.3</tspan></text></g><g transform=" matrix(1 0 0 1 739 240) "><text xml:space="preserve" font-family="Verdana" font-size="11" font-weight="normal" style="stroke: none; stroke-width: 1; stroke-dasharray: none; stroke-linecap: butt; stroke-linejoin: miter; stroke-miterlimit: 10;fill:#000000;fill-opacity:1; fill-rule: nonzero; opacity: 1; white-space: pre" ><tspan x="-9.5" y="7.48" fill="rgba(0,0,0,1)">0.3</tspan></text></g><g transform=" matrix(1 0 0 1 790 387) "><text xml:space="preserve" font-family="Verdana" font-size="11" font-weight="normal" style="stroke: none; stroke-width: 1; stroke-dasharray: none; stroke-linecap: butt; stroke-linejoin: miter; stroke-miterlimit: 10;fill:#000000;fill-opacity:1; fill-rule: nonzero; opacity: 1; white-space: pre" ><tspan x="-9.5" y="7.48" fill="rgba(0,0,0,1)">0.3</tspan></text></g><g transform=" matrix(1 0 0 1 44 91.83333333333333) "><text xml:space="preserve" font-family="Verdana" font-size="11" font-weight="normal" style="stroke: none; stroke-width: 1; stroke-dasharray: none; stroke-linecap: butt; stroke-linejoin: miter; stroke-miterlimit: 10;fill:#E7E7E7;fill-opacity:1; fill-rule: nonzero; opacity: 1; white-space: pre" ><tspan x="-29" y="7.48" fill="rgba(231,231,231,1)">2003</tspan></text></g><g transform=" matrix(1 0 0 1 44 239.83333333333331) "><text xml:space="preserve" font-family="Verdana" font-size="11" font-weight="normal" style="stroke: none; stroke-width: 1; stroke-dasharray: none; stroke-linecap: butt; stroke-linejoin: miter; stroke-miterlimit: 10;fill:#E7E7E7;fill-opacity:1; fill-rule: nonzero; opacity: 1; white-space: pre" ><tspan x="-29" y="7.48" fill="rgba(231,231,231,1)">2004</tspan></text></g><g transform=" matrix(1 0 0 1 44 386.8333333333333) "><text xml:space="preserve" font-family="Verdana" font-size="11" font-weight="normal" style="stroke: none; stroke-width: 1; stroke-dasharray: none; stroke-linecap: butt; stroke-linejoin: miter; stroke-miterlimit: 10;fill:#E7E7E7;fill-opacity:1; fill-rule: nonzero; opacity: 1; white-space: pre" ><tspan x="-29" y="7.48" fill="rgba(231,231,231,1)">2005</tspan></text></g><g transform=" matrix(1 0 0 1 56 480.5) "><text xml:space="preserve" font-family="Verdana" font-size="11" font-weight="normal" style="stroke: none; stroke-width: 1; stroke-dasharray: none; stroke-linecap: butt; stroke-linejoin: miter; stroke-miterlimit: 10;fill:#E7E7E7;fill-opacity:1; fill-rule: nonzero; opacity: 1; white-space: pre" ><tspan x="-4" y="7.48" fill="rgba(231,231,231,1)">0</tspan></text></g><g transform=" matrix(1 0 0 1 142 480.5) "><text xml:space="preserve" font-family="Verdana" font-size="11" font-weight="normal" style="stroke: none; stroke-width: 1; stroke-dasharray: none; stroke-linecap: butt; stroke-linejoin: miter; stroke-miterlimit: 10;fill:#E7E7E7;fill-opacity:1; fill-rule: nonzero; opacity: 1; white-space: pre" ><tspan x="-4" y="7.48" fill="rgba(231,231,231,1)">1</tspan></text></g><g transform=" matrix(1 0 0 1 228 480.5) "><text xml:space="preserve" font-family="Verdana" font-size="11" font-weight="normal" style="stroke: none; stroke-width: 1; stroke-dasharray: none; stroke-linecap: butt; stroke-linejoin: miter; stroke-miterlimit: 10;fill:#E7E7E7;fill-opacity:1; fill-rule: nonzero; opacity: 1; white-space: pre" ><tspan x="-4" y="7.48" fill="rgba(231,231,231,1)">2</tspan></text></g><g transform=" matrix(1 0 0 1 314 480.5) "><text xml:space="preserve" font-family="Verdana" font-size="11" font-weight="normal" style="stroke: none; stroke-width: 1; stroke-dasharray: none; stroke-linecap: butt; stroke-linejoin: miter; stroke-miterlimit: 10;fill:#E7E7E7;fill-opacity:1; fill-rule: nonzero; opacity: 1; white-space: pre" ><tspan x="-4" y="7.48" fill="rgba(231,231,231,1)">3</tspan></text></g><g transform=" matrix(1 0 0 1 400 480.5) "><text xml:space="preserve" font-family="Verdana" font-size="11" font-weight="normal" style="stroke: none; stroke-width: 1; stroke-dasharray: none; stroke-linecap: butt; stroke-linejoin: miter; stroke-miterlimit: 10;fill:#E7E7E7;fill-opacity:1; fill-rule: nonzero; opacity: 1; white-space: pre" ><tspan x="-4" y="7.48" fill="rgba(231,231,231,1)">4</tspan></text></g><g transform=" matrix(1 0 0 1 485 480.5) "><text xml:space="preserve" font-family="Verdana" font-size="11" font-weight="normal" style="stroke: none; stroke-width: 1; stroke-dasharray: none; stroke-linecap: butt; stroke-linejoin: miter; stroke-miterlimit: 10;fill:#E7E7E7;fill-opacity:1; fill-rule: nonzero; opacity: 1; white-space: pre" ><tspan x="-4" y="7.48" fill="rgba(231,231,231,1)">5</tspan></text></g><g transform=" matrix(1 0 0 1 571 480.5) "><text xml:space="preserve" font-family="Verdana" font-size="11" font-weight="normal" style="stroke: none; stroke-width: 1; stroke-dasharray: none; stroke-linecap: butt; stroke-linejoin: miter; stroke-miterlimit: 10;fill:#E7E7E7;fill-opacity:1; fill-rule: nonzero; opacity: 1; white-space: pre" ><tspan x="-4" y="7.48" fill="rgba(231,231,231,1)">6</tspan></text></g><g transform=" matrix(1 0 0 1 657 480.5) "><text xml:space="preserve" font-family="Verdana" font-size="11" font-weight="normal" style="stroke: none; stroke-width: 1; stroke-dasharray: none; stroke-linecap: butt; stroke-linejoin: miter; stroke-miterlimit: 10;fill:#E7E7E7;fill-opacity:1; fill-rule: nonzero; opacity: 1; white-space: pre" ><tspan x="-4" y="7.48" fill="rgba(231,231,231,1)">7</tspan></text></g><g transform=" matrix(1 0 0 1 743 480.5) "><text xml:space="preserve" font-family="Verdana" font-size="11" font-weight="normal" style="stroke: none; stroke-width: 1; stroke-dasharray: none; stroke-linecap: butt; stroke-linejoin: miter; stroke-miterlimit: 10;fill:#E7E7E7;fill-opacity:1; fill-rule: nonzero; opacity: 1; white-space: pre" ><tspan x="-4" y="7.48" fill="rgba(231,231,231,1)">8</tspan></text></g><g transform=" matrix(1 0 0 1 829 480.5) "><text xml:space="preserve" font-family="Verdana" font-size="11" font-weight="normal" style="stroke: none; stroke-width: 1; stroke-dasharray: none; stroke-linecap: butt; stroke-linejoin: miter; stroke-miterlimit: 10;fill:#E7E7E7;fill-opacity:1; fill-rule: nonzero; opacity: 1; white-space: pre" ><tspan x="-4" y="7.48" fill="rgba(231,231,231,1)">9</tspan></text></g></g><g style="stroke: none; stroke-width: 1; stroke-dasharray: none; stroke-linecap: butt; stroke-linejoin: miter; stroke-miterlimit: 10; fill: none; fill-rule: nonzero; opacity: 1" transform="translate(849.5 161)" ><path d="M 0.5 0.5 L 187.5 0.5 L 187.5 177.5 L 0.5 177.5 Z" style="stroke:#000000;stroke-opacity:1; stroke-opacity: 0; stroke-width: 1; stroke-dasharray: none; stroke-linecap: butt; stroke-linejoin: miter; stroke-miterlimit: 10;fill:#FFFFFF;fill-opacity:1; fill-opacity: 0; fill-rule: nonzero; opacity: 1" transform=" matrix(1 0 0 1 10 0) " stroke-linecap="round" /><path d="M -9.5 5.5 L 10.5 5.5 L 10.5 -4.5 L -9.5 -4.5 Z" style="stroke:#AE85C9;stroke-opacity:1; stroke-opacity: 0.3; stroke-width: 1; stroke-dasharray: none; stroke-linecap: butt; stroke-linejoin: miter; stroke-miterlimit: 10;fill:#AE85C9;fill-opacity:1; fill-opacity: 0.8; fill-rule: nonzero; opacity: 1" transform=" matrix(1 0 0 1 30 20) " stroke-linecap="round" /><g transform=" matrix(1 0 0 1 45 19) "><text xml:space="preserve" font-family="Verdana" font-size="11" font-weight="normal" style="stroke: none; stroke-width: 1; stroke-dasharray: none; stroke-linecap: butt; stroke-linejoin: miter; stroke-miterlimit: 10;fill:#E7E7E7;fill-opacity:1; fill-rule: nonzero; opacity: 1; white-space: pre" ><tspan x="0.5" y="7.48" fill="rgba(231,231,231,1)">Europe</tspan></text></g><g transform=" matrix(1 0 0 1 185 19) "><text xml:space="preserve" font-family="Verdana" font-size="11" font-weight="normal" style="stroke: none; stroke-width: 1; stroke-dasharray: none; stroke-linecap: butt; stroke-linejoin: miter; stroke-miterlimit: 10;fill:#E7E7E7;fill-opacity:1; fill-rule: nonzero; opacity: 1; white-space: pre" ><tspan x="-4.5" y="7.48" fill="rgba(231,231,231,1)"> </tspan></text></g><rect x="20" y="0" rx="0" ry="0" width="145" height="18" style="stroke: none; stroke-width: 0; stroke-dasharray: none; stroke-linecap: butt; stroke-linejoin: miter; stroke-miterlimit: 10;fill:#FFFFFF;fill-opacity:1; fill-opacity: 0.005; fill-rule: nonzero; opacity: 1" transform=" matrix(1 0 0 1 20 11) "/><path d="M -9.5 5.5 L 10.5 5.5 L 10.5 -4.5 L -9.5 -4.5 Z" style="stroke:#AAB9F7;stroke-opacity:1; stroke-opacity: 0.3; stroke-width: 1; stroke-dasharray: none; stroke-linecap: butt; stroke-linejoin: miter; stroke-miterlimit: 10;fill:#AAB9F7;fill-opacity:1; fill-opacity: 0.8; fill-rule: nonzero; opacity: 1" transform=" matrix(1 0 0 1 30 48) " stroke-linecap="round" /><g transform=" matrix(1 0 0 1 45 47) "><text xml:space="preserve" font-family="Verdana" font-size="11" font-weight="normal" style="stroke: none; stroke-width: 1; stroke-dasharray: none; stroke-linecap: butt; stroke-linejoin: miter; stroke-miterlimit: 10;fill:#E7E7E7;fill-opacity:1; fill-rule: nonzero; opacity: 1; white-space: pre" ><tspan x="0.5" y="7.48" fill="rgba(231,231,231,1)">North America</tspan></text></g><g transform=" matrix(1 0 0 1 185 47) "><text xml:space="preserve" font-family="Verdana" font-size="11" font-weight="normal" style="stroke: none; stroke-width: 1; stroke-dasharray: none; stroke-linecap: butt; stroke-linejoin: miter; stroke-miterlimit: 10;fill:#E7E7E7;fill-opacity:1; fill-rule: nonzero; opacity: 1; white-space: pre" ><tspan x="-4.5" y="7.48" fill="rgba(231,231,231,1)"> </tspan></text></g><rect x="20" y="0" rx="0" ry="0" width="145" height="18" style="stroke: none; stroke-width: 0; stroke-dasharray: none; stroke-linecap: butt; stroke-linejoin: miter; stroke-miterlimit: 10;fill:#FFFFFF;fill-opacity:1; fill-opacity: 0.005; fill-rule: nonzero; opacity: 1" transform=" matrix(1 0 0 1 20 39) "/><path d="M -9.5 5.5 L 10.5 5.5 L 10.5 -4.5 L -9.5 -4.5 Z" style="stroke:#B6D2FF;stroke-opacity:1; stroke-opacity: 0.3; stroke-width: 1; stroke-dasharray: none; stroke-linecap: butt; stroke-linejoin: miter; stroke-miterlimit: 10;fill:#B6D2FF;fill-opacity:1; fill-opacity: 0.8; fill-rule: nonzero; opacity: 1" transform=" matrix(1 0 0 1 30 76) " stroke-linecap="round" /><g transform=" matrix(1 0 0 1 45 75) "><text xml:space="preserve" font-family="Verdana" font-size="11" font-weight="normal" style="stroke: none; stroke-width: 1; stroke-dasharray: none; stroke-linecap: butt; stroke-linejoin: miter; stroke-miterlimit: 10;fill:#E7E7E7;fill-opacity:1; fill-rule: nonzero; opacity: 1; white-space: pre" ><tspan x="0.5" y="7.48" fill="rgba(231,231,231,1)">Asia-Pacific</tspan></text></g><g transform=" matrix(1 0 0 1 185 75) "><text xml:space="preserve" font-family="Verdana" font-size="11" font-weight="normal" style="stroke: none; stroke-width: 1; stroke-dasharray: none; stroke-linecap: butt; stroke-linejoin: miter; stroke-miterlimit: 10;fill:#E7E7E7;fill-opacity:1; fill-rule: nonzero; opacity: 1; white-space: pre" ><tspan x="-4.5" y="7.48" fill="rgba(231,231,231,1)"> </tspan></text></g><rect x="20" y="0" rx="0" ry="0" width="145" height="18" style="stroke: none; stroke-width: 0; stroke-dasharray: none; stroke-linecap: butt; stroke-linejoin: miter; stroke-miterlimit: 10;fill:#FFFFFF;fill-opacity:1; fill-opacity: 0.005; fill-rule: nonzero; opacity: 1" transform=" matrix(1 0 0 1 20 67) "/><path d="M -9.5 5.5 L 10.5 5.5 L 10.5 -4.5 L -9.5 -4.5 Z" style="stroke:#C9E6F2;stroke-opacity:1; stroke-opacity: 0.3; stroke-width: 1; stroke-dasharray: none; stroke-linecap: butt; stroke-linejoin: miter; stroke-miterlimit: 10;fill:#C9E6F2;fill-opacity:1; fill-opacity: 0.8; fill-rule: nonzero; opacity: 1" transform=" matrix(1 0 0 1 30 104) " stroke-linecap="round" /><g transform=" matrix(1 0 0 1 45 103) "><text xml:space="preserve" font-family="Verdana" font-size="11" font-weight="normal" style="stroke: none; stroke-width: 1; stroke-dasharray: none; stroke-linecap: butt; stroke-linejoin: miter; stroke-miterlimit: 10;fill:#E7E7E7;fill-opacity:1; fill-rule: nonzero; opacity: 1; white-space: pre" ><tspan x="0.5" y="7.48" fill="rgba(231,231,231,1)">Latin America</tspan></text></g><g transform=" matrix(1 0 0 1 185 103) "><text xml:space="preserve" font-family="Verdana" font-size="11" font-weight="normal" style="stroke: none; stroke-width: 1; stroke-dasharray: none; stroke-linecap: butt; stroke-linejoin: miter; stroke-miterlimit: 10;fill:#E7E7E7;fill-opacity:1; fill-rule: nonzero; opacity: 1; white-space: pre" ><tspan x="-4.5" y="7.48" fill="rgba(231,231,231,1)"> </tspan></text></g><rect x="20" y="0" rx="0" ry="0" width="145" height="18" style="stroke: none; stroke-width: 0; stroke-dasharray: none; stroke-linecap: butt; stroke-linejoin: miter; stroke-miterlimit: 10;fill:#FFFFFF;fill-opacity:1; fill-opacity: 0.005; fill-rule: nonzero; opacity: 1" transform=" matrix(1 0 0 1 20 95) "/><path d="M -9.5 5.5 L 10.5 5.5 L 10.5 -4.5 L -9.5 -4.5 Z" style="stroke:#C9F0E1;stroke-opacity:1; stroke-opacity: 0.3; stroke-width: 1; stroke-dasharray: none; stroke-linecap: butt; stroke-linejoin: miter; stroke-miterlimit: 10;fill:#C9F0E1;fill-opacity:1; fill-opacity: 0.8; fill-rule: nonzero; opacity: 1" transform=" matrix(1 0 0 1 30 132) " stroke-linecap="round" /><g transform=" matrix(1 0 0 1 45 131) "><text xml:space="preserve" font-family="Verdana" font-size="11" font-weight="normal" style="stroke: none; stroke-width: 1; stroke-dasharray: none; stroke-linecap: butt; stroke-linejoin: miter; stroke-miterlimit: 10;fill:#E7E7E7;fill-opacity:1; fill-rule: nonzero; opacity: 1; white-space: pre" ><tspan x="0.5" y="7.48" fill="rgba(231,231,231,1)">Middle-East</tspan></text></g><g transform=" matrix(1 0 0 1 185 131) "><text xml:space="preserve" font-family="Verdana" font-size="11" font-weight="normal" style="stroke: none; stroke-width: 1; stroke-dasharray: none; stroke-linecap: butt; stroke-linejoin: miter; stroke-miterlimit: 10;fill:#E7E7E7;fill-opacity:1; fill-rule: nonzero; opacity: 1; white-space: pre" ><tspan x="-4.5" y="7.48" fill="rgba(231,231,231,1)"> </tspan></text></g><rect x="20" y="0" rx="0" ry="0" width="145" height="18" style="stroke: none; stroke-width: 0; stroke-dasharray: none; stroke-linecap: butt; stroke-linejoin: miter; stroke-miterlimit: 10;fill:#FFFFFF;fill-opacity:1; fill-opacity: 0.005; fill-rule: nonzero; opacity: 1" transform=" matrix(1 0 0 1 20 123) "/><path d="M -9.5 5.5 L 10.5 5.5 L 10.5 -4.5 L -9.5 -4.5 Z" style="stroke:#E8D685;stroke-opacity:1; stroke-opacity: 0.3; stroke-width: 1; stroke-dasharray: none; stroke-linecap: butt; stroke-linejoin: miter; stroke-miterlimit: 10;fill:#E8D685;fill-opacity:1; fill-opacity: 0.8; fill-rule: nonzero; opacity: 1" transform=" matrix(1 0 0 1 30 160) " stroke-linecap="round" /><g transform=" matrix(1 0 0 1 45 159) "><text xml:space="preserve" font-family="Verdana" font-size="11" font-weight="normal" style="stroke: none; stroke-width: 1; stroke-dasharray: none; stroke-linecap: butt; stroke-linejoin: miter; stroke-miterlimit: 10;fill:#E7E7E7;fill-opacity:1; fill-rule: nonzero; opacity: 1; white-space: pre" ><tspan x="0.5" y="7.48" fill="rgba(231,231,231,1)">Africa</tspan></text></g><g transform=" matrix(1 0 0 1 185 159) "><text xml:space="preserve" font-family="Verdana" font-size="11" font-weight="normal" style="stroke: none; stroke-width: 1; stroke-dasharray: none; stroke-linecap: butt; stroke-linejoin: miter; stroke-miterlimit: 10;fill:#E7E7E7;fill-opacity:1; fill-rule: nonzero; opacity: 1; white-space: pre" ><tspan x="-4.5" y="7.48" fill="rgba(231,231,231,1)"> </tspan></text></g><rect x="20" y="0" rx="0" ry="0" width="145" height="18" style="stroke: none; stroke-width: 0; stroke-dasharray: none; stroke-linecap: butt; stroke-linejoin: miter; stroke-miterlimit: 10;fill:#FFFFFF;fill-opacity:1; fill-opacity: 0.005; fill-rule: nonzero; opacity: 1" transform=" matrix(1 0 0 1 20 151) "/></g></svg>
