<?xml version="1.0" encoding="UTF-8" standalone="no" ?><!DOCTYPE svg PUBLIC "-//W3C//DTD SVG 1.1//EN" "http://www.w3.org/Graphics/SVG/1.1/DTD/svg11.dtd"><svg xmlns="http://www.w3.org/2000/svg" xmlns:xlink="http://www.w3.org/1999/xlink" version="1.1" width="1056" height="500" viewBox="0 0 1056 500" xml:space="preserve"><desc>Created with Fabric.js 1.7.19</desc><defs></defs><rect x="0" y="0" width="1056" height="500" fill="#FFFFFF"></rect><g style="stroke: none; stroke-width: 1; stroke-dasharray: none; stroke-linecap: butt; stroke-linejoin: miter; stroke-miterlimit: 10; fill: none; fill-rule: nonzero; opacity: 1" transform="translate(0 0)" ><path d="M 0.5 0.5 L 1055.5 0.5 L 1055.5 451.5 L 0.5 451.5 Z" style="stroke:#000000;stroke-opacity:1; stroke-opacity: 0; stroke-width: 1; stroke-dasharray: none; stroke-linecap: butt; stroke-linejoin: miter; stroke-miterlimit: 10;fill:#FFFFFF;fill-opacity:1; fill-opacity: 0; fill-rule: nonzero; opacity: 1" transform="" stroke-linecap="round" /><path d="M 0.5 0.5 L 961.5 0.5 L 961.5 360.5 L 0.5 360.5 L 0.5 0.5 Z" style="stroke:#000000;stroke-opacity:1; stroke-opacity: 0; stroke-width: 1; stroke-dasharray: none; stroke-linecap: butt; stroke-linejoin: miter; stroke-miterlimit: 10;fill:#FFFFFF;fill-opacity:1; fill-opacity: 0; fill-rule: nonzero; opacity: 1" transform=" matrix(1 0 0 1 74 55) " stroke-linecap="round" /><path d="M 0.5 0.5 L 0.5 5.5" style="stroke:#DADADA;stroke-opacity:1; stroke-width: 1; stroke-dasharray: none; stroke-linecap: butt; stroke-linejoin: miter; stroke-miterlimit: 10; fill: none; fill-rule: nonzero; opacity: 1" transform=" matrix(1 0 0 1 74 415) " stroke-linecap="round" /><path d="M 0.5 360.5 L 0.5 360.5 L 0.5 0.5" style="stroke:#000000;stroke-opacity:1; stroke-opacity: 0.07; stroke-width: 1; stroke-dasharray: none; stroke-linecap: butt; stroke-linejoin: miter; stroke-miterlimit: 10; fill: none; fill-rule: nonzero; opacity: 1" transform=" matrix(1 0 0 1 74 55) " stroke-linecap="round" /><path d="M 53.5 0.5 L 53.5 5.5" style="stroke:#DADADA;stroke-opacity:1; stroke-width: 1; stroke-dasharray: none; stroke-linecap: butt; stroke-linejoin: miter; stroke-miterlimit: 10; fill: none; fill-rule: nonzero; opacity: 1" transform=" matrix(1 0 0 1 74 415) " stroke-linecap="round" /><path d="M 53.5 360.5 L 53.5 360.5 L 53.5 0.5" style="stroke:#000000;stroke-opacity:1; stroke-opacity: 0.07; stroke-width: 1; stroke-dasharray: none; stroke-linecap: butt; stroke-linejoin: miter; stroke-miterlimit: 10; fill: none; fill-rule: nonzero; opacity: 1" transform=" matrix(1 0 0 1 74 55) " stroke-linecap="round" /><path d="M 107.5 0.5 L 107.5 5.5" style="stroke:#DADADA;stroke-opacity:1; stroke-width: 1; stroke-dasharray: none; stroke-linecap: butt; stroke-linejoin: miter; stroke-miterlimit: 10; fill: none; fill-rule: nonzero; opacity: 1" transform=" matrix(1 0 0 1 74 415) " stroke-linecap="round" /><path d="M 107.5 360.5 L 107.5 360.5 L 107.5 0.5" style="stroke:#000000;stroke-opacity:1; stroke-opacity: 0.07; stroke-width: 1; stroke-dasharray: none; stroke-linecap: butt; stroke-linejoin: miter; stroke-miterlimit: 10; fill: none; fill-rule: nonzero; opacity: 1" transform=" matrix(1 0 0 1 74 55) " stroke-linecap="round" /><path d="M 160.5 0.5 L 160.5 5.5" style="stroke:#DADADA;stroke-opacity:1; stroke-width: 1; stroke-dasharray: none; stroke-linecap: butt; stroke-linejoin: miter; stroke-miterlimit: 10; fill: none; fill-rule: nonzero; opacity: 1" transform=" matrix(1 0 0 1 74 415) " stroke-linecap="round" /><path d="M 160.5 360.5 L 160.5 360.5 L 160.5 0.5" style="stroke:#000000;stroke-opacity:1; stroke-opacity: 0.07; stroke-width: 1; stroke-dasharray: none; stroke-linecap: butt; stroke-linejoin: miter; stroke-miterlimit: 10; fill: none; fill-rule: nonzero; opacity: 1" transform=" matrix(1 0 0 1 74 55) " stroke-linecap="round" /><path d="M 214.5 0.5 L 214.5 5.5" style="stroke:#DADADA;stroke-opacity:1; stroke-width: 1; stroke-dasharray: none; stroke-linecap: butt; stroke-linejoin: miter; stroke-miterlimit: 10; fill: none; fill-rule: nonzero; opacity: 1" transform=" matrix(1 0 0 1 74 415) " stroke-linecap="round" /><path d="M 214.5 360.5 L 214.5 360.5 L 214.5 0.5" style="stroke:#000000;stroke-opacity:1; stroke-opacity: 0.07; stroke-width: 1; stroke-dasharray: none; stroke-linecap: butt; stroke-linejoin: miter; stroke-miterlimit: 10; fill: none; fill-rule: nonzero; opacity: 1" transform=" matrix(1 0 0 1 74 55) " stroke-linecap="round" /><path d="M 267.5 0.5 L 267.5 5.5" style="stroke:#DADADA;stroke-opacity:1; stroke-width: 1; stroke-dasharray: none; stroke-linecap: butt; stroke-linejoin: miter; stroke-miterlimit: 10; fill: none; fill-rule: nonzero; opacity: 1" transform=" matrix(1 0 0 1 74 415) " stroke-linecap="round" /><path d="M 267.5 360.5 L 267.5 360.5 L 267.5 0.5" style="stroke:#000000;stroke-opacity:1; stroke-opacity: 0.07; stroke-width: 1; stroke-dasharray: none; stroke-linecap: butt; stroke-linejoin: miter; stroke-miterlimit: 10; fill: none; fill-rule: nonzero; opacity: 1" transform=" matrix(1 0 0 1 74 55) " stroke-linecap="round" /><path d="M 320.5 0.5 L 320.5 5.5" style="stroke:#DADADA;stroke-opacity:1; stroke-width: 1; stroke-dasharray: none; stroke-linecap: butt; stroke-linejoin: miter; stroke-miterlimit: 10; fill: none; fill-rule: nonzero; opacity: 1" transform=" matrix(1 0 0 1 74 415) " stroke-linecap="round" /><path d="M 320.5 360.5 L 320.5 360.5 L 320.5 0.5" style="stroke:#000000;stroke-opacity:1; stroke-opacity: 0.07; stroke-width: 1; stroke-dasharray: none; stroke-linecap: butt; stroke-linejoin: miter; stroke-miterlimit: 10; fill: none; fill-rule: nonzero; opacity: 1" transform=" matrix(1 0 0 1 74 55) " stroke-linecap="round" /><path d="M 374.5 0.5 L 374.5 5.5" style="stroke:#DADADA;stroke-opacity:1; stroke-width: 1; stroke-dasharray: none; stroke-linecap: butt; stroke-linejoin: miter; stroke-miterlimit: 10; fill: none; fill-rule: nonzero; opacity: 1" transform=" matrix(1 0 0 1 74 415) " stroke-linecap="round" /><path d="M 374.5 360.5 L 374.5 360.5 L 374.5 0.5" style="stroke:#000000;stroke-opacity:1; stroke-opacity: 0.07; stroke-width: 1; stroke-dasharray: none; stroke-linecap: butt; stroke-linejoin: miter; stroke-miterlimit: 10; fill: none; fill-rule: nonzero; opacity: 1" transform=" matrix(1 0 0 1 74 55) " stroke-linecap="round" /><path d="M 427.5 0.5 L 427.5 5.5" style="stroke:#DADADA;stroke-opacity:1; stroke-width: 1; stroke-dasharray: none; stroke-linecap: butt; stroke-linejoin: miter; stroke-miterlimit: 10; fill: none; fill-rule: nonzero; opacity: 1" transform=" matrix(1 0 0 1 74 415) " stroke-linecap="round" /><path d="M 427.5 360.5 L 427.5 360.5 L 427.5 0.5" style="stroke:#000000;stroke-opacity:1; stroke-opacity: 0.07; stroke-width: 1; stroke-dasharray: none; stroke-linecap: butt; stroke-linejoin: miter; stroke-miterlimit: 10; fill: none; fill-rule: nonzero; opacity: 1" transform=" matrix(1 0 0 1 74 55) " stroke-linecap="round" /><path d="M 481.5 0.5 L 481.5 5.5" style="stroke:#DADADA;stroke-opacity:1; stroke-width: 1; stroke-dasharray: none; stroke-linecap: butt; stroke-linejoin: miter; stroke-miterlimit: 10; fill: none; fill-rule: nonzero; opacity: 1" transform=" matrix(1 0 0 1 74 415) " stroke-linecap="round" /><path d="M 481.5 360.5 L 481.5 360.5 L 481.5 0.5" style="stroke:#000000;stroke-opacity:1; stroke-opacity: 0.07; stroke-width: 1; stroke-dasharray: none; stroke-linecap: butt; stroke-linejoin: miter; stroke-miterlimit: 10; fill: none; fill-rule: nonzero; opacity: 1" transform=" matrix(1 0 0 1 74 55) " stroke-linecap="round" /><path d="M 534.5 0.5 L 534.5 5.5" style="stroke:#DADADA;stroke-opacity:1; stroke-width: 1; stroke-dasharray: none; stroke-linecap: butt; stroke-linejoin: miter; stroke-miterlimit: 10; fill: none; fill-rule: nonzero; opacity: 1" transform=" matrix(1 0 0 1 74 415) " stroke-linecap="round" /><path d="M 534.5 360.5 L 534.5 360.5 L 534.5 0.5" style="stroke:#000000;stroke-opacity:1; stroke-opacity: 0.07; stroke-width: 1; stroke-dasharray: none; stroke-linecap: butt; stroke-linejoin: miter; stroke-miterlimit: 10; fill: none; fill-rule: nonzero; opacity: 1" transform=" matrix(1 0 0 1 74 55) " stroke-linecap="round" /><path d="M 587.5 0.5 L 587.5 5.5" style="stroke:#DADADA;stroke-opacity:1; stroke-width: 1; stroke-dasharray: none; stroke-linecap: butt; stroke-linejoin: miter; stroke-miterlimit: 10; fill: none; fill-rule: nonzero; opacity: 1" transform=" matrix(1 0 0 1 74 415) " stroke-linecap="round" /><path d="M 587.5 360.5 L 587.5 360.5 L 587.5 0.5" style="stroke:#000000;stroke-opacity:1; stroke-opacity: 0.07; stroke-width: 1; stroke-dasharray: none; stroke-linecap: butt; stroke-linejoin: miter; stroke-miterlimit: 10; fill: none; fill-rule: nonzero; opacity: 1" transform=" matrix(1 0 0 1 74 55) " stroke-linecap="round" /><path d="M 641.5 0.5 L 641.5 5.5" style="stroke:#DADADA;stroke-opacity:1; stroke-width: 1; stroke-dasharray: none; stroke-linecap: butt; stroke-linejoin: miter; stroke-miterlimit: 10; fill: none; fill-rule: nonzero; opacity: 1" transform=" matrix(1 0 0 1 74 415) " stroke-linecap="round" /><path d="M 641.5 360.5 L 641.5 360.5 L 641.5 0.5" style="stroke:#000000;stroke-opacity:1; stroke-opacity: 0.07; stroke-width: 1; stroke-dasharray: none; stroke-linecap: butt; stroke-linejoin: miter; stroke-miterlimit: 10; fill: none; fill-rule: nonzero; opacity: 1" transform=" matrix(1 0 0 1 74 55) " stroke-linecap="round" /><path d="M 694.5 0.5 L 694.5 5.5" style="stroke:#DADADA;stroke-opacity:1; stroke-width: 1; stroke-dasharray: none; stroke-linecap: butt; stroke-linejoin: miter; stroke-miterlimit: 10; fill: none; fill-rule: nonzero; opacity: 1" transform=" matrix(1 0 0 1 74 415) " stroke-linecap="round" /><path d="M 694.5 360.5 L 694.5 360.5 L 694.5 0.5" style="stroke:#000000;stroke-opacity:1; stroke-opacity: 0.07; stroke-width: 1; stroke-dasharray: none; stroke-linecap: butt; stroke-linejoin: miter; stroke-miterlimit: 10; fill: none; fill-rule: nonzero; opacity: 1" transform=" matrix(1 0 0 1 74 55) " stroke-linecap="round" /><path d="M 747.5 0.5 L 747.5 5.5" style="stroke:#DADADA;stroke-opacity:1; stroke-width: 1; stroke-dasharray: none; stroke-linecap: butt; stroke-linejoin: miter; stroke-miterlimit: 10; fill: none; fill-rule: nonzero; opacity: 1" transform=" matrix(1 0 0 1 74 415) " stroke-linecap="round" /><path d="M 747.5 360.5 L 747.5 360.5 L 747.5 0.5" style="stroke:#000000;stroke-opacity:1; stroke-opacity: 0.07; stroke-width: 1; stroke-dasharray: none; stroke-linecap: butt; stroke-linejoin: miter; stroke-miterlimit: 10; fill: none; fill-rule: nonzero; opacity: 1" transform=" matrix(1 0 0 1 74 55) " stroke-linecap="round" /><path d="M 801.5 0.5 L 801.5 5.5" style="stroke:#DADADA;stroke-opacity:1; stroke-width: 1; stroke-dasharray: none; stroke-linecap: butt; stroke-linejoin: miter; stroke-miterlimit: 10; fill: none; fill-rule: nonzero; opacity: 1" transform=" matrix(1 0 0 1 74 415) " stroke-linecap="round" /><path d="M 801.5 360.5 L 801.5 360.5 L 801.5 0.5" style="stroke:#000000;stroke-opacity:1; stroke-opacity: 0.07; stroke-width: 1; stroke-dasharray: none; stroke-linecap: butt; stroke-linejoin: miter; stroke-miterlimit: 10; fill: none; fill-rule: nonzero; opacity: 1" transform=" matrix(1 0 0 1 74 55) " stroke-linecap="round" /><path d="M 854.5 0.5 L 854.5 5.5" style="stroke:#DADADA;stroke-opacity:1; stroke-width: 1; stroke-dasharray: none; stroke-linecap: butt; stroke-linejoin: miter; stroke-miterlimit: 10; fill: none; fill-rule: nonzero; opacity: 1" transform=" matrix(1 0 0 1 74 415) " stroke-linecap="round" /><path d="M 854.5 360.5 L 854.5 360.5 L 854.5 0.5" style="stroke:#000000;stroke-opacity:1; stroke-opacity: 0.07; stroke-width: 1; stroke-dasharray: none; stroke-linecap: butt; stroke-linejoin: miter; stroke-miterlimit: 10; fill: none; fill-rule: nonzero; opacity: 1" transform=" matrix(1 0 0 1 74 55) " stroke-linecap="round" /><path d="M 908.5 0.5 L 908.5 5.5" style="stroke:#DADADA;stroke-opacity:1; stroke-width: 1; stroke-dasharray: none; stroke-linecap: butt; stroke-linejoin: miter; stroke-miterlimit: 10; fill: none; fill-rule: nonzero; opacity: 1" transform=" matrix(1 0 0 1 74 415) " stroke-linecap="round" /><path d="M 908.5 360.5 L 908.5 360.5 L 908.5 0.5" style="stroke:#000000;stroke-opacity:1; stroke-opacity: 0.07; stroke-width: 1; stroke-dasharray: none; stroke-linecap: butt; stroke-linejoin: miter; stroke-miterlimit: 10; fill: none; fill-rule: nonzero; opacity: 1" transform=" matrix(1 0 0 1 74 55) " stroke-linecap="round" /><path d="M 961.5 0.5 L 961.5 5.5" style="stroke:#DADADA;stroke-opacity:1; stroke-width: 1; stroke-dasharray: none; stroke-linecap: butt; stroke-linejoin: miter; stroke-miterlimit: 10; fill: none; fill-rule: nonzero; opacity: 1" transform=" matrix(1 0 0 1 74 415) " stroke-linecap="round" /><path d="M 961.5 360.5 L 961.5 360.5 L 961.5 0.5" style="stroke:#000000;stroke-opacity:1; stroke-opacity: 0.07; stroke-width: 1; stroke-dasharray: none; stroke-linecap: butt; stroke-linejoin: miter; stroke-miterlimit: 10; fill: none; fill-rule: nonzero; opacity: 1" transform=" matrix(1 0 0 1 74 55) " stroke-linecap="round" /><path d="M 0.5 360.5 L 6.5 360.5" style="stroke:#000000;stroke-opacity:1; stroke-width: 1; stroke-dasharray: none; stroke-linecap: butt; stroke-linejoin: miter; stroke-miterlimit: 10; fill: none; fill-rule: nonzero; opacity: 1" transform=" matrix(1 0 0 1 68 55) " stroke-linecap="round" /><path d="M 0.5 360.5 L 0.5 360.5 L 961.5 360.5" style="stroke:#000000;stroke-opacity:1; stroke-opacity: 0.07; stroke-width: 1; stroke-dasharray: none; stroke-linecap: butt; stroke-linejoin: miter; stroke-miterlimit: 10; fill: none; fill-rule: nonzero; opacity: 1" transform=" matrix(1 0 0 1 74 55) " stroke-linecap="round" /><path d="M 0.5 324.5 L 6.5 324.5" style="stroke:#000000;stroke-opacity:1; stroke-width: 1; stroke-dasharray: none; stroke-linecap: butt; stroke-linejoin: miter; stroke-miterlimit: 10; fill: none; fill-rule: nonzero; opacity: 1" transform=" matrix(1 0 0 1 68 55) " stroke-linecap="round" /><path d="M 0.5 324.5 L 0.5 324.5 L 961.5 324.5" style="stroke:#000000;stroke-opacity:1; stroke-opacity: 0.07; stroke-width: 1; stroke-dasharray: none; stroke-linecap: butt; stroke-linejoin: miter; stroke-miterlimit: 10; fill: none; fill-rule: nonzero; opacity: 1" transform=" matrix(1 0 0 1 74 55) " stroke-linecap="round" /><path d="M 0.5 288.5 L 6.5 288.5" style="stroke:#000000;stroke-opacity:1; stroke-width: 1; stroke-dasharray: none; stroke-linecap: butt; stroke-linejoin: miter; stroke-miterlimit: 10; fill: none; fill-rule: nonzero; opacity: 1" transform=" matrix(1 0 0 1 68 55) " stroke-linecap="round" /><path d="M 0.5 288.5 L 0.5 288.5 L 961.5 288.5" style="stroke:#000000;stroke-opacity:1; stroke-opacity: 0.07; stroke-width: 1; stroke-dasharray: none; stroke-linecap: butt; stroke-linejoin: miter; stroke-miterlimit: 10; fill: none; fill-rule: nonzero; opacity: 1" transform=" matrix(1 0 0 1 74 55) " stroke-linecap="round" /><path d="M 0.5 252.5 L 6.5 252.5" style="stroke:#000000;stroke-opacity:1; stroke-width: 1; stroke-dasharray: none; stroke-linecap: butt; stroke-linejoin: miter; stroke-miterlimit: 10; fill: none; fill-rule: nonzero; opacity: 1" transform=" matrix(1 0 0 1 68 55) " stroke-linecap="round" /><path d="M 0.5 252.5 L 0.5 252.5 L 961.5 252.5" style="stroke:#000000;stroke-opacity:1; stroke-opacity: 0.07; stroke-width: 1; stroke-dasharray: none; stroke-linecap: butt; stroke-linejoin: miter; stroke-miterlimit: 10; fill: none; fill-rule: nonzero; opacity: 1" transform=" matrix(1 0 0 1 74 55) " stroke-linecap="round" /><path d="M 0.5 216.5 L 6.5 216.5" style="stroke:#000000;stroke-opacity:1; stroke-width: 1; stroke-dasharray: none; stroke-linecap: butt; stroke-linejoin: miter; stroke-miterlimit: 10; fill: none; fill-rule: nonzero; opacity: 1" transform=" matrix(1 0 0 1 68 55) " stroke-linecap="round" /><path d="M 0.5 216.5 L 0.5 216.5 L 961.5 216.5" style="stroke:#000000;stroke-opacity:1; stroke-opacity: 0.07; stroke-width: 1; stroke-dasharray: none; stroke-linecap: butt; stroke-linejoin: miter; stroke-miterlimit: 10; fill: none; fill-rule: nonzero; opacity: 1" transform=" matrix(1 0 0 1 74 55) " stroke-linecap="round" /><path d="M 0.5 180.5 L 6.5 180.5" style="stroke:#000000;stroke-opacity:1; stroke-width: 1; stroke-dasharray: none; stroke-linecap: butt; stroke-linejoin: miter; stroke-miterlimit: 10; fill: none; fill-rule: nonzero; opacity: 1" transform=" matrix(1 0 0 1 68 55) " stroke-linecap="round" /><path d="M 0.5 180.5 L 0.5 180.5 L 961.5 180.5" style="stroke:#000000;stroke-opacity:1; stroke-opacity: 0.07; stroke-width: 1; stroke-dasharray: none; stroke-linecap: butt; stroke-linejoin: miter; stroke-miterlimit: 10; fill: none; fill-rule: nonzero; opacity: 1" transform=" matrix(1 0 0 1 74 55) " stroke-linecap="round" /><path d="M 0.5 144.5 L 6.5 144.5" style="stroke:#000000;stroke-opacity:1; stroke-width: 1; stroke-dasharray: none; stroke-linecap: butt; stroke-linejoin: miter; stroke-miterlimit: 10; fill: none; fill-rule: nonzero; opacity: 1" transform=" matrix(1 0 0 1 68 55) " stroke-linecap="round" /><path d="M 0.5 144.5 L 0.5 144.5 L 961.5 144.5" style="stroke:#000000;stroke-opacity:1; stroke-opacity: 0.07; stroke-width: 1; stroke-dasharray: none; stroke-linecap: butt; stroke-linejoin: miter; stroke-miterlimit: 10; fill: none; fill-rule: nonzero; opacity: 1" transform=" matrix(1 0 0 1 74 55) " stroke-linecap="round" /><path d="M 0.5 108.5 L 6.5 108.5" style="stroke:#000000;stroke-opacity:1; stroke-width: 1; stroke-dasharray: none; stroke-linecap: butt; stroke-linejoin: miter; stroke-miterlimit: 10; fill: none; fill-rule: nonzero; opacity: 1" transform=" matrix(1 0 0 1 68 55) " stroke-linecap="round" /><path d="M 0.5 108.5 L 0.5 108.5 L 961.5 108.5" style="stroke:#000000;stroke-opacity:1; stroke-opacity: 0.07; stroke-width: 1; stroke-dasharray: none; stroke-linecap: butt; stroke-linejoin: miter; stroke-miterlimit: 10; fill: none; fill-rule: nonzero; opacity: 1" transform=" matrix(1 0 0 1 74 55) " stroke-linecap="round" /><path d="M 0.5 72.5 L 6.5 72.5" style="stroke:#000000;stroke-opacity:1; stroke-width: 1; stroke-dasharray: none; stroke-linecap: butt; stroke-linejoin: miter; stroke-miterlimit: 10; fill: none; fill-rule: nonzero; opacity: 1" transform=" matrix(1 0 0 1 68 55) " stroke-linecap="round" /><path d="M 0.5 72.5 L 0.5 72.5 L 961.5 72.5" style="stroke:#000000;stroke-opacity:1; stroke-opacity: 0.07; stroke-width: 1; stroke-dasharray: none; stroke-linecap: butt; stroke-linejoin: miter; stroke-miterlimit: 10; fill: none; fill-rule: nonzero; opacity: 1" transform=" matrix(1 0 0 1 74 55) " stroke-linecap="round" /><path d="M 0.5 36.5 L 6.5 36.5" style="stroke:#000000;stroke-opacity:1; stroke-width: 1; stroke-dasharray: none; stroke-linecap: butt; stroke-linejoin: miter; stroke-miterlimit: 10; fill: none; fill-rule: nonzero; opacity: 1" transform=" matrix(1 0 0 1 68 55) " stroke-linecap="round" /><path d="M 0.5 36.5 L 0.5 36.5 L 961.5 36.5" style="stroke:#000000;stroke-opacity:1; stroke-opacity: 0.07; stroke-width: 1; stroke-dasharray: none; stroke-linecap: butt; stroke-linejoin: miter; stroke-miterlimit: 10; fill: none; fill-rule: nonzero; opacity: 1" transform=" matrix(1 0 0 1 74 55) " stroke-linecap="round" /><path d="M 0.5 0.5 L 6.5 0.5" style="stroke:#000000;stroke-opacity:1; stroke-width: 1; stroke-dasharray: none; stroke-linecap: butt; stroke-linejoin: miter; stroke-miterlimit: 10; fill: none; fill-rule: nonzero; opacity: 1" transform=" matrix(1 0 0 1 68 55) " stroke-linecap="round" /><path d="M 0.5 0.5 L 0.5 0.5 L 961.5 0.5" style="stroke:#000000;stroke-opacity:1; stroke-opacity: 0.07; stroke-width: 1; stroke-dasharray: none; stroke-linecap: butt; stroke-linejoin: miter; stroke-miterlimit: 10; fill: none; fill-rule: nonzero; opacity: 1" transform=" matrix(1 0 0 1 74 55) " stroke-linecap="round" /><path d="M 0.5 118.20992 L 53.5 125.0576 L 107.5 122.51145 L 160.5 115.89808 L 214.5 117.96753 L 267.5 119.40171 L 320.5 120.83071 L 374.5 135.7381 L 427.5 135.05796 L 481.5 134.75264 L 534.5 136.32822 L 587.5 134.59208 L 641.5 133.20142 L 694.5 75.27516 L 747.5 75.58152 L 801.5 76.6157 L 854.5 70.95643 L 908.5 86.78866 L 961.5 83.63205 M 0 0 L 0 0" style="stroke:#FF6600;stroke-opacity:1; stroke-opacity: 0.5; stroke-width: 1; stroke-dasharray: none; stroke-linecap: butt; stroke-linejoin: round; stroke-miterlimit: 10; fill: none; fill-rule: nonzero; opacity: 1" transform=" matrix(1 0 0 1 74 55) " stroke-linecap="round"  clip-path="url(#AmChartsEl-56)" /><path d="M 0.5 118.20992 L 53.5 125.0576 L 107.5 122.51145 L 160.5 115.89808 L 214.5 117.96753 L 267.5 119.40171 L 320.5 120.83071 L 374.5 135.7381 L 427.5 135.05796 L 481.5 134.75264 L 534.5 136.32822 L 587.5 134.59208 L 641.5 133.20142 L 694.5 75.27516 L 747.5 75.58152 L 801.5 76.6157 L 854.5 70.95643 L 908.5 86.78866 L 961.5 83.63205 L 961.5 360.5 L 908.5 360.5 L 854.5 360.5 L 801.5 360.5 L 747.5 360.5 L 694.5 360.5 L 641.5 360.5 L 587.5 360.5 L 534.5 360.5 L 481.5 360.5 L 427.5 360.5 L 374.5 360.5 L 320.5 360.5 L 267.5 360.5 L 214.5 360.5 L 160.5 360.5 L 107.5 360.5 L 53.5 360.5 L 0.5 360.5 Z" style="stroke:#000000;stroke-opacity:1; stroke-opacity: 0; stroke-width: 1; stroke-dasharray: none; stroke-linecap: butt; stroke-linejoin: miter; stroke-miterlimit: 10;fill:#FF6600;fill-opacity:1; fill-opacity: 0.5; fill-rule: nonzero; opacity: 1" transform=" matrix(1 0 0 1 74 55) " stroke-linecap="round"  clip-path="url(#AmChartsEl-56)" /><path d="M 0.5 18.97328 L 53.5 22.43656 L 107.5 20.81071 L 160.5 19.55794 L 214.5 15.84091 L 267.5 16.114800000000002 L 320.5 16.37402 L 374.5 17.98918 L 427.5 17.65128 L 481.5 17.34952 L 534.5 19.08896 L 587.5 16.70279 L 641.5 15.4763 L 694.5 21.3137 L 747.5 18.84239 L 801.5 22.31818 L 854.5 20.91494 L 908.5 20.68041 L 961.5 17.46085 M 0 0 L 0 0" style="stroke:#FCD202;stroke-opacity:1; stroke-opacity: 0.5; stroke-width: 1; stroke-dasharray: none; stroke-linecap: butt; stroke-linejoin: round; stroke-miterlimit: 10; fill: none; fill-rule: nonzero; opacity: 1" transform=" matrix(1 0 0 1 74 55) " stroke-linecap="round"  clip-path="url(#AmChartsEl-57)" /><path d="M 0.5 18.97328 L 53.5 22.43656 L 107.5 20.81071 L 160.5 19.55794 L 214.5 15.84091 L 267.5 16.114800000000002 L 320.5 16.37402 L 374.5 17.98918 L 427.5 17.65128 L 481.5 17.34952 L 534.5 19.08896 L 587.5 16.70279 L 641.5 15.4763 L 694.5 21.3137 L 747.5 18.84239 L 801.5 22.31818 L 854.5 20.91494 L 908.5 20.68041 L 961.5 17.46085 L 961.5 83.63205 L 908.5 86.78866 L 854.5 70.95643 L 801.5 76.6157 L 747.5 75.58152 L 694.5 75.27516 L 641.5 133.20142 L 587.5 134.59208 L 534.5 136.32822 L 481.5 134.75264 L 427.5 135.05796 L 374.5 135.7381 L 320.5 120.83071 L 267.5 119.40171 L 214.5 117.96753 L 160.5 115.89808 L 107.5 122.51145 L 53.5 125.0576 L 0.5 118.20992 Z" style="stroke:#000000;stroke-opacity:1; stroke-opacity: 0; stroke-width: 1; stroke-dasharray: none; stroke-linecap: butt; stroke-linejoin: miter; stroke-miterlimit: 10;fill:#FCD202;fill-opacity:1; fill-opacity: 0.5; fill-rule: nonzero; opacity: 1" transform=" matrix(1 0 0 1 74 55) " stroke-linecap="round"  clip-path="url(#AmChartsEl-57)" /><path d="M 0.5 0.5 L 53.5 0.5 L 107.5 0.5 L 160.5 0.5 L 214.5 0.5 L 267.5 0.5 L 320.5 0.5 L 374.5 0.5 L 427.5 0.5 L 481.5 0.5 L 534.5 0.5 L 587.5 0.5 L 641.5 0.5 L 694.5 0.5 L 747.5 0.5 L 801.5 0.5 L 854.5 0.5 L 908.5 0.5 L 961.5 0.5 M 0 0 L 0 0" style="stroke:#B0DE09;stroke-opacity:1; stroke-opacity: 0.5; stroke-width: 1; stroke-dasharray: none; stroke-linecap: butt; stroke-linejoin: round; stroke-miterlimit: 10; fill: none; fill-rule: nonzero; opacity: 1" transform=" matrix(1 0 0 1 74 55) " stroke-linecap="round"  clip-path="url(#AmChartsEl-58)" /><path d="M 0.5 0.5 L 53.5 0.5 L 107.5 0.5 L 160.5 0.5 L 214.5 0.5 L 267.5 0.5 L 320.5 0.5 L 374.5 0.5 L 427.5 0.5 L 481.5 0.5 L 534.5 0.5 L 587.5 0.5 L 641.5 0.5 L 694.5 0.5 L 747.5 0.5 L 801.5 0.5 L 854.5 0.5 L 908.5 0.5 L 961.5 0.5 L 961.5 17.46085 L 908.5 20.68041 L 854.5 20.91494 L 801.5 22.31818 L 747.5 18.84239 L 694.5 21.3137 L 641.5 15.4763 L 587.5 16.70279 L 534.5 19.08896 L 481.5 17.34952 L 427.5 17.65128 L 374.5 17.98918 L 320.5 16.37402 L 267.5 16.114800000000002 L 214.5 15.84091 L 160.5 19.55794 L 107.5 20.81071 L 53.5 22.43656 L 0.5 18.97328 Z" style="stroke:#000000;stroke-opacity:1; stroke-opacity: 0; stroke-width: 1; stroke-dasharray: none; stroke-linecap: butt; stroke-linejoin: miter; stroke-miterlimit: 10;fill:#B0DE09;fill-opacity:1; fill-opacity: 0.5; fill-rule: nonzero; opacity: 1" transform=" matrix(1 0 0 1 74 55) " stroke-linecap="round"  clip-path="url(#AmChartsEl-58)" /><path d="M 0.5 360.5 L 961.5 360.5 L 961.5 360.5" style="stroke:#000000;stroke-opacity:1; stroke-opacity: 0.14; stroke-width: 1; stroke-dasharray: none; stroke-linecap: butt; stroke-linejoin: miter; stroke-miterlimit: 10; fill: none; fill-rule: nonzero; opacity: 1" transform=" matrix(1 0 0 1 74 55) " stroke-linecap="round" /><path d="M 0.5 0.5 L 961.5 0.5" style="stroke:#DADADA;stroke-opacity:1; stroke-width: 1; stroke-dasharray: none; stroke-linecap: butt; stroke-linejoin: miter; stroke-miterlimit: 10; fill: none; fill-rule: nonzero; opacity: 1" transform=" matrix(1 0 0 1 74 415) " stroke-linecap="round" /><path d="M 0.5 0.5 L 0.5 360.5" style="stroke:#000000;stroke-opacity:1; stroke-width: 1; stroke-dasharray: none; stroke-linecap: butt; stroke-linejoin: miter; stroke-miterlimit: 10; fill: none; fill-rule: nonzero; opacity: 1" transform=" matrix(1 0 0 1 74 55) " stroke-linecap="round" /><g  clip-path="url(#AmChartsEl-55)" ><path d="M 0.5 0.5 L 0.5 0.5 L 0.5 360.5" style="stroke:#CC0000;stroke-opacity:1; stroke-opacity: 0; stroke-width: 1; stroke-dasharray: none; stroke-linecap: butt; stroke-linejoin: miter; stroke-miterlimit: 10; fill: none; fill-rule: nonzero; opacity: 0" transform=" matrix(1 0 0 1 74 55) " stroke-linecap="round" /></g><g  clip-path="url(#AmChartsEl-55)" ><path d="M 0.5 0.5 L 961.5 0.5 L 961.5 0.5" style="stroke:#CC0000;stroke-opacity:1; stroke-opacity: 0; stroke-width: 1; stroke-dasharray: none; stroke-linecap: butt; stroke-linejoin: miter; stroke-miterlimit: 10; fill: none; fill-rule: nonzero; opacity: 0" transform=" matrix(1 0 0 1 74 55) " stroke-linecap="round" /></g><g transform=" matrix(1 0 0 1 555 20) "><text xml:space="preserve" font-family="Verdana" font-size="15" font-weight="bold" style="stroke: none; stroke-width: 1; stroke-dasharray: none; stroke-linecap: butt; stroke-linejoin: miter; stroke-miterlimit: 10;fill:#000000;fill-opacity:1; fill-rule: nonzero; opacity: 1; white-space: pre" ><tspan x="-101.5" y="10.2" fill="rgba(0,0,0,1)">Traffic incidents per year</tspan></text></g><g transform=" matrix(1 0 0 1 74 432.5) "><text xml:space="preserve" font-family="Verdana" font-size="11" font-weight="normal" style="stroke: none; stroke-width: 1; stroke-dasharray: none; stroke-linecap: butt; stroke-linejoin: miter; stroke-miterlimit: 10;fill:#000000;fill-opacity:1; fill-rule: nonzero; opacity: 1; white-space: pre" ><tspan x="-14.5" y="7.48" fill="rgba(0,0,0,1)">2000</tspan></text></g><g transform=" matrix(1 0 0 1 127 432.5) "><text xml:space="preserve" font-family="Verdana" font-size="11" font-weight="normal" style="stroke: none; stroke-width: 1; stroke-dasharray: none; stroke-linecap: butt; stroke-linejoin: miter; stroke-miterlimit: 10;fill:#000000;fill-opacity:1; fill-rule: nonzero; opacity: 1; white-space: pre" ><tspan x="-14.5" y="7.48" fill="rgba(0,0,0,1)">1995</tspan></text></g><g transform=" matrix(1 0 0 1 181 432.5) "><text xml:space="preserve" font-family="Verdana" font-size="11" font-weight="normal" style="stroke: none; stroke-width: 1; stroke-dasharray: none; stroke-linecap: butt; stroke-linejoin: miter; stroke-miterlimit: 10;fill:#000000;fill-opacity:1; fill-rule: nonzero; opacity: 1; white-space: pre" ><tspan x="-14.5" y="7.48" fill="rgba(0,0,0,1)">1996</tspan></text></g><g transform=" matrix(1 0 0 1 234 432.5) "><text xml:space="preserve" font-family="Verdana" font-size="11" font-weight="normal" style="stroke: none; stroke-width: 1; stroke-dasharray: none; stroke-linecap: butt; stroke-linejoin: miter; stroke-miterlimit: 10;fill:#000000;fill-opacity:1; fill-rule: nonzero; opacity: 1; white-space: pre" ><tspan x="-14.5" y="7.48" fill="rgba(0,0,0,1)">1997</tspan></text></g><g transform=" matrix(1 0 0 1 288 432.5) "><text xml:space="preserve" font-family="Verdana" font-size="11" font-weight="normal" style="stroke: none; stroke-width: 1; stroke-dasharray: none; stroke-linecap: butt; stroke-linejoin: miter; stroke-miterlimit: 10;fill:#000000;fill-opacity:1; fill-rule: nonzero; opacity: 1; white-space: pre" ><tspan x="-14.5" y="7.48" fill="rgba(0,0,0,1)">1998</tspan></text></g><g transform=" matrix(1 0 0 1 341 432.5) "><text xml:space="preserve" font-family="Verdana" font-size="11" font-weight="normal" style="stroke: none; stroke-width: 1; stroke-dasharray: none; stroke-linecap: butt; stroke-linejoin: miter; stroke-miterlimit: 10;fill:#000000;fill-opacity:1; fill-rule: nonzero; opacity: 1; white-space: pre" ><tspan x="-14.5" y="7.48" fill="rgba(0,0,0,1)">1999</tspan></text></g><g transform=" matrix(1 0 0 1 394 432.5) "><text xml:space="preserve" font-family="Verdana" font-size="11" font-weight="normal" style="stroke: none; stroke-width: 1; stroke-dasharray: none; stroke-linecap: butt; stroke-linejoin: miter; stroke-miterlimit: 10;fill:#000000;fill-opacity:1; fill-rule: nonzero; opacity: 1; white-space: pre" ><tspan x="-14.5" y="7.48" fill="rgba(0,0,0,1)">2000</tspan></text></g><g transform=" matrix(1 0 0 1 448 432.5) "><text xml:space="preserve" font-family="Verdana" font-size="11" font-weight="normal" style="stroke: none; stroke-width: 1; stroke-dasharray: none; stroke-linecap: butt; stroke-linejoin: miter; stroke-miterlimit: 10;fill:#000000;fill-opacity:1; fill-rule: nonzero; opacity: 1; white-space: pre" ><tspan x="-14.5" y="7.48" fill="rgba(0,0,0,1)">2001</tspan></text></g><g transform=" matrix(1 0 0 1 501 432.5) "><text xml:space="preserve" font-family="Verdana" font-size="11" font-weight="normal" style="stroke: none; stroke-width: 1; stroke-dasharray: none; stroke-linecap: butt; stroke-linejoin: miter; stroke-miterlimit: 10;fill:#000000;fill-opacity:1; fill-rule: nonzero; opacity: 1; white-space: pre" ><tspan x="-14.5" y="7.48" fill="rgba(0,0,0,1)">2002</tspan></text></g><g transform=" matrix(1 0 0 1 555 432.5) "><text xml:space="preserve" font-family="Verdana" font-size="11" font-weight="normal" style="stroke: none; stroke-width: 1; stroke-dasharray: none; stroke-linecap: butt; stroke-linejoin: miter; stroke-miterlimit: 10;fill:#000000;fill-opacity:1; fill-rule: nonzero; opacity: 1; white-space: pre" ><tspan x="-14.5" y="7.48" fill="rgba(0,0,0,1)">2003</tspan></text></g><g transform=" matrix(1 0 0 1 608 432.5) "><text xml:space="preserve" font-family="Verdana" font-size="11" font-weight="normal" style="stroke: none; stroke-width: 1; stroke-dasharray: none; stroke-linecap: butt; stroke-linejoin: miter; stroke-miterlimit: 10;fill:#000000;fill-opacity:1; fill-rule: nonzero; opacity: 1; white-space: pre" ><tspan x="-14.5" y="7.48" fill="rgba(0,0,0,1)">2004</tspan></text></g><g transform=" matrix(1 0 0 1 661 432.5) "><text xml:space="preserve" font-family="Verdana" font-size="11" font-weight="normal" style="stroke: none; stroke-width: 1; stroke-dasharray: none; stroke-linecap: butt; stroke-linejoin: miter; stroke-miterlimit: 10;fill:#000000;fill-opacity:1; fill-rule: nonzero; opacity: 1; white-space: pre" ><tspan x="-14.5" y="7.48" fill="rgba(0,0,0,1)">2005</tspan></text></g><g transform=" matrix(1 0 0 1 715 432.5) "><text xml:space="preserve" font-family="Verdana" font-size="11" font-weight="normal" style="stroke: none; stroke-width: 1; stroke-dasharray: none; stroke-linecap: butt; stroke-linejoin: miter; stroke-miterlimit: 10;fill:#000000;fill-opacity:1; fill-rule: nonzero; opacity: 1; white-space: pre" ><tspan x="-14.5" y="7.48" fill="rgba(0,0,0,1)">2006</tspan></text></g><g transform=" matrix(1 0 0 1 768 432.5) "><text xml:space="preserve" font-family="Verdana" font-size="11" font-weight="normal" style="stroke: none; stroke-width: 1; stroke-dasharray: none; stroke-linecap: butt; stroke-linejoin: miter; stroke-miterlimit: 10;fill:#000000;fill-opacity:1; fill-rule: nonzero; opacity: 1; white-space: pre" ><tspan x="-14.5" y="7.48" fill="rgba(0,0,0,1)">2007</tspan></text></g><g transform=" matrix(1 0 0 1 821 432.5) "><text xml:space="preserve" font-family="Verdana" font-size="11" font-weight="normal" style="stroke: none; stroke-width: 1; stroke-dasharray: none; stroke-linecap: butt; stroke-linejoin: miter; stroke-miterlimit: 10;fill:#000000;fill-opacity:1; fill-rule: nonzero; opacity: 1; white-space: pre" ><tspan x="-14.5" y="7.48" fill="rgba(0,0,0,1)">2008</tspan></text></g><g transform=" matrix(1 0 0 1 875 432.5) "><text xml:space="preserve" font-family="Verdana" font-size="11" font-weight="normal" style="stroke: none; stroke-width: 1; stroke-dasharray: none; stroke-linecap: butt; stroke-linejoin: miter; stroke-miterlimit: 10;fill:#000000;fill-opacity:1; fill-rule: nonzero; opacity: 1; white-space: pre" ><tspan x="-14.5" y="7.48" fill="rgba(0,0,0,1)">2009</tspan></text></g><g transform=" matrix(1 0 0 1 928 432.5) "><text xml:space="preserve" font-family="Verdana" font-size="11" font-weight="normal" style="stroke: none; stroke-width: 1; stroke-dasharray: none; stroke-linecap: butt; stroke-linejoin: miter; stroke-miterlimit: 10;fill:#000000;fill-opacity:1; fill-rule: nonzero; opacity: 1; white-space: pre" ><tspan x="-14.5" y="7.48" fill="rgba(0,0,0,1)">2010</tspan></text></g><g transform=" matrix(1 0 0 1 982 432.5) "><text xml:space="preserve" font-family="Verdana" font-size="11" font-weight="normal" style="stroke: none; stroke-width: 1; stroke-dasharray: none; stroke-linecap: butt; stroke-linejoin: miter; stroke-miterlimit: 10;fill:#000000;fill-opacity:1; fill-rule: nonzero; opacity: 1; white-space: pre" ><tspan x="-14.5" y="7.48" fill="rgba(0,0,0,1)">2011</tspan></text></g><g transform=" matrix(1 0 0 1 1035 432.5) "><text xml:space="preserve" font-family="Verdana" font-size="11" font-weight="normal" style="stroke: none; stroke-width: 1; stroke-dasharray: none; stroke-linecap: butt; stroke-linejoin: miter; stroke-miterlimit: 10;fill:#000000;fill-opacity:1; fill-rule: nonzero; opacity: 1; white-space: pre" ><tspan x="-14.5" y="7.48" fill="rgba(0,0,0,1)">2012</tspan></text></g><g transform=" matrix(1 0 0 1 62 413) "><text xml:space="preserve" font-family="Verdana" font-size="11" font-weight="normal" style="stroke: none; stroke-width: 1; stroke-dasharray: none; stroke-linecap: butt; stroke-linejoin: miter; stroke-miterlimit: 10;fill:#000000;fill-opacity:1; fill-rule: nonzero; opacity: 1; white-space: pre" ><tspan x="-8" y="7.48" fill="rgba(0,0,0,1)">0</tspan></text></g><g transform=" matrix(1 0 0 1 62 377) "><text xml:space="preserve" font-family="Verdana" font-size="11" font-weight="normal" style="stroke: none; stroke-width: 1; stroke-dasharray: none; stroke-linecap: butt; stroke-linejoin: miter; stroke-miterlimit: 10;fill:#000000;fill-opacity:1; fill-rule: nonzero; opacity: 1; white-space: pre" ><tspan x="-15" y="7.48" fill="rgba(0,0,0,1)">10</tspan></text></g><g transform=" matrix(1 0 0 1 62 341) "><text xml:space="preserve" font-family="Verdana" font-size="11" font-weight="normal" style="stroke: none; stroke-width: 1; stroke-dasharray: none; stroke-linecap: butt; stroke-linejoin: miter; stroke-miterlimit: 10;fill:#000000;fill-opacity:1; fill-rule: nonzero; opacity: 1; white-space: pre" ><tspan x="-15" y="7.48" fill="rgba(0,0,0,1)">20</tspan></text></g><g transform=" matrix(1 0 0 1 62 305) "><text xml:space="preserve" font-family="Verdana" font-size="11" font-weight="normal" style="stroke: none; stroke-width: 1; stroke-dasharray: none; stroke-linecap: butt; stroke-linejoin: miter; stroke-miterlimit: 10;fill:#000000;fill-opacity:1; fill-rule: nonzero; opacity: 1; white-space: pre" ><tspan x="-15" y="7.48" fill="rgba(0,0,0,1)">30</tspan></text></g><g transform=" matrix(1 0 0 1 62 269) "><text xml:space="preserve" font-family="Verdana" font-size="11" font-weight="normal" style="stroke: none; stroke-width: 1; stroke-dasharray: none; stroke-linecap: butt; stroke-linejoin: miter; stroke-miterlimit: 10;fill:#000000;fill-opacity:1; fill-rule: nonzero; opacity: 1; white-space: pre" ><tspan x="-15" y="7.48" fill="rgba(0,0,0,1)">40</tspan></text></g><g transform=" matrix(1 0 0 1 62 233) "><text xml:space="preserve" font-family="Verdana" font-size="11" font-weight="normal" style="stroke: none; stroke-width: 1; stroke-dasharray: none; stroke-linecap: butt; stroke-linejoin: miter; stroke-miterlimit: 10;fill:#000000;fill-opacity:1; fill-rule: nonzero; opacity: 1; white-space: pre" ><tspan x="-15" y="7.48" fill="rgba(0,0,0,1)">50</tspan></text></g><g transform=" matrix(1 0 0 1 62 197) "><text xml:space="preserve" font-family="Verdana" font-size="11" font-weight="normal" style="stroke: none; stroke-width: 1; stroke-dasharray: none; stroke-linecap: butt; stroke-linejoin: miter; stroke-miterlimit: 10;fill:#000000;fill-opacity:1; fill-rule: nonzero; opacity: 1; white-space: pre" ><tspan x="-15" y="7.48" fill="rgba(0,0,0,1)">60</tspan></text></g><g transform=" matrix(1 0 0 1 62 161) "><text xml:space="preserve" font-family="Verdana" font-size="11" font-weight="normal" style="stroke: none; stroke-width: 1; stroke-dasharray: none; stroke-linecap: butt; stroke-linejoin: miter; stroke-miterlimit: 10;fill:#000000;fill-opacity:1; fill-rule: nonzero; opacity: 1; white-space: pre" ><tspan x="-15" y="7.48" fill="rgba(0,0,0,1)">70</tspan></text></g><g transform=" matrix(1 0 0 1 62 125) "><text xml:space="preserve" font-family="Verdana" font-size="11" font-weight="normal" style="stroke: none; stroke-width: 1; stroke-dasharray: none; stroke-linecap: butt; stroke-linejoin: miter; stroke-miterlimit: 10;fill:#000000;fill-opacity:1; fill-rule: nonzero; opacity: 1; white-space: pre" ><tspan x="-15" y="7.48" fill="rgba(0,0,0,1)">80</tspan></text></g><g transform=" matrix(1 0 0 1 62 89) "><text xml:space="preserve" font-family="Verdana" font-size="11" font-weight="normal" style="stroke: none; stroke-width: 1; stroke-dasharray: none; stroke-linecap: butt; stroke-linejoin: miter; stroke-miterlimit: 10;fill:#000000;fill-opacity:1; fill-rule: nonzero; opacity: 1; white-space: pre" ><tspan x="-15" y="7.48" fill="rgba(0,0,0,1)">90</tspan></text></g><g transform=" matrix(1 0 0 1 62 53) "><text xml:space="preserve" font-family="Verdana" font-size="11" font-weight="normal" style="stroke: none; stroke-width: 1; stroke-dasharray: none; stroke-linecap: butt; stroke-linejoin: miter; stroke-miterlimit: 10;fill:#000000;fill-opacity:1; fill-rule: nonzero; opacity: 1; white-space: pre" ><tspan x="-22" y="7.48" fill="rgba(0,0,0,1)">100</tspan></text></g><g transform=" matrix(6.123233995736766e-17 -1 1 6.123233995736766e-17 22 235) "><text xml:space="preserve" font-family="Verdana" font-size="12" font-weight="bold" style="stroke: none; stroke-width: 1; stroke-dasharray: none; stroke-linecap: butt; stroke-linejoin: miter; stroke-miterlimit: 10;fill:#000000;fill-opacity:1; fill-rule: nonzero; opacity: 1; white-space: pre" ><tspan x="-25.5" y="7.66" fill="rgba(0,0,0,1)">percent</tspan></text></g></g><g style="stroke: none; stroke-width: 1; stroke-dasharray: none; stroke-linecap: butt; stroke-linejoin: miter; stroke-miterlimit: 10; fill: none; fill-rule: nonzero; opacity: 1" transform="translate(0 452)" ><path d="M 0.5 0.5 L 961.5 0.5 L 961.5 37.5 L 0.5 37.5 Z" style="stroke:#000000;stroke-opacity:1; stroke-opacity: 0; stroke-width: 1; stroke-dasharray: none; stroke-linecap: butt; stroke-linejoin: miter; stroke-miterlimit: 10;fill:#FFFFFF;fill-opacity:1; fill-opacity: 0; fill-rule: nonzero; opacity: 1" transform=" matrix(1 0 0 1 74 0) " stroke-linecap="round" /><path d="M -7.5 8.5 L 8.5 8.5 L 8.5 -7.5 L -7.5 -7.5 Z" style="stroke:#FF6600;stroke-opacity:1; stroke-width: 1; stroke-dasharray: none; stroke-linecap: butt; stroke-linejoin: miter; stroke-miterlimit: 10;fill:#FF6600;fill-opacity:1; fill-opacity: 0.5; fill-rule: nonzero; opacity: 1" transform=" matrix(1 0 0 1 218 19) " stroke-linecap="round" /><path d="M -5.5 -5.5 L 6.5 6.5" style="stroke:#FFFFFF;stroke-opacity:1; stroke-opacity: 0; stroke-width: 3; stroke-dasharray: none; stroke-linecap: butt; stroke-linejoin: miter; stroke-miterlimit: 10; fill: none; fill-rule: nonzero; opacity: 0" transform=" matrix(1 0 0 1 218 19) " stroke-linecap="round" /><path d="M -5.5 6.5 L 6.5 -5.5" style="stroke:#FFFFFF;stroke-opacity:1; stroke-opacity: 0; stroke-width: 3; stroke-dasharray: none; stroke-linecap: butt; stroke-linejoin: miter; stroke-miterlimit: 10; fill: none; fill-rule: nonzero; opacity: 0" transform=" matrix(1 0 0 1 218 19) " stroke-linecap="round" /><g transform=" matrix(1 0 0 1 231 18) "><text xml:space="preserve" font-family="Verdana" font-size="11" font-weight="normal" style="stroke: none; stroke-width: 1; stroke-dasharray: none; stroke-linecap: butt; stroke-linejoin: miter; stroke-miterlimit: 10;fill:#000000;fill-opacity:1; fill-rule: nonzero; opacity: 1; white-space: pre" ><tspan x="0.5" y="7.48" fill="rgba(0,0,0,1)">Cars</tspan></text></g><g transform=" matrix(1 0 0 1 266 18) "><text xml:space="preserve" font-family="Verdana" font-size="11" font-weight="normal" style="stroke: none; stroke-width: 1; stroke-dasharray: none; stroke-linecap: butt; stroke-linejoin: miter; stroke-miterlimit: 10;fill:#000000;fill-opacity:1; fill-rule: nonzero; opacity: 1; white-space: pre" ><tspan x="0.5" y="7.48" fill="rgba(0,0,0,1)">total: 25,806</tspan></text></g><rect x="16" y="0" rx="0" ry="0" width="140" height="18" style="stroke: none; stroke-width: 0; stroke-dasharray: none; stroke-linecap: butt; stroke-linejoin: miter; stroke-miterlimit: 10;fill:#FFFFFF;fill-opacity:1; fill-opacity: 0.005; fill-rule: nonzero; opacity: 1" transform=" matrix(1 0 0 1 210 11) "/><path d="M -7.5 8.5 L 8.5 8.5 L 8.5 -7.5 L -7.5 -7.5 Z" style="stroke:#FCD202;stroke-opacity:1; stroke-width: 1; stroke-dasharray: none; stroke-linecap: butt; stroke-linejoin: miter; stroke-miterlimit: 10;fill:#FCD202;fill-opacity:1; fill-opacity: 0.5; fill-rule: nonzero; opacity: 1" transform=" matrix(1 0 0 1 432 19) " stroke-linecap="round" /><path d="M -5.5 -5.5 L 6.5 6.5" style="stroke:#FFFFFF;stroke-opacity:1; stroke-opacity: 0; stroke-width: 3; stroke-dasharray: none; stroke-linecap: butt; stroke-linejoin: miter; stroke-miterlimit: 10; fill: none; fill-rule: nonzero; opacity: 0" transform=" matrix(1 0 0 1 432 19) " stroke-linecap="round" /><path d="M -5.5 6.5 L 6.5 -5.5" style="stroke:#FFFFFF;stroke-opacity:1; stroke-opacity: 0; stroke-width: 3; stroke-dasharray: none; stroke-linecap: butt; stroke-linejoin: miter; stroke-miterlimit: 10; fill: none; fill-rule: nonzero; opacity: 0" transform=" matrix(1 0 0 1 432 19) " stroke-linecap="round" /><g transform=" matrix(1 0 0 1 445 18) "><text xml:space="preserve" font-family="Verdana" font-size="11" font-weight="normal" style="stroke: none; stroke-width: 1; stroke-dasharray: none; stroke-linecap: butt; stroke-linejoin: miter; stroke-miterlimit: 10;fill:#000000;fill-opacity:1; fill-rule: nonzero; opacity: 1; white-space: pre" ><tspan x="0.5" y="7.48" fill="rgba(0,0,0,1)">Motorcycles</tspan></text></g><g transform=" matrix(1 0 0 1 520 18) "><text xml:space="preserve" font-family="Verdana" font-size="11" font-weight="normal" style="stroke: none; stroke-width: 1; stroke-dasharray: none; stroke-linecap: butt; stroke-linejoin: miter; stroke-miterlimit: 10;fill:#000000;fill-opacity:1; fill-rule: nonzero; opacity: 1; white-space: pre" ><tspan x="0.5" y="7.48" fill="rgba(0,0,0,1)">total: 10,130</tspan></text></g><rect x="16" y="0" rx="0" ry="0" width="180" height="18" style="stroke: none; stroke-width: 0; stroke-dasharray: none; stroke-linecap: butt; stroke-linejoin: miter; stroke-miterlimit: 10;fill:#FFFFFF;fill-opacity:1; fill-opacity: 0.005; fill-rule: nonzero; opacity: 1" transform=" matrix(1 0 0 1 424 11) "/><path d="M -7.5 8.5 L 8.5 8.5 L 8.5 -7.5 L -7.5 -7.5 Z" style="stroke:#B0DE09;stroke-opacity:1; stroke-width: 1; stroke-dasharray: none; stroke-linecap: butt; stroke-linejoin: miter; stroke-miterlimit: 10;fill:#B0DE09;fill-opacity:1; fill-opacity: 0.5; fill-rule: nonzero; opacity: 1" transform=" matrix(1 0 0 1 685 19) " stroke-linecap="round" /><path d="M -5.5 -5.5 L 6.5 6.5" style="stroke:#FFFFFF;stroke-opacity:1; stroke-opacity: 0; stroke-width: 3; stroke-dasharray: none; stroke-linecap: butt; stroke-linejoin: miter; stroke-miterlimit: 10; fill: none; fill-rule: nonzero; opacity: 0" transform=" matrix(1 0 0 1 685 19) " stroke-linecap="round" /><path d="M -5.5 6.5 L 6.5 -5.5" style="stroke:#FFFFFF;stroke-opacity:1; stroke-opacity: 0; stroke-width: 3; stroke-dasharray: none; stroke-linecap: butt; stroke-linejoin: miter; stroke-miterlimit: 10; fill: none; fill-rule: nonzero; opacity: 0" transform=" matrix(1 0 0 1 685 19) " stroke-linecap="round" /><g transform=" matrix(1 0 0 1 698 18) "><text xml:space="preserve" font-family="Verdana" font-size="11" font-weight="normal" style="stroke: none; stroke-width: 1; stroke-dasharray: none; stroke-linecap: butt; stroke-linejoin: miter; stroke-miterlimit: 10;fill:#000000;fill-opacity:1; fill-rule: nonzero; opacity: 1; white-space: pre" ><tspan x="0.5" y="7.48" fill="rgba(0,0,0,1)">Bicycles</tspan></text></g><g transform=" matrix(1 0 0 1 752 18) "><text xml:space="preserve" font-family="Verdana" font-size="11" font-weight="normal" style="stroke: none; stroke-width: 1; stroke-dasharray: none; stroke-linecap: butt; stroke-linejoin: miter; stroke-miterlimit: 10;fill:#000000;fill-opacity:1; fill-rule: nonzero; opacity: 1; white-space: pre" ><tspan x="0.5" y="7.48" fill="rgba(0,0,0,1)">total: 1,900</tspan></text></g><rect x="16" y="0" rx="0" ry="0" width="159" height="18" style="stroke: none; stroke-width: 0; stroke-dasharray: none; stroke-linecap: butt; stroke-linejoin: miter; stroke-miterlimit: 10;fill:#FFFFFF;fill-opacity:1; fill-opacity: 0.005; fill-rule: nonzero; opacity: 1" transform=" matrix(1 0 0 1 677 11) "/></g><clipPath xmlns="http://www.w3.org/2000/svg" id="AmChartsEl-56"><rect x="0" y="0" width="961" height="360" rx="0" ry="0" stroke-width="0" fill="none" fill-opacity="0"/></clipPath><clipPath xmlns="http://www.w3.org/2000/svg" id="AmChartsEl-57"><rect x="0" y="0" width="961" height="360" rx="0" ry="0" stroke-width="0" fill="none" fill-opacity="0"/></clipPath><clipPath xmlns="http://www.w3.org/2000/svg" id="AmChartsEl-58"><rect x="0" y="0" width="961" height="360" rx="0" ry="0" stroke-width="0" fill="none" fill-opacity="0"/></clipPath><clipPath xmlns="http://www.w3.org/2000/svg" id="AmChartsEl-55"><rect x="0" y="0" width="961" height="360" rx="0" ry="0" stroke-width="0" fill="none" fill-opacity="0"/></clipPath></svg>