<?xml version="1.0" encoding="UTF-8" standalone="no" ?><!DOCTYPE svg PUBLIC "-//W3C//DTD SVG 1.1//EN" "http://www.w3.org/Graphics/SVG/1.1/DTD/svg11.dtd"><svg xmlns="http://www.w3.org/2000/svg" xmlns:xlink="http://www.w3.org/1999/xlink" version="1.1" width="1056" height="500" viewBox="0 0 1056 500" xml:space="preserve"><desc>Created with Fabric.js 1.7.19</desc><defs></defs><rect x="0" y="0" width="1056" height="500" fill="#000000"></rect><g style="stroke: none; stroke-width: 1; stroke-dasharray: none; stroke-linecap: butt; stroke-linejoin: miter; stroke-miterlimit: 10; fill: none; fill-rule: nonzero; opacity: 1" transform="translate(0 0)" ><path d="M 0.5 0.5 L 1055.5 0.5 L 1055.5 499.5 L 0.5 499.5 Z" style="stroke:#000000;stroke-opacity:1; stroke-opacity: 0; stroke-width: 1; stroke-dasharray: none; stroke-linecap: butt; stroke-linejoin: miter; stroke-miterlimit: 10;fill:#282828;fill-opacity:1; fill-opacity: 0; fill-rule: nonzero; opacity: 1" transform="" stroke-linecap="round" /><path d="M 453.4310402305328 304.97361280371473 L 362.08406451293547 340.4662884882653 A 178 178 0 0 1 528 98 L 528 196 A 80 80 0 0 0 453.4310402305328 304.97361280371473 Z" style="stroke:#FFFFFF;stroke-opacity:1; stroke-width: 2; stroke-dasharray: none; stroke-linecap: butt; stroke-linejoin: miter; stroke-miterlimit: 10;fill:#719DC3;fill-opacity:1; fill-rule: nonzero; opacity: 1" transform="" stroke-linecap="round" /><path d="M 381.5 175.5 L 365.5 164.5 L 357.5 164.5" style="stroke:#FFFFFF;stroke-opacity:1; stroke-opacity: 0.3; stroke-width: 1; stroke-dasharray: none; stroke-linecap: butt; stroke-linejoin: miter; stroke-miterlimit: 10; fill: none; fill-rule: nonzero; opacity: 1" transform="" stroke-linecap="round" /><path d="M 497.2116106230865 349.83816817592077 L 459.49583363636737 440.28992419142367 A 178 178 0 0 1 362.08406451293547 340.4662884882653 L 453.4310402305328 304.97361280371473 A 80 80 0 0 0 497.2116106230865 349.83816817592077 Z" style="stroke:#FFFFFF;stroke-opacity:1; stroke-width: 2; stroke-dasharray: none; stroke-linecap: butt; stroke-linejoin: miter; stroke-miterlimit: 10;fill:#719DC3;fill-opacity:1; fill-rule: nonzero; opacity: 1" transform="" stroke-linecap="round" /><path d="M 401.5 400.5 L 386.5 414.5 L 378.5 414.5" style="stroke:#FFFFFF;stroke-opacity:1; stroke-opacity: 0.3; stroke-width: 1; stroke-dasharray: none; stroke-linecap: butt; stroke-linejoin: miter; stroke-miterlimit: 10; fill: none; fill-rule: nonzero; opacity: 1" transform="" stroke-linecap="round" /><path d="M 528 196 L 528 98 A 178 178 0 0 1 599.5824738989805 113.02776484780676 L 560.1718983815643 202.7540516169918 A 80 80 0 0 0 528 196 Z" style="stroke:#FFFFFF;stroke-opacity:1; stroke-width: 2; stroke-dasharray: none; stroke-linecap: butt; stroke-linejoin: miter; stroke-miterlimit: 10;fill:#495FBA;fill-opacity:1; fill-rule: nonzero; opacity: 1" transform="" stroke-linecap="round" /><path d="M 565.5 102.5 L 569.5 73.5 L 577.5 73.5" style="stroke:#FFFFFF;stroke-opacity:1; stroke-opacity: 0.3; stroke-width: 1; stroke-dasharray: none; stroke-linecap: butt; stroke-linejoin: miter; stroke-miterlimit: 10; fill: none; fill-rule: nonzero; opacity: 1" transform="" stroke-linecap="round" /><path d="M 560.1718983815643 202.7540516169918 L 599.5824738989805 113.02776484780676 A 178 178 0 0 1 602.0269332465245 114.12346323782873 L 561.2705317961909 203.24650033160842 A 80 80 0 0 0 560.1718983815643 202.7540516169918 Z" style="stroke:#FFFFFF;stroke-opacity:1; stroke-width: 2; stroke-dasharray: none; stroke-linecap: butt; stroke-linejoin: miter; stroke-miterlimit: 10;fill:#E8D685;fill-opacity:1; fill-rule: nonzero; opacity: 1" transform="" stroke-linecap="round" /><path d="M 601.5 114.5 L 609.5 95.5 L 617.5 95.5" style="stroke:#FFFFFF;stroke-opacity:1; stroke-opacity: 0.3; stroke-width: 1; stroke-dasharray: none; stroke-linecap: butt; stroke-linejoin: miter; stroke-miterlimit: 10; fill: none; fill-rule: nonzero; opacity: 1" transform="" stroke-linecap="round" /><path d="M 561.2705317961909 203.24650033160842 L 602.0269332465245 114.12346323782873 A 178 178 0 0 1 692.9269950602796 342.95585336911546 L 602.1244921619234 306.0925183681418 A 80 80 0 0 0 561.2705317961909 203.24650033160842 Z" style="stroke:#FFFFFF;stroke-opacity:1; stroke-width: 2; stroke-dasharray: none; stroke-linecap: butt; stroke-linejoin: miter; stroke-miterlimit: 10;fill:#AE85C9;fill-opacity:1; fill-rule: nonzero; opacity: 1" transform="" stroke-linecap="round" /><path d="M 693.5 210.5 L 712.5 203.5 L 720.5 203.5" style="stroke:#FFFFFF;stroke-opacity:1; stroke-opacity: 0.3; stroke-width: 1; stroke-dasharray: none; stroke-linecap: butt; stroke-linejoin: miter; stroke-miterlimit: 10; fill: none; fill-rule: nonzero; opacity: 1" transform="" stroke-linecap="round" /><path d="M 602.1244921619234 306.0925183681418 L 692.9269950602796 342.95585336911546 A 178 178 0 0 1 683.6913258905952 362.2798414603809 L 597.9736296137506 314.77745683612625 A 80 80 0 0 0 602.1244921619234 306.0925183681418 Z" style="stroke:#FFFFFF;stroke-opacity:1; stroke-width: 2; stroke-dasharray: none; stroke-linecap: butt; stroke-linejoin: miter; stroke-miterlimit: 10;fill:#C9F0E1;fill-opacity:1; fill-rule: nonzero; opacity: 1" transform="" stroke-linecap="round" /><path d="M 689.5 353.5 L 707.5 361.5 L 715.5 361.5" style="stroke:#FFFFFF;stroke-opacity:1; stroke-opacity: 0.3; stroke-width: 1; stroke-dasharray: none; stroke-linecap: butt; stroke-linejoin: miter; stroke-miterlimit: 10; fill: none; fill-rule: nonzero; opacity: 1" transform="" stroke-linecap="round" /><path d="M 597.9736296137506 314.77745683612625 L 683.6913258905952 362.2798414603809 A 178 178 0 0 1 659.5303165424496 395.93238024088 L 587.1147490078425 329.90219336668764 A 80 80 0 0 0 597.9736296137506 314.77745683612625 Z" style="stroke:#FFFFFF;stroke-opacity:1; stroke-width: 2; stroke-dasharray: none; stroke-linecap: butt; stroke-linejoin: miter; stroke-miterlimit: 10;fill:#D48652;fill-opacity:1; fill-rule: nonzero; opacity: 1" transform="" stroke-linecap="round" /><path d="M 673.5 380.5 L 689.5 391.5 L 697.5 391.5" style="stroke:#FFFFFF;stroke-opacity:1; stroke-opacity: 0.3; stroke-width: 1; stroke-dasharray: none; stroke-linecap: butt; stroke-linejoin: miter; stroke-miterlimit: 10; fill: none; fill-rule: nonzero; opacity: 1" transform="" stroke-linecap="round" /><path d="M 587.1147490078425 329.90219336668764 L 659.5303165424496 395.93238024088 A 178 178 0 0 1 459.49583363636737 440.28992419142367 L 497.2116106230865 349.83816817592077 A 80 80 0 0 0 587.1147490078425 329.90219336668764 Z" style="stroke:#FFFFFF;stroke-opacity:1; stroke-width: 2; stroke-dasharray: none; stroke-linecap: butt; stroke-linejoin: miter; stroke-miterlimit: 10;fill:#629B6D;fill-opacity:1; fill-rule: nonzero; opacity: 1" transform="" stroke-linecap="round" /><path d="M 567.5 450.5 L 571.5 469.5 L 579.5 469.5" style="stroke:#FFFFFF;stroke-opacity:1; stroke-opacity: 0.3; stroke-width: 1; stroke-dasharray: none; stroke-linecap: butt; stroke-linejoin: miter; stroke-miterlimit: 10; fill: none; fill-rule: nonzero; opacity: 1" transform="" stroke-linecap="round" /><g transform=" matrix(1 0 0 1 581 73) "><text xml:space="preserve" font-family="Verdana" font-size="11" font-weight="normal" style="stroke: none; stroke-width: 1; stroke-dasharray: none; stroke-linecap: butt; stroke-linejoin: miter; stroke-miterlimit: 10;fill:#E7E7E7;fill-opacity:1; fill-rule: nonzero; opacity: 1; white-space: pre" ><tspan x="0" y="7.48" fill="rgba(231,231,231,1)">Agriculture: 6.59%</tspan></text></g><g transform=" matrix(1 0 0 1 621 95) "><text xml:space="preserve" font-family="Verdana" font-size="11" font-weight="normal" style="stroke: none; stroke-width: 1; stroke-dasharray: none; stroke-linecap: butt; stroke-linejoin: miter; stroke-miterlimit: 10;fill:#E7E7E7;fill-opacity:1; fill-rule: nonzero; opacity: 1; white-space: pre" ><tspan x="0" y="7.48" fill="rgba(231,231,231,1)">Mining and Quarrying: 0.24%</tspan></text></g><g transform=" matrix(1 0 0 1 724 203) "><text xml:space="preserve" font-family="Verdana" font-size="11" font-weight="normal" style="stroke: none; stroke-width: 1; stroke-dasharray: none; stroke-linecap: butt; stroke-linejoin: miter; stroke-miterlimit: 10;fill:#E7E7E7;fill-opacity:1; fill-rule: nonzero; opacity: 1; white-space: pre" ><tspan x="0" y="7.48" fill="rgba(231,231,231,1)">Manufacturing: 24.31%</tspan></text></g><g transform=" matrix(1 0 0 1 719 361) "><text xml:space="preserve" font-family="Verdana" font-size="11" font-weight="normal" style="stroke: none; stroke-width: 1; stroke-dasharray: none; stroke-linecap: butt; stroke-linejoin: miter; stroke-miterlimit: 10;fill:#E7E7E7;fill-opacity:1; fill-rule: nonzero; opacity: 1; white-space: pre" ><tspan x="0" y="7.48" fill="rgba(231,231,231,1)">Electricity and Water: 1.92%</tspan></text></g><g transform=" matrix(1 0 0 1 701 391) "><text xml:space="preserve" font-family="Verdana" font-size="11" font-weight="normal" style="stroke: none; stroke-width: 1; stroke-dasharray: none; stroke-linecap: butt; stroke-linejoin: miter; stroke-miterlimit: 10;fill:#E7E7E7;fill-opacity:1; fill-rule: nonzero; opacity: 1; white-space: pre" ><tspan x="0" y="7.48" fill="rgba(231,231,231,1)">Construction: 3.71%</tspan></text></g><g transform=" matrix(1 0 0 1 583 469) "><text xml:space="preserve" font-family="Verdana" font-size="11" font-weight="normal" style="stroke: none; stroke-width: 1; stroke-dasharray: none; stroke-linecap: butt; stroke-linejoin: miter; stroke-miterlimit: 10;fill:#E7E7E7;fill-opacity:1; fill-rule: nonzero; opacity: 1; white-space: pre" ><tspan x="0" y="8.2" fill="rgba(231,231,231,1)">Trade (Wholesale, Retail,</tspan><tspan x="0" y="20.19" fill="rgba(231,231,231,1)">Motor): 19.52%</tspan></text></g><g transform=" matrix(1 0 0 1 374 414) "><text xml:space="preserve" font-family="Verdana" font-size="11" font-weight="normal" style="stroke: none; stroke-width: 1; stroke-dasharray: none; stroke-linecap: butt; stroke-linejoin: miter; stroke-miterlimit: 10;fill:#E7E7E7;fill-opacity:1; fill-rule: nonzero; opacity: 1; white-space: pre" ><tspan x="-179" y="8.2" fill="rgba(231,231,231,1)">Transport and Communication:</tspan><tspan x="-45" y="20.19" fill="rgba(231,231,231,1)">12.81%</tspan></text></g><g transform=" matrix(1 0 0 1 353 164) "><text xml:space="preserve" font-family="Verdana" font-size="11" font-weight="normal" style="stroke: none; stroke-width: 1; stroke-dasharray: none; stroke-linecap: butt; stroke-linejoin: miter; stroke-miterlimit: 10;fill:#E7E7E7;fill-opacity:1; fill-rule: nonzero; opacity: 1; white-space: pre" ><tspan x="-138" y="8.2" fill="rgba(231,231,231,1)">Finance, real estate and</tspan><tspan x="-154" y="20.19" fill="rgba(231,231,231,1)">business services: 30.90%</tspan></text></g><g transform=" matrix(1 0 0 1 528 283) "><text xml:space="preserve" font-family="Verdana" font-size="25" font-weight="bold" style="stroke: none; stroke-width: 1; stroke-dasharray: none; stroke-linecap: butt; stroke-linejoin: miter; stroke-miterlimit: 10;fill:#555555;fill-opacity:1; fill-rule: nonzero; opacity: 1; white-space: pre" ><tspan x="-36.03" y="17" fill="rgba(85,85,85,1)">2001</tspan></text></g><g transform=" matrix(1 0 0 1 528 253) "><text xml:space="preserve" font-family="Verdana" font-size="15" font-weight="normal" style="stroke: none; stroke-width: 1; stroke-dasharray: none; stroke-linecap: butt; stroke-linejoin: miter; stroke-miterlimit: 10;fill:#555555;fill-opacity:1; fill-rule: nonzero; opacity: 1; white-space: pre" ><tspan x="-17" y="10.2" fill="rgba(85,85,85,1)">Year</tspan></text></g><g transform=" matrix(1 0 0 1 528 20) "><text xml:space="preserve" font-family="Verdana" font-size="13" font-weight="bold" style="stroke: none; stroke-width: 1; stroke-dasharray: none; stroke-linecap: butt; stroke-linejoin: miter; stroke-miterlimit: 10;fill:#E7E7E7;fill-opacity:1; fill-rule: nonzero; opacity: 1; white-space: pre" ><tspan x="-84.5" y="8.84" fill="rgba(231,231,231,1)">South African Economy</tspan></text></g></g></svg>
