<?xml version="1.0" encoding="UTF-8" standalone="no" ?><!DOCTYPE svg PUBLIC "-//W3C//DTD SVG 1.1//EN" "http://www.w3.org/Graphics/SVG/1.1/DTD/svg11.dtd"><svg xmlns="http://www.w3.org/2000/svg" xmlns:xlink="http://www.w3.org/1999/xlink" version="1.1" width="1056" height="500" viewBox="0 0 1056 500" xml:space="preserve"><desc>Created with Fabric.js 1.7.19</desc><defs></defs><rect x="0" y="0" width="1056" height="500" fill="#FFFFFF"></rect><g style="stroke: none; stroke-width: 1; stroke-dasharray: none; stroke-linecap: butt; stroke-linejoin: miter; stroke-miterlimit: 10; fill: none; fill-rule: nonzero; opacity: 1" transform="translate(0 0)" ><path d="M 0.5 0.5 L 1055.5 0.5 L 1055.5 499.5 L 0.5 499.5 Z" style="stroke:#000000;stroke-opacity:1; stroke-opacity: 0; stroke-width: 1; stroke-dasharray: none; stroke-linecap: butt; stroke-linejoin: miter; stroke-miterlimit: 10;fill:#FFFFFF;fill-opacity:1; fill-opacity: 0; fill-rule: nonzero; opacity: 1" transform="" stroke-linecap="round" /><path d="M 441.5 480.5 L 826.5 480.5 L 826.5 480.5" style="stroke:#000000;stroke-opacity:1; stroke-opacity: 0.3; stroke-width: 1; stroke-dasharray: none; stroke-linecap: butt; stroke-linejoin: miter; stroke-miterlimit: 10; fill: none; fill-rule: nonzero; opacity: 1" transform="" stroke-linecap="round" /><linearGradient id="SVGID_1" gradientUnits="userSpaceOnUse" x1="33.5" y1="0" x2="-0.5" y2="0"><stop offset="0%" style="stop-color:rgb(68,142,77);stop-opacity: 1"/><stop offset="33.333333333333336%" style="stop-color:rgb(48,99,54);stop-opacity: 1"/><stop offset="66.66666666666667%" style="stop-color:rgb(48,99,54);stop-opacity: 1"/><stop offset="100%" style="stop-color:rgb(68,142,77);stop-opacity: 1"/></linearGradient><path d="M 0 0 L 16.999999999999954 20 A 4.644036823215316e-14 3.858822168096627e-15 0 0 0 17.000000000000046 20 L 34 0 A 17 1.4125636672326012 0 0 1 0 0" style="stroke: rgb(255,255,255); stroke-width: 2; stroke-dasharray: none; stroke-linecap: butt; stroke-linejoin: miter; stroke-miterlimit: 10; fill: url(#SVGID_1); fill-rule: nonzero; opacity: 1;" transform=" matrix(1 0 0 1 416 471) " stroke-linecap="round" /><ellipse cx="0" cy="0" rx="17" ry="1.4125636672326012" style="stroke:#FFFFFF;stroke-opacity:1; stroke-width: 2; stroke-dasharray: none; stroke-linecap: butt; stroke-linejoin: miter; stroke-miterlimit: 10;fill:#448E4D;fill-opacity:1; fill-rule: nonzero; opacity: 1" transform=" matrix(1 0 0 1 433 471) "/><g transform=" matrix(1 0 0 1 826 480) "><text xml:space="preserve" font-family="Verdana" font-size="11" font-weight="normal" style="stroke: none; stroke-width: 1; stroke-dasharray: none; stroke-linecap: butt; stroke-linejoin: miter; stroke-miterlimit: 10;fill:#000000;fill-opacity:1; fill-rule: nonzero; opacity: 1; white-space: pre" ><tspan x="0" y="7.48" fill="rgba(0,0,0,1)">Purchased additional products: 26</tspan></text></g><rect x="0.5" y="0.5" rx="0" ry="0" width="202" height="20" style="stroke:#FFFFFF;stroke-opacity:1; stroke-opacity: 0.005; stroke-width: 0; stroke-dasharray: none; stroke-linecap: butt; stroke-linejoin: miter; stroke-miterlimit: 10;fill:#FFFFFF;fill-opacity:1; fill-opacity: 0.005; fill-rule: nonzero; opacity: 1" transform=" matrix(1 0 0 1 825 474) "/><path d="M 461.5 457.5 L 826.5 457.5 L 826.5 457.5" style="stroke:#000000;stroke-opacity:1; stroke-opacity: 0.3; stroke-width: 1; stroke-dasharray: none; stroke-linecap: butt; stroke-linejoin: miter; stroke-miterlimit: 10; fill: none; fill-rule: nonzero; opacity: 1" transform="" stroke-linecap="round" /><ellipse cx="0" cy="0" rx="16.83606557377052" ry="1.4125636672326012" style="stroke:#FFFFFF;stroke-opacity:1; stroke-width: 2; stroke-dasharray: none; stroke-linecap: butt; stroke-linejoin: miter; stroke-miterlimit: 10;fill:#4760AE;fill-opacity:1; fill-rule: nonzero; opacity: 1" transform=" matrix(1 0 0 1 433 472) "/><linearGradient id="SVGID_2" gradientUnits="userSpaceOnUse" x1="78.5" y1="0" x2="-0.5" y2="0"><stop offset="0%" style="stop-color:rgb(47,64,116);stop-opacity: 1"/><stop offset="33.333333333333336%" style="stop-color:rgb(33,45,81);stop-opacity: 1"/><stop offset="66.66666666666667%" style="stop-color:rgb(33,45,81);stop-opacity: 1"/><stop offset="100%" style="stop-color:rgb(47,64,116);stop-opacity: 1"/></linearGradient><path d="M 0 0 L 22.66393442622948 27 A 16.83606557377052 1.4125636672326012 0 0 0 56.33606557377052 27 L 79 0 A 39.5 3.314091680814944 0 0 1 0 0" style="stroke: rgb(255,255,255); stroke-width: 2; stroke-dasharray: none; stroke-linecap: butt; stroke-linejoin: miter; stroke-miterlimit: 10; fill: url(#SVGID_2); fill-rule: nonzero; opacity: 1;" transform=" matrix(1 0 0 1 393 444) " stroke-linecap="round" /><ellipse cx="0" cy="0" rx="39.5" ry="3.314091680814944" style="stroke:#FFFFFF;stroke-opacity:1; stroke-width: 2; stroke-dasharray: none; stroke-linecap: butt; stroke-linejoin: miter; stroke-miterlimit: 10;fill:#2F4074;fill-opacity:1; fill-rule: nonzero; opacity: 1" transform=" matrix(1 0 0 1 433 444) "/><g transform=" matrix(1 0 0 1 826 457) "><text xml:space="preserve" font-family="Verdana" font-size="11" font-weight="normal" style="stroke: none; stroke-width: 1; stroke-dasharray: none; stroke-linecap: butt; stroke-linejoin: miter; stroke-miterlimit: 10;fill:#000000;fill-opacity:1; fill-rule: nonzero; opacity: 1; white-space: pre" ><tspan x="0" y="7.48" fill="rgba(0,0,0,1)">Contacted for support: 35</tspan></text></g><rect x="0.5" y="0.5" rx="0" ry="0" width="156" height="20" style="stroke:#FFFFFF;stroke-opacity:1; stroke-opacity: 0.005; stroke-width: 0; stroke-dasharray: none; stroke-linecap: butt; stroke-linejoin: miter; stroke-miterlimit: 10;fill:#FFFFFF;fill-opacity:1; fill-opacity: 0.005; fill-rule: nonzero; opacity: 1" transform=" matrix(1 0 0 1 825 451) "/><path d="M 484.5 430.5 L 826.5 430.5 L 826.5 430.5" style="stroke:#000000;stroke-opacity:1; stroke-opacity: 0.3; stroke-width: 1; stroke-dasharray: none; stroke-linecap: butt; stroke-linejoin: miter; stroke-miterlimit: 10; fill: none; fill-rule: nonzero; opacity: 1" transform="" stroke-linecap="round" /><ellipse cx="0" cy="0" rx="39.713541666666686" ry="3.314091680814944" style="stroke:#FFFFFF;stroke-opacity:1; stroke-width: 2; stroke-dasharray: none; stroke-linecap: butt; stroke-linejoin: miter; stroke-miterlimit: 10;fill:#FFC3FF;fill-opacity:1; fill-rule: nonzero; opacity: 1" transform=" matrix(1 0 0 1 434 445) "/><linearGradient id="SVGID_3" gradientUnits="userSpaceOnUse" x1="124.5" y1="0" x2="-0.5" y2="0"><stop offset="0%" style="stop-color:rgb(205,130,173);stop-opacity: 1"/><stop offset="33.333333333333336%" style="stop-color:rgb(144,91,121);stop-opacity: 1"/><stop offset="66.66666666666667%" style="stop-color:rgb(144,91,121);stop-opacity: 1"/><stop offset="100%" style="stop-color:rgb(205,130,173);stop-opacity: 1"/></linearGradient><path d="M 0 0 L 22.786458333333314 27 A 39.713541666666686 3.314091680814944 0 0 0 102.21354166666669 27 L 125 0 A 62.5 5.215619694397287 0 0 1 0 0" style="stroke: rgb(255,255,255); stroke-width: 2; stroke-dasharray: none; stroke-linecap: butt; stroke-linejoin: miter; stroke-miterlimit: 10; fill: url(#SVGID_3); fill-rule: nonzero; opacity: 1;" transform=" matrix(1 0 0 1 371 417) " stroke-linecap="round" /><ellipse cx="0" cy="0" rx="62.5" ry="5.215619694397287" style="stroke:#FFFFFF;stroke-opacity:1; stroke-width: 2; stroke-dasharray: none; stroke-linecap: butt; stroke-linejoin: miter; stroke-miterlimit: 10;fill:#CD82AD;fill-opacity:1; fill-rule: nonzero; opacity: 1" transform=" matrix(1 0 0 1 434 417) "/><g transform=" matrix(1 0 0 1 826 430) "><text xml:space="preserve" font-family="Verdana" font-size="11" font-weight="normal" style="stroke: none; stroke-width: 1; stroke-dasharray: none; stroke-linecap: butt; stroke-linejoin: miter; stroke-miterlimit: 10;fill:#000000;fill-opacity:1; fill-rule: nonzero; opacity: 1; white-space: pre" ><tspan x="0" y="7.48" fill="rgba(0,0,0,1)">Purchased: 35</tspan></text></g><rect x="0.5" y="0.5" rx="0" ry="0" width="90" height="20" style="stroke:#FFFFFF;stroke-opacity:1; stroke-opacity: 0.005; stroke-width: 0; stroke-dasharray: none; stroke-linecap: butt; stroke-linejoin: miter; stroke-miterlimit: 10;fill:#FFFFFF;fill-opacity:1; fill-opacity: 0.005; fill-rule: nonzero; opacity: 1" transform=" matrix(1 0 0 1 825 424) "/><path d="M 519.5 390.5 L 826.5 390.5 L 826.5 390.5" style="stroke:#000000;stroke-opacity:1; stroke-opacity: 0.3; stroke-width: 1; stroke-dasharray: none; stroke-linecap: butt; stroke-linejoin: miter; stroke-miterlimit: 10; fill: none; fill-rule: nonzero; opacity: 1" transform="" stroke-linecap="round" /><ellipse cx="0" cy="0" rx="62.285714285714306" ry="5.215619694397287" style="stroke:#FFFFFF;stroke-opacity:1; stroke-width: 2; stroke-dasharray: none; stroke-linecap: butt; stroke-linejoin: miter; stroke-miterlimit: 10;fill:#FF6B6C;fill-opacity:1; fill-rule: nonzero; opacity: 1" transform=" matrix(1 0 0 1 433 418) "/><linearGradient id="SVGID_4" gradientUnits="userSpaceOnUse" x1="217.50000000000003" y1="0" x2="-0.5" y2="0"><stop offset="0%" style="stop-color:rgb(204,71,72);stop-opacity: 1"/><stop offset="33.333333333333336%" style="stop-color:rgb(143,50,50);stop-opacity: 1"/><stop offset="66.66666666666667%" style="stop-color:rgb(143,50,50);stop-opacity: 1"/><stop offset="100%" style="stop-color:rgb(204,71,72);stop-opacity: 1"/></linearGradient><path d="M 0 0 L 46.714285714285694 55 A 62.285714285714306 5.215619694397287 0 0 0 171.2857142857143 55 L 218 0 A 109 9.127334465195249 0 0 1 0 0" style="stroke: rgb(255,255,255); stroke-width: 2; stroke-dasharray: none; stroke-linecap: butt; stroke-linejoin: miter; stroke-miterlimit: 10; fill: url(#SVGID_4); fill-rule: nonzero; opacity: 1;" transform=" matrix(1 0 0 1 324 362) " stroke-linecap="round" /><ellipse cx="0" cy="0" rx="109" ry="9.127334465195249" style="stroke:#FFFFFF;stroke-opacity:1; stroke-width: 2; stroke-dasharray: none; stroke-linecap: butt; stroke-linejoin: miter; stroke-miterlimit: 10;fill:#CC4748;fill-opacity:1; fill-rule: nonzero; opacity: 1" transform=" matrix(1 0 0 1 433 362) "/><g transform=" matrix(1 0 0 1 826 390) "><text xml:space="preserve" font-family="Verdana" font-size="11" font-weight="normal" style="stroke: none; stroke-width: 1; stroke-dasharray: none; stroke-linecap: butt; stroke-linejoin: miter; stroke-miterlimit: 10;fill:#000000;fill-opacity:1; fill-rule: nonzero; opacity: 1; white-space: pre" ><tspan x="0" y="7.48" fill="rgba(0,0,0,1)">Contaced for more info: 72</tspan></text></g><rect x="0.5" y="0.5" rx="0" ry="0" width="164" height="20" style="stroke:#FFFFFF;stroke-opacity:1; stroke-opacity: 0.005; stroke-width: 0; stroke-dasharray: none; stroke-linecap: butt; stroke-linejoin: miter; stroke-miterlimit: 10;fill:#FFFFFF;fill-opacity:1; fill-opacity: 0.005; fill-rule: nonzero; opacity: 1" transform=" matrix(1 0 0 1 825 384) "/><path d="M 574.5 325.5 L 826.5 325.5 L 826.5 325.5" style="stroke:#000000;stroke-opacity:1; stroke-opacity: 0.3; stroke-width: 1; stroke-dasharray: none; stroke-linecap: butt; stroke-linejoin: miter; stroke-miterlimit: 10; fill: none; fill-rule: nonzero; opacity: 1" transform="" stroke-linecap="round" /><ellipse cx="0" cy="0" rx="109.26315789473685" ry="9.127334465195249" style="stroke:#FFFFFF;stroke-opacity:1; stroke-width: 2; stroke-dasharray: none; stroke-linecap: butt; stroke-linejoin: miter; stroke-miterlimit: 10;fill:#C6FF92;fill-opacity:1; fill-rule: nonzero; opacity: 1" transform=" matrix(1 0 0 1 433 364) "/><linearGradient id="SVGID_5" gradientUnits="userSpaceOnUse" x1="345.5" y1="0" x2="-0.5" y2="0"><stop offset="0%" style="stop-color:rgb(132,183,97);stop-opacity: 1"/><stop offset="33.333333333333336%" style="stop-color:rgb(92,128,68);stop-opacity: 1"/><stop offset="66.66666666666667%" style="stop-color:rgb(92,128,68);stop-opacity: 1"/><stop offset="100%" style="stop-color:rgb(132,183,97);stop-opacity: 1"/></linearGradient><path d="M 0 0 L 63.73684210526315 75 A 109.26315789473685 9.127334465195249 0 0 0 282.2631578947369 75 L 346 0 A 173 14.45161290322581 0 0 1 0 0" style="stroke: rgb(255,255,255); stroke-width: 2; stroke-dasharray: none; stroke-linecap: butt; stroke-linejoin: miter; stroke-miterlimit: 10; fill: url(#SVGID_5); fill-rule: nonzero; opacity: 1;" transform=" matrix(1 0 0 1 260 288) " stroke-linecap="round" /><ellipse cx="0" cy="0" rx="173" ry="14.45161290322581" style="stroke:#FFFFFF;stroke-opacity:1; stroke-width: 2; stroke-dasharray: none; stroke-linecap: butt; stroke-linejoin: miter; stroke-miterlimit: 10;fill:#84B761;fill-opacity:1; fill-rule: nonzero; opacity: 1" transform=" matrix(1 0 0 1 433 288) "/><g transform=" matrix(1 0 0 1 826 325) "><text xml:space="preserve" font-family="Verdana" font-size="11" font-weight="normal" style="stroke: none; stroke-width: 1; stroke-dasharray: none; stroke-linecap: butt; stroke-linejoin: miter; stroke-miterlimit: 10;fill:#000000;fill-opacity:1; fill-rule: nonzero; opacity: 1; white-space: pre" ><tspan x="0" y="7.48" fill="rgba(0,0,0,1)">Requested price list: 98</tspan></text></g><rect x="0.5" y="0.5" rx="0" ry="0" width="143" height="20" style="stroke:#FFFFFF;stroke-opacity:1; stroke-opacity: 0.005; stroke-width: 0; stroke-dasharray: none; stroke-linecap: butt; stroke-linejoin: miter; stroke-miterlimit: 10;fill:#FFFFFF;fill-opacity:1; fill-opacity: 0.005; fill-rule: nonzero; opacity: 1" transform=" matrix(1 0 0 1 825 319) "/><path d="M 646.5 241.5 L 826.5 241.5 L 826.5 241.5" style="stroke:#000000;stroke-opacity:1; stroke-opacity: 0.3; stroke-width: 1; stroke-dasharray: none; stroke-linecap: butt; stroke-linejoin: miter; stroke-miterlimit: 10; fill: none; fill-rule: nonzero; opacity: 1" transform="" stroke-linecap="round" /><ellipse cx="0" cy="0" rx="173.00257069408744" ry="14.45161290322581" style="stroke:#FFFFFF;stroke-opacity:1; stroke-width: 2; stroke-dasharray: none; stroke-linecap: butt; stroke-linejoin: miter; stroke-miterlimit: 10;fill:#FFFF00;fill-opacity:1; fill-rule: nonzero; opacity: 1" transform=" matrix(1 0 0 1 433 289) "/><linearGradient id="SVGID_6" gradientUnits="userSpaceOnUse" x1="505.50000000000006" y1="0" x2="-0.5" y2="0"><stop offset="0%" style="stop-color:rgb(253,212,0);stop-opacity: 1"/><stop offset="33.333333333333336%" style="stop-color:rgb(177,148,0);stop-opacity: 1"/><stop offset="66.66666666666667%" style="stop-color:rgb(177,148,0);stop-opacity: 1"/><stop offset="100%" style="stop-color:rgb(253,212,0);stop-opacity: 1"/></linearGradient><path d="M 0 0 L 79.99742930591256 94 A 173.00257069408744 14.45161290322581 0 0 0 426.0025706940874 94 L 506 0 A 253 21.134125636672326 0 0 1 0 0" style="stroke: rgb(255,255,255); stroke-width: 2; stroke-dasharray: none; stroke-linecap: butt; stroke-linejoin: miter; stroke-miterlimit: 10; fill: url(#SVGID_6); fill-rule: nonzero; opacity: 1;" transform=" matrix(1 0 0 1 180 194) " stroke-linecap="round" /><ellipse cx="0" cy="0" rx="253" ry="21.134125636672326" style="stroke:#FFFFFF;stroke-opacity:1; stroke-width: 2; stroke-dasharray: none; stroke-linecap: butt; stroke-linejoin: miter; stroke-miterlimit: 10;fill:#FDD400;fill-opacity:1; fill-rule: nonzero; opacity: 1" transform=" matrix(1 0 0 1 433 194) "/><g transform=" matrix(1 0 0 1 826 241) "><text xml:space="preserve" font-family="Verdana" font-size="11" font-weight="normal" style="stroke: none; stroke-width: 1; stroke-dasharray: none; stroke-linecap: butt; stroke-linejoin: miter; stroke-miterlimit: 10;fill:#000000;fill-opacity:1; fill-rule: nonzero; opacity: 1; white-space: pre" ><tspan x="0" y="7.48" fill="rgba(0,0,0,1)">Downloads: 123</tspan></text></g><rect x="0.5" y="0.5" rx="0" ry="0" width="100" height="20" style="stroke:#FFFFFF;stroke-opacity:1; stroke-opacity: 0.005; stroke-width: 0; stroke-dasharray: none; stroke-linecap: butt; stroke-linejoin: miter; stroke-miterlimit: 10;fill:#FFFFFF;fill-opacity:1; fill-opacity: 0.005; fill-rule: nonzero; opacity: 1" transform=" matrix(1 0 0 1 825 235) "/><path d="M 751.5 118.5 L 826.5 118.5 L 826.5 118.5" style="stroke:#000000;stroke-opacity:1; stroke-opacity: 0.3; stroke-width: 1; stroke-dasharray: none; stroke-linecap: butt; stroke-linejoin: miter; stroke-miterlimit: 10; fill: none; fill-rule: nonzero; opacity: 1" transform="" stroke-linecap="round" /><ellipse cx="0" cy="0" rx="252.9490662139219" ry="21.134125636672326" style="stroke:#FFFFFF;stroke-opacity:1; stroke-width: 2; stroke-dasharray: none; stroke-linecap: butt; stroke-linejoin: miter; stroke-miterlimit: 10;fill:#9BFFFF;fill-opacity:1; fill-rule: nonzero; opacity: 1" transform=" matrix(1 0 0 1 433 195) "/><linearGradient id="SVGID_7" gradientUnits="userSpaceOnUse" x1="765.5" y1="0" x2="-0.5" y2="0"><stop offset="0%" style="stop-color:rgb(103,183,220);stop-opacity: 1"/><stop offset="33.333333333333336%" style="stop-color:rgb(72,128,154);stop-opacity: 1"/><stop offset="66.66666666666667%" style="stop-color:rgb(72,128,154);stop-opacity: 1"/><stop offset="100%" style="stop-color:rgb(103,183,220);stop-opacity: 1"/></linearGradient><path d="M 0 0 L 130.0509337860781 152 A 252.9490662139219 21.134125636672326 0 0 0 635.9490662139219 152 L 766 0 A 383 32 0 0 1 0 0" style="stroke: rgb(255,255,255); stroke-width: 2; stroke-dasharray: none; stroke-linecap: butt; stroke-linejoin: miter; stroke-miterlimit: 10; fill: url(#SVGID_7); fill-rule: nonzero; opacity: 1;" transform=" matrix(1 0 0 1 50 42) " stroke-linecap="round" /><ellipse cx="0" cy="0" rx="383" ry="32" style="stroke:#FFFFFF;stroke-opacity:1; stroke-width: 2; stroke-dasharray: none; stroke-linecap: butt; stroke-linejoin: miter; stroke-miterlimit: 10;fill:#67B7DC;fill-opacity:1; fill-rule: nonzero; opacity: 1" transform=" matrix(1 0 0 1 433 42) "/><g transform=" matrix(1 0 0 1 826 118) "><text xml:space="preserve" font-family="Verdana" font-size="11" font-weight="normal" style="stroke: none; stroke-width: 1; stroke-dasharray: none; stroke-linecap: butt; stroke-linejoin: miter; stroke-miterlimit: 10;fill:#000000;fill-opacity:1; fill-rule: nonzero; opacity: 1; white-space: pre" ><tspan x="0" y="7.48" fill="rgba(0,0,0,1)">Website visits: 200</tspan></text></g><rect x="0.5" y="0.5" rx="0" ry="0" width="116" height="20" style="stroke:#FFFFFF;stroke-opacity:1; stroke-opacity: 0.005; stroke-width: 0; stroke-dasharray: none; stroke-linecap: butt; stroke-linejoin: miter; stroke-miterlimit: 10;fill:#FFFFFF;fill-opacity:1; fill-opacity: 0.005; fill-rule: nonzero; opacity: 1" transform=" matrix(1 0 0 1 825 112) "/></g></svg>