<?xml version="1.0" encoding="UTF-8" standalone="no" ?><!DOCTYPE svg PUBLIC "-//W3C//DTD SVG 1.1//EN" "http://www.w3.org/Graphics/SVG/1.1/DTD/svg11.dtd"><svg xmlns="http://www.w3.org/2000/svg" xmlns:xlink="http://www.w3.org/1999/xlink" version="1.1" width="1056" height="500" viewBox="0 0 1056 500" xml:space="preserve"><desc>Created with Fabric.js 1.7.19</desc><defs></defs><rect x="0" y="0" width="1056" height="500" fill="#000000"></rect><g style="stroke: none; stroke-width: 1; stroke-dasharray: none; stroke-linecap: butt; stroke-linejoin: miter; stroke-miterlimit: 10; fill: none; fill-rule: nonzero; opacity: 1" transform="translate(0 0)" ><path d="M 0.5 0.5 L 1055.5 0.5 L 1055.5 499.5 L 0.5 499.5 Z" style="stroke:#000000;stroke-opacity:1; stroke-opacity: 0; stroke-width: 1; stroke-dasharray: none; stroke-linecap: butt; stroke-linejoin: miter; stroke-miterlimit: 10;fill:#282828;fill-opacity:1; fill-opacity: 0; fill-rule: nonzero; opacity: 1" transform="" stroke-linecap="round" /><path d="M 0.5 0.5 L 975.5 0.5 L 975.5 448.5 L 0.5 448.5 L 0.5 0.5 Z" style="stroke:#000000;stroke-opacity:1; stroke-opacity: 0; stroke-width: 1; stroke-dasharray: none; stroke-linecap: butt; stroke-linejoin: miter; stroke-miterlimit: 10;fill:#FFFFFF;fill-opacity:1; fill-opacity: 0; fill-rule: nonzero; opacity: 1" transform=" matrix(1 0 0 1 60 20) " stroke-linecap="round" /><path d="M 0.5 0.5 L 0.5 -408.5 L 60.5 -408.5 L 60.5 0.5 L 0.5 0.5 Z" style="stroke:#AE85C9;stroke-opacity:1; stroke-opacity: 0.2; stroke-width: 1; stroke-dasharray: none; stroke-linecap: butt; stroke-linejoin: miter; stroke-miterlimit: 10;fill:#AE85C9;fill-opacity:1; fill-opacity: 0.8; fill-rule: nonzero; opacity: 1" transform=" matrix(1 0 0 1 68 468) " stroke-linecap="round" /><path d="M 0.5 0.5 L 0.5 -376.5 L 60.5 -376.5 L 60.5 0.5 L 0.5 0.5 Z" style="stroke:#AE85C9;stroke-opacity:1; stroke-opacity: 0.2; stroke-width: 1; stroke-dasharray: none; stroke-linecap: butt; stroke-linejoin: miter; stroke-miterlimit: 10;fill:#AE85C9;fill-opacity:1; fill-opacity: 0.8; fill-rule: nonzero; opacity: 1" transform=" matrix(1 0 0 1 143 468) " stroke-linecap="round" /><path d="M 0.5 0.5 L 0.5 -359.5 L 60.5 -359.5 L 60.5 0.5 L 0.5 0.5 Z" style="stroke:#AE85C9;stroke-opacity:1; stroke-opacity: 0.2; stroke-width: 1; stroke-dasharray: none; stroke-linecap: butt; stroke-linejoin: miter; stroke-miterlimit: 10;fill:#AE85C9;fill-opacity:1; fill-opacity: 0.8; fill-rule: nonzero; opacity: 1" transform=" matrix(1 0 0 1 218 468) " stroke-linecap="round" /><path d="M 0.5 0.5 L 0.5 -250.5 L 60.5 -250.5 L 60.5 0.5 L 0.5 0.5 Z" style="stroke:#AE85C9;stroke-opacity:1; stroke-opacity: 0.2; stroke-width: 1; stroke-dasharray: none; stroke-linecap: butt; stroke-linejoin: miter; stroke-miterlimit: 10;fill:#AE85C9;fill-opacity:1; fill-opacity: 0.8; fill-rule: nonzero; opacity: 1" transform=" matrix(1 0 0 1 293 468) " stroke-linecap="round" /><path d="M 0.5 0.5 L 0.5 -206.5 L 60.5 -206.5 L 60.5 0.5 L 0.5 0.5 Z" style="stroke:#AE85C9;stroke-opacity:1; stroke-opacity: 0.2; stroke-width: 1; stroke-dasharray: none; stroke-linecap: butt; stroke-linejoin: miter; stroke-miterlimit: 10;fill:#AE85C9;fill-opacity:1; fill-opacity: 0.8; fill-rule: nonzero; opacity: 1" transform=" matrix(1 0 0 1 368 468) " stroke-linecap="round" /><path d="M 0.5 0.5 L 0.5 -204.5 L 60.5 -204.5 L 60.5 0.5 L 0.5 0.5 Z" style="stroke:#AE85C9;stroke-opacity:1; stroke-opacity: 0.2; stroke-width: 1; stroke-dasharray: none; stroke-linecap: butt; stroke-linejoin: miter; stroke-miterlimit: 10;fill:#AE85C9;fill-opacity:1; fill-opacity: 0.8; fill-rule: nonzero; opacity: 1" transform=" matrix(1 0 0 1 443 468) " stroke-linecap="round" /><path d="M 0.5 0.5 L 0.5 -175.5 L 60.5 -175.5 L 60.5 0.5 L 0.5 0.5 Z" style="stroke:#AE85C9;stroke-opacity:1; stroke-opacity: 0.2; stroke-width: 1; stroke-dasharray: none; stroke-linecap: butt; stroke-linejoin: miter; stroke-miterlimit: 10;fill:#AE85C9;fill-opacity:1; fill-opacity: 0.8; fill-rule: nonzero; opacity: 1" transform=" matrix(1 0 0 1 518 468) " stroke-linecap="round" /><path d="M 0.5 0.5 L 0.5 -113.5 L 60.5 -113.5 L 60.5 0.5 L 0.5 0.5 Z" style="stroke:#AE85C9;stroke-opacity:1; stroke-opacity: 0.2; stroke-width: 1; stroke-dasharray: none; stroke-linecap: butt; stroke-linejoin: miter; stroke-miterlimit: 10;fill:#AE85C9;fill-opacity:1; fill-opacity: 0.8; fill-rule: nonzero; opacity: 1" transform=" matrix(1 0 0 1 593 468) " stroke-linecap="round" /><path d="M 0.5 0.5 L 0.5 -103.5 L 60.5 -103.5 L 60.5 0.5 L 0.5 0.5 Z" style="stroke:#AE85C9;stroke-opacity:1; stroke-opacity: 0.2; stroke-width: 1; stroke-dasharray: none; stroke-linecap: butt; stroke-linejoin: miter; stroke-miterlimit: 10;fill:#AE85C9;fill-opacity:1; fill-opacity: 0.8; fill-rule: nonzero; opacity: 1" transform=" matrix(1 0 0 1 668 468) " stroke-linecap="round" /><path d="M 0.5 0.5 L 0.5 -84.5 L 60.5 -84.5 L 60.5 0.5 L 0.5 0.5 Z" style="stroke:#AE85C9;stroke-opacity:1; stroke-opacity: 0.2; stroke-width: 1; stroke-dasharray: none; stroke-linecap: butt; stroke-linejoin: miter; stroke-miterlimit: 10;fill:#AE85C9;fill-opacity:1; fill-opacity: 0.8; fill-rule: nonzero; opacity: 1" transform=" matrix(1 0 0 1 743 468) " stroke-linecap="round" /><path d="M 0.5 0.5 L 0.5 -53.5 L 60.5 -53.5 L 60.5 0.5 L 0.5 0.5 Z" style="stroke:#AE85C9;stroke-opacity:1; stroke-opacity: 0.2; stroke-width: 1; stroke-dasharray: none; stroke-linecap: butt; stroke-linejoin: miter; stroke-miterlimit: 10;fill:#AE85C9;fill-opacity:1; fill-opacity: 0.8; fill-rule: nonzero; opacity: 1" transform=" matrix(1 0 0 1 818 468) " stroke-linecap="round" /><path d="M 0.5 0.5 L 0.5 -53.5 L 60.5 -53.5 L 60.5 0.5 L 0.5 0.5 Z" style="stroke:#AE85C9;stroke-opacity:1; stroke-opacity: 0.2; stroke-width: 1; stroke-dasharray: none; stroke-linecap: butt; stroke-linejoin: miter; stroke-miterlimit: 10;fill:#AE85C9;fill-opacity:1; fill-opacity: 0.8; fill-rule: nonzero; opacity: 1" transform=" matrix(1 0 0 1 893 468) " stroke-linecap="round" /><path d="M 0.5 0.5 L 0.5 -43.5 L 60.5 -43.5 L 60.5 0.5 L 0.5 0.5 Z" style="stroke:#AE85C9;stroke-opacity:1; stroke-opacity: 0.2; stroke-width: 1; stroke-dasharray: none; stroke-linecap: butt; stroke-linejoin: miter; stroke-miterlimit: 10;fill:#AE85C9;fill-opacity:1; fill-opacity: 0.8; fill-rule: nonzero; opacity: 1" transform=" matrix(1 0 0 1 968 468) " stroke-linecap="round" /><path d="M 0.5 0.5 L 975.5 0.5" style="stroke:#FFFFFF;stroke-opacity:1; stroke-opacity: 0.3; stroke-width: 1; stroke-dasharray: none; stroke-linecap: butt; stroke-linejoin: miter; stroke-miterlimit: 10; fill: none; fill-rule: nonzero; opacity: 1" transform=" matrix(1 0 0 1 60 468) " stroke-linecap="round" /><path d="M 0.5 0.5 L 0.5 448.5" style="stroke:#FFFFFF;stroke-opacity:1; stroke-opacity: 0.3; stroke-width: 1; stroke-dasharray: none; stroke-linecap: butt; stroke-linejoin: miter; stroke-miterlimit: 10; fill: none; fill-rule: nonzero; opacity: 1" transform=" matrix(1 0 0 1 60 20) " stroke-linecap="round" /><g  clip-path="url(#AmChartsEl-8)" ><path d="M 0.5 0.5 L 0.5 0.5 L 0.5 448.5" style="stroke:#FFFFFF;stroke-opacity:1; stroke-opacity: 0; stroke-width: 1; stroke-dasharray: none; stroke-linecap: butt; stroke-linejoin: miter; stroke-miterlimit: 10; fill: none; fill-rule: nonzero; opacity: 0" transform=" matrix(1 0 0 1 1002 20) " stroke-linecap="round" /></g><g  clip-path="url(#AmChartsEl-8)" ><path d="M 0.5 0.5 L 975.5 0.5 L 975.5 0.5" style="stroke:#FFFFFF;stroke-opacity:1; stroke-opacity: 0; stroke-width: 1; stroke-dasharray: none; stroke-linecap: butt; stroke-linejoin: miter; stroke-miterlimit: 10; fill: none; fill-rule: nonzero; opacity: 0" transform=" matrix(1 0 0 1 60 21) " stroke-linecap="round" /></g><g transform=" matrix(1 0 0 1 98.5 480.5) "><text xml:space="preserve" font-family="Verdana" font-size="11" font-weight="normal" style="stroke: none; stroke-width: 1; stroke-dasharray: none; stroke-linecap: butt; stroke-linejoin: miter; stroke-miterlimit: 10;fill:#E7E7E7;fill-opacity:1; fill-rule: nonzero; opacity: 1; white-space: pre" ><tspan x="-12.5" y="7.48" fill="rgba(231,231,231,1)">USA</tspan></text></g><g transform=" matrix(1 0 0 1 173.5 480.5) "><text xml:space="preserve" font-family="Verdana" font-size="11" font-weight="normal" style="stroke: none; stroke-width: 1; stroke-dasharray: none; stroke-linecap: butt; stroke-linejoin: miter; stroke-miterlimit: 10;fill:#E7E7E7;fill-opacity:1; fill-rule: nonzero; opacity: 1; white-space: pre" ><tspan x="-17" y="7.48" fill="rgba(231,231,231,1)">China</tspan></text></g><g transform=" matrix(1 0 0 1 248.5 480.5) "><text xml:space="preserve" font-family="Verdana" font-size="11" font-weight="normal" style="stroke: none; stroke-width: 1; stroke-dasharray: none; stroke-linecap: butt; stroke-linejoin: miter; stroke-miterlimit: 10;fill:#E7E7E7;fill-opacity:1; fill-rule: nonzero; opacity: 1; white-space: pre" ><tspan x="-17" y="7.48" fill="rgba(231,231,231,1)">Japan</tspan></text></g><g transform=" matrix(1 0 0 1 323.5 480.5) "><text xml:space="preserve" font-family="Verdana" font-size="11" font-weight="normal" style="stroke: none; stroke-width: 1; stroke-dasharray: none; stroke-linecap: butt; stroke-linejoin: miter; stroke-miterlimit: 10;fill:#E7E7E7;fill-opacity:1; fill-rule: nonzero; opacity: 1; white-space: pre" ><tspan x="-27" y="7.48" fill="rgba(231,231,231,1)">Germany</tspan></text></g><g transform=" matrix(1 0 0 1 398.5 480.5) "><text xml:space="preserve" font-family="Verdana" font-size="11" font-weight="normal" style="stroke: none; stroke-width: 1; stroke-dasharray: none; stroke-linecap: butt; stroke-linejoin: miter; stroke-miterlimit: 10;fill:#E7E7E7;fill-opacity:1; fill-rule: nonzero; opacity: 1; white-space: pre" ><tspan x="-8.5" y="7.48" fill="rgba(231,231,231,1)">UK</tspan></text></g><g transform=" matrix(1 0 0 1 473.5 480.5) "><text xml:space="preserve" font-family="Verdana" font-size="11" font-weight="normal" style="stroke: none; stroke-width: 1; stroke-dasharray: none; stroke-linecap: butt; stroke-linejoin: miter; stroke-miterlimit: 10;fill:#E7E7E7;fill-opacity:1; fill-rule: nonzero; opacity: 1; white-space: pre" ><tspan x="-19.5" y="7.48" fill="rgba(231,231,231,1)">France</tspan></text></g><g transform=" matrix(1 0 0 1 548.5 480.5) "><text xml:space="preserve" font-family="Verdana" font-size="11" font-weight="normal" style="stroke: none; stroke-width: 1; stroke-dasharray: none; stroke-linecap: butt; stroke-linejoin: miter; stroke-miterlimit: 10;fill:#E7E7E7;fill-opacity:1; fill-rule: nonzero; opacity: 1; white-space: pre" ><tspan x="-15" y="7.48" fill="rgba(231,231,231,1)">India</tspan></text></g><g transform=" matrix(1 0 0 1 623.5 480.5) "><text xml:space="preserve" font-family="Verdana" font-size="11" font-weight="normal" style="stroke: none; stroke-width: 1; stroke-dasharray: none; stroke-linecap: butt; stroke-linejoin: miter; stroke-miterlimit: 10;fill:#E7E7E7;fill-opacity:1; fill-rule: nonzero; opacity: 1; white-space: pre" ><tspan x="-16.5" y="7.48" fill="rgba(231,231,231,1)">Spain</tspan></text></g><g transform=" matrix(1 0 0 1 698.5 480.5) "><text xml:space="preserve" font-family="Verdana" font-size="11" font-weight="normal" style="stroke: none; stroke-width: 1; stroke-dasharray: none; stroke-linecap: butt; stroke-linejoin: miter; stroke-miterlimit: 10;fill:#E7E7E7;fill-opacity:1; fill-rule: nonzero; opacity: 1; white-space: pre" ><tspan x="-34.5" y="7.48" fill="rgba(231,231,231,1)">Netherlands</tspan></text></g><g transform=" matrix(1 0 0 1 773.5 480.5) "><text xml:space="preserve" font-family="Verdana" font-size="11" font-weight="normal" style="stroke: none; stroke-width: 1; stroke-dasharray: none; stroke-linecap: butt; stroke-linejoin: miter; stroke-miterlimit: 10;fill:#E7E7E7;fill-opacity:1; fill-rule: nonzero; opacity: 1; white-space: pre" ><tspan x="-19" y="7.48" fill="rgba(231,231,231,1)">Russia</tspan></text></g><g transform=" matrix(1 0 0 1 848.5 480.5) "><text xml:space="preserve" font-family="Verdana" font-size="11" font-weight="normal" style="stroke: none; stroke-width: 1; stroke-dasharray: none; stroke-linecap: butt; stroke-linejoin: miter; stroke-miterlimit: 10;fill:#E7E7E7;fill-opacity:1; fill-rule: nonzero; opacity: 1; white-space: pre" ><tspan x="-36" y="7.48" fill="rgba(231,231,231,1)">South Korea</tspan></text></g><g transform=" matrix(1 0 0 1 923.5 480.5) "><text xml:space="preserve" font-family="Verdana" font-size="11" font-weight="normal" style="stroke: none; stroke-width: 1; stroke-dasharray: none; stroke-linecap: butt; stroke-linejoin: miter; stroke-miterlimit: 10;fill:#E7E7E7;fill-opacity:1; fill-rule: nonzero; opacity: 1; white-space: pre" ><tspan x="-22.5" y="7.48" fill="rgba(231,231,231,1)">Canada</tspan></text></g><g transform=" matrix(1 0 0 1 998.5 480.5) "><text xml:space="preserve" font-family="Verdana" font-size="11" font-weight="normal" style="stroke: none; stroke-width: 1; stroke-dasharray: none; stroke-linecap: butt; stroke-linejoin: miter; stroke-miterlimit: 10;fill:#E7E7E7;fill-opacity:1; fill-rule: nonzero; opacity: 1; white-space: pre" ><tspan x="-16.5" y="7.48" fill="rgba(231,231,231,1)">Brazil</tspan></text></g><g transform=" matrix(1 0 0 1 48 466) "><text xml:space="preserve" font-family="Verdana" font-size="11" font-weight="normal" style="stroke: none; stroke-width: 1; stroke-dasharray: none; stroke-linecap: butt; stroke-linejoin: miter; stroke-miterlimit: 10;fill:#E7E7E7;fill-opacity:1; fill-rule: nonzero; opacity: 1; white-space: pre" ><tspan x="-22" y="7.48" fill="rgba(231,231,231,1)">200</tspan></text></g><g transform=" matrix(1 0 0 1 48 421) "><text xml:space="preserve" font-family="Verdana" font-size="11" font-weight="normal" style="stroke: none; stroke-width: 1; stroke-dasharray: none; stroke-linecap: butt; stroke-linejoin: miter; stroke-miterlimit: 10;fill:#E7E7E7;fill-opacity:1; fill-rule: nonzero; opacity: 1; white-space: pre" ><tspan x="-22" y="7.48" fill="rgba(231,231,231,1)">400</tspan></text></g><g transform=" matrix(1 0 0 1 48 376) "><text xml:space="preserve" font-family="Verdana" font-size="11" font-weight="normal" style="stroke: none; stroke-width: 1; stroke-dasharray: none; stroke-linecap: butt; stroke-linejoin: miter; stroke-miterlimit: 10;fill:#E7E7E7;fill-opacity:1; fill-rule: nonzero; opacity: 1; white-space: pre" ><tspan x="-22" y="7.48" fill="rgba(231,231,231,1)">600</tspan></text></g><g transform=" matrix(1 0 0 1 48 332) "><text xml:space="preserve" font-family="Verdana" font-size="11" font-weight="normal" style="stroke: none; stroke-width: 1; stroke-dasharray: none; stroke-linecap: butt; stroke-linejoin: miter; stroke-miterlimit: 10;fill:#E7E7E7;fill-opacity:1; fill-rule: nonzero; opacity: 1; white-space: pre" ><tspan x="-22" y="7.48" fill="rgba(231,231,231,1)">800</tspan></text></g><g transform=" matrix(1 0 0 1 48 287) "><text xml:space="preserve" font-family="Verdana" font-size="11" font-weight="normal" style="stroke: none; stroke-width: 1; stroke-dasharray: none; stroke-linecap: butt; stroke-linejoin: miter; stroke-miterlimit: 10;fill:#E7E7E7;fill-opacity:1; fill-rule: nonzero; opacity: 1; white-space: pre" ><tspan x="-33" y="7.48" fill="rgba(231,231,231,1)">1,000</tspan></text></g><g transform=" matrix(1 0 0 1 48 242) "><text xml:space="preserve" font-family="Verdana" font-size="11" font-weight="normal" style="stroke: none; stroke-width: 1; stroke-dasharray: none; stroke-linecap: butt; stroke-linejoin: miter; stroke-miterlimit: 10;fill:#E7E7E7;fill-opacity:1; fill-rule: nonzero; opacity: 1; white-space: pre" ><tspan x="-33" y="7.48" fill="rgba(231,231,231,1)">1,200</tspan></text></g><g transform=" matrix(1 0 0 1 48 197) "><text xml:space="preserve" font-family="Verdana" font-size="11" font-weight="normal" style="stroke: none; stroke-width: 1; stroke-dasharray: none; stroke-linecap: butt; stroke-linejoin: miter; stroke-miterlimit: 10;fill:#E7E7E7;fill-opacity:1; fill-rule: nonzero; opacity: 1; white-space: pre" ><tspan x="-33" y="7.48" fill="rgba(231,231,231,1)">1,400</tspan></text></g><g transform=" matrix(1 0 0 1 48 152) "><text xml:space="preserve" font-family="Verdana" font-size="11" font-weight="normal" style="stroke: none; stroke-width: 1; stroke-dasharray: none; stroke-linecap: butt; stroke-linejoin: miter; stroke-miterlimit: 10;fill:#E7E7E7;fill-opacity:1; fill-rule: nonzero; opacity: 1; white-space: pre" ><tspan x="-33" y="7.48" fill="rgba(231,231,231,1)">1,600</tspan></text></g><g transform=" matrix(1 0 0 1 48 108) "><text xml:space="preserve" font-family="Verdana" font-size="11" font-weight="normal" style="stroke: none; stroke-width: 1; stroke-dasharray: none; stroke-linecap: butt; stroke-linejoin: miter; stroke-miterlimit: 10;fill:#E7E7E7;fill-opacity:1; fill-rule: nonzero; opacity: 1; white-space: pre" ><tspan x="-33" y="7.48" fill="rgba(231,231,231,1)">1,800</tspan></text></g><g transform=" matrix(1 0 0 1 48 63) "><text xml:space="preserve" font-family="Verdana" font-size="11" font-weight="normal" style="stroke: none; stroke-width: 1; stroke-dasharray: none; stroke-linecap: butt; stroke-linejoin: miter; stroke-miterlimit: 10;fill:#E7E7E7;fill-opacity:1; fill-rule: nonzero; opacity: 1; white-space: pre" ><tspan x="-33" y="7.48" fill="rgba(231,231,231,1)">2,000</tspan></text></g><g transform=" matrix(1 0 0 1 48 18) "><text xml:space="preserve" font-family="Verdana" font-size="11" font-weight="normal" style="stroke: none; stroke-width: 1; stroke-dasharray: none; stroke-linecap: butt; stroke-linejoin: miter; stroke-miterlimit: 10;fill:#E7E7E7;fill-opacity:1; fill-rule: nonzero; opacity: 1; white-space: pre" ><tspan x="-33" y="7.48" fill="rgba(231,231,231,1)">2,200</tspan></text></g><path d="M 1.5 0.5 L 1.5 20.5" style="stroke:#FFFFFF;stroke-opacity:1; stroke-opacity: 0.3; stroke-width: 1; stroke-dasharray: none; stroke-linecap: butt; stroke-linejoin: miter; stroke-miterlimit: 10; fill: none; fill-rule: nonzero; opacity: 1" transform=" matrix(1 0 0 1 60 468) " stroke-linecap="round" /><path d="M 76.5 0.5 L 76.5 20.5" style="stroke:#FFFFFF;stroke-opacity:1; stroke-opacity: 0.3; stroke-width: 1; stroke-dasharray: none; stroke-linecap: butt; stroke-linejoin: miter; stroke-miterlimit: 10; fill: none; fill-rule: nonzero; opacity: 1" transform=" matrix(1 0 0 1 60 468) " stroke-linecap="round" /><path d="M 151.5 0.5 L 151.5 20.5" style="stroke:#FFFFFF;stroke-opacity:1; stroke-opacity: 0.3; stroke-width: 1; stroke-dasharray: none; stroke-linecap: butt; stroke-linejoin: miter; stroke-miterlimit: 10; fill: none; fill-rule: nonzero; opacity: 1" transform=" matrix(1 0 0 1 60 468) " stroke-linecap="round" /><path d="M 226.5 0.5 L 226.5 20.5" style="stroke:#FFFFFF;stroke-opacity:1; stroke-opacity: 0.3; stroke-width: 1; stroke-dasharray: none; stroke-linecap: butt; stroke-linejoin: miter; stroke-miterlimit: 10; fill: none; fill-rule: nonzero; opacity: 1" transform=" matrix(1 0 0 1 60 468) " stroke-linecap="round" /><path d="M 301.5 0.5 L 301.5 20.5" style="stroke:#FFFFFF;stroke-opacity:1; stroke-opacity: 0.3; stroke-width: 1; stroke-dasharray: none; stroke-linecap: butt; stroke-linejoin: miter; stroke-miterlimit: 10; fill: none; fill-rule: nonzero; opacity: 1" transform=" matrix(1 0 0 1 60 468) " stroke-linecap="round" /><path d="M 376.5 0.5 L 376.5 20.5" style="stroke:#FFFFFF;stroke-opacity:1; stroke-opacity: 0.3; stroke-width: 1; stroke-dasharray: none; stroke-linecap: butt; stroke-linejoin: miter; stroke-miterlimit: 10; fill: none; fill-rule: nonzero; opacity: 1" transform=" matrix(1 0 0 1 60 468) " stroke-linecap="round" /><path d="M 451.5 0.5 L 451.5 20.5" style="stroke:#FFFFFF;stroke-opacity:1; stroke-opacity: 0.3; stroke-width: 1; stroke-dasharray: none; stroke-linecap: butt; stroke-linejoin: miter; stroke-miterlimit: 10; fill: none; fill-rule: nonzero; opacity: 1" transform=" matrix(1 0 0 1 60 468) " stroke-linecap="round" /><path d="M 526.5 0.5 L 526.5 20.5" style="stroke:#FFFFFF;stroke-opacity:1; stroke-opacity: 0.3; stroke-width: 1; stroke-dasharray: none; stroke-linecap: butt; stroke-linejoin: miter; stroke-miterlimit: 10; fill: none; fill-rule: nonzero; opacity: 1" transform=" matrix(1 0 0 1 60 468) " stroke-linecap="round" /><path d="M 601.5 0.5 L 601.5 20.5" style="stroke:#FFFFFF;stroke-opacity:1; stroke-opacity: 0.3; stroke-width: 1; stroke-dasharray: none; stroke-linecap: butt; stroke-linejoin: miter; stroke-miterlimit: 10; fill: none; fill-rule: nonzero; opacity: 1" transform=" matrix(1 0 0 1 60 468) " stroke-linecap="round" /><path d="M 676.5 0.5 L 676.5 20.5" style="stroke:#FFFFFF;stroke-opacity:1; stroke-opacity: 0.3; stroke-width: 1; stroke-dasharray: none; stroke-linecap: butt; stroke-linejoin: miter; stroke-miterlimit: 10; fill: none; fill-rule: nonzero; opacity: 1" transform=" matrix(1 0 0 1 60 468) " stroke-linecap="round" /><path d="M 751.5 0.5 L 751.5 20.5" style="stroke:#FFFFFF;stroke-opacity:1; stroke-opacity: 0.3; stroke-width: 1; stroke-dasharray: none; stroke-linecap: butt; stroke-linejoin: miter; stroke-miterlimit: 10; fill: none; fill-rule: nonzero; opacity: 1" transform=" matrix(1 0 0 1 60 468) " stroke-linecap="round" /><path d="M 826.5 0.5 L 826.5 20.5" style="stroke:#FFFFFF;stroke-opacity:1; stroke-opacity: 0.3; stroke-width: 1; stroke-dasharray: none; stroke-linecap: butt; stroke-linejoin: miter; stroke-miterlimit: 10; fill: none; fill-rule: nonzero; opacity: 1" transform=" matrix(1 0 0 1 60 468) " stroke-linecap="round" /><path d="M 901.5 0.5 L 901.5 20.5" style="stroke:#FFFFFF;stroke-opacity:1; stroke-opacity: 0.3; stroke-width: 1; stroke-dasharray: none; stroke-linecap: butt; stroke-linejoin: miter; stroke-miterlimit: 10; fill: none; fill-rule: nonzero; opacity: 1" transform=" matrix(1 0 0 1 60 468) " stroke-linecap="round" /><path d="M 976.5 0.5 L 976.5 20.5" style="stroke:#FFFFFF;stroke-opacity:1; stroke-opacity: 0.3; stroke-width: 1; stroke-dasharray: none; stroke-linecap: butt; stroke-linejoin: miter; stroke-miterlimit: 10; fill: none; fill-rule: nonzero; opacity: 1" transform=" matrix(1 0 0 1 60 468) " stroke-linecap="round" /><path d="M 0.5 448.5 L 6.5 448.5" style="stroke:#FFFFFF;stroke-opacity:1; stroke-opacity: 0.3; stroke-width: 1; stroke-dasharray: none; stroke-linecap: butt; stroke-linejoin: miter; stroke-miterlimit: 10; fill: none; fill-rule: nonzero; opacity: 1" transform=" matrix(1 0 0 1 54 20) " stroke-linecap="round" /><path d="M 0.5 448.5 L 0.5 448.5 L 975.5 448.5" style="stroke:#FFFFFF;stroke-opacity:1; stroke-opacity: 0.2; stroke-width: 1; stroke-dasharray: none; stroke-linecap: butt; stroke-linejoin: miter; stroke-miterlimit: 10; fill: none; fill-rule: nonzero; opacity: 1" transform=" matrix(1 0 0 1 60 20) " stroke-linecap="round" /><path d="M 0.5 403.5 L 6.5 403.5" style="stroke:#FFFFFF;stroke-opacity:1; stroke-opacity: 0.3; stroke-width: 1; stroke-dasharray: none; stroke-linecap: butt; stroke-linejoin: miter; stroke-miterlimit: 10; fill: none; fill-rule: nonzero; opacity: 1" transform=" matrix(1 0 0 1 54 20) " stroke-linecap="round" /><path d="M 0.5 403.5 L 0.5 403.5 L 975.5 403.5" style="stroke:#FFFFFF;stroke-opacity:1; stroke-opacity: 0.2; stroke-width: 1; stroke-dasharray: none; stroke-linecap: butt; stroke-linejoin: miter; stroke-miterlimit: 10; fill: none; fill-rule: nonzero; opacity: 1" transform=" matrix(1 0 0 1 60 20) " stroke-linecap="round" /><path d="M 0.5 358.5 L 6.5 358.5" style="stroke:#FFFFFF;stroke-opacity:1; stroke-opacity: 0.3; stroke-width: 1; stroke-dasharray: none; stroke-linecap: butt; stroke-linejoin: miter; stroke-miterlimit: 10; fill: none; fill-rule: nonzero; opacity: 1" transform=" matrix(1 0 0 1 54 20) " stroke-linecap="round" /><path d="M 0.5 358.5 L 0.5 358.5 L 975.5 358.5" style="stroke:#FFFFFF;stroke-opacity:1; stroke-opacity: 0.2; stroke-width: 1; stroke-dasharray: none; stroke-linecap: butt; stroke-linejoin: miter; stroke-miterlimit: 10; fill: none; fill-rule: nonzero; opacity: 1" transform=" matrix(1 0 0 1 60 20) " stroke-linecap="round" /><path d="M 0.5 314.5 L 6.5 314.5" style="stroke:#FFFFFF;stroke-opacity:1; stroke-opacity: 0.3; stroke-width: 1; stroke-dasharray: none; stroke-linecap: butt; stroke-linejoin: miter; stroke-miterlimit: 10; fill: none; fill-rule: nonzero; opacity: 1" transform=" matrix(1 0 0 1 54 20) " stroke-linecap="round" /><path d="M 0.5 314.5 L 0.5 314.5 L 975.5 314.5" style="stroke:#FFFFFF;stroke-opacity:1; stroke-opacity: 0.2; stroke-width: 1; stroke-dasharray: none; stroke-linecap: butt; stroke-linejoin: miter; stroke-miterlimit: 10; fill: none; fill-rule: nonzero; opacity: 1" transform=" matrix(1 0 0 1 60 20) " stroke-linecap="round" /><path d="M 0.5 269.5 L 6.5 269.5" style="stroke:#FFFFFF;stroke-opacity:1; stroke-opacity: 0.3; stroke-width: 1; stroke-dasharray: none; stroke-linecap: butt; stroke-linejoin: miter; stroke-miterlimit: 10; fill: none; fill-rule: nonzero; opacity: 1" transform=" matrix(1 0 0 1 54 20) " stroke-linecap="round" /><path d="M 0.5 269.5 L 0.5 269.5 L 975.5 269.5" style="stroke:#FFFFFF;stroke-opacity:1; stroke-opacity: 0.2; stroke-width: 1; stroke-dasharray: none; stroke-linecap: butt; stroke-linejoin: miter; stroke-miterlimit: 10; fill: none; fill-rule: nonzero; opacity: 1" transform=" matrix(1 0 0 1 60 20) " stroke-linecap="round" /><path d="M 0.5 224.5 L 6.5 224.5" style="stroke:#FFFFFF;stroke-opacity:1; stroke-opacity: 0.3; stroke-width: 1; stroke-dasharray: none; stroke-linecap: butt; stroke-linejoin: miter; stroke-miterlimit: 10; fill: none; fill-rule: nonzero; opacity: 1" transform=" matrix(1 0 0 1 54 20) " stroke-linecap="round" /><path d="M 0.5 224.5 L 0.5 224.5 L 975.5 224.5" style="stroke:#FFFFFF;stroke-opacity:1; stroke-opacity: 0.2; stroke-width: 1; stroke-dasharray: none; stroke-linecap: butt; stroke-linejoin: miter; stroke-miterlimit: 10; fill: none; fill-rule: nonzero; opacity: 1" transform=" matrix(1 0 0 1 60 20) " stroke-linecap="round" /><path d="M 0.5 179.5 L 6.5 179.5" style="stroke:#FFFFFF;stroke-opacity:1; stroke-opacity: 0.3; stroke-width: 1; stroke-dasharray: none; stroke-linecap: butt; stroke-linejoin: miter; stroke-miterlimit: 10; fill: none; fill-rule: nonzero; opacity: 1" transform=" matrix(1 0 0 1 54 20) " stroke-linecap="round" /><path d="M 0.5 179.5 L 0.5 179.5 L 975.5 179.5" style="stroke:#FFFFFF;stroke-opacity:1; stroke-opacity: 0.2; stroke-width: 1; stroke-dasharray: none; stroke-linecap: butt; stroke-linejoin: miter; stroke-miterlimit: 10; fill: none; fill-rule: nonzero; opacity: 1" transform=" matrix(1 0 0 1 60 20) " stroke-linecap="round" /><path d="M 0.5 134.5 L 6.5 134.5" style="stroke:#FFFFFF;stroke-opacity:1; stroke-opacity: 0.3; stroke-width: 1; stroke-dasharray: none; stroke-linecap: butt; stroke-linejoin: miter; stroke-miterlimit: 10; fill: none; fill-rule: nonzero; opacity: 1" transform=" matrix(1 0 0 1 54 20) " stroke-linecap="round" /><path d="M 0.5 134.5 L 0.5 134.5 L 975.5 134.5" style="stroke:#FFFFFF;stroke-opacity:1; stroke-opacity: 0.2; stroke-width: 1; stroke-dasharray: none; stroke-linecap: butt; stroke-linejoin: miter; stroke-miterlimit: 10; fill: none; fill-rule: nonzero; opacity: 1" transform=" matrix(1 0 0 1 60 20) " stroke-linecap="round" /><path d="M 0.5 90.5 L 6.5 90.5" style="stroke:#FFFFFF;stroke-opacity:1; stroke-opacity: 0.3; stroke-width: 1; stroke-dasharray: none; stroke-linecap: butt; stroke-linejoin: miter; stroke-miterlimit: 10; fill: none; fill-rule: nonzero; opacity: 1" transform=" matrix(1 0 0 1 54 20) " stroke-linecap="round" /><path d="M 0.5 90.5 L 0.5 90.5 L 975.5 90.5" style="stroke:#FFFFFF;stroke-opacity:1; stroke-opacity: 0.2; stroke-width: 1; stroke-dasharray: none; stroke-linecap: butt; stroke-linejoin: miter; stroke-miterlimit: 10; fill: none; fill-rule: nonzero; opacity: 1" transform=" matrix(1 0 0 1 60 20) " stroke-linecap="round" /><path d="M 0.5 45.5 L 6.5 45.5" style="stroke:#FFFFFF;stroke-opacity:1; stroke-opacity: 0.3; stroke-width: 1; stroke-dasharray: none; stroke-linecap: butt; stroke-linejoin: miter; stroke-miterlimit: 10; fill: none; fill-rule: nonzero; opacity: 1" transform=" matrix(1 0 0 1 54 20) " stroke-linecap="round" /><path d="M 0.5 45.5 L 0.5 45.5 L 975.5 45.5" style="stroke:#FFFFFF;stroke-opacity:1; stroke-opacity: 0.2; stroke-width: 1; stroke-dasharray: none; stroke-linecap: butt; stroke-linejoin: miter; stroke-miterlimit: 10; fill: none; fill-rule: nonzero; opacity: 1" transform=" matrix(1 0 0 1 60 20) " stroke-linecap="round" /><path d="M 0.5 0.5 L 6.5 0.5" style="stroke:#FFFFFF;stroke-opacity:1; stroke-opacity: 0.3; stroke-width: 1; stroke-dasharray: none; stroke-linecap: butt; stroke-linejoin: miter; stroke-miterlimit: 10; fill: none; fill-rule: nonzero; opacity: 1" transform=" matrix(1 0 0 1 54 20) " stroke-linecap="round" /><path d="M 0.5 0.5 L 0.5 0.5 L 975.5 0.5" style="stroke:#FFFFFF;stroke-opacity:1; stroke-opacity: 0.2; stroke-width: 1; stroke-dasharray: none; stroke-linecap: butt; stroke-linejoin: miter; stroke-miterlimit: 10; fill: none; fill-rule: nonzero; opacity: 1" transform=" matrix(1 0 0 1 60 20) " stroke-linecap="round" /></g><clipPath xmlns="http://www.w3.org/2000/svg" id="AmChartsEl-8"><rect x="0" y="0" width="975" height="448" rx="0" ry="0" stroke-width="0" fill="none" fill-opacity="0"/></clipPath></svg>
