<?xml version="1.0" encoding="utf-8"?>
<!-- Business Intelligence © 2015 -->
<svg version="1.1" id="iFile" width="354" height="111" xmlns="http://www.w3.org/2000/svg" xmlns:xlink="http://www.w3.org/1999/xlink" x="0px"
	 y="0px" viewBox="-128 341 354 111" enable-background="new -128 341 354 111" xml:space="preserve">
<g>
	<g>
		<g>
			<text transform="matrix(1 0 0 1 29.3389 399.8965)" fill="#00AEEF" font-family="'Arial'" font-size="47.0328px">IntelliFile</text>
			<text transform="matrix(1 0 0 1 29.3389 427.5645)" fill="#BCBEC0" font-family="'Arial'" font-size="27.6664px">Solutions</text>
		</g>
	</g>
	<g>
		<g>
			<polygon fill="none" stroke="#D1D3D4" stroke-width="0.2881" stroke-miterlimit="3.8637" points="-91.6,448.8 11.1,448.8 
				11.1,346.1 			"/>
		</g>
		<g>
			<path fill="#A7A9AC" d="M-96.9,396.2c0,0.1-0.2,0.3-0.4,0.7l-1.7,2.3c-4.9,6.8-8.6,10.2-11.1,10.2c-1.2,0-2.2-0.5-3.1-1.3
				c-0.8-0.8-1.2-2-1.2-3.3c0-1.5,0.9-3.7,2.7-6.8l6.1-10.3c0.9,0,3.5,0,4.9,0l-8.9,14.4c-1.3,2.1-1.9,3.7-1.9,4.9s0.7,1.8,1.9,1.8
				c2.3,0,6.3-4.1,12.1-12.4c0.1-0.3,0.3-0.4,0.4-0.4S-96.9,396-96.9,396.2z"/>
		</g>
		<g>
			<g>
				<path fill="#00AEEF" d="M-104.4,381c0-0.8,0.3-1.6,0.9-2.2s1.4-0.9,2.2-0.9c0.9,0,1.7,0.3,2.2,0.9c0.7,0.7,0.9,1.4,0.9,2.2
					c0,0.8-0.3,1.6-0.9,2.2c-0.7,0.7-1.4,0.9-2.2,0.9s-1.6-0.3-2.2-0.9C-104.1,382.6-104.4,381.9-104.4,381z"/>
				<path fill="none" d="M-104.4,381c0-0.8,0.3-1.6,0.9-2.2s1.4-0.9,2.2-0.9c0.9,0,1.7,0.3,2.2,0.9c0.7,0.7,0.9,1.4,0.9,2.2
					c0,0.8-0.3,1.6-0.9,2.2c-0.7,0.7-1.4,0.9-2.2,0.9s-1.6-0.3-2.2-0.9C-104.1,382.6-104.4,381.9-104.4,381z"/>
			</g>
		</g>
		<g>
			<g>
				<g enable-background="new    ">
					<path fill="#A7A9AC" d="M-53.3,392.2v-4h-1.2v-0.5h3v0.5h-1.2v4H-53.3z"/>
					<path fill="#A7A9AC" d="M-51,392.2v-4.6h0.7l0.9,3.2l0.2,0.7c0-0.2,0.1-0.4,0.2-0.7l0.9-3.2h0.7v4.6h-0.5v-3.8l-1.1,3.8h-0.4
						l-1.1-3.9v3.9H-51z"/>
				</g>
			</g>
		</g>
		<g>
			<g>
				<g enable-background="new    ">
					<path d="M-95.8,404.5v-16.8h9.3v2h-7.5v5.2h6.5v2h-6.5v7.6H-95.8z"/>
					<path d="M-83.8,404.5v-16.8h1.8v16.8H-83.8z"/>
					<path d="M-78.9,404.5v-16.8h1.8v14.8h6.8v2H-78.9z"/>
					<path d="M-68,404.5v-16.8h10v2h-8.1v5.1h7.6v2h-7.6v5.7h8.5v2H-68z"/>
				</g>
			</g>
		</g>
		<g>
			<g>
				
					<line fill="none" stroke="#BCBEC0" stroke-width="0.1864" stroke-miterlimit="3.8637" x1="-91.6" y1="346.1" x2="-5.2" y2="346.1"/>
			</g>
			<g>
				
					<line fill="none" stroke="#BCBEC0" stroke-width="0.1864" stroke-miterlimit="3.8637" x1="-91.6" y1="346.1" x2="-91.6" y2="379.2"/>
			</g>
			<g>
				
					<line fill="none" stroke="#BCBEC0" stroke-width="0.1864" stroke-miterlimit="3.8637" x1="-91.6" y1="408.1" x2="-91.6" y2="432.6"/>
			</g>
		</g>
	</g>
</g>
</svg>
