<?xml version="1.0" encoding="utf-8"?>
<!-- Business Intelligence © 2015 -->
<svg version="1.1" id="Bi" width="164" height="47" xmlns="http://www.w3.org/2000/svg" xmlns:xlink="http://www.w3.org/1999/xlink" x="0px" y="0px"
	 viewBox="-216.5 370 171 54" enable-background="new -216.5 370 171 54" xml:space="preserve">
<g>
	<g>
		<g>
			<g>
				<path fill="#BCBEC0" d="M-79.1,379.9v-4.6h-1.4v-0.6h3.4v0.6h-1.4v4.6H-79.1z"/>
				<path fill="#BCBEC0" d="M-76.5,379.9v-5.2h0.8l1,3.7l0.2,0.8c0-0.2,0.1-0.5,0.2-0.8l1-3.6h0.8v5.2H-73v-4.5l-1.2,4.3h-0.5
					l-1.3-4.4v4.4h-0.5V379.9z"/>
			</g>
		</g>
	</g>
	<g>
		<g>
			<g>
				<path d="M-159.2,393.4v-13.5h4.2c0.8,0,1.5,0.1,2,0.4c0.5,0.3,0.9,0.7,1.2,1.2c0.3,0.6,0.5,1.2,0.5,1.8c0,0.6-0.1,1.2-0.4,1.7
					c-0.3,0.5-0.7,0.9-1.1,1.2c0.6,0.2,1.1,0.6,1.5,1.2s0.6,1.3,0.6,2.1s-0.2,1.5-0.5,2.2c-0.3,0.6-0.8,1.1-1.3,1.3
					c-0.6,0.3-1.3,0.4-2.3,0.4H-159.2z M-157.7,385.6h2.4c0.6,0,1.1,0,1.3-0.1c0.4-0.1,0.7-0.3,0.9-0.6c0.2-0.3,0.3-0.7,0.3-1.2
					s-0.1-0.9-0.3-1.2c-0.2-0.3-0.4-0.5-0.7-0.7c-0.3-0.1-0.9-0.2-1.7-0.2h-2.2V385.6z M-157.7,391.8h2.8c0.6,0,1.1-0.1,1.3-0.2
					c0.4-0.2,0.7-0.4,1-0.8c0.2-0.4,0.3-0.8,0.3-1.4c0-0.5-0.1-0.9-0.3-1.3c-0.2-0.4-0.5-0.6-0.8-0.8c-0.4-0.2-0.9-0.2-1.7-0.2h-2.6
					V391.8z"/>
				<path d="M-141.5,379.9h1.5v7.8c0,1.3-0.1,2.4-0.4,3.2c-0.3,0.8-0.7,1.5-1.4,2s-1.5,0.7-2.6,0.7c-1.5,0-2.6-0.4-3.3-1.3
					c-0.7-0.9-1.1-2.4-1.1-4.6v-7.8h1.5v7.8c0,1.2,0.1,2.1,0.3,2.7c0.2,0.5,0.5,1,0.9,1.2c0.4,0.3,1,0.4,1.6,0.4
					c1,0,1.8-0.3,2.3-0.9s0.7-1.7,0.7-3.4V379.9z"/>
				<path d="M-138.1,389l1.4-0.1c0.1,0.7,0.2,1.3,0.5,1.7s0.6,0.7,1.1,1c0.5,0.3,1,0.4,1.6,0.4c0.9,0,1.6-0.2,2-0.6
					c0.5-0.4,0.7-1,0.7-1.7c0-0.4-0.1-0.7-0.3-1c-0.2-0.3-0.4-0.5-0.8-0.7s-1.1-0.5-2.3-0.8c-1-0.3-1.8-0.6-2.2-0.9
					c-0.4-0.3-0.8-0.7-1-1.2s-0.4-1-0.4-1.6c0-1.1,0.4-2,1.1-2.7c0.7-0.7,1.7-1,2.9-1c0.8,0,1.5,0.2,2.2,0.5
					c0.6,0.3,1.1,0.8,1.4,1.4c0.3,0.6,0.5,1.3,0.5,2.1h-1.3c-0.1-0.9-0.3-1.5-0.8-2c-0.5-0.4-1.1-0.6-1.9-0.6
					c-0.8,0-1.5,0.2-1.9,0.6c-0.4,0.4-0.7,0.9-0.7,1.4s0.2,1,0.5,1.3s1,0.6,2.2,0.9c1.1,0.3,1.9,0.6,2.3,0.8
					c0.7,0.3,1.2,0.8,1.5,1.4s0.5,1.2,0.5,2c0,0.8-0.2,1.5-0.5,2.1c-0.4,0.6-0.9,1.1-1.5,1.5c-0.6,0.3-1.4,0.5-2.3,0.5
					c-1.4,0-2.5-0.4-3.3-1.2C-137.6,391.6-138.1,390.5-138.1,389z"/>
				<path d="M-127,393.4v-13.5h1.5v13.5H-127z"/>
				<path d="M-123,393.4v-13.5h1.5l5.8,10.6v-10.6h1.4v13.5h-1.5l-5.8-10.6v10.6H-123z"/>
				<path d="M-111.8,393.4v-13.5h8v1.6h-6.5v4.1h6.1v1.6h-6.1v4.6h6.8v1.6H-111.8z"/>
				<path d="M-102,389l1.4-0.1c0.1,0.7,0.2,1.3,0.5,1.7s0.6,0.7,1.1,1c0.5,0.3,1,0.4,1.6,0.4c0.9,0,1.6-0.2,2-0.6
					c0.5-0.4,0.7-1,0.7-1.7c0-0.4-0.1-0.7-0.3-1c-0.2-0.3-0.4-0.5-0.8-0.7s-1.1-0.5-2.3-0.8c-1-0.3-1.8-0.6-2.2-0.9
					c-0.4-0.3-0.8-0.7-1-1.2s-0.4-1-0.4-1.6c0-1.1,0.4-2,1.1-2.7c0.7-0.7,1.7-1,2.9-1c0.8,0,1.5,0.2,2.2,0.5
					c0.6,0.3,1.1,0.8,1.4,1.4c0.3,0.6,0.5,1.3,0.5,2.1l-1.4,0.1c-0.1-0.9-0.3-1.5-0.8-2c-0.5-0.4-1.1-0.6-1.9-0.6s-1.5,0.2-1.9,0.6
					s-0.7,0.9-0.7,1.4s0.2,1,0.5,1.3c0.3,0.3,1,0.6,2.2,0.9c1.1,0.3,1.9,0.6,2.3,0.8c0.7,0.3,1.2,0.8,1.5,1.4c0.3,0.6,0.5,1.2,0.5,2
					c0,0.8-0.2,1.5-0.5,2.1c-0.4,0.6-0.9,1.1-1.5,1.5c-0.6,0.3-1.4,0.5-2.3,0.5c-1.4,0-2.5-0.4-3.3-1.2
					C-101.5,391.6-101.9,390.5-102,389z"/>
				<path d="M-91.6,389l1.4-0.1c0.1,0.7,0.2,1.3,0.5,1.7s0.6,0.7,1.1,1c0.5,0.3,1,0.4,1.6,0.4c0.9,0,1.6-0.2,2-0.6
					c0.5-0.4,0.7-1,0.7-1.7c0-0.4-0.1-0.7-0.3-1c-0.2-0.3-0.4-0.5-0.8-0.7c-0.4-0.2-1.1-0.5-2.3-0.8c-1-0.3-1.8-0.6-2.2-0.9
					c-0.4-0.3-0.8-0.7-1-1.2s-0.4-1-0.4-1.6c0-1.1,0.4-2,1.1-2.7c0.7-0.7,1.7-1,2.9-1c0.8,0,1.5,0.2,2.2,0.5
					c0.6,0.3,1.1,0.8,1.4,1.4c0.3,0.6,0.5,1.3,0.5,2.1l-1.4,0.1c-0.1-0.9-0.3-1.5-0.8-2c-0.5-0.4-1.1-0.6-1.9-0.6
					c-0.8,0-1.5,0.2-1.9,0.6s-0.7,0.9-0.7,1.4s0.2,1,0.5,1.3c0.3,0.3,1,0.6,2.2,0.9c1.1,0.3,1.9,0.6,2.3,0.8
					c0.7,0.3,1.2,0.8,1.5,1.4c0.3,0.6,0.5,1.2,0.5,2c0,0.8-0.2,1.5-0.5,2.1s-0.9,1.1-1.5,1.5c-0.6,0.3-1.4,0.5-2.3,0.5
					c-1.4,0-2.5-0.4-3.3-1.2C-91.2,391.6-91.6,390.5-91.6,389z"/>
			</g>
			<g>
				<path d="M-158.8,412.3v-13.5h1.5v13.5H-158.8z"/>
				<path d="M-154.8,412.3v-13.5h1.5l5.8,10.6v-10.6h1.4v13.5h-1.5l-5.8-10.6v10.6H-154.8z"/>
				<path d="M-140.8,412.3v-11.9h-3.7v-1.6h8.8v1.6h-3.7v11.9H-140.8z"/>
				<path d="M-134.1,412.3v-13.5h8v1.6h-6.5v4.1h6.1v1.6h-6.1v4.6h6.8v1.6H-134.1z"/>
				<path d="M-123.9,412.3v-13.5h1.5v11.9h5.5v1.6H-123.9z"/>
				<path d="M-115.3,412.3v-13.5h1.5v11.9h5.5v1.6H-115.3z"/>
				<path d="M-106.3,412.3v-13.5h1.5v13.5H-106.3z"/>
				<path d="M-97.1,407v-1.6h4.7v5c-0.7,0.7-1.5,1.2-2.2,1.6c-0.8,0.4-1.6,0.5-2.4,0.5c-1.1,0-2-0.3-2.9-0.8c-0.8-0.5-1.5-1.3-2-2.4
					c-0.5-1-0.7-2.3-0.7-3.7c0-1.5,0.2-2.8,0.7-3.9c0.5-1.1,1.1-1.9,2-2.4s1.8-0.8,2.9-0.8c0.8,0,1.5,0.2,2.1,0.5s1.1,0.7,1.5,1.3
					c0.4,0.6,0.7,1.3,0.9,2.3l-1.3,0.4c-0.2-0.8-0.4-1.3-0.7-1.7c-0.3-0.4-0.6-0.7-1.1-0.9c-0.4-0.2-0.9-0.3-1.5-0.3
					c-0.8,0-1.5,0.2-2.1,0.6c-0.6,0.4-1,1-1.4,1.8s-0.5,1.8-0.5,3c0,1.8,0.4,3.2,1.1,4.1c0.8,0.9,1.7,1.4,3,1.4
					c0.6,0,1.2-0.1,1.8-0.4c0.6-0.3,1.1-0.6,1.4-1V407H-97.1z"/>
				<path d="M-90.2,412.3v-13.5h8v1.6h-6.5v4.1h6.1v1.6h-6.1v4.6h6.8v1.6H-90.2z"/>
				<path d="M-80,412.3v-13.5h1.5l5.8,10.6v-10.6h1.4v13.5h-1.5l-5.8-10.6v10.6H-80z"/>
				<path d="M-60.9,407.5l1.5,0.5c-0.3,1.5-0.9,2.7-1.7,3.4c-0.8,0.7-1.8,1.1-3,1.1c-1,0-1.9-0.3-2.6-0.8c-0.7-0.5-1.3-1.3-1.8-2.4
					c-0.5-1.1-0.7-2.4-0.7-3.9s0.2-2.7,0.7-3.8c0.5-1,1.1-1.8,1.9-2.3c0.8-0.5,1.7-0.8,2.7-0.8c1.1,0,2,0.3,2.8,1s1.3,1.6,1.6,2.9
					l-1.4,0.4c-0.5-1.9-1.5-2.8-3-2.8c-0.7,0-1.4,0.2-1.9,0.6s-1,1-1.3,1.8c-0.3,0.8-0.5,1.8-0.5,3c0,1.9,0.3,3.2,1,4.2
					c0.7,0.9,1.5,1.4,2.6,1.4c0.8,0,1.5-0.3,2.1-0.9C-61.5,409.6-61.1,408.7-60.9,407.5z"/>
				<path d="M-57.5,412.3v-13.5h8v1.6H-56v4.1h6.1v1.6H-56v4.6h6.8v1.6H-57.5z"/>
			</g>
		</g>
	</g>
	<g>
		<g>
			<polygon fill="#D1D3D4" points="-208,374 -170.7,374 -170.7,414.5 			"/>
		</g>
		<g>
			<rect x="-212.2" y="379.7" width="37.3" height="40.5"/>
		</g>
		<g>
			<path fill="#FFFFFF" d="M-207.7,415.9v-32.2h9.9c2,0,3.6,0.3,4.8,0.9s2.1,1.6,2.9,2.9c0.7,1.3,1.1,2.8,1.1,4.4c0,1.5-0.3,2.8-1,4
				c-0.6,1.2-1.6,2.1-2.7,2.9c1.5,0.6,2.7,1.5,3.6,2.8c0.9,1.3,1.3,3,1.3,5s-0.4,3.7-1.2,5.1c-0.8,1.5-1.9,2.5-3.2,3.2
				c-1.3,0.7-3.2,1-5.5,1H-207.7z"/>
		</g>
		<g>
			<rect x="-183.8" y="400.7" fill="#FFFFFF" width="3.2" height="15.3"/>
		</g>
		<g>
			<path fill="#00AEEF" d="M-184.9,394.6c0-0.7,0.3-1.4,0.8-1.9s1.2-0.8,1.9-0.8c0.8,0,1.4,0.3,1.9,0.8s0.8,1.2,0.8,1.9
				c0,0.7-0.3,1.4-0.8,1.9s-1.2,0.8-1.9,0.8s-1.4-0.3-1.9-0.8S-184.9,395.4-184.9,394.6z"/>
			<path fill="none" d="M-184.9,394.6c0-0.7,0.3-1.4,0.8-1.9s1.2-0.8,1.9-0.8c0.8,0,1.4,0.3,1.9,0.8s0.8,1.2,0.8,1.9
				c0,0.7-0.3,1.4-0.8,1.9s-1.2,0.8-1.9,0.8s-1.4-0.3-1.9-0.8S-184.9,395.4-184.9,394.6z"/>
		</g>
		<g>
			<path d="M-204.2,412.2h6.6c1.4,0,2.5-0.1,3.2-0.4c1-0.4,1.8-1,2.3-1.9s0.8-2,0.8-3.3c0-1.2-0.2-2.3-0.7-3.1s-1.2-1.5-2-1.9
				s-2.2-0.6-4-0.6h-6.1L-204.2,412.2L-204.2,412.2z"/>
		</g>
		<g>
			<path d="M-204.2,397.3h5.7c1.5,0,2.6-0.1,3.2-0.3c0.9-0.3,1.6-0.8,2.1-1.6c0.5-0.7,0.7-1.7,0.7-3c0-1.2-0.2-2.1-0.7-2.9
				c-0.4-0.8-1-1.3-1.8-1.6c-0.7-0.3-2.1-0.4-4-0.4h-5.3v9.8H-204.2z"/>
		</g>
	</g>
</g>
</svg>
