<svg id="Layer_1" data-name="Layer 1" xmlns="http://www.w3.org/2000/svg" viewBox="0 0 148 82"><defs><style>.cls-1{fill-opacity:0.45;stroke:#252525;}.cls-2,.cls-3{fill:#fff;}.cls-3{fill-opacity:0.18;}.cls-4{fill:#09f;}.cls-5{fill:#cf9;}</style></defs><title>dsc-logo1</title><rect class="cls-1" x="0.5" y="0.5" width="147" height="81" rx="7" ry="7"/><path class="cls-2" d="M34.55,18.5h.9v45h-.9Zm-22,23v-1h45v1Z"/><path id="D" class="cls-3" d="M52.23,18.84H64a56.72,56.72,0,0,1,6.41.36,15.28,15.28,0,0,1,5.47,1.58,13.71,13.71,0,0,1,4.46,3.64A18.47,18.47,0,0,1,83,29.24a23.5,23.5,0,0,1,1.37,5.54,46.69,46.69,0,0,1,.36,5.72,40.87,40.87,0,0,1-.4,5.54A26.06,26.06,0,0,1,83,51.56a19.38,19.38,0,0,1-2.63,4.86,11.74,11.74,0,0,1-4.25,3.53,18,18,0,0,1-5.94,2,46.35,46.35,0,0,1-6.23.4H52.23ZM65,66.5a51,51,0,0,0,5.11-.25A26.7,26.7,0,0,0,75,65.31a20.31,20.31,0,0,0,4.46-1.91,16,16,0,0,0,3.92-3.24,18.85,18.85,0,0,0,3-4.28A26.87,26.87,0,0,0,88.3,51a34.75,34.75,0,0,0,1-5.22,43.5,43.5,0,0,0,.32-5.26,44.46,44.46,0,0,0-.4-5.65,33.35,33.35,0,0,0-1.37-6,26.58,26.58,0,0,0-2.63-5.69A15.77,15.77,0,0,0,81,18.54a18.53,18.53,0,0,0-3.71-2.09,20.56,20.56,0,0,0-3.92-1.19,29.2,29.2,0,0,0-4.1-.5q-2.09-.11-4.25-.11H47.33V66.5Z"/><path id="S" class="cls-4" d="M85.6,64.36a14.77,14.77,0,0,0,8.67,2.51q7,0,11-4.06t4-11a14.42,14.42,0,0,0-2.21-8.35q-2.21-3.22-8.79-6.84l-2.46-1.3q-8.93-4.68-8.93-10.09a8.11,8.11,0,0,1,2.25-6,8.21,8.21,0,0,1,6-2.23,9.75,9.75,0,0,1,4.87,1.16,7.84,7.84,0,0,1,3.18,3.38l3.62-2.18a12.24,12.24,0,0,0-4.66-4.9A13.35,13.35,0,0,0,95.5,12.8a13.56,13.56,0,0,0-9.62,3.45,11.63,11.63,0,0,0-3.71,8.93,11.48,11.48,0,0,0,2.57,7.52q2.57,3.13,10.34,7.24,6.08,3.24,7.93,5.7a10,10,0,0,1,1.85,6.19q0,5.1-2.74,8a10,10,0,0,1-7.63,2.88,10.65,10.65,0,0,1-6.63-2.09A11.07,11.07,0,0,1,84,54.71l-4,2.15A16.38,16.38,0,0,0,85.6,64.36Z"/><path id="c" class="cls-5" d="M131.59,36.27a17.5,17.5,0,0,0-4.41-1.57,24.63,24.63,0,0,0-5.29-.54q-7.63,0-12.39,4.76a16.76,16.76,0,0,0-4.76,12.39,16.49,16.49,0,0,0,4.57,12A15.63,15.63,0,0,0,121,68a26,26,0,0,0,5.94-.65,18.9,18.9,0,0,0,5.06-2V60.66a20.07,20.07,0,0,1-5.08,2.64,15.81,15.81,0,0,1-5.12.88,12.39,12.39,0,0,1-9.12-3.55,12.21,12.21,0,0,1-3.57-9q0-6.19,3.45-9.9A12,12,0,0,1,121.82,38a17.15,17.15,0,0,1,5.06.76A16.72,16.72,0,0,1,131.52,41Z"/></svg>