<?xml version="1.0" encoding="utf-8"?>
<!-- Business Intelligence © 2015 -->
<svg version="1.1" id="Ecosystem" width="264" height="290" xmlns="http://www.w3.org/2000/svg" xmlns:xlink="http://www.w3.org/1999/xlink" x="0px" y="0px"
	 viewBox="0 0 271 297" enable-background="new 0 0 271 297" xml:space="preserve">
<g>
	<g>
		<circle fill-rule="evenodd" clip-rule="evenodd" fill="#D1D3D4" cx="136.7" cy="150.2" r="89"/>
	</g>
	<g>
		<g>
			<text transform="matrix(1 0 0 1 105.0913 132.0446)" font-family="'Arial'" font-size="13.7133px">Enterprise </text>
			<text transform="matrix(1 0 0 1 70.3739 145.7583)" font-family="'Arial'" font-size="13.7133px">Content Management</text>
			<text transform="matrix(1 0 0 1 121.1247 173.1846)" fill="#FFFFFF" font-family="'Arial'" font-size="13.7133px">ECM</text>
			<text transform="matrix(1 0 0 1 102.8304 186.8984)" fill="#FFFFFF" font-family="'Arial'" font-size="13.7133px">Ecosystem</text>
		</g>
	</g>
	<g>
		<g>
			<circle fill="#D4EB8D" cx="136.7" cy="45.9" r="41.1"/>
			<path fill="#D4EB8D" d="M136.7,45.9"/>
		</g>
		<g>
			<circle fill="none" stroke="#FFFFFF" stroke-width="1.5" stroke-miterlimit="3.8637" cx="136.7" cy="45.9" r="41.1"/>
			<path fill="none" stroke="#FFFFFF" stroke-width="1.5" stroke-miterlimit="3.8637" d="M136.7,45.9"/>
		</g>
	</g>
	<g>
		<g>
			<text transform="matrix(1 0 0 1 113.7647 49.8405)" fill="#939598" font-family="'Arial'" font-size="9.5993px">CAPTURE</text>
		</g>
	</g>
	<g>
		<g>
			<circle fill="#D4EB8D" cx="136.7" cy="251.8" r="41.1"/>
			<path fill="#D4EB8D" d="M136.7,251.8"/>
		</g>
		<g>
			<circle fill="none" stroke="#FFFFFF" stroke-width="1.5" stroke-miterlimit="3.8637" cx="136.7" cy="251.8" r="41.1"/>
			<path fill="none" stroke="#FFFFFF" stroke-width="1.5" stroke-miterlimit="3.8637" d="M136.7,251.8"/>
		</g>
	</g>
	<g>
		<g>
			<text transform="matrix(1 0 0 1 113.5018 250.9454)" fill="#939598" font-family="'Arial'" font-size="9.5993px">CONTENT</text>
			<text transform="matrix(1 0 0 1 111.1018 260.5446)" fill="#939598" font-family="'Arial'" font-size="9.5993px">MODELING</text>
		</g>
	</g>
	<g>
		<g>
			<circle fill="#D4EB8D" cx="224.8" cy="198.9" r="41.1"/>
			<path fill="#D4EB8D" d="M224.8,198.9"/>
		</g>
		<g>
			<circle fill="none" stroke="#FFFFFF" stroke-width="1.5" stroke-miterlimit="3.8637" cx="224.8" cy="198.9" r="41.1"/>
			<path fill="none" stroke="#FFFFFF" stroke-width="1.5" stroke-miterlimit="3.8637" d="M224.8,198.9"/>
		</g>
	</g>
	<g>
		<g>
			<text transform="matrix(1 0 0 1 189.6177 202.823)" fill="#939598" font-family="'Arial'" font-size="9.5993px">AGGREGA</text>
			<text transform="matrix(1 0 0 1 237.4832 202.823)" fill="#939598" font-family="'Arial'" font-size="9.5993px">TION</text>
		</g>
	</g>
	<g>
		<g>
			<circle fill="#D4EB8D" cx="45.8" cy="198.9" r="41.1"/>
			<path fill="#D4EB8D" d="M45.8,198.9"/>
		</g>
		<g>
			<circle fill="none" stroke="#FFFFFF" stroke-width="1.5" stroke-miterlimit="3.8637" cx="45.8" cy="198.9" r="41.1"/>
			<path fill="none" stroke="#FFFFFF" stroke-width="1.5" stroke-miterlimit="3.8637" d="M45.8,198.9"/>
		</g>
	</g>
	<g>
		<g>
			<text transform="matrix(1 0 0 1 22.72 198.023)" fill="#939598" font-family="'Arial'" font-size="9.5993px">CONTENT</text>
			<text transform="matrix(1 0 0 1 11.5285 207.623)" fill="#939598" font-family="'Arial'" font-size="9.5993px">MANAGEMENT</text>
		</g>
	</g>
	<g>
		<g>
			<circle fill="#D4EB8D" cx="224.8" cy="95.4" r="41.1"/>
			<path fill="#D4EB8D" d="M224.8,95.4"/>
		</g>
		<g>
			<circle fill="none" stroke="#FFFFFF" stroke-width="1.5" stroke-miterlimit="3.8637" cx="224.8" cy="95.4" r="41.1"/>
			<path fill="none" stroke="#FFFFFF" stroke-width="1.5" stroke-miterlimit="3.8637" d="M224.8,95.4"/>
		</g>
	</g>
	<g>
		<g>
			<text transform="matrix(1 0 0 1 201.3712 99.2868)" fill="#939598" font-family="'Arial'" font-size="9.5993px">PROCESS</text>
		</g>
	</g>
	<g>
		<g>
			<circle fill="#D4EB8D" cx="45.8" cy="95.4" r="41.1"/>
			<path fill="#D4EB8D" d="M45.8,95.4"/>
		</g>
		<g>
			<circle fill="none" stroke="#FFFFFF" stroke-width="1.5" stroke-miterlimit="3.8637" cx="45.8" cy="95.4" r="41.1"/>
			<path fill="none" stroke="#FFFFFF" stroke-width="1.5" stroke-miterlimit="3.8637" d="M45.8,95.4"/>
		</g>
	</g>
	<g>
		<g>
			<text transform="matrix(1 0 0 1 12.753 94.4869)" fill="#939598" font-family="'Arial'" font-size="9.5993px">COMPLIANCE/ </text>
			<text transform="matrix(1 0 0 1 11.6944 104.0868)" fill="#939598" font-family="'Arial'" font-size="9.5993px">GOVERNANCE</text>
		</g>
	</g>
</g>
</svg>
