<svg xmlns="http://www.w3.org/2000/svg" viewBox="0 0 250.83 203.31"><defs><style>.cls-1{fill:#fbb03b;}.cls-2{fill:#666;}.cls-3{fill:#999;}</style></defs><title>Asset 5icon_pbtyn</title><g id="Layer_2" data-name="Layer 2"><g id="Layer_1-2" data-name="Layer 1"><path d="M103.78,203.31q0-46.18.1-92.37c0-2,.49-5.42,1.46-5.69a19.3,19.3,0,0,1,8.77-.05c.74.14,1.29,3.1,1.3,4.77.08,29,0,57.92.07,86.88,0,2.16.2,4.31.3,6.47Z"/><path class="cls-1" d="M234.43,66.76c0,3.58.08,7.16,0,10.74-.24,9,.44,18.11-1.07,26.87-3,17.19-18.56,29.44-35.93,29.55-9.67.06-19.33,0-29,0-14.24.11-25.06,9.49-26,23.68-.83,12.61-.48,25.3-.62,38-.07,5.73-5.33,8.91-10.25,6.07a3.23,3.23,0,0,1-1.34-2.38c.11-15.65-1.16-31.49.9-46.88,2.5-18.75,18.62-30.45,38.17-30.64,9.5-.09,19,0,28.5,0A24.74,24.74,0,0,0,222.2,97.63c.16-10.26,0-20.52,0-30.78l-1.66-1.06L208.31,81.07l-2-1.48c0-4.76-.08-9.53.06-14.29a5,5,0,0,1,1.34-3.1c6.77-6.87,13.64-13.64,20.78-20.73,7.16,7.07,15.06,13.26,20.66,21.1,2.74,3.84,1.22,10.73,1.62,16.23l-1.23.39L235.87,66.1Z"/><path class="cls-2" d="M17.06,36.57c0-4.62-.17-9.26.1-13.86a7.48,7.48,0,0,1,2.11-4.27C24.69,12.79,30.35,7.37,35.76,1.72c2.29-2.39,4-2.23,6.17.08,4.6,4.82,9.19,9.67,14.16,14.09a12.56,12.56,0,0,1,4.57,11.42c-.29,3.08-.05,6.2-.05,9.31l-1.74,1.2L46.13,22.6c-.93,2.08-1.41,2.65-1.4,3.22.16,13.13-.43,26.34.82,39.38S57.49,86.71,70.65,86.73c19.32,0,38.64-.17,57.95.06,17,.2,29.59,7.82,36.81,23.53a61.24,61.24,0,0,1,2,5.91,82.72,82.72,0,0,1-9.63,1.47,4.35,4.35,0,0,1-3.17-2.29c-5.39-12-14.89-16.67-27.62-16.53-18.82.2-37.63.1-56.45,0-20.81-.07-37.13-16.07-37.45-36.79-.17-10.82,0-21.65-.08-32.47,0-1.77-.15-3.54-.28-6.28L19.64,38.46Z"/><path class="cls-3" d="M0,128c7.14-7.2,13.89-14.29,21-21,1.39-1.3,4.32-1.16,6.56-1.28,3.46-.2,6.93-.05,10.4-.05l1.09,1.35L23.81,119.32l1.39,2.1c1.7.11,3.4.26,5.11.31,8.8.28,17.67-.09,26.39.93a37,37,0,0,1,32.63,36.42c.21,12.81-.15,25.64.14,38.45.12,5.19-3,4.52-6.19,4.52s-6.31.67-6.18-4.52c.3-12.31.13-24.64.08-37-.06-15.26-11.21-26.5-26.39-26.62-8.44-.07-16.87,0-25.31,0l-.74,1.29L38.86,149.9c-5.75,0-10.66.05-15.57,0a4.26,4.26,0,0,1-2.67-1.08C13.8,142,7,135.15,0,128Z"/><path d="M160.22,23.75c5.71,0,10-.11,14.35.06a6.56,6.56,0,0,1,4,1.41c6.9,6.72,13.64,13.6,21.31,21.31-7.23,7-14.08,13.93-21.45,20.33-1.63,1.42-5,.92-7.63,1.05-3.1.16-6.21,0-9.31,0l-1.08-1.55L174.9,54.19c-.93-1.33-1.11-1.81-1.29-1.81-12-.06-24-1.06-35.84.16C124.85,53.87,116.25,63.93,115.69,77c-.29,6.77-4.55,4.56-7.9,4.86-4.61.41-3.94-2.9-3.84-5.71C104.73,55,121.21,40,144.15,39.77c9.94-.11,19.88,0,29.82,0l.72-1.23Z"/><path class="cls-2" d="M168.38,170.62c0,9-.2,18,.08,26.93.15,4.8-2.73,4.52-5.81,4.32-2.85-.19-6.57,1.4-6.51-4.09.18-17.12,0-34.24.09-51.37,0-4,7.08-8.47,10.6-6.45,1,.57,1.47,2.77,1.5,4.23C168.45,153,168.38,161.81,168.38,170.62Z"/></g></g></svg>