<svg xmlns="http://www.w3.org/2000/svg" viewBox="0 0 340.09 55"><defs><style>.cls-1{fill:#fff;}.cls-2{fill:none;}</style></defs><title>Asset 19icon_seou_h</title><g id="Layer_2" data-name="Layer 2"><g id="Layer_1-2" data-name="Layer 1"><path class="cls-1" d="M13.41,25.64l2.21-1.18a6.1,6.1,0,0,0,2.14,3.25,5.87,5.87,0,0,0,3.65,1.15,5.53,5.53,0,0,0,4.21-1.59,6.12,6.12,0,0,0,1.51-4.4,5.53,5.53,0,0,0-1-3.41,13.81,13.81,0,0,0-4.37-3.14,19.55,19.55,0,0,1-5.7-4,6.33,6.33,0,0,1-1.41-4.15,6.41,6.41,0,0,1,2-4.92A7.48,7.48,0,0,1,22,1.36a7.36,7.36,0,0,1,3.71.9A6.75,6.75,0,0,1,28.25,5l-2,1.2A4.33,4.33,0,0,0,24.5,4.3a5.38,5.38,0,0,0-2.68-.64,4.52,4.52,0,0,0-3.33,1.23,4.47,4.47,0,0,0-1.24,3.32q0,3,4.92,5.56l1.36.72a14.28,14.28,0,0,1,4.84,3.77,8,8,0,0,1,1.22,4.6,8.2,8.2,0,0,1-2.23,6.06,8.18,8.18,0,0,1-6.06,2.24,8.14,8.14,0,0,1-4.78-1.39A9,9,0,0,1,13.41,25.64Z"/><path class="cls-1" d="M34.55,6.51a1.74,1.74,0,0,1,.54-1.29,1.79,1.79,0,0,1,1.3-.53,1.82,1.82,0,0,1,1.31.53,1.73,1.73,0,0,1,.55,1.29,1.75,1.75,0,0,1-.53,1.3,1.82,1.82,0,0,1-1.33.52,1.79,1.79,0,0,1-1.31-.52A1.74,1.74,0,0,1,34.55,6.51Zm.6,23.89V13.22h2.46V30.4Z"/><path class="cls-1" d="M46.5,30.4H44.12V13.22H46.5v2.69a6.18,6.18,0,0,1,2.25-2.48A6,6,0,0,1,52,12.58a5.76,5.76,0,0,1,3.21.86,5.51,5.51,0,0,1,2,2.53,6.55,6.55,0,0,1,6-3.39,5.64,5.64,0,0,1,4.3,1.66,6.34,6.34,0,0,1,1.57,4.54V30.4H66.69V19.73a5.93,5.93,0,0,0-1-3.8,3.74,3.74,0,0,0-3.09-1.28A4.14,4.14,0,0,0,59,16.26a8.87,8.87,0,0,0-1.15,5.1v9H55.43V19.73a6.1,6.1,0,0,0-1-3.86,3.71,3.71,0,0,0-3.06-1.22,4.27,4.27,0,0,0-3.7,1.63,8.71,8.71,0,0,0-1.18,5.08Z"/><path class="cls-1" d="M75.43,39V13.22h2.31v3.22a7.35,7.35,0,0,1,2.58-2.86,6.56,6.56,0,0,1,3.57-1,7.37,7.37,0,0,1,5.84,2.55,9.92,9.92,0,0,1,2.22,6.75,10,10,0,0,1-2.17,6.75A7.23,7.23,0,0,1,84,31.16a6.74,6.74,0,0,1-3.66-1,7.37,7.37,0,0,1-2.6-2.94V39ZM89.36,21.92a8.2,8.2,0,0,0-1.52-5.24,5.07,5.07,0,0,0-4.2-1.91,5.34,5.34,0,0,0-4.31,1.85,7.65,7.65,0,0,0-1.56,5.09A7.84,7.84,0,0,0,79.45,27a5.53,5.53,0,0,0,4.43,2,4.83,4.83,0,0,0,4-1.85A8.21,8.21,0,0,0,89.36,21.92Z"/><path class="cls-1" d="M99.52,30.4H97.06V.37h2.46Z"/><path class="cls-1" d="M120.79,21.88H107.13a8.38,8.38,0,0,0,1.67,5.23A5.18,5.18,0,0,0,113,29a5.58,5.58,0,0,0,3.33-1,7.58,7.58,0,0,0,2.38-3.1l2.19,1.2a9.51,9.51,0,0,1-3.23,3.85A8.46,8.46,0,0,1,113,31.16a7.93,7.93,0,0,1-6.11-2.53A9.4,9.4,0,0,1,104.56,22a9.86,9.86,0,0,1,2.32-6.82,7.73,7.73,0,0,1,6.06-2.6A7.31,7.31,0,0,1,118.64,15a9.19,9.19,0,0,1,2.15,6.38Zm-2.83-2a5.32,5.32,0,0,0-1.57-3.66,5.33,5.33,0,0,0-3.78-1.3A5.14,5.14,0,0,0,109,16.24a5.49,5.49,0,0,0-1.7,3.6Z"/><path class="cls-1" d="M137.54,30.4V2h14V4.46H140.11v8.87h11.47v2.42H140.11V28h11.47V30.4Z"/><path class="cls-1" d="M170.25,30.4V27.26a6.24,6.24,0,0,1-6,3.9,7.59,7.59,0,0,1-6-2.54,9.71,9.71,0,0,1-2.26-6.7,10,10,0,0,1,2.23-6.73,7.77,7.77,0,0,1,9.54-1.65,6.31,6.31,0,0,1,2.47,2.82V13.22h2.38V30.4ZM158.66,22a7.81,7.81,0,0,0,1.5,5.13,5.27,5.27,0,0,0,4.29,1.8,5.16,5.16,0,0,0,4.27-2,8.5,8.5,0,0,0,1.56-5.42,7.4,7.4,0,0,0-1.55-5,5.29,5.29,0,0,0-4.24-1.81,5.21,5.21,0,0,0-4.26,1.93A8.17,8.17,0,0,0,158.66,22Z"/><path class="cls-1" d="M177.07,27.34l2.27-1.3a4.22,4.22,0,0,0,4.24,2.89,3.56,3.56,0,0,0,2.4-.77,2.56,2.56,0,0,0,.89-2q0-2-3.51-3.35l-.58-.23a10.87,10.87,0,0,1-3.8-2.2,3.9,3.9,0,0,1-1.08-2.8,4.63,4.63,0,0,1,1.55-3.59,5.75,5.75,0,0,1,4-1.41,6.65,6.65,0,0,1,3.57.91,5.28,5.28,0,0,1,2.15,2.6L187,17.27a3.49,3.49,0,0,0-1.36-1.86,4.07,4.07,0,0,0-2.32-.64,2.93,2.93,0,0,0-2,.73,2.34,2.34,0,0,0-.8,1.81,2.25,2.25,0,0,0,.79,1.76,10.6,10.6,0,0,0,3.29,1.53,8.88,8.88,0,0,1,3.81,2.15,4.85,4.85,0,0,1,1,3.22,4.68,4.68,0,0,1-1.69,3.78,6.83,6.83,0,0,1-4.53,1.41,6.91,6.91,0,0,1-3.77-1A5.61,5.61,0,0,1,177.07,27.34Z"/><path class="cls-1" d="M208.94,21.88H195.28a8.37,8.37,0,0,0,1.67,5.23,5.18,5.18,0,0,0,4.21,1.9,5.57,5.57,0,0,0,3.33-1,7.58,7.58,0,0,0,2.38-3.1l2.19,1.2a9.52,9.52,0,0,1-3.23,3.85,8.46,8.46,0,0,1-4.68,1.23A7.93,7.93,0,0,1,195,28.63,9.4,9.4,0,0,1,192.7,22,9.86,9.86,0,0,1,195,15.17a7.73,7.73,0,0,1,6.05-2.6A7.31,7.31,0,0,1,206.79,15a9.19,9.19,0,0,1,2.15,6.38Zm-2.83-2a5.33,5.33,0,0,0-1.57-3.66,5.33,5.33,0,0,0-3.78-1.3,5.15,5.15,0,0,0-3.63,1.36,5.5,5.5,0,0,0-1.7,3.6Z"/><path class="cls-1" d="M233.15,31.16a8.82,8.82,0,0,1-3.53-.73,9.94,9.94,0,0,1-3.06-2.08,8.69,8.69,0,0,1-2-2.95,9.35,9.35,0,0,1-.68-3.57,9.24,9.24,0,0,1,.7-3.57,9.3,9.3,0,0,1,5-5,9.19,9.19,0,0,1,3.55-.7,9.51,9.51,0,0,1,3.61.7,9.3,9.3,0,0,1,3.05,2,9.22,9.22,0,0,1,2.05,10.09,9,9,0,0,1-2,3,9.57,9.57,0,0,1-3.09,2.08A9.26,9.26,0,0,1,233.15,31.16Zm.08-2.23a6.4,6.4,0,0,0,4.79-2,7,7,0,0,0,2-5,7,7,0,0,0-2-5,6.67,6.67,0,0,0-9.59,0,7,7,0,0,0-2,5,7,7,0,0,0,2,5A6.37,6.37,0,0,0,233.22,28.93Z"/><path class="cls-1" d="M248,30.4V15.25h-3.22v-2H248v-5q0-5.17,1-6.71T252.56,0a6.77,6.77,0,0,1,1.22.11,6,6,0,0,1,1.09.3l-.45,2.09a4.78,4.78,0,0,0-.9-.35,3.13,3.13,0,0,0-.8-.12,1.85,1.85,0,0,0-1.78,1,8.79,8.79,0,0,0-.52,3.67v6.51h3.78v2h-3.78V30.4Z"/><path class="cls-1" d="M269.42,2H272V20.56q0,4.2,1.92,6.25t5.87,2q3.89,0,5.81-2t1.92-6.25V2h2.58V19.73q0,5.75-2.56,8.59t-7.75,2.84q-5.21,0-7.77-2.84t-2.56-8.59Z"/><path class="cls-1" d="M294.69,27.34,297,26a4.22,4.22,0,0,0,4.24,2.89,3.56,3.56,0,0,0,2.4-.77,2.56,2.56,0,0,0,.89-2q0-2-3.51-3.35l-.58-.23a10.87,10.87,0,0,1-3.8-2.2,3.9,3.9,0,0,1-1.08-2.8,4.63,4.63,0,0,1,1.55-3.59,5.75,5.75,0,0,1,4-1.41,6.65,6.65,0,0,1,3.57.91A5.28,5.28,0,0,1,306.8,16l-2.19,1.22a3.49,3.49,0,0,0-1.36-1.86,4.07,4.07,0,0,0-2.32-.64,2.93,2.93,0,0,0-2,.73,2.34,2.34,0,0,0-.8,1.81,2.25,2.25,0,0,0,.79,1.76,10.6,10.6,0,0,0,3.29,1.53A8.88,8.88,0,0,1,306,22.75,4.85,4.85,0,0,1,307,26a4.68,4.68,0,0,1-1.69,3.78,6.83,6.83,0,0,1-4.53,1.41,6.91,6.91,0,0,1-3.77-1A5.61,5.61,0,0,1,294.69,27.34Z"/><path class="cls-1" d="M326.56,21.88H312.9a8.37,8.37,0,0,0,1.67,5.23,5.18,5.18,0,0,0,4.21,1.9,5.57,5.57,0,0,0,3.33-1,7.58,7.58,0,0,0,2.38-3.1l2.19,1.2a9.52,9.52,0,0,1-3.23,3.85,8.46,8.46,0,0,1-4.68,1.23,7.93,7.93,0,0,1-6.11-2.53A9.4,9.4,0,0,1,310.33,22a9.86,9.86,0,0,1,2.32-6.82,7.73,7.73,0,0,1,6.05-2.6A7.31,7.31,0,0,1,324.41,15a9.19,9.19,0,0,1,2.15,6.38Zm-2.83-2a5.33,5.33,0,0,0-1.57-3.66,5.33,5.33,0,0,0-3.78-1.3,5.15,5.15,0,0,0-3.63,1.36,5.5,5.5,0,0,0-1.7,3.6Z"/><rect class="cls-2" width="340.09" height="55"/></g></g></svg>