<svg xmlns="http://www.w3.org/2000/svg" viewBox="0 0 336.44 55"><defs><style>.cls-1{fill:#fff;}.cls-2{fill:none;}</style></defs><title>Asset 23icon_rp_h</title><g id="Layer_2" data-name="Layer 2"><g id="Layer_1-2" data-name="Layer 1"><path class="cls-1" d="M31.36,30H28.22l-10-13.53H16.71V30H14.13V1.67h5.21q4.61,0,6.91,1.92t2.3,5.81a6.91,6.91,0,0,1-2,5.21,7.47,7.47,0,0,1-5.42,1.9ZM16.71,3.91V14.4h2.6q3.6,0,5-1.15t1.42-3.92q0-2.93-1.47-4.17t-5-1.24Z"/><path class="cls-1" d="M48.8,21.51H35.14a8.37,8.37,0,0,0,1.67,5.23A5.18,5.18,0,0,0,41,28.64a5.57,5.57,0,0,0,3.33-1,7.58,7.58,0,0,0,2.38-3.1l2.19,1.2a9.52,9.52,0,0,1-3.23,3.85A8.46,8.46,0,0,1,41,30.79a7.93,7.93,0,0,1-6.11-2.53,9.4,9.4,0,0,1-2.34-6.64,9.86,9.86,0,0,1,2.32-6.82,7.73,7.73,0,0,1,6.05-2.6,7.31,7.31,0,0,1,5.72,2.39A9.19,9.19,0,0,1,48.8,21Zm-2.83-2a5.33,5.33,0,0,0-1.57-3.66,5.33,5.33,0,0,0-3.78-1.3A5.15,5.15,0,0,0,37,15.87a5.5,5.5,0,0,0-1.7,3.6Z"/><path class="cls-1" d="M51.8,27l2.27-1.3a4.22,4.22,0,0,0,4.24,2.89,3.56,3.56,0,0,0,2.4-.77,2.56,2.56,0,0,0,.89-2q0-2-3.51-3.35l-.58-.23a10.87,10.87,0,0,1-3.8-2.2,3.9,3.9,0,0,1-1.08-2.8,4.63,4.63,0,0,1,1.55-3.59,5.75,5.75,0,0,1,4-1.41,6.65,6.65,0,0,1,3.57.91,5.28,5.28,0,0,1,2.15,2.6L61.72,16.9A3.49,3.49,0,0,0,60.36,15,4.07,4.07,0,0,0,58,14.4a2.93,2.93,0,0,0-2,.73,2.34,2.34,0,0,0-.8,1.81A2.25,2.25,0,0,0,56,18.7a10.6,10.6,0,0,0,3.29,1.53,8.88,8.88,0,0,1,3.81,2.15,4.85,4.85,0,0,1,1,3.22,4.68,4.68,0,0,1-1.69,3.78,6.83,6.83,0,0,1-4.53,1.41,6.91,6.91,0,0,1-3.77-1A5.61,5.61,0,0,1,51.8,27Z"/><path class="cls-1" d="M68.91,38.68V12.85h2.31v3.22a7.35,7.35,0,0,1,2.58-2.86,6.56,6.56,0,0,1,3.56-1,7.37,7.37,0,0,1,5.84,2.55,9.92,9.92,0,0,1,2.22,6.75,10,10,0,0,1-2.17,6.75,7.23,7.23,0,0,1-5.77,2.53,6.74,6.74,0,0,1-3.66-1,7.37,7.37,0,0,1-2.6-2.94V38.68ZM82.84,21.55a8.2,8.2,0,0,0-1.52-5.24,5.07,5.07,0,0,0-4.2-1.91,5.33,5.33,0,0,0-4.31,1.85,7.64,7.64,0,0,0-1.56,5.09,7.84,7.84,0,0,0,1.68,5.26,5.53,5.53,0,0,0,4.43,2,4.83,4.83,0,0,0,4-1.85A8.21,8.21,0,0,0,82.84,21.55Z"/><path class="cls-1" d="M98.19,30.79a8.81,8.81,0,0,1-3.53-.73A9.94,9.94,0,0,1,91.6,28a8.69,8.69,0,0,1-2-2.95,9.37,9.37,0,0,1-.68-3.57,9.24,9.24,0,0,1,.7-3.57,9.21,9.21,0,0,1,8.55-5.7,9.5,9.5,0,0,1,3.61.7,9.32,9.32,0,0,1,3.05,2A9.22,9.22,0,0,1,106.91,25a9,9,0,0,1-2,3,9.56,9.56,0,0,1-3.09,2.08A9.26,9.26,0,0,1,98.19,30.79Zm.08-2.23a6.4,6.4,0,0,0,4.8-2,7,7,0,0,0,2-5,7,7,0,0,0-2-5,6.67,6.67,0,0,0-9.59,0,7,7,0,0,0-2,5,7,7,0,0,0,2,5A6.37,6.37,0,0,0,98.27,28.56Z"/><path class="cls-1" d="M112.53,30V12.85h2.27V15.5A7,7,0,0,1,117.36,13a7.23,7.23,0,0,1,3.5-.82,6.16,6.16,0,0,1,4.55,1.63A6.13,6.13,0,0,1,127,18.37V30h-2.42V19.44a5.76,5.76,0,0,0-1.08-3.83,4.15,4.15,0,0,0-3.32-1.25,4.83,4.83,0,0,0-4,1.62q-1.29,1.62-1.29,5.09v9Z"/><path class="cls-1" d="M131.25,27l2.27-1.3a4.22,4.22,0,0,0,4.24,2.89,3.56,3.56,0,0,0,2.4-.77,2.56,2.56,0,0,0,.89-2q0-2-3.51-3.35l-.58-.23a10.86,10.86,0,0,1-3.8-2.2,3.89,3.89,0,0,1-1.08-2.8,4.63,4.63,0,0,1,1.55-3.59,5.74,5.74,0,0,1,4-1.41,6.65,6.65,0,0,1,3.57.91,5.28,5.28,0,0,1,2.15,2.6l-2.19,1.22A3.49,3.49,0,0,0,139.81,15a4.07,4.07,0,0,0-2.33-.64,2.94,2.94,0,0,0-2,.73,2.34,2.34,0,0,0-.8,1.81,2.25,2.25,0,0,0,.79,1.76,10.63,10.63,0,0,0,3.29,1.53,8.88,8.88,0,0,1,3.81,2.15,4.85,4.85,0,0,1,1,3.22,4.68,4.68,0,0,1-1.69,3.78,6.83,6.83,0,0,1-4.53,1.41,6.91,6.91,0,0,1-3.77-1A5.61,5.61,0,0,1,131.25,27Z"/><path class="cls-1" d="M147.91,6.14a1.74,1.74,0,0,1,.54-1.29,1.79,1.79,0,0,1,1.3-.53,1.82,1.82,0,0,1,1.31.53,1.73,1.73,0,0,1,.55,1.29,1.75,1.75,0,0,1-.53,1.3,1.82,1.82,0,0,1-1.33.52,1.79,1.79,0,0,1-1.31-.52A1.74,1.74,0,0,1,147.91,6.14Zm.6,23.89V12.85H151V30Z"/><path class="cls-1" d="M159.87,30h-2.38V0h2.38V16a6.34,6.34,0,0,1,2.45-2.82,7.12,7.12,0,0,1,3.77-1,7.22,7.22,0,0,1,5.75,2.61,10,10,0,0,1,2.23,6.73,9.71,9.71,0,0,1-2.26,6.7,7.58,7.58,0,0,1-6,2.54,6.18,6.18,0,0,1-6-3.9Zm11.55-8.41a8.16,8.16,0,0,0-1.57-5.3,5.75,5.75,0,0,0-8.49-.12,7.46,7.46,0,0,0-1.53,5,8.49,8.49,0,0,0,1.56,5.42,5.15,5.15,0,0,0,4.27,2,5.23,5.23,0,0,0,4.26-1.79A7.84,7.84,0,0,0,171.42,21.63Z"/><path class="cls-1" d="M181.57,30h-2.46V0h2.46Z"/><path class="cls-1" d="M202.85,21.51H189.19a8.37,8.37,0,0,0,1.67,5.23,5.18,5.18,0,0,0,4.21,1.9,5.57,5.57,0,0,0,3.33-1,7.58,7.58,0,0,0,2.38-3.1l2.19,1.2a9.52,9.52,0,0,1-3.23,3.85,8.46,8.46,0,0,1-4.68,1.23,7.93,7.93,0,0,1-6.11-2.53,9.4,9.4,0,0,1-2.34-6.64,9.86,9.86,0,0,1,2.32-6.82,7.73,7.73,0,0,1,6.05-2.6,7.31,7.31,0,0,1,5.72,2.39A9.19,9.19,0,0,1,202.85,21Zm-2.83-2a5.33,5.33,0,0,0-1.57-3.66,5.33,5.33,0,0,0-3.78-1.3A5.15,5.15,0,0,0,191,15.87a5.5,5.5,0,0,0-1.7,3.6Z"/><path class="cls-1" d="M219.59,30V1.67h5.17a22.2,22.2,0,0,1,4.51.33,7,7,0,0,1,2.51,1.08,6.31,6.31,0,0,1,2.07,2.65,9.24,9.24,0,0,1,.74,3.74q0,4.05-2.27,5.94t-7.17,1.89h-3V30Zm2.58-15h1.76q4.69,0,6.31-1.19t1.62-4.18a7,7,0,0,0-.37-2.32,5.63,5.63,0,0,0-1.11-1.89,4.07,4.07,0,0,0-2.05-1.2,19.15,19.15,0,0,0-4.4-.35h-1.76Z"/><path class="cls-1" d="M240.05,16.3a10.53,10.53,0,0,1,2.59-3.16,4.86,4.86,0,0,1,3-.93,5.49,5.49,0,0,1,1,.1,7.2,7.2,0,0,1,1,.27l-.77,2.25a7.85,7.85,0,0,0-.8-.19,4.34,4.34,0,0,0-4.48,1.94,8.1,8.1,0,0,0-1.52,5V30h-2.38V12.85h2.38Z"/><path class="cls-1" d="M249.72,6.14a1.74,1.74,0,0,1,.54-1.29,1.79,1.79,0,0,1,1.3-.53,1.82,1.82,0,0,1,1.31.53,1.73,1.73,0,0,1,.55,1.29,1.75,1.75,0,0,1-.53,1.3,1.82,1.82,0,0,1-1.33.52,1.79,1.79,0,0,1-1.31-.52A1.75,1.75,0,0,1,249.72,6.14Zm.6,23.89V12.85h2.46V30Z"/><path class="cls-1" d="M272.66,16a9.23,9.23,0,0,0-2.56-1.25,9.45,9.45,0,0,0-2.79-.42,6.62,6.62,0,0,0-5.1,2,7.7,7.7,0,0,0-1.9,5.46,6.72,6.72,0,0,0,2,5,6.82,6.82,0,0,0,5,2,8.72,8.72,0,0,0,2.82-.48,11,11,0,0,0,2.8-1.45v2.62a10.42,10.42,0,0,1-2.79,1.08,14.33,14.33,0,0,1-3.28.36,8.62,8.62,0,0,1-6.45-2.59,9.09,9.09,0,0,1-2.52-6.62,9,9,0,0,1,9.46-9.46,13.56,13.56,0,0,1,2.92.3,9.61,9.61,0,0,1,2.43.86Z"/><path class="cls-1" d="M276.95,6.14a1.74,1.74,0,0,1,.54-1.29,1.79,1.79,0,0,1,1.3-.53,1.82,1.82,0,0,1,1.31.53,1.72,1.72,0,0,1,.55,1.29,1.75,1.75,0,0,1-.53,1.3,1.82,1.82,0,0,1-1.33.52,1.79,1.79,0,0,1-1.31-.52A1.75,1.75,0,0,1,276.95,6.14Zm.6,23.89V12.85H280V30Z"/><path class="cls-1" d="M286.52,30V12.85h2.27V15.5A7,7,0,0,1,291.35,13a7.23,7.23,0,0,1,3.5-.82,6.16,6.16,0,0,1,4.55,1.63A6.13,6.13,0,0,1,301,18.37V30h-2.42V19.44a5.76,5.76,0,0,0-1.08-3.83,4.15,4.15,0,0,0-3.32-1.25,4.83,4.83,0,0,0-4,1.62q-1.29,1.62-1.29,5.09v9Z"/><path class="cls-1" d="M322.31,12.85v14.2q0,3.39-.18,5.17a8.29,8.29,0,0,1-.61,2.65,5.91,5.91,0,0,1-2.73,2.86,10.19,10.19,0,0,1-4.65.94,9.25,9.25,0,0,1-5.34-1.33,5.66,5.66,0,0,1-2.32-4h3a3.49,3.49,0,0,0,1.52,2.4,6,6,0,0,0,3.34.81,7,7,0,0,0,2.86-.56,4.23,4.23,0,0,0,1.91-1.55A4.31,4.31,0,0,0,319.7,33a13.41,13.41,0,0,0,.18-2.61V26.86a6.31,6.31,0,0,1-2.43,2.89,6.82,6.82,0,0,1-3.75,1,7.23,7.23,0,0,1-5.78-2.52,10,10,0,0,1-2.16-6.76A10,10,0,0,1,308,14.76a7.37,7.37,0,0,1,5.85-2.55,6.72,6.72,0,0,1,3.69,1.06,6,6,0,0,1,2.37,2.8V12.85Zm-8.22,1.55a5.12,5.12,0,0,0-4.21,1.91,8.12,8.12,0,0,0-1.54,5.24,8.13,8.13,0,0,0,1.46,5.16,4.88,4.88,0,0,0,4.06,1.85,5.49,5.49,0,0,0,4.41-2,7.89,7.89,0,0,0,1.66-5.27,7.68,7.68,0,0,0-1.55-5.1A5.3,5.3,0,0,0,314.09,14.4Z"/><rect class="cls-2" width="336.44" height="55"/></g></g></svg>