<svg xmlns="http://www.w3.org/2000/svg" viewBox="0 0 368.67 55"><defs><style>.cls-1{fill:#fff;}.cls-2{fill:none;}</style></defs><title>Asset 22icon_ds_h</title><g id="Layer_2" data-name="Layer 2"><g id="Layer_1-2" data-name="Layer 1"><path class="cls-1" d="M13.74,30V1.67h4.42a41.64,41.64,0,0,1,8.39.58,10.67,10.67,0,0,1,4.26,2,12,12,0,0,1,3.6,4.84,17.46,17.46,0,0,1,1.24,6.78,17.53,17.53,0,0,1-1.24,6.79,11.14,11.14,0,0,1-7.77,6.77A34.23,34.23,0,0,1,19,30H13.74Zm2.58-2.23h3.62a27.16,27.16,0,0,0,6.24-.49,7.29,7.29,0,0,0,3.12-1.68A10.55,10.55,0,0,0,32,21.49a16.37,16.37,0,0,0,.91-5.66A16.45,16.45,0,0,0,32,10.1,9.92,9.92,0,0,0,29.26,6,7.75,7.75,0,0,0,26,4.3a31.47,31.47,0,0,0-6.84-.5H16.32Z"/><path class="cls-1" d="M55.81,21.51H42.15a8.37,8.37,0,0,0,1.67,5.23A5.18,5.18,0,0,0,48,28.64a5.57,5.57,0,0,0,3.33-1,7.58,7.58,0,0,0,2.38-3.1l2.19,1.2a9.51,9.51,0,0,1-3.23,3.85A8.46,8.46,0,0,1,48,30.79a7.93,7.93,0,0,1-6.11-2.53,9.4,9.4,0,0,1-2.33-6.64,9.86,9.86,0,0,1,2.32-6.82,7.73,7.73,0,0,1,6.05-2.6,7.31,7.31,0,0,1,5.72,2.39A9.19,9.19,0,0,1,55.81,21Zm-2.83-2a5.32,5.32,0,0,0-1.57-3.66,5.33,5.33,0,0,0-3.78-1.3A5.14,5.14,0,0,0,44,15.87a5.49,5.49,0,0,0-1.7,3.6Z"/><path class="cls-1" d="M60.77,38.68V12.85h2.31v3.22a7.35,7.35,0,0,1,2.58-2.86,6.56,6.56,0,0,1,3.57-1,7.37,7.37,0,0,1,5.84,2.55,9.92,9.92,0,0,1,2.22,6.75,10,10,0,0,1-2.17,6.75,7.23,7.23,0,0,1-5.77,2.53,6.74,6.74,0,0,1-3.66-1,7.38,7.38,0,0,1-2.6-2.94V38.68ZM74.71,21.55a8.2,8.2,0,0,0-1.52-5.24A5.07,5.07,0,0,0,69,14.4a5.34,5.34,0,0,0-4.31,1.85,7.65,7.65,0,0,0-1.56,5.09,7.84,7.84,0,0,0,1.68,5.26,5.53,5.53,0,0,0,4.43,2,4.83,4.83,0,0,0,4-1.85A8.21,8.21,0,0,0,74.71,21.55Z"/><path class="cls-1" d="M97,21.51H83.35A8.37,8.37,0,0,0,85,26.74a5.18,5.18,0,0,0,4.21,1.9,5.57,5.57,0,0,0,3.33-1,7.58,7.58,0,0,0,2.38-3.1l2.19,1.2a9.51,9.51,0,0,1-3.23,3.85,8.46,8.46,0,0,1-4.68,1.23,7.93,7.93,0,0,1-6.11-2.53,9.4,9.4,0,0,1-2.33-6.64,9.86,9.86,0,0,1,2.32-6.82,7.73,7.73,0,0,1,6.05-2.6,7.31,7.31,0,0,1,5.72,2.39A9.19,9.19,0,0,1,97,21Zm-2.83-2a5.32,5.32,0,0,0-1.57-3.66,5.33,5.33,0,0,0-3.78-1.3,5.14,5.14,0,0,0-3.63,1.36,5.49,5.49,0,0,0-1.7,3.6Z"/><path class="cls-1" d="M102,30V12.85h2.27V15.5A7,7,0,0,1,106.8,13a7.23,7.23,0,0,1,3.5-.82,6.16,6.16,0,0,1,4.55,1.63,6.13,6.13,0,0,1,1.63,4.53V30h-2.42V19.44A5.76,5.76,0,0,0,113,15.61a4.15,4.15,0,0,0-3.32-1.25,4.83,4.83,0,0,0-4,1.62q-1.29,1.62-1.29,5.09v9Z"/><path class="cls-1" d="M135.38,30V26.9a6.18,6.18,0,0,1-6,3.9,7.58,7.58,0,0,1-6-2.54,9.71,9.71,0,0,1-2.26-6.7,10,10,0,0,1,2.23-6.73,7.22,7.22,0,0,1,5.75-2.61,7.12,7.12,0,0,1,3.77,1A6.34,6.34,0,0,1,135.38,16V0h2.42V30Zm-11.55-8.41a7.81,7.81,0,0,0,1.5,5.13,5.27,5.27,0,0,0,4.29,1.8,5.11,5.11,0,0,0,4.24-2,8.54,8.54,0,0,0,1.55-5.42,7.47,7.47,0,0,0-1.53-5,5.75,5.75,0,0,0-8.49.12A8.16,8.16,0,0,0,123.83,21.63Z"/><path class="cls-1" d="M156.81,30V26.9a6.24,6.24,0,0,1-6,3.9,7.59,7.59,0,0,1-6-2.54,9.71,9.71,0,0,1-2.26-6.7,10,10,0,0,1,2.23-6.73,7.77,7.77,0,0,1,9.54-1.65A6.3,6.3,0,0,1,156.81,16V12.85h2.38V30Zm-11.59-8.41a7.81,7.81,0,0,0,1.5,5.13,5.27,5.27,0,0,0,4.29,1.8,5.16,5.16,0,0,0,4.27-2,8.5,8.5,0,0,0,1.56-5.42,7.4,7.4,0,0,0-1.55-5,5.29,5.29,0,0,0-4.24-1.81,5.2,5.2,0,0,0-4.26,1.93A8.16,8.16,0,0,0,145.22,21.63Z"/><path class="cls-1" d="M168,30h-2.38V0H168V16a6.34,6.34,0,0,1,2.45-2.82,7.12,7.12,0,0,1,3.77-1,7.22,7.22,0,0,1,5.75,2.61,10,10,0,0,1,2.23,6.73,9.71,9.71,0,0,1-2.26,6.7,7.59,7.59,0,0,1-6,2.54,6.18,6.18,0,0,1-6-3.9Zm11.55-8.41a8.16,8.16,0,0,0-1.57-5.3,5.75,5.75,0,0,0-8.49-.12,7.46,7.46,0,0,0-1.53,5,8.5,8.5,0,0,0,1.56,5.42,5.16,5.16,0,0,0,4.27,2A5.23,5.23,0,0,0,178,26.77,7.84,7.84,0,0,0,179.52,21.63Z"/><path class="cls-1" d="M189.67,30h-2.46V0h2.46Z"/><path class="cls-1" d="M210.95,21.51H197.29A8.37,8.37,0,0,0,199,26.74a5.18,5.18,0,0,0,4.21,1.9,5.57,5.57,0,0,0,3.33-1,7.58,7.58,0,0,0,2.38-3.1l2.19,1.2a9.51,9.51,0,0,1-3.23,3.85,8.46,8.46,0,0,1-4.68,1.23A7.93,7.93,0,0,1,197,28.26a9.4,9.4,0,0,1-2.33-6.64A9.86,9.86,0,0,1,197,14.8a7.73,7.73,0,0,1,6.05-2.6,7.31,7.31,0,0,1,5.72,2.39A9.19,9.19,0,0,1,210.95,21Zm-2.83-2a5.32,5.32,0,0,0-1.57-3.66,5.33,5.33,0,0,0-3.78-1.3,5.14,5.14,0,0,0-3.63,1.36,5.49,5.49,0,0,0-1.7,3.6Z"/><path class="cls-1" d="M225.52,25.27l2.21-1.18a6.1,6.1,0,0,0,2.14,3.25,5.87,5.87,0,0,0,3.65,1.15,5.53,5.53,0,0,0,4.21-1.59,6.13,6.13,0,0,0,1.51-4.4,5.52,5.52,0,0,0-1-3.41,13.81,13.81,0,0,0-4.37-3.14,19.56,19.56,0,0,1-5.7-4,6.33,6.33,0,0,1-1.41-4.15,6.41,6.41,0,0,1,2-4.92,7.48,7.48,0,0,1,5.3-1.9,7.36,7.36,0,0,1,3.71.9,6.75,6.75,0,0,1,2.57,2.7l-2,1.2a4.33,4.33,0,0,0-1.75-1.86,5.38,5.38,0,0,0-2.68-.64,4.53,4.53,0,0,0-3.33,1.23,4.47,4.47,0,0,0-1.24,3.32q0,3,4.92,5.56l1.36.72a14.27,14.27,0,0,1,4.84,3.77,8,8,0,0,1,1.22,4.6,8.2,8.2,0,0,1-2.23,6.06,9.16,9.16,0,0,1-10.84.85A9,9,0,0,1,225.52,25.27Z"/><path class="cls-1" d="M254.92,30.79a8.81,8.81,0,0,1-3.53-.73A9.94,9.94,0,0,1,248.33,28a8.67,8.67,0,0,1-2-2.95,9.35,9.35,0,0,1-.68-3.57,9.24,9.24,0,0,1,.7-3.57,9.21,9.21,0,0,1,8.55-5.7,9.51,9.51,0,0,1,3.61.7,9.32,9.32,0,0,1,3.05,2A9.22,9.22,0,0,1,263.63,25a9,9,0,0,1-2,3,9.57,9.57,0,0,1-3.09,2.08A9.26,9.26,0,0,1,254.92,30.79Zm.08-2.23a6.4,6.4,0,0,0,4.8-2,7,7,0,0,0,2-5,7,7,0,0,0-2-5,6.67,6.67,0,0,0-9.59,0,7,7,0,0,0-2,5,7,7,0,0,0,2,5A6.37,6.37,0,0,0,255,28.56Z"/><path class="cls-1" d="M271.87,30h-2.46V0h2.46Z"/><path class="cls-1" d="M280.76,12.85v8.58q0,3.91,1.11,5.52a5.21,5.21,0,0,0,7.55,0q1.14-1.63,1.14-5.5V12.85h2.36v9.81q0,4-1.84,6.07a6.87,6.87,0,0,1-5.41,2.06,7,7,0,0,1-5.45-2.06q-1.86-2.06-1.86-6.07V12.85Z"/><path class="cls-1" d="M299.79,14.88h-3.16v-2h3.16V5.79h2.34v7.05h3.45v2h-3.45V30h-2.34Z"/><path class="cls-1" d="M308.69,6.14a1.74,1.74,0,0,1,.54-1.29,1.79,1.79,0,0,1,1.3-.53,1.82,1.82,0,0,1,1.31.53,1.73,1.73,0,0,1,.55,1.29,1.75,1.75,0,0,1-.53,1.3,1.82,1.82,0,0,1-1.33.52,1.79,1.79,0,0,1-1.31-.52A1.75,1.75,0,0,1,308.69,6.14Zm.6,23.89V12.85h2.46V30Z"/><path class="cls-1" d="M326.07,30.79a8.82,8.82,0,0,1-3.53-.73A9.94,9.94,0,0,1,319.48,28a8.7,8.7,0,0,1-2-2.95,9.37,9.37,0,0,1-.68-3.57,9.24,9.24,0,0,1,.7-3.57,9.3,9.3,0,0,1,5-5,9.19,9.19,0,0,1,3.55-.7,9.5,9.5,0,0,1,3.61.7,9.3,9.3,0,0,1,3.05,2A9.22,9.22,0,0,1,334.79,25a9,9,0,0,1-2,3,9.56,9.56,0,0,1-3.09,2.08A9.26,9.26,0,0,1,326.07,30.79Zm.08-2.23a6.4,6.4,0,0,0,4.8-2,7,7,0,0,0,2-5,7,7,0,0,0-2-5,6.67,6.67,0,0,0-9.59,0,7,7,0,0,0-2,5,7,7,0,0,0,2,5A6.37,6.37,0,0,0,326.15,28.56Z"/><path class="cls-1" d="M340.41,30V12.85h2.27V15.5A7,7,0,0,1,345.24,13a7.23,7.23,0,0,1,3.5-.82,6.16,6.16,0,0,1,4.55,1.63,6.13,6.13,0,0,1,1.63,4.53V30H352.5V19.44a5.76,5.76,0,0,0-1.08-3.83,4.15,4.15,0,0,0-3.32-1.25,4.83,4.83,0,0,0-4,1.62q-1.29,1.62-1.29,5.09v9Z"/><rect class="cls-2" width="368.67" height="55"/></g></g></svg>