<svg xmlns="http://www.w3.org/2000/svg" viewBox="0 0 206.07 103"><defs><style>.cls-1{fill:#fff;}.cls-2{fill:none;}</style></defs><title>Asset 17icon_hi_h</title><g id="Layer_2" data-name="Layer 2"><g id="Layer_1-2" data-name="Layer 1"><path class="cls-1" d="M13.12,30.4V2H15.7V13.54H31.15V2h2.58V30.4H31.15V15.75H15.7V30.4Z"/><path class="cls-1" d="M53.12,30.4V27.26a6.24,6.24,0,0,1-6,3.9,7.59,7.59,0,0,1-6-2.54,9.71,9.71,0,0,1-2.26-6.7,10,10,0,0,1,2.23-6.73,7.77,7.77,0,0,1,9.54-1.65,6.31,6.31,0,0,1,2.47,2.82V13.22H55.5V30.4ZM41.53,22A7.81,7.81,0,0,0,43,27.13a5.27,5.27,0,0,0,4.29,1.8,5.16,5.16,0,0,0,4.27-2,8.5,8.5,0,0,0,1.56-5.42,7.4,7.4,0,0,0-1.55-5,5.29,5.29,0,0,0-4.24-1.81,5.21,5.21,0,0,0-4.26,1.93A8.17,8.17,0,0,0,41.53,22Z"/><path class="cls-1" d="M59.94,27.34,62.21,26a4.22,4.22,0,0,0,4.24,2.89,3.56,3.56,0,0,0,2.4-.77,2.56,2.56,0,0,0,.89-2q0-2-3.51-3.35l-.58-.23a10.87,10.87,0,0,1-3.8-2.2,3.9,3.9,0,0,1-1.08-2.8,4.63,4.63,0,0,1,1.55-3.59,5.75,5.75,0,0,1,4-1.41,6.65,6.65,0,0,1,3.57.91A5.28,5.28,0,0,1,72.05,16l-2.19,1.22a3.49,3.49,0,0,0-1.36-1.86,4.07,4.07,0,0,0-2.32-.64,2.93,2.93,0,0,0-2,.73,2.34,2.34,0,0,0-.8,1.81,2.25,2.25,0,0,0,.79,1.76,10.6,10.6,0,0,0,3.29,1.53,8.88,8.88,0,0,1,3.81,2.15,4.85,4.85,0,0,1,1,3.22,4.68,4.68,0,0,1-1.69,3.78A6.83,6.83,0,0,1,66,31.16a6.91,6.91,0,0,1-3.77-1A5.61,5.61,0,0,1,59.94,27.34Z"/><path class="cls-1" d="M75.09,27.34,77.36,26a4.22,4.22,0,0,0,4.24,2.89,3.56,3.56,0,0,0,2.4-.77,2.56,2.56,0,0,0,.89-2q0-2-3.51-3.35l-.58-.23a10.86,10.86,0,0,1-3.8-2.2,3.89,3.89,0,0,1-1.08-2.8,4.63,4.63,0,0,1,1.55-3.59,5.74,5.74,0,0,1,4-1.41,6.65,6.65,0,0,1,3.57.91A5.28,5.28,0,0,1,87.2,16L85,17.27a3.49,3.49,0,0,0-1.36-1.86,4.07,4.07,0,0,0-2.33-.64,2.94,2.94,0,0,0-2,.73,2.34,2.34,0,0,0-.8,1.81,2.25,2.25,0,0,0,.79,1.76,10.63,10.63,0,0,0,3.29,1.53,8.88,8.88,0,0,1,3.81,2.15,4.85,4.85,0,0,1,1,3.22,4.68,4.68,0,0,1-1.69,3.78,6.83,6.83,0,0,1-4.53,1.41,6.91,6.91,0,0,1-3.77-1A5.61,5.61,0,0,1,75.09,27.34Z"/><path class="cls-1" d="M94.82,30.4H92.36V.37h2.46Z"/><path class="cls-1" d="M116.1,21.88H102.43a8.38,8.38,0,0,0,1.67,5.23,5.18,5.18,0,0,0,4.21,1.9,5.57,5.57,0,0,0,3.33-1,7.58,7.58,0,0,0,2.38-3.1l2.19,1.2A9.5,9.5,0,0,1,113,29.93a8.46,8.46,0,0,1-4.68,1.23,7.94,7.94,0,0,1-6.11-2.53A9.4,9.4,0,0,1,99.86,22a9.86,9.86,0,0,1,2.32-6.82,7.73,7.73,0,0,1,6.06-2.6A7.31,7.31,0,0,1,113.95,15a9.19,9.19,0,0,1,2.15,6.38Zm-2.83-2a5.32,5.32,0,0,0-1.57-3.66,5.33,5.33,0,0,0-3.78-1.3,5.14,5.14,0,0,0-3.63,1.36,5.49,5.49,0,0,0-1.7,3.6Z"/><path class="cls-1" d="M121.27,20.6h8.45v2.5h-8.45Z"/><path class="cls-1" d="M136.13,30.4V15.25h-3.22v-2h3.22v-5q0-5.17,1-6.71T140.65,0a6.79,6.79,0,0,1,1.22.11,6.06,6.06,0,0,1,1.08.3l-.45,2.09a4.75,4.75,0,0,0-.9-.35,3.13,3.13,0,0,0-.8-.12A1.85,1.85,0,0,0,139,3a8.81,8.81,0,0,0-.52,3.67v6.51h3.78v2H138.5V30.4Z"/><path class="cls-1" d="M148.22,16.66a10.53,10.53,0,0,1,2.59-3.16,4.86,4.86,0,0,1,3-.93,5.49,5.49,0,0,1,1,.1,7.2,7.2,0,0,1,1,.27L155,15.19a7.85,7.85,0,0,0-.8-.19,4.34,4.34,0,0,0-4.48,1.94,8.1,8.1,0,0,0-1.52,5V30.4h-2.38V13.22h2.38Z"/><path class="cls-1" d="M173.1,21.88H159.44a8.37,8.37,0,0,0,1.67,5.23,5.17,5.17,0,0,0,4.21,1.9,5.57,5.57,0,0,0,3.33-1,7.58,7.58,0,0,0,2.38-3.1l2.19,1.2A9.51,9.51,0,0,1,170,29.93a8.46,8.46,0,0,1-4.68,1.23,7.93,7.93,0,0,1-6.11-2.53A9.4,9.4,0,0,1,156.87,22a9.86,9.86,0,0,1,2.32-6.82,7.73,7.73,0,0,1,6.05-2.6A7.31,7.31,0,0,1,171,15a9.19,9.19,0,0,1,2.15,6.38Zm-2.83-2a5.32,5.32,0,0,0-1.57-3.66,5.33,5.33,0,0,0-3.78-1.3,5.14,5.14,0,0,0-3.63,1.36,5.49,5.49,0,0,0-1.7,3.6Z"/><path class="cls-1" d="M192.83,21.88H179.17a8.38,8.38,0,0,0,1.67,5.23A5.18,5.18,0,0,0,185,29a5.57,5.57,0,0,0,3.33-1,7.58,7.58,0,0,0,2.38-3.1l2.19,1.2a9.5,9.5,0,0,1-3.23,3.85A8.46,8.46,0,0,1,185,31.16a7.94,7.94,0,0,1-6.11-2.53A9.4,9.4,0,0,1,176.59,22a9.86,9.86,0,0,1,2.32-6.82,7.73,7.73,0,0,1,6.06-2.6A7.31,7.31,0,0,1,190.68,15a9.19,9.19,0,0,1,2.15,6.38Zm-2.83-2a5.32,5.32,0,0,0-1.57-3.66,5.33,5.33,0,0,0-3.78-1.3A5.14,5.14,0,0,0,181,16.24a5.49,5.49,0,0,0-1.7,3.6Z"/><path class="cls-1" d="M17.07,78V49.66h2.58V78Z"/><path class="cls-1" d="M26.37,78V60.84h2.27v2.65A7,7,0,0,1,31.2,61a7.23,7.23,0,0,1,3.5-.82,5.65,5.65,0,0,1,6.18,6.16V78H38.46V67.43a5.76,5.76,0,0,0-1.08-3.83,4.15,4.15,0,0,0-3.32-1.25A4.83,4.83,0,0,0,30,64q-1.29,1.62-1.29,5.09v9Z"/><path class="cls-1" d="M47.55,62.87H44.39v-2h3.16V53.78h2.35v7.05h3.45v2H49.89V78H47.55Z"/><path class="cls-1" d="M71.65,69.5H58a8.37,8.37,0,0,0,1.67,5.23,5.18,5.18,0,0,0,4.21,1.9,5.57,5.57,0,0,0,3.33-1,7.58,7.58,0,0,0,2.38-3.1l2.19,1.2a9.52,9.52,0,0,1-3.23,3.85,8.46,8.46,0,0,1-4.68,1.23,7.93,7.93,0,0,1-6.11-2.53,9.4,9.4,0,0,1-2.34-6.64,9.86,9.86,0,0,1,2.32-6.82,7.73,7.73,0,0,1,6.05-2.6,7.31,7.31,0,0,1,5.72,2.39A9.19,9.19,0,0,1,71.65,69Zm-2.83-2a4.92,4.92,0,0,0-5.35-5,5.15,5.15,0,0,0-3.63,1.36,5.5,5.5,0,0,0-1.7,3.6Z"/><path class="cls-1" d="M91.73,60.84V75q0,3.39-.18,5.17a8.32,8.32,0,0,1-.61,2.65,5.92,5.92,0,0,1-2.73,2.86,10.18,10.18,0,0,1-4.65.94,9.27,9.27,0,0,1-5.34-1.33,5.67,5.67,0,0,1-2.32-4h3a3.49,3.49,0,0,0,1.52,2.4,6,6,0,0,0,3.34.81A7,7,0,0,0,86.6,84a4.24,4.24,0,0,0,1.91-1.55,4.33,4.33,0,0,0,.61-1.48,13.33,13.33,0,0,0,.18-2.61V74.85a6.31,6.31,0,0,1-2.43,2.89,6.82,6.82,0,0,1-3.75,1,7.24,7.24,0,0,1-5.79-2.52,10,10,0,0,1-2.16-6.76,10,10,0,0,1,2.21-6.75,7.36,7.36,0,0,1,5.85-2.55,6.72,6.72,0,0,1,3.69,1.06,5.94,5.94,0,0,1,2.37,2.8V60.84Zm-8.22,1.55A5.13,5.13,0,0,0,79.3,64.3a8.12,8.12,0,0,0-1.54,5.24,8.13,8.13,0,0,0,1.46,5.16,4.89,4.89,0,0,0,4.06,1.85,5.49,5.49,0,0,0,4.41-2,7.89,7.89,0,0,0,1.66-5.27,7.68,7.68,0,0,0-1.55-5.1A5.3,5.3,0,0,0,83.51,62.39Z"/><path class="cls-1" d="M100.47,64.29a10.53,10.53,0,0,1,2.59-3.16,4.86,4.86,0,0,1,3-.93,5.49,5.49,0,0,1,1,.1,7.2,7.2,0,0,1,1,.27l-.77,2.25a7.85,7.85,0,0,0-.8-.19A4.34,4.34,0,0,0,102,64.56a8.1,8.1,0,0,0-1.52,5V78H98.09V60.84h2.38Z"/><path class="cls-1" d="M123.28,78V74.89a6.24,6.24,0,0,1-6,3.9,7.59,7.59,0,0,1-6-2.54,9.71,9.71,0,0,1-2.26-6.7,10,10,0,0,1,2.23-6.73,7.77,7.77,0,0,1,9.54-1.65A6.3,6.3,0,0,1,123.28,64V60.84h2.38V78Zm-11.59-8.41a7.81,7.81,0,0,0,1.5,5.13,5.27,5.27,0,0,0,4.29,1.8,5.16,5.16,0,0,0,4.27-2,8.5,8.5,0,0,0,1.56-5.42,7.4,7.4,0,0,0-1.55-5,5.29,5.29,0,0,0-4.24-1.81,5.21,5.21,0,0,0-4.26,1.93A8.17,8.17,0,0,0,111.69,69.62Z"/><path class="cls-1" d="M132.56,62.87H129.4v-2h3.16V53.78h2.34v7.05h3.45v2H134.9V78h-2.34Z"/><path class="cls-1" d="M141.45,54.13a1.74,1.74,0,0,1,.54-1.29,1.79,1.79,0,0,1,1.3-.53,1.82,1.82,0,0,1,1.31.53,1.73,1.73,0,0,1,.55,1.29,1.75,1.75,0,0,1-.53,1.3,1.82,1.82,0,0,1-1.33.52,1.79,1.79,0,0,1-1.31-.52A1.74,1.74,0,0,1,141.45,54.13Zm.6,23.89V60.84h2.46V78Z"/><path class="cls-1" d="M158.83,78.78a8.82,8.82,0,0,1-3.53-.73A9.94,9.94,0,0,1,152.25,76a8.69,8.69,0,0,1-2-2.95,9.35,9.35,0,0,1-.68-3.57,9.24,9.24,0,0,1,.7-3.57,9.3,9.3,0,0,1,5-5,9.19,9.19,0,0,1,3.55-.7,9.51,9.51,0,0,1,3.61.7,9.3,9.3,0,0,1,3.05,2A9.22,9.22,0,0,1,167.55,73a9,9,0,0,1-2,3,9.57,9.57,0,0,1-3.09,2.08A9.26,9.26,0,0,1,158.83,78.78Zm.08-2.23a6.4,6.4,0,0,0,4.79-2,7.41,7.41,0,0,0,0-10,6.67,6.67,0,0,0-9.59,0,7.43,7.43,0,0,0,0,10A6.37,6.37,0,0,0,158.91,76.55Z"/><path class="cls-1" d="M173.17,78V60.84h2.27v2.65A7,7,0,0,1,178,61a7.23,7.23,0,0,1,3.5-.82,5.65,5.65,0,0,1,6.18,6.16V78h-2.42V67.43a5.76,5.76,0,0,0-1.08-3.83,4.15,4.15,0,0,0-3.32-1.25,4.83,4.83,0,0,0-4,1.62q-1.29,1.62-1.29,5.09v9Z"/><rect class="cls-2" width="206.07" height="103"/></g></g></svg>