<svg xmlns="http://www.w3.org/2000/svg" viewBox="0 0 218.54 220.83"><defs><style>.cls-1{fill:#3fa9f5;}</style></defs><title>Asset 6icon_hi</title><g id="Layer_2" data-name="Layer 2"><g id="Layer_1-2" data-name="Layer 1"><path class="cls-1" d="M52.06,102.68C46.24,97.39,40.48,92.27,34.87,87c-2.52-2.37-5-4.64-8.7-3s-5.06,4.73-5.32,8.56c-.33,4.8-4.15,8.29-8.42,7.81A8.15,8.15,0,0,1,5.34,90.5c.66-3.22,3-4.8,5.77-6.15A17.67,17.67,0,0,0,17.22,80c3-3.74,2.59-6.62-.91-10-4.89-4.66-9.8-9.29-14.84-13.78-1.78-1.59-2-2.75-.32-4.5,4.58-4.79,9.11-9.63,13.55-14.55,2-2.2,3.34-1.47,4.53.63a31.67,31.67,0,0,1,1.45,3.37c2.26,5.33,8.19,8.54,13.43,7.26C40.2,47,44.29,41.69,43.87,35.88a12.06,12.06,0,0,0-11-11.38c-1.49-.15-3-.6-5.44-1.12L48.81,0,61.75,11.89c1.63,1.49,3.23,3,4.89,4.47,3.86,3.36,6.53,3.21,9.6-1,1.26-1.72,1.86-3.94,2.63-6,1.32-3.51,4.81-5.88,8.26-5.48a8.22,8.22,0,0,1,7.25,7.21A8.09,8.09,0,0,1,89,19.44c-2.27.82-4.83,1.15-6.81,2.4-3.94,2.48-4.06,5.09-.71,8.2,6.64,6.18,13.33,12.29,20.35,18.74-3.7,4.13-7.18,8-10.69,11.92-3.05,3.36-6.16,6.68-9.22,10-2.5,2.74-2.66,5.27.24,7.49a16,16,0,0,0,6.91,2.85c4.2.69,7.32,3.29,7.58,7.15a8.07,8.07,0,0,1-5.73,8.44c-4.27,1-7.71-1.15-9.81-5.16A25,25,0,0,0,75,84.08c-2.18-1.81-4.63-1.22-6.72,1.2-4.49,5.2-9.24,10.18-13.9,15.23C53.78,101.21,53,101.81,52.06,102.68Z"/><path d="M193.23,137.13c0,3.93.08,7.86,0,11.79,0,1.23-.56,3.44-1,3.48a11.27,11.27,0,0,1-4.41-1c-2.82-1-5.53-2.67-8.4-3-5.27-.55-8.83,2.6-10.93,7.16-2.18,4.73-1.15,9.27,2.37,12.93,3.37,3.5,7.59,4.87,12.44,3.22a22.65,22.65,0,0,0,2.36-1c5.63-2.68,7.62-1.47,7.63,4.63q0,6.82,0,13.63c0,5.14,0,5.15-5.33,5.15-6,0-12,.06-18.05,0-3.63,0-7.06.42-8.71,4.12-1.57,3.51-.36,6.64,2,9.49a7.52,7.52,0,0,1,.9,9.23c-1.8,3.12-4.62,4.2-8.14,3.74-5.31-.7-8-6.29-5.74-11.5A18.43,18.43,0,0,0,152,203c.31-5.8-2.79-8.8-8.62-8.81-6.14,0-12.29-.12-18.42,0-3,.08-4.18-.81-4.08-3.95.2-6.26.06-12.53.06-18.79,0-7.78-5.11-10.67-12.46-7.37a14,14,0,0,1-7.25,1.19c-3.14-.43-5-2.84-5.47-6.14-.46-3.51.68-6.34,3.72-8.2s5.8-1.38,8.67.39a21.82,21.82,0,0,0,6.11,3.05c4,.93,6.64-1.47,6.66-5.5,0-8.11.09-16.21,0-24.32,0-2.72.89-3.69,3.62-3.62,6,.15,12,0,18.05,0,5.16,0,6.4,2.13,4,6.93-1.61,3.16-2.51,6.29-1.33,9.89,1.68,5.12,5.29,7.84,10.36,8.78,4,.73,9.37-2,11.55-5.83a11.77,11.77,0,0,0-.43-13.19c-.47-.71-1.1-1.33-1.53-2.07-1.67-2.86-.86-4.45,2.39-4.48,7.49-.06,15,0,22.48-.05,2.4,0,3.29.86,3.22,3.24C193.15,128.53,193.23,132.83,193.23,137.13Z"/><path d="M193.23,60.33c0,3.81,0,7.62,0,11.42,0,2.47-.3,5,2.61,6.28s5.72.64,8.35-1a27.52,27.52,0,0,1,4.34-2.65c3.45-1.3,6.25.06,8.44,2.78a8.17,8.17,0,0,1,0,9.62c-2.18,2.71-4.9,3.93-8.45,2.85-3-.91-6-2.18-9.08-2.34-4.33-.23-6.19,2-6.2,6.28,0,6.51-.11,13,0,19.53.06,2.73-.88,3.67-3.61,3.62-7.37-.14-14.74,0-22.11-.06-2.76,0-5.5-.19-6.84,3s-.39,5.91,1.24,8.69a17.15,17.15,0,0,1,2.51,5.87c.52,3.55-1.34,6.17-4.61,7.57a7.3,7.3,0,0,1-8.5-1.57,7.69,7.69,0,0,1-1.83-8.8,48.27,48.27,0,0,0,2.08-5.09c1.37-5.65-1.78-9.65-7.45-9.66H126.11c-5.13,0-5.14,0-5.14-5s0-10.07,0-15.11c0-5.3,2.15-6.43,7.15-4.48a19.83,19.83,0,0,0,8.76,1.52c4.94-.48,8.62-4.73,9.64-9.85.85-4.29-1.46-9.27-5.56-12-3.92-2.63-8.94-2.45-13.19.14a37.35,37.35,0,0,1-5.82,2.36,41.58,41.58,0,0,1-.93-5.94c-.12-7,.07-14-.1-21-.07-3,1-3.84,3.86-3.77,6.14.17,12.28,0,18.42.06,4.33,0,5.79,2.16,4.5,6.44-.84,2.78-2.11,5.55-2.29,8.38-.36,5.58,3.06,10,8.34,11.6A12.11,12.11,0,0,0,167,51.32c-.5-.7-1.16-1.29-1.59-2-1.85-3.19-.56-5.6,3.11-5.64,7.25-.07,14.49,0,21.74,0,2.26,0,3,.91,3,3.08C193.17,51.24,193.23,55.79,193.23,60.33Z"/><path d="M116.1,151.21c-2.25-1.27-3.91-2.07-5.43-3.09-4.13-2.78-8.44-3.29-12.83-.89a11.4,11.4,0,0,0-6.31,11.55c.35,4.87,2.84,8.62,7.36,10.06,2.82.9,6.17.28,9.26.07,1.14-.08,2.21-1,3.36-1.43,2.92-1.09,5-.64,4.78,3.29-.4,6.73-.21,13.5-.08,20.25.06,2.9-1.07,3.88-3.92,3.81-6.5-.15-13,0-19.52-.1-1.33,0-3.63-.55-3.78-1.22-.33-1.47.27-3.23.8-4.77.94-2.7,2.74-5.26,3-8a11.16,11.16,0,0,0-7-11.39,12,12,0,0,0-15.73,16c.34.79.79,1.53,1.1,2.33,1.81,4.72.25,7.05-4.72,7.06-6,0-12-.08-18,0-2.59.05-3.43-.94-3.39-3.47.11-7.49,0-15,0-22.47,0-6.33-4.12-9.4-10.39-7.66a30.33,30.33,0,0,0-4,1.79,7.89,7.89,0,0,1-9.84-2.49,8.06,8.06,0,0,1,.85-10.46c2.76-2.76,7-2.92,10.44-.56a19.43,19.43,0,0,0,5.07,2.8C41.51,153.65,45,151,45,146.39c.05-7.24.11-14.49,0-21.73-.05-2.7.83-3.72,3.59-3.64,5.52.16,11,0,16.57,0,6.6,0,8.33,2.75,5.3,8.65a11.71,11.71,0,0,0,.12,11.92,12,12,0,0,0,16.6,4.42,12.14,12.14,0,0,0,4.16-16.7C90,127.23,87,125,89.1,122.68c1.31-1.46,4.61-1.46,7-1.55,5.52-.21,11.05-.2,16.57,0,1.16.05,3.23,1.43,3.25,2.24C116.18,132.34,116.1,141.27,116.1,151.21Z"/></g></g></svg>