<svg xmlns="http://www.w3.org/2000/svg" viewBox="0 0 273.72 103.21"><defs><style>.cls-1{fill:#fff;}.cls-2{fill:none;}</style></defs><title>Asset 18icon_pbtyn_h</title><g id="Layer_2" data-name="Layer 2"><g id="Layer_1-2" data-name="Layer 1"><path class="cls-1" d="M10.12,30.12V1.67h5.19A22.25,22.25,0,0,1,19.83,2a7,7,0,0,1,2.52,1.09,6.33,6.33,0,0,1,2.08,2.66,9.27,9.27,0,0,1,.74,3.75q0,4.06-2.27,6T15.7,17.35h-3V30.12Zm2.58-15h1.77q4.7,0,6.32-1.2T22.42,9.7a7,7,0,0,0-.37-2.32,5.64,5.64,0,0,0-1.11-1.89,4.09,4.09,0,0,0-2.06-1.2,19.19,19.19,0,0,0-4.41-.35H12.71Z"/><path class="cls-1" d="M30.64,12.88v8.61q0,3.92,1.12,5.54a4.27,4.27,0,0,0,3.78,1.61A4.3,4.3,0,0,0,39.32,27q1.15-1.63,1.15-5.52V12.88h2.37v9.83q0,4-1.85,6.09a6.89,6.89,0,0,1-5.42,2.07,7,7,0,0,1-5.46-2.07q-1.87-2.07-1.87-6.09V12.88Z"/><path class="cls-1" d="M51.6,16.34a10.56,10.56,0,0,1,2.59-3.17,4.88,4.88,0,0,1,3-.93,5.5,5.5,0,0,1,1,.1,7.25,7.25,0,0,1,1,.27l-.78,2.25a7.82,7.82,0,0,0-.81-.19,4.44,4.44,0,0,0-.81-.08,4.5,4.5,0,0,0-3.68,2,8.11,8.11,0,0,0-1.53,5v8.47H49.21V12.88H51.6Z"/><path class="cls-1" d="M61.75,38.78V12.88h2.31v3.23a7.37,7.37,0,0,1,2.58-2.87,6.58,6.58,0,0,1,3.58-1,7.39,7.39,0,0,1,5.86,2.55,10,10,0,0,1,2.22,6.77,10,10,0,0,1-2.18,6.77,7.25,7.25,0,0,1-5.79,2.54,6.76,6.76,0,0,1-3.67-1,7.39,7.39,0,0,1-2.6-2.94V38.78Zm14-17.18a8.22,8.22,0,0,0-1.53-5.26A5.09,5.09,0,0,0,70,14.44a5.35,5.35,0,0,0-4.32,1.86,7.67,7.67,0,0,0-1.56,5.1,7.86,7.86,0,0,0,1.68,5.28,5.55,5.55,0,0,0,4.44,2,4.84,4.84,0,0,0,4.05-1.86A8.23,8.23,0,0,0,75.72,21.61Z"/><path class="cls-1" d="M91.1,30.87a8.84,8.84,0,0,1-3.54-.73,10,10,0,0,1-3.07-2.09,8.71,8.71,0,0,1-2-3,9.38,9.38,0,0,1-.68-3.58,9.26,9.26,0,0,1,.7-3.58,9.24,9.24,0,0,1,8.57-5.71,9.53,9.53,0,0,1,3.62.7,9.34,9.34,0,0,1,3.06,2,9.24,9.24,0,0,1,2.06,10.11,9,9,0,0,1-2,3,9.59,9.59,0,0,1-3.1,2.09A9.29,9.29,0,0,1,91.1,30.87Zm.08-2.23a6.42,6.42,0,0,0,4.81-2,7,7,0,0,0,2-5,7,7,0,0,0-2-5.05,6.69,6.69,0,0,0-9.62,0,7,7,0,0,0-2,5.05,7,7,0,0,0,2,5A6.39,6.39,0,0,0,91.18,28.64Z"/><path class="cls-1" d="M103.52,27l2.27-1.3a4.23,4.23,0,0,0,4.26,2.9,3.57,3.57,0,0,0,2.41-.77,2.56,2.56,0,0,0,.89-2q0-2-3.52-3.36l-.58-.23A10.89,10.89,0,0,1,105.44,20a3.9,3.9,0,0,1-1.09-2.81,4.65,4.65,0,0,1,1.55-3.6,5.76,5.76,0,0,1,4-1.41,6.66,6.66,0,0,1,3.58.91,5.29,5.29,0,0,1,2.16,2.6l-2.2,1.22a3.5,3.5,0,0,0-1.36-1.87,4.08,4.08,0,0,0-2.33-.64,2.94,2.94,0,0,0-2,.73,2.35,2.35,0,0,0-.81,1.82,2.25,2.25,0,0,0,.8,1.77,10.64,10.64,0,0,0,3.3,1.53,8.91,8.91,0,0,1,3.82,2.16,4.86,4.86,0,0,1,1,3.23,4.69,4.69,0,0,1-1.69,3.79,6.85,6.85,0,0,1-4.55,1.42,6.93,6.93,0,0,1-3.78-1A5.62,5.62,0,0,1,103.52,27Z"/><path class="cls-1" d="M135.48,21.57h-13.7a8.4,8.4,0,0,0,1.67,5.25,5.19,5.19,0,0,0,4.22,1.9,5.59,5.59,0,0,0,3.34-1,7.6,7.6,0,0,0,2.39-3.11l2.2,1.2a9.54,9.54,0,0,1-3.23,3.86,8.48,8.48,0,0,1-4.69,1.23,8,8,0,0,1-6.13-2.54,9.42,9.42,0,0,1-2.34-6.65,9.89,9.89,0,0,1,2.32-6.84,7.75,7.75,0,0,1,6.07-2.6,7.33,7.33,0,0,1,5.73,2.4,9.22,9.22,0,0,1,2.16,6.4Zm-2.84-2a5.34,5.34,0,0,0-1.57-3.67,5.34,5.34,0,0,0-3.79-1.3,5.16,5.16,0,0,0-3.64,1.36,5.51,5.51,0,0,0-1.7,3.61Z"/><path class="cls-1" d="M140.67,20.28h8.47v2.51h-8.47Z"/><path class="cls-1" d="M157.4,30.12H155V0h2.39V16a6.36,6.36,0,0,1,2.46-2.83,7.14,7.14,0,0,1,3.78-1,7.24,7.24,0,0,1,5.77,2.61,10,10,0,0,1,2.23,6.75,9.74,9.74,0,0,1-2.26,6.72,7.61,7.61,0,0,1-6,2.55,6.19,6.19,0,0,1-6-3.91ZM169,21.68a8.18,8.18,0,0,0-1.57-5.31,5.77,5.77,0,0,0-8.51-.12,7.48,7.48,0,0,0-1.53,5,8.52,8.52,0,0,0,1.56,5.43,5.17,5.17,0,0,0,4.28,2,5.25,5.25,0,0,0,4.27-1.8A7.86,7.86,0,0,0,169,21.68Z"/><path class="cls-1" d="M178.93,12.88v8.61q0,3.92,1.12,5.54a5.22,5.22,0,0,0,7.57,0q1.15-1.63,1.15-5.52V12.88h2.37v9.83q0,4-1.85,6.09a6.89,6.89,0,0,1-5.42,2.07,7,7,0,0,1-5.46-2.07q-1.87-2.07-1.87-6.09V12.88Z"/><path class="cls-1" d="M197.06,6.16a1.74,1.74,0,0,1,.54-1.29,1.79,1.79,0,0,1,1.3-.53,1.83,1.83,0,0,1,1.31.53,1.73,1.73,0,0,1,.55,1.29,1.75,1.75,0,0,1-.53,1.3A1.82,1.82,0,0,1,198.9,8a1.8,1.8,0,0,1-1.31-.52A1.75,1.75,0,0,1,197.06,6.16Zm.6,24V12.88h2.47V30.12Z"/><path class="cls-1" d="M209.28,30.12h-2.47V0h2.47Z"/><path class="cls-1" d="M216.31,14.92h-3.17v-2h3.17V5.81h2.35v7.07h3.46v2h-3.46V30.12h-2.35Z"/><path class="cls-1" d="M237.65,14.92h-3.17v-2h3.17V5.81H240v7.07h3.46v2H240V30.12h-2.35Z"/><path class="cls-1" d="M254.84,30.87a8.84,8.84,0,0,1-3.54-.73,10,10,0,0,1-3.07-2.09,8.71,8.71,0,0,1-2-3,9.38,9.38,0,0,1-.68-3.58,9.26,9.26,0,0,1,.7-3.58,9.24,9.24,0,0,1,8.57-5.71,9.53,9.53,0,0,1,3.62.7,9.34,9.34,0,0,1,3.06,2,9.24,9.24,0,0,1,2.06,10.11,9,9,0,0,1-2,3,9.59,9.59,0,0,1-3.1,2.09A9.29,9.29,0,0,1,254.84,30.87Zm.08-2.23a6.42,6.42,0,0,0,4.81-2,7,7,0,0,0,2-5,7,7,0,0,0-2-5.05,6.69,6.69,0,0,0-9.62,0,7,7,0,0,0-2,5.05,7,7,0,0,0,2,5A6.39,6.39,0,0,0,254.92,28.64Z"/><path class="cls-1" d="M50.72,77.87V64.77L41.28,49.42h3.11l7.64,13,7.67-13h3L53.3,64.77v13.1Z"/><path class="cls-1" d="M69.45,78.63a8.84,8.84,0,0,1-3.54-.73,10,10,0,0,1-3.07-2.09,8.71,8.71,0,0,1-2-3,9.38,9.38,0,0,1-.68-3.58,9.26,9.26,0,0,1,.7-3.58A9.24,9.24,0,0,1,69.45,60a9.53,9.53,0,0,1,3.62.7,9.34,9.34,0,0,1,3.06,2,9.24,9.24,0,0,1,2.06,10.11,9,9,0,0,1-2,3,9.59,9.59,0,0,1-3.1,2.09A9.29,9.29,0,0,1,69.45,78.63Zm.08-2.23a6.42,6.42,0,0,0,4.81-2,7.43,7.43,0,0,0,0-10.07,6.69,6.69,0,0,0-9.62,0,7.45,7.45,0,0,0,0,10.07A6.39,6.39,0,0,0,69.53,76.39Z"/><path class="cls-1" d="M86.22,60.63v8.61q0,3.92,1.12,5.54a5.22,5.22,0,0,0,7.57,0q1.15-1.63,1.15-5.52V60.63h2.37v9.83q0,4-1.85,6.09a6.89,6.89,0,0,1-5.42,2.07,7,7,0,0,1-5.46-2.07q-1.87-2.07-1.87-6.09V60.63Z"/><path class="cls-1" d="M107.18,64.09a10.56,10.56,0,0,1,2.59-3.17,4.88,4.88,0,0,1,3-.93,5.5,5.5,0,0,1,1,.1,7.25,7.25,0,0,1,1,.27L114,62.61a7.82,7.82,0,0,0-.81-.19,4.44,4.44,0,0,0-.81-.08,4.5,4.5,0,0,0-3.68,2,8.11,8.11,0,0,0-1.53,5v8.47h-2.39V60.63h2.39Z"/><path class="cls-1" d="M129.14,77.87V48.22L149.29,72V49.42h2.41V78.7L131.57,54.86v23Z"/><path class="cls-1" d="M173.24,69.32h-13.7a8.4,8.4,0,0,0,1.67,5.25,5.19,5.19,0,0,0,4.22,1.9,5.59,5.59,0,0,0,3.34-1,7.6,7.6,0,0,0,2.39-3.11l2.2,1.2a9.54,9.54,0,0,1-3.23,3.86,8.48,8.48,0,0,1-4.69,1.23,8,8,0,0,1-6.13-2.54A9.42,9.42,0,0,1,157,69.43a9.89,9.89,0,0,1,2.32-6.84,7.75,7.75,0,0,1,6.07-2.6,7.33,7.33,0,0,1,5.73,2.4,9.22,9.22,0,0,1,2.16,6.4Zm-2.84-2a4.93,4.93,0,0,0-5.36-5,5.16,5.16,0,0,0-3.64,1.36,5.51,5.51,0,0,0-1.7,3.61Z"/><path class="cls-1" d="M193,69.32h-13.7A8.4,8.4,0,0,0,181,74.56a5.19,5.19,0,0,0,4.22,1.9,5.59,5.59,0,0,0,3.34-1,7.6,7.6,0,0,0,2.39-3.11l2.2,1.2a9.54,9.54,0,0,1-3.23,3.86,8.48,8.48,0,0,1-4.69,1.23,8,8,0,0,1-6.13-2.54,9.42,9.42,0,0,1-2.34-6.65,9.89,9.89,0,0,1,2.32-6.84,7.75,7.75,0,0,1,6.07-2.6,7.33,7.33,0,0,1,5.73,2.4,9.22,9.22,0,0,1,2.16,6.4Zm-2.84-2a4.93,4.93,0,0,0-5.36-5,5.16,5.16,0,0,0-3.64,1.36,5.51,5.51,0,0,0-1.7,3.61Z"/><path class="cls-1" d="M210.76,77.87V74.72a6.19,6.19,0,0,1-6,3.91,7.61,7.61,0,0,1-6-2.55,9.74,9.74,0,0,1-2.26-6.72,10,10,0,0,1,2.23-6.75A7.24,7.24,0,0,1,204.53,60a7.14,7.14,0,0,1,3.78,1,6.36,6.36,0,0,1,2.46,2.83v-16h2.43V77.87Zm-11.58-8.43a7.83,7.83,0,0,0,1.51,5.15,5.29,5.29,0,0,0,4.3,1.81,5.12,5.12,0,0,0,4.26-2A8.56,8.56,0,0,0,210.8,69a7.48,7.48,0,0,0-1.53-5,5.77,5.77,0,0,0-8.51.12A8.18,8.18,0,0,0,199.18,69.43Z"/><path class="cls-1" d="M217.56,74.8l2.27-1.3a4.23,4.23,0,0,0,4.26,2.9,3.57,3.57,0,0,0,2.41-.77,2.56,2.56,0,0,0,.89-2q0-2-3.52-3.36L223.3,70a10.89,10.89,0,0,1-3.81-2.21A3.9,3.9,0,0,1,218.4,65a4.65,4.65,0,0,1,1.55-3.6A5.76,5.76,0,0,1,224,60a6.66,6.66,0,0,1,3.58.91,5.29,5.29,0,0,1,2.16,2.6l-2.2,1.22a3.5,3.5,0,0,0-1.36-1.87,4.08,4.08,0,0,0-2.33-.64,2.94,2.94,0,0,0-2,.73,2.35,2.35,0,0,0-.81,1.82,2.25,2.25,0,0,0,.8,1.77,10.64,10.64,0,0,0,3.3,1.53,8.91,8.91,0,0,1,3.82,2.16,4.86,4.86,0,0,1,1,3.23,4.69,4.69,0,0,1-1.69,3.79,6.85,6.85,0,0,1-4.55,1.42,6.93,6.93,0,0,1-3.78-1A5.62,5.62,0,0,1,217.56,74.8Z"/><rect class="cls-2" y="0.21" width="273.72" height="103"/></g></g></svg>