<svg xmlns="http://www.w3.org/2000/svg" viewBox="0 0 244 171.49"><defs><style>.cls-1{fill:#999;}.cls-2{fill:#666;}</style></defs><title>Asset 8icon_rp</title><g id="Layer_2" data-name="Layer 2"><g id="Layer_1-2" data-name="Layer 1"><path d="M0,108.61c2.42-5.41,4.9-10.8,7.26-16.23Q21.36,60,35.4,27.58c.31-.71.58-1.44,1-2.42-.91-.07-1.59-.14-2.27-.16-3.26-.1-5-1.42-5-3.84s1.79-3.82,5-3.83q13.94,0,27.88,0c9.85,0,19.7,0,29.54,0A4.16,4.16,0,0,0,94,16.8c5.29-4.44,11.63-5.87,18.23-6.86,1.44-.22,2.59-2,4.05-2.55,1.9-.76,2-2.09,2-3.75A3.69,3.69,0,0,1,121.91,0a3.55,3.55,0,0,1,3.82,3.68c-.12,2.1,1.08,2.8,2.38,4,2.16,2.06,4.6,2.4,7.25,2.83a29.87,29.87,0,0,1,14.34,6,5.65,5.65,0,0,0,3.31.79q29.07.07,58.13,0a16.61,16.61,0,0,1,2.14.05,3.81,3.81,0,0,1,3.52,3.82,3.75,3.75,0,0,1-3.6,3.72,25.87,25.87,0,0,1-2.62.06h-2.88a18.66,18.66,0,0,0,.58,2q17.47,40.26,35,80.51a8.44,8.44,0,0,0,.74,1.16V111c-2.83,3.87-6,3.65-7.81-.61q-18.25-42-36.48-84c-.23-.54-.86-.9-1.31-1.35-.39.41-.92.76-1.14,1.25q-18.26,42-36.46,84c-1.28,3-3.23,4-5.47,3.08s-2.84-3.1-1.57-6Q170.88,67.69,188,28.06c.43-1,.84-2,1.35-3.22H125.93V148.27c1.88.4,3.74.73,5.57,1.2a36.35,36.35,0,0,1,19.62,12.73,4.29,4.29,0,0,0,3.81,1.77c11.28-.07,22.56,0,33.83,0,3.15,0,4.77,1.26,4.81,3.68s-1.65,3.87-4.88,3.87H57.4c-3.14,0-4.73-1-5-3.24-.34-2.58,1.35-4.31,4.38-4.32,10.17,0,20.33-.11,30.5.06,2.84,0,4.73-.61,6.58-3,5.44-6.94,12.5-11.39,21.43-12.49a4.84,4.84,0,0,0,.95-.34V24.87H54.7c.32.82.59,1.58.9,2.32l34.27,79.26a23.57,23.57,0,0,1,.92,2.19,3.72,3.72,0,0,1-2.14,4.71,3.64,3.64,0,0,1-4.74-1.57,9,9,0,0,1-.73-1.49q-18.22-42-36.45-84c-.21-.49-.75-.84-1.13-1.25-.45.44-1.08.81-1.31,1.34Q26,68.47,7.71,110.59c-1.76,4.06-5,4.19-7.71.4Z"/><path class="cls-1" d="M56.19,116.14l-.09,3.52a13.64,13.64,0,0,1-4,2.33,12.31,12.31,0,0,1-4.36.84,11.88,11.88,0,0,1-8.81-3.66,17.22,17.22,0,0,1-4.5-9.78h-3.8l.49-2.6h3.06c0-.17,0-.36,0-.57s0-.53,0-1q0-.36,0-.78t.05-1.15H30.63l.49-2.6h3.4a17.49,17.49,0,0,1,4.66-9.43,11.7,11.7,0,0,1,8.55-3.59,11.34,11.34,0,0,1,4.53.89,19.31,19.31,0,0,1,4.17,2.67V94.7a23.88,23.88,0,0,0-4.28-3.22,8.81,8.81,0,0,0-4.16-1,9.16,9.16,0,0,0-6.77,2.77,14.44,14.44,0,0,0-3.67,7.5H52.62l-.65,2.6H37.27q-.06.73-.08,1.15t0,.78q0,.66,0,1c0,.21,0,.4,0,.57H50.84l-.72,2.6H37.46A14.72,14.72,0,0,0,41,117.17a8.77,8.77,0,0,0,6.64,2.91,10.82,10.82,0,0,0,4.53-1A12.73,12.73,0,0,0,56.19,116.14Z"/><rect class="cls-2" x="15.63" y="126.26" width="59.91" height="5.34"/><path class="cls-1" d="M211.6,116.14l-.09,3.52a13.64,13.64,0,0,1-4,2.33,12.31,12.31,0,0,1-4.36.84,11.88,11.88,0,0,1-8.81-3.66,17.22,17.22,0,0,1-4.5-9.78H186l.49-2.6h3.06c0-.17,0-.36,0-.57s0-.53,0-1q0-.36,0-.78t.05-1.15H186l.49-2.6h3.4a17.49,17.49,0,0,1,4.66-9.43,11.7,11.7,0,0,1,8.55-3.59,11.34,11.34,0,0,1,4.53.89,19.31,19.31,0,0,1,4.17,2.67V94.7a23.88,23.88,0,0,0-4.28-3.22,8.81,8.81,0,0,0-4.16-1,9.16,9.16,0,0,0-6.77,2.77,14.44,14.44,0,0,0-3.67,7.5H208l-.65,2.6h-14.7q-.06.73-.08,1.15t0,.78q0,.66,0,1c0,.21,0,.4,0,.57h13.61l-.72,2.6H192.87a14.72,14.72,0,0,0,3.54,7.78,8.77,8.77,0,0,0,6.64,2.91,10.82,10.82,0,0,0,4.53-1A12.73,12.73,0,0,0,211.6,116.14Z"/><rect class="cls-2" x="171.04" y="126.26" width="59.91" height="5.34"/></g></g></svg>