<svg xmlns="http://www.w3.org/2000/svg" viewBox="0 0 155.96 243.84"><defs><style>.cls-1{fill:#4d4d4d;}.cls-2{fill:#3fa9f5;}</style></defs><title>Asset 20icon_seou</title><g id="Layer_2" data-name="Layer 2"><g id="Layer_1-2" data-name="Layer 1"><path class="cls-1" d="M39.69,141.57c0-1.63,0-2.72,0-3.81,0-19.72-.13-39.45.06-59.17.07-7.72,2.08-14.95,7.2-21.13,9.88-11.94,29.36-11,38.5,2.53a31.42,31.42,0,0,1,5.07,16.38c.34,6.49.16,13,0,19.52,0,2,.44,3,2.61,3.45,5.8,1.13,10,4.76,13.54,9.29a6.16,6.16,0,0,0,3.51,2.11c7.76,1.27,14.19,4.58,18.86,11.1a4.94,4.94,0,0,0,3.1,1.77c10,1.22,17.22,6.49,21.12,15.59a35.53,35.53,0,0,1,2.57,13.12c.2,12.41.17,24.84-.49,37.22-.35,6.62-2,13.2-3.41,19.73-2.28,10.84-4.83,21.61-7.16,32.44-.34,1.6-.92,2.12-2.54,2.12-31.74,0-63.48,0-95.21-.11a4.25,4.25,0,0,1-3-1.78C31.89,223.15,19.94,204.2,7.6,185.49,4.19,180.32,1.07,175.22.27,169c-1.85-14.36,5.91-30.24,23.68-32C29.42,136.5,34.54,138.35,39.69,141.57Zm36.63-20.19c0-1.6,0-2.37,0-3.15,0-13.52.1-27-.09-40.56a17.68,17.68,0,0,0-1.94-8c-4.21-7.64-14-7.62-18.14,0a19.16,19.16,0,0,0-2,8.31C53.88,86.5,54,95,54,103.54q0,28.85,0,57.69c0,2.87-.36,5.49-3.29,6.81s-5.08-.57-7.09-2.48c-3.63-3.45-7.35-6.8-11-10.27C27.35,150.11,20,151,16.2,157.4a13.86,13.86,0,0,0,.31,15.35C28.1,190.88,39.78,209,51.31,227.14a4.53,4.53,0,0,0,4.47,2.49c23.64-.08,47.27,0,70.91-.07,7.33,0,5.69,1,7.77-6,7.05-23.84,8.11-48.25,7.32-72.86-.18-5.57-3.91-10.53-8.7-11.74s-8.75.9-12.06,6.26a5.13,5.13,0,0,1-.8.77c-.18-3.7-.1-7.13-.58-10.47a11.63,11.63,0,0,0-9-9.39c-4.43-.74-8.33,1.29-11,5.71-.32.53-.68,1-1,1.55-.59-3.12-.39-6.1-.64-9.06-.45-5.36-4.27-9.83-9-10.85s-8.76,1.29-11.68,6.46C77.2,120.18,77,120.41,76.32,121.37Z"/><path class="cls-2" d="M101,85.59C100.39,79,99.8,72.45,99.24,65.9c-.27-3.13-.92-6.31-.65-9.41A38.7,38.7,0,0,0,72.31,16.13c-17.18-5.72-35,.49-44.64,15.69-9.27,14.54-8.48,29.33,1,43.7a6,6,0,0,1,1.12,2.95c.11,5.6.05,11.21.05,16.87C19,89.94,6.53,71.51,7.24,51a52.8,52.8,0,0,1,99.34-23.06C117.69,48.63,112.65,72.9,101,85.59Z"/></g></g></svg>