<svg xmlns="http://www.w3.org/2000/svg" viewBox="0 0 303.63 103"><defs><style>.cls-1{fill:#fff;}.cls-2{fill:none;}</style></defs><title>Asset 21icon_spi_h</title><g id="Layer_2" data-name="Layer 2"><g id="Layer_1-2" data-name="Layer 1"><path class="cls-1" d="M12.44,25.27l2.21-1.18a6.1,6.1,0,0,0,2.14,3.25,5.87,5.87,0,0,0,3.65,1.15,5.53,5.53,0,0,0,4.21-1.59,6.12,6.12,0,0,0,1.51-4.4,5.53,5.53,0,0,0-1-3.41,13.81,13.81,0,0,0-4.37-3.14,19.55,19.55,0,0,1-5.7-4,6.33,6.33,0,0,1-1.41-4.15,6.41,6.41,0,0,1,2-4.92A7.48,7.48,0,0,1,21,1a7.36,7.36,0,0,1,3.71.9,6.75,6.75,0,0,1,2.57,2.7l-2,1.2a4.33,4.33,0,0,0-1.75-1.86,5.38,5.38,0,0,0-2.68-.64,4.52,4.52,0,0,0-3.33,1.23,4.47,4.47,0,0,0-1.24,3.32q0,3,4.92,5.56l1.36.72A14.28,14.28,0,0,1,27.4,17.9a8,8,0,0,1,1.22,4.6,8.2,8.2,0,0,1-2.23,6.06,8.18,8.18,0,0,1-6.06,2.24,8.14,8.14,0,0,1-4.78-1.39A9,9,0,0,1,12.44,25.27Z"/><path class="cls-1" d="M36.41,12.85v8.58q0,3.91,1.11,5.52a4.26,4.26,0,0,0,3.77,1.61,4.29,4.29,0,0,0,3.78-1.63q1.14-1.63,1.14-5.5V12.85h2.36v9.81q0,4-1.84,6.07a6.87,6.87,0,0,1-5.41,2.06,7,7,0,0,1-5.45-2.06Q34,26.66,34,22.65V12.85Z"/><path class="cls-1" d="M57.32,16.3a10.53,10.53,0,0,1,2.59-3.16,4.86,4.86,0,0,1,3-.93,5.49,5.49,0,0,1,1,.1,7.23,7.23,0,0,1,1,.27l-.77,2.25a7.8,7.8,0,0,0-.8-.19,4.43,4.43,0,0,0-.8-.08,4.49,4.49,0,0,0-3.67,2,8.09,8.09,0,0,0-1.52,5V30H54.94V12.85h2.38Z"/><path class="cls-1" d="M82.55,12.85v14.2q0,3.39-.18,5.17a8.31,8.31,0,0,1-.61,2.65A5.91,5.91,0,0,1,79,37.74a10.19,10.19,0,0,1-4.65.94A9.25,9.25,0,0,1,69,37.35a5.67,5.67,0,0,1-2.32-4h3a3.49,3.49,0,0,0,1.52,2.4,6,6,0,0,0,3.34.81A7,7,0,0,0,77.43,36a4.24,4.24,0,0,0,1.91-1.55A4.31,4.31,0,0,0,79.94,33a13.38,13.38,0,0,0,.18-2.61V26.86a6.31,6.31,0,0,1-2.43,2.89,6.82,6.82,0,0,1-3.75,1,7.23,7.23,0,0,1-5.78-2.52A10,10,0,0,1,66,21.51a10,10,0,0,1,2.21-6.75,7.36,7.36,0,0,1,5.85-2.55,6.72,6.72,0,0,1,3.69,1.06,5.94,5.94,0,0,1,2.37,2.8V12.85ZM74.33,14.4a5.12,5.12,0,0,0-4.21,1.91,8.12,8.12,0,0,0-1.54,5.24A8.13,8.13,0,0,0,70,26.71a4.88,4.88,0,0,0,4.06,1.85,5.49,5.49,0,0,0,4.41-2,7.89,7.89,0,0,0,1.66-5.27,7.68,7.68,0,0,0-1.55-5.1A5.3,5.3,0,0,0,74.33,14.4Z"/><path class="cls-1" d="M88.46,6.14A1.74,1.74,0,0,1,89,4.85a1.79,1.79,0,0,1,1.3-.53,1.82,1.82,0,0,1,1.31.53,1.73,1.73,0,0,1,.55,1.29,1.75,1.75,0,0,1-.53,1.3A1.82,1.82,0,0,1,90.3,8,1.79,1.79,0,0,1,89,7.44,1.74,1.74,0,0,1,88.46,6.14ZM89.06,30V12.85h2.46V30Z"/><path class="cls-1" d="M111.4,16a9.23,9.23,0,0,0-2.56-1.25,9.45,9.45,0,0,0-2.79-.42,6.62,6.62,0,0,0-5.1,2,7.7,7.7,0,0,0-1.9,5.46,6.73,6.73,0,0,0,2,5,6.83,6.83,0,0,0,5,2,8.72,8.72,0,0,0,2.82-.48,11,11,0,0,0,2.8-1.45v2.62a10.41,10.41,0,0,1-2.79,1.08,14.32,14.32,0,0,1-3.27.36,8.62,8.62,0,0,1-6.45-2.59,9.09,9.09,0,0,1-2.52-6.62,9,9,0,0,1,9.46-9.46,13.56,13.56,0,0,1,2.92.3,9.63,9.63,0,0,1,2.43.86Z"/><path class="cls-1" d="M128.82,30V26.9a6.24,6.24,0,0,1-6,3.9,7.59,7.59,0,0,1-6-2.54,9.71,9.71,0,0,1-2.26-6.7,10,10,0,0,1,2.23-6.73,7.77,7.77,0,0,1,9.54-1.65A6.3,6.3,0,0,1,128.82,16V12.85h2.38V30Zm-11.59-8.41a7.81,7.81,0,0,0,1.5,5.13,5.27,5.27,0,0,0,4.29,1.8,5.16,5.16,0,0,0,4.27-2,8.5,8.5,0,0,0,1.56-5.42,7.4,7.4,0,0,0-1.55-5,5.29,5.29,0,0,0-4.24-1.81,5.21,5.21,0,0,0-4.26,1.93A8.16,8.16,0,0,0,117.24,21.63Z"/><path class="cls-1" d="M140.22,30h-2.46V0h2.46Z"/><path class="cls-1" d="M149.34,30h-2.46V0h2.46Z"/><path class="cls-1" d="M153.51,12.85H156L161,26.3l4.53-13.45H168l-8.89,25.83h-2.46l3-8.76Z"/><path class="cls-1" d="M183.62,30V1.67h5.17a22.19,22.19,0,0,1,4.5.33,7,7,0,0,1,2.51,1.08,6.32,6.32,0,0,1,2.07,2.65,9.25,9.25,0,0,1,.74,3.74q0,4.05-2.27,5.94t-7.17,1.89h-3V30Zm2.58-15H188q4.69,0,6.31-1.19t1.62-4.18a7,7,0,0,0-.37-2.32,5.63,5.63,0,0,0-1.1-1.89,4.08,4.08,0,0,0-2.05-1.2,19.14,19.14,0,0,0-4.4-.35H186.2Z"/><path class="cls-1" d="M204.09,16.3a10.53,10.53,0,0,1,2.59-3.16,4.86,4.86,0,0,1,3-.93,5.49,5.49,0,0,1,1,.1,7.23,7.23,0,0,1,1,.27l-.77,2.25a7.8,7.8,0,0,0-.8-.19,4.43,4.43,0,0,0-.8-.08,4.49,4.49,0,0,0-3.67,2,8.09,8.09,0,0,0-1.52,5V30H201.7V12.85h2.38Z"/><path class="cls-1" d="M229,21.51H215.31A8.38,8.38,0,0,0,217,26.74a5.18,5.18,0,0,0,4.21,1.9,5.57,5.57,0,0,0,3.33-1,7.58,7.58,0,0,0,2.38-3.1l2.19,1.2a9.51,9.51,0,0,1-3.23,3.85,8.46,8.46,0,0,1-4.68,1.23,7.93,7.93,0,0,1-6.11-2.53,9.4,9.4,0,0,1-2.33-6.64A9.86,9.86,0,0,1,215,14.8a7.73,7.73,0,0,1,6.06-2.6,7.31,7.31,0,0,1,5.72,2.39A9.19,9.19,0,0,1,229,21Zm-2.83-2a5.32,5.32,0,0,0-1.57-3.66,5.33,5.33,0,0,0-3.78-1.3,5.14,5.14,0,0,0-3.63,1.36,5.49,5.49,0,0,0-1.7,3.6Z"/><path class="cls-1" d="M247.3,16a9.23,9.23,0,0,0-2.56-1.25,9.45,9.45,0,0,0-2.79-.42,6.62,6.62,0,0,0-5.1,2,7.7,7.7,0,0,0-1.9,5.46,6.73,6.73,0,0,0,2,5,6.83,6.83,0,0,0,5,2,8.72,8.72,0,0,0,2.82-.48,11,11,0,0,0,2.8-1.45v2.62a10.41,10.41,0,0,1-2.79,1.08,14.32,14.32,0,0,1-3.27.36,8.62,8.62,0,0,1-6.45-2.59,9.09,9.09,0,0,1-2.52-6.62A9,9,0,0,1,242,12.21a13.56,13.56,0,0,1,2.92.3,9.63,9.63,0,0,1,2.43.86Z"/><path class="cls-1" d="M251.58,6.14a1.74,1.74,0,0,1,.54-1.29,1.79,1.79,0,0,1,1.3-.53,1.82,1.82,0,0,1,1.31.53,1.73,1.73,0,0,1,.55,1.29,1.75,1.75,0,0,1-.53,1.3,1.82,1.82,0,0,1-1.33.52,1.79,1.79,0,0,1-1.31-.52A1.74,1.74,0,0,1,251.58,6.14Zm.6,23.89V12.85h2.46V30Z"/><path class="cls-1" d="M259.2,27l2.27-1.3a4.22,4.22,0,0,0,4.24,2.89,3.56,3.56,0,0,0,2.4-.77,2.56,2.56,0,0,0,.89-2q0-2-3.51-3.35l-.58-.23a10.86,10.86,0,0,1-3.8-2.2,3.89,3.89,0,0,1-1.08-2.8,4.63,4.63,0,0,1,1.55-3.59,5.74,5.74,0,0,1,4-1.41,6.65,6.65,0,0,1,3.57.91,5.27,5.27,0,0,1,2.15,2.6l-2.19,1.22A3.49,3.49,0,0,0,267.76,15a4.07,4.07,0,0,0-2.33-.64,2.93,2.93,0,0,0-2,.73,2.34,2.34,0,0,0-.8,1.81,2.24,2.24,0,0,0,.79,1.76,10.61,10.61,0,0,0,3.29,1.53,8.88,8.88,0,0,1,3.81,2.15,4.85,4.85,0,0,1,1,3.22,4.68,4.68,0,0,1-1.69,3.78,6.83,6.83,0,0,1-4.53,1.41,6.91,6.91,0,0,1-3.77-1A5.61,5.61,0,0,1,259.2,27Z"/><path class="cls-1" d="M291.07,21.51H277.41a8.38,8.38,0,0,0,1.67,5.23,5.18,5.18,0,0,0,4.21,1.9,5.57,5.57,0,0,0,3.33-1,7.58,7.58,0,0,0,2.38-3.1l2.19,1.2A9.51,9.51,0,0,1,288,29.56a8.46,8.46,0,0,1-4.68,1.23,7.93,7.93,0,0,1-6.11-2.53,9.4,9.4,0,0,1-2.33-6.64,9.86,9.86,0,0,1,2.32-6.82,7.73,7.73,0,0,1,6.06-2.6,7.31,7.31,0,0,1,5.72,2.39A9.19,9.19,0,0,1,291.07,21Zm-2.83-2a5.32,5.32,0,0,0-1.57-3.66,5.33,5.33,0,0,0-3.78-1.3,5.14,5.14,0,0,0-3.63,1.36,5.49,5.49,0,0,0-1.7,3.6Z"/><path class="cls-1" d="M60.59,77.66V49.29h2.58V77.66Z"/><path class="cls-1" d="M69.89,77.66V60.47h2.27v2.65a7,7,0,0,1,2.57-2.47,7.23,7.23,0,0,1,3.5-.82A5.65,5.65,0,0,1,84.4,66V77.66H82V67.06a5.76,5.76,0,0,0-1.08-3.83A4.15,4.15,0,0,0,77.58,62a4.83,4.83,0,0,0-4,1.62q-1.29,1.62-1.29,5.09v9Z"/><path class="cls-1" d="M91.12,77.66V62.5H87.91v-2h3.22v-5q0-5.17,1-6.71t3.55-1.54a6.79,6.79,0,0,1,1.22.11,6.06,6.06,0,0,1,1.08.3l-.45,2.09a4.76,4.76,0,0,0-.9-.35,3.13,3.13,0,0,0-.8-.12,1.85,1.85,0,0,0-1.78,1A8.81,8.81,0,0,0,93.49,54v6.51h3.78v2H93.49V77.66Z"/><path class="cls-1" d="M108.64,78.41a8.82,8.82,0,0,1-3.53-.73,9.94,9.94,0,0,1-3.06-2.08,8.69,8.69,0,0,1-2-2.95,9.36,9.36,0,0,1-.68-3.57,9.24,9.24,0,0,1,.7-3.57,9.21,9.21,0,0,1,8.55-5.7,9.51,9.51,0,0,1,3.61.7,9.31,9.31,0,0,1,3.05,2,9.22,9.22,0,0,1,2.05,10.09,9,9,0,0,1-2,3,9.57,9.57,0,0,1-3.09,2.08A9.26,9.26,0,0,1,108.64,78.41Zm.08-2.23a6.4,6.4,0,0,0,4.8-2,7.41,7.41,0,0,0,0-10,6.67,6.67,0,0,0-9.59,0,7.43,7.43,0,0,0,0,10A6.37,6.37,0,0,0,108.72,76.18Z"/><path class="cls-1" d="M125.37,63.92A10.53,10.53,0,0,1,128,60.76a4.86,4.86,0,0,1,3-.93,5.49,5.49,0,0,1,1,.1,7.23,7.23,0,0,1,1,.27l-.77,2.25a7.8,7.8,0,0,0-.8-.19,4.43,4.43,0,0,0-.8-.08,4.49,4.49,0,0,0-3.67,2,8.09,8.09,0,0,0-1.52,5v8.45H123V60.47h2.38Z"/><path class="cls-1" d="M137.86,77.66h-2.38V60.47h2.38v2.69a6.18,6.18,0,0,1,2.25-2.48,6,6,0,0,1,3.22-.85,5.76,5.76,0,0,1,3.21.86,5.51,5.51,0,0,1,2,2.53,6.55,6.55,0,0,1,6-3.39,5.64,5.64,0,0,1,4.3,1.66A6.34,6.34,0,0,1,160.44,66V77.66h-2.38V67a5.93,5.93,0,0,0-1-3.8,3.74,3.74,0,0,0-3.09-1.28,4.14,4.14,0,0,0-3.61,1.61,8.87,8.87,0,0,0-1.15,5.1v9H146.8V67a6.1,6.1,0,0,0-1-3.86,3.71,3.71,0,0,0-3.06-1.22,4.27,4.27,0,0,0-3.7,1.63,8.71,8.71,0,0,0-1.18,5.08Z"/><path class="cls-1" d="M179.49,77.66V74.52a6.24,6.24,0,0,1-6,3.9,7.59,7.59,0,0,1-6-2.54,9.71,9.71,0,0,1-2.26-6.7,10,10,0,0,1,2.23-6.73A7.77,7.77,0,0,1,177,60.79a6.3,6.3,0,0,1,2.47,2.82V60.47h2.38V77.66ZM167.9,69.25a7.81,7.81,0,0,0,1.5,5.13,5.27,5.27,0,0,0,4.29,1.8,5.16,5.16,0,0,0,4.27-2,8.5,8.5,0,0,0,1.56-5.42,7.4,7.4,0,0,0-1.55-5A5.29,5.29,0,0,0,173.73,62a5.21,5.21,0,0,0-4.26,1.93A8.16,8.16,0,0,0,167.9,69.25Z"/><path class="cls-1" d="M188.77,62.5h-3.16v-2h3.16V53.42h2.34v7.05h3.45v2h-3.45V77.66h-2.34Z"/><path class="cls-1" d="M197.66,53.76a1.74,1.74,0,0,1,.54-1.29,1.79,1.79,0,0,1,1.3-.53,1.82,1.82,0,0,1,1.31.53,1.73,1.73,0,0,1,.55,1.29,1.75,1.75,0,0,1-.53,1.3,1.82,1.82,0,0,1-1.33.52,1.79,1.79,0,0,1-1.31-.52A1.74,1.74,0,0,1,197.66,53.76Zm.6,23.89V60.47h2.46V77.66Z"/><path class="cls-1" d="M215,78.41a8.82,8.82,0,0,1-3.53-.73,9.94,9.94,0,0,1-3.06-2.08,8.69,8.69,0,0,1-2-2.95,9.36,9.36,0,0,1-.68-3.57,9.24,9.24,0,0,1,.7-3.57,9.21,9.21,0,0,1,8.55-5.7,9.51,9.51,0,0,1,3.61.7,9.31,9.31,0,0,1,3.05,2,9.22,9.22,0,0,1,2.05,10.09,9,9,0,0,1-2,3,9.57,9.57,0,0,1-3.09,2.08A9.26,9.26,0,0,1,215,78.41Zm.08-2.23a6.4,6.4,0,0,0,4.8-2,7.41,7.41,0,0,0,0-10,6.67,6.67,0,0,0-9.59,0,7.43,7.43,0,0,0,0,10A6.37,6.37,0,0,0,215.12,76.18Z"/><path class="cls-1" d="M229.38,77.66V60.47h2.27v2.65a7,7,0,0,1,2.57-2.47,7.23,7.23,0,0,1,3.5-.82A5.65,5.65,0,0,1,243.9,66V77.66h-2.42V67.06a5.76,5.76,0,0,0-1.08-3.83A4.15,4.15,0,0,0,237.08,62a4.83,4.83,0,0,0-4,1.62q-1.29,1.62-1.29,5.09v9Z"/><rect class="cls-2" width="303.63" height="103"/></g></g></svg>