<svg xmlns="http://www.w3.org/2000/svg" viewBox="0 0 238.48 204.27"><defs><style>.cls-1{fill:gray;}.cls-2{fill:#b3b3b3;}</style></defs><title>Asset 4icon_spi</title><g id="Layer_2" data-name="Layer 2"><g id="Layer_1-2" data-name="Layer 1"><path class="cls-1" d="M160.34,25.35C174,19.92,187.5,15.87,199,7.51c3.31-2.4,7-4.34,10.35-6.63a4.66,4.66,0,0,1,4.2-.64c8.07,2.24,13.79,7.41,17.94,14.46a54.5,54.5,0,0,1,6.94,20.7,3.17,3.17,0,0,1-1.27,2.29c-5.13,3.93-10.46,7.59-15.46,11.66a23.87,23.87,0,0,0-7.32,10.8c-6.57,18.29-18.75,32.44-33.47,44.71a122.55,122.55,0,0,1-30,18.2c-8.81,3.83-17.45,8.07-26.17,12.11a9.68,9.68,0,0,1-13.88-7.79,3.49,3.49,0,0,0-.63-1.86l-8.82,17.55L89.2,136.95c.31-.69.53-1.26.8-1.8L140.83,33.42c3.38-6.77,6.74-13.54,10.18-20.28,1.87-3.66,5.73-5.08,9.15-3.49a6.92,6.92,0,0,1,3.33,9.21C162.61,20.86,161.59,22.79,160.34,25.35Zm-47,94c1-.52,1.34-.64,1.62-.84,7.62-5.47,15.38-10.75,22.75-16.53A26.22,26.22,0,0,0,144,93.81c2-3.6,1.58-7.46-.76-11-2-3-5-4.88-8.22-6.88Z"/><path class="cls-1" d="M135.06,32.44c-.5,1.19-.71,1.77-1,2.32Q105,93,75.89,151.26a4.26,4.26,0,0,1-4.21,2.66,9.92,9.92,0,0,1-9-14.64c5.8-11.72,11.7-23.38,17.55-35.07,10.5-21,20.94-42,31.53-62.94,2.47-4.89,7.12-7,12.29-7.81C127.51,32.91,131.06,32.79,135.06,32.44Z"/><path class="cls-2" d="M87.21,140.72,99.8,147C94,158.61,88.5,170.14,82.4,181.32c-3.56,6.52-9,11.35-16.64,13a44.37,44.37,0,0,1-5.09.49Z"/><path d="M36.07,204.18H3.18c-2.55,0-3.6-1.26-3-3.47C.6,199,1.91,199,3.31,199q22.13,0,44.26,0c7,0,14,0,21.06,0,1.9,0,3.57.11,3.6,2.58s-1.56,2.67-3.5,2.66C57.85,204.16,47,204.18,36.07,204.18Z"/><path d="M169.35,204.14c-.87,0-1.89.29-2.56-.07a4.73,4.73,0,0,1-2.36-2.36c-.36-1.45.69-2.58,2.26-2.68a40.43,40.43,0,0,1,5.67,0,2.22,2.22,0,0,1,2.22,2.74,4.58,4.58,0,0,1-2.43,2.3c-.77.37-1.85.07-2.8.07Z"/><path d="M101.58,204.14c-.94,0-2.06.32-2.79-.08-1-.53-2.1-1.56-2.21-2.48a3.15,3.15,0,0,1,1.95-2.42,16.72,16.72,0,0,1,6.09,0,3.32,3.32,0,0,1,2,2.56c0,.83-1.29,1.87-2.25,2.36C103.63,204.45,102.53,204.14,101.58,204.14Z"/><path d="M118.69,199c.94,0,2.08-.33,2.79.08.94.54,2.12,1.65,2.13,2.52a3.37,3.37,0,0,1-2.15,2.41,22.41,22.41,0,0,1-5.4.13,2.38,2.38,0,0,1-2.6-2.47A2.47,2.47,0,0,1,116.1,199c.86-.05,1.73,0,2.6,0Z"/><path d="M135.67,204.12c-1,0-2.19.31-3-.08s-2.11-1.55-2.06-2.29a3.46,3.46,0,0,1,2-2.61,14.84,14.84,0,0,1,5.85,0,3.69,3.69,0,0,1,2.25,2.45c.3,1.47-.8,2.46-2.4,2.56-.86.05-1.73,0-2.6,0Z"/><path d="M152.61,199c.87,0,1.91-.31,2.56.07,1,.6,2.27,1.55,2.48,2.55.29,1.4-.84,2.48-2.44,2.53s-3.46,0-5.19,0a2.33,2.33,0,0,1-2.6-2.44A2.45,2.45,0,0,1,150,199c.86-.06,1.73,0,2.6,0Z"/><path d="M84.46,204.16c-.78,0-1.57,0-2.35,0a2.36,2.36,0,0,1-2.58-2.46A2.46,2.46,0,0,1,82.15,199c1.49-.05,3,0,4.46,0a2.43,2.43,0,0,1,2.67,2.62c0,1.71-1,2.54-2.71,2.54Z"/></g></g></svg>