<?xml version="1.0" encoding="utf-8"?>
<!-- Business Intelligence © 2015 -->
<svg version="1.1" id="SuccessFactors" width="313" height="115" xmlns="http://www.w3.org/2000/svg" xmlns:xlink="http://www.w3.org/1999/xlink" x="0px" y="0px"
	 viewBox="0 0 331 131" enable-background="new 0 0 331 131" xml:space="preserve">
<g>
	<g>
		
			<line fill-rule="evenodd" clip-rule="evenodd" fill="none" stroke="#E6E7E8" stroke-width="0.5003" stroke-miterlimit="3.8637" x1="22.9" y1="12.8" x2="22.9" y2="126.2"/>
		
			<line fill-rule="evenodd" clip-rule="evenodd" fill="none" stroke="#E6E7E8" stroke-width="0.2494" stroke-miterlimit="3.8637" x1="8.7" y1="112" x2="320.5" y2="112"/>
	</g>
	<g>
		<text transform="matrix(0.9 0 0 1 242.8652 120.8862)" fill="#A7A9AC" font-family="'Arial'" font-size="7px">ORGANIZA</text>
		<text transform="matrix(0.9 0 0 1 275.3379 120.8862)" fill="#A7A9AC" font-family="'Arial'" font-size="7px">TION LIFETIME</text>
	</g>
	<g>
		<text transform="matrix(0.9 0 0 1 26.667 18.3936)" fill="#A7A9AC" font-family="'Arial'" font-size="7px">ORGANIZA</text>
		<text transform="matrix(0.9 0 0 1 59.1396 18.3936)" fill="#A7A9AC" font-family="'Arial'" font-size="7px">TION GROWTH</text>
	</g>
	<g>
		<text transform="matrix(0.9 0 0 1 26.5127 120.8862)" font-family="'Arial'" font-size="7px">INCEPTION</text>
	</g>
	<g>
		<text transform="matrix(0.9 0 0 1 74.8525 55.3203)" font-family="'Arial'" font-size="7px">PEAK</text>
	</g>
	<g>
		<text transform="matrix(0.9 0 0 1 126.5669 120.8862)" font-family="'Arial'" font-size="7px">DECLINE</text>
	</g>
	<path fill-rule="evenodd" clip-rule="evenodd" fill="none" stroke="#00618E" stroke-width="0.2494" stroke-miterlimit="3.8637" d="
		M27.4,111.6c0,0,43.4-118.9,100.8-0.7"/>
	
		<path fill-rule="evenodd" clip-rule="evenodd" fill="none" stroke="#1E6993" stroke-width="0.2494" stroke-miterlimit="3.8637" stroke-dasharray="2,2" d="
		M85.7,60.2c0,0,32.5-11.5,59.9,50.7"/>
	
		<path fill-rule="evenodd" clip-rule="evenodd" fill="none" stroke="#3E7299" stroke-width="0.2494" stroke-miterlimit="3.8637" stroke-dasharray="2,2" d="
		M109.5,63.6c0,0,30.7-31.5,53.5,47.2"/>
	
		<path fill-rule="evenodd" clip-rule="evenodd" fill="none" stroke="#567CA0" stroke-width="0.2494" stroke-miterlimit="3.8637" stroke-dasharray="2,2" d="
		M128.3,57.6c0,0,18.9-39.5,52,53.2"/>
	
		<path fill-rule="evenodd" clip-rule="evenodd" fill="none" stroke="#6A86A7" stroke-width="0.2494" stroke-miterlimit="3.8637" stroke-dasharray="2,2" d="
		M154.1,57.2c0,0,14.6-42.6,43.6,53.6"/>
	
		<path fill-rule="evenodd" clip-rule="evenodd" fill="none" stroke="#7D92AE" stroke-width="0.2494" stroke-miterlimit="3.8637" stroke-dasharray="2,2" d="
		M182.5,68.9c0,0,10.7-38.8,32.6,41.9"/>
	
		<path fill-rule="evenodd" clip-rule="evenodd" fill="none" stroke="#909FB6" stroke-width="0.2494" stroke-miterlimit="3.8637" stroke-dasharray="2,2" d="
		M186.2,61.7c0,0,19.5-55.5,46.2,49.2"/>
	
		<path fill-rule="evenodd" clip-rule="evenodd" fill="none" stroke="#A3ADBF" stroke-width="0.2494" stroke-miterlimit="3.8637" stroke-dasharray="2,2" d="
		M210.8,54.8c0,0,16-22.3,39,56.1"/>
	
		<path fill-rule="evenodd" clip-rule="evenodd" fill="none" stroke="#B7BCC8" stroke-width="0.2494" stroke-miterlimit="3.8637" stroke-dasharray="2,2" d="
		M225,56c0,0,9.7-27.8,42.2,54.9"/>
	
		<path fill-rule="evenodd" clip-rule="evenodd" fill="none" stroke="#CDCCD1" stroke-width="0.2494" stroke-miterlimit="3.8637" stroke-dasharray="2,2" d="
		M240,58.2c0,0,19.5-38.5,44.9,51.2"/>
	<g>
		<g>
			<circle fill="#EDF3CF" cx="85.8" cy="60.2" r="2.6"/>
			<path fill="#EDF3CF" d="M85.8,60.2"/>
		</g>
		<g>
			<circle fill="none" stroke="#E7EFBB" stroke-width="0.2494" stroke-miterlimit="3.8637" cx="85.8" cy="60.2" r="2.6"/>
			<path fill="none" stroke="#E7EFBB" stroke-width="0.2494" stroke-miterlimit="3.8637" d="M85.8,60.2"/>
		</g>
	</g>
	<g>
		<g>
			<circle fill="#EDF3CF" cx="109.2" cy="64" r="2.6"/>
			<path fill="#EDF3CF" d="M109.2,64"/>
		</g>
		<g>
			<circle fill="none" stroke="#E7EFBB" stroke-width="0.2494" stroke-miterlimit="3.8637" cx="109.2" cy="64" r="2.6"/>
			<path fill="none" stroke="#E7EFBB" stroke-width="0.2494" stroke-miterlimit="3.8637" d="M109.2,64"/>
		</g>
	</g>
	<g>
		<g>
			<circle fill="#EDF3CF" cx="127.6" cy="58" r="2.6"/>
			<path fill="#EDF3CF" d="M127.6,58"/>
		</g>
		<g>
			<circle fill="none" stroke="#E7EFBB" stroke-width="0.2494" stroke-miterlimit="3.8637" cx="127.6" cy="58" r="2.6"/>
			<path fill="none" stroke="#E7EFBB" stroke-width="0.2494" stroke-miterlimit="3.8637" d="M127.6,58"/>
		</g>
	</g>
	<g>
		<g>
			<circle fill="#EDF3CF" cx="154" cy="57.6" r="2.6"/>
			<path fill="#EDF3CF" d="M154,57.6"/>
		</g>
		<g>
			<circle fill="none" stroke="#E7EFBB" stroke-width="0.2494" stroke-miterlimit="3.8637" cx="154" cy="57.6" r="2.6"/>
			<path fill="none" stroke="#E7EFBB" stroke-width="0.2494" stroke-miterlimit="3.8637" d="M154,57.6"/>
		</g>
	</g>
	<g>
		<g>
			<circle fill="#EDF3CF" cx="182.4" cy="68.9" r="2.6"/>
			<path fill="#EDF3CF" d="M182.4,68.9"/>
		</g>
		<g>
			<circle fill="none" stroke="#E7EFBB" stroke-width="0.2494" stroke-miterlimit="3.8637" cx="182.4" cy="68.9" r="2.6"/>
			<path fill="none" stroke="#E7EFBB" stroke-width="0.2494" stroke-miterlimit="3.8637" d="M182.4,68.9"/>
		</g>
	</g>
	<g>
		<g>
			<circle fill="#EDF3CF" cx="186" cy="62" r="2.6"/>
			<path fill="#EDF3CF" d="M186,62"/>
		</g>
		<g>
			<circle fill="none" stroke="#E7EFBB" stroke-width="0.2494" stroke-miterlimit="3.8637" cx="186" cy="62" r="2.6"/>
			<path fill="none" stroke="#E7EFBB" stroke-width="0.2494" stroke-miterlimit="3.8637" d="M186,62"/>
		</g>
	</g>
	<g>
		<g>
			<circle fill="#EDF3CF" cx="210.9" cy="54.5" r="2.6"/>
			<path fill="#EDF3CF" d="M210.9,54.5"/>
		</g>
		<g>
			<circle fill="none" stroke="#E7EFBB" stroke-width="0.2494" stroke-miterlimit="3.8637" cx="210.9" cy="54.5" r="2.6"/>
			<path fill="none" stroke="#E7EFBB" stroke-width="0.2494" stroke-miterlimit="3.8637" d="M210.9,54.5"/>
		</g>
	</g>
	<g>
		<g>
			<circle fill="#EDF3CF" cx="224.9" cy="56" r="2.6"/>
			<path fill="#EDF3CF" d="M224.9,56"/>
		</g>
		<g>
			<circle fill="none" stroke="#E7EFBB" stroke-width="0.2494" stroke-miterlimit="3.8637" cx="224.9" cy="56" r="2.6"/>
			<path fill="none" stroke="#E7EFBB" stroke-width="0.2494" stroke-miterlimit="3.8637" d="M224.9,56"/>
		</g>
	</g>
	<g>
		<g>
			<circle fill="#EDF3CF" cx="240.3" cy="57.9" r="2.6"/>
			<path fill="#EDF3CF" d="M240.3,57.9"/>
		</g>
		<g>
			<circle fill="none" stroke="#E7EFBB" stroke-width="0.2494" stroke-miterlimit="3.8637" cx="240.3" cy="57.9" r="2.6"/>
			<path fill="none" stroke="#E7EFBB" stroke-width="0.2494" stroke-miterlimit="3.8637" d="M240.3,57.9"/>
		</g>
	</g>
	
		<line fill-rule="evenodd" clip-rule="evenodd" fill="none" stroke="#E7EFBB" stroke-width="0.25" stroke-miterlimit="3.8637" x1="109.1" y1="59.1" x2="109.1" y2="34.8"/>
	
		<line fill-rule="evenodd" clip-rule="evenodd" fill="none" stroke="#E7EFBB" stroke-width="0.25" stroke-miterlimit="3.8637" x1="109.1" y1="34.8" x2="189.3" y2="34.8"/>
	<g>
		<text transform="matrix(0.9 0 0 1 191.5981 37.6499)" fill="#A7A9AC" font-family="'Arial'" font-size="7px">SUCCESS F</text>
		<text transform="matrix(0.9 0 0 1 227.3281 37.6499)" fill="#A7A9AC" font-family="'Arial'" font-size="7px">ACT</text>
		<text transform="matrix(0.9 0 0 1 239.8271 37.6499)" fill="#A7A9AC" font-family="'Arial'" font-size="7px">ORS</text>
	</g>
</g>
</svg>
