<svg id="Layer_1" data-name="Layer 1" xmlns="http://www.w3.org/2000/svg" xmlns:xlink="http://www.w3.org/1999/xlink" viewBox="0 0 884 1250"><defs><style>.cls-1,.cls-10,.cls-14,.cls-15,.cls-16,.cls-19,.cls-21,.cls-23,.cls-25,.cls-26,.cls-5{fill:none;}.cls-2,.cls-29,.cls-3,.cls-8{fill:#fff;}.cls-18,.cls-3{fill-opacity:0;}.cls-15,.cls-19,.cls-22,.cls-24,.cls-25,.cls-26,.cls-28,.cls-3{stroke:#000;}.cls-10,.cls-13,.cls-14,.cls-15,.cls-16,.cls-19,.cls-22,.cls-24,.cls-25,.cls-26,.cls-28,.cls-3,.cls-4,.cls-5,.cls-9{stroke-miterlimit:10;}.cls-10,.cls-22,.cls-24,.cls-26,.cls-3{stroke-opacity:0;}.cls-4,.cls-7{fill:#aab3b3;}.cls-13,.cls-22,.cls-24,.cls-4,.cls-9{fill-opacity:0.6;}.cls-4{stroke:#aab3b3;}.cls-10,.cls-5{stroke:#fff;stroke-width:3px;}.cls-11,.cls-31,.cls-6,.cls-7{isolation:isolate;}.cls-11,.cls-7{font-size:7.94px;font-family:Verdana, Verdana;}.cls-30,.cls-8{fill-opacity:0;}.cls-22,.cls-9{fill:#fdd400;}.cls-21,.cls-9{stroke:#fdd400;}.cls-12{letter-spacing:-0.01em;}.cls-13,.cls-24{fill:#84b761;}.cls-13,.cls-23{stroke:#84b761;}.cls-14{stroke:#dadada;}.cls-14,.cls-19{stroke-opacity:0.3;}.cls-15{stroke-opacity:0.07;}.cls-16{stroke:#c00;stroke-dasharray:2 2;}.cls-17{fill:#c00;fill-opacity:0.2;}.cls-20{clip-path:url(#clip-path);}.cls-21,.cls-23{stroke-linejoin:round;stroke-opacity:0.4;}.cls-25{stroke-opacity:0.14;}.cls-27{clip-path:url(#clip-path-5);}.cls-28{fill-opacity:0.12;stroke-opacity:0.12;}.cls-29{fill-opacity:0.4;}.cls-31{font-size:8.66px;font-family:Verdana-Bold, Verdana;font-weight:700;}</style><clipPath id="clip-path" transform="translate(0)"><rect class="cls-1" x="114.4" y="169.49" width="686.23" height="258.33"/></clipPath><clipPath id="clip-path-5" transform="translate(0)"><rect class="cls-1" x="61" y="147.84" width="686.23" height="258.33"/></clipPath></defs><title>tframe_screens</title><rect class="cls-2" x="61" y="113.2" width="762" height="360.8"/><path class="cls-3" d="M114.76,120.78H801v26.7H114.76Z" transform="translate(0)"/><path class="cls-4" d="M114.76,140.26H126.3V128.72H114.76Z" transform="translate(0)"/><path class="cls-5" d="M116.2,130.16l8.66,8.66" transform="translate(0)"/><path class="cls-5" d="M116.2,138.82l8.66-8.66" transform="translate(0)"/><g class="cls-6"><text class="cls-7" transform="translate(129.91 138.81)">Cars</text></g><g class="cls-6"><text class="cls-7" transform="translate(155.17 138.81)">total: 25,906</text></g><rect class="cls-8" x="125.94" y="128.36" width="101.02" height="12.99"/><path class="cls-9" d="M234.54,140.26h11.55V128.72H234.54Z" transform="translate(0)"/><path class="cls-10" d="M236,130.16l8.66,8.66" transform="translate(0)"/><path class="cls-10" d="M236,138.82l8.66-8.66" transform="translate(0)"/><g class="cls-6"><text class="cls-11" transform="translate(249.7 138.81)">Motorc<tspan class="cls-12" x="26.99" y="0">y</tspan><tspan x="31.62" y="0">cles</tspan></text></g><g class="cls-6"><text class="cls-11" transform="translate(303.82 138.81)">total: 10,190</text></g><rect class="cls-8" x="245.73" y="128.36" width="129.89" height="12.99"/><path class="cls-13" d="M382.47,140.26H394V128.72H382.47Z" transform="translate(0)"/><path class="cls-10" d="M383.91,130.16l8.66,8.66" transform="translate(0)"/><path class="cls-10" d="M383.91,138.82l8.66-8.66" transform="translate(0)"/><g class="cls-6"><text class="cls-11" transform="translate(397.62 138.81)">Bic<tspan class="cls-12" x="11.76" y="0">y</tspan><tspan x="16.39" y="0">cles</tspan></text></g><g class="cls-6"><text class="cls-11" transform="translate(436.59 138.81)">total: 1,910</text></g><rect class="cls-8" x="393.65" y="128.36" width="114.73" height="12.99"/><path class="cls-3" d="M61.36,148.2H822.64V473.64H61.36Z" transform="translate(0)"/><path class="cls-3" d="M114.76,169.85H801V428.18H114.76Z" transform="translate(0)"/><path class="cls-14" d="M114.76,428.18v3.61" transform="translate(0)"/><path class="cls-15" d="M114.76,428.18h0V169.85" transform="translate(0)"/><path class="cls-14" d="M153,428.18v3.61" transform="translate(0)"/><path class="cls-15" d="M153,428.18h0V169.85" transform="translate(0)"/><path class="cls-14" d="M191.25,428.18v3.61" transform="translate(0)"/><path class="cls-15" d="M191.25,428.18h0V169.85" transform="translate(0)"/><path class="cls-14" d="M229.49,428.18v3.61" transform="translate(0)"/><path class="cls-15" d="M229.49,428.18h0V169.85" transform="translate(0)"/><path class="cls-14" d="M267,428.18v3.61" transform="translate(0)"/><path class="cls-15" d="M267,428.18h0V169.85" transform="translate(0)"/><path class="cls-14" d="M305.26,428.18v3.61" transform="translate(0)"/><path class="cls-15" d="M305.26,428.18h0V169.85" transform="translate(0)"/><path class="cls-14" d="M343.5,428.18v3.61" transform="translate(0)"/><path class="cls-15" d="M343.5,428.18h0V169.85" transform="translate(0)"/><path class="cls-14" d="M381.75,428.18v3.61" transform="translate(0)"/><path class="cls-15" d="M381.75,428.18h0V169.85" transform="translate(0)"/><path class="cls-14" d="M420,428.18v3.61" transform="translate(0)"/><path class="cls-15" d="M420,428.18h0V169.85" transform="translate(0)"/><path class="cls-14" d="M458.24,428.18v3.61" transform="translate(0)"/><path class="cls-15" d="M458.24,428.18h0V169.85" transform="translate(0)"/><path class="cls-14" d="M495.76,428.18v3.61" transform="translate(0)"/><path class="cls-15" d="M495.76,428.18h0V169.85" transform="translate(0)"/><path class="cls-14" d="M534,428.18v3.61" transform="translate(0)"/><path class="cls-15" d="M534,428.18h0V169.85" transform="translate(0)"/><path class="cls-14" d="M572.25,428.18v3.61" transform="translate(0)"/><path class="cls-15" d="M572.25,428.18h0V169.85" transform="translate(0)"/><path class="cls-14" d="M610.49,428.18v3.61" transform="translate(0)"/><path class="cls-15" d="M610.49,428.18h0V169.85" transform="translate(0)"/><path class="cls-14" d="M648.74,428.18v3.61" transform="translate(0)"/><path class="cls-15" d="M648.74,428.18h0V169.85" transform="translate(0)"/><path class="cls-14" d="M687,428.18v3.61" transform="translate(0)"/><path class="cls-15" d="M687,428.18h0V169.85" transform="translate(0)"/><path class="cls-14" d="M724.5,428.18v3.61" transform="translate(0)"/><path class="cls-15" d="M724.5,428.18h0V169.85" transform="translate(0)"/><path class="cls-14" d="M762.75,428.18v3.61" transform="translate(0)"/><path class="cls-15" d="M762.75,428.18h0V169.85" transform="translate(0)"/><path class="cls-14" d="M801,428.18v3.61" transform="translate(0)"/><path class="cls-15" d="M801,428.18h0V169.85" transform="translate(0)"/><path class="cls-14" d="M458.24,423.85v3.61" transform="translate(0)"/><path class="cls-16" d="M458.24,428.18h0V169.85" transform="translate(0)"/><path class="cls-14" d="M381.75,423.85v3.61" transform="translate(0)"/><path class="cls-16" d="M381.75,428.18h0V169.85" transform="translate(0)"/><rect class="cls-17" x="381.75" y="169.85" width="76.49" height="258.33"/><path class="cls-14" d="M610.49,423.85v3.61" transform="translate(0)"/><path class="cls-16" d="M610.49,428.18h0V169.85" transform="translate(0)"/><rect class="cls-18" x="609.05" y="169.85" width="2.89" height="258.33"/><path class="cls-19" d="M110.43,428.18h4.33" transform="translate(0)"/><path class="cls-15" d="M114.76,428.18H801" transform="translate(0)"/><path class="cls-19" d="M110.43,399.32h4.33" transform="translate(0)"/><path class="cls-15" d="M114.76,399.32H801" transform="translate(0)"/><path class="cls-19" d="M110.43,370.45h4.33" transform="translate(0)"/><path class="cls-15" d="M114.76,370.45H801" transform="translate(0)"/><path class="cls-19" d="M110.43,342.31h4.33" transform="translate(0)"/><path class="cls-15" d="M114.76,342.31H801" transform="translate(0)"/><path class="cls-19" d="M110.43,313.45h4.33" transform="translate(0)"/><path class="cls-15" d="M114.76,313.45H801" transform="translate(0)"/><path class="cls-19" d="M110.43,284.58h4.33" transform="translate(0)"/><path class="cls-15" d="M114.76,284.58H801" transform="translate(0)"/><path class="cls-19" d="M110.43,255.72h4.33" transform="translate(0)"/><path class="cls-15" d="M114.76,255.72H801" transform="translate(0)"/><path class="cls-19" d="M110.43,227.58h4.33" transform="translate(0)"/><path class="cls-15" d="M114.76,227.58H801" transform="translate(0)"/><path class="cls-19" d="M110.43,198.71h4.33" transform="translate(0)"/><path class="cls-15" d="M114.76,198.71H801" transform="translate(0)"/><path class="cls-19" d="M110.43,169.85h4.33" transform="translate(0)"/><path class="cls-15" d="M114.76,169.85H801" transform="translate(0)"/><g class="cls-20"><path class="cls-21" d="M114.76,241.61,153,232.14l38.24-2.3,38.24,14.06L267,227.54l38.24-6.31,38.24-4.59L381.75,233,420,237.59l38.24,4.59,37.52-14.06L534,246.49l38.24,3.44,38.24,118,38.24-6.31L687,365.32l37.52,5.17,38.24-24.11,38.24,2.3M114.4,169.49h0" transform="translate(0)"/></g><g class="cls-20"><path class="cls-22" d="M114.76,241.61,153,232.14l38.24-2.3,38.24,14.06L267,227.54l38.24-6.31,38.24-4.59L381.75,233,420,237.59l38.24,4.59,37.52-14.06L534,246.49l38.24,3.44,38.24,118,38.24-6.31L687,365.32l37.52,5.17,38.24-24.11,38.24,2.3v79.51H114.76Z" transform="translate(0)"/></g><g class="cls-20"><path class="cls-23" d="M114.76,206.88,153,190.23h38.24l38.24,17.22,37.52-10,38.24-7.46,38.24-5.45L381.75,204,420,209.75l38.24,5.74,37.52-19.23L534,221.52l38.24,5.74,38.24,117.4,38.24-4.59H687l37.52,6.89,38.24-25.55L801,328.29M114.4,169.49h0" transform="translate(0)"/></g><g class="cls-20"><path class="cls-24" d="M114.76,206.88,153,190.23h38.24l38.24,17.22,37.52-10,38.24-7.46,38.24-5.45L381.75,204,420,209.75l38.24,5.74,37.52-19.23L534,221.52l38.24,5.74,38.24,117.4,38.24-4.59H687l37.52,6.89,38.24-25.55L801,328.29v20.38l-38.24-2.3L724.5,370.49,687,365.32l-38.24-3.73-38.24,6.31-38.24-118L534,246.49l-38.24-18.37-37.52,14.06L420,237.59,381.75,233,343.5,216.64l-38.24,4.59L267,227.54,229.49,243.9l-38.24-14.06L153,232.14l-38.24,9.47Z" transform="translate(0)"/></g><path class="cls-25" d="M114.76,428.18H801" transform="translate(0)"/><path class="cls-26" d="M61.36,162.63H747.59" transform="translate(0)"/><path class="cls-14" d="M114.76,428.18H801" transform="translate(0)"/><path class="cls-19" d="M114.76,169.85V428.18" transform="translate(0)"/><g class="cls-27"><path class="cls-26" d="M724.5,169.85h0V428.18" transform="translate(0)"/></g><g class="cls-27"><path class="cls-26" d="M114.76,213.87H801" transform="translate(0)"/></g><rect class="cls-28" x="114.76" y="155.42" width="686.95" height="14.43"/><rect class="cls-29" x="114.76" y="155.42" width="686.23" height="15.15"/><rect class="cls-30" x="114.76" y="155.42" width="686.95" height="14.43"/><rect class="cls-30" x="114.4" y="155.42" width="686.23" height="14.43"/><rect class="cls-30" x="106.1" y="156.14" width="18.04" height="14.43"/><rect class="cls-30" x="792.33" y="156.14" width="18.04" height="14.43"/><g class="cls-6"><text class="cls-11" transform="translate(103.94 445.84)">1994</text></g><g class="cls-6"><text class="cls-11" transform="translate(142.18 445.84)">1995</text></g><g class="cls-6"><text class="cls-11" transform="translate(180.42 445.84)">1996</text></g><g class="cls-6"><text class="cls-11" transform="translate(218.67 445.84)">1997</text></g><g class="cls-6"><text class="cls-11" transform="translate(256.19 445.84)">1998</text></g><g class="cls-6"><text class="cls-11" transform="translate(294.44 445.84)">1999</text></g><g class="cls-6"><text class="cls-11" transform="translate(332.68 445.84)">2000</text></g><g class="cls-6"><text class="cls-11" transform="translate(370.92 445.84)">2001</text></g><g class="cls-6"><text class="cls-11" transform="translate(409.17 445.84)">2002</text></g><g class="cls-6"><text class="cls-11" transform="translate(447.41 445.84)">2003</text></g><g class="cls-6"><text class="cls-11" transform="translate(484.93 445.84)">2004</text></g><g class="cls-6"><text class="cls-11" transform="translate(523.18 445.84)">2005</text></g><g class="cls-6"><text class="cls-11" transform="translate(561.42 445.84)">2006</text></g><g class="cls-6"><text class="cls-11" transform="translate(599.67 445.84)">2007</text></g><g class="cls-6"><text class="cls-11" transform="translate(637.91 445.84)">2008</text></g><g class="cls-6"><text class="cls-11" transform="translate(676.16 445.84)">2009</text></g><g class="cls-6"><text class="cls-11" transform="translate(713.68 445.84)">2010</text></g><g class="cls-6"><text class="cls-11" transform="translate(751.92 445.84)">2011</text></g><g class="cls-6"><text class="cls-11" transform="translate(790.17 445.84)">2012</text></g><g class="cls-6"><text class="cls-11" transform="translate(415.65 421.32) rotate(-90)">fines for speeding increased</text></g><g class="cls-6"><text class="cls-11" transform="translate(606.15 421.32) rotate(-90)">motorc<tspan class="cls-12" x="28.02" y="0">y</tspan><tspan x="32.65" y="0">cle fee introduced</tspan></text></g><g class="cls-6"><text class="cls-31" transform="translate(445.97 465.82)">Year</text></g><g class="cls-6"><text class="cls-11" transform="translate(99.97 431.77)">0</text></g><g class="cls-6"><text class="cls-11" transform="translate(89.86 402.91)">100</text></g><g class="cls-6"><text class="cls-11" transform="translate(89.86 374.04)">200</text></g><g class="cls-6"><text class="cls-11" transform="translate(89.86 345.9)">300</text></g><g class="cls-6"><text class="cls-11" transform="translate(89.86 317.04)">400</text></g><g class="cls-6"><text class="cls-11" transform="translate(89.86 288.18)">500</text></g><g class="cls-6"><text class="cls-11" transform="translate(89.86 259.31)">600</text></g><g class="cls-6"><text class="cls-11" transform="translate(89.86 231.17)">700</text></g><g class="cls-6"><text class="cls-11" transform="translate(89.86 202.31)">800</text></g><g class="cls-6"><text class="cls-11" transform="translate(89.86 173.44)">900</text></g><g class="cls-6"><text class="cls-31" transform="translate(82.4 337.26) rotate(-90)">Traffic incidents</text></g><rect class="cls-1" width="884" height="1250"/></svg>