<?xml version="1.0" encoding="utf-8"?>
<!-- Business Intelligence © 2015 : Alfresco Partner -->
<svg version="1.1" id="Alfresco" width="447" height="124" xmlns="http://www.w3.org/2000/svg" xmlns:xlink="http://www.w3.org/1999/xlink" x="0px" y="0px"
	 viewBox="0 0 458 132.7" enable-background="new 0 0 458 132.7" xml:space="preserve">
<g>
	<path fill="none" d="M67.6,67.8v25.9l0,1c0,14.9-12,26.9-26.9,26.9s-26.9-12-26.9-26.9c0-1.6,0.1-3.2,0.4-4.8
		c10.5,7.3,25,6.3,34.3-3.1L67.6,67.8L67.6,67.8L67.6,67.8z"/>
	<g>
		<g>
			<path fill="#90C73E" d="M48.6,86.8l15.6-15.6l-23.4,0h-0.1c-13,0-23.5,10.5-23.5,23.5c0,13,10.5,23.5,23.5,23.5
				c1,0,2-0.1,2.9-0.2C38.5,107.9,40.1,95.3,48.6,86.8z"/>
		</g>
	</g>
	<g>
		<g>
			<path fill="#90C73E" d="M67.6,94.7v-22L51,89.2l0,0c-9.2,9.2-9.2,24,0,33.2c9.2,9.2,24,9.2,33.2,0c0.7-0.7,1.3-1.4,1.9-2.2
				C75.4,116.7,67.6,106.6,67.6,94.7z"/>
		</g>
	</g>
	<g>
		<g>
			<path fill="#90C73E" d="M86.6,86.8L71,71.2v23.5c0,13,10.5,23.5,23.5,23.5c13,0,23.5-10.5,23.5-23.5c0-1-0.1-2-0.2-2.9
				C107.7,96.9,95,95.2,86.6,86.8z"/>
		</g>
	</g>
	<g>
		<g>
			<path fill="#90C73E" d="M122.2,51.2c-0.7-0.7-1.4-1.3-2.2-1.9c-3.5,10.8-13.6,18.5-25.6,18.5l-22,0L89,84.4
				c9.2,9.2,24,9.2,33.2,0C131.4,75.2,131.4,60.4,122.2,51.2z"/>
		</g>
	</g>
	<g>
		<g>
			<path fill="#FAA11B" d="M94.5,17.4c-1,0-2,0.1-2.9,0.2c5.1,10.1,3.5,22.8-5,31.2L71,64.4h23.5c13,0,23.5-10.5,23.5-23.5
				C117.9,27.9,107.4,17.4,94.5,17.4z"/>
		</g>
	</g>
	<g>
		<g>
			<path fill="#56A3D9" d="M84.2,13.2C75,4,60.1,4,51,13.2c-0.7,0.7-1.3,1.4-1.9,2.2C59.8,18.9,67.6,29,67.6,40.9l0,22l16.5-16.5
				l0,0C93.3,37.2,93.3,22.4,84.2,13.2z"/>
		</g>
	</g>
	<path fill="#56A3D9" d="M48.6,48.8l0.7,0.7l14.9,14.9h0l0-23.4v-0.1c0-13-10.5-23.5-23.5-23.5c-13,0-23.5,10.5-23.5,23.5
		c0,1,0.1,1.9,0.2,2.9C27.5,38.7,40.2,40.4,48.6,48.8z"/>
	<path fill="none" d="M67.6,67.8l-64.9,0c0-6.9,2.6-13.8,7.9-19c10.5-10.5,27.5-10.5,38,0L67.6,67.8L67.6,67.8z"/>
	<path fill="none" d="M67.6,67.8v25.9l0,1c0,14.9-12,26.9-26.9,26.9s-26.9-12-26.9-26.9s12-26.9,26.9-26.9L67.6,67.8L67.6,67.8z"/>
	<path fill="#56A3D9" d="M15.2,86.1c0.2-0.5,0.4-1.1,0.6-1.6c0-0.1,0.1-0.1,0.1-0.2c0.2-0.6,0.5-1.1,0.8-1.7
		c0.1-0.1,0.1-0.2,0.2-0.4c0.3-0.5,0.6-1.1,0.9-1.6c0-0.1,0.1-0.1,0.1-0.2c0.3-0.5,0.6-1,1-1.4c0.1-0.1,0.1-0.2,0.2-0.3
		c0.4-0.5,0.7-1,1.1-1.4c0.1-0.1,0.2-0.2,0.2-0.3c0.4-0.4,0.8-0.9,1.2-1.3c0,0,0.1-0.1,0.1-0.1c0.4-0.4,0.9-0.8,1.3-1.2
		c0.1-0.1,0.2-0.2,0.3-0.3c0.5-0.4,0.9-0.8,1.4-1.1c0.1,0,0.1-0.1,0.2-0.1c0.5-0.3,0.9-0.6,1.4-0.9c0.1-0.1,0.2-0.1,0.3-0.2
		c0.5-0.3,1-0.6,1.6-0.9c0.1-0.1,0.2-0.1,0.3-0.2c0.5-0.3,1.1-0.5,1.6-0.8c0,0,0.1,0,0.1,0c0.6-0.2,1.2-0.5,1.8-0.7
		c0.1,0,0.3-0.1,0.4-0.1c0.6-0.2,1.2-0.4,1.8-0.5c0.1,0,0.2,0,0.3-0.1c0.6-0.1,1.1-0.3,1.7-0.3c0.1,0,0.2,0,0.3-0.1
		c0.6-0.1,1.3-0.2,1.9-0.2c0.1,0,0.3,0,0.4,0c0.7,0,1.3-0.1,2-0.1l22,0L46.2,51.2c-9.2-9.2-24-9.2-33.2,0c-9.2,9.2-9.2,24,0,33.2
		c0.7,0.7,1.4,1.3,2.2,1.9C15.2,86.3,15.2,86.2,15.2,86.1z"/>
	<path fill="#4376BB" d="M46.2,51.2l13.1,13.1H41.7l-1,0c-10.7,0-19.8-7.2-22.6-17.1C27,42.3,38.6,43.6,46.2,51.2L46.2,51.2
		L46.2,51.2z"/>
	<path fill="#4376BB" d="M64.2,40.9v18.6L51.7,47L51,46.3c-7.6-7.6-8.9-19.1-3.9-28.1C56.9,21,64.2,30.1,64.2,40.9L64.2,40.9
		L64.2,40.9z"/>
	<path fill="#4376BB" d="M84.2,46.4L71.1,59.5V41.9l0-1c0-10.8,7.2-19.8,17.1-22.6C93.2,27.2,91.9,38.7,84.2,46.4L84.2,46.4
		L84.2,46.4z"/>
	<path fill="#FFF200" d="M94.4,64.3H75.9l12.5-12.5l0.7-0.7c7.6-7.6,19.1-8.9,28.1-3.9C114.3,57.1,105.3,64.3,94.4,64.3L94.4,64.3
		L94.4,64.3z"/>
	<path fill="#48B349" d="M89,84.3L75.8,71.2h17.7l1,0c10.8,0,19.8,7.2,22.6,17.1C108.1,93.2,96.6,91.9,89,84.3L89,84.3L89,84.3z"/>
	<path fill="#48B349" d="M71.1,94.6V76l12.5,12.5l0.7,0.7c7.6,7.6,8.9,19.1,3.9,28.1C78.3,114.5,71.1,105.4,71.1,94.6L71.1,94.6
		L71.1,94.6z"/>
	<path fill="#48B349" d="M51.1,89.2l13.1-13.1v17.7l0,1c0,10.8-7.2,19.8-17.1,22.6C42.2,108.4,43.5,96.9,51.1,89.2L51.1,89.2
		L51.1,89.2z"/>
	<path fill="#48B349" d="M40.8,71.3h18.6L46.9,83.7l-0.7,0.7c-7.6,7.6-19.1,8.9-28.1,3.9C20.9,78.5,30,71.3,40.8,71.3L40.8,71.3
		L40.8,71.3z"/>
	<path fill-rule="evenodd" clip-rule="evenodd" fill="#696A6C" d="M137.3,103.7h7.2l8.4-21.8h31.8l8.5,21.8h7.2l-27.4-70h-7.4
		L137.3,103.7L137.3,103.7z M168.9,40.4l13.5,35.9h-27.5L168.9,40.4L168.9,40.4z"/>
	<polygon fill="#696A6C" points="202.8,103.7 208.9,103.7 208.9,33.7 202.8,33.7 202.8,103.7 	"/>
	<path fill="#696A6C" d="M235.4,53.1h-10v-4.4c0-1.4,0-2.6,0.1-3.8c0.1-1.2,0.3-2.2,0.7-3.1c0.4-0.9,1.1-1.6,2-2.1
		c0.9-0.5,2.2-0.8,3.9-0.8c0.7,0,1.4,0,2.2,0.1c0.7,0.1,1.5,0.2,2.4,0.3v-5.3c-1-0.1-1.9-0.2-2.6-0.3c-0.8-0.1-1.6-0.1-2.5-0.1
		c-2.5,0-4.5,0.4-6.1,1.1c-1.6,0.7-2.9,1.7-3.8,3c-0.9,1.3-1.5,2.9-1.9,4.7c-0.3,1.8-0.5,3.8-0.5,6v4.6h-8.6v5.2h8.6v45.4h6.2V58.3
		h10V53.1L235.4,53.1z"/>
	<path fill="#696A6C" d="M237.3,103.7h6.2V77.1c0-2.6,0.5-5,1.4-7.2c0.9-2.3,2.2-4.2,3.9-5.8c1.7-1.6,3.6-2.8,5.9-3.7
		c2.3-0.9,4.8-1.2,7.6-1.1v-6.2c-4.6-0.2-8.5,0.7-11.8,2.7c-3.3,2-5.7,5-7.3,9.2H243V53.1h-5.7V103.7L237.3,103.7z"/>
	<path fill-rule="evenodd" clip-rule="evenodd" fill="#696A6C" d="M304.2,80c0.1-3.3-0.2-6.6-1-9.9c-0.8-3.3-2.1-6.1-3.9-8.6
		c-1.8-2.5-4.1-4.5-7-6.1c-2.9-1.5-6.3-2.3-10.4-2.3c-4.1,0-7.5,0.7-10.4,2.2c-2.9,1.5-5.2,3.4-7.1,5.7c-1.8,2.4-3.2,5.1-4.1,8.1
		c-0.9,3-1.3,6.1-1.3,9.3c0,3.4,0.4,6.6,1.3,9.7c0.9,3.1,2.2,5.7,4.1,8.1c1.8,2.3,4.2,4.2,7.1,5.5c2.9,1.4,6.3,2,10.4,2
		c6.4,0,11.4-1.6,14.8-4.8c3.5-3.2,5.9-7.6,7.2-13.4h-6.2c-1,3.9-2.7,7-5.3,9.4c-2.5,2.4-6.1,3.6-10.6,3.6c-2.9,0-5.5-0.6-7.6-1.7
		c-2.1-1.1-3.8-2.6-5.1-4.4c-1.3-1.8-2.3-3.7-2.9-5.9c-0.7-2.2-1-4.3-1-6.4H304.2L304.2,80z M265.2,74.8c0.3-2.1,0.8-4.2,1.6-6.2
		c0.8-2,1.9-3.8,3.3-5.3c1.4-1.5,3-2.8,5-3.7c2-0.9,4.2-1.4,6.8-1.4c2.5,0,4.7,0.5,6.7,1.4c2,0.9,3.6,2.2,5,3.7
		c1.4,1.5,2.4,3.3,3.2,5.3c0.8,2,1.2,4.1,1.2,6.2H265.2L265.2,74.8z"/>
	<path fill="#696A6C" d="M345.1,67.9c-0.1-2.7-0.7-5.1-1.7-7.2c-1-2-2.3-3.7-4-5.1c-1.7-1.4-3.6-2.4-5.8-3c-2.2-0.7-4.6-1-7.1-1
		c-2.2,0-4.5,0.3-6.7,0.8c-2.3,0.5-4.3,1.3-6.1,2.4c-1.8,1.1-3.3,2.6-4.5,4.4c-1.1,1.8-1.7,4-1.7,6.6c0,2.2,0.4,4,1.1,5.4
		c0.7,1.5,1.7,2.7,3,3.7c1.3,1,2.8,1.9,4.5,2.5c1.7,0.7,3.6,1.3,5.6,1.8l7.9,1.8c1.4,0.3,2.7,0.7,4.1,1.2c1.3,0.5,2.5,1,3.6,1.7
		c1,0.7,1.9,1.6,2.5,2.6c0.6,1,0.9,2.3,0.9,3.7c0,1.8-0.4,3.3-1.3,4.5c-0.9,1.2-2,2.2-3.4,3c-1.4,0.8-2.9,1.3-4.5,1.7
		c-1.6,0.3-3.2,0.5-4.6,0.5c-4.1,0-7.6-1.1-10.3-3.2c-2.8-2.1-4.3-5.3-4.6-9.5h-6.2c0.5,6.2,2.6,10.7,6.3,13.6
		c3.7,2.8,8.5,4.3,14.5,4.3c2.4,0,4.7-0.3,7.2-0.8c2.4-0.6,4.6-1.4,6.5-2.6c1.9-1.2,3.5-2.8,4.8-4.7c1.2-1.9,1.9-4.3,1.9-7
		c0-2.2-0.4-4.1-1.3-5.8c-0.8-1.6-1.9-3-3.3-4.1c-1.3-1.1-2.9-2-4.6-2.7c-1.7-0.7-3.5-1.2-5.2-1.4l-8.2-1.9c-1-0.3-2.2-0.6-3.4-1
		c-1.2-0.4-2.4-1-3.4-1.6c-1-0.7-1.9-1.5-2.6-2.4c-0.7-0.9-1-2.1-1-3.5c0-1.6,0.4-3,1.1-4.1c0.7-1.1,1.7-2,2.8-2.7
		c1.2-0.7,2.5-1.2,3.9-1.5c1.4-0.3,2.8-0.4,4.2-0.4c1.8,0,3.4,0.2,5,0.6c1.6,0.4,3,1.1,4.2,2c1.2,0.9,2.2,2.1,2.9,3.5
		c0.7,1.4,1.1,3.1,1.2,4.9H345.1L345.1,67.9z"/>
	<path fill="#696A6C" d="M391.7,70.4c-0.7-5.8-3-10.2-6.7-13c-3.8-2.9-8.3-4.3-13.8-4.3c-3.9,0-7.3,0.7-10.2,2
		c-3,1.4-5.5,3.2-7.5,5.5c-2,2.3-3.6,5-4.6,8.1c-1,3.1-1.6,6.3-1.6,9.7c0,3.5,0.5,6.7,1.6,9.8c1,3.1,2.6,5.7,4.6,8
		c2,2.3,4.5,4.1,7.5,5.5c3,1.4,6.4,2,10.2,2c5.7,0,10.4-1.7,14.1-5.2c3.7-3.5,6-8.3,6.8-14.4h-6.2c-0.2,2.1-0.7,4-1.6,5.8
		c-0.8,1.8-1.9,3.3-3.2,4.6c-1.3,1.3-2.8,2.3-4.5,3c-1.7,0.7-3.5,1.1-5.4,1.1c-2.9,0-5.5-0.6-7.7-1.7c-2.2-1.2-4.1-2.7-5.5-4.6
		c-1.5-1.9-2.6-4-3.3-6.4c-0.8-2.4-1.1-4.9-1.1-7.4s0.4-4.9,1.1-7.4c0.8-2.4,1.9-4.6,3.3-6.4c1.5-1.9,3.3-3.4,5.5-4.6
		c2.2-1.2,4.8-1.7,7.7-1.7c4.1,0,7.2,1.1,9.6,3.2c2.3,2.2,3.9,5.1,4.8,8.9H391.7L391.7,70.4z"/>
	<path fill-rule="evenodd" clip-rule="evenodd" fill="#696A6C" d="M418.2,53.1c-3.9,0-7.3,0.7-10.2,2c-3,1.4-5.5,3.2-7.5,5.5
		c-2,2.3-3.6,5-4.6,8.1c-1,3.1-1.6,6.3-1.6,9.7c0,3.5,0.5,6.7,1.6,9.8c1,3.1,2.6,5.7,4.6,8c2,2.3,4.5,4.1,7.5,5.5
		c3,1.4,6.4,2,10.2,2c3.9,0,7.3-0.7,10.2-2c3-1.4,5.5-3.2,7.5-5.5c2-2.3,3.6-5,4.6-8c1-3.1,1.6-6.3,1.6-9.8c0-3.4-0.5-6.6-1.6-9.7
		c-1-3.1-2.6-5.8-4.6-8.1c-2-2.3-4.5-4.1-7.5-5.5C425.5,53.8,422,53.1,418.2,53.1L418.2,53.1z M418.2,58.3c2.9,0,5.5,0.6,7.7,1.7
		c2.2,1.2,4.1,2.7,5.5,4.6c1.5,1.9,2.6,4,3.3,6.4c0.8,2.4,1.1,4.9,1.1,7.4s-0.4,4.9-1.1,7.4c-0.8,2.4-1.9,4.6-3.3,6.4
		c-1.5,1.9-3.3,3.4-5.5,4.6c-2.2,1.2-4.8,1.7-7.7,1.7c-2.9,0-5.5-0.6-7.7-1.7c-2.2-1.2-4.1-2.7-5.5-4.6s-2.6-4-3.3-6.4
		c-0.8-2.4-1.1-4.9-1.1-7.4s0.4-4.9,1.1-7.4c0.8-2.4,1.9-4.6,3.3-6.4c1.5-1.9,3.3-3.4,5.5-4.6C412.7,58.9,415.2,58.3,418.2,58.3
		L418.2,58.3z"/>
	<polygon fill="#696A6C" points="439.2,53.5 441.7,53.5 441.7,60 442.4,60 442.4,53.5 444.9,53.5 444.9,52.9 439.2,52.9 439.2,53.5 
			"/>
	<polygon fill="#696A6C" points="445.5,60 446.2,60 446.2,53.9 446.2,53.9 448.7,60 449.3,60 451.7,53.9 451.8,53.9 451.8,60 
		452.4,60 452.4,52.9 451.4,52.9 449,59.2 446.5,52.9 445.5,52.9 445.5,60 	"/>
</g>
</svg>
