<?xml version="1.0" encoding="utf-8"?>
<!-- Business Intelligence © 2015  -->
<svg version="1.1" id="Layer_1" height="54" width="67" xmlns="http://www.w3.org/2000/svg" xmlns:xlink="http://www.w3.org/1999/xlink" x="0px" y="0px"
	 viewBox="0 0 85 72" enable-background="new 0 0 85 72" xml:space="preserve">
<rect fill="#FFFFFF" width="85" height="72"/>
<g>
	<g>
		
			<polygon fill-rule="evenodd" clip-rule="evenodd" fill="none" stroke="#D1D3D4" stroke-width="0.8233" stroke-miterlimit="3.8637" points="
			18.1,67.3 79.9,67.3 79.9,5.6 		"/>
	</g>
	<g>
		<path fill-rule="evenodd" clip-rule="evenodd" fill="#A7A9AC" d="M14.9,35.7c0,0-0.1,0.2-0.2,0.4l-1,1.4c-2.9,4.1-5.2,6.1-6.7,6.1
			c-0.7,0-1.3-0.3-1.8-0.8c-0.5-0.5-0.7-1.2-0.7-1.9c0-0.9,0.5-2.3,1.6-4.1l3.7-6.2c0.5,0,2.1,0,2.9,0l-5.3,8.7
			c-0.8,1.3-1.1,2.2-1.1,2.9c0,0.7,0.4,1.1,1.1,1.1c1.4,0,3.8-2.5,7.3-7.4c0.1-0.2,0.2-0.2,0.2-0.2C14.9,35.5,14.9,35.6,14.9,35.7z"
			/>
	</g>
	<g>
		<path fill-rule="evenodd" clip-rule="evenodd" fill="#00AEEF" d="M10.4,26.5c0-0.5,0.2-1,0.6-1.4c0.4-0.4,0.8-0.6,1.3-0.6
			c0.5,0,1,0.2,1.4,0.6c0.4,0.4,0.6,0.8,0.6,1.4c0,0.5-0.2,1-0.6,1.3c-0.4,0.4-0.8,0.6-1.4,0.6c-0.5,0-1-0.2-1.3-0.6
			C10.6,27.5,10.4,27.1,10.4,26.5z"/>
		<path fill-rule="evenodd" clip-rule="evenodd" fill="none" d="M10.4,26.5c0-0.5,0.2-1,0.6-1.4c0.4-0.4,0.8-0.6,1.3-0.6
			c0.5,0,1,0.2,1.4,0.6c0.4,0.4,0.6,0.8,0.6,1.4c0,0.5-0.2,1-0.6,1.3c-0.4,0.4-0.8,0.6-1.4,0.6c-0.5,0-1-0.2-1.3-0.6
			C10.6,27.5,10.4,27.1,10.4,26.5z"/>
	</g>
	<g>
		<g>
			<g>
				<path d="M15.6,40.6V30.6h5.6v1.2h-4.5v3.1h3.9v1.2h-3.9v4.6H15.6z"/>
				<path d="M22.8,40.6V30.6h1.1v10.1H22.8z"/>
				<path d="M25.8,40.6V30.6h1.1v8.9h4.1v1.2H25.8z"/>
				<path d="M32.3,40.6V30.6h6v1.2h-4.9v3.1H38V36h-4.6v3.4h5.1v1.2H32.3z"/>
			</g>
		</g>
	</g>
	<g>
		
			<line fill-rule="evenodd" clip-rule="evenodd" fill="none" stroke="#BCBEC0" stroke-width="0.5327" stroke-miterlimit="3.8637" x1="18.1" y1="5.6" x2="70.1" y2="5.6"/>
	</g>
	<g>
		
			<line fill-rule="evenodd" clip-rule="evenodd" fill="none" stroke="#BCBEC0" stroke-width="0.5327" stroke-miterlimit="3.8637" x1="18.1" y1="5.6" x2="18.1" y2="25.4"/>
	</g>
	<g>
		
			<line fill-rule="evenodd" clip-rule="evenodd" fill="none" stroke="#BCBEC0" stroke-width="0.5327" stroke-miterlimit="3.8637" x1="18.1" y1="42.8" x2="18.1" y2="57.6"/>
	</g>
</g>
</svg>
