<?xml version="1.0" encoding="utf-8"?>
<!-- Business Intelligence © 2015  -->
<svg version="1.1" id="Layer_1" width="49" height="53" xmlns="http://www.w3.org/2000/svg" xmlns:xlink="http://www.w3.org/1999/xlink" x="0px" y="0px"
	 viewBox="0 0 34.5 37.8" enable-background="new 0 0 34.5 37.8" xml:space="preserve">
<g>
	<g>
		<polygon fill-rule="evenodd" clip-rule="evenodd" fill="#D1D3D4" points="6.5,3.2 32.2,3.2 32.2,31.1 		"/>
	</g>
	<g>
		<rect x="3.6" y="7.1" fill-rule="evenodd" clip-rule="evenodd" width="25.7" height="27.9"/>
	</g>
	<g>
		<path fill-rule="evenodd" clip-rule="evenodd" fill="#FFFFFF" d="M6.8,32.1V9.9h6.8c1.4,0,2.5,0.2,3.3,0.6c0.8,0.4,1.5,1.1,2,2
			c0.5,0.9,0.8,1.9,0.8,3c0,1-0.2,1.9-0.7,2.7c-0.4,0.8-1.1,1.5-1.9,2c1,0.4,1.9,1,2.5,2c0.6,0.9,0.9,2.1,0.9,3.4
			c0,1.3-0.3,2.5-0.8,3.5s-1.3,1.8-2.2,2.2c-0.9,0.5-2.2,0.7-3.8,0.7H6.8z"/>
	</g>
	<g>
		<rect x="23.2" y="21.6" fill-rule="evenodd" clip-rule="evenodd" fill="#FFFFFF" width="2.2" height="10.5"/>
	</g>
	<g>
		<path fill-rule="evenodd" clip-rule="evenodd" fill="#00AEEF" d="M22.5,17.4c0-0.5,0.2-1,0.5-1.3c0.4-0.4,0.8-0.5,1.3-0.5
			c0.5,0,1,0.2,1.3,0.5c0.4,0.4,0.5,0.8,0.5,1.3c0,0.5-0.2,0.9-0.5,1.3c-0.4,0.4-0.8,0.5-1.3,0.5c-0.5,0-0.9-0.2-1.3-0.5
			C22.6,18.3,22.5,17.9,22.5,17.4z"/>
		<path fill-rule="evenodd" clip-rule="evenodd" fill="none" d="M22.5,17.4c0-0.5,0.2-1,0.5-1.3c0.4-0.4,0.8-0.5,1.3-0.5
			c0.5,0,1,0.2,1.3,0.5c0.4,0.4,0.5,0.8,0.5,1.3c0,0.5-0.2,0.9-0.5,1.3c-0.4,0.4-0.8,0.5-1.3,0.5c-0.5,0-0.9-0.2-1.3-0.5
			C22.6,18.3,22.5,17.9,22.5,17.4z"/>
	</g>
	<g>
		<path fill-rule="evenodd" clip-rule="evenodd" d="M9.2,29.5h4.5c1,0,1.7-0.1,2.2-0.3c0.7-0.3,1.2-0.7,1.6-1.3
			c0.4-0.6,0.5-1.4,0.5-2.3c0-0.8-0.2-1.6-0.5-2.1c-0.3-0.6-0.8-1-1.4-1.3c-0.6-0.3-1.5-0.4-2.7-0.4H9.2V29.5z"/>
	</g>
	<g>
		<path fill-rule="evenodd" clip-rule="evenodd" d="M9.2,19.2h3.9c1,0,1.8-0.1,2.2-0.2c0.6-0.2,1.1-0.6,1.4-1.1
			c0.3-0.5,0.5-1.2,0.5-2c0-0.8-0.2-1.5-0.5-2c-0.3-0.5-0.7-0.9-1.2-1.1c-0.5-0.2-1.4-0.3-2.7-0.3H9.2V19.2z"/>
	</g>
</g>
</svg>
