<?xml version="1.0" encoding="utf-8"?>
<!-- Generator: Adobe Illustrator 19.1.0, SVG Export Plug-In . SVG Version: 6.00 Build 0)  -->
<svg version="1.1" id="Layer_1" width="1280" height="327" xmlns="http://www.w3.org/2000/svg" xmlns:xlink="http://www.w3.org/1999/xlink" x="0px" y="0px"
	 viewBox="0 0 1280 326.7" enable-background="new 0 0 1280 326.7" xml:space="preserve">
<g>
	<linearGradient id="SVGID_1_" gradientUnits="userSpaceOnUse" x1="159.9297" y1="353.5115" x2="877.0762" y2="69.4165">
		<stop  offset="0" style="stop-color:#CCE0F4"/>
		<stop  offset="6.211304e-002" style="stop-color:#B4D7F0"/>
		<stop  offset="0.2387" style="stop-color:#74BEE5"/>
		<stop  offset="0.3878" style="stop-color:#45ABDE"/>
		<stop  offset="0.5019" style="stop-color:#29A0D9"/>
		<stop  offset="0.5674" style="stop-color:#1E9CD7"/>
		<stop  offset="0.8652" style="stop-color:#0075BE"/>
		<stop  offset="0.9944" style="stop-color:#005B97"/>
	</linearGradient>
	<rect fill="url(#SVGID_1_)" width="1280" height="326.7"/>
	<linearGradient id="SVGID_2_" gradientUnits="userSpaceOnUse" x1="640" y1="326.6667" x2="640" y2="-2.873276e-008">
		<stop  offset="0" style="stop-color:#0E0E0E"/>
		<stop  offset="0.5" style="stop-color:#000000"/>
		<stop  offset="0.5213" style="stop-color:#010101"/>
		<stop  offset="0.7262" style="stop-color:#0B0B0B"/>
		<stop  offset="1" style="stop-color:#0E0E0E"/>
	</linearGradient>
	<rect opacity="0.51" fill="url(#SVGID_2_)" width="1280" height="326.7"/>
	<linearGradient id="SVGID_3_" gradientUnits="userSpaceOnUse" x1="640" y1="-2.873367e-008" x2="640" y2="326.6667">
		<stop  offset="0" style="stop-color:#FFFFFF;stop-opacity:0.77"/>
		<stop  offset="0.2033" style="stop-color:#FFFFFF;stop-opacity:0.65"/>
		<stop  offset="0.3448" style="stop-color:#FFFFFF;stop-opacity:0.65"/>
		<stop  offset="0.3462" style="stop-color:#FFFFFF;stop-opacity:0.65"/>
		<stop  offset="0.511" style="stop-color:#FFFFFF;stop-opacity:0"/>
		<stop  offset="0.5247" style="stop-color:#E1E1E1;stop-opacity:4.472275e-003"/>
		<stop  offset="0.5464" style="stop-color:#B8B8B8;stop-opacity:1.158136e-002"/>
		<stop  offset="0.5708" style="stop-color:#929292;stop-opacity:1.957367e-002"/>
		<stop  offset="0.5974" style="stop-color:#727272;stop-opacity:2.826838e-002"/>
		<stop  offset="0.6268" style="stop-color:#565656;stop-opacity:3.787606e-002"/>
		<stop  offset="0.6599" style="stop-color:#404040;stop-opacity:4.872554e-002"/>
		<stop  offset="0.6986" style="stop-color:#2F2F2F;stop-opacity:6.138782e-002"/>
		<stop  offset="0.7465" style="stop-color:#242424;stop-opacity:7.705475e-002"/>
		<stop  offset="0.8136" style="stop-color:#1D1D1D;stop-opacity:9.902187e-002"/>
		<stop  offset="1" style="stop-color:#1B1B1B;stop-opacity:0.16"/>
	</linearGradient>
	<rect opacity="0.7" fill="url(#SVGID_3_)" width="1280" height="326.7"/>
	<rect fill="none" stroke="#717171" stroke-width="0.5878" stroke-miterlimit="1" width="1280" height="326.7"/>
	<g opacity="0.58">
		<path d="M1280,326.6c-17.7,0-35.4,0-53.1,0c-46.8,0-93.5,0-140.3,0c-66.2,0-132.4,0-198.5,0c-76.3,0-152.6,0-228.9,0
			c-77.3,0-154.6,0-231.9,0c-68.6,0-137.2,0-205.8,0c-50.3,0-100.5,0-150.8,0c-15.6,0-31.1,0-46.7,0c-4.8,0-9.7,0-14.5,0
			c-2.4,0-5.7,0.6-8,0c-2-0.5-1.1,0.6-1.5-1.8c-1.1-6.8,0-14.8,0-21.7c0-31.2,0-62.4,0-93.6c0-65.7,0-131.3,0-197
			C0,10.7-1.2,1.2,0,0.1c0.4-0.4,3.3,0,3.8,0c9.2,0,18.3,0,27.5,0c40.7,0,81.3,0,122,0c62.2,0,124.3,0,186.5,0
			c74.9,0,149.9,0,224.8,0c78,0,155.9,0,233.9,0c71.5,0,143.1,0,214.6,0c55.4,0,110.9,0,166.3,0c30.5,0,61,0,91.5,0
			c2.2,0,5.6-0.7,7.7,0c1.8,0.6,1.2-0.4,1.3,2.3c0.9,21.3,0,42.8,0,64.1c0,71.8,0,143.7,0,215.5C1280,296.9,1280,311.8,1280,326.6
			C1280,326.7,1280,326.7,1280,326.6c0-36.8,0-73.6,0-110.4c0-58.7,0-117.3,0-176c0-13.4,0-26.8,0-40.2c0,0,0-0.1,0-0.1
			c-11.5,0-23,0-34.5,0c-31,0-62,0-93,0c-45.9,0-91.9,0-137.8,0c-56.1,0-112.1,0-168.2,0c-61.2,0-122.4,0-183.5,0
			c-62.2,0-124.4,0-186.5,0c-57.6,0-115.2,0-172.7,0c-48.8,0-97.7,0-146.5,0c-35.1,0-70.2,0-105.3,0c-10.9,0-21.8,0-32.7,0
			c-5.6,0-11.5-0.5-17.1,0C1.5,0,0.7-0.1,0-0.1C0-0.1,0,0,0,0c0,36.8,0,73.6,0,110.5c0,58.7,0,117.3,0,176c0,13.4,0,26.8,0,40.2
			c0,0,0,0.1,0,0.1c11.5,0,23,0,34.5,0c31,0,62,0,93,0c45.9,0,91.9,0,137.8,0c56.1,0,112.1,0,168.2,0c61.2,0,122.4,0,183.5,0
			c62.2,0,124.4,0,186.5,0c57.6,0,115.2,0,172.7,0c48.8,0,97.7,0,146.5,0c35.1,0,70.2,0,105.3,0c16.6,0,33.2,0.5,49.8,0
			c0.7,0,1.5,0,2.2,0C1280,326.7,1280,326.6,1280,326.6z"/>
	</g>
</g>
</svg>
