<?xml version="1.0" encoding="utf-8"?>
<!-- Generator: Adobe Illustrator 16.0.0, SVG Export Plug-In . SVG Version: 6.00 Build 0)  -->
<!DOCTYPE svg PUBLIC "-//W3C//DTD SVG 1.1//EN" "http://www.w3.org/Graphics/SVG/1.1/DTD/svg11.dtd">
<svg version="1.1" xmlns="http://www.w3.org/2000/svg" xmlns:xlink="http://www.w3.org/1999/xlink" x="0px" y="0px" width="50px"
	 height="50px" viewBox="0 0 50 50" enable-background="new 0 0 50 50" xml:space="preserve">
<g id="Layer_2" display="none">
	
		<rect x="5" y="5" display="inline" fill="none" stroke="#000000" stroke-width="0.25" stroke-linecap="round" stroke-linejoin="round" stroke-miterlimit="10" width="40" height="40"/>
</g>
<g id="Layer_1">
	<g>
		<circle cx="10.914" cy="10.398" r="3.515"/>
		<path d="M15.736,31.21c-0.432-0.039-0.859-0.134-1.267-0.29c-1.171-0.45-2.097-1.333-2.606-2.484
			c-0.509-1.148-0.54-2.429-0.086-3.601l3.761-9.736c-0.257-0.119-0.532-0.204-0.827-0.204H12.78c-0.546,0-1.019,0.237-1.375,0.594
			h-0.983c-0.355-0.356-0.831-0.594-1.375-0.594H7.115c-0.815,0-1.552,0.502-1.847,1.267l-3.634,9.413
			c-0.396,1.02,0.111,2.167,1.132,2.562c1.019,0.394,2.167-0.112,2.561-1.135l1.739-4.503v5.296L3.411,40.591
			c-0.302,1.055,0.309,2.148,1.359,2.45c0.183,0.051,0.366,0.075,0.547,0.075c0.861,0,1.653-0.565,1.901-1.434l3.695-12.932
			l3.473,12.157l2.06-7.212L15.736,31.21z"/>
		<path d="M39.086,13.914c1.938,0,3.516-1.573,3.516-3.515s-1.577-3.516-3.516-3.516c-1.94,0-3.515,1.574-3.515,3.516
			S37.146,13.914,39.086,13.914z"/>
		<path d="M48.365,25.574l-3.634-9.412c-0.295-0.764-1.031-1.267-1.847-1.267h-1.933c-0.543,0-1.019,0.237-1.374,0.594h-0.983
			c-0.356-0.356-0.829-0.594-1.375-0.594h-1.931c-0.295,0-0.57,0.084-0.827,0.204l3.761,9.736c0.454,1.172,0.423,2.452-0.086,3.601
			c-0.51,1.151-1.436,2.034-2.608,2.487c-0.406,0.156-0.831,0.236-1.262,0.275l-0.714,2.496l2.062,7.214l3.472-12.157l3.695,12.932
			c0.249,0.868,1.04,1.437,1.901,1.437c0.181,0,0.364-0.027,0.547-0.078c1.051-0.302,1.662-1.396,1.358-2.45l-3.655-12.796v-5.296
			l1.74,4.503c0.394,1.022,1.542,1.528,2.561,1.135C48.254,27.742,48.761,26.595,48.365,25.574z"/>
		<path d="M25,11.826c2.304,0,4.178-1.87,4.178-4.177c0-2.309-1.874-4.178-4.178-4.178s-4.178,1.87-4.178,4.178
			C20.822,9.956,22.696,11.826,25,11.826z"/>
		<path d="M29.571,28.321v-6.293l2.067,5.351c0.468,1.213,1.832,1.815,3.042,1.347c1.213-0.467,1.816-1.829,1.348-3.042
			l-4.321-11.186c-0.349-0.907-1.223-1.505-2.194-1.505h-2.295c-0.646,0-1.21,0.282-1.633,0.706l1.095,8.042L25,23.166l-1.68-1.425
			l1.095-8.042c-0.423-0.424-0.986-0.706-1.633-0.706h-2.295c-0.972,0-1.846,0.598-2.194,1.505l-4.321,11.186
			c-0.469,1.213,0.135,2.576,1.348,3.042c1.211,0.469,2.574-0.134,3.042-1.347l2.067-5.351v6.293l-4.344,15.207
			c-0.357,1.25,0.367,2.553,1.616,2.909c0.216,0.063,0.435,0.092,0.647,0.092c1.024,0,1.967-0.676,2.262-1.707L25,29.456
			l4.39,15.366c0.295,1.031,1.237,1.707,2.262,1.707c0.213,0,0.432-0.029,0.647-0.092c1.249-0.356,1.974-1.659,1.616-2.909
			L29.571,28.321z"/>
	</g>
</g>
</svg>
