<?xml version="1.0" encoding="utf-8"?>
<svg version="1.1" id="GOD" width="199.5" height="45" xmlns="http://www.w3.org/2000/svg" xmlns:xlink="http://www.w3.org/1999/xlink" x="0px" y="0px"
	 viewBox="0 0 226 59" enable-background="new 0 0 226 59" xml:space="preserve">
<g>
	<path fill-rule="evenodd" clip-rule="evenodd" fill="#F3F3F3" d="M16.2,53.5c-0.3-1-0.5-2.1-0.9-3.1c-1.1-2.7-2.4-5.3-3.5-8
		c-0.7-1.6-1.3-3.3-1.6-5c-0.3-2.1,0.4-3.9,1.7-5.5c0.6-0.7,1.2-1.2,1.9-1.8c0.5-0.4,0.9-0.9,1.2-1.5c1.4-2.7,3-5.2,5.2-7.3
		c0.2-0.2,0.4-0.3,0.6-0.4c0.7-0.4,1.1-0.4,1.8,0.2c0.7,0.6,1.4,1.1,2.1,1.7c-0.1,0.1-0.2,0.2-0.3,0.2c0-0.8,0-1.5,0.1-2.3
		c0.4-2.3,2.7-3.8,5-3.3c1.7,0.4,3.3,0.9,5,1.3c1.2,0.3,2.4,0.7,3.6,0.9c1.2,0.2,2.4,0.3,3.7,0.5c-0.5,0.9-1.1,1.7-1.6,2.6
		c0,0.1-0.1,0.1-0.2,0.1c-2.4,0.6-4.5,1.7-6.7,2.8c-1.7,0.8-3.5,1.6-5.4,1.8c-0.4,0.1-0.8,0.1-1.3,0.1c0.2,0.8,0.3,1.6,0.4,2.4
		c0.3,2,0.1,3.9-0.3,5.9c-0.3,1.3-0.7,2.7-0.5,4.1c0.2,2.3,1.8,3.8,4.2,3.6c2.3-0.2,4.3-1.4,6-2.8c1.4-1.2,2.7-2.5,4.1-3.7
		c0.3-0.3,0.4-0.6,0.2-1c-0.7-1.6-1.4-3.1-2.1-4.7c-0.2-0.4-0.2-0.7-0.1-1.1c0.3-0.6,0.4-1.2,0.7-1.9c0.4,0.6,0.6,1.1,1,1.5
		c0.5,0.6,1.1,1.3,1.7,1.9c0.6,0.5,1.4,0.6,2.1,0.4c1.4-0.3,1.9-1,1.7-2.5c-0.5-3.8-1.1-7.6-1.7-11.4c-0.4-2.5-0.8-5.1-1.2-7.6
		c0-0.1,0-0.2,0-0.3c-0.4-1.6-0.4-1.7,0.4-3.3c0.8,1.9,2.1,3.4,2.6,5.4c-0.1,0-0.1,0.1-0.2,0.1c-0.4-0.3-0.7-0.7-1.1-1
		c0,0-0.1,0-0.1,0c0,0.5,0.1,0.9,0.1,1.4c0.4,2.9,0.9,5.9,1.3,8.8c0.4,2.6,1,5.1,0.8,7.8c-0.1,1-0.3,1.9-0.6,2.8
		c-0.2,0.6-0.7,1.1-1.1,1.5c-0.4,0.3-0.7,0.6-0.8,1.1c-0.6,1.6-1.1,3.2-1.1,4.9c0,2.6,2.4,4.5,4.9,3.8c1.8-0.5,3.3-1.7,4.7-2.9
		c2.7-2.5,5.3-5.2,8-7.6c1.5-1.4,3.3-2.5,5-3.7c0.2-0.1,0.3-0.2,0.5-0.3c-0.7-0.6-1.5-1.1-2.1-1.6c-1.3-1.1-2.1-2.4-2-4.2
		c0.1-1.5,1-2.7,2.6-2.8c1.4-0.1,2.9-0.1,4.3,0c3.7,0.3,7.3,1.1,10.9,2.2c0.3,0.1,0.5,0.2,0.9,0.3c-0.6,0.9-1.1,1.8-1.7,2.7
		c-0.1,0.1-0.3,0.2-0.5,0.3c-3,1.2-6.1,2.4-9,3.6c0.5,1.9,1,3.7,1.5,5.6c-1.1,0.1-2,0-2.9-0.6c-1.1-0.7-1-1.7-0.8-2.7
		c0-0.3,0.1-0.6,0.1-1c-1,0.6-1.9,1.1-2.1,2.3c-0.4,1.9-1.1,3.7-1.1,5.7c0,0.7,0,1.5,0.2,2.2c0.6,2.4,2.4,3,4.5,2.7
		c2.4-0.4,4.3-1.7,6.1-3.2c1.2-1,2.4-2.2,3.6-3.3c0.3-0.2,0.3-0.5,0.2-0.8c-0.7-1.5-1.3-3.1-2-4.6c-0.2-0.5-0.3-0.8-0.1-1.3
		c0.3-0.6,0.4-1.2,0.7-1.8c0.5,0.8,1,1.5,1.5,2.3c1.1,1.6,3,1.9,4.4,0.9c0.4-0.3,0.7-0.7,0.6-1.2c-0.3-1.9-0.5-3.8-0.7-5.8
		c-0.3-2.4-0.7-4.7-1.1-7.1c-0.4-2.5-0.7-4.9-1.3-7.3c-0.3-1.2,0.1-2,0.4-3.1c0.9,1.9,2.1,3.5,2.7,5.4c-0.1,0-0.1,0.1-0.2,0.1
		c-0.4-0.3-0.7-0.7-1.2-1.1c0,0.2-0.1,0.4-0.1,0.6c0.5,3.4,1.1,6.8,1.6,10.2c0.3,1.9,0.6,3.8,0.8,5.8c0.2,1.6-0.1,3.2-0.8,4.7
		c-0.9,1.8-2,1.9-3.6,1.7c-0.2,0-0.4-0.1-0.6-0.1c-0.1,1.1-0.1,2.2-0.2,3.3c-0.1,0.9-0.4,1.7-1,2.4c-1.9,2-3.9,3.9-6.5,5.1
		c-1.3,0.6-2.6,1-4,1c-1.3,0-2.3-0.5-3.1-1.5c-1.2-1.6-1.5-3.3-1.3-5.2c0.2-2.3,0.8-4.6,1.6-6.8c0-0.1,0-0.1,0-0.4
		c-0.6,0.4-1,0.8-1.4,1.1c-1.7,1.6-3.5,3.3-5.2,5c-2.1,2-4.3,4-6.5,5.9c-1.1,0.9-2.4,1.5-3.7,2.1c-2.1,0.9-3.8-0.1-4.9-1.7
		c-1-1.5-1.2-3.1-1-4.8c0.1-0.9,0.4-1.8,0.6-2.7c0.3-0.9,0.6-1.8,1-2.7h-2.5c0,0.4,0,0.8,0,1.3c-0.1,1-0.1,1.9-0.3,2.9
		c0,0.3-0.2,0.6-0.4,0.8c-2,2-4.1,3.9-6.6,5.4c-1.4,0.8-3,1.5-4.7,1.4c-1.5-0.1-2.5-0.8-3.2-2c-0.9-1.7-1.1-3.5-0.8-5.4
		c0.4-1.9,0.8-3.9,1.1-5.8c0.2-1.6,0.1-3.3-0.2-4.9c0-0.2-0.2-0.4-0.4-0.5c-1.1-0.4-2.1-1.2-2.9-2c-0.6-0.6-1.1-1.2-1.7-1.8
		c-0.8-0.7-1.1-0.7-1.9,0.1c-1.2,1.3-2,2.8-2.8,4.4c-0.2,0.4-0.4,0.9-0.6,1.3c2.8,1.8,3.1,4.6,3.3,7.7c-0.4-0.1-0.8-0.2-1.1-0.3
		c-0.6-0.3-1.2-0.7-1.8-0.9c-1.2-0.6-1.9-1.5-2.1-2.9c0-0.2-0.1-0.4-0.1-0.6c-1.6,0.4-3.3,2.3-3.4,3.9c0,0.3,0,0.7,0.2,0.9
		c1.1,2.5,2.1,5,3.2,7.5c1,2.4,1.9,4.8,2.2,7.4c0.1,0.5,0,1,0,1.5H16.2z M36.7,22c-1-0.3-1.8-0.5-2.6-0.7c-0.8-0.2-1.6-0.6-2.4-0.7
		C30.4,20.3,29.2,20,28,20c-2,0-3,1-2.9,2.7c0.1,1.5,0.8,2.3,2.1,2.4c0.5,0,1,0,1.5-0.1C31.5,24.5,33.9,23,36.7,22 M75.6,24.7
		c-0.1-0.1-0.2-0.1-0.3-0.1c-3.7-1.4-7.5-1.8-11.4-1.4c-0.4,0-0.8,0.2-1.2,0.3c-0.1,0.1-0.1,0.2-0.2,0.3c0.3,0.2,0.6,0.4,0.9,0.7
		c1.4,1.1,2.7,2.2,4,3.4c0.3,0.2,0.5,0.2,0.7,0c1.6-0.7,3.1-1.4,4.7-2.1C73.8,25.3,74.7,25,75.6,24.7"/>
	<path fill-rule="evenodd" clip-rule="evenodd" fill="#F3F3F3" d="M217.1,34.9c-0.1,0.5-0.2,1.1-0.5,1.6c-0.2,0.6-0.6,1.1-1,1.5
		c-1.1,1.1-2.9,1-3.9-0.3c-0.3-0.5-0.6-1-0.9-1.5c-0.5,1.4-1,2.7-2.8,2.5c-1.3-0.1-1.6-1.1-2-2.2c-0.1,0.2-0.2,0.4-0.3,0.5
		c-0.8,1.4-2,2.2-3.6,2.2c-1.3,0-2.4-1-2.5-2.4c0-0.3,0-0.6,0-1c-1.2,0.3-2.3,0.7-3.4,1c-4.8,1.3-9.6,2.5-14.5,3.3
		c-2.8,0.5-5.7,0.9-8.6,1.2c-2.6,0.3-5.2,0.5-7.9,0.6c-3.2,0.1-6.5,0.2-9.7,0.2c-2.8,0-5.6-0.2-8.4-0.4c-5.2-0.4-10.3-1.2-15.4-2.3
		c-2.8-0.6-5.5-1.4-8-2.7c-0.1,0-0.2-0.1-0.4-0.1c-0.1,1.4-0.2,2.7-0.3,4.1c-1.5-0.9-2.4-2-2.5-3.7c0-0.4-0.1-0.9-0.1-1.3
		c-0.1-0.8-1.3-1.4-2.2-1c-0.6,0.2-1.2,0.6-1.6,1c-1.6,1.6-3.1,3.4-4.7,5c-0.8,0.9-1.7,1.7-2.7,2.5c-2.5,1.9-4.3,0.2-4.7-2
		c-0.3-1.3-0.1-2.5,0.2-3.8c-1.2,0.5-2.4,0.5-3.4-0.3c-1-0.8-1.4-1.9-1.7-3.2c-0.2,0.7-0.3,1.4-0.5,2c-0.7,2.2-2.8,2.9-4.7,2.5
		c-1.3-0.3-1.8-1.5-2.1-2.7c-0.4-1.4-0.2-2.8,0-4.3c0.1-0.8,0.2-1.7,0.2-2.6c-0.1,0-0.1,0-0.2-0.1c-0.1,0.2-0.2,0.3-0.3,0.5
		c-0.7,1.4-1,2.9-1.3,4.4c-0.2,1-0.4,1.9-0.6,2.9c0,0.1-0.1,0.2-0.1,0.3c-0.3,0.6-0.6,1.2-1.4,1.3c-0.8,0.1-1.2-0.5-1.5-1.1
		c-0.8-1.3-1.1-2.8-1.1-4.3c0-1.3,0.2-2.6,0.3-4c0-0.1,0.1-0.2,0.3-0.3c0,0.6-0.1,1.1-0.1,1.7c-0.1,1.4,0,2.8,0.4,4.2
		c0.1,0.4,0.3,0.8,0.6,1c0.6,0.7,1.5,0.6,1.8-0.3c0.4-0.9,0.6-1.9,0.9-2.9c0.4-1.3,0.8-2.6,1.3-3.9c0.4-0.9,1-1.7,2.1-2.3
		c-0.1,1-0.2,1.9-0.2,2.8c-0.1,1.6-0.3,3.2-0.3,4.7c0.1,1.8,1.4,2.6,3.2,2c2-0.7,3-2.6,2.6-4.8c-0.3-1.4-0.5-2.7-0.8-4.1
		c-0.2-0.9,0.4-1.6,0.6-2.5c0.7,1.1,0.9,2.2,1,3.3c0.2,1.6,0.5,3.3,0.8,4.9c0.1,0.6,0.5,1.3,1,1.8c1,1.2,2.9,1.2,3.8,0.2
		c0.2-0.3,0.3-0.5,0.1-0.9c-0.8-1.9-1.6-3.7-2.3-5.6c-0.3-0.7-0.5-1.4-0.5-2.1c0-0.7,0.2-1.4,0.4-2.1c0.7,1.2,1.7,2.2,2.2,3.5
		c-0.1,0-0.1,0.1-0.2,0.1c-0.3-0.2-0.6-0.4-0.9-0.6l-0.1,0.1c0.1,0.2,0.1,0.3,0.2,0.5c0.7,1.9,1.5,3.7,1.9,5.6
		c0.4,1.4,0.2,2.9-1,4.1c-0.2,0.2-0.3,0.7-0.3,1c-0.1,0.6-0.2,1.2-0.1,1.8c0.1,1.3,1.4,1.8,2.4,1.4c0.9-0.4,1.7-0.9,2.4-1.5
		c1.4-1.4,2.5-2.9,3.8-4.3c0.9-1,1.9-1.9,3-2.8c1.2-1,2.4-1.1,3.7-0.1c0.1,0.1,0.2,0.1,0.3,0.2c0.3-0.5,0.5-1.1,0.8-1.6
		c2.2,2.3,5.1,3.2,8,4.1c3.7,1.1,7.4,2,11.2,2.4c3.3,0.4,6.5,0.8,9.8,1c5,0.4,10,0.5,15,0.2c3.3-0.2,6.6-0.4,9.9-0.8
		c8.4-0.9,16.6-2.4,24.8-4.5c0.2,0,0.4-0.1,0.6-0.1c-0.2,0.8-0.1,1.5,0.3,2.2c0.6,1,1.3,1.3,2.4,0.9c0.8-0.3,1.5-0.9,2.2-1.4
		c0.7-0.5,1.2-1.1,1.9-1.6c0.1,0.6,0,1.1,0.2,1.5c0.3,1.2,1.5,1.5,2.4,0.6c0.5-0.5,0.8-1.2,1.2-1.8c0.3-0.4,0.6-0.7,0.9-1.1
		c-0.1,1.4,0.6,2.8,1.7,3.4c0.6,0.3,1.2,0.3,1.7-0.1c0.5-0.3,0.5-0.8,0.4-1.3c-0.1-0.4-0.2-0.8-0.3-1.2c-0.7-1.5-1.4-2.9-2.1-4.4
		c-0.9-1.9-1.8-3.8-2.7-5.6c-0.1-0.2-0.1-0.4-0.1-0.5c0.1-0.6,0.2-1.2,0.3-1.8c1.1,0.8,2.9,2.8,2.9,3.3c-0.4-0.2-0.8-0.3-1.3-0.5
		c0.2,0.4,0.2,0.6,0.4,0.8c1,1.7,2.1,3.4,3,5.1c0.5,1,0.8,2.2,1.2,3.3V34.9z M121.3,35.1c0.1,0.5,0.1,0.9,0.3,1.2
		c0.2,0.4,0.4,0.8,0.6,1.2c0,0.1,0.3,0,0.5,0c0-0.4,0.2-0.9,0-1.2C122.4,35.9,121.9,35.6,121.3,35.1"/>
	<path fill-rule="evenodd" clip-rule="evenodd" fill="#F3F3F3" d="M105,6.8c-0.2,1.2-0.7,2.3-1.5,3.3c0.1-0.3,0.2-0.6,0.3-1
		c0.1-0.3,0.2-0.7,0.3-1.1c-5.7,1.8-10.8,4.5-15.3,8.4c0.1-0.8,0.3-1.4,0.9-1.9c1.8-1.5,3.7-2.8,5.8-3.9c3-1.6,6-3,9.3-3.8
		c0,0,0.1,0,0.1-0.1H105z"/>
	<path fill-rule="evenodd" clip-rule="evenodd" fill="#F3F3F3" d="M109.9,34.5c0-1,0-2.1-0.2-3.1c-0.2-2.1-0.5-4.2-0.7-6.2
		c-0.3-2.1-0.6-4.3-1-6.4c-0.4-2.4-0.7-4.7-1.1-7.1c-0.1-0.8-0.4-1.6-0.5-2.4c0-0.2,0-0.3,0.1-0.5c0.2-0.5,0.4-1,0.6-1.7
		c0.8,1.9,2,3.5,2.6,5.4c-0.1,0-0.1,0.1-0.2,0.1c-0.3-0.4-0.7-0.8-1-1.1c-0.1,0-0.1,0.1-0.2,0.1c0,0.2,0,0.5,0,0.7
		c0.4,2.3,0.7,4.7,1.1,7c0.3,2.1,0.6,4.3,1,6.4c0.3,1.8,0.4,3.5,0.3,5.3C110.6,32.2,110.4,33.4,109.9,34.5"/>
	<path fill-rule="evenodd" clip-rule="evenodd" fill="#F3F3F3" d="M50.3,12.6c-0.3-0.4-0.6-0.7-1.1-1.2c0,0.4-0.1,0.6-0.1,0.8
		c0.4,2.6,0.8,5.3,1.2,7.9c0.4,2.4,0.8,4.8,1.1,7.1c0.3,2.3,0.3,4.5-0.3,6.8c0,0.2-0.2,0.3-0.3,0.5c-0.1,0-0.1,0-0.2,0
		c0-0.9,0.1-1.8,0-2.7c-0.2-2.2-0.5-4.4-0.7-6.6c-0.3-2.4-0.7-4.8-1.1-7.1c-0.4-2.6-0.8-5.2-1.3-7.8c-0.3-1.5-0.4-1.5,0.4-3.2
		c0.8,1.9,2,3.4,2.6,5.3C50.5,12.5,50.4,12.5,50.3,12.6"/>
	<path fill-rule="evenodd" clip-rule="evenodd" fill="#F3F3F3" d="M88.7,34.5c0-0.1,0-0.2,0-0.3c0.1-3.2-0.4-6.4-0.9-9.6
		c-0.5-3.4-1-6.8-1.5-10.1c-0.3-1.7-0.7-3.4-1-5.1c0-0.2,0-0.3,0-0.5c0.2-0.5,0.4-1.1,0.6-1.7c0.5,1,1,1.9,1.4,2.7
		c0.3,0.5,0.6,1,0.8,1.6c0.1,0.3,0.2,0.7,0.3,1c-0.1,0-0.1,0.1-0.2,0.1c-0.3-0.4-0.6-0.7-1-1.1c-0.1,0-0.1,0-0.2,0.1
		c0,0.5,0.1,0.9,0.1,1.4c0.4,2.9,0.9,5.7,1.3,8.6c0.4,2.9,1.1,5.7,1.1,8.6c0,1.2-0.3,2.5-0.4,3.7c0,0.2-0.2,0.4-0.3,0.7
		C88.8,34.5,88.8,34.5,88.7,34.5"/>
	<path fill-rule="evenodd" clip-rule="evenodd" fill="#F3F3F3" d="M33.2,32.3c-0.9-0.6-1.8-0.5-2.6,0.2c-0.1-0.8,0.6-1.7,1.4-1.9
		c1.3-0.2,2.6,0,3.8,0.4l0.1,0.2c-0.7,0.5-1.3,1-2,1.5c-0.9,0.7-1.8,1.3-2.7,2c-0.4,0.3-0.7,0.8-0.4,1.4c0.3,0.6,0.8,0.7,1.3,0.8
		c1.8,0.4,3.1-0.5,4.3-1.8c0.4-0.5,0.8-1,1.2-1.5c-0.5,1.4-1.2,2.6-2.3,3.6c-0.8,0.7-1.7,1.2-2.8,1.2c-2.5,0.1-2.9-1.9-2.2-3.3
		c0.5-1.1,1.4-1.8,2.3-2.5C32.8,32.5,32.9,32.4,33.2,32.3"/>
	<path fill-rule="evenodd" clip-rule="evenodd" fill="#F3F3F3" d="M196.9,39.9c0.2,0.7,0.2,1.3,0.9,1.3c0.6,0,0.6-0.7,0.8-1.1
		c0.1-0.1,0.1-0.3,0.3-0.4c0.1,0.8,0.1,1.6-0.4,2.4c-0.5,0.8-1.4,0.7-2-0.3c-0.3,0.3-0.6,0.7-0.9,1c-0.5,0.4-1,0.5-1.5,0.1
		c-0.9-0.9-1.9-0.7-2.9-0.2c-1.6,0.7-3.2,1.4-4.8,2c-2.3,0.8-4.6,1-7,1.1c-0.1,0-0.2-0.1-0.3-0.1c1-0.1,1.9-0.2,2.9-0.4
		c2.4-0.4,4.6-1.3,6.7-2.4c1.2-0.6,2.5-1.2,3.7-1.8c0.8-0.4,1.4-0.3,2.1,0.3c0.9,0.8,1.3,0.7,2-0.4
		C196.5,40.6,196.6,40.3,196.9,39.9"/>
	<path fill-rule="evenodd" clip-rule="evenodd" fill="#F3F3F3" d="M64.5,17.3c0.1-0.8,0.3-1.4,0.8-1.8c3.9-3.4,8.3-5.6,13.2-7
		c0.1,0,0.1,0,0.3,0c-0.1,1.1-0.6,2.1-1.3,2.9c0.2-0.6,0.3-1.1,0.5-1.8C72.9,11.1,68.5,13.7,64.5,17.3"/>
	<path fill-rule="evenodd" clip-rule="evenodd" fill="#F3F3F3" d="M117.1,22.2c-0.7-0.5-1.3-0.3-1.8,0.2c0-0.6,0.7-2.1,1.2-2.2
		c0.3-0.1,0.7-0.1,0.9,0.1c0.7,0.4,1.4,0.9,2.1,1.4c-0.3,0.5-0.5,1-0.9,1.5c-0.1,0.2-0.4,0.2-0.6,0.3c-0.7,0.2-1.5,0.4-2.2,0.7
		c-0.8,0.3-0.8,0.6-0.7,1.5c0.2,1.5,0.4,3,0.6,4.5c0,0.2,0,0.4-0.1,0.7c-0.2-1.1-0.5-2.2-0.7-3.3c-0.1-0.8-0.3-1.5-0.4-2.3
		c-0.2-1.2,0.2-2.1,1.3-2.6C116.2,22.6,116.7,22.4,117.1,22.2"/>
	<path fill-rule="evenodd" clip-rule="evenodd" fill="#F3F3F3" d="M19.2,49.9c-0.3-1.8-0.7-3.6-1.1-5.5c-0.3-1.7,0.1-2.5,1.7-3.2
		c0.3-0.1,0.6-0.2,0.9-0.4c-0.6-0.5-0.8-0.4-1.7,0.1c-0.1-0.5-0.1-0.5,0.4-1.3c0.7-1,1.1-1.1,2.1-0.4c0.4,0.3,0.8,0.6,1.1,0.9
		c0.1,0.1,0.3,0.2,0.4,0.3c-0.3,0.5-0.5,1-0.8,1.4c-0.1,0.2-0.4,0.3-0.6,0.3c-0.8,0.3-1.6,0.5-2.3,0.8c-0.7,0.3-0.8,0.6-0.6,1.4
		C19.2,46.3,19.4,48.1,19.2,49.9"/>
	<path fill-rule="evenodd" clip-rule="evenodd" fill="#F3F3F3" d="M85.9,41.4c-2.1,3.7-6.1,4.3-9.1,4.2c1.5-0.5,3.1-1.1,4.6-1.7
		c1.5-0.6,2.9-1.5,4-2.8c-1-0.7-0.8-1.7,0.4-2.6c0-0.3,0-0.5,0.1-0.7c0.3,0.2,0.7,0.3,0.9,0.5c0.4,0.4,0.7,0.9,0.9,1.4
		c0.2,0.4,0.2,0.9,0.2,1.4c0,0.5-0.5,0.7-1,0.6C86.6,41.7,86.3,41.5,85.9,41.4 M85.2,39.8c0.3,0.2,0.6,0.4,0.9,0.6
		c0.1,0,0.1-0.1,0.2-0.1c0-0.3,0.2-0.8,0-0.9C86,39.2,85.6,39.4,85.2,39.8 M86.8,39.7c-0.1,0.4-0.2,0.8-0.1,0.9
		c0.2,0.2,0.6,0.2,0.9,0.3c0-0.1,0.1-0.1,0.1-0.2C87.4,40.5,87.1,40.2,86.8,39.7"/>
	<path fill-rule="evenodd" clip-rule="evenodd" fill="#F3F3F3" d="M20.6,34.3c0.3-0.7,0.6-1.3,0.9-2c-0.7-0.4-1.5-0.8-2.2-1.2
		c0.4-0.8,0.7-1.5,1.1-2.3c0.8,0.4,1.6,0.8,2.5,1.3c-0.3,0.7-0.6,1.3-1,2c0.8,0.4,1.5,0.8,2.3,1.2c-0.4,0.8-0.7,1.5-1.1,2.3
		C22.2,35.1,21.4,34.7,20.6,34.3"/>
	<path fill-rule="evenodd" clip-rule="evenodd" fill="#F3F3F3" d="M98.4,42.4c-0.9-0.6-1.3-0.5-1.6,0.5c-0.3,1.2-0.5,2.4-0.8,3.6
		c-0.5-0.9-0.9-1.8-1.4-2.8c-0.2,0.8-0.6,0.9-1.2,0.8c-0.5-0.1-0.8-0.5-0.9-1.1c0-0.2,0-0.3,0-0.5c0-0.5,0.1-1,0.6-1.1
		c0.5-0.2,1-0.1,1.4,0.3c0.4,0.6,0.8,1.2,1.1,1.9c0.1,0.2,0.2,0.4,0.3,0.6c0.3-1.1,0.5-2.2,0.8-3.3c0.2-0.5,0.4-1,0.8-1.5
		c0.2-0.2,0.6-0.3,0.8-0.3c0.2,0,0.4,0.4,0.5,0.6C99,41,98.9,41.7,98.4,42.4"/>
	<path fill-rule="evenodd" clip-rule="evenodd" fill="#F3F3F3" d="M116.2,17.2c0.3-1.1,0.6-2.3,0.9-3.4c0.1-0.4,0.4-0.9,0.7-1.2
		c0.2-0.2,0.5-0.3,0.7-0.3c0.2,0.1,0.4,0.4,0.5,0.6c0.2,0.7,0.1,1.5-0.4,2.2c-0.1-0.1-0.2-0.1-0.3-0.2c-0.5-0.3-0.9-0.3-1.1,0.3
		c-0.3,0.9-0.5,1.9-0.8,2.8c-0.1,0.4-0.1,0.8-0.2,1.3c-0.5-1-1-1.9-1.4-2.8c-0.3,0.6-0.6,0.9-1.2,0.8c-0.6-0.2-0.9-0.5-0.9-1.2
		c0-0.9,0.2-1.4,0.8-1.6c0.5-0.2,1.1,0.1,1.6,0.8C115.5,15.9,115.9,16.6,116.2,17.2"/>
	<path fill-rule="evenodd" clip-rule="evenodd" fill="#F3F3F3" d="M206.1,21.5c-0.5-1-0.9-1.8-1.4-2.8c-0.3,0.6-0.6,0.9-1.2,0.7
		c-0.6-0.2-0.8-0.5-0.8-1.3c0-0.2,0-0.3,0-0.5c0.2-0.3,0.3-0.7,0.6-1c0.4-0.3,0.9-0.2,1.1,0.2c0.5,0.6,0.8,1.2,1.2,1.8
		c0.1,0.2,0.2,0.5,0.3,0.8c0.2-1,0.4-1.9,0.6-2.8c0.2-0.7,0.5-1.3,0.8-1.9c0.2-0.3,0.7-0.5,0.9-0.5c0.2,0.1,0.5,0.5,0.5,0.9
		c0.2,0.7,0,1.3-0.4,1.9c-0.8-0.6-1.3-0.5-1.6,0.5c-0.3,1-0.4,2-0.6,3C206.2,20.9,206.1,21.2,206.1,21.5"/>
	<path fill-rule="evenodd" clip-rule="evenodd" fill="#F3F3F3" d="M57.8,12.9c-0.8-0.6-1.2-0.6-1.5,0.4c-0.3,1-0.5,2.1-0.7,3.1
		c-0.1,0.2-0.1,0.5-0.1,0.8c-0.5-0.9-0.9-1.8-1.3-2.7c-0.5,0.6-0.9,0.8-1.4,0.6c-0.6-0.2-0.7-0.7-0.7-1.3c0-0.5,0-1.1,0.6-1.3
		c0.5-0.2,1-0.1,1.4,0.4c0.3,0.3,0.5,0.7,0.7,1c0.2,0.4,0.4,0.9,0.6,1.4c0.3-1,0.5-2,0.8-3c0.2-0.6,0.5-1.1,0.8-1.6
		c0.2-0.2,0.6-0.4,0.9-0.4c0.2,0,0.4,0.4,0.5,0.7C58.4,11.6,58.3,12.3,57.8,12.9"/>
	<path fill-rule="evenodd" clip-rule="evenodd" fill="#F3F3F3" d="M96.8,16.4c0.1,0.8,0.3,1.5,0.4,2.2c0,0.2,0,0.4,0.2,0.5
		c0.2,0.2,0.5,0.3,0.8,0.3c0.1,0,0.3-0.4,0.3-0.7c0-0.4-0.1-0.8-0.3-1.1c-0.3-0.6-0.1-1.1,0.4-1.6c0.4,1.3,0.7,2.5,0.5,3.8
		c-0.2,1.2-1,1.5-2,0.8c-0.1-0.1-0.2-0.1-0.3-0.2c-0.1,0.2-0.2,0.4-0.3,0.5c-0.3,0.5-0.8,0.7-1.2,0.5c-0.3-0.1-0.7-0.5-0.7-0.8
		c-0.1-0.7-0.1-1.4-0.2-2.1c-0.2,0.2-0.3,0.4-0.5,0.6c-0.1-0.5,0.4-1.3,1.2-2c0,0.7,0,1.4,0,2.1c0,0.4,0.2,0.8,0.7,0.8
		c0.5,0,0.7-0.4,0.7-0.9c0-0.4,0-0.9-0.2-1.2C96.1,17.3,96.3,16.9,96.8,16.4"/>
	<path fill-rule="evenodd" clip-rule="evenodd" fill="#F3F3F3" d="M36.4,11.1c0,0.8,0.1,1.5,0.1,2.2c0,0.4,0.3,0.7,0.7,0.6
		c0.3-0.1,0.6-0.4,0.6-0.7c0.1-0.5,0-0.9-0.1-1.4c-0.1-0.5-0.1-1,0.5-1.4c0.1,0.6,0.2,1.1,0.3,1.6c0.1,0.4,0.1,0.8,0.3,1
		c0.1,0.2,0.5,0.2,0.8,0.3c0.1-0.3,0.3-0.5,0.3-0.8c0-0.4-0.1-0.8-0.3-1.1c-0.2-0.6,0-1,0.4-1.5c0.5,1.3,0.7,2.6,0.5,3.9
		c-0.1,1-1,1.4-1.9,0.8c-0.1-0.1-0.2-0.2-0.4-0.3c-0.1,0.1-0.1,0.3-0.2,0.4c-0.3,0.6-0.8,0.8-1.4,0.7c-0.6-0.1-0.7-0.6-0.7-1.1
		c0-0.6,0-1.2,0-1.9c-0.2,0.3-0.4,0.5-0.6,0.8C35.3,12.2,35.9,11.7,36.4,11.1"/>
	<path fill-rule="evenodd" clip-rule="evenodd" fill="#F3F3F3" d="M71.6,15.8c-0.2,0.3-0.3,0.4-0.5,0.6c0-0.6,0.4-1.3,1.2-2.1
		c0,0.7,0,1.4,0,2.1c0,0.4,0.2,0.8,0.7,0.7c0.5,0,0.7-0.3,0.7-0.8c0-0.1,0-0.2,0-0.3c-0.1-0.4-0.1-0.7-0.2-1.1
		c-0.2-0.5-0.1-0.9,0.5-1.4c0.1,0.7,0.3,1.3,0.4,2c0.1,0.2,0,0.5,0.2,0.7c0.2,0.2,0.5,0.4,0.7,0.3c0.2-0.1,0.4-0.4,0.4-0.7
		c0-0.4-0.1-0.8-0.2-1.1c-0.3-0.6,0-1.1,0.3-1.5c0.5,0.9,0.7,2.9,0.6,3.8c-0.2,1-1.1,1.4-1.9,0.7c-0.1-0.1-0.2-0.2-0.3-0.3
		c-0.3,0.5-0.5,1.1-1.2,1.1c-0.6,0-0.9-0.2-1-0.8C71.6,17.2,71.6,16.5,71.6,15.8"/>
	<path fill-rule="evenodd" clip-rule="evenodd" fill="#F3F3F3" d="M9.9,26.2c0.6-0.5,1.3-1.2,1.9-1.9c0.2-0.2,0.3-0.5,0.3-0.9
		c-0.8,0.2-1.6,0.4-2.3,0.5c0-0.9,0.5-2.3,1.8-2.4c0.8-0.1,1.6-0.3,2.5-0.5C14,23.2,11.9,25.7,9.9,26.2"/>
	<path fill-rule="evenodd" clip-rule="evenodd" fill="#F3F3F3" d="M53.8,25c1.1-0.7,2.2-1.4,2.7-2.9c-0.9,0.2-1.7,0.4-2.5,0.6
		c0-1.3,0.7-2.2,2.1-2.5c0.6-0.1,1.2-0.2,1.7-0.3c0.1,0,0.3,0,0.4,0C58.5,21.7,56.1,24.5,53.8,25"/>
	<path fill-rule="evenodd" clip-rule="evenodd" fill="#F3F3F3" d="M118.1,40.9c-1,1.2-1.9,2.4-3,3.5c-1.1,1.1-2.6,1.5-4,1.7
		c1.2-0.9,2.6-1.7,3.8-2.7c1.4-1,2.5-2.3,3.3-3.8c0.2-0.3,0.5-0.8,0.8-0.8c0.5,0,0.6,0.5,0.8,0.9c0.1,0.5,0.4,1.1-0.1,1.5
		c-0.5,0.4-1,0-1.5-0.2C118.1,40.9,118.1,40.9,118.1,40.9 M118.3,40.1c0.4,0.1,0.8,0.3,1.2,0.4c0-0.1,0-0.1,0.1-0.2
		C119.3,40,119,39.7,118.3,40.1"/>
	<path fill-rule="evenodd" clip-rule="evenodd" fill="#F3F3F3" d="M66.5,39.9c1.3-0.9,2.6-1.8,3.9-2.8c1.3-1,2.3-2.2,3-3.6
		c0,0,0-0.1,0.1-0.1c0.3-0.3,0.6-0.5,0.8-0.8c0.3,0.3,0.6,0.6,0.7,0.9c0.2,0.5,0.4,1.1-0.1,1.5c-0.5,0.4-1,0-1.5-0.3
		c0,0-0.1,0-0.2-0.1C71.7,37.4,69.7,39.6,66.5,39.9 M73.6,34c0.4,0.1,0.8,0.3,1.2,0.4C74.5,33.9,74.2,33.6,73.6,34"/>
	<path fill-rule="evenodd" clip-rule="evenodd" fill="#F3F3F3" d="M206.3,24c0,0.4,0,0.8,0,1.1c0,0.1,0.1,0.3,0.3,0.4
		c1.4,0.8,1.5,1.8,0.9,3.4c-0.3,0.7-0.9,1-1.7,0.8c-0.6-0.1-1-0.6-1-1.3c0-0.6,0.1-1.2,0.2-1.7c0.3-0.9,0.7-1.8,1.1-2.7
		C206.2,24,206.3,24,206.3,24 M207.5,27.8c-0.5-0.3-0.9-0.6-1.3-0.8c-0.6-0.3-0.7,0.1-0.9,0.5c-0.2,0.4,0,0.8,0.5,1
		C206.2,28.6,206.9,28.4,207.5,27.8"/>
	<path fill-rule="evenodd" clip-rule="evenodd" fill="#F3F3F3" d="M17.9,12.5c0,0.4,0,0.7,0.1,1.1c0,0.1,0.1,0.3,0.2,0.4
		c1.3,0.8,1.4,1.6,1.1,3c-0.2,0.9-0.8,1.4-1.6,1.2c-0.9-0.1-1.3-0.7-1.3-1.7C16.5,15.1,17.2,13.8,17.9,12.5 M19.2,16.3
		c-0.5-0.3-0.9-0.6-1.4-0.9c-0.5-0.2-0.8-0.1-1,0.5c-0.2,0.4,0.1,0.7,0.5,0.9C18,17.1,18.6,16.9,19.2,16.3"/>
	<path fill-rule="evenodd" clip-rule="evenodd" fill="#F3F3F3" d="M55.8,27.6c0.8,0.4,1.6,0.8,2.4,1.3c-0.4,0.8-0.7,1.5-1.1,2.3
		c-0.8-0.4-1.6-0.8-2.5-1.3C55,29.2,55.4,28.4,55.8,27.6"/>
	<path fill-rule="evenodd" clip-rule="evenodd" fill="#F3F3F3" d="M214.7,41.8c-0.4,0.8-0.7,1.5-1.1,2.3c-0.8-0.4-1.6-0.8-2.4-1.3
		c0.4-0.8,0.7-1.5,1.1-2.3C213.1,41,213.9,41.4,214.7,41.8"/>
	<path fill-rule="evenodd" clip-rule="evenodd" fill="#F3F3F3" d="M60.9,44.6c-0.1,0.3-0.1,0.7-0.2,1c-0.2,0.7-0.8,1-1.6,0.9
		c-0.6-0.1-1-0.5-0.9-1.2c0-1.7,0.9-3.1,2-4.4c-0.2,0.6-0.5,1.2-0.7,1.8c-0.2,0.5-0.3,1-0.3,1.4c0,0.3,0.2,0.7,0.5,0.9
		c0.3,0.2,0.8,0.1,1-0.3c0-0.1,0.1-0.1,0.1-0.2C60.8,44.5,60.9,44.6,60.9,44.6"/>
	<path fill-rule="evenodd" clip-rule="evenodd" fill="#F3F3F3" d="M48.1,34.7c-0.2,0.5-0.4,1-0.6,1.5c-0.1,0.4-0.3,0.9-0.4,1.4
		c-0.1,0.5-0.2,1,0.4,1.3c0.5,0.3,0.9-0.1,1.2-0.5c0.2,1.3-0.5,2.1-1.7,1.9c-0.6-0.1-1-0.4-0.9-1c0.1-0.8,0.1-1.5,0.4-2.2
		c0.4-0.9,0.9-1.7,1.4-2.5C48,34.6,48,34.7,48.1,34.7"/>
	<path fill-rule="evenodd" clip-rule="evenodd" fill="#F3F3F3" d="M102.2,20.9c-0.1-1-0.1-2.2-0.3-3.4c-0.2-0.8-0.6-1.5-1-2.1
		c-0.3-0.4-0.4-0.8-0.3-1.2c0.1-0.3,0.1-0.6,0.1-0.9C102.8,14.8,103.4,18.3,102.2,20.9"/>
	<path fill-rule="evenodd" clip-rule="evenodd" fill="#F3F3F3" d="M61.5,8.7c2,1.9,2.5,4.9,1.3,8c0-0.8,0.1-1.4,0.1-2.1
		c0-1.5-0.4-2.8-1.4-4c-0.1-0.1-0.2-0.2-0.2-0.3C61.4,9.8,61.5,9.3,61.5,8.7"/>
</g>
</svg>
