<svg xmlns="http://www.w3.org/2000/svg" viewBox="0 0 274.65 321.44"><defs><style>.cls-1{fill:#6d6e71;}.cls-2{fill:#00aeef;}.cls-3{fill:#bcbec0;}.cls-4,.cls-5,.cls-6,.cls-7{fill:none;stroke-miterlimit:10;stroke-width:0.5px;}.cls-4{stroke:#bcbec0;}.cls-5{stroke:#dcddde;}.cls-6{stroke:#e6e7e8;}.cls-7{stroke:#ccecfc;}.cls-8{fill:#fff;}.cls-9{fill:#ccecfc;}.cls-10{fill:#00c0f3;}</style></defs><title>Asset 3</title><g id="Layer_2" data-name="Layer 2"><g id="Layer_1-2" data-name="Layer 1"><path class="cls-1" d="M21.95,320.94v-35.8h1v35.8Z"/><path class="cls-1" d="M52.59,320.94h-1V306.35q0-5.76-1.59-8.38a5.54,5.54,0,0,0-5.12-2.63,10.74,10.74,0,0,0-3.76.68,12.84,12.84,0,0,0-3.41,1.89A13,13,0,0,0,35,300.79a12.08,12.08,0,0,0-1.72,3.59v16.56h-1v-26.2h1v6.77a12.73,12.73,0,0,1,2.07-2.9,13.71,13.71,0,0,1,2.78-2.27,14.08,14.08,0,0,1,3.23-1.46,11.69,11.69,0,0,1,3.48-.53,6.51,6.51,0,0,1,5.91,2.9q1.87,2.91,1.87,9.11Z"/><path class="cls-1" d="M70.77,319.73a7.88,7.88,0,0,1-1.39.76,13.62,13.62,0,0,1-1.49.48,7.58,7.58,0,0,1-1.92.23,4.91,4.91,0,0,1-3.18-1.11,3.6,3.6,0,0,1-1.36-2.93V295.75H57.64v-1h3.79V285.6h1v9.14h6.31v1H62.44v21.41a2.58,2.58,0,0,0,1.11,2.25,4.12,4.12,0,0,0,2.42.78,7.07,7.07,0,0,0,1.62-.18,10.13,10.13,0,0,0,1.34-.4,6,6,0,0,0,.91-.43,3.37,3.37,0,0,0,.38-.25Z"/><path class="cls-1" d="M85.46,321.44a11.26,11.26,0,0,1-4.87-1.09,12.66,12.66,0,0,1-4-3A14.64,14.64,0,0,1,73.85,313a14.55,14.55,0,0,1-.05-10.53,13.39,13.39,0,0,1,2.65-4.24,12.47,12.47,0,0,1,3.94-2.85,11.4,11.4,0,0,1,4.82-1,11.62,11.62,0,0,1,4.92,1.06,12.65,12.65,0,0,1,4,2.88,14.09,14.09,0,0,1,3.71,9.59v.56h-24A14.22,14.22,0,0,0,75,313.14,13.15,13.15,0,0,0,77.59,317a11.83,11.83,0,0,0,3.61,2.55,10.27,10.27,0,0,0,4.32.93,10.79,10.79,0,0,0,3-.4,11.45,11.45,0,0,0,2.7-1.14,9.93,9.93,0,0,0,2.22-1.74,8.17,8.17,0,0,0,1.52-2.22l1,.25a8.41,8.41,0,0,1-1.59,2.5,10.63,10.63,0,0,1-2.42,2,12.88,12.88,0,0,1-3,1.31A12,12,0,0,1,85.46,321.44Zm11.31-14a14.2,14.2,0,0,0-1.11-4.85,12.56,12.56,0,0,0-2.5-3.81,11.46,11.46,0,0,0-3.56-2.5,10.83,10.83,0,0,0-8.68,0,11.21,11.21,0,0,0-3.56,2.53,12.21,12.21,0,0,0-2.45,3.84,14.9,14.9,0,0,0-1.06,4.8Z"/><path class="cls-1" d="M104.09,284.08h1v33a3,3,0,0,0,.91,2.32,3.38,3.38,0,0,0,2.42.86,8.68,8.68,0,0,0,1.34-.13,10.44,10.44,0,0,0,1.44-.33l.35.81a10.75,10.75,0,0,1-1.74.43,10.63,10.63,0,0,1-1.74.18,3.84,3.84,0,0,1-2.88-1.14,4.1,4.1,0,0,1-1.11-3Z"/><path class="cls-1" d="M115.45,284.08h1v33a3,3,0,0,0,.91,2.32,3.38,3.38,0,0,0,2.42.86,8.68,8.68,0,0,0,1.34-.13,10.44,10.44,0,0,0,1.44-.33l.35.81a10.75,10.75,0,0,1-1.74.43,10.63,10.63,0,0,1-1.74.18,3.84,3.84,0,0,1-2.88-1.14,4.1,4.1,0,0,1-1.11-3Z"/><path class="cls-1" d="M126.56,288v-3.89h1V288Zm0,33v-26.2h1v26.2Z"/><path class="cls-1" d="M134.13,307.71a14.34,14.34,0,0,1,1-5.28,12.67,12.67,0,0,1,6.69-7.07,12,12,0,0,1,5-1,11.43,11.43,0,0,1,5.93,1.54,9.74,9.74,0,0,1,3.91,4.32l-1,.35a9.61,9.61,0,0,0-3.71-3.81,10.33,10.33,0,0,0-5.27-1.39,10.55,10.55,0,0,0-4.49,1,11.68,11.68,0,0,0-3.63,2.62,12.09,12.09,0,0,0-2.45,3.94,13.71,13.71,0,0,0,0,9.75,13,13,0,0,0,2.5,4.06,12.13,12.13,0,0,0,3.66,2.75,10,10,0,0,0,4.44,1,10.64,10.64,0,0,0,3.05-.46,12.59,12.59,0,0,0,2.83-1.21,9.11,9.11,0,0,0,2.2-1.77,5.26,5.26,0,0,0,1.21-2.07l1,.3a7.42,7.42,0,0,1-1.44,2.45,9.76,9.76,0,0,1-2.35,2,12.37,12.37,0,0,1-3,1.31,12,12,0,0,1-3.36.48,11.43,11.43,0,0,1-4.9-1.09,12.78,12.78,0,0,1-4-3,14.29,14.29,0,0,1-2.73-4.37A14,14,0,0,1,134.13,307.71Z"/><path class="cls-1" d="M183.26,286.1H169.52v34.84h-1V286.1H154.78v-1h28.47Z"/><path class="cls-1" d="M193.86,295.75a10.36,10.36,0,0,0-6.44,2.42,11.89,11.89,0,0,0-3.76,6.21v16.56h-1v-26.2h1v6.77a12.94,12.94,0,0,1,3.66-4.57,9.71,9.71,0,0,1,4.87-2.09l.93-.08.73,0Z"/><path class="cls-2" d="M208.15,321.44a11.1,11.1,0,0,1-4.85-1.09,12.81,12.81,0,0,1-4-2.93,14.15,14.15,0,0,1,0-19.06,13,13,0,0,1,4-3,11.14,11.14,0,0,1,9.59,0,12.66,12.66,0,0,1,4,3,14.76,14.76,0,0,1,2.7,4.32,13.6,13.6,0,0,1,1,5.23,14.19,14.19,0,0,1-3.66,9.52,12.87,12.87,0,0,1-4,2.93A11.09,11.09,0,0,1,208.15,321.44ZM196.69,308a12.81,12.81,0,0,0,.91,4.8,13,13,0,0,0,2.45,4,11.57,11.57,0,0,0,3.61,2.68,10.21,10.21,0,0,0,4.45,1,10,10,0,0,0,4.42-1,12.26,12.26,0,0,0,3.68-2.73,13.12,13.12,0,0,0,2.5-13.63,13,13,0,0,0-2.47-4,12,12,0,0,0-3.66-2.73,10.18,10.18,0,0,0-8.84,0,11.75,11.75,0,0,0-3.66,2.75,13.3,13.3,0,0,0-2.47,4A13.14,13.14,0,0,0,196.69,308Z"/><path class="cls-1" d="M247.53,320.94h-1V306.35q0-5.76-1.59-8.38a5.54,5.54,0,0,0-5.12-2.63A10.72,10.72,0,0,0,236,296a12.85,12.85,0,0,0-3.41,1.89,13,13,0,0,0-2.72,2.88,12.09,12.09,0,0,0-1.72,3.59v16.56h-1v-26.2h1v6.77a12.78,12.78,0,0,1,2.07-2.9,13.76,13.76,0,0,1,2.78-2.27,14.11,14.11,0,0,1,3.23-1.46,11.7,11.7,0,0,1,3.49-.53,6.51,6.51,0,0,1,5.91,2.9q1.87,2.91,1.87,9.11Z"/><path class="cls-3" d="M262.49,284.38h-4.08v10.36h-.3V284.38H254v-.3h8.46Z"/><path class="cls-3" d="M274.35,294.74v-10l-4.73,7.89h-.24l-4.73-7.89v10h-.3V284.08h.24l4.91,8.19,4.91-8.19h.24v10.66Z"/><circle class="cls-4" cx="134.74" cy="134.74" r="93.84"/><circle class="cls-5" cx="134.74" cy="134.74" r="116.47"/><circle class="cls-6" cx="134.74" cy="134.74" r="134.49"/><ellipse class="cls-7" cx="137.66" cy="126.74" rx="66.84" ry="38.27" transform="translate(-44.93 85.81) rotate(-30)"/><path class="cls-1" d="M144.36,125.94H129.44v35.21h-1.1V125.94H113.44v-1h30.92Z"/><path class="cls-1" d="M156.42,135.68a11.75,11.75,0,0,0-7,2.45,11.92,11.92,0,0,0-4.08,6.28v16.74h-1.1V134.66h1.1v6.84a13.26,13.26,0,0,1,4-4.62,10.94,10.94,0,0,1,5.29-2.12l1-.08.79,0Z"/><path class="cls-1" d="M215.79,161.14h-1.1V146.4q0-5.82-1.73-8.47t-5.56-2.65a12.47,12.47,0,0,0-4.08.69,14.2,14.2,0,0,0-3.7,1.91,13.63,13.63,0,0,0-3,2.91,11.92,11.92,0,0,0-1.86,3.62v16.74h-1.1V134.66h1.1v6.84a12.93,12.93,0,0,1,2.25-2.93,14.71,14.71,0,0,1,3-2.3,15.77,15.77,0,0,1,3.51-1.48,13.61,13.61,0,0,1,3.78-.54q4.39,0,6.41,2.93t2,9.21Z"/><ellipse class="cls-5" cx="114.66" cy="142.74" rx="38.27" ry="66.84" transform="matrix(0.5, -0.87, 0.87, 0.5, -66.28, 170.67)"/><circle class="cls-8" cx="171.92" cy="148.92" r="13.78"/><circle class="cls-9" cx="171.92" cy="148.92" r="12.11"/><circle class="cls-8" cx="110.95" cy="99.88" r="9.48"/><circle class="cls-10" cx="110.95" cy="99.88" r="7.51"/></g></g></svg>