<?xml version="1.0" encoding="iso-8859-1"?><!-- Generator: Adobe Illustrator 16.0.0, SVG Export Plug-In . SVG Version: 6.00 Build 0) --><!DOCTYPE svg PUBLIC "-//W3C//DTD SVG 1.1//EN" "http://www.w3.org/Graphics/SVG/1.1/DTD/svg11.dtd"><svg version="1.1" id="Layer_1" xmlns="http://www.w3.org/2000/svg" xmlns:xlink="http://www.w3.org/1999/xlink" x="0px" y="0px" width="495.555px" height="140.703px" viewBox="3.895 29.322 495.555 140.703" style="enable-background:new 3.895 29.322 495.555 140.703;" xml:space="preserve"><g><path style="fill:#F39000;" d="M126.836,63.443c-0.149,0-0.304-0.012-0.46-0.035l-46.042-6.97c-2.31-0.351-4.188-2.708-4.188-5.256	V32.644c0-1.987,1.126-3.322,2.804-3.322c0.358,0,0.733,0.062,1.111,0.188l46.23,15.197c1.974,0.646,3.642,3.184,3.642,5.544v9.511	C129.931,61.862,128.6,63.443,126.836,63.443"/><path style="fill:#F39000;" d="M79.928,93.186c-2.121,0-3.784-1.835-3.784-4.18V70.471c0-2.347,1.665-4.184,3.792-4.184	c0.104,0,0.214,0.003,0.325,0.013l46.005,4.079c2.021,0.182,3.665,2.247,3.665,4.605v9.505c0,2.36-1.645,4.425-3.663,4.604	L80.26,93.17C80.15,93.181,80.037,93.186,79.928,93.186"/><path style="fill:#F39000;" d="M78.951,130.15c-1.68,0-2.807-1.334-2.807-3.32v-18.536c0-2.552,1.88-4.91,4.188-5.254l46.044-6.976	c0.156-0.023,0.31-0.035,0.457-0.035c1.767,0,3.097,1.582,3.097,3.683v9.509c0,2.396-1.633,4.883-3.641,5.545l-46.231,15.199	C79.681,130.09,79.31,130.15,78.951,130.15"/><path style="fill:#0B314C;" d="M7.052,69.578c-1.829,0-3.156-1.553-3.156-3.69v-1.549c0-2.551,1.776-5.559,3.883-6.563	l58.086-27.771c0.466-0.223,0.917-0.336,1.338-0.336c1.346,0,2.217,1.17,2.217,2.979v18.534c0,2.56-1.829,5.049-4.076,5.547	L7.812,69.49C7.557,69.549,7.302,69.578,7.052,69.578"/><path style="fill:#0B314C;" d="M65.872,93.038c-0.148,0-0.301-0.011-0.453-0.029l-57.421-7.36	c-2.263-0.283-4.102-2.587-4.102-5.133v-1.557c0-2.543,1.839-4.846,4.102-5.134l57.421-7.353c0.155-0.021,0.308-0.03,0.459-0.03	c2.021,0,3.543,1.732,3.543,4.03v18.536c0,1.122-0.372,2.154-1.041,2.898C67.723,92.636,66.833,93.038,65.872,93.038"/><path style="fill:#0B314C;" d="M67.201,129.807c-0.421,0-0.871-0.115-1.336-0.337L7.781,101.699	c-2.105-1.006-3.885-4.008-3.885-6.559v-1.558c0-2.134,1.327-3.684,3.151-3.684c0.25,0,0.508,0.029,0.765,0.086l57.531,12.758	c2.246,0.503,4.078,2.992,4.078,5.552v18.538c0,0.92-0.224,1.686-0.646,2.217C68.381,129.544,67.837,129.807,67.201,129.807"/><rect x="167.985" y="48.229" style="fill:#0B314C;" width="12.366" height="62.226"/><path style="fill:#0B314C;" d="M200.166,93.412c0.872,6.262,4.043,9.354,10.305,9.354c4.994,0,8.799-1.109,11.099-2.3l2.775,7.689	c-3.33,1.665-8.086,3.091-15.3,3.091c-13.08,0-20.61-8.641-20.61-22.274c0-13.396,6.977-22.038,19.264-22.038	c12.365,0,18.629,8.403,18.073,22.83L200.166,93.412z M207.222,74.229c-5.073,0-8.243,4.36-7.848,13.159l14.903-2.22	C214.278,77.558,211.74,74.229,207.222,74.229"/><path style="fill:#0B314C;" d="M249.161,111.246c-12.366,0-18.708-4.596-18.708-13.475c0-11.018,11.019-14.269,23.859-15.456	v-1.983c0-4.439-3.011-5.708-7.528-5.708c-4.123,0-8.323,1.348-11.098,2.616l-2.696-7.056c3.013-1.268,8.562-3.25,16.092-3.25	c9.671,0,16.804,4.043,16.804,15.617v25.524C262.319,109.979,256.53,111.246,249.161,111.246 M254.311,88.021	c-7.451,0.713-12.285,2.457-12.285,9.274c0,4.994,2.853,7.135,7.768,7.135c1.824,0,3.41-0.317,4.518-0.871V88.021L254.311,88.021z"	/><path style="fill:#0B314C;" d="M285.225,111.168c-5.234,0-9.911-1.348-12.523-3.091l3.169-7.849	c1.585,1.27,4.518,2.457,7.609,2.457c3.172,0,5.312-1.981,5.312-4.677c0-2.854-1.508-4.439-5.474-6.025	c-7.841-3.091-9.587-7.451-9.587-11.891c0-7.292,5.707-13.158,14.27-13.158c5.312,0,8.955,1.031,12.284,3.091l-3.012,7.056	c-1.271-1.032-3.728-2.219-6.499-2.219c-3.251,0-4.915,1.98-4.915,4.438c0,2.852,2.142,4.44,5.468,5.865	c8.243,3.489,10.147,7.531,10.147,12.525C301.474,105.145,295.369,111.168,285.225,111.168"/><path style="fill:#0B314C;" d="M319.307,93.412c0.872,6.262,4.041,9.354,10.303,9.354c4.995,0,8.8-1.109,11.1-2.3l2.772,7.689	c-3.328,1.665-8.083,3.091-15.3,3.091c-13.076,0-20.606-8.641-20.606-22.274c0-13.396,6.974-22.038,19.258-22.038	c12.367,0,18.632,8.403,18.075,22.83L319.307,93.412z M326.36,74.229c-5.074,0-8.243,4.36-7.847,13.159l14.902-2.22	C333.416,77.558,330.879,74.229,326.36,74.229"/><path style="fill:#0B314C;" d="M397.464,110.454h-11.415l-6.103-23.146c-0.716-2.854-0.873-5.865-0.873-5.865h-0.078	c0,0-0.159,3.011-0.948,5.865l-6.264,23.146h-11.338l-11.731-42.725h12.287l5.154,24.651c0.709,3.489,0.79,6.185,0.79,6.185h0.16	c0,0,0.079-2.615,1.033-6.185l6.496-24.651h10.145l6.105,24.651c0.714,3.013,1.03,6.185,1.03,6.185h0.16	c0,0,0.076-3.171,0.793-6.262l5.466-24.574h10.859L397.464,110.454z"/><path style="fill:#0B314C;" d="M424.653,93.412c0.87,6.262,4.046,9.354,10.306,9.354c4.992,0,8.802-1.109,11.098-2.3l2.775,7.689	c-3.328,1.665-8.086,3.091-15.3,3.091c-13.08,0-20.61-8.641-20.61-22.274c0-13.396,6.975-22.038,19.262-22.038	c12.367,0,18.628,8.403,18.073,22.83L424.653,93.412z M431.707,74.229c-5.073,0-8.239,4.36-7.847,13.159l14.902-2.22	C438.763,77.558,436.224,74.229,431.707,74.229"/><path style="fill:#0B314C;" d="M473.558,111.246c-7.372,0-12.604-1.346-15.458-3.169V48.229h12.365V68.76	c1.981-0.951,4.2-1.586,7.927-1.586c10.068,0,17.041,8.085,17.041,20.689C495.434,102.845,487.59,111.246,473.558,111.246 M474.906,74.229c-1.981,0-3.252,0.318-4.439,0.951v27.982c0.951,0.396,2.3,0.635,3.807,0.635c6.261,0,8.958-5.549,8.958-15.141	C483.229,80.333,481.484,74.229,474.906,74.229"/><path style="fill:#0B314C;" d="M452.822,164.082c-18.098-0.441-34.513-0.663-50.542-0.663c-84.614,0-109.854,4.323-110.11,4.385	c-0.401,0.099-0.744,0.347-0.962,0.701c-0.217,0.356-0.279-0.114-0.185,0.287c0.17,0.704-0.098,1.19,0.624,1.19	c0.125,0,0.25-0.015,0.364-0.043c0.253-0.062,26.273-4.302,110.149-4.302c16.035,0,33.354,0.225,51.495,0.667	c0.848,0,0.663,0.208,0.687-0.63C454.361,164.818,453.681,164.102,452.822,164.082"/><path style="fill:#0B314C;" d="M291.647,170.025c-0.553,0-0.571-0.283-0.597-0.676c-0.013-0.164-0.023-0.347-0.071-0.55	c-0.019-0.067-0.029-0.11-0.037-0.135c-0.011-0.041-0.015-0.06,0-0.076l0.015-0.019h0.036l0.023,0.017	c0.007,0.008,0.019,0.015,0.027,0.015c0.014,0,0.06-0.009,0.122-0.119c0.226-0.364,0.574-0.619,0.991-0.723	c0.182-0.043,24.908-4.385,110.118-4.385c15.66,0,32.194,0.217,50.546,0.661c0.882,0.024,1.583,0.757,1.562,1.639	c-0.004,0.149-0.001,0.267,0.001,0.357c0.005,0.165,0.007,0.249-0.042,0.297c-0.035,0.037-0.089,0.042-0.14,0.042	c-0.039,0-0.086-0.002-0.146-0.007c-0.098-0.007-0.229-0.017-0.403-0.017c-18.112-0.441-35.438-0.668-51.492-0.668	c-83.934,0-109.963,4.258-110.141,4.301C291.903,170.013,291.778,170.025,291.647,170.025 M291.044,168.691	c0.008,0.023,0.017,0.053,0.025,0.091c0.048,0.208,0.062,0.396,0.071,0.561c0.025,0.396,0.039,0.595,0.51,0.595	c0.12,0,0.241-0.014,0.352-0.041c0.181-0.041,26.221-4.303,110.162-4.303c16.055,0,33.381,0.227,51.494,0.667	c0.176,0,0.311,0.009,0.408,0.015c0.122,0.011,0.199,0.013,0.22-0.008c0.021-0.021,0.021-0.104,0.016-0.231	c-0.002-0.093-0.005-0.21-0.002-0.359c0.021-0.836-0.642-1.528-1.476-1.551c-18.352-0.446-34.884-0.663-50.543-0.663	c-85.202,0-109.917,4.342-110.097,4.387c-0.395,0.095-0.727,0.338-0.937,0.682c-0.067,0.109-0.132,0.162-0.2,0.162h-0.004V168.691z	"/><path style="fill:#0B314C;" d="M262.333,143.691c0-0.12,0.176-0.473,0.531-1.125c0.416-0.649,0.593-1.062,0.593-1.241	c-0.829,0-3.019,2.247-6.628,6.743c-3.606,4.438-5.618,6.686-6.151,6.686c-0.709,0-1.717-0.65-1.717-1.361	c0,0.062,0.533-0.826,1.54-2.541c2.067-3.611,3.135-7.162,3.135-10.651c0-0.648-0.179-2.249-0.179-2.897	c0-0.415,0.354-0.769,1.006-1.007c1.006,0.474,1.536,1.717,1.536,3.729c0,2.306-0.827,5.205-2.425,8.813l1.48-1.894	c1.064-1.362,1.597-1.952,1.597-1.896c1.422-1.715,2.841-3.371,4.319-5.026c2.365-2.604,4.021-3.904,4.908-3.904	c0.534,0,1.422,1.184,1.422,1.832c0,0.535-0.888,2.604-2.662,6.215c-0.236,0.532-0.591,0.768-1.124,0.768	C262.747,144.936,262.333,144.52,262.333,143.691"/><path style="fill:#0B314C;" d="M250.679,154.844c-0.757,0-1.723-0.646-1.801-1.357h-0.004l-0.001-0.062v-0.027h0.087l-0.055-0.064	c0.103-0.107,1.168-1.927,1.519-2.523c2.072-3.615,3.121-7.183,3.121-10.604c0-0.32-0.044-0.89-0.087-1.442	c-0.045-0.554-0.09-1.127-0.09-1.455c0-0.453,0.379-0.841,1.063-1.09l0.036-0.015l0.032,0.017c1.054,0.497,1.589,1.777,1.589,3.809	c0,2.125-0.703,4.816-2.154,8.209l1.049-1.338c0.874-1.118,1.412-1.756,1.603-1.902c1.463-1.768,2.876-3.412,4.316-5.026	c2.374-2.61,4.05-3.936,4.976-3.936c0.607,0,1.511,1.261,1.511,1.922c0,0.553-0.873,2.598-2.67,6.253	c-0.248,0.559-0.633,0.816-1.205,0.816c-0.833,0-1.272-0.459-1.272-1.33c0-0.131,0.134-0.414,0.543-1.168	c0.405-0.629,0.527-0.947,0.567-1.099c-0.86,0.181-3.028,2.435-6.453,6.699C252.968,152.96,251.223,154.844,250.679,154.844 M249.052,153.425c0.026,0.632,0.941,1.24,1.626,1.24c0.596,0,3.562-3.554,6.081-6.651c3.714-4.623,5.84-6.775,6.695-6.775h0.09	v0.088c0,0.22-0.216,0.677-0.606,1.289c-0.167,0.305-0.518,0.951-0.518,1.076c0,0.766,0.366,1.154,1.094,1.154	c0.503,0,0.823-0.222,1.045-0.718c1.761-3.581,2.652-5.659,2.652-6.176c0-0.621-0.857-1.743-1.334-1.743	c-0.601,0-1.93,0.672-4.844,3.874c-1.438,1.614-2.85,3.26-4.312,5.026l-0.159,0.188v-0.048c-0.204,0.221-0.661,0.758-1.438,1.75	l-1.92,2.459l0.291-0.655c1.626-3.675,2.417-6.547,2.417-8.779c0-1.934-0.488-3.153-1.453-3.629	c-0.589,0.221-0.914,0.545-0.914,0.907c0,0.319,0.048,0.892,0.091,1.442c0.044,0.554,0.09,1.128,0.09,1.456	c0,3.455-1.061,7.052-3.146,10.694C249.496,152.741,249.173,153.273,249.052,153.425"/><path style="fill:#0B314C;" d="M281.38,151.087c-2.78,1.599-5.796,2.427-8.991,2.427c-0.475,0-1.123-0.296-2.011-0.828	c-1.243-0.889-1.894-2.131-1.894-3.729c0-1.952,1.124-4.496,3.429-7.632c2.31-3.134,4.261-4.731,5.799-4.731	c2.364,0,4.32,1.299,4.32,3.607c0,1.537-1.186,3.076-3.551,4.674c-2.19,1.479-4.143,2.189-5.74,2.189h-0.532	c-0.177-0.061-0.354-0.061-0.471-0.061c-0.179,0-0.356,0.354-0.594,1.004c-0.234,0.653-0.355,1.125-0.355,1.422	c0,0.827,0.415,1.361,1.243,1.598c0.296,0.06,1.065,0.117,2.189,0.117c0.413,0,1.183-0.178,2.307-0.529	c1.124-0.417,1.833-0.71,2.249-0.949c1.537-0.885,2.427-1.357,2.602-1.357c0.653,0,1.36,0.887,1.36,1.598	C282.74,150.141,282.267,150.555,281.38,151.087 M278.481,139.077c-0.651,0-1.657,0.709-3.018,2.188	c-1.359,1.479-2.128,2.543-2.307,3.194h1.063c0.649,0,1.716-0.593,3.312-1.774c1.598-1.183,2.366-2.07,2.366-2.604	C279.901,139.609,279.014,139.077,278.481,139.077"/><path style="fill:#0B314C;" d="M272.388,153.604c-0.458,0-1.074-0.254-2.059-0.843c-1.286-0.918-1.936-2.196-1.936-3.805	c0-1.99,1.161-4.575,3.448-7.685c2.328-3.164,4.303-4.77,5.868-4.77c2.637,0,4.409,1.484,4.409,3.697	c0,1.564-1.177,3.117-3.59,4.747c-2.135,1.44-4.136,2.204-5.789,2.204l-0.56-0.004c-0.164-0.057-0.334-0.057-0.444-0.057	c-0.167,0-0.425,0.712-0.511,0.947c-0.229,0.637-0.351,1.104-0.351,1.389c0,0.792,0.387,1.285,1.18,1.514	c0.263,0.051,0.992,0.113,2.165,0.113c0.402,0,1.171-0.178,2.28-0.527c1.145-0.422,1.835-0.711,2.231-0.939	c2.092-1.206,2.508-1.372,2.645-1.372c0.733,0,1.449,0.966,1.449,1.687c0,0.276-0.471,0.701-1.404,1.259	C278.608,152.781,275.569,153.604,272.388,153.604 M277.712,136.682c-1.507,0-3.433,1.581-5.726,4.697	c-2.266,3.077-3.414,5.627-3.414,7.578c0,1.546,0.623,2.775,1.857,3.657c0.934,0.559,1.538,0.811,1.958,0.811	c3.148,0,6.158-0.812,8.947-2.416c1.223-0.729,1.317-1.03,1.317-1.104c0-0.691-0.69-1.509-1.273-1.509	c-0.146,0-1.005,0.453-2.557,1.349c-0.406,0.229-1.102,0.524-2.263,0.951c-1.13,0.357-1.915,0.538-2.336,0.538	c-1.188,0-1.933-0.065-2.209-0.12c-0.871-0.249-1.312-0.815-1.312-1.685c0-0.309,0.118-0.783,0.359-1.449	c0.291-0.797,0.461-1.064,0.676-1.064c0.12,0,0.301,0,0.487,0.061h0.518c1.617,0,3.583-0.752,5.69-2.175	c2.359-1.594,3.51-3.101,3.51-4.6C281.943,137.771,279.817,136.682,277.712,136.682 M274.222,144.55h-1.182l0.029-0.112	c0.184-0.672,0.946-1.728,2.328-3.229c1.352-1.473,2.388-2.218,3.083-2.218c0.554,0,1.509,0.54,1.509,1.093	c0,0.74-1.307,1.861-2.403,2.675C275.916,143.997,274.877,144.55,274.222,144.55 M273.278,144.371h0.946	c0.604,0,1.642-0.559,3.259-1.757c2.026-1.502,2.33-2.23,2.33-2.531c0-0.406-0.826-0.917-1.33-0.917	c-0.441,0-1.312,0.374-2.952,2.159C274.263,142.705,273.505,143.729,273.278,144.371"/><path style="fill:#0B314C;" d="M297.471,124.583L287,150.852c0.235,0,0.829-0.297,1.064-0.297c0.474,0,0.71,0.178,0.71,0.532	c0,0.118,0,0.237-0.062,0.354c0,1.184-1.479,2.485-2.661,2.485c-1.005,0-1.536-0.709-1.536-2.131c0-1.599,0.829-4.317,2.424-8.165	c1.361-3.312,3.192-7.63,5.505-12.896l1.773-4.144c0.944-2.188,1.537-3.312,1.833-3.368c0.297-0.062,0.53-0.119,0.711-0.119	c0.413,0,0.648,0.177,0.709,0.53L297.471,124.583L297.471,124.583z"/><path style="fill:#0B314C;" d="M286.052,154.016c-0.741,0-1.626-0.384-1.626-2.219c0-1.574,0.796-4.257,2.432-8.195	c1.469-3.574,3.371-8.037,5.504-12.899l1.774-4.142c1.267-2.929,1.659-3.377,1.898-3.425l0.169-0.034	c0.228-0.048,0.406-0.084,0.559-0.084c0.573,0,0.752,0.328,0.798,0.605v0.979l-0.005,0.019l-10.417,26.12	c0.108-0.027,0.24-0.075,0.365-0.119c0.218-0.08,0.427-0.153,0.56-0.153c0.66,0,0.8,0.339,0.8,0.621c0,0.117,0,0.245-0.06,0.375	C288.786,152.66,287.329,154.016,286.052,154.016 M296.761,123.193c-0.135,0-0.315,0.037-0.521,0.08l-0.171,0.035	c-0.244,0.049-0.838,1.166-1.771,3.32l-1.773,4.141c-2.13,4.865-4.033,9.323-5.501,12.896c-1.628,3.919-2.421,6.577-2.421,8.13	c0,1.354,0.486,2.042,1.45,2.042c1.179,0,2.574-1.3,2.574-2.396l0.008-0.038c0.05-0.102,0.05-0.205,0.05-0.316	c0-0.188-0.064-0.444-0.621-0.444c-0.104,0-0.313,0.075-0.502,0.145c-0.219,0.077-0.428,0.154-0.562,0.154h-0.131l0.049-0.123	l10.464-26.25v-0.933C297.329,123.339,297.135,123.193,296.761,123.193"/><path style="fill:#0B314C;" d="M299.601,141.325c0.06,0.948-0.298,2.307-1.065,4.142c-0.414,0.889-1.006,2.248-1.657,4.082	c-0.177,1.066-0.591,2.485-1.122,4.26c-0.18,0.355-0.476,0.532-0.948,0.532c-0.768,0.06-1.185-0.413-1.239-1.422	c-0.059-0.944,1.183-4.733,3.727-11.299c0.178-0.412,0.473-0.771,0.889-1.183c0.413,0,0.828,0.236,1.358,0.709	C299.601,141.208,299.601,141.268,299.601,141.325 M301.315,136.118c-0.356,0.889-0.709,1.36-1.125,1.421	c-0.532,0-1.479-1.005-1.536-1.655c-0.062-1.007,0.708-3.019,1.595-3.019c0.947-0.061,1.479,0.412,1.537,1.357	C301.788,134.699,301.611,135.352,301.315,136.118"/><path style="fill:#0B314C;" d="M294.684,154.436c-0.742,0-1.149-0.508-1.206-1.51c-0.062-0.973,1.191-4.788,3.732-11.338	c0.162-0.383,0.425-0.734,0.905-1.214l0.027-0.024h0.036c0.415,0,0.843,0.219,1.421,0.731c0.088,0.091,0.088,0.179,0.088,0.246	c0.061,0.946-0.292,2.312-1.073,4.174c-0.574,1.233-1.134,2.604-1.654,4.077c-0.174,1.056-0.595,2.492-1.123,4.256	c-0.201,0.406-0.536,0.595-1.033,0.595C294.768,154.434,294.725,154.436,294.684,154.436 M298.217,140.529	c-0.448,0.447-0.693,0.775-0.844,1.126c-3.147,8.128-3.761,10.61-3.719,11.262c0.056,0.955,0.438,1.384,1.146,1.335	c0.438,0,0.707-0.148,0.872-0.484c0.521-1.742,0.939-3.17,1.116-4.232c0.528-1.494,1.086-2.869,1.663-4.104	c0.769-1.832,1.114-3.175,1.058-4.101c0-0.062,0-0.088-0.033-0.12C298.956,140.748,298.575,140.541,298.217,140.529 M300.197,137.628h-0.007c-0.59,0-1.563-1.039-1.626-1.737c-0.045-0.762,0.362-2.095,0.979-2.742	c0.229-0.246,0.466-0.369,0.704-0.369c0.05-0.004,0.104-0.004,0.157-0.004c0.891,0,1.413,0.512,1.473,1.445	c0,0.465-0.157,1.094-0.479,1.932c-0.382,0.957-0.752,1.414-1.195,1.477L300.197,137.628L300.197,137.628z M300.405,132.951	c-0.05,0-0.099,0.002-0.151,0.002c-0.19,0-0.387,0.107-0.583,0.314c-0.572,0.609-0.972,1.902-0.931,2.61	c0.055,0.583,0.955,1.563,1.446,1.573c0.361-0.057,0.692-0.491,1.046-1.365c0.313-0.816,0.465-1.424,0.465-1.861	C301.647,133.382,301.21,132.951,300.405,132.951"/><path style="fill:#0B314C;" d="M320.541,151.855c0,0.77-1.064,1.537-1.951,1.537c-1.776,0-3.376-1.655-4.733-5.027l-2.839,2.486	c-0.532,0.293-1.361,0.709-2.546,1.183c-1.184,0.472-2.013,0.71-2.427,0.71c-2.425,0-3.609-1.42-3.609-4.26	c0-2.189,1.125-4.793,3.433-7.869c2.428-3.312,4.732-4.969,6.863-4.969c1.772,0,2.603,1.239,2.544,3.785v0.709	c0.829-1.123,1.419-1.656,1.834-1.656c0.295,0,0.768,0.238,1.481,0.77c-0.062,0.355-0.477,1.596-1.188,3.785	c-0.531,1.48-0.828,2.782-0.828,3.848c0,0.77,0.118,1.598,0.354,2.545c0.354,1.24,0.77,1.834,1.302,1.834	c0.06,0,0.651-0.121,1.776-0.298C320.362,151.324,320.541,151.619,320.541,151.855 M310.958,147.538	c2.068-2.013,3.193-3.667,3.313-5.029c-0.475,0.06-0.711,0.119-0.653,0.119c-0.77,0-1.124-0.533-1.124-1.657	c0-0.65,0.297-2.07,0.354-2.603c-1.597,0.413-3.37,1.952-5.267,4.496c-1.894,2.545-2.839,4.614-2.839,6.329	c0,0.473,0.652,1.361,1.064,1.361C307.17,150.555,308.886,149.549,310.958,147.538"/><path style="fill:#0B314C;" d="M318.59,153.482c-1.814,0-3.419-1.672-4.769-4.969l-2.748,2.403	c-0.503,0.281-1.343,0.707-2.567,1.197c-1.172,0.471-2.021,0.716-2.456,0.716c-2.455,0-3.699-1.462-3.699-4.348	c0-2.236,1.129-4.827,3.447-7.922c2.432-3.32,4.766-5.004,6.936-5.004c0.752,0,1.348,0.221,1.775,0.66	c0.61,0.625,0.892,1.678,0.854,3.217v0.44c0.768-1.006,1.325-1.479,1.746-1.479c0.329,0,0.816,0.252,1.532,0.787l0.043,0.032	l-0.009,0.054c-0.052,0.306-0.343,1.199-0.87,2.828l-0.317,0.971c-0.547,1.519-0.824,2.802-0.824,3.818	c0,0.749,0.118,1.574,0.354,2.522c0.338,1.188,0.736,1.767,1.214,1.767c0.025-0.002,0.167-0.025,0.341-0.058	c0.296-0.052,0.769-0.134,1.422-0.236l0.045-0.009l0.031,0.031c0.374,0.375,0.559,0.687,0.559,0.949	C320.631,152.716,319.488,153.482,318.59,153.482 M313.889,148.217l0.048,0.114c1.332,3.301,2.896,4.976,4.653,4.976	c0.886,0,1.86-0.759,1.86-1.449c0-0.205-0.159-0.472-0.475-0.793c-0.627,0.101-1.087,0.18-1.373,0.229	c-0.263,0.047-0.34,0.061-0.371,0.061c-0.575,0-1.017-0.603-1.384-1.896c-0.241-0.966-0.359-1.805-0.359-2.568	c0-1.037,0.28-2.342,0.834-3.876l0.313-0.968c0.48-1.482,0.78-2.406,0.854-2.749c-0.643-0.478-1.104-0.718-1.382-0.718	c-0.381,0-0.958,0.529-1.763,1.62l-0.16,0.218v-0.979c0.032-1.491-0.229-2.502-0.809-3.094c-0.397-0.406-0.936-0.604-1.647-0.604	c-2.109,0-4.395,1.658-6.79,4.932c-2.299,3.062-3.414,5.618-3.414,7.814c0,2.808,1.151,4.172,3.521,4.172	c0.408,0,1.257-0.25,2.394-0.705c1.216-0.484,2.047-0.907,2.531-1.178L313.889,148.217z M305.811,150.643	c-0.477,0-1.151-0.938-1.151-1.449c0-1.713,0.932-3.799,2.854-6.383c1.929-2.593,3.716-4.114,5.312-4.528l0.127-0.033l-0.016,0.128	c-0.021,0.186-0.067,0.473-0.122,0.803c-0.104,0.611-0.232,1.372-0.232,1.79c0,1.066,0.312,1.552,1.009,1.567	c0.082-0.033,0.267-0.068,0.668-0.118l0.109-0.013l-0.01,0.107c-0.118,1.353-1.21,3.018-3.341,5.086	C308.94,149.618,307.188,150.643,305.811,150.643 M312.744,138.489c-1.524,0.45-3.233,1.938-5.087,4.428	c-1.898,2.551-2.823,4.604-2.823,6.276c0,0.451,0.628,1.272,0.978,1.272c1.33,0,3.041-1.005,5.084-2.989	c2.04-1.982,3.111-3.576,3.275-4.865c-0.321,0.046-0.493,0.084-0.521,0.094l-0.03-0.079v0.091l-0.083-0.003	c-0.761-0.036-1.129-0.608-1.129-1.739c0-0.437,0.127-1.203,0.231-1.819C312.681,138.895,312.722,138.665,312.744,138.489"/><path style="fill:#0B314C;" d="M334.856,151.266c-2.781,2.482-5.028,3.727-6.743,3.727c-1.481,0-2.251-0.77-2.251-2.307	c0-0.475,0.179-1.065,0.592-1.832c0.414-0.771,0.771-1.188,1.188-1.188c0.412,0,0.59,0.297,0.59,0.947	c0,0.473-0.295,1.717-0.295,2.188c0,0.061,0,0.116,0.058,0.177c1.42-0.295,3.254-1.479,5.562-3.668	c2.13-2.013,3.192-3.666,3.192-4.969c0-1.835-1.36-3.787-3.076-3.787c-1.42,0-2.959,0.709-4.673,2.07	c-1.479,1.241-2.426,2.307-2.78,3.193c-0.532,1.242-1.537,4.082-3.137,8.52c-0.058,0.298-1.063,0.652-1.479,0.652	c-0.474,0-0.709-0.354-0.709-1.066c0-0.059,0.235-0.65,0.648-1.831c0.475-1.241,0.71-1.896,0.77-1.954	c1.007-3.017,2.071-6.271,3.254-9.701c2.781-8.045,4.498-13.961,5.146-17.808c0.181-0.295,0.358-0.415,0.653-0.415	c1.005,0,1.479,0.594,1.479,1.717c0,0.651-0.711,3.431-2.189,8.226c-1.124,3.728-2.012,6.506-2.663,8.342	c1.953-1.479,3.786-2.248,5.502-2.248c1.598,0,2.958,0.707,3.965,2.128c1.008,1.361,1.539,2.898,1.539,4.616	C338.998,146.709,337.637,148.781,334.856,151.266"/><path style="fill:#0B314C;" d="M328.112,155.079c-1.529,0-2.338-0.827-2.338-2.396c0-0.51,0.196-1.123,0.603-1.877	c0.47-0.871,0.838-1.229,1.264-1.229c0.606,0,0.68,0.589,0.68,1.037c0,0.242-0.073,0.662-0.149,1.105	c-0.072,0.42-0.146,0.852-0.146,1.082c0,0.033,0.001,0.06,0.01,0.078c1.416-0.316,3.253-1.539,5.461-3.635	c2.104-1.983,3.168-3.634,3.168-4.904c0-1.744-1.278-3.697-2.986-3.697c-1.366,0-2.878,0.67-4.617,2.052	c-1.51,1.269-2.411,2.301-2.753,3.157c-0.456,1.06-1.257,3.289-2.472,6.668l-0.665,1.851c-0.071,0.364-1.164,0.707-1.562,0.707	c-0.53,0-0.797-0.388-0.797-1.151c0-0.043,0.022-0.117,0.184-0.552c0.111-0.303,0.27-0.738,0.468-1.313l0.281-0.739	c0.326-0.854,0.435-1.138,0.493-1.224c0.259-0.771,0.519-1.558,0.783-2.358c0.781-2.353,1.587-4.782,2.466-7.33	c2.812-8.138,4.496-13.958,5.144-17.796l0.013-0.031c0.194-0.324,0.408-0.456,0.728-0.456c1.044,0,1.568,0.606,1.568,1.806	c0,0.715-0.818,3.801-2.192,8.248c-1.062,3.529-1.926,6.242-2.565,8.072c1.898-1.389,3.688-2.093,5.318-2.093	c1.641,0,3.033,0.749,4.036,2.166c1.032,1.395,1.555,2.964,1.555,4.666c0,1.759-1.364,3.832-4.169,6.338	C332.131,153.818,329.844,155.079,328.112,155.079 M327.639,149.756c-0.348,0-0.678,0.34-1.105,1.139	c-0.391,0.726-0.581,1.312-0.581,1.791c0,1.472,0.728,2.22,2.16,2.22c1.687,0,3.933-1.247,6.687-3.706	c2.767-2.473,4.11-4.5,4.11-6.203c0-1.664-0.513-3.198-1.523-4.562c-0.981-1.392-2.293-2.097-3.893-2.097	c-1.66,0-3.494,0.751-5.447,2.233l-0.237,0.177l0.101-0.278c0.647-1.824,1.543-4.631,2.66-8.34	c1.369-4.436,2.188-7.497,2.188-8.195c0-1.095-0.456-1.627-1.392-1.627c-0.255,0-0.403,0.094-0.563,0.358	c-0.655,3.847-2.338,9.669-5.148,17.803c-0.88,2.55-1.685,4.98-2.465,7.331c-0.271,0.805-0.53,1.596-0.788,2.369l-0.024,0.035	c-0.04,0.055-0.218,0.527-0.467,1.181l-0.277,0.741c-0.2,0.573-0.363,1.01-0.474,1.312c-0.094,0.259-0.17,0.463-0.175,0.5	c0,0.968,0.468,0.968,0.622,0.968c0.418,0,1.349-0.358,1.392-0.578l0.67-1.865c1.216-3.377,2.016-5.61,2.473-6.673	c0.353-0.882,1.27-1.939,2.803-3.229c1.776-1.406,3.324-2.092,4.733-2.092c1.81,0,3.165,2.045,3.165,3.874	c0,1.32-1.083,3.015-3.224,5.032c-2.261,2.146-4.148,3.387-5.604,3.689l-0.047,0.013l-0.033-0.035	c-0.084-0.085-0.084-0.173-0.084-0.238c0-0.245,0.069-0.665,0.148-1.11c0.07-0.416,0.146-0.85,0.146-1.077	C328.141,149.857,327.888,149.756,327.639,149.756"/><path style="fill:#0B314C;" d="M353.726,124.583l-10.473,26.269c0.236,0,0.829-0.297,1.064-0.297c0.473,0,0.71,0.178,0.71,0.532	c0,0.118,0,0.237-0.06,0.354c0,1.184-1.479,2.485-2.663,2.485c-1.004,0-1.537-0.709-1.537-2.131c0-1.599,0.829-4.317,2.427-8.165	c1.359-3.312,3.193-7.63,5.501-12.896l1.773-4.144c0.946-2.188,1.539-3.312,1.834-3.368c0.297-0.062,0.531-0.119,0.712-0.119	c0.412,0,0.649,0.177,0.709,0.53L353.726,124.583L353.726,124.583z"/><path style="fill:#0B314C;" d="M342.307,154.016c-0.743,0-1.626-0.384-1.626-2.219c0-1.574,0.796-4.257,2.431-8.195	c1.469-3.574,3.372-8.037,5.505-12.899l1.772-4.142c1.267-2.929,1.661-3.377,1.898-3.425l0.17-0.034	c0.229-0.048,0.405-0.084,0.559-0.084c0.574,0,0.753,0.328,0.798,0.605l0.002,0.979l-0.006,0.019l-10.417,26.12	c0.108-0.027,0.24-0.075,0.366-0.119c0.218-0.08,0.425-0.153,0.557-0.153c0.661,0,0.803,0.339,0.803,0.621	c0,0.117,0,0.245-0.062,0.375C345.041,152.66,343.585,154.016,342.307,154.016 M353.016,123.193c-0.133,0-0.312,0.037-0.521,0.08	l-0.171,0.035c-0.244,0.049-0.838,1.166-1.771,3.32l-1.775,4.141c-2.133,4.865-4.033,9.323-5.499,12.896	c-1.63,3.919-2.421,6.577-2.421,8.13c0,1.354,0.486,2.042,1.449,2.042c1.178,0,2.575-1.3,2.575-2.396l0.007-0.038	c0.051-0.102,0.051-0.205,0.051-0.316c0-0.188-0.063-0.444-0.622-0.444c-0.103,0-0.312,0.075-0.502,0.145	c-0.219,0.077-0.43,0.154-0.562,0.154h-0.131l0.049-0.123l10.465-26.25v-0.933C353.585,123.339,353.387,123.193,353.016,123.193"/><path style="fill:#0B314C;" d="M362.715,151.087c-2.778,1.599-5.795,2.427-8.991,2.427c-0.473,0-1.122-0.296-2.012-0.828	c-1.241-0.889-1.893-2.131-1.893-3.729c0-1.952,1.124-4.496,3.431-7.632c2.309-3.134,4.26-4.731,5.797-4.731	c2.365,0,4.32,1.299,4.32,3.607c0,1.537-1.185,3.076-3.552,4.674c-2.188,1.479-4.141,2.189-5.738,2.189h-0.533	c-0.174-0.061-0.354-0.061-0.472-0.061c-0.177,0-0.354,0.354-0.592,1.004c-0.236,0.653-0.356,1.125-0.356,1.422	c0,0.827,0.415,1.361,1.243,1.598c0.296,0.06,1.064,0.117,2.19,0.117c0.412,0,1.181-0.178,2.306-0.529	c1.124-0.417,1.833-0.71,2.251-0.949c1.534-0.885,2.425-1.357,2.601-1.357c0.652,0,1.361,0.887,1.361,1.598	C364.076,150.141,363.603,150.555,362.715,151.087 M359.816,139.077c-0.65,0-1.655,0.709-3.017,2.188	c-1.36,1.479-2.131,2.543-2.307,3.194h1.065c0.649,0,1.715-0.593,3.312-1.774c1.599-1.183,2.367-2.07,2.367-2.604	C361.238,139.609,360.35,139.077,359.816,139.077"/><path style="fill:#0B314C;" d="M353.723,153.604c-0.459,0-1.073-0.254-2.058-0.843c-1.287-0.918-1.936-2.196-1.936-3.805	c0-1.99,1.16-4.575,3.449-7.685c2.327-3.164,4.3-4.77,5.866-4.77c2.639,0,4.41,1.484,4.41,3.697c0,1.564-1.177,3.117-3.591,4.747	c-2.135,1.44-4.137,2.204-5.789,2.204l-0.559-0.004c-0.166-0.057-0.334-0.057-0.446-0.057c-0.164,0-0.423,0.712-0.51,0.947	c-0.229,0.637-0.351,1.104-0.351,1.389c0,0.792,0.387,1.285,1.18,1.514c0.263,0.051,0.993,0.113,2.166,0.113	c0.402,0,1.17-0.178,2.279-0.527c1.144-0.422,1.835-0.711,2.229-0.939c2.094-1.206,2.508-1.372,2.646-1.372	c0.733,0,1.449,0.966,1.449,1.687c0,0.276-0.471,0.701-1.402,1.259C359.943,152.781,356.906,153.604,353.723,153.604 M359.048,136.682c-1.506,0-3.432,1.581-5.725,4.697c-2.265,3.077-3.414,5.627-3.414,7.578c0,1.546,0.624,2.775,1.856,3.657	c0.934,0.559,1.54,0.811,1.959,0.811c3.149,0,6.159-0.812,8.947-2.416c1.223-0.729,1.316-1.03,1.316-1.104	c0-0.691-0.688-1.509-1.271-1.509c-0.146,0-1.005,0.453-2.558,1.349c-0.408,0.229-1.102,0.524-2.263,0.951	c-1.129,0.357-1.915,0.538-2.337,0.538c-1.188,0-1.931-0.065-2.209-0.12c-0.874-0.249-1.312-0.815-1.312-1.685	c0-0.309,0.119-0.783,0.36-1.449c0.289-0.797,0.461-1.064,0.676-1.064c0.121,0,0.302,0,0.488,0.061h0.517	c1.616,0,3.582-0.752,5.689-2.175c2.359-1.594,3.513-3.101,3.513-4.6C363.279,137.771,361.152,136.682,359.048,136.682 M355.559,144.55h-1.184l0.029-0.112c0.184-0.672,0.946-1.728,2.329-3.229c1.351-1.473,2.389-2.218,3.082-2.218	c0.554,0,1.509,0.54,1.509,1.093c0,0.74-1.306,1.861-2.402,2.675C357.254,143.997,356.213,144.55,355.559,144.55 M354.614,144.371	h0.945c0.604,0,1.642-0.559,3.259-1.757c2.029-1.502,2.331-2.23,2.331-2.531c0-0.406-0.825-0.917-1.332-0.917	c-0.44,0-1.312,0.374-2.95,2.159C355.6,142.705,354.84,143.729,354.614,144.371"/><path style="fill:#0B314C;" d="M397.796,151.382c-1.24,0-2.25-0.53-2.956-1.596c-0.652-0.946-0.947-2.071-0.947-3.433	c0-0.412,0.237-1.241,0.711-2.545c0.533-1.359,0.768-2.129,0.768-2.306l-0.061-0.12c-1.419,1.124-2.542,2.129-3.429,3.018	l-4.853,5.442c-2.546,2.724-4.2,4.081-4.972,4.081c-0.944,0-1.419-0.531-1.419-1.536c2.188-5.502,5.621-14.553,10.295-27.271	c0.177-0.414,0.474-0.888,0.886-1.538c0.415-0.652,0.77-1.007,1.007-1.007c0.477,0,1.36,0.71,1.36,1.184	c-5.62,14.97-8.754,23.19-9.466,24.789c3.376-3.608,5.325-5.619,5.738-6.034c2.898-2.779,5.086-4.142,6.447-4.142	c0.889,0,1.481,1.125,1.481,2.013c0,0.294-0.414,1.418-1.186,3.253c-0.77,1.834-1.124,3.077-1.124,3.728	c0,1.361,0.591,2.07,1.716,2.07c0.299,0,1.064-0.178,1.36-0.178c0.77,0,1.126,0.297,1.126,0.828	C400.281,150.968,399.453,151.382,397.796,151.382"/><path style="fill:#0B314C;" d="M382.06,154.016c-0.987,0-1.508-0.562-1.508-1.627l0.006-0.033	c2.326-5.844,5.885-15.272,10.293-27.269c0.176-0.414,0.456-0.864,0.896-1.557c0.442-0.696,0.807-1.046,1.082-1.046	c0.513,0,1.45,0.746,1.45,1.271l-0.008,0.031c-5.324,14.188-8.3,21.991-9.269,24.328c3.223-3.443,5.014-5.285,5.396-5.667	c2.842-2.729,5.093-4.167,6.51-4.167c0.972,0,1.568,1.225,1.568,2.101c0,0.305-0.391,1.38-1.189,3.287	c-0.923,2.201-1.118,3.225-1.118,3.691c0,1.315,0.55,1.982,1.628,1.982c0.141,0,0.407-0.044,0.666-0.087	c0.274-0.047,0.539-0.09,0.694-0.09c1.003,0,1.213,0.497,1.213,0.916c0,0.937-0.842,1.392-2.573,1.392	c-1.287,0-2.309-0.553-3.031-1.637c-0.648-0.941-0.96-2.081-0.96-3.48c0-0.414,0.225-1.232,0.712-2.573	c0.576-1.472,0.75-2.097,0.763-2.259c-1.282,1.021-2.405,2.011-3.337,2.942l-4.848,5.438	C384.51,152.671,382.861,154.016,382.06,154.016 M380.727,152.404c0.007,0.951,0.456,1.433,1.333,1.433	c0.741,0,2.391-1.362,4.902-4.055l4.853-5.44c0.96-0.962,2.116-1.979,3.441-3.027l0.085-0.068l0.117,0.256	c0,0.223-0.297,1.12-0.773,2.341c-0.48,1.318-0.704,2.116-0.704,2.511c0,1.365,0.306,2.47,0.933,3.381	c0.689,1.035,1.659,1.559,2.886,1.559c1.61,0,2.396-0.396,2.396-1.213c0-0.497-0.338-0.74-1.035-0.74	c-0.142,0-0.408,0.046-0.666,0.089c-0.274,0.046-0.539,0.091-0.693,0.091c-1.181,0-1.805-0.748-1.805-2.162	c0-0.697,0.392-1.996,1.129-3.763c0.975-2.314,1.178-3.028,1.178-3.219c0-0.801-0.527-1.921-1.391-1.921	c-1.371,0-3.578,1.424-6.385,4.115c-0.498,0.496-2.554,2.627-5.735,6.033l-0.359,0.385l0.213-0.483	c0.694-1.562,3.7-9.433,9.459-24.769c-0.021-0.428-0.852-1.076-1.272-1.076c-0.073,0-0.361,0.066-0.933,0.963	c-0.433,0.686-0.709,1.129-0.88,1.527C386.613,137.133,383.054,146.559,380.727,152.404"/><path style="fill:#0B314C;" d="M417.257,146.945c-1.239,1.893-2.723,3.432-4.492,4.615c-2.015,1.357-4.025,2.012-6.037,2.012	c-2.84,0-4.675-2.426-4.675-5.269c0-1.064,0.355-2.362,1.006-3.844c0.771-1.717,1.654-2.544,2.545-2.544	c0.709,0,1.48,0.886,1.48,1.596l-1.539,2.604c-0.65,1.184-1.006,2.131-1.006,2.783c0,0.944,0.297,1.597,0.827,1.893	c0.415,0.175,1.125,0.295,2.129,0.295c1.834,0,3.668-0.89,5.562-2.604c1.894-1.717,2.84-3.49,2.84-5.324	c0-1.95-0.709-2.896-2.129-2.896c-0.71,0-1.538,0.413-2.427,1.301c-0.889,0.83-1.359,1.597-1.359,2.307	c0,0.236,0.413,0.593,0.413,1.006c0,0.412-0.473,0.592-1.36,0.592c-0.886,0-1.359-0.592-1.359-1.773	c0-1.362,0.649-2.661,1.893-3.905c1.243-1.301,2.545-1.952,3.903-1.952c2.132,0,4.261,1.893,4.438,3.963	c0.237,0.475,0.355,1.006,0.355,1.538C418.262,144.756,417.905,145.941,417.257,146.945"/><path style="fill:#0B314C;" d="M406.727,153.66c-2.715,0-4.763-2.303-4.763-5.355c0-1.044,0.342-2.352,1.013-3.881	c0.762-1.697,1.671-2.596,2.626-2.596c0.731,0,1.567,0.898,1.567,1.686v0.024l-0.013,0.021l-1.538,2.604	c-0.658,1.196-0.994,2.117-0.994,2.735c0,0.901,0.271,1.529,0.783,1.814c0.426,0.182,1.171,0.284,2.085,0.284	c1.786,0,3.587-0.845,5.502-2.58c1.866-1.688,2.812-3.459,2.812-5.26c0-1.89-0.667-2.81-2.04-2.81c-0.712,0-1.53,0.441-2.362,1.274	c-0.888,0.829-1.337,1.582-1.337,2.247c0,0.072,0.074,0.193,0.153,0.318c0.115,0.188,0.261,0.422,0.261,0.686	c0,0.681-1.089,0.681-1.448,0.681c-0.661,0-1.449-0.323-1.449-1.864c0-1.358,0.646-2.693,1.919-3.967	c1.253-1.312,2.589-1.979,3.967-1.979c2.183,0,4.334,1.918,4.524,4.027c0.232,0.474,0.355,1.014,0.355,1.563	c0,1.399-0.332,2.599-1.02,3.658c-1.276,1.944-2.756,3.463-4.521,4.638C410.822,152.979,408.775,153.66,406.727,153.66 M405.603,142.007c-0.882,0-1.73,0.86-2.463,2.49c-0.661,1.505-0.997,2.788-0.997,3.812c0,2.949,1.97,5.176,4.586,5.176	c2.012,0,4.023-0.672,5.985-1.997c1.745-1.163,3.207-2.665,4.472-4.591c0.666-1.028,0.99-2.193,0.99-3.561	c0-0.527-0.119-1.046-0.348-1.497l-0.009-0.032c-0.174-2.031-2.247-3.883-4.35-3.883c-1.326,0-2.618,0.647-3.839,1.926	c-1.237,1.238-1.868,2.53-1.868,3.842c0,1.119,0.428,1.687,1.271,1.687c1.272,0,1.272-0.38,1.272-0.503	c0-0.212-0.126-0.413-0.236-0.593c-0.096-0.153-0.177-0.285-0.177-0.413c0-0.725,0.453-1.499,1.387-2.371	c0.865-0.865,1.729-1.326,2.488-1.326c1.473,0,2.217,1.005,2.217,2.987c0,1.852-0.965,3.665-2.868,5.391	c-1.95,1.767-3.79,2.625-5.622,2.625c-0.951,0-1.702-0.104-2.161-0.304c-0.581-0.32-0.883-1.001-0.883-1.973	c0-0.647,0.342-1.599,1.016-2.823l1.527-2.586C406.977,142.805,406.23,142.007,405.603,142.007"/><path style="fill:#0B314C;" d="M434.707,137.6l-4.732,0.709c-2.9,0.532-4.377,1.242-4.377,2.131c0,0.293,0.532,0.77,1.597,1.3	c1.479,0.71,2.78,1.718,3.904,3.018c1.36,1.479,2.015,2.957,2.015,4.378c0,1.481-0.711,2.723-2.132,3.848	c-1.421,1.123-2.897,1.656-4.438,1.656c-0.235,0-0.944-0.178-1.184-0.178c-1.123,0-2.247-0.355-3.371-1.006	c-1.241-0.77-1.834-1.717-1.834-2.779c0-1.48,1.714-2.841,3.312-2.841c0.888,0,1.358,0.354,1.358,1.123	c0,0.531-0.647,1.241-2.009,2.188c0.888,0.65,2.247,1.006,4.081,1.006c1.715,0,3.846-1.359,3.846-3.019	c0-1.834-1.893-3.727-5.62-5.737c-1.599-0.83-2.426-2.013-2.426-3.551c0-1.123,1.243-2.13,3.787-2.897	c2.012-0.652,3.785-1.007,5.324-1.007c1.952,0,2.958,0.474,3.018,1.422L434.707,137.6z"/><path style="fill:#0B314C;" d="M426.543,154.727c-0.125,0-0.359-0.045-0.606-0.091c-0.228-0.044-0.464-0.088-0.576-0.088	c-1.099,0-2.249-0.342-3.415-1.017c-1.249-0.771-1.88-1.731-1.88-2.856c0-1.479,1.687-2.93,3.404-2.93	c0.96,0,1.446,0.407,1.446,1.212c0,0.559-0.616,1.255-1.944,2.188c0.895,0.608,2.214,0.918,3.927,0.918	c1.69,0,3.757-1.352,3.757-2.93c0-1.783-1.821-3.636-5.571-5.66c-1.642-0.851-2.472-2.069-2.472-3.628	c0-1.188,1.33-2.221,3.849-2.982c2.1-0.679,3.851-1.011,5.351-1.011c1.999,0,3.044,0.508,3.104,1.504l0.002,0.024l-0.148,0.3	l-4.779,0.717c-2.853,0.522-4.302,1.209-4.302,2.041c0,0.209,0.405,0.651,1.548,1.223c1.483,0.713,2.808,1.734,3.934,3.04	c1.349,1.465,2.033,2.959,2.033,4.437c0,1.483-0.709,2.762-2.164,3.912C429.63,154.163,428.117,154.727,426.543,154.727 M423.468,147.923c-1.627,0-3.228,1.361-3.228,2.749c0,1.059,0.604,1.969,1.793,2.705c1.139,0.658,2.258,0.995,3.325,0.995	c0.127,0,0.362,0.043,0.607,0.088c0.229,0.042,0.467,0.087,0.575,0.087c1.533,0,3.009-0.551,4.381-1.637	c1.412-1.117,2.099-2.354,2.099-3.776c0-1.431-0.67-2.882-1.988-4.317c-1.111-1.287-2.415-2.295-3.878-2.998	c-0.615-0.308-1.646-0.893-1.646-1.379c0-0.942,1.456-1.67,4.451-2.219l4.688-0.703l0.088-0.174	c-0.072-0.871-1.056-1.313-2.928-1.313c-1.481,0-3.214,0.327-5.296,1.001c-2.439,0.736-3.728,1.712-3.728,2.814	c0,1.483,0.801,2.652,2.378,3.473c3.813,2.06,5.666,3.962,5.666,5.815c0,1.722-2.149,3.104-3.933,3.104	c-1.819,0-3.212-0.344-4.135-1.021l-0.101-0.072l0.103-0.07c1.328-0.926,1.975-1.616,1.975-2.116	C424.739,148.26,424.322,147.923,423.468,147.923"/><path style="fill:#0B314C;" d="M445.827,139.67c-1.479,3.844-2.544,7.217-3.254,9.996c0.062,0.592,0.121,0.889,0.177,0.889	c0.18,0,0.711-0.355,1.008-0.355c0.296,0,0.412,0.236,0.412,0.709c0,1.007-1.24,2.367-2.189,2.367c-1.182,0-1.771-0.89-1.771-2.604	c0-1.24,0.411-3.017,1.182-5.266c1.006-2.898,1.539-4.676,1.657-5.326c-1.304-0.116-2.603-0.234-3.904-0.411	c-1.834-0.297-2.722-0.946-2.722-1.953c0-0.532,0.354-0.829,1.124-0.829c0.294,0,0.708,0.119,1.124,0.297	c0.474,0.176,2.071,0.295,4.791,0.414c0.354,0,0.593-0.121,0.65-0.297l4.143-12.779c0.472-1.479,1.005-2.484,1.596-3.018	c0.949,0.412,1.424,0.946,1.424,1.598l-4.616,13.961c0.298,0,0.89-0.235,1.125-0.235h2.427c1.716,0,2.543,0.235,2.543,0.711	c0,0.413-1.006,0.888-2.959,1.301L445.827,139.67z"/><path style="fill:#0B314C;" d="M441.98,153.365c-1.235,0-1.861-0.905-1.861-2.693c0-1.226,0.389-2.957,1.188-5.295	c0.865-2.496,1.471-4.425,1.635-5.214c-1.242-0.114-2.522-0.231-3.812-0.408c-1.856-0.298-2.797-0.985-2.797-2.039	c0-0.419,0.212-0.918,1.212-0.918c0.294,0,0.702,0.108,1.158,0.304c0.425,0.158,1.85,0.279,4.762,0.409	c0.299,0,0.515-0.092,0.562-0.237l4.142-12.778c0.476-1.485,1.021-2.515,1.623-3.056l0.043-0.037l0.054,0.023	c0.978,0.428,1.473,0.99,1.473,1.68l-0.005,0.024l-4.573,13.834c0.139-0.022,0.312-0.069,0.47-0.112	c0.209-0.061,0.404-0.111,0.527-0.111h2.426c1.797,0,2.634,0.252,2.634,0.799c0,0.617-1.647,1.095-3.03,1.387l-3.915,0.819	c-1.375,3.575-2.459,6.915-3.229,9.93c0.055,0.545,0.102,0.726,0.122,0.785c0.071-0.019,0.2-0.076,0.312-0.13	c0.221-0.104,0.473-0.219,0.657-0.219c0.451,0,0.505,0.455,0.505,0.797C444.261,151.965,442.961,153.365,441.98,153.365 M437.545,136.979c-0.697,0-1.035,0.241-1.035,0.739c0,0.968,0.865,1.578,2.646,1.865c1.318,0.177,2.631,0.298,3.9,0.413	l0.097,0.01l-0.018,0.096c-0.135,0.741-0.741,2.688-1.661,5.338c-0.794,2.316-1.179,4.029-1.179,5.235	c0,1.669,0.566,2.515,1.686,2.515c0.882,0,2.102-1.32,2.102-2.278c0-0.547-0.166-0.62-0.325-0.62c-0.147,0-0.39,0.114-0.582,0.202	c-0.202,0.096-0.33,0.153-0.425,0.153c-0.104,0-0.173-0.066-0.266-0.968l-0.002-0.017l0.006-0.018	c0.774-3.035,1.87-6.402,3.256-10.007l0.019-0.045l0.048-0.011l3.963-0.828c2.126-0.452,2.888-0.923,2.888-1.214	c0-0.282-0.427-0.622-2.454-0.622h-2.426c-0.1,0-0.294,0.054-0.48,0.107c-0.231,0.062-0.475,0.127-0.645,0.127h-0.121l0.037-0.116	l4.61-13.946c-0.006-0.593-0.45-1.09-1.314-1.479c-0.558,0.529-1.073,1.517-1.527,2.937l-4.145,12.782	c-0.072,0.222-0.349,0.355-0.735,0.355c-2.977-0.129-4.37-0.25-4.822-0.42C438.209,137.082,437.811,136.979,437.545,136.979"/><path style="fill:#0B314C;" d="M457.657,141.325c0.06,0.948-0.296,2.307-1.064,4.142c-0.411,0.889-1.007,2.248-1.655,4.082	c-0.179,1.066-0.592,2.485-1.124,4.26c-0.179,0.355-0.475,0.532-0.947,0.532c-0.767,0.06-1.184-0.413-1.239-1.422	c-0.061-0.944,1.183-4.733,3.728-11.299c0.174-0.412,0.471-0.771,0.888-1.183c0.412,0,0.826,0.236,1.36,0.709	C457.657,141.208,457.657,141.268,457.657,141.325 M459.375,136.118c-0.356,0.889-0.709,1.36-1.125,1.421	c-0.533,0-1.479-1.005-1.536-1.655c-0.062-1.007,0.708-3.019,1.598-3.019c0.944-0.061,1.478,0.412,1.536,1.357	C459.847,134.699,459.67,135.352,459.375,136.118"/><path style="fill:#0B314C;" d="M452.742,154.436c-0.744,0-1.149-0.508-1.207-1.51c-0.061-0.973,1.194-4.788,3.733-11.338	c0.162-0.383,0.427-0.734,0.906-1.214l0.024-0.024h0.037c0.415,0,0.841,0.219,1.42,0.731c0.089,0.091,0.089,0.179,0.089,0.246	c0.061,0.946-0.29,2.312-1.071,4.174c-0.575,1.233-1.135,2.604-1.653,4.077c-0.177,1.056-0.596,2.492-1.124,4.256	c-0.203,0.406-0.538,0.595-1.033,0.595C452.827,154.434,452.785,154.436,452.742,154.436 M456.273,140.529	c-0.447,0.447-0.691,0.775-0.843,1.126c-3.148,8.128-3.761,10.61-3.72,11.262c0.059,0.955,0.438,1.384,1.146,1.335	c0.439,0,0.708-0.148,0.873-0.484c0.522-1.742,0.941-3.17,1.117-4.232c0.528-1.494,1.087-2.869,1.665-4.104	c0.768-1.832,1.111-3.175,1.057-4.101c0-0.062-0.003-0.088-0.035-0.12C457.016,140.748,456.635,140.541,456.273,140.529 M458.256,137.628h-0.006c-0.59,0-1.562-1.039-1.628-1.737c-0.043-0.762,0.364-2.095,0.979-2.742	c0.23-0.246,0.468-0.369,0.706-0.369c0.049-0.004,0.104-0.004,0.155-0.004c0.892,0,1.414,0.512,1.473,1.445	c0,0.465-0.155,1.094-0.479,1.932c-0.386,0.957-0.752,1.414-1.194,1.477L458.256,137.628L458.256,137.628z M458.464,132.951	c-0.048,0-0.099,0.002-0.15,0.002c-0.192,0-0.387,0.107-0.582,0.314c-0.574,0.609-0.973,1.902-0.931,2.61	c0.051,0.583,0.953,1.563,1.441,1.573c0.366-0.057,0.697-0.491,1.049-1.365c0.312-0.816,0.465-1.424,0.465-1.861	C459.705,133.382,459.268,132.951,458.464,132.951"/><path style="fill:#0B314C;" d="M477.653,150.555c-1.243,0-2.25-0.531-2.958-1.654c-0.649-0.947-0.947-2.071-0.947-3.434	c0-0.296,0.299-1.24,0.829-2.723c0.593-1.479,0.889-2.307,0.889-2.482c-1.718,1.358-2.957,2.426-3.727,3.252l-4.852,5.504	c-2.484,2.661-4.142,4.021-4.972,4.021c-0.945,0-1.421-0.533-1.421-1.538c1.065-2.78,2.725-6.863,4.973-12.306	c0.708-1.717,1.301-2.543,1.833-2.543c0.473,0,1.36,0.649,1.36,1.123c0,0.061-1.24,3.074-3.667,8.992l0.295,0.236	c3.312-3.551,5.09-5.445,5.386-5.68c2.662-2.544,4.729-3.848,6.093-3.848c0.888,0,1.48,1.125,1.48,2.015	c0,0.295-0.414,1.419-1.185,3.252c-0.769,1.834-1.126,3.077-1.126,3.727c0,1.363,0.593,2.071,1.717,2.071	c0.297,0,1.065-0.177,1.362-0.177c0.769,0,1.124,0.297,1.124,0.827C480.14,150.081,479.311,150.555,477.653,150.555"/><path style="fill:#0B314C;" d="M461.918,153.128c-0.988,0-1.51-0.562-1.51-1.627l0.008-0.031c0.989-2.591,2.522-6.387,4.969-12.309	c0.732-1.772,1.343-2.599,1.918-2.599c0.537,0,1.449,0.688,1.449,1.213c0,0.062-0.252,0.676-2.668,6.572l-0.982,2.394l0.179,0.144	c3.53-3.781,5.051-5.4,5.336-5.627c2.684-2.562,4.754-3.863,6.15-3.863c0.973,0,1.567,1.222,1.567,2.1	c0,0.305-0.389,1.38-1.19,3.287c-0.921,2.199-1.117,3.224-1.117,3.691c0,1.317,0.551,1.982,1.628,1.982	c0.141,0,0.407-0.045,0.667-0.088c0.275-0.046,0.539-0.09,0.695-0.09c1.001,0,1.211,0.498,1.211,0.916	c0,0.66-0.446,1.451-2.573,1.451c-1.303,0-2.322-0.57-3.035-1.697c-0.646-0.94-0.957-2.079-0.957-3.479	c0-0.296,0.265-1.17,0.834-2.751c0.526-1.318,0.744-1.941,0.828-2.23c-1.732,1.385-2.824,2.343-3.521,3.091l-4.851,5.501	C464.407,151.804,462.761,153.128,461.918,153.128 M460.584,151.52c0.009,0.949,0.457,1.432,1.334,1.432	c0.78,0,2.432-1.344,4.904-3.994l4.852-5.5c0.728-0.787,1.879-1.792,3.736-3.268l0.145-0.112v0.185c0,0.12-0.091,0.516-0.896,2.518	c-0.546,1.515-0.821,2.42-0.821,2.688c0,1.364,0.307,2.471,0.932,3.383c0.679,1.072,1.646,1.616,2.886,1.616	c1.591,0,2.396-0.43,2.396-1.272c0-0.497-0.34-0.74-1.034-0.74c-0.143,0-0.408,0.045-0.667,0.091	c-0.276,0.045-0.54,0.089-0.695,0.089c-1.18,0-1.803-0.748-1.803-2.162c0-0.697,0.391-1.996,1.129-3.762	c0.974-2.314,1.177-3.027,1.177-3.218c0-0.804-0.528-1.925-1.389-1.925c-1.333,0-3.418,1.324-6.035,3.82	c-0.306,0.246-2.329,2.405-5.377,5.678l-0.06,0.061l-0.411-0.329l1.031-2.517c1.69-4.123,2.623-6.396,2.657-6.523	c-0.002-0.396-0.835-1.017-1.272-1.017c-0.485,0-1.059,0.813-1.751,2.489C463.107,145.139,461.577,148.932,460.584,151.52"/><path style="fill:#0B314C;" d="M498.418,144.7c-0.235,0.649-0.652,1.653-1.241,2.956l-3.136,5.856	c-2.068,3.964-3.255,6.15-3.432,6.448c-1.241,2.129-2.604,4.141-4.143,6.033c-0.473,0.652-1.36,0.945-2.722,0.945	c-1.598,0-2.957-0.945-4.083-2.78c-1.004-1.656-1.535-3.312-1.535-5.028c0-1.062,0.296-1.597,0.944-1.597	c0.533,0,0.949,1.125,1.243,3.312c0.061,0.649,0.474,1.479,1.24,2.485c0.77,1.062,1.424,1.597,2.014,1.597	c1.362,0,3.492-2.663,6.33-7.985c0.828-1.537,2.188-4.319,4.143-8.282c-0.533,0.591-1.422,1.419-2.66,2.425	c-2.31,1.538-4.023,2.307-5.209,2.307c-1.42,0-2.426-0.591-3.075-1.717c-0.533-0.945-0.711-2.129-0.593-3.549	c0.771-6.804,4.731-11.418,10.115-11.418c2.073,0,3.729,1.832,3.729,3.904c0,2.012-0.414,3.018-1.185,3.018	c-0.89,0-1.301-0.413-1.301-1.238c0-1.361-0.12-2.311-0.415-2.843c-0.412-0.297-0.887-0.474-1.539-0.474	c-2.955,0-5.264,2.896-6.92,8.695c-0.059,0.414-0.12,0.77-0.12,1.185c0,1.241,0.474,1.896,1.421,1.896	c1.716,0,4.732-1.953,8.992-5.918l1.42-1.715c0.771-0.891,1.304-1.302,1.598-1.302c0.711,0,1.064,0.411,1.064,1.185L498.418,144.7z	"/><path style="fill:#0B314C;" d="M483.746,167.031c-1.61,0-3.01-0.948-4.156-2.823c-1.045-1.721-1.553-3.379-1.553-5.074	c0-1.135,0.338-1.685,1.035-1.685c0.588,0,1.023,1.105,1.333,3.387c0.056,0.637,0.47,1.458,1.224,2.444	c0.761,1.053,1.396,1.562,1.939,1.562c0.921,0,2.753-1.378,6.253-7.94c0.739-1.373,1.913-3.756,3.537-7.055l0.346-0.701	c-0.468,0.47-1.188,1.135-2.27,2.011c-2.351,1.567-4.068,2.325-5.263,2.325c-1.416,0-2.477-0.59-3.153-1.758	c-0.528-0.943-0.726-2.117-0.604-3.603c0.383-3.378,1.542-6.252,3.351-8.313c1.832-2.084,4.202-3.187,6.855-3.187	c2.067,0,3.814,1.828,3.814,3.995c0,2.06-0.427,3.104-1.271,3.104c-0.923,0-1.391-0.447-1.391-1.33	c0-1.397-0.124-2.281-0.394-2.781c-0.433-0.301-0.898-0.442-1.472-0.442c-2.899,0-5.198,2.901-6.836,8.631l-0.017,0.125	c-0.055,0.36-0.1,0.673-0.1,1.033c0,1.196,0.448,1.804,1.331,1.804c1.727,0,4.731-1.979,8.934-5.892l1.412-1.706	c0.767-0.889,1.325-1.335,1.665-1.335c0.755,0,1.153,0.438,1.153,1.272v0.024l-0.013,0.021l-0.946,1.599	c-0.258,0.712-0.7,1.766-1.237,2.946l-3.138,5.863c-2.016,3.858-3.239,6.131-3.433,6.453c-1.305,2.235-2.66,4.213-4.149,6.044	C486.051,166.72,485.166,167.031,483.746,167.031 M479.072,157.625c-0.369,0-0.857,0.154-0.857,1.507	c0,1.663,0.501,3.293,1.525,4.981c1.112,1.818,2.461,2.738,4.006,2.738c1.355,0,2.197-0.289,2.648-0.908	c1.482-1.826,2.836-3.797,4.138-6.029c0.19-0.318,1.414-2.588,3.429-6.441l3.136-5.858c0.532-1.175,0.973-2.222,1.235-2.945	l0.943-1.59c-0.009-0.709-0.336-1.07-0.978-1.07c-0.159,0-0.57,0.165-1.53,1.271l-1.418,1.712c-4.244,3.954-7.29,5.951-9.062,5.951	c-0.688,0-1.507-0.346-1.507-1.983c0-0.373,0.049-0.705,0.1-1.06l0.021-0.137c1.662-5.824,4.02-8.771,7.009-8.771	c0.618,0,1.125,0.155,1.591,0.489l0.023,0.027c0.292,0.522,0.426,1.438,0.426,2.885c0,0.787,0.389,1.152,1.215,1.152	c0.904,0,1.095-1.593,1.095-2.928c0-2.069-1.666-3.815-3.639-3.815c-5.312,0-9.251,4.45-10.026,11.339	c-0.121,1.443,0.066,2.588,0.579,3.498c0.651,1.122,1.633,1.67,2.999,1.67c1.156,0,2.843-0.752,5.156-2.293	c1.126-0.912,2.067-1.771,2.646-2.412l0.43-0.475l-0.887,1.801c-1.624,3.299-2.8,5.685-3.54,7.062c-2.843,5.328-5,8.03-6.409,8.03	c-0.615,0-1.275-0.52-2.083-1.633c-0.772-1.013-1.196-1.863-1.26-2.529C479.865,158.186,479.398,157.625,479.072,157.625"/></g></svg>