<?xml version="1.0" encoding="utf-8"?>
<!-- Generator: Adobe Illustrator 16.0.0, SVG Export Plug-In . SVG Version: 6.00 Build 0)  -->
<!DOCTYPE svg PUBLIC "-//W3C//DTD SVG 1.1//EN" "http://www.w3.org/Graphics/SVG/1.1/DTD/svg11.dtd">
<svg version="1.1" xmlns="http://www.w3.org/2000/svg" xmlns:xlink="http://www.w3.org/1999/xlink" x="0px" y="0px" width="50px"
	 height="50px" viewBox="0 0 50 50" enable-background="new 0 0 50 50" xml:space="preserve">
<g id="Layer_2" display="none">
	
		<rect x="5" y="5" display="inline" fill="none" stroke="#000000" stroke-width="0.25" stroke-linecap="round" stroke-linejoin="round" stroke-miterlimit="10" width="40" height="40"/>
</g>
<g id="Layer_1">
	<g>
		<g>
			<path d="M33.235,11.807c-0.111-0.112-0.249-0.193-0.398-0.24l-8.975-2.818c-3.589-1.127-5.924,0.839-6.553,1.47
				c-0.367,0.367-0.648,0.754-0.792,1.091l-3.998,9.404c-0.228,0.538-0.151,1.255,0.208,1.97c0.514,1.021,1.441,1.757,2.547,2.022
				c1.239,0.297,2.525-0.106,3.53-1.111c0.263-0.263,0.488-0.553,0.62-0.799l1.343-2.493c0.221-0.413,0.542-0.841,0.88-1.179
				c1.154-1.154,1.701-0.626,1.934-0.402c2.011,1.941,12.554,12.529,12.554,12.529c0.375,0.375,0.296,1.086-0.172,1.554
				c-0.468,0.467-1.18,0.547-1.554,0.174l-2.962-2.962c-0.382-0.382-0.998-0.382-1.38,0c-0.382,0.38-0.382,0.998,0,1.38l2.962,2.962
				c0.374,0.374,0.296,1.084-0.172,1.551c-0.468,0.469-1.18,0.547-1.553,0.174l-2.962-2.961c-0.382-0.382-1-0.382-1.38,0
				c-0.382,0.379-0.382,0.998,0,1.38l2.962,2.962c0.374,0.374,0.293,1.085-0.174,1.553c-0.467,0.467-1.178,0.547-1.553,0.172
				l-2.962-2.962c-0.38-0.38-0.999-0.38-1.38,0c-0.38,0.382-0.38,1,0,1.38l2.962,2.962c0.375,0.375,0.295,1.086-0.172,1.554
				c-0.469,0.468-1.18,0.547-1.553,0.173l-3.607-3.609c0.515-0.775,0.375-1.898-0.389-2.664c-0.856-0.856-2.172-0.934-2.934-0.171
				c0.762-0.762,0.686-2.078-0.171-2.934c-0.858-0.857-2.172-0.935-2.934-0.173c0.762-0.762,0.685-2.076-0.173-2.932
				c-0.857-0.858-2.17-0.935-2.934-0.174c0.764-0.761,0.685-2.075-0.172-2.934c-0.802-0.802-1.997-0.911-2.774-0.3l-5.839-5.839
				c-0.381-0.382-1-0.382-1.381,0c-0.38,0.38-0.38,0.999,0,1.381l5.824,5.824l-1.726,1.726c-0.762,0.761-0.685,2.075,0.173,2.934
				c0.857,0.856,2.17,0.934,2.933,0.171c-0.763,0.763-0.685,2.077,0.173,2.934c0.856,0.856,2.171,0.935,2.933,0.173
				c-0.762,0.762-0.685,2.076,0.172,2.933c0.859,0.858,2.172,0.935,2.934,0.173c-0.762,0.761-0.685,2.075,0.173,2.933
				c0.857,0.857,2.17,0.935,2.933,0.172l1.825-1.823l3.581,3.58c1.142,1.143,3.076,1.063,4.314-0.173
				c0.603-0.603,0.925-1.373,0.97-2.135c0.762-0.045,1.533-0.368,2.135-0.971c0.604-0.603,0.927-1.373,0.973-2.135
				c0.761-0.045,1.53-0.368,2.135-0.971c0.603-0.604,0.926-1.373,0.97-2.136c0.762-0.044,1.533-0.366,2.136-0.971
				c1.237-1.237,1.313-3.172,0.172-4.314l-1.509-1.511l6.2-6.199c0.381-0.38,0.381-0.999,0-1.38L33.235,11.807z"/>
		</g>
		<g>
			<path d="M47.928,13.989l-7.901-7.901c-0.762-0.763-1.999-0.763-2.762,0l-2.761,2.76c-0.762,0.762-0.762,1.999,0,2.761
				l7.902,7.903c0.763,0.762,2,0.762,2.762,0l2.76-2.761C48.69,15.988,48.69,14.751,47.928,13.989z M43.782,18.013
				c-0.884,0-1.602-0.717-1.602-1.602c0-0.885,0.718-1.603,1.602-1.603c0.885,0,1.603,0.717,1.603,1.603
				C45.384,17.295,44.667,18.013,43.782,18.013z"/>
		</g>
	</g>
</g>
</svg>
