<?xml version="1.0" encoding="utf-8"?>
<!-- Business Intelligence © 2015 -->
<svg version="1.1" id="iFile-Diagram" width="328" height="165" xmlns="http://www.w3.org/2000/svg" xmlns:xlink="http://www.w3.org/1999/xlink" x="0px" y="0px"
	 viewBox="0 0 341 171" enable-background="new 0 0 341 171" xml:space="preserve">
<g>
	<g>
		<g>
			<g>
				<path fill-rule="evenodd" clip-rule="evenodd" fill="#E6E7E8" d="M230.9,73.5c25.1,0,89.1,7.9,102.9,23.4v35.8
					c0,27.4-101.3,31.4-110.4,31.4c-28.1,0-69.8-6.5-92.2-21c-0.7-0.3-3.3-3.9-3.3-6.4c0-8.9-1.4-25.5-1.4-28.7
					c0-3.3,0.8-9.7,3.1-13.7C138,79.9,210.6,73.5,230.9,73.5z"/>
			</g>
			<g>
				
					<path fill-rule="evenodd" clip-rule="evenodd" fill="none" stroke="#FFFFFF" stroke-width="0.4224" stroke-miterlimit="3.8637" d="
					M127.2,133.5c0,24.9,86.8,29.8,103.2,29.8c16.6,0,102.5-4.7,102.5-29.8c0-25.8-85.8-30.4-103.3-30.4
					C212.1,103.1,127.2,107.6,127.2,133.5z"/>
				<path fill="none" stroke="#FFFFFF" stroke-width="0.4224" stroke-miterlimit="3.8637" d="M229.7,103.1l0.1-30.3
					c-18.6,0-99.7,4-103.9,28l0,0.1c0,10.3,0.9,20.8,1.3,31.1C130.4,107.6,211.5,103.1,229.7,103.1z"/>
				<path fill="none" stroke="#FFFFFF" stroke-width="0.4224" stroke-miterlimit="3.8637" d="M332.8,132c0.2-4.4,1.9-29.3,1.6-31.2
					c-4.8-23.4-83.3-28-102-28l-2.6,0l-0.1,23.3l0,7C248.3,103.1,329.1,107.6,332.8,132z"/>
				<path fill="none" stroke="#FFFFFF" stroke-width="0.4224" stroke-miterlimit="3.8637" d="M127.2,132c0-10.3-0.9-20.8-1.3-31.1
					l-0.1,1.5c0,24.4,88.7,28.8,104.7,29l0,0.3l-0.1,31.7C211.8,163.4,127.2,159.2,127.2,132z"/>
				<path fill="none" stroke="#FFFFFF" stroke-width="0.4224" stroke-miterlimit="3.8637" d="M230.4,163.4l0-0.2l0.1-31.9
					c16.1,0,104-4.5,104-29l-0.1-1.5c-0.5,10.9-1.5,21.8-1.5,32.7C332.9,158.6,247,163.4,230.4,163.4z"/>
				
					<path fill-rule="evenodd" clip-rule="evenodd" fill="none" stroke="#FFFFFF" stroke-width="0.4224" stroke-miterlimit="3.8637" d="
					M125.8,102.3c0,24.3,88.7,29,104.7,29c16.1,0,104-4.5,104-29c0-25.1-87.8-29.5-104.7-29.5C212.7,72.8,125.8,77,125.8,102.3z"/>
			</g>
		</g>
	</g>
	<g>
		<g>
			<g>
				<path fill-rule="evenodd" clip-rule="evenodd" fill="#D1D3D4" d="M230.7,42.7c20.3,0,72.1,6.4,83.3,18.9v28.9
					c0,22.2-81.9,25.4-89.3,25.4c-22.7,0-56.5-5.2-74.6-17c-0.5-0.3-2.7-3.1-2.7-5.2c0-7.2-1.1-20.6-1.1-23.2
					c0-2.7,0.6-7.9,2.5-11.1C155.6,47.9,214.3,42.7,230.7,42.7z"/>
			</g>
			<g>
				
					<path fill-rule="evenodd" clip-rule="evenodd" fill="none" stroke="#FFFFFF" stroke-width="0.3417" stroke-miterlimit="3.8637" d="
					M146.8,91.3c0,20.1,70.2,24.1,83.5,24.1c13.4,0,82.9-3.8,82.9-24.1c0-20.9-69.4-24.6-83.5-24.6
					C215.5,66.7,146.8,70.3,146.8,91.3z"/>
				<path fill="none" stroke="#FFFFFF" stroke-width="0.3417" stroke-miterlimit="3.8637" d="M229.7,66.7l0.1-24.5
					c-15.1,0-80.6,3.2-84.1,22.7l0,0.1c0,8.3,0.7,16.8,1.1,25.1C149.4,70.3,215,66.7,229.7,66.7z"/>
				<path fill="none" stroke="#FFFFFF" stroke-width="0.3417" stroke-miterlimit="3.8637" d="M313.2,90c0.2-3.6,1.6-23.7,1.3-25.2
					c-3.9-18.9-67.4-22.7-82.5-22.7l-2.1,0L229.8,61l0,5.6C244.8,66.7,310.2,70.3,313.2,90z"/>
				<path fill="none" stroke="#FFFFFF" stroke-width="0.3417" stroke-miterlimit="3.8637" d="M146.9,90c0-8.4-0.7-16.8-1.1-25.2
					l-0.1,1.2c0,19.8,71.8,23.3,84.7,23.4l0,0.3l-0.1,25.6C215.3,115.4,146.9,112,146.9,90z"/>
				<path fill="none" stroke="#FFFFFF" stroke-width="0.3417" stroke-miterlimit="3.8637" d="M230.3,115.4l0-0.2l0.1-25.8
					c13.1,0,84.1-3.6,84.1-23.4l-0.1-1.2c-0.4,8.8-1.2,17.7-1.2,26.4C313.3,111.6,243.8,115.4,230.3,115.4z"/>
				
					<path fill-rule="evenodd" clip-rule="evenodd" fill="none" stroke="#FFFFFF" stroke-width="0.3417" stroke-miterlimit="3.8637" d="
					M145.7,66c0,19.7,71.8,23.4,84.7,23.4c13.1,0,84.1-3.6,84.1-23.4c0-20.3-71-23.9-84.7-23.9C216,42.2,145.7,45.5,145.7,66z"/>
			</g>
		</g>
	</g>
	<g>
		<g>
			<g>
				<path fill-rule="evenodd" clip-rule="evenodd" fill="#B1BDD1" d="M230.6,21c14.8,0,52.5,4.6,60.7,13.8v21.1
					c0,16.2-59.7,18.5-65.1,18.5c-16.6,0-41.2-3.8-54.3-12.4c-0.4-0.2-2-2.3-2-3.8c0-5.3-0.8-15-0.8-16.9c0-2,0.4-5.7,1.8-8.1
					C175.8,24.8,218.6,21,230.6,21z"/>
			</g>
			<g>
				
					<path fill-rule="evenodd" clip-rule="evenodd" fill="none" stroke="#FFFFFF" stroke-width="0.249" stroke-miterlimit="3.8637" d="
					M169.4,56.4c0,14.7,51.2,17.6,60.9,17.6c9.8,0,60.5-2.8,60.5-17.6c0-15.2-50.6-17.9-60.9-17.9C219.5,38.4,169.4,41.1,169.4,56.4
					z"/>
				<path fill="none" stroke="#FFFFFF" stroke-width="0.249" stroke-miterlimit="3.8637" d="M229.9,38.4l0.1-17.9
					c-11,0-58.8,2.4-61.3,16.5l0,0c0,6.1,0.5,12.2,0.8,18.3C171.3,41.1,219.1,38.4,229.9,38.4z"/>
				<path fill="none" stroke="#FFFFFF" stroke-width="0.249" stroke-miterlimit="3.8637" d="M290.7,55.5c0.1-2.6,1.1-17.3,0.9-18.4
					c-2.9-13.8-49.1-16.5-60.1-16.5l-1.5,0l-0.1,13.7l0,4.1C240.8,38.4,288.5,41.1,290.7,55.5z"/>
				<path fill="none" stroke="#FFFFFF" stroke-width="0.249" stroke-miterlimit="3.8637" d="M169.5,55.4c0-6.1-0.5-12.3-0.8-18.4
					l0,0.9c0,14.4,52.3,17,61.7,17.1l0,0.2l-0.1,18.7C219.4,73.9,169.5,71.5,169.5,55.4z"/>
				<path fill="none" stroke="#FFFFFF" stroke-width="0.249" stroke-miterlimit="3.8637" d="M230.3,73.9l0-0.1l0.1-18.8
					c9.5,0,61.3-2.6,61.3-17.1l-0.1-0.9c-0.3,6.4-0.9,12.9-0.9,19.3C290.8,71.2,240.1,73.9,230.3,73.9z"/>
				
					<path fill-rule="evenodd" clip-rule="evenodd" fill="none" stroke="#FFFFFF" stroke-width="0.249" stroke-miterlimit="3.8637" d="
					M168.7,38c0,14.3,52.3,17.1,61.7,17.1c9.5,0,61.3-2.6,61.3-17.1c0-14.8-51.8-17.4-61.7-17.4C219.9,20.6,168.7,23,168.7,38z"/>
			</g>
		</g>
	</g>
	<g>
		<g>
			<g>
				<path fill-rule="evenodd" clip-rule="evenodd" fill="#D4EB8D" d="M230.4,5.9c10.1,0,35.8,3.2,41.3,9.4v14.4
					c0,11-40.6,12.6-44.3,12.6c-11.3,0-28-2.6-37-8.4c-0.3-0.1-1.3-1.6-1.3-2.6c0-3.6-0.5-10.2-0.5-11.5c0-1.3,0.3-3.9,1.3-5.5
					C193.1,8.5,222.3,5.9,230.4,5.9z"/>
			</g>
			<g>
				
					<path fill-rule="evenodd" clip-rule="evenodd" fill="none" stroke="#FFFFFF" stroke-width="0.1695" stroke-miterlimit="3.8637" d="
					M188.8,30c0,10,34.8,12,41.4,12c6.7,0,41.2-1.9,41.2-12c0-10.4-34.5-12.2-41.4-12.2C222.9,17.8,188.8,19.6,188.8,30z"/>
				<path fill="none" stroke="#FFFFFF" stroke-width="0.1695" stroke-miterlimit="3.8637" d="M229.9,17.8l0-12.2
					c-7.5,0-40,1.6-41.7,11.3l0,0c0,4.1,0.4,8.3,0.5,12.5C190.1,19.6,222.6,17.8,229.9,17.8z"/>
				<path fill="none" stroke="#FFFFFF" stroke-width="0.1695" stroke-miterlimit="3.8637" d="M271.3,29.4c0.1-1.8,0.8-11.8,0.6-12.5
					C270,7.5,238.5,5.6,231,5.6l-1,0l0,9.4l0,2.8C237.4,17.8,269.8,19.6,271.3,29.4z"/>
				<path fill="none" stroke="#FFFFFF" stroke-width="0.1695" stroke-miterlimit="3.8637" d="M188.8,29.4c0-4.1-0.4-8.3-0.5-12.5
					l0,0.6c0,9.8,35.6,11.5,42,11.6l0,0.1L230.2,42C222.8,42,188.8,40.3,188.8,29.4z"/>
				<path fill="none" stroke="#FFFFFF" stroke-width="0.1695" stroke-miterlimit="3.8637" d="M230.2,42L230.2,42l0.1-12.9
					c6.5,0,41.7-1.8,41.7-11.6l0-0.6c-0.2,4.4-0.6,8.8-0.6,13.1C271.4,40.1,236.9,42,230.2,42z"/>
				
					<path fill-rule="evenodd" clip-rule="evenodd" fill="none" stroke="#FFFFFF" stroke-width="0.1695" stroke-miterlimit="3.8637" d="
					M188.2,17.5c0,9.8,35.6,11.6,42,11.6c6.5,0,41.7-1.8,41.7-11.6c0-10.1-35.3-11.8-42-11.8C223.1,5.6,188.2,7.3,188.2,17.5z"/>
			</g>
		</g>
	</g>
</g>
<g>
	<g>
		<text transform="matrix(0.9563 0 0 1 39.2295 120.8967)" fill="#939598" font-family="'Arial'" font-size="9.7605px">TRANSACTIONAL/</text>
		<text transform="matrix(0.9563 0 0 1 39.2295 130.6575)" fill="#939598" font-family="'Arial'" font-size="9.7605px">MISSION CRITICAL</text>
	</g>
</g>
<g>
	<g>
		<text transform="matrix(0.9563 0 0 1 39.2451 83.6214)" fill="#939598" font-family="'Arial'" font-size="9.7605px">ENTERPRISE</text>
	</g>
</g>
<g>
	<g>
		<text transform="matrix(0.9563 0 0 1 39.2451 53.1199)" fill="#939598" font-family="'Arial'" font-size="9.7605px">LARGE</text>
	</g>
</g>
<g>
	<g>
		<text transform="matrix(0.9563 0 0 1 39.2295 23.8386)" fill="#939598" font-family="'Arial'" font-size="9.7605px">SMALL &amp; MEDIUM</text>
	</g>
</g>
<g>
	<polygon fill-rule="evenodd" clip-rule="evenodd" fill="#E6E7E8" points="36,10.2 36,152.3 8.8,152.3 	"/>
	
		<polygon fill-rule="evenodd" clip-rule="evenodd" fill="none" stroke="#E6E7E8" stroke-width="0.4047" stroke-miterlimit="3.8637" points="
		36,10.2 36,152.3 8.8,152.3 	"/>
</g>
<g>
	<g>
		<text transform="matrix(0.9563 0 0 1 7.4795 166.0149)" font-family="'Arial" font-size="12.2006px">INHERENT SCALABILITY</text>
	</g>
</g>
</svg>
