<?xml version="1.0" encoding="utf-8"?>
<!-- Generator: Adobe Illustrator 16.0.0, SVG Export Plug-In . SVG Version: 6.00 Build 0)  -->
<!DOCTYPE svg PUBLIC "-//W3C//DTD SVG 1.1//EN" "http://www.w3.org/Graphics/SVG/1.1/DTD/svg11.dtd">
<svg version="1.1" id="Layer_1" xmlns="http://www.w3.org/2000/svg" xmlns:xlink="http://www.w3.org/1999/xlink" x="0px" y="0px"
	 width="512px" height="512px" viewBox="0 0 512 512" enable-background="new 0 0 512 512" xml:space="preserve">
<g>
	<path d="M316.021,236.609L263.5,248.4v-61.727c-4.906,1.163-10.102,1.136-15-0.024V248.4l-61.205-13.741
		c-0.085,2.543-0.455,5.064-1.13,7.506l9.808,9.815l47.862,10.746l-8.563,13.178c4.984,1.331,9.496,3.826,13.225,7.18L256,271.536
		l30.146,46.391l22.853,11.556c0.61-0.373,1.239-0.707,1.872-1.038l-42.706-65.718l53.171-11.938
		C318.491,246.591,316.646,241.743,316.021,236.609z"/>
	<path d="M256,34.335L22.928,203.672l89.025,273.993h288.093l89.026-273.993L256,34.335z M381.614,437.308l-35.788-55.072
		c-3.937,3.136-8.617,5.374-13.734,6.395l38.363,59.035H141.544l72.259-111.194c-4.663-2.095-8.742-5.261-11.918-9.19l-71.5,110.027
		L60.269,221.513l62.65,14.065c-0.04-0.659-0.067-1.322-0.067-1.992c0-4.547,0.951-8.873,2.656-12.8l-57.369-12.88L248.5,76.867
		v47.106c2.408-0.576,4.918-0.89,7.5-0.89s5.092,0.313,7.5,0.89V76.867l180.361,131.04l-65.253,14.65
		c1.064,3.196,1.649,6.61,1.649,10.159c0,1.671-0.131,3.317-0.383,4.93l71.855-16.133L381.614,437.308z"/>
	<path d="M347.55,210.577c-4.267,0-8.254,1.21-11.643,3.301l-59.719-50.228c1.018-2.546,1.584-5.32,1.584-8.227
		c0-12.263-9.977-22.24-22.241-22.24c-12.263,0-22.239,9.978-22.239,22.24c0,2.67,0.474,5.23,1.34,7.604l-66.771,52.799
		c-3.701-2.75-8.281-4.38-13.236-4.38c-12.264,0-22.24,9.978-22.24,22.24c0,12.264,9.977,22.24,22.24,22.24
		c3.173,0,6.19-0.673,8.924-1.875l43.081,43.127c-1.515,3.003-2.374,6.392-2.374,9.979c0,12.264,9.977,22.24,22.24,22.24
		c6.106,0,11.646-2.475,15.669-6.474l61.149,30.919c-0.161,1.071-0.244,2.165-0.244,3.279c0,12.264,9.977,22.24,22.24,22.24
		s22.24-9.977,22.24-22.24c0-8.425-4.709-15.77-11.634-19.543l14.807-82.753c10.766-1.545,19.067-10.824,19.067-22.01
		C369.79,220.553,359.813,210.577,347.55,210.577z M322.136,335.113c-4.84,0.694-9.182,2.95-12.495,6.243l-61.149-30.92
		c0.159-1.07,0.243-2.165,0.243-3.278c0-12.264-9.976-22.24-22.239-22.24c-3.58,0-6.964,0.855-9.964,2.365l-42.575-42.622
		c1.848-3.24,2.908-6.985,2.908-10.975c0-2.221-0.331-4.364-0.939-6.39L243.324,174c3.507,2.313,7.702,3.663,12.207,3.663
		c4.267,0,8.255-1.21,11.644-3.301l59.719,50.227c-1.018,2.547-1.584,5.321-1.584,8.228c0,8.424,4.708,15.77,11.633,19.543
		L322.136,335.113z"/>
</g>
</svg>
