<svg xmlns="http://www.w3.org/2000/svg" viewBox="0 0 187.41 105.18"><defs><style>.cls-1{fill:#8dc63f;}.cls-2{fill:#8ec640;}.cls-3{fill:none;stroke:#8ec640;stroke-miterlimit:10;stroke-width:0.71px;}</style></defs><title>NHLogoName</title><g id="Layer_2" data-name="Layer 2"><g id="Layer_1-2" data-name="Layer 1"><path class="cls-1" d="M55.78,77.81V61h3.8l7.93,11.26V61h3.63V77.81H67.21l-7.8-11v11Z"/><path class="cls-1" d="M77.44,77.81V61h3.91v6.63H89V61h3.91V77.81H89V70.44H81.35v7.37Z"/><path class="cls-1" d="M111.5,71.62l3.79,1a7.34,7.34,0,0,1-2.9,4.1,9.11,9.11,0,0,1-5.14,1.34,9,9,0,0,1-6.33-2.29,8.11,8.11,0,0,1-2.48-6.27,8.49,8.49,0,0,1,2.5-6.54,9.24,9.24,0,0,1,6.56-2.33,8.78,8.78,0,0,1,5.77,1.83,6.49,6.49,0,0,1,2,3.1l-3.87.8a3.51,3.51,0,0,0-1.44-2.07,4.49,4.49,0,0,0-2.64-.76,4.72,4.72,0,0,0-3.5,1.34,6,6,0,0,0-1.34,4.36q0,3.2,1.32,4.56a4.6,4.6,0,0,0,3.44,1.35,4.24,4.24,0,0,0,2.68-.86A4.83,4.83,0,0,0,111.5,71.62Z"/><path class="cls-1" d="M126.77,11.42l-9.2,5.18.28-.13L116,17.6l-.95.6L114,19l-1.23.86c-.42.31-.86.66-1.32,1s-.94.71-1.42,1.1l-1.46,1.25-.76.65-.75.7c-.51.47-1,.94-1.54,1.45-1,1-2.05,2.06-3,3.2s-1.95,2.31-2.9,3.48-1.81,2.43-2.6,3.68S95.47,38.82,94.74,40c-.34.62-.66,1.23-1,1.83-.16.3-.31.59-.47.88l-.42.88c-.28.58-.55,1.15-.8,1.69s-.46,1.09-.68,1.61-.43,1-.62,1.48l-.47,1.33c-.15.41-.29.8-.42,1.16s-.23.74-.34,1.06l-.3,1a17,17,0,0,0,22.59-8.16,56,56,0,0,0,3-8.47c6.38-23.17,12.08-24.88,12.08-24.88h-.17"/><path class="cls-1" d="M77.73,34.85A21.11,21.11,0,0,1,78.51,32a19.44,19.44,0,0,1,.82-2C71.64,15,44,15,41.77,15l7.72,4.35,1.31.62.85.41,1,.52,1.11.59c.39.22.79.46,1.2.71s.86.5,1.31.79l1.36.9.71.47.71.52c.48.35,1,.7,1.46,1.07.95.77,2,1.55,2.91,2.42s1.91,1.78,2.86,2.69S68.09,33,68.91,34s1.63,2,2.39,3c.37.5.72,1,1.07,1.5l.51.73.46.74.89,1.41c.28.46.53.92.78,1.36s.49.85.71,1.26l.6,1.18.53,1,.23.52.21-.2.34-.35a11.73,11.73,0,0,0,1.22-1.49,17.91,17.91,0,0,1-1.58-6.43,24.11,24.11,0,0,1,.44-3.41"/><path class="cls-1" d="M81.38,30c-.3.65-.58,1.32-.82,2a21.25,21.25,0,0,0-.79,2.86,22.72,22.72,0,0,0-.43,3.41,17.93,17.93,0,0,0,1.58,6.43,14.73,14.73,0,0,0,2.79,4.14l.4.42.26.25c.09-.2.18-.41.29-.63l.63-1.25L86,46.19c.25-.49.55-1,.85-1.52s.6-1.07.93-1.63l1.08-1.7.56-.88.62-.88c.41-.59.83-1.2,1.27-1.8.93-1.18,1.84-2.43,2.88-3.6s2.11-2.35,3.18-3.51,2.25-2.23,3.44-3.24,2.35-2,3.5-2.91c.59-.44,1.18-.86,1.74-1.28l.85-.62.85-.57L109.39,21c.53-.34,1.06-.64,1.57-.94s1-.59,1.45-.85l1.34-.71,1.17-.62c.36-.19.71-.34,1-.48l1.58-.75,9.27-5.21c-2.69,0-36.58,0-45.38,18.56"/><path class="cls-1" d="M72.5,47.89l-.35-1-.4-1.11c-.15-.39-.33-.8-.5-1.23s-.36-.88-.57-1.34L70,41.84c-.12-.24-.23-.49-.35-.74l-.4-.73c-.26-.5-.53-1-.81-1.52-.61-1-1.2-2.06-1.9-3.08s-1.42-2-2.17-3.07-1.57-2-2.41-2.9S60.27,28,59.45,27.13c-.43-.42-.86-.81-1.28-1.21l-.63-.58-.63-.54-1.22-1c-.4-.33-.8-.62-1.18-.92s-.74-.58-1.1-.84l-1-.71-.9-.62c-.28-.19-.55-.35-.79-.5l-1.5-.95.23.11L41.77,15h-.14s4.74,1.42,10.06,20.73a46,46,0,0,0,2.54,7A14.1,14.1,0,0,0,73,49.6l-.25-.82-.28-.89"/><path class="cls-1" d="M80.9,0a9.29,9.29,0,0,0-9.28,9.29,9.15,9.15,0,0,0,1.43,4.94A9.28,9.28,0,1,0,80.9,0"/><path class="cls-2" d="M1,105V92.79H2.39l5.25,9.58V92.79H8.9V105H7.55L2.31,95.39V105Z"/><path class="cls-2" d="M10.77,99a7.38,7.38,0,0,1,1.37-4.79,4.24,4.24,0,0,1,3.41-1.67,4.15,4.15,0,0,1,2.41.75,5,5,0,0,1,1.72,2.17,8.28,8.28,0,0,1,.64,3.39,7.36,7.36,0,0,1-1.23,4.41,4.26,4.26,0,0,1-7.1,0A7.16,7.16,0,0,1,10.77,99Zm1.36,0a5.47,5.47,0,0,0,1,3.5,3,3,0,0,0,4.85,0,5.89,5.89,0,0,0,1-3.69A7.38,7.38,0,0,0,18.45,96a3.46,3.46,0,0,0-1.18-1.52A2.86,2.86,0,0,0,15.56,94,3,3,0,0,0,13.1,95.2,6.27,6.27,0,0,0,12.13,99.06Z"/><path class="cls-2" d="M22,105V92.79h4.43a4.68,4.68,0,0,1,2,.34,2.6,2.6,0,0,1,1.08,1.13A3.86,3.86,0,0,1,30,96.11a3.09,3.09,0,0,1-2.81,3.32,3.4,3.4,0,0,1,.85.68,8.54,8.54,0,0,1,1,1.55L30.79,105H29.13l-1.33-2.53a15.85,15.85,0,0,0-1.17-2,2.3,2.3,0,0,0-.76-.7,2.42,2.42,0,0,0-1-.18H23.31V105Zm1.32-6.8h2.84a3.47,3.47,0,0,0,1.41-.22,1.71,1.71,0,0,0,.76-.71,2.18,2.18,0,0,0,.28-1.12,1.93,1.93,0,0,0-.54-1.45,2.21,2.21,0,0,0-1.6-.53H23.31Z"/><path class="cls-2" d="M32,105V92.79h3.45a6.42,6.42,0,0,1,1.94.22,3.3,3.3,0,0,1,1.51,1.06,5.54,5.54,0,0,1,1,1.95,9.66,9.66,0,0,1,.36,2.79,9.07,9.07,0,0,1-.61,3.51,4.29,4.29,0,0,1-1.56,2,4.59,4.59,0,0,1-2.49.6Zm1.32-1.44h2.13a3.69,3.69,0,0,0,2-.42,2.65,2.65,0,0,0,1-1.35,8.31,8.31,0,0,0,.47-3,6.91,6.91,0,0,0-.5-2.91,2.75,2.75,0,0,0-1.29-1.42,4.36,4.36,0,0,0-1.69-.24H33.35Z"/><path class="cls-2" d="M42.38,105V92.79H43.7V105Z"/><path class="cls-2" d="M53.09,100.7l1.33.41a5.64,5.64,0,0,1-1.54,3.06,3.83,3.83,0,0,1-2.68,1,4.08,4.08,0,0,1-2.37-.68,4.79,4.79,0,0,1-1.61-2.17,9.1,9.1,0,0,1-.63-3.53,8.26,8.26,0,0,1,.63-3.4,4.81,4.81,0,0,1,1.7-2.1,4.24,4.24,0,0,1,2.39-.71,3.67,3.67,0,0,1,2.49.9,4.86,4.86,0,0,1,1.46,2.64l-1.3.37Q52.29,94,50.29,94a3,3,0,0,0-1.73.51,3.44,3.44,0,0,0-1.17,1.59A7.36,7.36,0,0,0,47,98.79a6.54,6.54,0,0,0,.88,3.75,2.73,2.73,0,0,0,2.34,1.25A2.58,2.58,0,0,0,52,103,4.15,4.15,0,0,0,53.09,100.7Z"/><path class="cls-2" d="M59.94,105V92.79h1.32v5h5.19v-5h1.32V105H66.45V99.23H61.26V105Z"/><path class="cls-2" d="M70,105V92.79h7.22v1.44h-5.9V98h5.52v1.44H71.36v4.14h6.13V105Z"/><path class="cls-2" d="M79.31,105V92.79h4.43a4.68,4.68,0,0,1,2,.34,2.6,2.6,0,0,1,1.08,1.13,3.84,3.84,0,0,1,.42,1.84,3.09,3.09,0,0,1-2.81,3.32,3.38,3.38,0,0,1,.85.68,8.49,8.49,0,0,1,1,1.55L88.11,105H86.45l-1.33-2.53a15.85,15.85,0,0,0-1.17-2,2.3,2.3,0,0,0-.76-.7,2.42,2.42,0,0,0-1-.18H80.63V105Zm1.32-6.8h2.84a3.47,3.47,0,0,0,1.41-.22,1.71,1.71,0,0,0,.76-.71,2.18,2.18,0,0,0,.28-1.12,1.94,1.94,0,0,0-.54-1.45,2.21,2.21,0,0,0-1.6-.53H80.63Z"/><path class="cls-2" d="M89.33,105V92.79h3.75a3.87,3.87,0,0,1,1.8.35A2.71,2.71,0,0,1,96,94.25a3.28,3.28,0,0,1,.42,1.65A3.1,3.1,0,0,1,96,97.41a2.84,2.84,0,0,1-1,1.08,2.71,2.71,0,0,1,1.37,1.08,3.34,3.34,0,0,1,.5,1.87,4,4,0,0,1-.45,1.94,2.79,2.79,0,0,1-1.21,1.21,4.7,4.7,0,0,1-2.08.38Zm1.32-7.06h2.16A4.37,4.37,0,0,0,94,97.79a1.51,1.51,0,0,0,.79-.59,2,2,0,0,0,.28-1.12A2.14,2.14,0,0,0,94.84,95a1.34,1.34,0,0,0-.67-.6,4.64,4.64,0,0,0-1.51-.17h-2Zm0,5.62h2.49a3.64,3.64,0,0,0,1.21-.15,1.66,1.66,0,0,0,.86-.71,2.38,2.38,0,0,0,.29-1.24,2.25,2.25,0,0,0-.28-1.17,1.7,1.7,0,0,0-.76-.7,3.81,3.81,0,0,0-1.5-.22H90.65Z"/><path class="cls-2" d="M97.59,105l3.85-12.17h1.41L106.94,105h-1.51l-1.16-3.69h-4.2L99,105Zm2.86-5h3.4l-1-3.37q-.48-1.55-.71-2.52a17.79,17.79,0,0,1-.55,2.33Z"/><path class="cls-2" d="M107.9,105V92.79h1.32v10.74h4.92V105Z"/><path class="cls-2" d="M126.2,100.7l1.33.41a5.64,5.64,0,0,1-1.54,3.06,3.83,3.83,0,0,1-2.68,1,4.08,4.08,0,0,1-2.37-.68,4.79,4.79,0,0,1-1.61-2.17,9.1,9.1,0,0,1-.63-3.53,8.26,8.26,0,0,1,.63-3.4,4.81,4.81,0,0,1,1.7-2.1,4.24,4.24,0,0,1,2.39-.71,3.67,3.67,0,0,1,2.49.9,4.86,4.86,0,0,1,1.46,2.64l-1.3.37Q125.4,94,123.4,94a3,3,0,0,0-1.73.51,3.44,3.44,0,0,0-1.17,1.59,7.36,7.36,0,0,0-.44,2.73,6.54,6.54,0,0,0,.88,3.75,2.73,2.73,0,0,0,2.34,1.25,2.58,2.58,0,0,0,1.87-.77A4.15,4.15,0,0,0,126.2,100.7Z"/><path class="cls-2" d="M128.81,99a7.38,7.38,0,0,1,1.37-4.79,4.24,4.24,0,0,1,3.41-1.67,4.15,4.15,0,0,1,2.41.75,5,5,0,0,1,1.72,2.17,8.27,8.27,0,0,1,.63,3.39,7.36,7.36,0,0,1-1.23,4.41,4.26,4.26,0,0,1-7.1,0A7.16,7.16,0,0,1,128.81,99Zm1.36,0a5.47,5.47,0,0,0,1,3.5,3,3,0,0,0,4.85,0,5.89,5.89,0,0,0,1-3.69,7.37,7.37,0,0,0-.51-2.81,3.47,3.47,0,0,0-1.17-1.52A2.86,2.86,0,0,0,133.6,94a3,3,0,0,0-2.46,1.25A6.27,6.27,0,0,0,130.17,99.06Z"/><path class="cls-2" d="M140,105V92.79h2l2.37,8.62.47,1.8q.17-.67.53-2l2.39-8.47h1.78V105h-1.27V94.79L145.34,105h-1.19l-2.89-10.36V105Z"/><path class="cls-2" d="M151.64,105V92.79h3.76a6.07,6.07,0,0,1,2,.23,2.64,2.64,0,0,1,1.38,1.17,4,4,0,0,1,.51,2.1,4.13,4.13,0,0,1-.84,2.68,3.53,3.53,0,0,1-2.9,1H153V105ZM153,98.58h2.58a2.48,2.48,0,0,0,1.79-.55,2.23,2.23,0,0,0,.56-1.67,2.58,2.58,0,0,0-.28-1.24,1.58,1.58,0,0,0-.67-.71,3.66,3.66,0,0,0-1.42-.19H153Z"/><path class="cls-2" d="M158.83,105l3.85-12.17h1.41L168.19,105h-1.51l-1.16-3.69h-4.2L160.23,105Zm2.86-5h3.4l-1-3.37q-.48-1.55-.71-2.52a17.79,17.79,0,0,1-.55,2.33Z"/><path class="cls-2" d="M169.19,105V92.79h1.35l5.25,9.58V92.79h1.26V105H175.7l-5.24-9.58V105Z"/><path class="cls-2" d="M182.1,105V99.81l-3.84-7h1.61l2,3.67q.58,1.09,1,2.06.44-1,1.09-2.15l1.94-3.58h1.53l-4,7V105Z"/><line class="cls-3" y1="88.1" x2="187.26" y2="88.1"/></g></g></svg>
